G04 #@! TF.GenerationSoftware,KiCad,Pcbnew,5.0.0-fee4fd1~66~ubuntu18.04.1*
G04 #@! TF.CreationDate,2018-09-30T17:11:51-04:00*
G04 #@! TF.ProjectId,pH-ORP-Card,70482D4F52502D436172642E6B696361,rev?*
G04 #@! TF.SameCoordinates,Original*
G04 #@! TF.FileFunction,Copper,L3,Inr,Plane*
G04 #@! TF.FilePolarity,Positive*
%FSLAX46Y46*%
G04 Gerber Fmt 4.6, Leading zero omitted, Abs format (unit mm)*
G04 Created by KiCad (PCBNEW 5.0.0-fee4fd1~66~ubuntu18.04.1) date Sun Sep 30 17:11:51 2018*
%MOMM*%
%LPD*%
G01*
G04 APERTURE LIST*
G04 #@! TA.AperFunction,ViaPad*
%ADD10R,1.700000X1.700000*%
G04 #@! TD*
G04 #@! TA.AperFunction,ViaPad*
%ADD11O,1.700000X1.700000*%
G04 #@! TD*
G04 #@! TA.AperFunction,ViaPad*
%ADD12C,1.420000*%
G04 #@! TD*
G04 #@! TA.AperFunction,ViaPad*
%ADD13C,2.800000*%
G04 #@! TD*
G04 #@! TA.AperFunction,ViaPad*
%ADD14R,2.300000X2.300000*%
G04 #@! TD*
G04 #@! TA.AperFunction,ViaPad*
%ADD15C,2.300000*%
G04 #@! TD*
G04 #@! TA.AperFunction,ViaPad*
%ADD16O,3.500120X7.000240*%
G04 #@! TD*
G04 #@! TA.AperFunction,ViaPad*
%ADD17O,1.600200X2.499360*%
G04 #@! TD*
G04 #@! TA.AperFunction,ViaPad*
%ADD18C,0.600000*%
G04 #@! TD*
G04 #@! TA.AperFunction,Conductor*
%ADD19C,0.254000*%
G04 #@! TD*
G04 APERTURE END LIST*
D10*
G04 #@! TO.N,//MCLR*
G04 #@! TO.C,P1*
X33655000Y67310000D03*
D11*
G04 #@! TO.N,+3V3*
X36195000Y67310000D03*
G04 #@! TO.N,GND*
X38735000Y67310000D03*
G04 #@! TO.N,/PGD*
X41275000Y67310000D03*
G04 #@! TO.N,/PGC*
X43815000Y67310000D03*
G04 #@! TO.N,Net-(P1-Pad6)*
X46355000Y67310000D03*
G04 #@! TD*
D12*
G04 #@! TO.N,+5V*
G04 #@! TO.C,P2*
X9200000Y19440005D03*
G04 #@! TO.N,/A*
X11700000Y19440005D03*
G04 #@! TO.N,/B*
X13700000Y19440005D03*
G04 #@! TO.N,GND*
X16200000Y19440005D03*
G04 #@! TO.N,+5V*
X9200000Y16820005D03*
G04 #@! TO.N,/A*
X11700000Y16820005D03*
G04 #@! TO.N,/B*
X13700000Y16820005D03*
G04 #@! TO.N,GND*
X16200000Y16820005D03*
D13*
G04 #@! TO.N,N/C*
X19270000Y14110005D03*
X19270000Y19790005D03*
X6130000Y19790005D03*
X6130000Y14110005D03*
G04 #@! TD*
D14*
G04 #@! TO.N,Net-(P3-Pad1)*
G04 #@! TO.C,P3*
X5080000Y65405000D03*
D15*
G04 #@! TO.N,GND*
X7620000Y65405000D03*
G04 #@! TD*
D16*
G04 #@! TO.N,GNDD*
G04 #@! TO.C,P4*
X34942780Y10261600D03*
X24744680Y10261600D03*
D17*
G04 #@! TO.N,Net-(P4-Pad1)*
X29845000Y14526260D03*
G04 #@! TO.N,GNDD*
X32344360Y14526260D03*
G04 #@! TD*
G04 #@! TO.N,GNDA*
G04 #@! TO.C,P5*
X60284360Y14526260D03*
G04 #@! TO.N,Net-(P5-Pad1)*
X57785000Y14526260D03*
D16*
G04 #@! TO.N,GNDA*
X52684680Y10261600D03*
X62882780Y10261600D03*
G04 #@! TD*
D18*
G04 #@! TO.N,GND*
X5080000Y56515000D03*
X8255000Y56515000D03*
X8890000Y53340000D03*
X10795000Y50165000D03*
X10795000Y50800000D03*
X10795000Y51435000D03*
X10160000Y52070000D03*
X9525000Y52070000D03*
X9007403Y52070000D03*
X15240000Y26035000D03*
X19050000Y24130000D03*
X32385000Y55245000D03*
X31115000Y50800000D03*
X22860000Y53903590D03*
X20320000Y54492597D03*
X20262417Y56641826D03*
X15875000Y60960000D03*
X27711756Y63906756D03*
X18415000Y66040000D03*
X61595000Y53340000D03*
X73662822Y59690000D03*
X24638000Y61468000D03*
X17780000Y48260000D03*
X12700000Y50165000D03*
X59055000Y52705000D03*
X50800000Y53340000D03*
G04 #@! TO.N,-5V*
X35560000Y34925000D03*
X43815000Y16510000D03*
X38100000Y29210000D03*
X45720000Y13335000D03*
X31115000Y26035000D03*
G04 #@! TO.N,+5VD*
X25400000Y42545000D03*
X45085000Y46355000D03*
X45085000Y46990000D03*
X45085000Y47625000D03*
X48895000Y46355000D03*
X48895000Y46990000D03*
X48895000Y47625000D03*
X32385000Y47625000D03*
X26670000Y45720000D03*
X29273438Y45783438D03*
X41910000Y13335000D03*
X33655000Y41910000D03*
X29210000Y34925000D03*
X46355000Y34290000D03*
G04 #@! TO.N,GNDD*
X44450000Y36195000D03*
X26035000Y20320000D03*
X48260000Y27940000D03*
X40640000Y27305000D03*
X33655000Y26670000D03*
X47625000Y16510000D03*
X27305000Y36195000D03*
X27940000Y40640000D03*
X46990000Y40640000D03*
X30480000Y48895000D03*
X34925000Y46355000D03*
X34925000Y46990000D03*
X34925000Y47625000D03*
X38735000Y46355000D03*
X38735000Y46990000D03*
X38735000Y47625000D03*
X22860000Y45720000D03*
X28575000Y43180000D03*
X34290000Y43180000D03*
X34290000Y45085000D03*
X48260000Y8890000D03*
X30480000Y40640000D03*
X44450000Y7620000D03*
G04 #@! TO.N,+5VA*
X53340000Y42545000D03*
X55245000Y45085000D03*
X55880000Y45720000D03*
X60325000Y47625000D03*
X73025000Y46355000D03*
X73025000Y46990000D03*
X73025000Y47625000D03*
X76835000Y46355000D03*
X76835000Y46990000D03*
X76835000Y47625000D03*
X57150000Y45720000D03*
X55880000Y42545000D03*
X69850000Y13335000D03*
X61595000Y41910000D03*
X57150000Y34925000D03*
X74295000Y34290000D03*
G04 #@! TO.N,GNDA*
X76200000Y10795000D03*
X75565000Y16510000D03*
X76200000Y27940000D03*
X61595000Y26670000D03*
X68580000Y27305000D03*
X55245000Y36195000D03*
X55880000Y40640000D03*
X50800000Y45085000D03*
X58420000Y48895000D03*
X66675000Y46355000D03*
X66675000Y46990000D03*
X66675000Y47625000D03*
X62865000Y46355000D03*
X62865000Y46990000D03*
X62865000Y47625000D03*
X72390000Y7620000D03*
X62230000Y43180000D03*
X62230000Y45085000D03*
X57150000Y43180000D03*
X70485000Y36195000D03*
X74930000Y38735000D03*
X53975000Y18415000D03*
X58420000Y40640000D03*
G04 #@! TO.N,-5VA*
X71755000Y16510000D03*
X73660000Y13335000D03*
X63500000Y36830000D03*
X59055000Y26035000D03*
X66675000Y29210000D03*
G04 #@! TO.N,//MCLR*
X25400000Y58424800D03*
G04 #@! TO.N,/PGC*
X23495000Y57150000D03*
G04 #@! TO.N,/PGD*
X24130000Y57785000D03*
G04 #@! TO.N,+3V3*
X8255000Y52070000D03*
X5715000Y52070000D03*
X6350000Y52070000D03*
X7620000Y52070000D03*
X53975000Y58420000D03*
X51435000Y58420000D03*
X64770000Y59690000D03*
X28575000Y50800000D03*
X26664697Y53903590D03*
X20320000Y55245000D03*
X20320000Y55880000D03*
X20955000Y66040000D03*
X73660000Y67945000D03*
X12700000Y45720000D03*
X17145000Y45085000D03*
X12700000Y39370000D03*
X17145000Y38735000D03*
X56515000Y52705000D03*
X22225000Y64770000D03*
X54610000Y53340000D03*
G04 #@! TO.N,Net-(C8-Pad1)*
X32385000Y31115000D03*
X31115000Y29845000D03*
G04 #@! TO.N,Net-(C22-Pad1)*
X60325000Y31115000D03*
X59055000Y29845000D03*
G04 #@! TO.N,/LED_R*
X27940000Y59944000D03*
X37440652Y65719128D03*
G04 #@! TO.N,/LED_G*
X35560000Y64770000D03*
X27178000Y59182000D03*
G04 #@! TO.N,/LED_Y*
X37084000Y64262000D03*
X26670000Y58420000D03*
G04 #@! TO.N,/SDA*
X24765000Y53903590D03*
X53975000Y53975000D03*
X20871050Y64771105D03*
G04 #@! TO.N,/SCL*
X24012597Y53903590D03*
X49530000Y52705000D03*
X16998048Y62865000D03*
G04 #@! TO.N,/TX_LV*
X18264100Y53306503D03*
X18415000Y43815000D03*
G04 #@! TO.N,/RX_LV*
X19050000Y53340000D03*
X18415000Y37465000D03*
G04 #@! TO.N,Net-(Q1-Pad1)*
X15240000Y52949401D03*
X15240000Y51435000D03*
G04 #@! TO.N,/RTS*
X16510000Y34925000D03*
X15875000Y47625000D03*
G04 #@! TO.N,GND*
X53975000Y60960000D03*
X56515000Y62230000D03*
X57150000Y62230000D03*
X55880000Y61595000D03*
X55880000Y60960000D03*
X57785000Y61595000D03*
X42545000Y60325000D03*
X36195000Y60325000D03*
X37465000Y61595000D03*
X38100000Y61595000D03*
X36892073Y61532927D03*
X36257073Y60897927D03*
G04 #@! TD*
D19*
G04 #@! TO.N,+5VD*
G36*
X29902676Y49280756D02*
X29799000Y49030459D01*
X29799000Y48759541D01*
X29902676Y48509244D01*
X30094244Y48317676D01*
X30344541Y48214000D01*
X30615459Y48214000D01*
X30865756Y48317676D01*
X31057324Y48509244D01*
X31161000Y48759541D01*
X31161000Y49030459D01*
X31057324Y49280756D01*
X30935080Y49403000D01*
X49149000Y49403000D01*
X49149000Y456000D01*
X21717000Y456000D01*
X21717000Y12221547D01*
X22613620Y12221547D01*
X22613620Y8301654D01*
X22737266Y7680043D01*
X23208272Y6975132D01*
X23913182Y6504126D01*
X24744680Y6338731D01*
X25576177Y6504126D01*
X26281088Y6975132D01*
X26752094Y7680042D01*
X26875740Y8301653D01*
X26875740Y12221547D01*
X26752094Y12843158D01*
X26281088Y13548068D01*
X25576178Y14019074D01*
X24744680Y14184469D01*
X23913183Y14019074D01*
X23208273Y13548068D01*
X22737267Y12843158D01*
X22613620Y12221547D01*
X21717000Y12221547D01*
X21717000Y15092168D01*
X28663900Y15092168D01*
X28663900Y13960353D01*
X28732428Y13615839D01*
X28993474Y13225154D01*
X29384158Y12964108D01*
X29845000Y12872441D01*
X30305841Y12964108D01*
X30696526Y13225154D01*
X30957572Y13615838D01*
X31026100Y13960352D01*
X31026100Y15092167D01*
X31026100Y15092168D01*
X31163260Y15092168D01*
X31163260Y13960353D01*
X31231788Y13615839D01*
X31492834Y13225154D01*
X31883518Y12964108D01*
X32344360Y12872441D01*
X32805201Y12964108D01*
X33186352Y13218784D01*
X32935367Y12843158D01*
X32811720Y12221547D01*
X32811720Y8301654D01*
X32935366Y7680043D01*
X33406372Y6975132D01*
X34111282Y6504126D01*
X34942780Y6338731D01*
X35774277Y6504126D01*
X36479188Y6975132D01*
X36950194Y7680042D01*
X36965195Y7755459D01*
X43769000Y7755459D01*
X43769000Y7484541D01*
X43872676Y7234244D01*
X44064244Y7042676D01*
X44314541Y6939000D01*
X44585459Y6939000D01*
X44835756Y7042676D01*
X45027324Y7234244D01*
X45131000Y7484541D01*
X45131000Y7755459D01*
X45027324Y8005756D01*
X44835756Y8197324D01*
X44585459Y8301000D01*
X44314541Y8301000D01*
X44064244Y8197324D01*
X43872676Y8005756D01*
X43769000Y7755459D01*
X36965195Y7755459D01*
X37073840Y8301653D01*
X37073840Y9025459D01*
X47579000Y9025459D01*
X47579000Y8754541D01*
X47682676Y8504244D01*
X47874244Y8312676D01*
X48124541Y8209000D01*
X48395459Y8209000D01*
X48645756Y8312676D01*
X48837324Y8504244D01*
X48941000Y8754541D01*
X48941000Y9025459D01*
X48837324Y9275756D01*
X48645756Y9467324D01*
X48395459Y9571000D01*
X48124541Y9571000D01*
X47874244Y9467324D01*
X47682676Y9275756D01*
X47579000Y9025459D01*
X37073840Y9025459D01*
X37073840Y12221547D01*
X36950194Y12843158D01*
X36531045Y13470459D01*
X45039000Y13470459D01*
X45039000Y13199541D01*
X45142676Y12949244D01*
X45334244Y12757676D01*
X45584541Y12654000D01*
X45855459Y12654000D01*
X46105756Y12757676D01*
X46297324Y12949244D01*
X46401000Y13199541D01*
X46401000Y13470459D01*
X46297324Y13720756D01*
X46105756Y13912324D01*
X45855459Y14016000D01*
X45584541Y14016000D01*
X45334244Y13912324D01*
X45142676Y13720756D01*
X45039000Y13470459D01*
X36531045Y13470459D01*
X36479188Y13548068D01*
X35774278Y14019074D01*
X34942780Y14184469D01*
X34111283Y14019074D01*
X33415906Y13554437D01*
X33456932Y13615838D01*
X33525460Y13960352D01*
X33525460Y15092167D01*
X33456932Y15436682D01*
X33195886Y15827366D01*
X32805202Y16088412D01*
X32344360Y16180079D01*
X31883519Y16088412D01*
X31492835Y15827366D01*
X31231788Y15436682D01*
X31163260Y15092168D01*
X31026100Y15092168D01*
X30957572Y15436682D01*
X30696526Y15827366D01*
X30305842Y16088412D01*
X29845000Y16180079D01*
X29384159Y16088412D01*
X28993475Y15827366D01*
X28732428Y15436682D01*
X28663900Y15092168D01*
X21717000Y15092168D01*
X21717000Y16645459D01*
X43134000Y16645459D01*
X43134000Y16374541D01*
X43237676Y16124244D01*
X43429244Y15932676D01*
X43679541Y15829000D01*
X43950459Y15829000D01*
X44200756Y15932676D01*
X44392324Y16124244D01*
X44496000Y16374541D01*
X44496000Y16645459D01*
X46944000Y16645459D01*
X46944000Y16374541D01*
X47047676Y16124244D01*
X47239244Y15932676D01*
X47489541Y15829000D01*
X47760459Y15829000D01*
X48010756Y15932676D01*
X48202324Y16124244D01*
X48306000Y16374541D01*
X48306000Y16645459D01*
X48202324Y16895756D01*
X48010756Y17087324D01*
X47760459Y17191000D01*
X47489541Y17191000D01*
X47239244Y17087324D01*
X47047676Y16895756D01*
X46944000Y16645459D01*
X44496000Y16645459D01*
X44392324Y16895756D01*
X44200756Y17087324D01*
X43950459Y17191000D01*
X43679541Y17191000D01*
X43429244Y17087324D01*
X43237676Y16895756D01*
X43134000Y16645459D01*
X21717000Y16645459D01*
X21717000Y20455459D01*
X25354000Y20455459D01*
X25354000Y20184541D01*
X25457676Y19934244D01*
X25649244Y19742676D01*
X25899541Y19639000D01*
X26170459Y19639000D01*
X26420756Y19742676D01*
X26612324Y19934244D01*
X26716000Y20184541D01*
X26716000Y20455459D01*
X26612324Y20705756D01*
X26420756Y20897324D01*
X26170459Y21001000D01*
X25899541Y21001000D01*
X25649244Y20897324D01*
X25457676Y20705756D01*
X25354000Y20455459D01*
X21717000Y20455459D01*
X21717000Y26170459D01*
X30434000Y26170459D01*
X30434000Y25899541D01*
X30537676Y25649244D01*
X30729244Y25457676D01*
X30979541Y25354000D01*
X31250459Y25354000D01*
X31500756Y25457676D01*
X31692324Y25649244D01*
X31796000Y25899541D01*
X31796000Y26170459D01*
X31692324Y26420756D01*
X31500756Y26612324D01*
X31250459Y26716000D01*
X30979541Y26716000D01*
X30729244Y26612324D01*
X30537676Y26420756D01*
X30434000Y26170459D01*
X21717000Y26170459D01*
X21717000Y26805459D01*
X32974000Y26805459D01*
X32974000Y26534541D01*
X33077676Y26284244D01*
X33269244Y26092676D01*
X33519541Y25989000D01*
X33790459Y25989000D01*
X34040756Y26092676D01*
X34232324Y26284244D01*
X34336000Y26534541D01*
X34336000Y26805459D01*
X34232324Y27055756D01*
X34040756Y27247324D01*
X33790459Y27351000D01*
X33519541Y27351000D01*
X33269244Y27247324D01*
X33077676Y27055756D01*
X32974000Y26805459D01*
X21717000Y26805459D01*
X21717000Y27440459D01*
X39959000Y27440459D01*
X39959000Y27169541D01*
X40062676Y26919244D01*
X40254244Y26727676D01*
X40504541Y26624000D01*
X40775459Y26624000D01*
X41025756Y26727676D01*
X41217324Y26919244D01*
X41321000Y27169541D01*
X41321000Y27440459D01*
X41217324Y27690756D01*
X41025756Y27882324D01*
X40775459Y27986000D01*
X40504541Y27986000D01*
X40254244Y27882324D01*
X40062676Y27690756D01*
X39959000Y27440459D01*
X21717000Y27440459D01*
X21717000Y28075459D01*
X47579000Y28075459D01*
X47579000Y27804541D01*
X47682676Y27554244D01*
X47874244Y27362676D01*
X48124541Y27259000D01*
X48395459Y27259000D01*
X48645756Y27362676D01*
X48837324Y27554244D01*
X48941000Y27804541D01*
X48941000Y28075459D01*
X48837324Y28325756D01*
X48645756Y28517324D01*
X48395459Y28621000D01*
X48124541Y28621000D01*
X47874244Y28517324D01*
X47682676Y28325756D01*
X47579000Y28075459D01*
X21717000Y28075459D01*
X21717000Y29980459D01*
X30434000Y29980459D01*
X30434000Y29709541D01*
X30537676Y29459244D01*
X30729244Y29267676D01*
X30979541Y29164000D01*
X31250459Y29164000D01*
X31500756Y29267676D01*
X31578539Y29345459D01*
X37419000Y29345459D01*
X37419000Y29074541D01*
X37522676Y28824244D01*
X37714244Y28632676D01*
X37964541Y28529000D01*
X38235459Y28529000D01*
X38485756Y28632676D01*
X38677324Y28824244D01*
X38781000Y29074541D01*
X38781000Y29345459D01*
X38677324Y29595756D01*
X38485756Y29787324D01*
X38235459Y29891000D01*
X37964541Y29891000D01*
X37714244Y29787324D01*
X37522676Y29595756D01*
X37419000Y29345459D01*
X31578539Y29345459D01*
X31692324Y29459244D01*
X31796000Y29709541D01*
X31796000Y29980459D01*
X31692324Y30230756D01*
X31500756Y30422324D01*
X31250459Y30526000D01*
X30979541Y30526000D01*
X30729244Y30422324D01*
X30537676Y30230756D01*
X30434000Y29980459D01*
X21717000Y29980459D01*
X21717000Y31250459D01*
X31704000Y31250459D01*
X31704000Y30979541D01*
X31807676Y30729244D01*
X31999244Y30537676D01*
X32249541Y30434000D01*
X32520459Y30434000D01*
X32770756Y30537676D01*
X32962324Y30729244D01*
X33066000Y30979541D01*
X33066000Y31250459D01*
X32962324Y31500756D01*
X32770756Y31692324D01*
X32520459Y31796000D01*
X32249541Y31796000D01*
X31999244Y31692324D01*
X31807676Y31500756D01*
X31704000Y31250459D01*
X21717000Y31250459D01*
X21717000Y35060459D01*
X34879000Y35060459D01*
X34879000Y34789541D01*
X34982676Y34539244D01*
X35174244Y34347676D01*
X35424541Y34244000D01*
X35695459Y34244000D01*
X35945756Y34347676D01*
X36137324Y34539244D01*
X36241000Y34789541D01*
X36241000Y35060459D01*
X36137324Y35310756D01*
X35945756Y35502324D01*
X35695459Y35606000D01*
X35424541Y35606000D01*
X35174244Y35502324D01*
X34982676Y35310756D01*
X34879000Y35060459D01*
X21717000Y35060459D01*
X21717000Y36330459D01*
X26624000Y36330459D01*
X26624000Y36059541D01*
X26727676Y35809244D01*
X26919244Y35617676D01*
X27169541Y35514000D01*
X27440459Y35514000D01*
X27690756Y35617676D01*
X27882324Y35809244D01*
X27986000Y36059541D01*
X27986000Y36330459D01*
X43769000Y36330459D01*
X43769000Y36059541D01*
X43872676Y35809244D01*
X44064244Y35617676D01*
X44314541Y35514000D01*
X44585459Y35514000D01*
X44835756Y35617676D01*
X45027324Y35809244D01*
X45131000Y36059541D01*
X45131000Y36330459D01*
X45027324Y36580756D01*
X44835756Y36772324D01*
X44585459Y36876000D01*
X44314541Y36876000D01*
X44064244Y36772324D01*
X43872676Y36580756D01*
X43769000Y36330459D01*
X27986000Y36330459D01*
X27882324Y36580756D01*
X27690756Y36772324D01*
X27440459Y36876000D01*
X27169541Y36876000D01*
X26919244Y36772324D01*
X26727676Y36580756D01*
X26624000Y36330459D01*
X21717000Y36330459D01*
X21717000Y40775459D01*
X27259000Y40775459D01*
X27259000Y40504541D01*
X27362676Y40254244D01*
X27554244Y40062676D01*
X27804541Y39959000D01*
X28075459Y39959000D01*
X28325756Y40062676D01*
X28517324Y40254244D01*
X28621000Y40504541D01*
X28621000Y40775459D01*
X29799000Y40775459D01*
X29799000Y40504541D01*
X29902676Y40254244D01*
X30094244Y40062676D01*
X30344541Y39959000D01*
X30615459Y39959000D01*
X30865756Y40062676D01*
X31057324Y40254244D01*
X31161000Y40504541D01*
X31161000Y40775459D01*
X46309000Y40775459D01*
X46309000Y40504541D01*
X46412676Y40254244D01*
X46604244Y40062676D01*
X46854541Y39959000D01*
X47125459Y39959000D01*
X47375756Y40062676D01*
X47567324Y40254244D01*
X47671000Y40504541D01*
X47671000Y40775459D01*
X47567324Y41025756D01*
X47375756Y41217324D01*
X47125459Y41321000D01*
X46854541Y41321000D01*
X46604244Y41217324D01*
X46412676Y41025756D01*
X46309000Y40775459D01*
X31161000Y40775459D01*
X31057324Y41025756D01*
X30865756Y41217324D01*
X30615459Y41321000D01*
X30344541Y41321000D01*
X30094244Y41217324D01*
X29902676Y41025756D01*
X29799000Y40775459D01*
X28621000Y40775459D01*
X28517324Y41025756D01*
X28325756Y41217324D01*
X28075459Y41321000D01*
X27804541Y41321000D01*
X27554244Y41217324D01*
X27362676Y41025756D01*
X27259000Y40775459D01*
X21717000Y40775459D01*
X21717000Y43315459D01*
X27894000Y43315459D01*
X27894000Y43044541D01*
X27997676Y42794244D01*
X28189244Y42602676D01*
X28439541Y42499000D01*
X28710459Y42499000D01*
X28960756Y42602676D01*
X29152324Y42794244D01*
X29256000Y43044541D01*
X29256000Y43315459D01*
X33609000Y43315459D01*
X33609000Y43044541D01*
X33712676Y42794244D01*
X33904244Y42602676D01*
X34154541Y42499000D01*
X34425459Y42499000D01*
X34675756Y42602676D01*
X34867324Y42794244D01*
X34971000Y43044541D01*
X34971000Y43315459D01*
X34867324Y43565756D01*
X34675756Y43757324D01*
X34425459Y43861000D01*
X34154541Y43861000D01*
X33904244Y43757324D01*
X33712676Y43565756D01*
X33609000Y43315459D01*
X29256000Y43315459D01*
X29152324Y43565756D01*
X28960756Y43757324D01*
X28710459Y43861000D01*
X28439541Y43861000D01*
X28189244Y43757324D01*
X27997676Y43565756D01*
X27894000Y43315459D01*
X21717000Y43315459D01*
X21717000Y45855459D01*
X22179000Y45855459D01*
X22179000Y45584541D01*
X22282676Y45334244D01*
X22474244Y45142676D01*
X22724541Y45039000D01*
X22995459Y45039000D01*
X23245756Y45142676D01*
X23323539Y45220459D01*
X33609000Y45220459D01*
X33609000Y44949541D01*
X33712676Y44699244D01*
X33904244Y44507676D01*
X34154541Y44404000D01*
X34425459Y44404000D01*
X34675756Y44507676D01*
X34867324Y44699244D01*
X34971000Y44949541D01*
X34971000Y45220459D01*
X34867324Y45470756D01*
X34675756Y45662324D01*
X34425459Y45766000D01*
X34154541Y45766000D01*
X33904244Y45662324D01*
X33712676Y45470756D01*
X33609000Y45220459D01*
X23323539Y45220459D01*
X23437324Y45334244D01*
X23541000Y45584541D01*
X23541000Y45855459D01*
X23437324Y46105756D01*
X23245756Y46297324D01*
X22995459Y46401000D01*
X22724541Y46401000D01*
X22474244Y46297324D01*
X22282676Y46105756D01*
X22179000Y45855459D01*
X21717000Y45855459D01*
X21717000Y47760459D01*
X34244000Y47760459D01*
X34244000Y47489541D01*
X34319404Y47307500D01*
X34244000Y47125459D01*
X34244000Y46854541D01*
X34319404Y46672500D01*
X34244000Y46490459D01*
X34244000Y46219541D01*
X34347676Y45969244D01*
X34539244Y45777676D01*
X34789541Y45674000D01*
X35060459Y45674000D01*
X35310756Y45777676D01*
X35502324Y45969244D01*
X35606000Y46219541D01*
X35606000Y46490459D01*
X35530596Y46672500D01*
X35606000Y46854541D01*
X35606000Y47125459D01*
X35530596Y47307500D01*
X35606000Y47489541D01*
X35606000Y47760459D01*
X38054000Y47760459D01*
X38054000Y47489541D01*
X38129404Y47307500D01*
X38054000Y47125459D01*
X38054000Y46854541D01*
X38129404Y46672500D01*
X38054000Y46490459D01*
X38054000Y46219541D01*
X38157676Y45969244D01*
X38349244Y45777676D01*
X38599541Y45674000D01*
X38870459Y45674000D01*
X39120756Y45777676D01*
X39312324Y45969244D01*
X39416000Y46219541D01*
X39416000Y46490459D01*
X39340596Y46672500D01*
X39416000Y46854541D01*
X39416000Y47125459D01*
X39340596Y47307500D01*
X39416000Y47489541D01*
X39416000Y47760459D01*
X39312324Y48010756D01*
X39120756Y48202324D01*
X38870459Y48306000D01*
X38599541Y48306000D01*
X38349244Y48202324D01*
X38157676Y48010756D01*
X38054000Y47760459D01*
X35606000Y47760459D01*
X35502324Y48010756D01*
X35310756Y48202324D01*
X35060459Y48306000D01*
X34789541Y48306000D01*
X34539244Y48202324D01*
X34347676Y48010756D01*
X34244000Y47760459D01*
X21717000Y47760459D01*
X21717000Y49403000D01*
X30024920Y49403000D01*
X29902676Y49280756D01*
X29902676Y49280756D01*
G37*
X29902676Y49280756D02*
X29799000Y49030459D01*
X29799000Y48759541D01*
X29902676Y48509244D01*
X30094244Y48317676D01*
X30344541Y48214000D01*
X30615459Y48214000D01*
X30865756Y48317676D01*
X31057324Y48509244D01*
X31161000Y48759541D01*
X31161000Y49030459D01*
X31057324Y49280756D01*
X30935080Y49403000D01*
X49149000Y49403000D01*
X49149000Y456000D01*
X21717000Y456000D01*
X21717000Y12221547D01*
X22613620Y12221547D01*
X22613620Y8301654D01*
X22737266Y7680043D01*
X23208272Y6975132D01*
X23913182Y6504126D01*
X24744680Y6338731D01*
X25576177Y6504126D01*
X26281088Y6975132D01*
X26752094Y7680042D01*
X26875740Y8301653D01*
X26875740Y12221547D01*
X26752094Y12843158D01*
X26281088Y13548068D01*
X25576178Y14019074D01*
X24744680Y14184469D01*
X23913183Y14019074D01*
X23208273Y13548068D01*
X22737267Y12843158D01*
X22613620Y12221547D01*
X21717000Y12221547D01*
X21717000Y15092168D01*
X28663900Y15092168D01*
X28663900Y13960353D01*
X28732428Y13615839D01*
X28993474Y13225154D01*
X29384158Y12964108D01*
X29845000Y12872441D01*
X30305841Y12964108D01*
X30696526Y13225154D01*
X30957572Y13615838D01*
X31026100Y13960352D01*
X31026100Y15092167D01*
X31026100Y15092168D01*
X31163260Y15092168D01*
X31163260Y13960353D01*
X31231788Y13615839D01*
X31492834Y13225154D01*
X31883518Y12964108D01*
X32344360Y12872441D01*
X32805201Y12964108D01*
X33186352Y13218784D01*
X32935367Y12843158D01*
X32811720Y12221547D01*
X32811720Y8301654D01*
X32935366Y7680043D01*
X33406372Y6975132D01*
X34111282Y6504126D01*
X34942780Y6338731D01*
X35774277Y6504126D01*
X36479188Y6975132D01*
X36950194Y7680042D01*
X36965195Y7755459D01*
X43769000Y7755459D01*
X43769000Y7484541D01*
X43872676Y7234244D01*
X44064244Y7042676D01*
X44314541Y6939000D01*
X44585459Y6939000D01*
X44835756Y7042676D01*
X45027324Y7234244D01*
X45131000Y7484541D01*
X45131000Y7755459D01*
X45027324Y8005756D01*
X44835756Y8197324D01*
X44585459Y8301000D01*
X44314541Y8301000D01*
X44064244Y8197324D01*
X43872676Y8005756D01*
X43769000Y7755459D01*
X36965195Y7755459D01*
X37073840Y8301653D01*
X37073840Y9025459D01*
X47579000Y9025459D01*
X47579000Y8754541D01*
X47682676Y8504244D01*
X47874244Y8312676D01*
X48124541Y8209000D01*
X48395459Y8209000D01*
X48645756Y8312676D01*
X48837324Y8504244D01*
X48941000Y8754541D01*
X48941000Y9025459D01*
X48837324Y9275756D01*
X48645756Y9467324D01*
X48395459Y9571000D01*
X48124541Y9571000D01*
X47874244Y9467324D01*
X47682676Y9275756D01*
X47579000Y9025459D01*
X37073840Y9025459D01*
X37073840Y12221547D01*
X36950194Y12843158D01*
X36531045Y13470459D01*
X45039000Y13470459D01*
X45039000Y13199541D01*
X45142676Y12949244D01*
X45334244Y12757676D01*
X45584541Y12654000D01*
X45855459Y12654000D01*
X46105756Y12757676D01*
X46297324Y12949244D01*
X46401000Y13199541D01*
X46401000Y13470459D01*
X46297324Y13720756D01*
X46105756Y13912324D01*
X45855459Y14016000D01*
X45584541Y14016000D01*
X45334244Y13912324D01*
X45142676Y13720756D01*
X45039000Y13470459D01*
X36531045Y13470459D01*
X36479188Y13548068D01*
X35774278Y14019074D01*
X34942780Y14184469D01*
X34111283Y14019074D01*
X33415906Y13554437D01*
X33456932Y13615838D01*
X33525460Y13960352D01*
X33525460Y15092167D01*
X33456932Y15436682D01*
X33195886Y15827366D01*
X32805202Y16088412D01*
X32344360Y16180079D01*
X31883519Y16088412D01*
X31492835Y15827366D01*
X31231788Y15436682D01*
X31163260Y15092168D01*
X31026100Y15092168D01*
X30957572Y15436682D01*
X30696526Y15827366D01*
X30305842Y16088412D01*
X29845000Y16180079D01*
X29384159Y16088412D01*
X28993475Y15827366D01*
X28732428Y15436682D01*
X28663900Y15092168D01*
X21717000Y15092168D01*
X21717000Y16645459D01*
X43134000Y16645459D01*
X43134000Y16374541D01*
X43237676Y16124244D01*
X43429244Y15932676D01*
X43679541Y15829000D01*
X43950459Y15829000D01*
X44200756Y15932676D01*
X44392324Y16124244D01*
X44496000Y16374541D01*
X44496000Y16645459D01*
X46944000Y16645459D01*
X46944000Y16374541D01*
X47047676Y16124244D01*
X47239244Y15932676D01*
X47489541Y15829000D01*
X47760459Y15829000D01*
X48010756Y15932676D01*
X48202324Y16124244D01*
X48306000Y16374541D01*
X48306000Y16645459D01*
X48202324Y16895756D01*
X48010756Y17087324D01*
X47760459Y17191000D01*
X47489541Y17191000D01*
X47239244Y17087324D01*
X47047676Y16895756D01*
X46944000Y16645459D01*
X44496000Y16645459D01*
X44392324Y16895756D01*
X44200756Y17087324D01*
X43950459Y17191000D01*
X43679541Y17191000D01*
X43429244Y17087324D01*
X43237676Y16895756D01*
X43134000Y16645459D01*
X21717000Y16645459D01*
X21717000Y20455459D01*
X25354000Y20455459D01*
X25354000Y20184541D01*
X25457676Y19934244D01*
X25649244Y19742676D01*
X25899541Y19639000D01*
X26170459Y19639000D01*
X26420756Y19742676D01*
X26612324Y19934244D01*
X26716000Y20184541D01*
X26716000Y20455459D01*
X26612324Y20705756D01*
X26420756Y20897324D01*
X26170459Y21001000D01*
X25899541Y21001000D01*
X25649244Y20897324D01*
X25457676Y20705756D01*
X25354000Y20455459D01*
X21717000Y20455459D01*
X21717000Y26170459D01*
X30434000Y26170459D01*
X30434000Y25899541D01*
X30537676Y25649244D01*
X30729244Y25457676D01*
X30979541Y25354000D01*
X31250459Y25354000D01*
X31500756Y25457676D01*
X31692324Y25649244D01*
X31796000Y25899541D01*
X31796000Y26170459D01*
X31692324Y26420756D01*
X31500756Y26612324D01*
X31250459Y26716000D01*
X30979541Y26716000D01*
X30729244Y26612324D01*
X30537676Y26420756D01*
X30434000Y26170459D01*
X21717000Y26170459D01*
X21717000Y26805459D01*
X32974000Y26805459D01*
X32974000Y26534541D01*
X33077676Y26284244D01*
X33269244Y26092676D01*
X33519541Y25989000D01*
X33790459Y25989000D01*
X34040756Y26092676D01*
X34232324Y26284244D01*
X34336000Y26534541D01*
X34336000Y26805459D01*
X34232324Y27055756D01*
X34040756Y27247324D01*
X33790459Y27351000D01*
X33519541Y27351000D01*
X33269244Y27247324D01*
X33077676Y27055756D01*
X32974000Y26805459D01*
X21717000Y26805459D01*
X21717000Y27440459D01*
X39959000Y27440459D01*
X39959000Y27169541D01*
X40062676Y26919244D01*
X40254244Y26727676D01*
X40504541Y26624000D01*
X40775459Y26624000D01*
X41025756Y26727676D01*
X41217324Y26919244D01*
X41321000Y27169541D01*
X41321000Y27440459D01*
X41217324Y27690756D01*
X41025756Y27882324D01*
X40775459Y27986000D01*
X40504541Y27986000D01*
X40254244Y27882324D01*
X40062676Y27690756D01*
X39959000Y27440459D01*
X21717000Y27440459D01*
X21717000Y28075459D01*
X47579000Y28075459D01*
X47579000Y27804541D01*
X47682676Y27554244D01*
X47874244Y27362676D01*
X48124541Y27259000D01*
X48395459Y27259000D01*
X48645756Y27362676D01*
X48837324Y27554244D01*
X48941000Y27804541D01*
X48941000Y28075459D01*
X48837324Y28325756D01*
X48645756Y28517324D01*
X48395459Y28621000D01*
X48124541Y28621000D01*
X47874244Y28517324D01*
X47682676Y28325756D01*
X47579000Y28075459D01*
X21717000Y28075459D01*
X21717000Y29980459D01*
X30434000Y29980459D01*
X30434000Y29709541D01*
X30537676Y29459244D01*
X30729244Y29267676D01*
X30979541Y29164000D01*
X31250459Y29164000D01*
X31500756Y29267676D01*
X31578539Y29345459D01*
X37419000Y29345459D01*
X37419000Y29074541D01*
X37522676Y28824244D01*
X37714244Y28632676D01*
X37964541Y28529000D01*
X38235459Y28529000D01*
X38485756Y28632676D01*
X38677324Y28824244D01*
X38781000Y29074541D01*
X38781000Y29345459D01*
X38677324Y29595756D01*
X38485756Y29787324D01*
X38235459Y29891000D01*
X37964541Y29891000D01*
X37714244Y29787324D01*
X37522676Y29595756D01*
X37419000Y29345459D01*
X31578539Y29345459D01*
X31692324Y29459244D01*
X31796000Y29709541D01*
X31796000Y29980459D01*
X31692324Y30230756D01*
X31500756Y30422324D01*
X31250459Y30526000D01*
X30979541Y30526000D01*
X30729244Y30422324D01*
X30537676Y30230756D01*
X30434000Y29980459D01*
X21717000Y29980459D01*
X21717000Y31250459D01*
X31704000Y31250459D01*
X31704000Y30979541D01*
X31807676Y30729244D01*
X31999244Y30537676D01*
X32249541Y30434000D01*
X32520459Y30434000D01*
X32770756Y30537676D01*
X32962324Y30729244D01*
X33066000Y30979541D01*
X33066000Y31250459D01*
X32962324Y31500756D01*
X32770756Y31692324D01*
X32520459Y31796000D01*
X32249541Y31796000D01*
X31999244Y31692324D01*
X31807676Y31500756D01*
X31704000Y31250459D01*
X21717000Y31250459D01*
X21717000Y35060459D01*
X34879000Y35060459D01*
X34879000Y34789541D01*
X34982676Y34539244D01*
X35174244Y34347676D01*
X35424541Y34244000D01*
X35695459Y34244000D01*
X35945756Y34347676D01*
X36137324Y34539244D01*
X36241000Y34789541D01*
X36241000Y35060459D01*
X36137324Y35310756D01*
X35945756Y35502324D01*
X35695459Y35606000D01*
X35424541Y35606000D01*
X35174244Y35502324D01*
X34982676Y35310756D01*
X34879000Y35060459D01*
X21717000Y35060459D01*
X21717000Y36330459D01*
X26624000Y36330459D01*
X26624000Y36059541D01*
X26727676Y35809244D01*
X26919244Y35617676D01*
X27169541Y35514000D01*
X27440459Y35514000D01*
X27690756Y35617676D01*
X27882324Y35809244D01*
X27986000Y36059541D01*
X27986000Y36330459D01*
X43769000Y36330459D01*
X43769000Y36059541D01*
X43872676Y35809244D01*
X44064244Y35617676D01*
X44314541Y35514000D01*
X44585459Y35514000D01*
X44835756Y35617676D01*
X45027324Y35809244D01*
X45131000Y36059541D01*
X45131000Y36330459D01*
X45027324Y36580756D01*
X44835756Y36772324D01*
X44585459Y36876000D01*
X44314541Y36876000D01*
X44064244Y36772324D01*
X43872676Y36580756D01*
X43769000Y36330459D01*
X27986000Y36330459D01*
X27882324Y36580756D01*
X27690756Y36772324D01*
X27440459Y36876000D01*
X27169541Y36876000D01*
X26919244Y36772324D01*
X26727676Y36580756D01*
X26624000Y36330459D01*
X21717000Y36330459D01*
X21717000Y40775459D01*
X27259000Y40775459D01*
X27259000Y40504541D01*
X27362676Y40254244D01*
X27554244Y40062676D01*
X27804541Y39959000D01*
X28075459Y39959000D01*
X28325756Y40062676D01*
X28517324Y40254244D01*
X28621000Y40504541D01*
X28621000Y40775459D01*
X29799000Y40775459D01*
X29799000Y40504541D01*
X29902676Y40254244D01*
X30094244Y40062676D01*
X30344541Y39959000D01*
X30615459Y39959000D01*
X30865756Y40062676D01*
X31057324Y40254244D01*
X31161000Y40504541D01*
X31161000Y40775459D01*
X46309000Y40775459D01*
X46309000Y40504541D01*
X46412676Y40254244D01*
X46604244Y40062676D01*
X46854541Y39959000D01*
X47125459Y39959000D01*
X47375756Y40062676D01*
X47567324Y40254244D01*
X47671000Y40504541D01*
X47671000Y40775459D01*
X47567324Y41025756D01*
X47375756Y41217324D01*
X47125459Y41321000D01*
X46854541Y41321000D01*
X46604244Y41217324D01*
X46412676Y41025756D01*
X46309000Y40775459D01*
X31161000Y40775459D01*
X31057324Y41025756D01*
X30865756Y41217324D01*
X30615459Y41321000D01*
X30344541Y41321000D01*
X30094244Y41217324D01*
X29902676Y41025756D01*
X29799000Y40775459D01*
X28621000Y40775459D01*
X28517324Y41025756D01*
X28325756Y41217324D01*
X28075459Y41321000D01*
X27804541Y41321000D01*
X27554244Y41217324D01*
X27362676Y41025756D01*
X27259000Y40775459D01*
X21717000Y40775459D01*
X21717000Y43315459D01*
X27894000Y43315459D01*
X27894000Y43044541D01*
X27997676Y42794244D01*
X28189244Y42602676D01*
X28439541Y42499000D01*
X28710459Y42499000D01*
X28960756Y42602676D01*
X29152324Y42794244D01*
X29256000Y43044541D01*
X29256000Y43315459D01*
X33609000Y43315459D01*
X33609000Y43044541D01*
X33712676Y42794244D01*
X33904244Y42602676D01*
X34154541Y42499000D01*
X34425459Y42499000D01*
X34675756Y42602676D01*
X34867324Y42794244D01*
X34971000Y43044541D01*
X34971000Y43315459D01*
X34867324Y43565756D01*
X34675756Y43757324D01*
X34425459Y43861000D01*
X34154541Y43861000D01*
X33904244Y43757324D01*
X33712676Y43565756D01*
X33609000Y43315459D01*
X29256000Y43315459D01*
X29152324Y43565756D01*
X28960756Y43757324D01*
X28710459Y43861000D01*
X28439541Y43861000D01*
X28189244Y43757324D01*
X27997676Y43565756D01*
X27894000Y43315459D01*
X21717000Y43315459D01*
X21717000Y45855459D01*
X22179000Y45855459D01*
X22179000Y45584541D01*
X22282676Y45334244D01*
X22474244Y45142676D01*
X22724541Y45039000D01*
X22995459Y45039000D01*
X23245756Y45142676D01*
X23323539Y45220459D01*
X33609000Y45220459D01*
X33609000Y44949541D01*
X33712676Y44699244D01*
X33904244Y44507676D01*
X34154541Y44404000D01*
X34425459Y44404000D01*
X34675756Y44507676D01*
X34867324Y44699244D01*
X34971000Y44949541D01*
X34971000Y45220459D01*
X34867324Y45470756D01*
X34675756Y45662324D01*
X34425459Y45766000D01*
X34154541Y45766000D01*
X33904244Y45662324D01*
X33712676Y45470756D01*
X33609000Y45220459D01*
X23323539Y45220459D01*
X23437324Y45334244D01*
X23541000Y45584541D01*
X23541000Y45855459D01*
X23437324Y46105756D01*
X23245756Y46297324D01*
X22995459Y46401000D01*
X22724541Y46401000D01*
X22474244Y46297324D01*
X22282676Y46105756D01*
X22179000Y45855459D01*
X21717000Y45855459D01*
X21717000Y47760459D01*
X34244000Y47760459D01*
X34244000Y47489541D01*
X34319404Y47307500D01*
X34244000Y47125459D01*
X34244000Y46854541D01*
X34319404Y46672500D01*
X34244000Y46490459D01*
X34244000Y46219541D01*
X34347676Y45969244D01*
X34539244Y45777676D01*
X34789541Y45674000D01*
X35060459Y45674000D01*
X35310756Y45777676D01*
X35502324Y45969244D01*
X35606000Y46219541D01*
X35606000Y46490459D01*
X35530596Y46672500D01*
X35606000Y46854541D01*
X35606000Y47125459D01*
X35530596Y47307500D01*
X35606000Y47489541D01*
X35606000Y47760459D01*
X38054000Y47760459D01*
X38054000Y47489541D01*
X38129404Y47307500D01*
X38054000Y47125459D01*
X38054000Y46854541D01*
X38129404Y46672500D01*
X38054000Y46490459D01*
X38054000Y46219541D01*
X38157676Y45969244D01*
X38349244Y45777676D01*
X38599541Y45674000D01*
X38870459Y45674000D01*
X39120756Y45777676D01*
X39312324Y45969244D01*
X39416000Y46219541D01*
X39416000Y46490459D01*
X39340596Y46672500D01*
X39416000Y46854541D01*
X39416000Y47125459D01*
X39340596Y47307500D01*
X39416000Y47489541D01*
X39416000Y47760459D01*
X39312324Y48010756D01*
X39120756Y48202324D01*
X38870459Y48306000D01*
X38599541Y48306000D01*
X38349244Y48202324D01*
X38157676Y48010756D01*
X38054000Y47760459D01*
X35606000Y47760459D01*
X35502324Y48010756D01*
X35310756Y48202324D01*
X35060459Y48306000D01*
X34789541Y48306000D01*
X34539244Y48202324D01*
X34347676Y48010756D01*
X34244000Y47760459D01*
X21717000Y47760459D01*
X21717000Y49403000D01*
X30024920Y49403000D01*
X29902676Y49280756D01*
G04 #@! TO.N,+5VA*
G36*
X57842676Y49280756D02*
X57739000Y49030459D01*
X57739000Y48759541D01*
X57842676Y48509244D01*
X58034244Y48317676D01*
X58284541Y48214000D01*
X58555459Y48214000D01*
X58805756Y48317676D01*
X58997324Y48509244D01*
X59101000Y48759541D01*
X59101000Y49030459D01*
X58997324Y49280756D01*
X58875080Y49403000D01*
X79544000Y49403000D01*
X79544001Y456000D01*
X49911000Y456000D01*
X49911000Y12221547D01*
X50553620Y12221547D01*
X50553620Y8301654D01*
X50677266Y7680043D01*
X51148272Y6975132D01*
X51853182Y6504126D01*
X52684680Y6338731D01*
X53516177Y6504126D01*
X54221088Y6975132D01*
X54692094Y7680042D01*
X54815740Y8301653D01*
X54815740Y12221547D01*
X54692094Y12843158D01*
X54221088Y13548068D01*
X53516178Y14019074D01*
X52684680Y14184469D01*
X51853183Y14019074D01*
X51148273Y13548068D01*
X50677267Y12843158D01*
X50553620Y12221547D01*
X49911000Y12221547D01*
X49911000Y15092168D01*
X56603900Y15092168D01*
X56603900Y13960353D01*
X56672428Y13615839D01*
X56933474Y13225154D01*
X57324158Y12964108D01*
X57785000Y12872441D01*
X58245841Y12964108D01*
X58636526Y13225154D01*
X58897572Y13615838D01*
X58966100Y13960352D01*
X58966100Y15092167D01*
X58966100Y15092168D01*
X59103260Y15092168D01*
X59103260Y13960353D01*
X59171788Y13615839D01*
X59432834Y13225154D01*
X59823518Y12964108D01*
X60284360Y12872441D01*
X60745201Y12964108D01*
X61126352Y13218784D01*
X60875367Y12843158D01*
X60751720Y12221547D01*
X60751720Y8301654D01*
X60875366Y7680043D01*
X61346372Y6975132D01*
X62051282Y6504126D01*
X62882780Y6338731D01*
X63714277Y6504126D01*
X64419188Y6975132D01*
X64890194Y7680042D01*
X64905195Y7755459D01*
X71709000Y7755459D01*
X71709000Y7484541D01*
X71812676Y7234244D01*
X72004244Y7042676D01*
X72254541Y6939000D01*
X72525459Y6939000D01*
X72775756Y7042676D01*
X72967324Y7234244D01*
X73071000Y7484541D01*
X73071000Y7755459D01*
X72967324Y8005756D01*
X72775756Y8197324D01*
X72525459Y8301000D01*
X72254541Y8301000D01*
X72004244Y8197324D01*
X71812676Y8005756D01*
X71709000Y7755459D01*
X64905195Y7755459D01*
X65013840Y8301653D01*
X65013840Y10930459D01*
X75519000Y10930459D01*
X75519000Y10659541D01*
X75622676Y10409244D01*
X75814244Y10217676D01*
X76064541Y10114000D01*
X76335459Y10114000D01*
X76585756Y10217676D01*
X76777324Y10409244D01*
X76881000Y10659541D01*
X76881000Y10930459D01*
X76777324Y11180756D01*
X76585756Y11372324D01*
X76335459Y11476000D01*
X76064541Y11476000D01*
X75814244Y11372324D01*
X75622676Y11180756D01*
X75519000Y10930459D01*
X65013840Y10930459D01*
X65013840Y12221547D01*
X64890194Y12843158D01*
X64471045Y13470459D01*
X72979000Y13470459D01*
X72979000Y13199541D01*
X73082676Y12949244D01*
X73274244Y12757676D01*
X73524541Y12654000D01*
X73795459Y12654000D01*
X74045756Y12757676D01*
X74237324Y12949244D01*
X74341000Y13199541D01*
X74341000Y13470459D01*
X74237324Y13720756D01*
X74045756Y13912324D01*
X73795459Y14016000D01*
X73524541Y14016000D01*
X73274244Y13912324D01*
X73082676Y13720756D01*
X72979000Y13470459D01*
X64471045Y13470459D01*
X64419188Y13548068D01*
X63714278Y14019074D01*
X62882780Y14184469D01*
X62051283Y14019074D01*
X61355906Y13554437D01*
X61396932Y13615838D01*
X61465460Y13960352D01*
X61465460Y15092167D01*
X61396932Y15436682D01*
X61135886Y15827366D01*
X60745202Y16088412D01*
X60284360Y16180079D01*
X59823519Y16088412D01*
X59432835Y15827366D01*
X59171788Y15436682D01*
X59103260Y15092168D01*
X58966100Y15092168D01*
X58897572Y15436682D01*
X58636526Y15827366D01*
X58245842Y16088412D01*
X57785000Y16180079D01*
X57324159Y16088412D01*
X56933475Y15827366D01*
X56672428Y15436682D01*
X56603900Y15092168D01*
X49911000Y15092168D01*
X49911000Y16645459D01*
X71074000Y16645459D01*
X71074000Y16374541D01*
X71177676Y16124244D01*
X71369244Y15932676D01*
X71619541Y15829000D01*
X71890459Y15829000D01*
X72140756Y15932676D01*
X72332324Y16124244D01*
X72436000Y16374541D01*
X72436000Y16645459D01*
X74884000Y16645459D01*
X74884000Y16374541D01*
X74987676Y16124244D01*
X75179244Y15932676D01*
X75429541Y15829000D01*
X75700459Y15829000D01*
X75950756Y15932676D01*
X76142324Y16124244D01*
X76246000Y16374541D01*
X76246000Y16645459D01*
X76142324Y16895756D01*
X75950756Y17087324D01*
X75700459Y17191000D01*
X75429541Y17191000D01*
X75179244Y17087324D01*
X74987676Y16895756D01*
X74884000Y16645459D01*
X72436000Y16645459D01*
X72332324Y16895756D01*
X72140756Y17087324D01*
X71890459Y17191000D01*
X71619541Y17191000D01*
X71369244Y17087324D01*
X71177676Y16895756D01*
X71074000Y16645459D01*
X49911000Y16645459D01*
X49911000Y18550459D01*
X53294000Y18550459D01*
X53294000Y18279541D01*
X53397676Y18029244D01*
X53589244Y17837676D01*
X53839541Y17734000D01*
X54110459Y17734000D01*
X54360756Y17837676D01*
X54552324Y18029244D01*
X54656000Y18279541D01*
X54656000Y18550459D01*
X54552324Y18800756D01*
X54360756Y18992324D01*
X54110459Y19096000D01*
X53839541Y19096000D01*
X53589244Y18992324D01*
X53397676Y18800756D01*
X53294000Y18550459D01*
X49911000Y18550459D01*
X49911000Y26170459D01*
X58374000Y26170459D01*
X58374000Y25899541D01*
X58477676Y25649244D01*
X58669244Y25457676D01*
X58919541Y25354000D01*
X59190459Y25354000D01*
X59440756Y25457676D01*
X59632324Y25649244D01*
X59736000Y25899541D01*
X59736000Y26170459D01*
X59632324Y26420756D01*
X59440756Y26612324D01*
X59190459Y26716000D01*
X58919541Y26716000D01*
X58669244Y26612324D01*
X58477676Y26420756D01*
X58374000Y26170459D01*
X49911000Y26170459D01*
X49911000Y26805459D01*
X60914000Y26805459D01*
X60914000Y26534541D01*
X61017676Y26284244D01*
X61209244Y26092676D01*
X61459541Y25989000D01*
X61730459Y25989000D01*
X61980756Y26092676D01*
X62172324Y26284244D01*
X62276000Y26534541D01*
X62276000Y26805459D01*
X62172324Y27055756D01*
X61980756Y27247324D01*
X61730459Y27351000D01*
X61459541Y27351000D01*
X61209244Y27247324D01*
X61017676Y27055756D01*
X60914000Y26805459D01*
X49911000Y26805459D01*
X49911000Y27440459D01*
X67899000Y27440459D01*
X67899000Y27169541D01*
X68002676Y26919244D01*
X68194244Y26727676D01*
X68444541Y26624000D01*
X68715459Y26624000D01*
X68965756Y26727676D01*
X69157324Y26919244D01*
X69261000Y27169541D01*
X69261000Y27440459D01*
X69157324Y27690756D01*
X68965756Y27882324D01*
X68715459Y27986000D01*
X68444541Y27986000D01*
X68194244Y27882324D01*
X68002676Y27690756D01*
X67899000Y27440459D01*
X49911000Y27440459D01*
X49911000Y28075459D01*
X75519000Y28075459D01*
X75519000Y27804541D01*
X75622676Y27554244D01*
X75814244Y27362676D01*
X76064541Y27259000D01*
X76335459Y27259000D01*
X76585756Y27362676D01*
X76777324Y27554244D01*
X76881000Y27804541D01*
X76881000Y28075459D01*
X76777324Y28325756D01*
X76585756Y28517324D01*
X76335459Y28621000D01*
X76064541Y28621000D01*
X75814244Y28517324D01*
X75622676Y28325756D01*
X75519000Y28075459D01*
X49911000Y28075459D01*
X49911000Y29980459D01*
X58374000Y29980459D01*
X58374000Y29709541D01*
X58477676Y29459244D01*
X58669244Y29267676D01*
X58919541Y29164000D01*
X59190459Y29164000D01*
X59440756Y29267676D01*
X59518539Y29345459D01*
X65994000Y29345459D01*
X65994000Y29074541D01*
X66097676Y28824244D01*
X66289244Y28632676D01*
X66539541Y28529000D01*
X66810459Y28529000D01*
X67060756Y28632676D01*
X67252324Y28824244D01*
X67356000Y29074541D01*
X67356000Y29345459D01*
X67252324Y29595756D01*
X67060756Y29787324D01*
X66810459Y29891000D01*
X66539541Y29891000D01*
X66289244Y29787324D01*
X66097676Y29595756D01*
X65994000Y29345459D01*
X59518539Y29345459D01*
X59632324Y29459244D01*
X59736000Y29709541D01*
X59736000Y29980459D01*
X59632324Y30230756D01*
X59440756Y30422324D01*
X59190459Y30526000D01*
X58919541Y30526000D01*
X58669244Y30422324D01*
X58477676Y30230756D01*
X58374000Y29980459D01*
X49911000Y29980459D01*
X49911000Y31250459D01*
X59644000Y31250459D01*
X59644000Y30979541D01*
X59747676Y30729244D01*
X59939244Y30537676D01*
X60189541Y30434000D01*
X60460459Y30434000D01*
X60710756Y30537676D01*
X60902324Y30729244D01*
X61006000Y30979541D01*
X61006000Y31250459D01*
X60902324Y31500756D01*
X60710756Y31692324D01*
X60460459Y31796000D01*
X60189541Y31796000D01*
X59939244Y31692324D01*
X59747676Y31500756D01*
X59644000Y31250459D01*
X49911000Y31250459D01*
X49911000Y36330459D01*
X54564000Y36330459D01*
X54564000Y36059541D01*
X54667676Y35809244D01*
X54859244Y35617676D01*
X55109541Y35514000D01*
X55380459Y35514000D01*
X55630756Y35617676D01*
X55822324Y35809244D01*
X55926000Y36059541D01*
X55926000Y36330459D01*
X55822324Y36580756D01*
X55630756Y36772324D01*
X55380459Y36876000D01*
X55109541Y36876000D01*
X54859244Y36772324D01*
X54667676Y36580756D01*
X54564000Y36330459D01*
X49911000Y36330459D01*
X49911000Y36965459D01*
X62819000Y36965459D01*
X62819000Y36694541D01*
X62922676Y36444244D01*
X63114244Y36252676D01*
X63364541Y36149000D01*
X63635459Y36149000D01*
X63885756Y36252676D01*
X63963539Y36330459D01*
X69804000Y36330459D01*
X69804000Y36059541D01*
X69907676Y35809244D01*
X70099244Y35617676D01*
X70349541Y35514000D01*
X70620459Y35514000D01*
X70870756Y35617676D01*
X71062324Y35809244D01*
X71166000Y36059541D01*
X71166000Y36330459D01*
X71062324Y36580756D01*
X70870756Y36772324D01*
X70620459Y36876000D01*
X70349541Y36876000D01*
X70099244Y36772324D01*
X69907676Y36580756D01*
X69804000Y36330459D01*
X63963539Y36330459D01*
X64077324Y36444244D01*
X64181000Y36694541D01*
X64181000Y36965459D01*
X64077324Y37215756D01*
X63885756Y37407324D01*
X63635459Y37511000D01*
X63364541Y37511000D01*
X63114244Y37407324D01*
X62922676Y37215756D01*
X62819000Y36965459D01*
X49911000Y36965459D01*
X49911000Y38870459D01*
X74249000Y38870459D01*
X74249000Y38599541D01*
X74352676Y38349244D01*
X74544244Y38157676D01*
X74794541Y38054000D01*
X75065459Y38054000D01*
X75315756Y38157676D01*
X75507324Y38349244D01*
X75611000Y38599541D01*
X75611000Y38870459D01*
X75507324Y39120756D01*
X75315756Y39312324D01*
X75065459Y39416000D01*
X74794541Y39416000D01*
X74544244Y39312324D01*
X74352676Y39120756D01*
X74249000Y38870459D01*
X49911000Y38870459D01*
X49911000Y40775459D01*
X55199000Y40775459D01*
X55199000Y40504541D01*
X55302676Y40254244D01*
X55494244Y40062676D01*
X55744541Y39959000D01*
X56015459Y39959000D01*
X56265756Y40062676D01*
X56457324Y40254244D01*
X56561000Y40504541D01*
X56561000Y40775459D01*
X57739000Y40775459D01*
X57739000Y40504541D01*
X57842676Y40254244D01*
X58034244Y40062676D01*
X58284541Y39959000D01*
X58555459Y39959000D01*
X58805756Y40062676D01*
X58997324Y40254244D01*
X59101000Y40504541D01*
X59101000Y40775459D01*
X58997324Y41025756D01*
X58805756Y41217324D01*
X58555459Y41321000D01*
X58284541Y41321000D01*
X58034244Y41217324D01*
X57842676Y41025756D01*
X57739000Y40775459D01*
X56561000Y40775459D01*
X56457324Y41025756D01*
X56265756Y41217324D01*
X56015459Y41321000D01*
X55744541Y41321000D01*
X55494244Y41217324D01*
X55302676Y41025756D01*
X55199000Y40775459D01*
X49911000Y40775459D01*
X49911000Y43315459D01*
X56469000Y43315459D01*
X56469000Y43044541D01*
X56572676Y42794244D01*
X56764244Y42602676D01*
X57014541Y42499000D01*
X57285459Y42499000D01*
X57535756Y42602676D01*
X57727324Y42794244D01*
X57831000Y43044541D01*
X57831000Y43315459D01*
X61549000Y43315459D01*
X61549000Y43044541D01*
X61652676Y42794244D01*
X61844244Y42602676D01*
X62094541Y42499000D01*
X62365459Y42499000D01*
X62615756Y42602676D01*
X62807324Y42794244D01*
X62911000Y43044541D01*
X62911000Y43315459D01*
X62807324Y43565756D01*
X62615756Y43757324D01*
X62365459Y43861000D01*
X62094541Y43861000D01*
X61844244Y43757324D01*
X61652676Y43565756D01*
X61549000Y43315459D01*
X57831000Y43315459D01*
X57727324Y43565756D01*
X57535756Y43757324D01*
X57285459Y43861000D01*
X57014541Y43861000D01*
X56764244Y43757324D01*
X56572676Y43565756D01*
X56469000Y43315459D01*
X49911000Y43315459D01*
X49911000Y45220459D01*
X50119000Y45220459D01*
X50119000Y44949541D01*
X50222676Y44699244D01*
X50414244Y44507676D01*
X50664541Y44404000D01*
X50935459Y44404000D01*
X51185756Y44507676D01*
X51377324Y44699244D01*
X51481000Y44949541D01*
X51481000Y45220459D01*
X61549000Y45220459D01*
X61549000Y44949541D01*
X61652676Y44699244D01*
X61844244Y44507676D01*
X62094541Y44404000D01*
X62365459Y44404000D01*
X62615756Y44507676D01*
X62807324Y44699244D01*
X62911000Y44949541D01*
X62911000Y45220459D01*
X62807324Y45470756D01*
X62615756Y45662324D01*
X62365459Y45766000D01*
X62094541Y45766000D01*
X61844244Y45662324D01*
X61652676Y45470756D01*
X61549000Y45220459D01*
X51481000Y45220459D01*
X51377324Y45470756D01*
X51185756Y45662324D01*
X50935459Y45766000D01*
X50664541Y45766000D01*
X50414244Y45662324D01*
X50222676Y45470756D01*
X50119000Y45220459D01*
X49911000Y45220459D01*
X49911000Y47760459D01*
X62184000Y47760459D01*
X62184000Y47489541D01*
X62259404Y47307500D01*
X62184000Y47125459D01*
X62184000Y46854541D01*
X62259404Y46672500D01*
X62184000Y46490459D01*
X62184000Y46219541D01*
X62287676Y45969244D01*
X62479244Y45777676D01*
X62729541Y45674000D01*
X63000459Y45674000D01*
X63250756Y45777676D01*
X63442324Y45969244D01*
X63546000Y46219541D01*
X63546000Y46490459D01*
X63470596Y46672500D01*
X63546000Y46854541D01*
X63546000Y47125459D01*
X63470596Y47307500D01*
X63546000Y47489541D01*
X63546000Y47760459D01*
X65994000Y47760459D01*
X65994000Y47489541D01*
X66069404Y47307500D01*
X65994000Y47125459D01*
X65994000Y46854541D01*
X66069404Y46672500D01*
X65994000Y46490459D01*
X65994000Y46219541D01*
X66097676Y45969244D01*
X66289244Y45777676D01*
X66539541Y45674000D01*
X66810459Y45674000D01*
X67060756Y45777676D01*
X67252324Y45969244D01*
X67356000Y46219541D01*
X67356000Y46490459D01*
X67280596Y46672500D01*
X67356000Y46854541D01*
X67356000Y47125459D01*
X67280596Y47307500D01*
X67356000Y47489541D01*
X67356000Y47760459D01*
X67252324Y48010756D01*
X67060756Y48202324D01*
X66810459Y48306000D01*
X66539541Y48306000D01*
X66289244Y48202324D01*
X66097676Y48010756D01*
X65994000Y47760459D01*
X63546000Y47760459D01*
X63442324Y48010756D01*
X63250756Y48202324D01*
X63000459Y48306000D01*
X62729541Y48306000D01*
X62479244Y48202324D01*
X62287676Y48010756D01*
X62184000Y47760459D01*
X49911000Y47760459D01*
X49911000Y49403000D01*
X57964920Y49403000D01*
X57842676Y49280756D01*
X57842676Y49280756D01*
G37*
X57842676Y49280756D02*
X57739000Y49030459D01*
X57739000Y48759541D01*
X57842676Y48509244D01*
X58034244Y48317676D01*
X58284541Y48214000D01*
X58555459Y48214000D01*
X58805756Y48317676D01*
X58997324Y48509244D01*
X59101000Y48759541D01*
X59101000Y49030459D01*
X58997324Y49280756D01*
X58875080Y49403000D01*
X79544000Y49403000D01*
X79544001Y456000D01*
X49911000Y456000D01*
X49911000Y12221547D01*
X50553620Y12221547D01*
X50553620Y8301654D01*
X50677266Y7680043D01*
X51148272Y6975132D01*
X51853182Y6504126D01*
X52684680Y6338731D01*
X53516177Y6504126D01*
X54221088Y6975132D01*
X54692094Y7680042D01*
X54815740Y8301653D01*
X54815740Y12221547D01*
X54692094Y12843158D01*
X54221088Y13548068D01*
X53516178Y14019074D01*
X52684680Y14184469D01*
X51853183Y14019074D01*
X51148273Y13548068D01*
X50677267Y12843158D01*
X50553620Y12221547D01*
X49911000Y12221547D01*
X49911000Y15092168D01*
X56603900Y15092168D01*
X56603900Y13960353D01*
X56672428Y13615839D01*
X56933474Y13225154D01*
X57324158Y12964108D01*
X57785000Y12872441D01*
X58245841Y12964108D01*
X58636526Y13225154D01*
X58897572Y13615838D01*
X58966100Y13960352D01*
X58966100Y15092167D01*
X58966100Y15092168D01*
X59103260Y15092168D01*
X59103260Y13960353D01*
X59171788Y13615839D01*
X59432834Y13225154D01*
X59823518Y12964108D01*
X60284360Y12872441D01*
X60745201Y12964108D01*
X61126352Y13218784D01*
X60875367Y12843158D01*
X60751720Y12221547D01*
X60751720Y8301654D01*
X60875366Y7680043D01*
X61346372Y6975132D01*
X62051282Y6504126D01*
X62882780Y6338731D01*
X63714277Y6504126D01*
X64419188Y6975132D01*
X64890194Y7680042D01*
X64905195Y7755459D01*
X71709000Y7755459D01*
X71709000Y7484541D01*
X71812676Y7234244D01*
X72004244Y7042676D01*
X72254541Y6939000D01*
X72525459Y6939000D01*
X72775756Y7042676D01*
X72967324Y7234244D01*
X73071000Y7484541D01*
X73071000Y7755459D01*
X72967324Y8005756D01*
X72775756Y8197324D01*
X72525459Y8301000D01*
X72254541Y8301000D01*
X72004244Y8197324D01*
X71812676Y8005756D01*
X71709000Y7755459D01*
X64905195Y7755459D01*
X65013840Y8301653D01*
X65013840Y10930459D01*
X75519000Y10930459D01*
X75519000Y10659541D01*
X75622676Y10409244D01*
X75814244Y10217676D01*
X76064541Y10114000D01*
X76335459Y10114000D01*
X76585756Y10217676D01*
X76777324Y10409244D01*
X76881000Y10659541D01*
X76881000Y10930459D01*
X76777324Y11180756D01*
X76585756Y11372324D01*
X76335459Y11476000D01*
X76064541Y11476000D01*
X75814244Y11372324D01*
X75622676Y11180756D01*
X75519000Y10930459D01*
X65013840Y10930459D01*
X65013840Y12221547D01*
X64890194Y12843158D01*
X64471045Y13470459D01*
X72979000Y13470459D01*
X72979000Y13199541D01*
X73082676Y12949244D01*
X73274244Y12757676D01*
X73524541Y12654000D01*
X73795459Y12654000D01*
X74045756Y12757676D01*
X74237324Y12949244D01*
X74341000Y13199541D01*
X74341000Y13470459D01*
X74237324Y13720756D01*
X74045756Y13912324D01*
X73795459Y14016000D01*
X73524541Y14016000D01*
X73274244Y13912324D01*
X73082676Y13720756D01*
X72979000Y13470459D01*
X64471045Y13470459D01*
X64419188Y13548068D01*
X63714278Y14019074D01*
X62882780Y14184469D01*
X62051283Y14019074D01*
X61355906Y13554437D01*
X61396932Y13615838D01*
X61465460Y13960352D01*
X61465460Y15092167D01*
X61396932Y15436682D01*
X61135886Y15827366D01*
X60745202Y16088412D01*
X60284360Y16180079D01*
X59823519Y16088412D01*
X59432835Y15827366D01*
X59171788Y15436682D01*
X59103260Y15092168D01*
X58966100Y15092168D01*
X58897572Y15436682D01*
X58636526Y15827366D01*
X58245842Y16088412D01*
X57785000Y16180079D01*
X57324159Y16088412D01*
X56933475Y15827366D01*
X56672428Y15436682D01*
X56603900Y15092168D01*
X49911000Y15092168D01*
X49911000Y16645459D01*
X71074000Y16645459D01*
X71074000Y16374541D01*
X71177676Y16124244D01*
X71369244Y15932676D01*
X71619541Y15829000D01*
X71890459Y15829000D01*
X72140756Y15932676D01*
X72332324Y16124244D01*
X72436000Y16374541D01*
X72436000Y16645459D01*
X74884000Y16645459D01*
X74884000Y16374541D01*
X74987676Y16124244D01*
X75179244Y15932676D01*
X75429541Y15829000D01*
X75700459Y15829000D01*
X75950756Y15932676D01*
X76142324Y16124244D01*
X76246000Y16374541D01*
X76246000Y16645459D01*
X76142324Y16895756D01*
X75950756Y17087324D01*
X75700459Y17191000D01*
X75429541Y17191000D01*
X75179244Y17087324D01*
X74987676Y16895756D01*
X74884000Y16645459D01*
X72436000Y16645459D01*
X72332324Y16895756D01*
X72140756Y17087324D01*
X71890459Y17191000D01*
X71619541Y17191000D01*
X71369244Y17087324D01*
X71177676Y16895756D01*
X71074000Y16645459D01*
X49911000Y16645459D01*
X49911000Y18550459D01*
X53294000Y18550459D01*
X53294000Y18279541D01*
X53397676Y18029244D01*
X53589244Y17837676D01*
X53839541Y17734000D01*
X54110459Y17734000D01*
X54360756Y17837676D01*
X54552324Y18029244D01*
X54656000Y18279541D01*
X54656000Y18550459D01*
X54552324Y18800756D01*
X54360756Y18992324D01*
X54110459Y19096000D01*
X53839541Y19096000D01*
X53589244Y18992324D01*
X53397676Y18800756D01*
X53294000Y18550459D01*
X49911000Y18550459D01*
X49911000Y26170459D01*
X58374000Y26170459D01*
X58374000Y25899541D01*
X58477676Y25649244D01*
X58669244Y25457676D01*
X58919541Y25354000D01*
X59190459Y25354000D01*
X59440756Y25457676D01*
X59632324Y25649244D01*
X59736000Y25899541D01*
X59736000Y26170459D01*
X59632324Y26420756D01*
X59440756Y26612324D01*
X59190459Y26716000D01*
X58919541Y26716000D01*
X58669244Y26612324D01*
X58477676Y26420756D01*
X58374000Y26170459D01*
X49911000Y26170459D01*
X49911000Y26805459D01*
X60914000Y26805459D01*
X60914000Y26534541D01*
X61017676Y26284244D01*
X61209244Y26092676D01*
X61459541Y25989000D01*
X61730459Y25989000D01*
X61980756Y26092676D01*
X62172324Y26284244D01*
X62276000Y26534541D01*
X62276000Y26805459D01*
X62172324Y27055756D01*
X61980756Y27247324D01*
X61730459Y27351000D01*
X61459541Y27351000D01*
X61209244Y27247324D01*
X61017676Y27055756D01*
X60914000Y26805459D01*
X49911000Y26805459D01*
X49911000Y27440459D01*
X67899000Y27440459D01*
X67899000Y27169541D01*
X68002676Y26919244D01*
X68194244Y26727676D01*
X68444541Y26624000D01*
X68715459Y26624000D01*
X68965756Y26727676D01*
X69157324Y26919244D01*
X69261000Y27169541D01*
X69261000Y27440459D01*
X69157324Y27690756D01*
X68965756Y27882324D01*
X68715459Y27986000D01*
X68444541Y27986000D01*
X68194244Y27882324D01*
X68002676Y27690756D01*
X67899000Y27440459D01*
X49911000Y27440459D01*
X49911000Y28075459D01*
X75519000Y28075459D01*
X75519000Y27804541D01*
X75622676Y27554244D01*
X75814244Y27362676D01*
X76064541Y27259000D01*
X76335459Y27259000D01*
X76585756Y27362676D01*
X76777324Y27554244D01*
X76881000Y27804541D01*
X76881000Y28075459D01*
X76777324Y28325756D01*
X76585756Y28517324D01*
X76335459Y28621000D01*
X76064541Y28621000D01*
X75814244Y28517324D01*
X75622676Y28325756D01*
X75519000Y28075459D01*
X49911000Y28075459D01*
X49911000Y29980459D01*
X58374000Y29980459D01*
X58374000Y29709541D01*
X58477676Y29459244D01*
X58669244Y29267676D01*
X58919541Y29164000D01*
X59190459Y29164000D01*
X59440756Y29267676D01*
X59518539Y29345459D01*
X65994000Y29345459D01*
X65994000Y29074541D01*
X66097676Y28824244D01*
X66289244Y28632676D01*
X66539541Y28529000D01*
X66810459Y28529000D01*
X67060756Y28632676D01*
X67252324Y28824244D01*
X67356000Y29074541D01*
X67356000Y29345459D01*
X67252324Y29595756D01*
X67060756Y29787324D01*
X66810459Y29891000D01*
X66539541Y29891000D01*
X66289244Y29787324D01*
X66097676Y29595756D01*
X65994000Y29345459D01*
X59518539Y29345459D01*
X59632324Y29459244D01*
X59736000Y29709541D01*
X59736000Y29980459D01*
X59632324Y30230756D01*
X59440756Y30422324D01*
X59190459Y30526000D01*
X58919541Y30526000D01*
X58669244Y30422324D01*
X58477676Y30230756D01*
X58374000Y29980459D01*
X49911000Y29980459D01*
X49911000Y31250459D01*
X59644000Y31250459D01*
X59644000Y30979541D01*
X59747676Y30729244D01*
X59939244Y30537676D01*
X60189541Y30434000D01*
X60460459Y30434000D01*
X60710756Y30537676D01*
X60902324Y30729244D01*
X61006000Y30979541D01*
X61006000Y31250459D01*
X60902324Y31500756D01*
X60710756Y31692324D01*
X60460459Y31796000D01*
X60189541Y31796000D01*
X59939244Y31692324D01*
X59747676Y31500756D01*
X59644000Y31250459D01*
X49911000Y31250459D01*
X49911000Y36330459D01*
X54564000Y36330459D01*
X54564000Y36059541D01*
X54667676Y35809244D01*
X54859244Y35617676D01*
X55109541Y35514000D01*
X55380459Y35514000D01*
X55630756Y35617676D01*
X55822324Y35809244D01*
X55926000Y36059541D01*
X55926000Y36330459D01*
X55822324Y36580756D01*
X55630756Y36772324D01*
X55380459Y36876000D01*
X55109541Y36876000D01*
X54859244Y36772324D01*
X54667676Y36580756D01*
X54564000Y36330459D01*
X49911000Y36330459D01*
X49911000Y36965459D01*
X62819000Y36965459D01*
X62819000Y36694541D01*
X62922676Y36444244D01*
X63114244Y36252676D01*
X63364541Y36149000D01*
X63635459Y36149000D01*
X63885756Y36252676D01*
X63963539Y36330459D01*
X69804000Y36330459D01*
X69804000Y36059541D01*
X69907676Y35809244D01*
X70099244Y35617676D01*
X70349541Y35514000D01*
X70620459Y35514000D01*
X70870756Y35617676D01*
X71062324Y35809244D01*
X71166000Y36059541D01*
X71166000Y36330459D01*
X71062324Y36580756D01*
X70870756Y36772324D01*
X70620459Y36876000D01*
X70349541Y36876000D01*
X70099244Y36772324D01*
X69907676Y36580756D01*
X69804000Y36330459D01*
X63963539Y36330459D01*
X64077324Y36444244D01*
X64181000Y36694541D01*
X64181000Y36965459D01*
X64077324Y37215756D01*
X63885756Y37407324D01*
X63635459Y37511000D01*
X63364541Y37511000D01*
X63114244Y37407324D01*
X62922676Y37215756D01*
X62819000Y36965459D01*
X49911000Y36965459D01*
X49911000Y38870459D01*
X74249000Y38870459D01*
X74249000Y38599541D01*
X74352676Y38349244D01*
X74544244Y38157676D01*
X74794541Y38054000D01*
X75065459Y38054000D01*
X75315756Y38157676D01*
X75507324Y38349244D01*
X75611000Y38599541D01*
X75611000Y38870459D01*
X75507324Y39120756D01*
X75315756Y39312324D01*
X75065459Y39416000D01*
X74794541Y39416000D01*
X74544244Y39312324D01*
X74352676Y39120756D01*
X74249000Y38870459D01*
X49911000Y38870459D01*
X49911000Y40775459D01*
X55199000Y40775459D01*
X55199000Y40504541D01*
X55302676Y40254244D01*
X55494244Y40062676D01*
X55744541Y39959000D01*
X56015459Y39959000D01*
X56265756Y40062676D01*
X56457324Y40254244D01*
X56561000Y40504541D01*
X56561000Y40775459D01*
X57739000Y40775459D01*
X57739000Y40504541D01*
X57842676Y40254244D01*
X58034244Y40062676D01*
X58284541Y39959000D01*
X58555459Y39959000D01*
X58805756Y40062676D01*
X58997324Y40254244D01*
X59101000Y40504541D01*
X59101000Y40775459D01*
X58997324Y41025756D01*
X58805756Y41217324D01*
X58555459Y41321000D01*
X58284541Y41321000D01*
X58034244Y41217324D01*
X57842676Y41025756D01*
X57739000Y40775459D01*
X56561000Y40775459D01*
X56457324Y41025756D01*
X56265756Y41217324D01*
X56015459Y41321000D01*
X55744541Y41321000D01*
X55494244Y41217324D01*
X55302676Y41025756D01*
X55199000Y40775459D01*
X49911000Y40775459D01*
X49911000Y43315459D01*
X56469000Y43315459D01*
X56469000Y43044541D01*
X56572676Y42794244D01*
X56764244Y42602676D01*
X57014541Y42499000D01*
X57285459Y42499000D01*
X57535756Y42602676D01*
X57727324Y42794244D01*
X57831000Y43044541D01*
X57831000Y43315459D01*
X61549000Y43315459D01*
X61549000Y43044541D01*
X61652676Y42794244D01*
X61844244Y42602676D01*
X62094541Y42499000D01*
X62365459Y42499000D01*
X62615756Y42602676D01*
X62807324Y42794244D01*
X62911000Y43044541D01*
X62911000Y43315459D01*
X62807324Y43565756D01*
X62615756Y43757324D01*
X62365459Y43861000D01*
X62094541Y43861000D01*
X61844244Y43757324D01*
X61652676Y43565756D01*
X61549000Y43315459D01*
X57831000Y43315459D01*
X57727324Y43565756D01*
X57535756Y43757324D01*
X57285459Y43861000D01*
X57014541Y43861000D01*
X56764244Y43757324D01*
X56572676Y43565756D01*
X56469000Y43315459D01*
X49911000Y43315459D01*
X49911000Y45220459D01*
X50119000Y45220459D01*
X50119000Y44949541D01*
X50222676Y44699244D01*
X50414244Y44507676D01*
X50664541Y44404000D01*
X50935459Y44404000D01*
X51185756Y44507676D01*
X51377324Y44699244D01*
X51481000Y44949541D01*
X51481000Y45220459D01*
X61549000Y45220459D01*
X61549000Y44949541D01*
X61652676Y44699244D01*
X61844244Y44507676D01*
X62094541Y44404000D01*
X62365459Y44404000D01*
X62615756Y44507676D01*
X62807324Y44699244D01*
X62911000Y44949541D01*
X62911000Y45220459D01*
X62807324Y45470756D01*
X62615756Y45662324D01*
X62365459Y45766000D01*
X62094541Y45766000D01*
X61844244Y45662324D01*
X61652676Y45470756D01*
X61549000Y45220459D01*
X51481000Y45220459D01*
X51377324Y45470756D01*
X51185756Y45662324D01*
X50935459Y45766000D01*
X50664541Y45766000D01*
X50414244Y45662324D01*
X50222676Y45470756D01*
X50119000Y45220459D01*
X49911000Y45220459D01*
X49911000Y47760459D01*
X62184000Y47760459D01*
X62184000Y47489541D01*
X62259404Y47307500D01*
X62184000Y47125459D01*
X62184000Y46854541D01*
X62259404Y46672500D01*
X62184000Y46490459D01*
X62184000Y46219541D01*
X62287676Y45969244D01*
X62479244Y45777676D01*
X62729541Y45674000D01*
X63000459Y45674000D01*
X63250756Y45777676D01*
X63442324Y45969244D01*
X63546000Y46219541D01*
X63546000Y46490459D01*
X63470596Y46672500D01*
X63546000Y46854541D01*
X63546000Y47125459D01*
X63470596Y47307500D01*
X63546000Y47489541D01*
X63546000Y47760459D01*
X65994000Y47760459D01*
X65994000Y47489541D01*
X66069404Y47307500D01*
X65994000Y47125459D01*
X65994000Y46854541D01*
X66069404Y46672500D01*
X65994000Y46490459D01*
X65994000Y46219541D01*
X66097676Y45969244D01*
X66289244Y45777676D01*
X66539541Y45674000D01*
X66810459Y45674000D01*
X67060756Y45777676D01*
X67252324Y45969244D01*
X67356000Y46219541D01*
X67356000Y46490459D01*
X67280596Y46672500D01*
X67356000Y46854541D01*
X67356000Y47125459D01*
X67280596Y47307500D01*
X67356000Y47489541D01*
X67356000Y47760459D01*
X67252324Y48010756D01*
X67060756Y48202324D01*
X66810459Y48306000D01*
X66539541Y48306000D01*
X66289244Y48202324D01*
X66097676Y48010756D01*
X65994000Y47760459D01*
X63546000Y47760459D01*
X63442324Y48010756D01*
X63250756Y48202324D01*
X63000459Y48306000D01*
X62729541Y48306000D01*
X62479244Y48202324D01*
X62287676Y48010756D01*
X62184000Y47760459D01*
X49911000Y47760459D01*
X49911000Y49403000D01*
X57964920Y49403000D01*
X57842676Y49280756D01*
G04 #@! TO.N,+3V3*
G36*
X79544000Y50292000D02*
X31570080Y50292000D01*
X31692324Y50414244D01*
X31796000Y50664541D01*
X31796000Y50935459D01*
X31692324Y51185756D01*
X31500756Y51377324D01*
X31250459Y51481000D01*
X30979541Y51481000D01*
X30729244Y51377324D01*
X30537676Y51185756D01*
X30434000Y50935459D01*
X30434000Y50664541D01*
X30537676Y50414244D01*
X30659920Y50292000D01*
X20955000Y50292000D01*
X20906399Y50282333D01*
X20865197Y50254803D01*
X20837667Y50213601D01*
X20828000Y50165000D01*
X20828000Y20682638D01*
X20779859Y20798861D01*
X20278856Y21299864D01*
X19624263Y21571005D01*
X18915737Y21571005D01*
X18261144Y21299864D01*
X17760141Y20798861D01*
X17489000Y20144268D01*
X17489000Y19435742D01*
X17760141Y18781149D01*
X18261144Y18280146D01*
X18915737Y18009005D01*
X19624263Y18009005D01*
X20278856Y18280146D01*
X20779859Y18781149D01*
X20828000Y18897372D01*
X20828000Y15002638D01*
X20779859Y15118861D01*
X20278856Y15619864D01*
X19624263Y15891005D01*
X18915737Y15891005D01*
X18261144Y15619864D01*
X17760141Y15118861D01*
X17489000Y14464268D01*
X17489000Y13755742D01*
X17760141Y13101149D01*
X18261144Y12600146D01*
X18915737Y12329005D01*
X19624263Y12329005D01*
X20278856Y12600146D01*
X20779859Y13101149D01*
X20828000Y13217372D01*
X20828000Y456000D01*
X456000Y456000D01*
X456000Y14464268D01*
X4349000Y14464268D01*
X4349000Y13755742D01*
X4620141Y13101149D01*
X5121144Y12600146D01*
X5775737Y12329005D01*
X6484263Y12329005D01*
X7138856Y12600146D01*
X7639859Y13101149D01*
X7911000Y13755742D01*
X7911000Y14464268D01*
X7639859Y15118861D01*
X7138856Y15619864D01*
X6484263Y15891005D01*
X5775737Y15891005D01*
X5121144Y15619864D01*
X4620141Y15118861D01*
X4349000Y14464268D01*
X456000Y14464268D01*
X456000Y17037018D01*
X8109000Y17037018D01*
X8109000Y16602992D01*
X8275095Y16202003D01*
X8581998Y15895100D01*
X8982987Y15729005D01*
X9417013Y15729005D01*
X9818002Y15895100D01*
X10124905Y16202003D01*
X10291000Y16602992D01*
X10291000Y17037018D01*
X10609000Y17037018D01*
X10609000Y16602992D01*
X10775095Y16202003D01*
X11081998Y15895100D01*
X11482987Y15729005D01*
X11917013Y15729005D01*
X12318002Y15895100D01*
X12624905Y16202003D01*
X12700000Y16383298D01*
X12775095Y16202003D01*
X13081998Y15895100D01*
X13482987Y15729005D01*
X13917013Y15729005D01*
X14318002Y15895100D01*
X14624905Y16202003D01*
X14791000Y16602992D01*
X14791000Y17037018D01*
X15109000Y17037018D01*
X15109000Y16602992D01*
X15275095Y16202003D01*
X15581998Y15895100D01*
X15982987Y15729005D01*
X16417013Y15729005D01*
X16818002Y15895100D01*
X17124905Y16202003D01*
X17291000Y16602992D01*
X17291000Y17037018D01*
X17124905Y17438007D01*
X16818002Y17744910D01*
X16417013Y17911005D01*
X15982987Y17911005D01*
X15581998Y17744910D01*
X15275095Y17438007D01*
X15109000Y17037018D01*
X14791000Y17037018D01*
X14624905Y17438007D01*
X14318002Y17744910D01*
X13917013Y17911005D01*
X13482987Y17911005D01*
X13081998Y17744910D01*
X12775095Y17438007D01*
X12700000Y17256712D01*
X12624905Y17438007D01*
X12318002Y17744910D01*
X11917013Y17911005D01*
X11482987Y17911005D01*
X11081998Y17744910D01*
X10775095Y17438007D01*
X10609000Y17037018D01*
X10291000Y17037018D01*
X10124905Y17438007D01*
X9818002Y17744910D01*
X9417013Y17911005D01*
X8982987Y17911005D01*
X8581998Y17744910D01*
X8275095Y17438007D01*
X8109000Y17037018D01*
X456000Y17037018D01*
X456000Y20144268D01*
X4349000Y20144268D01*
X4349000Y19435742D01*
X4620141Y18781149D01*
X5121144Y18280146D01*
X5775737Y18009005D01*
X6484263Y18009005D01*
X7138856Y18280146D01*
X7639859Y18781149D01*
X7911000Y19435742D01*
X7911000Y19657018D01*
X8109000Y19657018D01*
X8109000Y19222992D01*
X8275095Y18822003D01*
X8581998Y18515100D01*
X8982987Y18349005D01*
X9417013Y18349005D01*
X9818002Y18515100D01*
X10124905Y18822003D01*
X10291000Y19222992D01*
X10291000Y19657018D01*
X10609000Y19657018D01*
X10609000Y19222992D01*
X10775095Y18822003D01*
X11081998Y18515100D01*
X11482987Y18349005D01*
X11917013Y18349005D01*
X12318002Y18515100D01*
X12624905Y18822003D01*
X12700000Y19003298D01*
X12775095Y18822003D01*
X13081998Y18515100D01*
X13482987Y18349005D01*
X13917013Y18349005D01*
X14318002Y18515100D01*
X14624905Y18822003D01*
X14791000Y19222992D01*
X14791000Y19657018D01*
X15109000Y19657018D01*
X15109000Y19222992D01*
X15275095Y18822003D01*
X15581998Y18515100D01*
X15982987Y18349005D01*
X16417013Y18349005D01*
X16818002Y18515100D01*
X17124905Y18822003D01*
X17291000Y19222992D01*
X17291000Y19657018D01*
X17124905Y20058007D01*
X16818002Y20364910D01*
X16417013Y20531005D01*
X15982987Y20531005D01*
X15581998Y20364910D01*
X15275095Y20058007D01*
X15109000Y19657018D01*
X14791000Y19657018D01*
X14624905Y20058007D01*
X14318002Y20364910D01*
X13917013Y20531005D01*
X13482987Y20531005D01*
X13081998Y20364910D01*
X12775095Y20058007D01*
X12700000Y19876712D01*
X12624905Y20058007D01*
X12318002Y20364910D01*
X11917013Y20531005D01*
X11482987Y20531005D01*
X11081998Y20364910D01*
X10775095Y20058007D01*
X10609000Y19657018D01*
X10291000Y19657018D01*
X10124905Y20058007D01*
X9818002Y20364910D01*
X9417013Y20531005D01*
X8982987Y20531005D01*
X8581998Y20364910D01*
X8275095Y20058007D01*
X8109000Y19657018D01*
X7911000Y19657018D01*
X7911000Y20144268D01*
X7639859Y20798861D01*
X7138856Y21299864D01*
X6484263Y21571005D01*
X5775737Y21571005D01*
X5121144Y21299864D01*
X4620141Y20798861D01*
X4349000Y20144268D01*
X456000Y20144268D01*
X456000Y24265459D01*
X18369000Y24265459D01*
X18369000Y23994541D01*
X18472676Y23744244D01*
X18664244Y23552676D01*
X18914541Y23449000D01*
X19185459Y23449000D01*
X19435756Y23552676D01*
X19627324Y23744244D01*
X19731000Y23994541D01*
X19731000Y24265459D01*
X19627324Y24515756D01*
X19435756Y24707324D01*
X19185459Y24811000D01*
X18914541Y24811000D01*
X18664244Y24707324D01*
X18472676Y24515756D01*
X18369000Y24265459D01*
X456000Y24265459D01*
X456000Y26170459D01*
X14559000Y26170459D01*
X14559000Y25899541D01*
X14662676Y25649244D01*
X14854244Y25457676D01*
X15104541Y25354000D01*
X15375459Y25354000D01*
X15625756Y25457676D01*
X15817324Y25649244D01*
X15921000Y25899541D01*
X15921000Y26170459D01*
X15817324Y26420756D01*
X15625756Y26612324D01*
X15375459Y26716000D01*
X15104541Y26716000D01*
X14854244Y26612324D01*
X14662676Y26420756D01*
X14559000Y26170459D01*
X456000Y26170459D01*
X456000Y35060459D01*
X15829000Y35060459D01*
X15829000Y34789541D01*
X15932676Y34539244D01*
X16124244Y34347676D01*
X16374541Y34244000D01*
X16645459Y34244000D01*
X16895756Y34347676D01*
X17087324Y34539244D01*
X17191000Y34789541D01*
X17191000Y35060459D01*
X17087324Y35310756D01*
X16895756Y35502324D01*
X16645459Y35606000D01*
X16374541Y35606000D01*
X16124244Y35502324D01*
X15932676Y35310756D01*
X15829000Y35060459D01*
X456000Y35060459D01*
X456000Y37600459D01*
X17734000Y37600459D01*
X17734000Y37329541D01*
X17837676Y37079244D01*
X18029244Y36887676D01*
X18279541Y36784000D01*
X18550459Y36784000D01*
X18800756Y36887676D01*
X18992324Y37079244D01*
X19096000Y37329541D01*
X19096000Y37600459D01*
X18992324Y37850756D01*
X18800756Y38042324D01*
X18550459Y38146000D01*
X18279541Y38146000D01*
X18029244Y38042324D01*
X17837676Y37850756D01*
X17734000Y37600459D01*
X456000Y37600459D01*
X456000Y43950459D01*
X17734000Y43950459D01*
X17734000Y43679541D01*
X17837676Y43429244D01*
X18029244Y43237676D01*
X18279541Y43134000D01*
X18550459Y43134000D01*
X18800756Y43237676D01*
X18992324Y43429244D01*
X19096000Y43679541D01*
X19096000Y43950459D01*
X18992324Y44200756D01*
X18800756Y44392324D01*
X18550459Y44496000D01*
X18279541Y44496000D01*
X18029244Y44392324D01*
X17837676Y44200756D01*
X17734000Y43950459D01*
X456000Y43950459D01*
X456000Y47760459D01*
X15194000Y47760459D01*
X15194000Y47489541D01*
X15297676Y47239244D01*
X15489244Y47047676D01*
X15739541Y46944000D01*
X16010459Y46944000D01*
X16260756Y47047676D01*
X16452324Y47239244D01*
X16556000Y47489541D01*
X16556000Y47760459D01*
X16452324Y48010756D01*
X16260756Y48202324D01*
X16010459Y48306000D01*
X15739541Y48306000D01*
X15489244Y48202324D01*
X15297676Y48010756D01*
X15194000Y47760459D01*
X456000Y47760459D01*
X456000Y48395459D01*
X17099000Y48395459D01*
X17099000Y48124541D01*
X17202676Y47874244D01*
X17394244Y47682676D01*
X17644541Y47579000D01*
X17915459Y47579000D01*
X18165756Y47682676D01*
X18357324Y47874244D01*
X18461000Y48124541D01*
X18461000Y48395459D01*
X18357324Y48645756D01*
X18165756Y48837324D01*
X17915459Y48941000D01*
X17644541Y48941000D01*
X17394244Y48837324D01*
X17202676Y48645756D01*
X17099000Y48395459D01*
X456000Y48395459D01*
X456000Y53475459D01*
X8209000Y53475459D01*
X8209000Y53204541D01*
X8312676Y52954244D01*
X8504244Y52762676D01*
X8702188Y52680685D01*
X8621647Y52647324D01*
X8430079Y52455756D01*
X8326403Y52205459D01*
X8326403Y51934541D01*
X8430079Y51684244D01*
X8621647Y51492676D01*
X8871944Y51389000D01*
X9142862Y51389000D01*
X9266201Y51440089D01*
X9389541Y51389000D01*
X9660459Y51389000D01*
X9842500Y51464404D01*
X10024541Y51389000D01*
X10114000Y51389000D01*
X10114000Y51299541D01*
X10189404Y51117500D01*
X10114000Y50935459D01*
X10114000Y50664541D01*
X10189404Y50482500D01*
X10114000Y50300459D01*
X10114000Y50029541D01*
X10217676Y49779244D01*
X10409244Y49587676D01*
X10659541Y49484000D01*
X10930459Y49484000D01*
X11180756Y49587676D01*
X11372324Y49779244D01*
X11476000Y50029541D01*
X11476000Y50300459D01*
X12019000Y50300459D01*
X12019000Y50029541D01*
X12122676Y49779244D01*
X12314244Y49587676D01*
X12564541Y49484000D01*
X12835459Y49484000D01*
X13085756Y49587676D01*
X13277324Y49779244D01*
X13381000Y50029541D01*
X13381000Y50300459D01*
X13277324Y50550756D01*
X13085756Y50742324D01*
X12835459Y50846000D01*
X12564541Y50846000D01*
X12314244Y50742324D01*
X12122676Y50550756D01*
X12019000Y50300459D01*
X11476000Y50300459D01*
X11400596Y50482500D01*
X11476000Y50664541D01*
X11476000Y50935459D01*
X11400596Y51117500D01*
X11476000Y51299541D01*
X11476000Y51570459D01*
X14559000Y51570459D01*
X14559000Y51299541D01*
X14662676Y51049244D01*
X14854244Y50857676D01*
X15104541Y50754000D01*
X15375459Y50754000D01*
X15625756Y50857676D01*
X15817324Y51049244D01*
X15921000Y51299541D01*
X15921000Y51570459D01*
X15817324Y51820756D01*
X15625756Y52012324D01*
X15375459Y52116000D01*
X15104541Y52116000D01*
X14854244Y52012324D01*
X14662676Y51820756D01*
X14559000Y51570459D01*
X11476000Y51570459D01*
X11372324Y51820756D01*
X11180756Y52012324D01*
X10930459Y52116000D01*
X10841000Y52116000D01*
X10841000Y52205459D01*
X10737324Y52455756D01*
X10545756Y52647324D01*
X10295459Y52751000D01*
X10024541Y52751000D01*
X9842500Y52675596D01*
X9660459Y52751000D01*
X9389541Y52751000D01*
X9266202Y52699911D01*
X9195215Y52729315D01*
X9275756Y52762676D01*
X9467324Y52954244D01*
X9521426Y53084860D01*
X14559000Y53084860D01*
X14559000Y52813942D01*
X14662676Y52563645D01*
X14854244Y52372077D01*
X15104541Y52268401D01*
X15375459Y52268401D01*
X15625756Y52372077D01*
X15817324Y52563645D01*
X15921000Y52813942D01*
X15921000Y53084860D01*
X15817324Y53335157D01*
X15710519Y53441962D01*
X17583100Y53441962D01*
X17583100Y53171044D01*
X17686776Y52920747D01*
X17878344Y52729179D01*
X18128641Y52625503D01*
X18399559Y52625503D01*
X18649856Y52729179D01*
X18677756Y52757079D01*
X18914541Y52659000D01*
X19185459Y52659000D01*
X19435756Y52762676D01*
X19513539Y52840459D01*
X48849000Y52840459D01*
X48849000Y52569541D01*
X48952676Y52319244D01*
X49144244Y52127676D01*
X49394541Y52024000D01*
X49665459Y52024000D01*
X49915756Y52127676D01*
X50107324Y52319244D01*
X50211000Y52569541D01*
X50211000Y52840459D01*
X50107324Y53090756D01*
X49915756Y53282324D01*
X49665459Y53386000D01*
X49394541Y53386000D01*
X49144244Y53282324D01*
X48952676Y53090756D01*
X48849000Y52840459D01*
X19513539Y52840459D01*
X19627324Y52954244D01*
X19731000Y53204541D01*
X19731000Y53475459D01*
X19627324Y53725756D01*
X19435756Y53917324D01*
X19185459Y54021000D01*
X18914541Y54021000D01*
X18664244Y53917324D01*
X18636344Y53889424D01*
X18399559Y53987503D01*
X18128641Y53987503D01*
X17878344Y53883827D01*
X17686776Y53692259D01*
X17583100Y53441962D01*
X15710519Y53441962D01*
X15625756Y53526725D01*
X15375459Y53630401D01*
X15104541Y53630401D01*
X14854244Y53526725D01*
X14662676Y53335157D01*
X14559000Y53084860D01*
X9521426Y53084860D01*
X9571000Y53204541D01*
X9571000Y53475459D01*
X9467324Y53725756D01*
X9275756Y53917324D01*
X9025459Y54021000D01*
X8754541Y54021000D01*
X8504244Y53917324D01*
X8312676Y53725756D01*
X8209000Y53475459D01*
X456000Y53475459D01*
X456000Y54628056D01*
X19639000Y54628056D01*
X19639000Y54357138D01*
X19742676Y54106841D01*
X19934244Y53915273D01*
X20184541Y53811597D01*
X20455459Y53811597D01*
X20705756Y53915273D01*
X20829532Y54039049D01*
X22179000Y54039049D01*
X22179000Y53768131D01*
X22282676Y53517834D01*
X22474244Y53326266D01*
X22724541Y53222590D01*
X22995459Y53222590D01*
X23245756Y53326266D01*
X23436299Y53516809D01*
X23626841Y53326266D01*
X23877138Y53222590D01*
X24148056Y53222590D01*
X24388799Y53322308D01*
X24629541Y53222590D01*
X24900459Y53222590D01*
X25150756Y53326266D01*
X25299949Y53475459D01*
X50119000Y53475459D01*
X50119000Y53204541D01*
X50222676Y52954244D01*
X50414244Y52762676D01*
X50664541Y52659000D01*
X50935459Y52659000D01*
X51185756Y52762676D01*
X51263539Y52840459D01*
X58374000Y52840459D01*
X58374000Y52569541D01*
X58477676Y52319244D01*
X58669244Y52127676D01*
X58919541Y52024000D01*
X59190459Y52024000D01*
X59440756Y52127676D01*
X59632324Y52319244D01*
X59736000Y52569541D01*
X59736000Y52840459D01*
X59632324Y53090756D01*
X59440756Y53282324D01*
X59190459Y53386000D01*
X58919541Y53386000D01*
X58669244Y53282324D01*
X58477676Y53090756D01*
X58374000Y52840459D01*
X51263539Y52840459D01*
X51377324Y52954244D01*
X51481000Y53204541D01*
X51481000Y53475459D01*
X51377324Y53725756D01*
X51185756Y53917324D01*
X50935459Y54021000D01*
X50664541Y54021000D01*
X50414244Y53917324D01*
X50222676Y53725756D01*
X50119000Y53475459D01*
X25299949Y53475459D01*
X25342324Y53517834D01*
X25446000Y53768131D01*
X25446000Y54039049D01*
X25416422Y54110459D01*
X53294000Y54110459D01*
X53294000Y53839541D01*
X53397676Y53589244D01*
X53589244Y53397676D01*
X53839541Y53294000D01*
X54110459Y53294000D01*
X54360756Y53397676D01*
X54438539Y53475459D01*
X60914000Y53475459D01*
X60914000Y53204541D01*
X61017676Y52954244D01*
X61209244Y52762676D01*
X61459541Y52659000D01*
X61730459Y52659000D01*
X61980756Y52762676D01*
X62172324Y52954244D01*
X62276000Y53204541D01*
X62276000Y53475459D01*
X62172324Y53725756D01*
X61980756Y53917324D01*
X61730459Y54021000D01*
X61459541Y54021000D01*
X61209244Y53917324D01*
X61017676Y53725756D01*
X60914000Y53475459D01*
X54438539Y53475459D01*
X54552324Y53589244D01*
X54656000Y53839541D01*
X54656000Y54110459D01*
X54552324Y54360756D01*
X54360756Y54552324D01*
X54110459Y54656000D01*
X53839541Y54656000D01*
X53589244Y54552324D01*
X53397676Y54360756D01*
X53294000Y54110459D01*
X25416422Y54110459D01*
X25342324Y54289346D01*
X25150756Y54480914D01*
X24900459Y54584590D01*
X24629541Y54584590D01*
X24388799Y54484872D01*
X24148056Y54584590D01*
X23877138Y54584590D01*
X23626841Y54480914D01*
X23436299Y54290372D01*
X23245756Y54480914D01*
X22995459Y54584590D01*
X22724541Y54584590D01*
X22474244Y54480914D01*
X22282676Y54289346D01*
X22179000Y54039049D01*
X20829532Y54039049D01*
X20897324Y54106841D01*
X21001000Y54357138D01*
X21001000Y54628056D01*
X20897324Y54878353D01*
X20705756Y55069921D01*
X20455459Y55173597D01*
X20184541Y55173597D01*
X19934244Y55069921D01*
X19742676Y54878353D01*
X19639000Y54628056D01*
X456000Y54628056D01*
X456000Y55380459D01*
X31704000Y55380459D01*
X31704000Y55109541D01*
X31807676Y54859244D01*
X31999244Y54667676D01*
X32249541Y54564000D01*
X32520459Y54564000D01*
X32770756Y54667676D01*
X32962324Y54859244D01*
X33066000Y55109541D01*
X33066000Y55380459D01*
X32962324Y55630756D01*
X32770756Y55822324D01*
X32520459Y55926000D01*
X32249541Y55926000D01*
X31999244Y55822324D01*
X31807676Y55630756D01*
X31704000Y55380459D01*
X456000Y55380459D01*
X456000Y56650459D01*
X4399000Y56650459D01*
X4399000Y56379541D01*
X4502676Y56129244D01*
X4694244Y55937676D01*
X4944541Y55834000D01*
X5215459Y55834000D01*
X5465756Y55937676D01*
X5657324Y56129244D01*
X5761000Y56379541D01*
X5761000Y56650459D01*
X7574000Y56650459D01*
X7574000Y56379541D01*
X7677676Y56129244D01*
X7869244Y55937676D01*
X8119541Y55834000D01*
X8390459Y55834000D01*
X8640756Y55937676D01*
X8832324Y56129244D01*
X8936000Y56379541D01*
X8936000Y56650459D01*
X8883468Y56777285D01*
X19581417Y56777285D01*
X19581417Y56506367D01*
X19685093Y56256070D01*
X19876661Y56064502D01*
X20126958Y55960826D01*
X20397876Y55960826D01*
X20648173Y56064502D01*
X20839741Y56256070D01*
X20943417Y56506367D01*
X20943417Y56777285D01*
X20839741Y57027582D01*
X20648173Y57219150D01*
X20488089Y57285459D01*
X22814000Y57285459D01*
X22814000Y57014541D01*
X22917676Y56764244D01*
X23109244Y56572676D01*
X23359541Y56469000D01*
X23630459Y56469000D01*
X23880756Y56572676D01*
X24072324Y56764244D01*
X24176000Y57014541D01*
X24176000Y57104000D01*
X24265459Y57104000D01*
X24515756Y57207676D01*
X24707324Y57399244D01*
X24811000Y57649541D01*
X24811000Y57920459D01*
X24707324Y58170756D01*
X24515756Y58362324D01*
X24265459Y58466000D01*
X23994541Y58466000D01*
X23744244Y58362324D01*
X23552676Y58170756D01*
X23449000Y57920459D01*
X23449000Y57831000D01*
X23359541Y57831000D01*
X23109244Y57727324D01*
X22917676Y57535756D01*
X22814000Y57285459D01*
X20488089Y57285459D01*
X20397876Y57322826D01*
X20126958Y57322826D01*
X19876661Y57219150D01*
X19685093Y57027582D01*
X19581417Y56777285D01*
X8883468Y56777285D01*
X8832324Y56900756D01*
X8640756Y57092324D01*
X8390459Y57196000D01*
X8119541Y57196000D01*
X7869244Y57092324D01*
X7677676Y56900756D01*
X7574000Y56650459D01*
X5761000Y56650459D01*
X5657324Y56900756D01*
X5465756Y57092324D01*
X5215459Y57196000D01*
X4944541Y57196000D01*
X4694244Y57092324D01*
X4502676Y56900756D01*
X4399000Y56650459D01*
X456000Y56650459D01*
X456000Y58560259D01*
X24719000Y58560259D01*
X24719000Y58289341D01*
X24822676Y58039044D01*
X25014244Y57847476D01*
X25264541Y57743800D01*
X25535459Y57743800D01*
X25785756Y57847476D01*
X25977324Y58039044D01*
X26034006Y58175887D01*
X26092676Y58034244D01*
X26284244Y57842676D01*
X26534541Y57739000D01*
X26805459Y57739000D01*
X27055756Y57842676D01*
X27247324Y58034244D01*
X27351000Y58284541D01*
X27351000Y58516550D01*
X27563756Y58604676D01*
X27755324Y58796244D01*
X27859000Y59046541D01*
X27859000Y59263000D01*
X28075459Y59263000D01*
X28325756Y59366676D01*
X28517324Y59558244D01*
X28621000Y59808541D01*
X28621000Y60079459D01*
X28517324Y60329756D01*
X28386621Y60460459D01*
X35514000Y60460459D01*
X35514000Y60189541D01*
X35617676Y59939244D01*
X35809244Y59747676D01*
X36059541Y59644000D01*
X36330459Y59644000D01*
X36580756Y59747676D01*
X36772324Y59939244D01*
X36876000Y60189541D01*
X36876000Y60460459D01*
X41864000Y60460459D01*
X41864000Y60189541D01*
X41967676Y59939244D01*
X42159244Y59747676D01*
X42409541Y59644000D01*
X42680459Y59644000D01*
X42930756Y59747676D01*
X43008539Y59825459D01*
X72981822Y59825459D01*
X72981822Y59554541D01*
X73085498Y59304244D01*
X73277066Y59112676D01*
X73527363Y59009000D01*
X73798281Y59009000D01*
X74048578Y59112676D01*
X74240146Y59304244D01*
X74343822Y59554541D01*
X74343822Y59825459D01*
X74240146Y60075756D01*
X74048578Y60267324D01*
X73798281Y60371000D01*
X73527363Y60371000D01*
X73277066Y60267324D01*
X73085498Y60075756D01*
X72981822Y59825459D01*
X43008539Y59825459D01*
X43122324Y59939244D01*
X43226000Y60189541D01*
X43226000Y60460459D01*
X43122324Y60710756D01*
X42930756Y60902324D01*
X42680459Y61006000D01*
X42409541Y61006000D01*
X42159244Y60902324D01*
X41967676Y60710756D01*
X41864000Y60460459D01*
X36876000Y60460459D01*
X36844489Y60536534D01*
X36938073Y60762468D01*
X36938073Y60851927D01*
X37027532Y60851927D01*
X37253466Y60945511D01*
X37329541Y60914000D01*
X37600459Y60914000D01*
X37782500Y60989404D01*
X37964541Y60914000D01*
X38235459Y60914000D01*
X38485756Y61017676D01*
X38563539Y61095459D01*
X53294000Y61095459D01*
X53294000Y60824541D01*
X53397676Y60574244D01*
X53589244Y60382676D01*
X53839541Y60279000D01*
X54110459Y60279000D01*
X54360756Y60382676D01*
X54552324Y60574244D01*
X54656000Y60824541D01*
X54656000Y61095459D01*
X54552324Y61345756D01*
X54360756Y61537324D01*
X54110459Y61641000D01*
X53839541Y61641000D01*
X53589244Y61537324D01*
X53397676Y61345756D01*
X53294000Y61095459D01*
X38563539Y61095459D01*
X38677324Y61209244D01*
X38781000Y61459541D01*
X38781000Y61730459D01*
X55199000Y61730459D01*
X55199000Y61459541D01*
X55274404Y61277500D01*
X55199000Y61095459D01*
X55199000Y60824541D01*
X55302676Y60574244D01*
X55494244Y60382676D01*
X55744541Y60279000D01*
X56015459Y60279000D01*
X56265756Y60382676D01*
X56457324Y60574244D01*
X56561000Y60824541D01*
X56561000Y61095459D01*
X56485596Y61277500D01*
X56561000Y61459541D01*
X56561000Y61549000D01*
X56650459Y61549000D01*
X56832500Y61624404D01*
X57014541Y61549000D01*
X57104000Y61549000D01*
X57104000Y61459541D01*
X57207676Y61209244D01*
X57399244Y61017676D01*
X57649541Y60914000D01*
X57920459Y60914000D01*
X58170756Y61017676D01*
X58362324Y61209244D01*
X58466000Y61459541D01*
X58466000Y61730459D01*
X58362324Y61980756D01*
X58170756Y62172324D01*
X57920459Y62276000D01*
X57831000Y62276000D01*
X57831000Y62365459D01*
X57727324Y62615756D01*
X57535756Y62807324D01*
X57285459Y62911000D01*
X57014541Y62911000D01*
X56832500Y62835596D01*
X56650459Y62911000D01*
X56379541Y62911000D01*
X56129244Y62807324D01*
X55937676Y62615756D01*
X55834000Y62365459D01*
X55834000Y62276000D01*
X55744541Y62276000D01*
X55494244Y62172324D01*
X55302676Y61980756D01*
X55199000Y61730459D01*
X38781000Y61730459D01*
X38677324Y61980756D01*
X38485756Y62172324D01*
X38235459Y62276000D01*
X37964541Y62276000D01*
X37782500Y62200596D01*
X37600459Y62276000D01*
X37329541Y62276000D01*
X37103607Y62182416D01*
X37027532Y62213927D01*
X36756614Y62213927D01*
X36506317Y62110251D01*
X36314749Y61918683D01*
X36211073Y61668386D01*
X36211073Y61578927D01*
X36121614Y61578927D01*
X35871317Y61475251D01*
X35679749Y61283683D01*
X35576073Y61033386D01*
X35576073Y60762468D01*
X35607584Y60686393D01*
X35514000Y60460459D01*
X28386621Y60460459D01*
X28325756Y60521324D01*
X28075459Y60625000D01*
X27804541Y60625000D01*
X27554244Y60521324D01*
X27362676Y60329756D01*
X27259000Y60079459D01*
X27259000Y59863000D01*
X27042541Y59863000D01*
X26792244Y59759324D01*
X26600676Y59567756D01*
X26497000Y59317459D01*
X26497000Y59085450D01*
X26284244Y58997324D01*
X26092676Y58805756D01*
X26035994Y58668913D01*
X25977324Y58810556D01*
X25785756Y59002124D01*
X25535459Y59105800D01*
X25264541Y59105800D01*
X25014244Y59002124D01*
X24822676Y58810556D01*
X24719000Y58560259D01*
X456000Y58560259D01*
X456000Y61095459D01*
X15194000Y61095459D01*
X15194000Y60824541D01*
X15297676Y60574244D01*
X15489244Y60382676D01*
X15739541Y60279000D01*
X16010459Y60279000D01*
X16260756Y60382676D01*
X16452324Y60574244D01*
X16556000Y60824541D01*
X16556000Y61095459D01*
X16452324Y61345756D01*
X16260756Y61537324D01*
X16101092Y61603459D01*
X23957000Y61603459D01*
X23957000Y61332541D01*
X24060676Y61082244D01*
X24252244Y60890676D01*
X24502541Y60787000D01*
X24773459Y60787000D01*
X25023756Y60890676D01*
X25215324Y61082244D01*
X25319000Y61332541D01*
X25319000Y61603459D01*
X25215324Y61853756D01*
X25023756Y62045324D01*
X24773459Y62149000D01*
X24502541Y62149000D01*
X24252244Y62045324D01*
X24060676Y61853756D01*
X23957000Y61603459D01*
X16101092Y61603459D01*
X16010459Y61641000D01*
X15739541Y61641000D01*
X15489244Y61537324D01*
X15297676Y61345756D01*
X15194000Y61095459D01*
X456000Y61095459D01*
X456000Y63000459D01*
X16317048Y63000459D01*
X16317048Y62729541D01*
X16420724Y62479244D01*
X16612292Y62287676D01*
X16862589Y62184000D01*
X17133507Y62184000D01*
X17383804Y62287676D01*
X17575372Y62479244D01*
X17679048Y62729541D01*
X17679048Y63000459D01*
X17575372Y63250756D01*
X17383804Y63442324D01*
X17133507Y63546000D01*
X16862589Y63546000D01*
X16612292Y63442324D01*
X16420724Y63250756D01*
X16317048Y63000459D01*
X456000Y63000459D01*
X456000Y66555000D01*
X3541536Y66555000D01*
X3541536Y64255000D01*
X3571106Y64106341D01*
X3655314Y63980314D01*
X3781341Y63896106D01*
X3930000Y63866536D01*
X6230000Y63866536D01*
X6378659Y63896106D01*
X6504686Y63980314D01*
X6588894Y64106341D01*
X6616203Y64243636D01*
X6752758Y64107081D01*
X7315465Y63874000D01*
X7924535Y63874000D01*
X8330641Y64042215D01*
X27030756Y64042215D01*
X27030756Y63771297D01*
X27134432Y63521000D01*
X27326000Y63329432D01*
X27576297Y63225756D01*
X27847215Y63225756D01*
X28097512Y63329432D01*
X28289080Y63521000D01*
X28392756Y63771297D01*
X28392756Y64042215D01*
X28289080Y64292512D01*
X28097512Y64484080D01*
X27847215Y64587756D01*
X27576297Y64587756D01*
X27326000Y64484080D01*
X27134432Y64292512D01*
X27030756Y64042215D01*
X8330641Y64042215D01*
X8487242Y64107081D01*
X8917919Y64537758D01*
X9070683Y64906564D01*
X20190050Y64906564D01*
X20190050Y64635646D01*
X20293726Y64385349D01*
X20485294Y64193781D01*
X20735591Y64090105D01*
X21006509Y64090105D01*
X21256806Y64193781D01*
X21448374Y64385349D01*
X21552050Y64635646D01*
X21552050Y64905459D01*
X34879000Y64905459D01*
X34879000Y64634541D01*
X34982676Y64384244D01*
X35174244Y64192676D01*
X35424541Y64089000D01*
X35695459Y64089000D01*
X35945756Y64192676D01*
X36137324Y64384244D01*
X36142797Y64397459D01*
X36403000Y64397459D01*
X36403000Y64126541D01*
X36506676Y63876244D01*
X36698244Y63684676D01*
X36948541Y63581000D01*
X37219459Y63581000D01*
X37469756Y63684676D01*
X37661324Y63876244D01*
X37765000Y64126541D01*
X37765000Y64397459D01*
X37661324Y64647756D01*
X37469756Y64839324D01*
X37219459Y64943000D01*
X36948541Y64943000D01*
X36698244Y64839324D01*
X36506676Y64647756D01*
X36403000Y64397459D01*
X36142797Y64397459D01*
X36241000Y64634541D01*
X36241000Y64905459D01*
X36137324Y65155756D01*
X35945756Y65347324D01*
X35695459Y65451000D01*
X35424541Y65451000D01*
X35174244Y65347324D01*
X34982676Y65155756D01*
X34879000Y64905459D01*
X21552050Y64905459D01*
X21552050Y64906564D01*
X21448374Y65156861D01*
X21256806Y65348429D01*
X21006509Y65452105D01*
X20735591Y65452105D01*
X20485294Y65348429D01*
X20293726Y65156861D01*
X20190050Y64906564D01*
X9070683Y64906564D01*
X9151000Y65100465D01*
X9151000Y65709535D01*
X8958008Y66175459D01*
X17734000Y66175459D01*
X17734000Y65904541D01*
X17837676Y65654244D01*
X18029244Y65462676D01*
X18279541Y65359000D01*
X18550459Y65359000D01*
X18800756Y65462676D01*
X18992324Y65654244D01*
X19075308Y65854587D01*
X36759652Y65854587D01*
X36759652Y65583669D01*
X36863328Y65333372D01*
X37054896Y65141804D01*
X37305193Y65038128D01*
X37576111Y65038128D01*
X37826408Y65141804D01*
X38017976Y65333372D01*
X38121652Y65583669D01*
X38121652Y65854587D01*
X38017976Y66104884D01*
X37826408Y66296452D01*
X37576111Y66400128D01*
X37305193Y66400128D01*
X37054896Y66296452D01*
X36863328Y66104884D01*
X36759652Y65854587D01*
X19075308Y65854587D01*
X19096000Y65904541D01*
X19096000Y66175459D01*
X18992324Y66425756D01*
X18800756Y66617324D01*
X18550459Y66721000D01*
X18279541Y66721000D01*
X18029244Y66617324D01*
X17837676Y66425756D01*
X17734000Y66175459D01*
X8958008Y66175459D01*
X8917919Y66272242D01*
X8487242Y66702919D01*
X7924535Y66936000D01*
X7315465Y66936000D01*
X6752758Y66702919D01*
X6616203Y66566364D01*
X6588894Y66703659D01*
X6504686Y66829686D01*
X6378659Y66913894D01*
X6230000Y66943464D01*
X3930000Y66943464D01*
X3781341Y66913894D01*
X3655314Y66829686D01*
X3571106Y66703659D01*
X3541536Y66555000D01*
X456000Y66555000D01*
X456000Y68160000D01*
X32416536Y68160000D01*
X32416536Y66460000D01*
X32446106Y66311341D01*
X32530314Y66185314D01*
X32656341Y66101106D01*
X32805000Y66071536D01*
X34505000Y66071536D01*
X34653659Y66101106D01*
X34779686Y66185314D01*
X34863894Y66311341D01*
X34893464Y66460000D01*
X34893464Y67310000D01*
X37479884Y67310000D01*
X37575424Y66829688D01*
X37847499Y66422499D01*
X38254688Y66150424D01*
X38613761Y66079000D01*
X38856239Y66079000D01*
X39215312Y66150424D01*
X39622501Y66422499D01*
X39894576Y66829688D01*
X39990116Y67310000D01*
X40019884Y67310000D01*
X40115424Y66829688D01*
X40387499Y66422499D01*
X40794688Y66150424D01*
X41153761Y66079000D01*
X41396239Y66079000D01*
X41755312Y66150424D01*
X42162501Y66422499D01*
X42434576Y66829688D01*
X42530116Y67310000D01*
X42559884Y67310000D01*
X42655424Y66829688D01*
X42927499Y66422499D01*
X43334688Y66150424D01*
X43693761Y66079000D01*
X43936239Y66079000D01*
X44295312Y66150424D01*
X44702501Y66422499D01*
X44974576Y66829688D01*
X45070116Y67310000D01*
X45099884Y67310000D01*
X45195424Y66829688D01*
X45467499Y66422499D01*
X45874688Y66150424D01*
X46233761Y66079000D01*
X46476239Y66079000D01*
X46835312Y66150424D01*
X47242501Y66422499D01*
X47514576Y66829688D01*
X47610116Y67310000D01*
X47514576Y67790312D01*
X47242501Y68197501D01*
X46835312Y68469576D01*
X46476239Y68541000D01*
X46233761Y68541000D01*
X45874688Y68469576D01*
X45467499Y68197501D01*
X45195424Y67790312D01*
X45099884Y67310000D01*
X45070116Y67310000D01*
X44974576Y67790312D01*
X44702501Y68197501D01*
X44295312Y68469576D01*
X43936239Y68541000D01*
X43693761Y68541000D01*
X43334688Y68469576D01*
X42927499Y68197501D01*
X42655424Y67790312D01*
X42559884Y67310000D01*
X42530116Y67310000D01*
X42434576Y67790312D01*
X42162501Y68197501D01*
X41755312Y68469576D01*
X41396239Y68541000D01*
X41153761Y68541000D01*
X40794688Y68469576D01*
X40387499Y68197501D01*
X40115424Y67790312D01*
X40019884Y67310000D01*
X39990116Y67310000D01*
X39894576Y67790312D01*
X39622501Y68197501D01*
X39215312Y68469576D01*
X38856239Y68541000D01*
X38613761Y68541000D01*
X38254688Y68469576D01*
X37847499Y68197501D01*
X37575424Y67790312D01*
X37479884Y67310000D01*
X34893464Y67310000D01*
X34893464Y68160000D01*
X34863894Y68308659D01*
X34779686Y68434686D01*
X34653659Y68518894D01*
X34505000Y68548464D01*
X32805000Y68548464D01*
X32656341Y68518894D01*
X32530314Y68434686D01*
X32446106Y68308659D01*
X32416536Y68160000D01*
X456000Y68160000D01*
X456000Y71544000D01*
X79544000Y71544000D01*
X79544000Y50292000D01*
X79544000Y50292000D01*
G37*
X79544000Y50292000D02*
X31570080Y50292000D01*
X31692324Y50414244D01*
X31796000Y50664541D01*
X31796000Y50935459D01*
X31692324Y51185756D01*
X31500756Y51377324D01*
X31250459Y51481000D01*
X30979541Y51481000D01*
X30729244Y51377324D01*
X30537676Y51185756D01*
X30434000Y50935459D01*
X30434000Y50664541D01*
X30537676Y50414244D01*
X30659920Y50292000D01*
X20955000Y50292000D01*
X20906399Y50282333D01*
X20865197Y50254803D01*
X20837667Y50213601D01*
X20828000Y50165000D01*
X20828000Y20682638D01*
X20779859Y20798861D01*
X20278856Y21299864D01*
X19624263Y21571005D01*
X18915737Y21571005D01*
X18261144Y21299864D01*
X17760141Y20798861D01*
X17489000Y20144268D01*
X17489000Y19435742D01*
X17760141Y18781149D01*
X18261144Y18280146D01*
X18915737Y18009005D01*
X19624263Y18009005D01*
X20278856Y18280146D01*
X20779859Y18781149D01*
X20828000Y18897372D01*
X20828000Y15002638D01*
X20779859Y15118861D01*
X20278856Y15619864D01*
X19624263Y15891005D01*
X18915737Y15891005D01*
X18261144Y15619864D01*
X17760141Y15118861D01*
X17489000Y14464268D01*
X17489000Y13755742D01*
X17760141Y13101149D01*
X18261144Y12600146D01*
X18915737Y12329005D01*
X19624263Y12329005D01*
X20278856Y12600146D01*
X20779859Y13101149D01*
X20828000Y13217372D01*
X20828000Y456000D01*
X456000Y456000D01*
X456000Y14464268D01*
X4349000Y14464268D01*
X4349000Y13755742D01*
X4620141Y13101149D01*
X5121144Y12600146D01*
X5775737Y12329005D01*
X6484263Y12329005D01*
X7138856Y12600146D01*
X7639859Y13101149D01*
X7911000Y13755742D01*
X7911000Y14464268D01*
X7639859Y15118861D01*
X7138856Y15619864D01*
X6484263Y15891005D01*
X5775737Y15891005D01*
X5121144Y15619864D01*
X4620141Y15118861D01*
X4349000Y14464268D01*
X456000Y14464268D01*
X456000Y17037018D01*
X8109000Y17037018D01*
X8109000Y16602992D01*
X8275095Y16202003D01*
X8581998Y15895100D01*
X8982987Y15729005D01*
X9417013Y15729005D01*
X9818002Y15895100D01*
X10124905Y16202003D01*
X10291000Y16602992D01*
X10291000Y17037018D01*
X10609000Y17037018D01*
X10609000Y16602992D01*
X10775095Y16202003D01*
X11081998Y15895100D01*
X11482987Y15729005D01*
X11917013Y15729005D01*
X12318002Y15895100D01*
X12624905Y16202003D01*
X12700000Y16383298D01*
X12775095Y16202003D01*
X13081998Y15895100D01*
X13482987Y15729005D01*
X13917013Y15729005D01*
X14318002Y15895100D01*
X14624905Y16202003D01*
X14791000Y16602992D01*
X14791000Y17037018D01*
X15109000Y17037018D01*
X15109000Y16602992D01*
X15275095Y16202003D01*
X15581998Y15895100D01*
X15982987Y15729005D01*
X16417013Y15729005D01*
X16818002Y15895100D01*
X17124905Y16202003D01*
X17291000Y16602992D01*
X17291000Y17037018D01*
X17124905Y17438007D01*
X16818002Y17744910D01*
X16417013Y17911005D01*
X15982987Y17911005D01*
X15581998Y17744910D01*
X15275095Y17438007D01*
X15109000Y17037018D01*
X14791000Y17037018D01*
X14624905Y17438007D01*
X14318002Y17744910D01*
X13917013Y17911005D01*
X13482987Y17911005D01*
X13081998Y17744910D01*
X12775095Y17438007D01*
X12700000Y17256712D01*
X12624905Y17438007D01*
X12318002Y17744910D01*
X11917013Y17911005D01*
X11482987Y17911005D01*
X11081998Y17744910D01*
X10775095Y17438007D01*
X10609000Y17037018D01*
X10291000Y17037018D01*
X10124905Y17438007D01*
X9818002Y17744910D01*
X9417013Y17911005D01*
X8982987Y17911005D01*
X8581998Y17744910D01*
X8275095Y17438007D01*
X8109000Y17037018D01*
X456000Y17037018D01*
X456000Y20144268D01*
X4349000Y20144268D01*
X4349000Y19435742D01*
X4620141Y18781149D01*
X5121144Y18280146D01*
X5775737Y18009005D01*
X6484263Y18009005D01*
X7138856Y18280146D01*
X7639859Y18781149D01*
X7911000Y19435742D01*
X7911000Y19657018D01*
X8109000Y19657018D01*
X8109000Y19222992D01*
X8275095Y18822003D01*
X8581998Y18515100D01*
X8982987Y18349005D01*
X9417013Y18349005D01*
X9818002Y18515100D01*
X10124905Y18822003D01*
X10291000Y19222992D01*
X10291000Y19657018D01*
X10609000Y19657018D01*
X10609000Y19222992D01*
X10775095Y18822003D01*
X11081998Y18515100D01*
X11482987Y18349005D01*
X11917013Y18349005D01*
X12318002Y18515100D01*
X12624905Y18822003D01*
X12700000Y19003298D01*
X12775095Y18822003D01*
X13081998Y18515100D01*
X13482987Y18349005D01*
X13917013Y18349005D01*
X14318002Y18515100D01*
X14624905Y18822003D01*
X14791000Y19222992D01*
X14791000Y19657018D01*
X15109000Y19657018D01*
X15109000Y19222992D01*
X15275095Y18822003D01*
X15581998Y18515100D01*
X15982987Y18349005D01*
X16417013Y18349005D01*
X16818002Y18515100D01*
X17124905Y18822003D01*
X17291000Y19222992D01*
X17291000Y19657018D01*
X17124905Y20058007D01*
X16818002Y20364910D01*
X16417013Y20531005D01*
X15982987Y20531005D01*
X15581998Y20364910D01*
X15275095Y20058007D01*
X15109000Y19657018D01*
X14791000Y19657018D01*
X14624905Y20058007D01*
X14318002Y20364910D01*
X13917013Y20531005D01*
X13482987Y20531005D01*
X13081998Y20364910D01*
X12775095Y20058007D01*
X12700000Y19876712D01*
X12624905Y20058007D01*
X12318002Y20364910D01*
X11917013Y20531005D01*
X11482987Y20531005D01*
X11081998Y20364910D01*
X10775095Y20058007D01*
X10609000Y19657018D01*
X10291000Y19657018D01*
X10124905Y20058007D01*
X9818002Y20364910D01*
X9417013Y20531005D01*
X8982987Y20531005D01*
X8581998Y20364910D01*
X8275095Y20058007D01*
X8109000Y19657018D01*
X7911000Y19657018D01*
X7911000Y20144268D01*
X7639859Y20798861D01*
X7138856Y21299864D01*
X6484263Y21571005D01*
X5775737Y21571005D01*
X5121144Y21299864D01*
X4620141Y20798861D01*
X4349000Y20144268D01*
X456000Y20144268D01*
X456000Y24265459D01*
X18369000Y24265459D01*
X18369000Y23994541D01*
X18472676Y23744244D01*
X18664244Y23552676D01*
X18914541Y23449000D01*
X19185459Y23449000D01*
X19435756Y23552676D01*
X19627324Y23744244D01*
X19731000Y23994541D01*
X19731000Y24265459D01*
X19627324Y24515756D01*
X19435756Y24707324D01*
X19185459Y24811000D01*
X18914541Y24811000D01*
X18664244Y24707324D01*
X18472676Y24515756D01*
X18369000Y24265459D01*
X456000Y24265459D01*
X456000Y26170459D01*
X14559000Y26170459D01*
X14559000Y25899541D01*
X14662676Y25649244D01*
X14854244Y25457676D01*
X15104541Y25354000D01*
X15375459Y25354000D01*
X15625756Y25457676D01*
X15817324Y25649244D01*
X15921000Y25899541D01*
X15921000Y26170459D01*
X15817324Y26420756D01*
X15625756Y26612324D01*
X15375459Y26716000D01*
X15104541Y26716000D01*
X14854244Y26612324D01*
X14662676Y26420756D01*
X14559000Y26170459D01*
X456000Y26170459D01*
X456000Y35060459D01*
X15829000Y35060459D01*
X15829000Y34789541D01*
X15932676Y34539244D01*
X16124244Y34347676D01*
X16374541Y34244000D01*
X16645459Y34244000D01*
X16895756Y34347676D01*
X17087324Y34539244D01*
X17191000Y34789541D01*
X17191000Y35060459D01*
X17087324Y35310756D01*
X16895756Y35502324D01*
X16645459Y35606000D01*
X16374541Y35606000D01*
X16124244Y35502324D01*
X15932676Y35310756D01*
X15829000Y35060459D01*
X456000Y35060459D01*
X456000Y37600459D01*
X17734000Y37600459D01*
X17734000Y37329541D01*
X17837676Y37079244D01*
X18029244Y36887676D01*
X18279541Y36784000D01*
X18550459Y36784000D01*
X18800756Y36887676D01*
X18992324Y37079244D01*
X19096000Y37329541D01*
X19096000Y37600459D01*
X18992324Y37850756D01*
X18800756Y38042324D01*
X18550459Y38146000D01*
X18279541Y38146000D01*
X18029244Y38042324D01*
X17837676Y37850756D01*
X17734000Y37600459D01*
X456000Y37600459D01*
X456000Y43950459D01*
X17734000Y43950459D01*
X17734000Y43679541D01*
X17837676Y43429244D01*
X18029244Y43237676D01*
X18279541Y43134000D01*
X18550459Y43134000D01*
X18800756Y43237676D01*
X18992324Y43429244D01*
X19096000Y43679541D01*
X19096000Y43950459D01*
X18992324Y44200756D01*
X18800756Y44392324D01*
X18550459Y44496000D01*
X18279541Y44496000D01*
X18029244Y44392324D01*
X17837676Y44200756D01*
X17734000Y43950459D01*
X456000Y43950459D01*
X456000Y47760459D01*
X15194000Y47760459D01*
X15194000Y47489541D01*
X15297676Y47239244D01*
X15489244Y47047676D01*
X15739541Y46944000D01*
X16010459Y46944000D01*
X16260756Y47047676D01*
X16452324Y47239244D01*
X16556000Y47489541D01*
X16556000Y47760459D01*
X16452324Y48010756D01*
X16260756Y48202324D01*
X16010459Y48306000D01*
X15739541Y48306000D01*
X15489244Y48202324D01*
X15297676Y48010756D01*
X15194000Y47760459D01*
X456000Y47760459D01*
X456000Y48395459D01*
X17099000Y48395459D01*
X17099000Y48124541D01*
X17202676Y47874244D01*
X17394244Y47682676D01*
X17644541Y47579000D01*
X17915459Y47579000D01*
X18165756Y47682676D01*
X18357324Y47874244D01*
X18461000Y48124541D01*
X18461000Y48395459D01*
X18357324Y48645756D01*
X18165756Y48837324D01*
X17915459Y48941000D01*
X17644541Y48941000D01*
X17394244Y48837324D01*
X17202676Y48645756D01*
X17099000Y48395459D01*
X456000Y48395459D01*
X456000Y53475459D01*
X8209000Y53475459D01*
X8209000Y53204541D01*
X8312676Y52954244D01*
X8504244Y52762676D01*
X8702188Y52680685D01*
X8621647Y52647324D01*
X8430079Y52455756D01*
X8326403Y52205459D01*
X8326403Y51934541D01*
X8430079Y51684244D01*
X8621647Y51492676D01*
X8871944Y51389000D01*
X9142862Y51389000D01*
X9266201Y51440089D01*
X9389541Y51389000D01*
X9660459Y51389000D01*
X9842500Y51464404D01*
X10024541Y51389000D01*
X10114000Y51389000D01*
X10114000Y51299541D01*
X10189404Y51117500D01*
X10114000Y50935459D01*
X10114000Y50664541D01*
X10189404Y50482500D01*
X10114000Y50300459D01*
X10114000Y50029541D01*
X10217676Y49779244D01*
X10409244Y49587676D01*
X10659541Y49484000D01*
X10930459Y49484000D01*
X11180756Y49587676D01*
X11372324Y49779244D01*
X11476000Y50029541D01*
X11476000Y50300459D01*
X12019000Y50300459D01*
X12019000Y50029541D01*
X12122676Y49779244D01*
X12314244Y49587676D01*
X12564541Y49484000D01*
X12835459Y49484000D01*
X13085756Y49587676D01*
X13277324Y49779244D01*
X13381000Y50029541D01*
X13381000Y50300459D01*
X13277324Y50550756D01*
X13085756Y50742324D01*
X12835459Y50846000D01*
X12564541Y50846000D01*
X12314244Y50742324D01*
X12122676Y50550756D01*
X12019000Y50300459D01*
X11476000Y50300459D01*
X11400596Y50482500D01*
X11476000Y50664541D01*
X11476000Y50935459D01*
X11400596Y51117500D01*
X11476000Y51299541D01*
X11476000Y51570459D01*
X14559000Y51570459D01*
X14559000Y51299541D01*
X14662676Y51049244D01*
X14854244Y50857676D01*
X15104541Y50754000D01*
X15375459Y50754000D01*
X15625756Y50857676D01*
X15817324Y51049244D01*
X15921000Y51299541D01*
X15921000Y51570459D01*
X15817324Y51820756D01*
X15625756Y52012324D01*
X15375459Y52116000D01*
X15104541Y52116000D01*
X14854244Y52012324D01*
X14662676Y51820756D01*
X14559000Y51570459D01*
X11476000Y51570459D01*
X11372324Y51820756D01*
X11180756Y52012324D01*
X10930459Y52116000D01*
X10841000Y52116000D01*
X10841000Y52205459D01*
X10737324Y52455756D01*
X10545756Y52647324D01*
X10295459Y52751000D01*
X10024541Y52751000D01*
X9842500Y52675596D01*
X9660459Y52751000D01*
X9389541Y52751000D01*
X9266202Y52699911D01*
X9195215Y52729315D01*
X9275756Y52762676D01*
X9467324Y52954244D01*
X9521426Y53084860D01*
X14559000Y53084860D01*
X14559000Y52813942D01*
X14662676Y52563645D01*
X14854244Y52372077D01*
X15104541Y52268401D01*
X15375459Y52268401D01*
X15625756Y52372077D01*
X15817324Y52563645D01*
X15921000Y52813942D01*
X15921000Y53084860D01*
X15817324Y53335157D01*
X15710519Y53441962D01*
X17583100Y53441962D01*
X17583100Y53171044D01*
X17686776Y52920747D01*
X17878344Y52729179D01*
X18128641Y52625503D01*
X18399559Y52625503D01*
X18649856Y52729179D01*
X18677756Y52757079D01*
X18914541Y52659000D01*
X19185459Y52659000D01*
X19435756Y52762676D01*
X19513539Y52840459D01*
X48849000Y52840459D01*
X48849000Y52569541D01*
X48952676Y52319244D01*
X49144244Y52127676D01*
X49394541Y52024000D01*
X49665459Y52024000D01*
X49915756Y52127676D01*
X50107324Y52319244D01*
X50211000Y52569541D01*
X50211000Y52840459D01*
X50107324Y53090756D01*
X49915756Y53282324D01*
X49665459Y53386000D01*
X49394541Y53386000D01*
X49144244Y53282324D01*
X48952676Y53090756D01*
X48849000Y52840459D01*
X19513539Y52840459D01*
X19627324Y52954244D01*
X19731000Y53204541D01*
X19731000Y53475459D01*
X19627324Y53725756D01*
X19435756Y53917324D01*
X19185459Y54021000D01*
X18914541Y54021000D01*
X18664244Y53917324D01*
X18636344Y53889424D01*
X18399559Y53987503D01*
X18128641Y53987503D01*
X17878344Y53883827D01*
X17686776Y53692259D01*
X17583100Y53441962D01*
X15710519Y53441962D01*
X15625756Y53526725D01*
X15375459Y53630401D01*
X15104541Y53630401D01*
X14854244Y53526725D01*
X14662676Y53335157D01*
X14559000Y53084860D01*
X9521426Y53084860D01*
X9571000Y53204541D01*
X9571000Y53475459D01*
X9467324Y53725756D01*
X9275756Y53917324D01*
X9025459Y54021000D01*
X8754541Y54021000D01*
X8504244Y53917324D01*
X8312676Y53725756D01*
X8209000Y53475459D01*
X456000Y53475459D01*
X456000Y54628056D01*
X19639000Y54628056D01*
X19639000Y54357138D01*
X19742676Y54106841D01*
X19934244Y53915273D01*
X20184541Y53811597D01*
X20455459Y53811597D01*
X20705756Y53915273D01*
X20829532Y54039049D01*
X22179000Y54039049D01*
X22179000Y53768131D01*
X22282676Y53517834D01*
X22474244Y53326266D01*
X22724541Y53222590D01*
X22995459Y53222590D01*
X23245756Y53326266D01*
X23436299Y53516809D01*
X23626841Y53326266D01*
X23877138Y53222590D01*
X24148056Y53222590D01*
X24388799Y53322308D01*
X24629541Y53222590D01*
X24900459Y53222590D01*
X25150756Y53326266D01*
X25299949Y53475459D01*
X50119000Y53475459D01*
X50119000Y53204541D01*
X50222676Y52954244D01*
X50414244Y52762676D01*
X50664541Y52659000D01*
X50935459Y52659000D01*
X51185756Y52762676D01*
X51263539Y52840459D01*
X58374000Y52840459D01*
X58374000Y52569541D01*
X58477676Y52319244D01*
X58669244Y52127676D01*
X58919541Y52024000D01*
X59190459Y52024000D01*
X59440756Y52127676D01*
X59632324Y52319244D01*
X59736000Y52569541D01*
X59736000Y52840459D01*
X59632324Y53090756D01*
X59440756Y53282324D01*
X59190459Y53386000D01*
X58919541Y53386000D01*
X58669244Y53282324D01*
X58477676Y53090756D01*
X58374000Y52840459D01*
X51263539Y52840459D01*
X51377324Y52954244D01*
X51481000Y53204541D01*
X51481000Y53475459D01*
X51377324Y53725756D01*
X51185756Y53917324D01*
X50935459Y54021000D01*
X50664541Y54021000D01*
X50414244Y53917324D01*
X50222676Y53725756D01*
X50119000Y53475459D01*
X25299949Y53475459D01*
X25342324Y53517834D01*
X25446000Y53768131D01*
X25446000Y54039049D01*
X25416422Y54110459D01*
X53294000Y54110459D01*
X53294000Y53839541D01*
X53397676Y53589244D01*
X53589244Y53397676D01*
X53839541Y53294000D01*
X54110459Y53294000D01*
X54360756Y53397676D01*
X54438539Y53475459D01*
X60914000Y53475459D01*
X60914000Y53204541D01*
X61017676Y52954244D01*
X61209244Y52762676D01*
X61459541Y52659000D01*
X61730459Y52659000D01*
X61980756Y52762676D01*
X62172324Y52954244D01*
X62276000Y53204541D01*
X62276000Y53475459D01*
X62172324Y53725756D01*
X61980756Y53917324D01*
X61730459Y54021000D01*
X61459541Y54021000D01*
X61209244Y53917324D01*
X61017676Y53725756D01*
X60914000Y53475459D01*
X54438539Y53475459D01*
X54552324Y53589244D01*
X54656000Y53839541D01*
X54656000Y54110459D01*
X54552324Y54360756D01*
X54360756Y54552324D01*
X54110459Y54656000D01*
X53839541Y54656000D01*
X53589244Y54552324D01*
X53397676Y54360756D01*
X53294000Y54110459D01*
X25416422Y54110459D01*
X25342324Y54289346D01*
X25150756Y54480914D01*
X24900459Y54584590D01*
X24629541Y54584590D01*
X24388799Y54484872D01*
X24148056Y54584590D01*
X23877138Y54584590D01*
X23626841Y54480914D01*
X23436299Y54290372D01*
X23245756Y54480914D01*
X22995459Y54584590D01*
X22724541Y54584590D01*
X22474244Y54480914D01*
X22282676Y54289346D01*
X22179000Y54039049D01*
X20829532Y54039049D01*
X20897324Y54106841D01*
X21001000Y54357138D01*
X21001000Y54628056D01*
X20897324Y54878353D01*
X20705756Y55069921D01*
X20455459Y55173597D01*
X20184541Y55173597D01*
X19934244Y55069921D01*
X19742676Y54878353D01*
X19639000Y54628056D01*
X456000Y54628056D01*
X456000Y55380459D01*
X31704000Y55380459D01*
X31704000Y55109541D01*
X31807676Y54859244D01*
X31999244Y54667676D01*
X32249541Y54564000D01*
X32520459Y54564000D01*
X32770756Y54667676D01*
X32962324Y54859244D01*
X33066000Y55109541D01*
X33066000Y55380459D01*
X32962324Y55630756D01*
X32770756Y55822324D01*
X32520459Y55926000D01*
X32249541Y55926000D01*
X31999244Y55822324D01*
X31807676Y55630756D01*
X31704000Y55380459D01*
X456000Y55380459D01*
X456000Y56650459D01*
X4399000Y56650459D01*
X4399000Y56379541D01*
X4502676Y56129244D01*
X4694244Y55937676D01*
X4944541Y55834000D01*
X5215459Y55834000D01*
X5465756Y55937676D01*
X5657324Y56129244D01*
X5761000Y56379541D01*
X5761000Y56650459D01*
X7574000Y56650459D01*
X7574000Y56379541D01*
X7677676Y56129244D01*
X7869244Y55937676D01*
X8119541Y55834000D01*
X8390459Y55834000D01*
X8640756Y55937676D01*
X8832324Y56129244D01*
X8936000Y56379541D01*
X8936000Y56650459D01*
X8883468Y56777285D01*
X19581417Y56777285D01*
X19581417Y56506367D01*
X19685093Y56256070D01*
X19876661Y56064502D01*
X20126958Y55960826D01*
X20397876Y55960826D01*
X20648173Y56064502D01*
X20839741Y56256070D01*
X20943417Y56506367D01*
X20943417Y56777285D01*
X20839741Y57027582D01*
X20648173Y57219150D01*
X20488089Y57285459D01*
X22814000Y57285459D01*
X22814000Y57014541D01*
X22917676Y56764244D01*
X23109244Y56572676D01*
X23359541Y56469000D01*
X23630459Y56469000D01*
X23880756Y56572676D01*
X24072324Y56764244D01*
X24176000Y57014541D01*
X24176000Y57104000D01*
X24265459Y57104000D01*
X24515756Y57207676D01*
X24707324Y57399244D01*
X24811000Y57649541D01*
X24811000Y57920459D01*
X24707324Y58170756D01*
X24515756Y58362324D01*
X24265459Y58466000D01*
X23994541Y58466000D01*
X23744244Y58362324D01*
X23552676Y58170756D01*
X23449000Y57920459D01*
X23449000Y57831000D01*
X23359541Y57831000D01*
X23109244Y57727324D01*
X22917676Y57535756D01*
X22814000Y57285459D01*
X20488089Y57285459D01*
X20397876Y57322826D01*
X20126958Y57322826D01*
X19876661Y57219150D01*
X19685093Y57027582D01*
X19581417Y56777285D01*
X8883468Y56777285D01*
X8832324Y56900756D01*
X8640756Y57092324D01*
X8390459Y57196000D01*
X8119541Y57196000D01*
X7869244Y57092324D01*
X7677676Y56900756D01*
X7574000Y56650459D01*
X5761000Y56650459D01*
X5657324Y56900756D01*
X5465756Y57092324D01*
X5215459Y57196000D01*
X4944541Y57196000D01*
X4694244Y57092324D01*
X4502676Y56900756D01*
X4399000Y56650459D01*
X456000Y56650459D01*
X456000Y58560259D01*
X24719000Y58560259D01*
X24719000Y58289341D01*
X24822676Y58039044D01*
X25014244Y57847476D01*
X25264541Y57743800D01*
X25535459Y57743800D01*
X25785756Y57847476D01*
X25977324Y58039044D01*
X26034006Y58175887D01*
X26092676Y58034244D01*
X26284244Y57842676D01*
X26534541Y57739000D01*
X26805459Y57739000D01*
X27055756Y57842676D01*
X27247324Y58034244D01*
X27351000Y58284541D01*
X27351000Y58516550D01*
X27563756Y58604676D01*
X27755324Y58796244D01*
X27859000Y59046541D01*
X27859000Y59263000D01*
X28075459Y59263000D01*
X28325756Y59366676D01*
X28517324Y59558244D01*
X28621000Y59808541D01*
X28621000Y60079459D01*
X28517324Y60329756D01*
X28386621Y60460459D01*
X35514000Y60460459D01*
X35514000Y60189541D01*
X35617676Y59939244D01*
X35809244Y59747676D01*
X36059541Y59644000D01*
X36330459Y59644000D01*
X36580756Y59747676D01*
X36772324Y59939244D01*
X36876000Y60189541D01*
X36876000Y60460459D01*
X41864000Y60460459D01*
X41864000Y60189541D01*
X41967676Y59939244D01*
X42159244Y59747676D01*
X42409541Y59644000D01*
X42680459Y59644000D01*
X42930756Y59747676D01*
X43008539Y59825459D01*
X72981822Y59825459D01*
X72981822Y59554541D01*
X73085498Y59304244D01*
X73277066Y59112676D01*
X73527363Y59009000D01*
X73798281Y59009000D01*
X74048578Y59112676D01*
X74240146Y59304244D01*
X74343822Y59554541D01*
X74343822Y59825459D01*
X74240146Y60075756D01*
X74048578Y60267324D01*
X73798281Y60371000D01*
X73527363Y60371000D01*
X73277066Y60267324D01*
X73085498Y60075756D01*
X72981822Y59825459D01*
X43008539Y59825459D01*
X43122324Y59939244D01*
X43226000Y60189541D01*
X43226000Y60460459D01*
X43122324Y60710756D01*
X42930756Y60902324D01*
X42680459Y61006000D01*
X42409541Y61006000D01*
X42159244Y60902324D01*
X41967676Y60710756D01*
X41864000Y60460459D01*
X36876000Y60460459D01*
X36844489Y60536534D01*
X36938073Y60762468D01*
X36938073Y60851927D01*
X37027532Y60851927D01*
X37253466Y60945511D01*
X37329541Y60914000D01*
X37600459Y60914000D01*
X37782500Y60989404D01*
X37964541Y60914000D01*
X38235459Y60914000D01*
X38485756Y61017676D01*
X38563539Y61095459D01*
X53294000Y61095459D01*
X53294000Y60824541D01*
X53397676Y60574244D01*
X53589244Y60382676D01*
X53839541Y60279000D01*
X54110459Y60279000D01*
X54360756Y60382676D01*
X54552324Y60574244D01*
X54656000Y60824541D01*
X54656000Y61095459D01*
X54552324Y61345756D01*
X54360756Y61537324D01*
X54110459Y61641000D01*
X53839541Y61641000D01*
X53589244Y61537324D01*
X53397676Y61345756D01*
X53294000Y61095459D01*
X38563539Y61095459D01*
X38677324Y61209244D01*
X38781000Y61459541D01*
X38781000Y61730459D01*
X55199000Y61730459D01*
X55199000Y61459541D01*
X55274404Y61277500D01*
X55199000Y61095459D01*
X55199000Y60824541D01*
X55302676Y60574244D01*
X55494244Y60382676D01*
X55744541Y60279000D01*
X56015459Y60279000D01*
X56265756Y60382676D01*
X56457324Y60574244D01*
X56561000Y60824541D01*
X56561000Y61095459D01*
X56485596Y61277500D01*
X56561000Y61459541D01*
X56561000Y61549000D01*
X56650459Y61549000D01*
X56832500Y61624404D01*
X57014541Y61549000D01*
X57104000Y61549000D01*
X57104000Y61459541D01*
X57207676Y61209244D01*
X57399244Y61017676D01*
X57649541Y60914000D01*
X57920459Y60914000D01*
X58170756Y61017676D01*
X58362324Y61209244D01*
X58466000Y61459541D01*
X58466000Y61730459D01*
X58362324Y61980756D01*
X58170756Y62172324D01*
X57920459Y62276000D01*
X57831000Y62276000D01*
X57831000Y62365459D01*
X57727324Y62615756D01*
X57535756Y62807324D01*
X57285459Y62911000D01*
X57014541Y62911000D01*
X56832500Y62835596D01*
X56650459Y62911000D01*
X56379541Y62911000D01*
X56129244Y62807324D01*
X55937676Y62615756D01*
X55834000Y62365459D01*
X55834000Y62276000D01*
X55744541Y62276000D01*
X55494244Y62172324D01*
X55302676Y61980756D01*
X55199000Y61730459D01*
X38781000Y61730459D01*
X38677324Y61980756D01*
X38485756Y62172324D01*
X38235459Y62276000D01*
X37964541Y62276000D01*
X37782500Y62200596D01*
X37600459Y62276000D01*
X37329541Y62276000D01*
X37103607Y62182416D01*
X37027532Y62213927D01*
X36756614Y62213927D01*
X36506317Y62110251D01*
X36314749Y61918683D01*
X36211073Y61668386D01*
X36211073Y61578927D01*
X36121614Y61578927D01*
X35871317Y61475251D01*
X35679749Y61283683D01*
X35576073Y61033386D01*
X35576073Y60762468D01*
X35607584Y60686393D01*
X35514000Y60460459D01*
X28386621Y60460459D01*
X28325756Y60521324D01*
X28075459Y60625000D01*
X27804541Y60625000D01*
X27554244Y60521324D01*
X27362676Y60329756D01*
X27259000Y60079459D01*
X27259000Y59863000D01*
X27042541Y59863000D01*
X26792244Y59759324D01*
X26600676Y59567756D01*
X26497000Y59317459D01*
X26497000Y59085450D01*
X26284244Y58997324D01*
X26092676Y58805756D01*
X26035994Y58668913D01*
X25977324Y58810556D01*
X25785756Y59002124D01*
X25535459Y59105800D01*
X25264541Y59105800D01*
X25014244Y59002124D01*
X24822676Y58810556D01*
X24719000Y58560259D01*
X456000Y58560259D01*
X456000Y61095459D01*
X15194000Y61095459D01*
X15194000Y60824541D01*
X15297676Y60574244D01*
X15489244Y60382676D01*
X15739541Y60279000D01*
X16010459Y60279000D01*
X16260756Y60382676D01*
X16452324Y60574244D01*
X16556000Y60824541D01*
X16556000Y61095459D01*
X16452324Y61345756D01*
X16260756Y61537324D01*
X16101092Y61603459D01*
X23957000Y61603459D01*
X23957000Y61332541D01*
X24060676Y61082244D01*
X24252244Y60890676D01*
X24502541Y60787000D01*
X24773459Y60787000D01*
X25023756Y60890676D01*
X25215324Y61082244D01*
X25319000Y61332541D01*
X25319000Y61603459D01*
X25215324Y61853756D01*
X25023756Y62045324D01*
X24773459Y62149000D01*
X24502541Y62149000D01*
X24252244Y62045324D01*
X24060676Y61853756D01*
X23957000Y61603459D01*
X16101092Y61603459D01*
X16010459Y61641000D01*
X15739541Y61641000D01*
X15489244Y61537324D01*
X15297676Y61345756D01*
X15194000Y61095459D01*
X456000Y61095459D01*
X456000Y63000459D01*
X16317048Y63000459D01*
X16317048Y62729541D01*
X16420724Y62479244D01*
X16612292Y62287676D01*
X16862589Y62184000D01*
X17133507Y62184000D01*
X17383804Y62287676D01*
X17575372Y62479244D01*
X17679048Y62729541D01*
X17679048Y63000459D01*
X17575372Y63250756D01*
X17383804Y63442324D01*
X17133507Y63546000D01*
X16862589Y63546000D01*
X16612292Y63442324D01*
X16420724Y63250756D01*
X16317048Y63000459D01*
X456000Y63000459D01*
X456000Y66555000D01*
X3541536Y66555000D01*
X3541536Y64255000D01*
X3571106Y64106341D01*
X3655314Y63980314D01*
X3781341Y63896106D01*
X3930000Y63866536D01*
X6230000Y63866536D01*
X6378659Y63896106D01*
X6504686Y63980314D01*
X6588894Y64106341D01*
X6616203Y64243636D01*
X6752758Y64107081D01*
X7315465Y63874000D01*
X7924535Y63874000D01*
X8330641Y64042215D01*
X27030756Y64042215D01*
X27030756Y63771297D01*
X27134432Y63521000D01*
X27326000Y63329432D01*
X27576297Y63225756D01*
X27847215Y63225756D01*
X28097512Y63329432D01*
X28289080Y63521000D01*
X28392756Y63771297D01*
X28392756Y64042215D01*
X28289080Y64292512D01*
X28097512Y64484080D01*
X27847215Y64587756D01*
X27576297Y64587756D01*
X27326000Y64484080D01*
X27134432Y64292512D01*
X27030756Y64042215D01*
X8330641Y64042215D01*
X8487242Y64107081D01*
X8917919Y64537758D01*
X9070683Y64906564D01*
X20190050Y64906564D01*
X20190050Y64635646D01*
X20293726Y64385349D01*
X20485294Y64193781D01*
X20735591Y64090105D01*
X21006509Y64090105D01*
X21256806Y64193781D01*
X21448374Y64385349D01*
X21552050Y64635646D01*
X21552050Y64905459D01*
X34879000Y64905459D01*
X34879000Y64634541D01*
X34982676Y64384244D01*
X35174244Y64192676D01*
X35424541Y64089000D01*
X35695459Y64089000D01*
X35945756Y64192676D01*
X36137324Y64384244D01*
X36142797Y64397459D01*
X36403000Y64397459D01*
X36403000Y64126541D01*
X36506676Y63876244D01*
X36698244Y63684676D01*
X36948541Y63581000D01*
X37219459Y63581000D01*
X37469756Y63684676D01*
X37661324Y63876244D01*
X37765000Y64126541D01*
X37765000Y64397459D01*
X37661324Y64647756D01*
X37469756Y64839324D01*
X37219459Y64943000D01*
X36948541Y64943000D01*
X36698244Y64839324D01*
X36506676Y64647756D01*
X36403000Y64397459D01*
X36142797Y64397459D01*
X36241000Y64634541D01*
X36241000Y64905459D01*
X36137324Y65155756D01*
X35945756Y65347324D01*
X35695459Y65451000D01*
X35424541Y65451000D01*
X35174244Y65347324D01*
X34982676Y65155756D01*
X34879000Y64905459D01*
X21552050Y64905459D01*
X21552050Y64906564D01*
X21448374Y65156861D01*
X21256806Y65348429D01*
X21006509Y65452105D01*
X20735591Y65452105D01*
X20485294Y65348429D01*
X20293726Y65156861D01*
X20190050Y64906564D01*
X9070683Y64906564D01*
X9151000Y65100465D01*
X9151000Y65709535D01*
X8958008Y66175459D01*
X17734000Y66175459D01*
X17734000Y65904541D01*
X17837676Y65654244D01*
X18029244Y65462676D01*
X18279541Y65359000D01*
X18550459Y65359000D01*
X18800756Y65462676D01*
X18992324Y65654244D01*
X19075308Y65854587D01*
X36759652Y65854587D01*
X36759652Y65583669D01*
X36863328Y65333372D01*
X37054896Y65141804D01*
X37305193Y65038128D01*
X37576111Y65038128D01*
X37826408Y65141804D01*
X38017976Y65333372D01*
X38121652Y65583669D01*
X38121652Y65854587D01*
X38017976Y66104884D01*
X37826408Y66296452D01*
X37576111Y66400128D01*
X37305193Y66400128D01*
X37054896Y66296452D01*
X36863328Y66104884D01*
X36759652Y65854587D01*
X19075308Y65854587D01*
X19096000Y65904541D01*
X19096000Y66175459D01*
X18992324Y66425756D01*
X18800756Y66617324D01*
X18550459Y66721000D01*
X18279541Y66721000D01*
X18029244Y66617324D01*
X17837676Y66425756D01*
X17734000Y66175459D01*
X8958008Y66175459D01*
X8917919Y66272242D01*
X8487242Y66702919D01*
X7924535Y66936000D01*
X7315465Y66936000D01*
X6752758Y66702919D01*
X6616203Y66566364D01*
X6588894Y66703659D01*
X6504686Y66829686D01*
X6378659Y66913894D01*
X6230000Y66943464D01*
X3930000Y66943464D01*
X3781341Y66913894D01*
X3655314Y66829686D01*
X3571106Y66703659D01*
X3541536Y66555000D01*
X456000Y66555000D01*
X456000Y68160000D01*
X32416536Y68160000D01*
X32416536Y66460000D01*
X32446106Y66311341D01*
X32530314Y66185314D01*
X32656341Y66101106D01*
X32805000Y66071536D01*
X34505000Y66071536D01*
X34653659Y66101106D01*
X34779686Y66185314D01*
X34863894Y66311341D01*
X34893464Y66460000D01*
X34893464Y67310000D01*
X37479884Y67310000D01*
X37575424Y66829688D01*
X37847499Y66422499D01*
X38254688Y66150424D01*
X38613761Y66079000D01*
X38856239Y66079000D01*
X39215312Y66150424D01*
X39622501Y66422499D01*
X39894576Y66829688D01*
X39990116Y67310000D01*
X40019884Y67310000D01*
X40115424Y66829688D01*
X40387499Y66422499D01*
X40794688Y66150424D01*
X41153761Y66079000D01*
X41396239Y66079000D01*
X41755312Y66150424D01*
X42162501Y66422499D01*
X42434576Y66829688D01*
X42530116Y67310000D01*
X42559884Y67310000D01*
X42655424Y66829688D01*
X42927499Y66422499D01*
X43334688Y66150424D01*
X43693761Y66079000D01*
X43936239Y66079000D01*
X44295312Y66150424D01*
X44702501Y66422499D01*
X44974576Y66829688D01*
X45070116Y67310000D01*
X45099884Y67310000D01*
X45195424Y66829688D01*
X45467499Y66422499D01*
X45874688Y66150424D01*
X46233761Y66079000D01*
X46476239Y66079000D01*
X46835312Y66150424D01*
X47242501Y66422499D01*
X47514576Y66829688D01*
X47610116Y67310000D01*
X47514576Y67790312D01*
X47242501Y68197501D01*
X46835312Y68469576D01*
X46476239Y68541000D01*
X46233761Y68541000D01*
X45874688Y68469576D01*
X45467499Y68197501D01*
X45195424Y67790312D01*
X45099884Y67310000D01*
X45070116Y67310000D01*
X44974576Y67790312D01*
X44702501Y68197501D01*
X44295312Y68469576D01*
X43936239Y68541000D01*
X43693761Y68541000D01*
X43334688Y68469576D01*
X42927499Y68197501D01*
X42655424Y67790312D01*
X42559884Y67310000D01*
X42530116Y67310000D01*
X42434576Y67790312D01*
X42162501Y68197501D01*
X41755312Y68469576D01*
X41396239Y68541000D01*
X41153761Y68541000D01*
X40794688Y68469576D01*
X40387499Y68197501D01*
X40115424Y67790312D01*
X40019884Y67310000D01*
X39990116Y67310000D01*
X39894576Y67790312D01*
X39622501Y68197501D01*
X39215312Y68469576D01*
X38856239Y68541000D01*
X38613761Y68541000D01*
X38254688Y68469576D01*
X37847499Y68197501D01*
X37575424Y67790312D01*
X37479884Y67310000D01*
X34893464Y67310000D01*
X34893464Y68160000D01*
X34863894Y68308659D01*
X34779686Y68434686D01*
X34653659Y68518894D01*
X34505000Y68548464D01*
X32805000Y68548464D01*
X32656341Y68518894D01*
X32530314Y68434686D01*
X32446106Y68308659D01*
X32416536Y68160000D01*
X456000Y68160000D01*
X456000Y71544000D01*
X79544000Y71544000D01*
X79544000Y50292000D01*
G04 #@! TD*
M02*
