G04 #@! TF.FileFunction,Copper,L1,Top,Signal*
%FSLAX46Y46*%
G04 Gerber Fmt 4.6, Leading zero omitted, Abs format (unit mm)*
G04 Created by KiCad (PCBNEW 4.0.2+dfsg1-stable) date Tue 31 Jul 2018 07:20:09 PM EDT*
%MOMM*%
G01*
G04 APERTURE LIST*
%ADD10C,0.127000*%
%ADD11R,1.000000X1.250000*%
%ADD12R,0.800000X0.900000*%
%ADD13R,1.250000X1.000000*%
%ADD14R,0.450000X0.590000*%
%ADD15R,1.198880X1.198880*%
%ADD16R,1.300000X0.700000*%
%ADD17R,0.700000X1.300000*%
%ADD18R,0.600000X1.550000*%
%ADD19R,1.550000X0.600000*%
%ADD20R,1.500000X0.900000*%
%ADD21R,1.000000X0.370000*%
%ADD22R,0.370000X1.000000*%
%ADD23R,1.062500X1.062500*%
%ADD24R,1.700000X1.700000*%
%ADD25O,1.700000X1.700000*%
%ADD26C,1.420000*%
%ADD27C,2.800000*%
%ADD28R,2.300000X2.300000*%
%ADD29C,2.300000*%
%ADD30O,3.500120X7.000240*%
%ADD31O,1.600200X2.499360*%
%ADD32R,1.800000X1.200000*%
%ADD33R,0.900000X0.800000*%
%ADD34R,1.000000X3.200000*%
%ADD35R,1.016000X2.794000*%
%ADD36C,1.500000*%
%ADD37R,3.800000X2.000000*%
%ADD38R,1.500000X2.000000*%
%ADD39R,0.700000X0.250000*%
%ADD40R,1.650000X2.380000*%
%ADD41R,2.000000X0.400000*%
%ADD42C,0.600000*%
%ADD43C,0.762000*%
%ADD44C,0.254000*%
%ADD45C,0.508000*%
G04 APERTURE END LIST*
D10*
D11*
X7890000Y53340000D03*
X9890000Y53340000D03*
D12*
X30795000Y61960000D03*
X28895000Y61960000D03*
X29845000Y59960000D03*
D13*
X8255000Y55515000D03*
X8255000Y57515000D03*
D14*
X30480000Y37680000D03*
X30480000Y39790000D03*
D11*
X21955000Y66040000D03*
X19955000Y66040000D03*
D13*
X15875000Y61960000D03*
X15875000Y59960000D03*
X19050000Y25130000D03*
X19050000Y23130000D03*
D11*
X28305000Y36195000D03*
X26305000Y36195000D03*
D13*
X24765000Y29480000D03*
X24765000Y31480000D03*
X33655000Y25670000D03*
X33655000Y27670000D03*
D11*
X45450000Y36195000D03*
X43450000Y36195000D03*
D13*
X35560000Y33925000D03*
X35560000Y35925000D03*
D11*
X41640000Y27305000D03*
X39640000Y27305000D03*
D13*
X48260000Y26940000D03*
X48260000Y28940000D03*
X27940000Y41640000D03*
X27940000Y39640000D03*
X29210000Y46675000D03*
X29210000Y48675000D03*
D11*
X28845000Y52070000D03*
X30845000Y52070000D03*
X43450000Y3175000D03*
X45450000Y3175000D03*
D13*
X33655000Y52340000D03*
X33655000Y54340000D03*
X46990000Y41640000D03*
X46990000Y39640000D03*
X48260000Y9795000D03*
X48260000Y11795000D03*
D11*
X56245000Y36195000D03*
X54245000Y36195000D03*
D13*
X52705000Y29480000D03*
X52705000Y31480000D03*
X61595000Y25670000D03*
X61595000Y27670000D03*
D11*
X73390000Y36195000D03*
X71390000Y36195000D03*
D13*
X63500000Y33925000D03*
X63500000Y35925000D03*
D11*
X69580000Y27305000D03*
X67580000Y27305000D03*
D13*
X76200000Y26940000D03*
X76200000Y28940000D03*
X55880000Y41640000D03*
X55880000Y39640000D03*
X57150000Y46625000D03*
X57150000Y48625000D03*
D11*
X56785000Y52070000D03*
X58785000Y52070000D03*
X71390000Y3175000D03*
X73390000Y3175000D03*
D15*
X72610980Y59690000D03*
X74709020Y59690000D03*
D16*
X53975000Y57465000D03*
X53975000Y55565000D03*
X51435000Y57465000D03*
X51435000Y55565000D03*
D17*
X65720000Y64770000D03*
X63820000Y64770000D03*
X65720000Y62230000D03*
X63820000Y62230000D03*
X65720000Y67310000D03*
X63820000Y67310000D03*
X14920000Y53340000D03*
X13020000Y53340000D03*
X14920000Y50800000D03*
X13020000Y50800000D03*
X13020000Y48260000D03*
X14920000Y48260000D03*
X13020000Y45085000D03*
X14920000Y45085000D03*
X13020000Y42545000D03*
X14920000Y42545000D03*
X13020000Y36195000D03*
X14920000Y36195000D03*
X63820000Y59690000D03*
X65720000Y59690000D03*
D16*
X29845000Y21275000D03*
X29845000Y23175000D03*
D17*
X26985000Y24765000D03*
X25085000Y24765000D03*
D16*
X26035000Y21270000D03*
X26035000Y19370000D03*
X34290000Y32065000D03*
X34290000Y30165000D03*
D17*
X30800000Y35560000D03*
X32700000Y35560000D03*
D16*
X36830000Y32065000D03*
X36830000Y30165000D03*
X48260000Y33970000D03*
X48260000Y32070000D03*
D17*
X38420000Y36195000D03*
X40320000Y36195000D03*
D16*
X33655000Y37785000D03*
X33655000Y39685000D03*
D17*
X46675000Y16510000D03*
X48575000Y16510000D03*
D16*
X32385000Y48575000D03*
X32385000Y46675000D03*
X25400000Y41595000D03*
X25400000Y43495000D03*
X57785000Y21275000D03*
X57785000Y23175000D03*
D17*
X54925000Y24765000D03*
X53025000Y24765000D03*
D16*
X53975000Y21270000D03*
X53975000Y19370000D03*
X62230000Y32065000D03*
X62230000Y30165000D03*
D17*
X58740000Y35560000D03*
X60640000Y35560000D03*
D16*
X64770000Y32065000D03*
X64770000Y30165000D03*
X76200000Y33970000D03*
X76200000Y32070000D03*
D18*
X19050000Y33180000D03*
X17780000Y33180000D03*
X16510000Y33180000D03*
X15240000Y33180000D03*
X15240000Y27780000D03*
X16510000Y27780000D03*
X17780000Y27780000D03*
X19050000Y27780000D03*
X27305000Y27620000D03*
X28575000Y27620000D03*
X29845000Y27620000D03*
X31115000Y27620000D03*
X31115000Y33020000D03*
X29845000Y33020000D03*
X28575000Y33020000D03*
X27305000Y33020000D03*
D19*
X39845000Y33655000D03*
X39845000Y32385000D03*
X39845000Y31115000D03*
X39845000Y29845000D03*
X45245000Y29845000D03*
X45245000Y31115000D03*
X45245000Y32385000D03*
X45245000Y33655000D03*
D18*
X26670000Y52230000D03*
X25400000Y52230000D03*
X24130000Y52230000D03*
X22860000Y52230000D03*
X22860000Y46830000D03*
X24130000Y46830000D03*
X25400000Y46830000D03*
X26670000Y46830000D03*
X41910000Y6190000D03*
X43180000Y6190000D03*
X44450000Y6190000D03*
X45720000Y6190000D03*
X45720000Y11590000D03*
X44450000Y11590000D03*
X43180000Y11590000D03*
X41910000Y11590000D03*
X55245000Y27780000D03*
X56515000Y27780000D03*
X57785000Y27780000D03*
X59055000Y27780000D03*
X59055000Y33180000D03*
X57785000Y33180000D03*
X56515000Y33180000D03*
X55245000Y33180000D03*
D19*
X67785000Y33655000D03*
X67785000Y32385000D03*
X67785000Y31115000D03*
X67785000Y29845000D03*
X73185000Y29845000D03*
X73185000Y31115000D03*
X73185000Y32385000D03*
X73185000Y33655000D03*
D18*
X54610000Y52230000D03*
X53340000Y52230000D03*
X52070000Y52230000D03*
X50800000Y52230000D03*
X50800000Y46830000D03*
X52070000Y46830000D03*
X53340000Y46830000D03*
X54610000Y46830000D03*
D14*
X58420000Y37680000D03*
X58420000Y39790000D03*
D11*
X21320000Y55245000D03*
X19320000Y55245000D03*
D13*
X61595000Y52340000D03*
X61595000Y54340000D03*
X74930000Y41640000D03*
X74930000Y39640000D03*
X76200000Y9795000D03*
X76200000Y11795000D03*
D20*
X75210000Y66560000D03*
X75210000Y68060000D03*
X72110000Y68060000D03*
X72110000Y66560000D03*
D21*
X23701250Y58906250D03*
X23701250Y59556250D03*
X23701250Y60206250D03*
X23701250Y60856250D03*
X23701250Y61506250D03*
X23701250Y62156250D03*
X23701250Y62806250D03*
D22*
X22801250Y63706250D03*
X22151250Y63706250D03*
X21501250Y63706250D03*
X20851250Y63706250D03*
X20201250Y63706250D03*
X19551250Y63706250D03*
X18901250Y63706250D03*
D21*
X18001250Y62806250D03*
X18001250Y62156250D03*
X18001250Y61506250D03*
X18001250Y60856250D03*
X18001250Y60206250D03*
X18001250Y59556250D03*
X18001250Y58906250D03*
D22*
X18901250Y58006250D03*
X19551250Y58006250D03*
X20201250Y58006250D03*
X20851250Y58006250D03*
X21501250Y58006250D03*
X22151250Y58006250D03*
X22801250Y58006250D03*
D23*
X19257500Y62450000D03*
X19257500Y61387500D03*
X19257500Y60325000D03*
X19257500Y59262500D03*
X20320000Y62450000D03*
X20320000Y61387500D03*
X20320000Y60325000D03*
X20320000Y59262500D03*
X21382500Y62450000D03*
X21382500Y61387500D03*
X21382500Y60325000D03*
X21382500Y59262500D03*
X22445000Y62450000D03*
X22445000Y61387500D03*
X22445000Y60325000D03*
X22445000Y59262500D03*
D24*
X33655000Y67310000D03*
D25*
X36195000Y67310000D03*
X38735000Y67310000D03*
X41275000Y67310000D03*
X43815000Y67310000D03*
X46355000Y67310000D03*
D26*
X9200000Y19440005D03*
X11700000Y19440005D03*
X13700000Y19440005D03*
X16200000Y19440005D03*
X9200000Y16820005D03*
X11700000Y16820005D03*
X13700000Y16820005D03*
X16200000Y16820005D03*
D27*
X19270000Y14110005D03*
X19270000Y19790005D03*
X6130000Y19790005D03*
X6130000Y14110005D03*
D28*
X5080000Y65405000D03*
D29*
X7620000Y65405000D03*
D30*
X34942780Y10261600D03*
X24744680Y10261600D03*
D31*
X29845000Y14526260D03*
X32344360Y14526260D03*
D30*
X62882780Y10261600D03*
X52684680Y10261600D03*
D31*
X57785000Y14526260D03*
X60284360Y14526260D03*
D32*
X36810000Y54610000D03*
X36810000Y52070000D03*
X36810000Y49530000D03*
X36810000Y46990000D03*
X47010000Y46990000D03*
X47010000Y49530000D03*
X47010000Y52070000D03*
X47010000Y54610000D03*
X64750000Y54610000D03*
X64750000Y52070000D03*
X64750000Y49530000D03*
X64750000Y46990000D03*
X74950000Y46990000D03*
X74950000Y49530000D03*
X74950000Y52070000D03*
X74950000Y54610000D03*
D33*
X17415000Y50480000D03*
X17415000Y48580000D03*
X19415000Y49530000D03*
X17415000Y44765000D03*
X17415000Y42865000D03*
X19415000Y43815000D03*
X17415000Y38415000D03*
X17415000Y36515000D03*
X19415000Y37465000D03*
D12*
X4130000Y55515000D03*
X6030000Y55515000D03*
X5080000Y57515000D03*
D17*
X13020000Y38608000D03*
X14920000Y38608000D03*
X44765000Y16510000D03*
X42865000Y16510000D03*
D34*
X43105000Y40640000D03*
X36905000Y40640000D03*
D17*
X66360000Y36195000D03*
X68260000Y36195000D03*
D16*
X61595000Y37785000D03*
X61595000Y39685000D03*
D17*
X74615000Y16510000D03*
X76515000Y16510000D03*
X72705000Y16510000D03*
X70805000Y16510000D03*
D16*
X60325000Y48575000D03*
X60325000Y46675000D03*
X53340000Y41595000D03*
X53340000Y43495000D03*
D34*
X71045000Y40640000D03*
X64845000Y40640000D03*
D35*
X34290000Y19875500D03*
X36830000Y24574500D03*
X39370000Y19875500D03*
X43180000Y19875500D03*
X45720000Y24574500D03*
X48260000Y19875500D03*
X62230000Y19875500D03*
X64770000Y24574500D03*
X67310000Y19875500D03*
X71120000Y19875500D03*
X73660000Y24574500D03*
X76200000Y19875500D03*
D36*
X23495000Y38100000D03*
X51435000Y38100000D03*
D37*
X6985000Y43840000D03*
D38*
X6985000Y50140000D03*
X4685000Y50140000D03*
X9285000Y50140000D03*
D39*
X33175000Y42815000D03*
X33175000Y43315000D03*
X33175000Y43815000D03*
X33175000Y44315000D03*
X33175000Y44815000D03*
X30325000Y44815000D03*
X30325000Y44315000D03*
X30325000Y43815000D03*
X30325000Y43315000D03*
X30325000Y42815000D03*
D40*
X31750000Y43815000D03*
D39*
X61115000Y42815000D03*
X61115000Y43315000D03*
X61115000Y43815000D03*
X61115000Y44315000D03*
X61115000Y44815000D03*
X58265000Y44815000D03*
X58265000Y44315000D03*
X58265000Y43815000D03*
X58265000Y43315000D03*
X58265000Y42815000D03*
D40*
X59690000Y43815000D03*
D18*
X69850000Y6444000D03*
X71120000Y6444000D03*
X72390000Y6444000D03*
X73660000Y6444000D03*
X73660000Y11844000D03*
X72390000Y11844000D03*
X71120000Y11844000D03*
X69850000Y11844000D03*
D41*
X26035000Y63500000D03*
X26035000Y62300000D03*
X26035000Y64700000D03*
D12*
X58735000Y61960000D03*
X56835000Y61960000D03*
X57785000Y59960000D03*
X30795000Y57515000D03*
X28895000Y57515000D03*
X29845000Y55515000D03*
X58735000Y57515000D03*
X56835000Y57515000D03*
X57785000Y55515000D03*
D16*
X33655000Y60010000D03*
X33655000Y61910000D03*
X51435000Y60010000D03*
X51435000Y61910000D03*
X36830000Y60010000D03*
X36830000Y61910000D03*
X53975000Y60010000D03*
X53975000Y61910000D03*
D42*
X5080000Y56515000D03*
X8255000Y56515000D03*
X8890000Y53340000D03*
X10795000Y50165000D03*
X10795000Y50800000D03*
X10795000Y51435000D03*
X10160000Y52070000D03*
X9525000Y52070000D03*
X9007403Y52070000D03*
X57785000Y60960000D03*
X15240000Y26035000D03*
X19050000Y24130000D03*
X38735000Y53975000D03*
X38735000Y54610000D03*
X38735000Y55245000D03*
X34925000Y53975000D03*
X34925000Y54610000D03*
X34925000Y55245000D03*
X32385000Y55245000D03*
X31115000Y50800000D03*
X22860000Y53903590D03*
X20320000Y54492597D03*
X20262417Y56641826D03*
X15875000Y60960000D03*
X27711756Y63906756D03*
X18415000Y66040000D03*
X63500000Y55880000D03*
X64135000Y55880000D03*
X64770000Y55880000D03*
X65405000Y55880000D03*
X66040000Y55880000D03*
X66675000Y53975000D03*
X66675000Y54610000D03*
X66675000Y55245000D03*
X61595000Y53340000D03*
X73662822Y59690000D03*
X24638000Y61468000D03*
X27940000Y62865000D03*
X17780000Y48260000D03*
X12700000Y50165000D03*
X59055000Y52705000D03*
X50800000Y53340000D03*
X35560000Y34925000D03*
X43815000Y16510000D03*
X38100000Y29210000D03*
X45720000Y13335000D03*
X31115000Y26035000D03*
X25400000Y42545000D03*
X45085000Y46355000D03*
X45085000Y46990000D03*
X45085000Y47625000D03*
X48895000Y46355000D03*
X48895000Y46990000D03*
X48895000Y47625000D03*
X32385000Y47625000D03*
X26670000Y45720000D03*
X29273438Y45783438D03*
X41910000Y13335000D03*
X33655000Y41910000D03*
X29210000Y34925000D03*
X46355000Y34290000D03*
X44450000Y36195000D03*
X26035000Y20320000D03*
X48260000Y27940000D03*
X40640000Y27305000D03*
X33655000Y26670000D03*
X47625000Y16510000D03*
X27305000Y36195000D03*
X27940000Y40640000D03*
X46990000Y40640000D03*
X30480000Y48895000D03*
X34925000Y46355000D03*
X34925000Y46990000D03*
X34925000Y47625000D03*
X38735000Y46355000D03*
X38735000Y46990000D03*
X38735000Y47625000D03*
X22860000Y45720000D03*
X28575000Y43180000D03*
X34290000Y43180000D03*
X34290000Y45085000D03*
X48260000Y8890000D03*
X30480000Y40640000D03*
X44450000Y7620000D03*
X53340000Y42545000D03*
X55245000Y45085000D03*
X55880000Y45720000D03*
X60325000Y47625000D03*
X73025000Y46355000D03*
X73025000Y46990000D03*
X73025000Y47625000D03*
X76835000Y46355000D03*
X76835000Y46990000D03*
X76835000Y47625000D03*
X57150000Y45720000D03*
X55880000Y42545000D03*
X69850000Y13335000D03*
X61595000Y41910000D03*
X57150000Y34925000D03*
X74295000Y34290000D03*
X76200000Y10795000D03*
X75565000Y16510000D03*
X76200000Y27940000D03*
X61595000Y26670000D03*
X68580000Y27305000D03*
X55245000Y36195000D03*
X55880000Y40640000D03*
X50800000Y45085000D03*
X58420000Y48895000D03*
X66675000Y46355000D03*
X66675000Y46990000D03*
X66675000Y47625000D03*
X62865000Y46355000D03*
X62865000Y46990000D03*
X62865000Y47625000D03*
X72390000Y7620000D03*
X62230000Y43180000D03*
X62230000Y45085000D03*
X57150000Y43180000D03*
X70485000Y36195000D03*
X74930000Y38735000D03*
X53975000Y18415000D03*
X58420000Y40640000D03*
X71755000Y16510000D03*
X73660000Y13335000D03*
X63500000Y36830000D03*
X59055000Y26035000D03*
X66675000Y29210000D03*
X25400000Y58424800D03*
X23495000Y57150000D03*
X24130000Y57785000D03*
X8255000Y52070000D03*
X5715000Y52070000D03*
X6350000Y52070000D03*
X7620000Y52070000D03*
X53975000Y58420000D03*
X51435000Y58420000D03*
X64770000Y59690000D03*
X28575000Y50800000D03*
X26664697Y53903590D03*
X20320000Y55245000D03*
X20320000Y55880000D03*
X20955000Y66040000D03*
X73660000Y67945000D03*
X12700000Y45720000D03*
X17145000Y45085000D03*
X12700000Y39370000D03*
X17145000Y38735000D03*
X56515000Y52705000D03*
X22225000Y64770000D03*
X54610000Y53340000D03*
X32385000Y31115000D03*
X31115000Y29845000D03*
X60325000Y31115000D03*
X59055000Y29845000D03*
X27940000Y59944000D03*
X37440652Y65719128D03*
X35560000Y64770000D03*
X27178000Y59182000D03*
X37084000Y64262000D03*
X26670000Y58420000D03*
X24765000Y53903590D03*
X53975000Y53975000D03*
X20871050Y64771105D03*
X24012597Y53903590D03*
X49530000Y52705000D03*
X16998048Y62865000D03*
X18264100Y53306503D03*
X18415000Y43815000D03*
X19050000Y53340000D03*
X18415000Y37465000D03*
X15240000Y52949401D03*
X15240000Y51435000D03*
X16510000Y34925000D03*
X15875000Y47625000D03*
D43*
X8255000Y55515000D02*
X6868000Y55515000D01*
X6868000Y55515000D02*
X6030000Y54677000D01*
X6030000Y54677000D02*
X6030000Y53788000D01*
X4685000Y52443000D02*
X6030000Y53788000D01*
X6030000Y53788000D02*
X6030000Y55515000D01*
D44*
X56835000Y57515000D02*
X56835000Y57565000D01*
X56835000Y57565000D02*
X54390000Y60010000D01*
X54390000Y60010000D02*
X53975000Y60010000D01*
D45*
X54798522Y56557000D02*
X33655000Y56557000D01*
X33655000Y56557000D02*
X28895000Y56557000D01*
D44*
X36830000Y60010000D02*
X36830000Y59406000D01*
X36830000Y59406000D02*
X33981000Y56557000D01*
X33981000Y56557000D02*
X33655000Y56557000D01*
D45*
X56835000Y57515000D02*
X55756522Y57515000D01*
X55756522Y57515000D02*
X54798522Y56557000D01*
X28895000Y57515000D02*
X28895000Y56557000D01*
X4685000Y48632000D02*
X4685000Y50140000D01*
X28895000Y56557000D02*
X26948000Y54610000D01*
X26948000Y54610000D02*
X22541522Y54610000D01*
X22541522Y54610000D02*
X20123723Y52192201D01*
X20123723Y52192201D02*
X12589239Y52192201D01*
X12589239Y52192201D02*
X11942799Y51545761D01*
X11942799Y51545761D02*
X11942799Y50042799D01*
X11942799Y50042799D02*
X10037799Y48137799D01*
X10037799Y48137799D02*
X5179201Y48137799D01*
X5179201Y48137799D02*
X4685000Y48632000D01*
X4685000Y52443000D02*
X4685000Y51648000D01*
X4685000Y51648000D02*
X4685000Y50140000D01*
D44*
X9215201Y37535437D02*
X9215201Y43180000D01*
X9215201Y43180000D02*
X9215201Y45104161D01*
X13020000Y42545000D02*
X9850201Y42545000D01*
X9850201Y42545000D02*
X9215201Y43180000D01*
X13020000Y36195000D02*
X12416000Y36195000D01*
X12416000Y36195000D02*
X11075563Y37535437D01*
X11075563Y37535437D02*
X9215201Y37535437D01*
X13020000Y48260000D02*
X5715000Y48260000D01*
X5715000Y48260000D02*
X5311000Y48260000D01*
X19050000Y27780000D02*
X19050000Y28255000D01*
X19050000Y28255000D02*
X15230201Y32074799D01*
X15230201Y32074799D02*
X14675839Y32074799D01*
X14675839Y32074799D02*
X9215201Y37535437D01*
X9215201Y45104161D02*
X6059362Y48260000D01*
X6059362Y48260000D02*
X5715000Y48260000D01*
D45*
X4685000Y50140000D02*
X4685000Y50890658D01*
D44*
X5311000Y48260000D02*
X4685000Y48886000D01*
X4685000Y48886000D02*
X4685000Y50140000D01*
D45*
X4685000Y50140000D02*
X4685000Y50390000D01*
D43*
X4685000Y50140000D02*
X4685000Y45491562D01*
X9200000Y20444096D02*
X9200000Y19440005D01*
X4685000Y45491562D02*
X4145799Y44952361D01*
X4145799Y44952361D02*
X4145799Y25498297D01*
X4145799Y25498297D02*
X9200000Y20444096D01*
X4685000Y50140000D02*
X4685000Y52310000D01*
X9200000Y16185005D02*
X9200000Y18805005D01*
D44*
X19050000Y25130000D02*
X19050000Y27780000D01*
X4130000Y55515000D02*
X4130000Y55565000D01*
X4130000Y55565000D02*
X5080000Y56515000D01*
X8255000Y57515000D02*
X8255000Y56515000D01*
X9890000Y53340000D02*
X8890000Y53340000D01*
X9285000Y50140000D02*
X10770000Y50140000D01*
X10770000Y50140000D02*
X10795000Y50165000D01*
X9285000Y50140000D02*
X10135000Y50140000D01*
X10135000Y50140000D02*
X10795000Y50800000D01*
X9285000Y50140000D02*
X9500000Y50140000D01*
X9500000Y50140000D02*
X10795000Y51435000D01*
X9285000Y50140000D02*
X9285000Y51195000D01*
X9285000Y51195000D02*
X10160000Y52070000D01*
X9285000Y50140000D02*
X9285000Y51830000D01*
X9285000Y51830000D02*
X9525000Y52070000D01*
X9285000Y50140000D02*
X9285000Y51792403D01*
X9285000Y51792403D02*
X9007403Y52070000D01*
X56835000Y61910000D02*
X57785000Y60960000D01*
X15240000Y27780000D02*
X15240000Y26035000D01*
X19050000Y23130000D02*
X19050000Y24130000D01*
X38100000Y54610000D02*
X38735000Y53975000D01*
X36810000Y54610000D02*
X38735000Y54610000D01*
X36810000Y54610000D02*
X38100000Y54610000D01*
X38100000Y54610000D02*
X38735000Y55245000D01*
X35560000Y54610000D02*
X34925000Y53975000D01*
X36810000Y54610000D02*
X34925000Y54610000D01*
X36810000Y54610000D02*
X35560000Y54610000D01*
X35560000Y54610000D02*
X34925000Y55245000D01*
X33290000Y54340000D02*
X32385000Y55245000D01*
X30845000Y52070000D02*
X30845000Y51070000D01*
X30845000Y51070000D02*
X31115000Y50800000D01*
X22860000Y52230000D02*
X22860000Y53903590D01*
X19320000Y55245000D02*
X20072403Y54492597D01*
X20072403Y54492597D02*
X20320000Y54492597D01*
X20201250Y58006250D02*
X20201250Y56702993D01*
X20201250Y56702993D02*
X20262417Y56641826D01*
X15875000Y59960000D02*
X15875000Y60960000D01*
X26035000Y63500000D02*
X27305000Y63500000D01*
X27305000Y63500000D02*
X27711756Y63906756D01*
X19955000Y66040000D02*
X18415000Y66040000D01*
X64750000Y54610000D02*
X64750000Y54630000D01*
X64750000Y54630000D02*
X63500000Y55880000D01*
X64750000Y54610000D02*
X64750000Y55265000D01*
X64750000Y55265000D02*
X64135000Y55880000D01*
X64750000Y54610000D02*
X64750000Y55860000D01*
X64750000Y55860000D02*
X64770000Y55880000D01*
X64750000Y54610000D02*
X64750000Y55225000D01*
X64750000Y55225000D02*
X65405000Y55880000D01*
X64750000Y54610000D02*
X64770000Y54610000D01*
X64770000Y54610000D02*
X66040000Y55880000D01*
X66040000Y54610000D02*
X66675000Y53975000D01*
X64750000Y54610000D02*
X66675000Y54610000D01*
X64750000Y54610000D02*
X66040000Y54610000D01*
X66040000Y54610000D02*
X66675000Y55245000D01*
X61595000Y54340000D02*
X61595000Y53340000D01*
X74709020Y59690000D02*
X73662822Y59690000D01*
X24551037Y61506250D02*
X24599750Y61506250D01*
X24599750Y61506250D02*
X24638000Y61468000D01*
X28895000Y61960000D02*
X28845000Y61960000D01*
X28845000Y61960000D02*
X27940000Y62865000D01*
X56835000Y61960000D02*
X56835000Y61910000D01*
X23701250Y61506250D02*
X24551037Y61506250D01*
X19320000Y55245000D02*
X19320000Y54880000D01*
X15875000Y59960000D02*
X15510000Y59960000D01*
D45*
X9285000Y50140000D02*
X9285000Y50560000D01*
D44*
X9890000Y53070000D02*
X10160000Y53340000D01*
X17415000Y48580000D02*
X17460000Y48580000D01*
X17460000Y48580000D02*
X17780000Y48260000D01*
X19050000Y23130000D02*
X18685000Y23130000D01*
X13020000Y50800000D02*
X13020000Y50485000D01*
X13020000Y50485000D02*
X12700000Y50165000D01*
X33655000Y54340000D02*
X33290000Y54340000D01*
X30845000Y52070000D02*
X30845000Y52435000D01*
X58785000Y52070000D02*
X58785000Y52435000D01*
X58785000Y52435000D02*
X59055000Y52705000D01*
X19955000Y66040000D02*
X19955000Y66405000D01*
X23701250Y61506250D02*
X24218750Y61506250D01*
D45*
X36810000Y54610000D02*
X36195000Y54610000D01*
X36810000Y54610000D02*
X37465000Y54610000D01*
X64750000Y54610000D02*
X64135000Y54610000D01*
X64750000Y54610000D02*
X65405000Y54610000D01*
D44*
X50800000Y52390000D02*
X50800000Y53340000D01*
X33655000Y54340000D02*
X33385000Y54610000D01*
X35560000Y35925000D02*
X35560000Y34925000D01*
X42865000Y16510000D02*
X43815000Y16510000D01*
X39640000Y27305000D02*
X39640000Y29640000D01*
X39640000Y29640000D02*
X39845000Y29845000D01*
X39845000Y29845000D02*
X38735000Y29845000D01*
X38735000Y29845000D02*
X38100000Y29210000D01*
X39640000Y29640000D02*
X39845000Y29845000D01*
X39640000Y29640000D02*
X39845000Y29845000D01*
D45*
X45720000Y11590000D02*
X45720000Y13335000D01*
D44*
X33655000Y27670000D02*
X33545000Y27780000D01*
X45720000Y11590000D02*
X45925000Y11795000D01*
X45925000Y11795000D02*
X48260000Y11795000D01*
D45*
X31115000Y26035000D02*
X31115000Y27780000D01*
D44*
X33545000Y27780000D02*
X31115000Y27780000D01*
X39845000Y29845000D02*
X37150000Y29845000D01*
X37150000Y29845000D02*
X36830000Y30165000D01*
X25400000Y41595000D02*
X25400000Y42545000D01*
X45720000Y46990000D02*
X45085000Y46355000D01*
X47010000Y46990000D02*
X45085000Y46990000D01*
X47010000Y46990000D02*
X45720000Y46990000D01*
X45720000Y46990000D02*
X45085000Y47625000D01*
X48260000Y46990000D02*
X48895000Y46355000D01*
X47010000Y46990000D02*
X48895000Y46990000D01*
X47010000Y46990000D02*
X48260000Y46990000D01*
X48260000Y46990000D02*
X48895000Y47625000D01*
X32385000Y48575000D02*
X32385000Y47625000D01*
D45*
X47010000Y46990000D02*
X47625000Y46990000D01*
X47010000Y46990000D02*
X46355000Y46990000D01*
D44*
X26670000Y46830000D02*
X29055000Y46830000D01*
X29055000Y46830000D02*
X29210000Y46675000D01*
X26670000Y46830000D02*
X26670000Y45720000D01*
X29210000Y46675000D02*
X29210000Y45846876D01*
X29210000Y45846876D02*
X29273438Y45783438D01*
X32385000Y48575000D02*
X32070000Y48575000D01*
D45*
X47010000Y46990000D02*
X47010000Y46970000D01*
X41910000Y11590000D02*
X41910000Y13335000D01*
D44*
X33175000Y42815000D02*
X33175000Y42390000D01*
X33175000Y42390000D02*
X33655000Y41910000D01*
X45450000Y45430000D02*
X47010000Y46990000D01*
X27940000Y41640000D02*
X32115000Y41640000D01*
X32115000Y41640000D02*
X33175000Y42700000D01*
X33175000Y42700000D02*
X33175000Y42815000D01*
X33175000Y43315000D02*
X33175000Y42815000D01*
X30325000Y43315000D02*
X29615000Y43315000D01*
X29615000Y43315000D02*
X27940000Y41640000D01*
D45*
X46990000Y46970000D02*
X47010000Y46990000D01*
X43105000Y40640000D02*
X43105000Y43085000D01*
X43105000Y43085000D02*
X47010000Y46990000D01*
X46990000Y41640000D02*
X46990000Y46970000D01*
D44*
X28575000Y33180000D02*
X28575000Y35925000D01*
X28575000Y35925000D02*
X28305000Y36195000D01*
X28575000Y33180000D02*
X28575000Y34290000D01*
X28575000Y34290000D02*
X29210000Y34925000D01*
X45245000Y33655000D02*
X45720000Y33655000D01*
X45720000Y33655000D02*
X46355000Y34290000D01*
X45245000Y33655000D02*
X45450000Y33860000D01*
X45450000Y33860000D02*
X45450000Y36195000D01*
X43450000Y36195000D02*
X44450000Y36195000D01*
X26035000Y19370000D02*
X26035000Y20320000D01*
X48260000Y26940000D02*
X48260000Y27940000D01*
X41640000Y27305000D02*
X40640000Y27305000D01*
X33655000Y25670000D02*
X33655000Y26670000D01*
X46675000Y16510000D02*
X47625000Y16510000D01*
X26305000Y36195000D02*
X27305000Y36195000D01*
X27940000Y39640000D02*
X27940000Y40640000D01*
X46990000Y39640000D02*
X46990000Y40640000D01*
X29210000Y48675000D02*
X30260000Y48675000D01*
X30260000Y48675000D02*
X30480000Y48895000D01*
X35560000Y46990000D02*
X34925000Y46355000D01*
X36810000Y46990000D02*
X34925000Y46990000D01*
X36810000Y46990000D02*
X35560000Y46990000D01*
X35560000Y46990000D02*
X34925000Y47625000D01*
X38100000Y46990000D02*
X38735000Y46355000D01*
X36810000Y46990000D02*
X38735000Y46990000D01*
X36810000Y46990000D02*
X38100000Y46990000D01*
X38100000Y46990000D02*
X38735000Y47625000D01*
D45*
X36810000Y46990000D02*
X36195000Y46990000D01*
X36810000Y46990000D02*
X37465000Y46990000D01*
D44*
X29210000Y48675000D02*
X29625000Y48675000D01*
X22860000Y46830000D02*
X22860000Y45720000D01*
X30325000Y43815000D02*
X29210000Y43815000D01*
X29210000Y43815000D02*
X28575000Y43180000D01*
D45*
X36810000Y46990000D02*
X36830000Y46990000D01*
D44*
X33175000Y43815000D02*
X33655000Y43815000D01*
X33655000Y43815000D02*
X34290000Y43180000D01*
X33175000Y44815000D02*
X34020000Y44815000D01*
X34020000Y44815000D02*
X34290000Y45085000D01*
X48260000Y9795000D02*
X48260000Y8890000D01*
D45*
X36905000Y40640000D02*
X36810000Y40735000D01*
X36810000Y40735000D02*
X36810000Y46990000D01*
D44*
X29525000Y48260000D02*
X29210000Y48575000D01*
X30480000Y39790000D02*
X30480000Y40640000D01*
X44450000Y6190000D02*
X44450000Y7620000D01*
X43180000Y6190000D02*
X43180000Y3445000D01*
X43180000Y3445000D02*
X43450000Y3175000D01*
X45450000Y3175000D02*
X45720000Y3445000D01*
X45720000Y3445000D02*
X45720000Y6190000D01*
X53340000Y41595000D02*
X53340000Y42545000D01*
X54610000Y46830000D02*
X54610000Y45720000D01*
X54610000Y45720000D02*
X55245000Y45085000D01*
X54610000Y46830000D02*
X54770000Y46830000D01*
X54770000Y46830000D02*
X55880000Y45720000D01*
X60325000Y48575000D02*
X60325000Y47625000D01*
X73660000Y46990000D02*
X73025000Y46355000D01*
X74950000Y46990000D02*
X73025000Y46990000D01*
X74950000Y46990000D02*
X73660000Y46990000D01*
X73660000Y46990000D02*
X73025000Y47625000D01*
X76200000Y46990000D02*
X76835000Y46355000D01*
X74950000Y46990000D02*
X76835000Y46990000D01*
X74950000Y46990000D02*
X76200000Y46990000D01*
X76200000Y46990000D02*
X76835000Y47625000D01*
D45*
X74950000Y46990000D02*
X75565000Y46990000D01*
D44*
X57150000Y46625000D02*
X57150000Y45720000D01*
X60325000Y48575000D02*
X60640000Y48575000D01*
X55880000Y41640000D02*
X55880000Y42545000D01*
X54610000Y46830000D02*
X56945000Y46830000D01*
X56945000Y46830000D02*
X57150000Y46625000D01*
D45*
X69850000Y11590000D02*
X69850000Y13335000D01*
D44*
X60055000Y41640000D02*
X55880000Y41640000D01*
X61115000Y42815000D02*
X61115000Y42390000D01*
X61115000Y42390000D02*
X61595000Y41910000D01*
D45*
X74950000Y46990000D02*
X74950000Y46970000D01*
X71045000Y43085000D02*
X74950000Y46990000D01*
D44*
X61115000Y42815000D02*
X61115000Y43315000D01*
X61115000Y42815000D02*
X61115000Y42700000D01*
X61115000Y42700000D02*
X60055000Y41640000D01*
X73185000Y35990000D02*
X73390000Y36195000D01*
D45*
X74950000Y46990000D02*
X74950000Y41660000D01*
X74950000Y41660000D02*
X74930000Y41640000D01*
D44*
X56515000Y33180000D02*
X56515000Y35925000D01*
X56515000Y35925000D02*
X56245000Y36195000D01*
X56515000Y33180000D02*
X56515000Y34290000D01*
X56515000Y34290000D02*
X57150000Y34925000D01*
X73185000Y33655000D02*
X73660000Y33655000D01*
X73660000Y33655000D02*
X74295000Y34290000D01*
X73185000Y33655000D02*
X73185000Y35990000D01*
D45*
X71045000Y40640000D02*
X71045000Y43085000D01*
D44*
X76200000Y9795000D02*
X76200000Y10795000D01*
X74615000Y16510000D02*
X75565000Y16510000D01*
X76200000Y26940000D02*
X76200000Y27940000D01*
X61595000Y25670000D02*
X61595000Y26670000D01*
X69580000Y27305000D02*
X68580000Y27305000D01*
X54245000Y36195000D02*
X55245000Y36195000D01*
X55880000Y39640000D02*
X55880000Y40640000D01*
X50800000Y46830000D02*
X50800000Y45085000D01*
X57150000Y48625000D02*
X58150000Y48625000D01*
X58150000Y48625000D02*
X58420000Y48895000D01*
X66040000Y46990000D02*
X66675000Y46355000D01*
X64750000Y46990000D02*
X66675000Y46990000D01*
X64750000Y46990000D02*
X66040000Y46990000D01*
X66040000Y46990000D02*
X66675000Y47625000D01*
X63500000Y46990000D02*
X62865000Y46355000D01*
X64750000Y46990000D02*
X62865000Y46990000D01*
X64750000Y46990000D02*
X63500000Y46990000D01*
X63500000Y46990000D02*
X62865000Y47625000D01*
D45*
X64750000Y46990000D02*
X64135000Y46990000D01*
X64750000Y46990000D02*
X65405000Y46990000D01*
D44*
X56030000Y39790000D02*
X55880000Y39640000D01*
X57150000Y48625000D02*
X57515000Y48625000D01*
D45*
X64845000Y40640000D02*
X64750000Y40735000D01*
D44*
X72390000Y6190000D02*
X72390000Y7620000D01*
D45*
X64750000Y46990000D02*
X64750000Y46375000D01*
D44*
X61115000Y43815000D02*
X61595000Y43815000D01*
X61595000Y43815000D02*
X62230000Y43180000D01*
X61115000Y44815000D02*
X61960000Y44815000D01*
X61960000Y44815000D02*
X62230000Y45085000D01*
X58265000Y43315000D02*
X57285000Y43315000D01*
X57785000Y43815000D02*
X57150000Y43180000D01*
X57785000Y43815000D02*
X58265000Y43815000D01*
X57285000Y43315000D02*
X57150000Y43180000D01*
X71390000Y36195000D02*
X70485000Y36195000D01*
D45*
X64750000Y40735000D02*
X64750000Y46990000D01*
D44*
X74930000Y39640000D02*
X74930000Y38735000D01*
X53975000Y19370000D02*
X53975000Y18415000D01*
X58420000Y39790000D02*
X58420000Y40640000D01*
X70805000Y16510000D02*
X71755000Y16510000D01*
D45*
X73660000Y11590000D02*
X73660000Y13335000D01*
D44*
X73660000Y11590000D02*
X73865000Y11795000D01*
X73865000Y11795000D02*
X76200000Y11795000D01*
X67580000Y27305000D02*
X67785000Y27510000D01*
X67785000Y27510000D02*
X67785000Y29845000D01*
X63500000Y35925000D02*
X63500000Y36830000D01*
X59055000Y27780000D02*
X59055000Y26035000D01*
X59055000Y27780000D02*
X61485000Y27780000D01*
X61485000Y27780000D02*
X61595000Y27670000D01*
X67785000Y29845000D02*
X67310000Y29845000D01*
X67310000Y29845000D02*
X66675000Y29210000D01*
X64770000Y30165000D02*
X65090000Y29845000D01*
X65090000Y29845000D02*
X67785000Y29845000D01*
X71390000Y3175000D02*
X71120000Y3445000D01*
X71120000Y3445000D02*
X71120000Y6190000D01*
X73390000Y3175000D02*
X73660000Y3445000D01*
X73660000Y3445000D02*
X73660000Y6190000D01*
X70880000Y62230000D02*
X75210000Y66560000D01*
X65720000Y62230000D02*
X70880000Y62230000D01*
X66470000Y68060000D02*
X72110000Y68060000D01*
X65720000Y67310000D02*
X66470000Y68060000D01*
X67510000Y66560000D02*
X72110000Y66560000D01*
X65720000Y64770000D02*
X67510000Y66560000D01*
X25400000Y58424800D02*
X25400000Y58000536D01*
X25400000Y58000536D02*
X23914464Y56515000D01*
X23914464Y56515000D02*
X22238500Y56515000D01*
X21501250Y58006250D02*
X21501250Y57252250D01*
X21501250Y57252250D02*
X22238500Y56515000D01*
X14920000Y36195000D02*
X15524000Y36195000D01*
X15524000Y36195000D02*
X15934201Y35784799D01*
X15934201Y35784799D02*
X18388799Y35784799D01*
X18388799Y35784799D02*
X19415000Y36811000D01*
X19415000Y36811000D02*
X19415000Y37465000D01*
X19415000Y37465000D02*
X19415000Y33545000D01*
X19415000Y33545000D02*
X19050000Y33180000D01*
X14920000Y42545000D02*
X16290638Y42545000D01*
X19415000Y43161000D02*
X19415000Y43815000D01*
X16290638Y42545000D02*
X16700839Y42134799D01*
X16700839Y42134799D02*
X18388799Y42134799D01*
X18388799Y42134799D02*
X19415000Y43161000D01*
X15240000Y33180000D02*
X15240000Y33655000D01*
X15240000Y33655000D02*
X14239799Y34655201D01*
X14239799Y40960799D02*
X14920000Y41641000D01*
X14239799Y34655201D02*
X14239799Y40960799D01*
X14920000Y41641000D02*
X14920000Y42545000D01*
X22253500Y57150000D02*
X23495000Y57150000D01*
X22151250Y58006250D02*
X22151250Y57252250D01*
X22151250Y57252250D02*
X22253500Y57150000D01*
X22801250Y58006250D02*
X23908750Y58006250D01*
X23908750Y58006250D02*
X24130000Y57785000D01*
D43*
X5080000Y57515000D02*
X5080000Y58727000D01*
X5080000Y58727000D02*
X5080000Y65405000D01*
D44*
X29845000Y14526260D02*
X29845000Y21275000D01*
X29845000Y38735000D02*
X29210000Y38100000D01*
X29210000Y38100000D02*
X23495000Y38100000D01*
X32405000Y38735000D02*
X29845000Y38735000D01*
X33655000Y39685000D02*
X33355000Y39685000D01*
X33355000Y39685000D02*
X32405000Y38735000D01*
X33655000Y39685000D02*
X33655000Y40289000D01*
X33655000Y40289000D02*
X34920201Y41554201D01*
X34920201Y41554201D02*
X34920201Y43482497D01*
X34920201Y43482497D02*
X34044908Y44357790D01*
X34044908Y44357790D02*
X33217790Y44357790D01*
X33217790Y44357790D02*
X33175000Y44315000D01*
X57785000Y38735000D02*
X59741000Y38735000D01*
X59741000Y38735000D02*
X60691000Y39685000D01*
X60691000Y39685000D02*
X61595000Y39685000D01*
X57150000Y38100000D02*
X57785000Y38735000D01*
X51435000Y38100000D02*
X57150000Y38100000D01*
X62365000Y44315000D02*
X61115000Y44315000D01*
X62865000Y43815000D02*
X62365000Y44315000D01*
X62865000Y40955000D02*
X62865000Y43815000D01*
X61595000Y39685000D02*
X62865000Y40955000D01*
X30325000Y44315000D02*
X26886000Y44315000D01*
X26886000Y44315000D02*
X25400000Y45801000D01*
X25400000Y45801000D02*
X25400000Y46830000D01*
X25400000Y46830000D02*
X25400000Y43495000D01*
X25400000Y43495000D02*
X25535000Y43630000D01*
X73185000Y31115000D02*
X73185000Y32385000D01*
X73185000Y32385000D02*
X73500000Y32070000D01*
X73500000Y32070000D02*
X76200000Y32070000D01*
X23701250Y62156250D02*
X25891250Y62156250D01*
X25891250Y62156250D02*
X26035000Y62300000D01*
X6985000Y50800000D02*
X8255000Y52070000D01*
X6985000Y50800000D02*
X5715000Y52070000D01*
X6985000Y51435000D02*
X6350000Y52070000D01*
X6985000Y50140000D02*
X6985000Y51435000D01*
X6985000Y51435000D02*
X7620000Y52070000D01*
D43*
X6985000Y50140000D02*
X6985000Y52435000D01*
X6985000Y52435000D02*
X7890000Y53340000D01*
D44*
X53975000Y57465000D02*
X53975000Y58420000D01*
X51435000Y57465000D02*
X51435000Y58420000D01*
X63820000Y59690000D02*
X64770000Y59690000D01*
X28845000Y52070000D02*
X28845000Y51070000D01*
X28845000Y51070000D02*
X28575000Y50800000D01*
X26670000Y52230000D02*
X26670000Y53898287D01*
X26670000Y53898287D02*
X26664697Y53903590D01*
X21320000Y55245000D02*
X20320000Y55245000D01*
X20851250Y58006250D02*
X20851250Y56411250D01*
X20851250Y56411250D02*
X20320000Y55880000D01*
X21955000Y66040000D02*
X20955000Y66040000D01*
X75210000Y68060000D02*
X73775000Y68060000D01*
X73775000Y68060000D02*
X73660000Y67945000D01*
X21320000Y55245000D02*
X21320000Y54975000D01*
X20851250Y57253750D02*
X21320000Y56785000D01*
X21320000Y56785000D02*
X21320000Y55245000D01*
X63820000Y59690000D02*
X63820000Y59375000D01*
X20851250Y58006250D02*
X20851250Y57253750D01*
X13020000Y45085000D02*
X13020000Y45400000D01*
X13020000Y45400000D02*
X12700000Y45720000D01*
X17415000Y44765000D02*
X17415000Y44815000D01*
X17415000Y44815000D02*
X17145000Y45085000D01*
X13020000Y38608000D02*
X13020000Y39050000D01*
X13020000Y39050000D02*
X12700000Y39370000D01*
X17415000Y38415000D02*
X17415000Y38465000D01*
X17415000Y38465000D02*
X17145000Y38735000D01*
X28845000Y52070000D02*
X26830000Y52070000D01*
X26830000Y52070000D02*
X26670000Y52230000D01*
X56785000Y52070000D02*
X56785000Y52435000D01*
X56785000Y52435000D02*
X56515000Y52705000D01*
X56785000Y52070000D02*
X54770000Y52070000D01*
X54770000Y52070000D02*
X54610000Y52230000D01*
X51435000Y57465000D02*
X51120000Y57465000D01*
X53975000Y57465000D02*
X54290000Y57465000D01*
X21955000Y66040000D02*
X21955000Y66405000D01*
X21501250Y63706250D02*
X21501250Y64460250D01*
X21501250Y64460250D02*
X21811000Y64770000D01*
X21811000Y64770000D02*
X22225000Y64770000D01*
X21501250Y63706250D02*
X21501250Y65586250D01*
X21501250Y65586250D02*
X21955000Y66040000D01*
D45*
X6985000Y50140000D02*
X6985000Y49530000D01*
X6985000Y50140000D02*
X6985000Y50800000D01*
D44*
X75210000Y68060000D02*
X75325000Y67945000D01*
X54610000Y52230000D02*
X54610000Y53340000D01*
X15875000Y61960000D02*
X16328750Y61506250D01*
X16328750Y61506250D02*
X18001250Y61506250D01*
X34290000Y32065000D02*
X33335000Y32065000D01*
X33335000Y32065000D02*
X32385000Y31115000D01*
X31115000Y29845000D02*
X25130000Y29845000D01*
X24765000Y29480000D02*
X25130000Y29845000D01*
X24765000Y29480000D02*
X24765000Y25085000D01*
X25085000Y22220000D02*
X25085000Y24765000D01*
X24765000Y25085000D02*
X25085000Y24765000D01*
X26035000Y21270000D02*
X25085000Y22220000D01*
X28940000Y31480000D02*
X24765000Y31480000D01*
X29845000Y32385000D02*
X28940000Y31480000D01*
X29845000Y32385000D02*
X30480000Y31750000D01*
X33020000Y29210000D02*
X30480000Y31750000D01*
X36195000Y27305000D02*
X36830000Y26670000D01*
X36195000Y27305000D02*
X34290000Y29210000D01*
X34290000Y29210000D02*
X33020000Y29210000D01*
X36830000Y26670000D02*
X36830000Y24574500D01*
X29845000Y33180000D02*
X29845000Y32385000D01*
X29845000Y33180000D02*
X29845000Y34605000D01*
X29845000Y34605000D02*
X30800000Y35560000D01*
X35560000Y33925000D02*
X34335000Y33925000D01*
X36830000Y32065000D02*
X36830000Y32655000D01*
X36830000Y32655000D02*
X35560000Y33925000D01*
X37785000Y32065000D02*
X36830000Y32065000D01*
X38735000Y31115000D02*
X37785000Y32065000D01*
X34335000Y33925000D02*
X32700000Y35560000D01*
X39845000Y31115000D02*
X38735000Y31115000D01*
X48260000Y28940000D02*
X47355000Y29845000D01*
X45720000Y24574500D02*
X45245000Y25049500D01*
X45245000Y25049500D02*
X45245000Y29845000D01*
X47355000Y29845000D02*
X45245000Y29845000D01*
X61275000Y32065000D02*
X62230000Y32065000D01*
X60325000Y31115000D02*
X61275000Y32065000D01*
X58690000Y29480000D02*
X59055000Y29845000D01*
X52705000Y29480000D02*
X58690000Y29480000D01*
X52705000Y25085000D02*
X52705000Y29480000D01*
X53025000Y24765000D02*
X52705000Y25085000D01*
X53025000Y22220000D02*
X53025000Y24765000D01*
X53975000Y21270000D02*
X53025000Y22220000D01*
X52705000Y31480000D02*
X56880000Y31480000D01*
X56880000Y31480000D02*
X57785000Y32385000D01*
X57785000Y32385000D02*
X60960000Y29210000D01*
X60960000Y29210000D02*
X62230000Y29210000D01*
X62230000Y29210000D02*
X64770000Y26670000D01*
X57785000Y33180000D02*
X57785000Y34605000D01*
X57785000Y33180000D02*
X57785000Y32385000D01*
X64770000Y26670000D02*
X64770000Y24574500D01*
X57785000Y34605000D02*
X58740000Y35560000D01*
X62275000Y33925000D02*
X60640000Y35560000D01*
X63500000Y33925000D02*
X62275000Y33925000D01*
X63500000Y33925000D02*
X64770000Y32655000D01*
X64770000Y32655000D02*
X64770000Y32065000D01*
X64770000Y32065000D02*
X65725000Y32065000D01*
X65725000Y32065000D02*
X66675000Y31115000D01*
X66675000Y31115000D02*
X67785000Y31115000D01*
X75295000Y29845000D02*
X76200000Y28940000D01*
X73660000Y24574500D02*
X73185000Y25049500D01*
X73185000Y25049500D02*
X73185000Y29845000D01*
X73185000Y29845000D02*
X75295000Y29845000D01*
X65720000Y59690000D02*
X72610980Y59690000D01*
X40320000Y34130000D02*
X40320000Y36195000D01*
X38730000Y37785000D02*
X40320000Y36195000D01*
X33655000Y37785000D02*
X30585000Y37785000D01*
X30585000Y37785000D02*
X30480000Y37680000D01*
X33655000Y37785000D02*
X38730000Y37785000D01*
X39845000Y33655000D02*
X40320000Y34130000D01*
X61595000Y37785000D02*
X58525000Y37785000D01*
X58525000Y37785000D02*
X58420000Y37680000D01*
X61490000Y37680000D02*
X61595000Y37785000D01*
X61595000Y37785000D02*
X66670000Y37785000D01*
X66670000Y37785000D02*
X68260000Y36195000D01*
X68260000Y34130000D02*
X68260000Y36195000D01*
X67785000Y33655000D02*
X68260000Y34130000D01*
X23760319Y60147181D02*
X27736819Y60147181D01*
X27736819Y60147181D02*
X27940000Y59944000D01*
X37440652Y65719128D02*
X51564732Y65719128D01*
X51564732Y65719128D02*
X53155604Y67310000D01*
X53155604Y67310000D02*
X63820000Y67310000D01*
X23701250Y60206250D02*
X23760319Y60147181D01*
X35560000Y64770000D02*
X35859999Y65069999D01*
X35859999Y65069999D02*
X62916001Y65069999D01*
X63216000Y64770000D02*
X63820000Y64770000D01*
X62916001Y65069999D02*
X63216000Y64770000D01*
X24892000Y59556250D02*
X26028250Y59556250D01*
X23701250Y59556250D02*
X24892000Y59556250D01*
X26803750Y59556250D02*
X27178000Y59182000D01*
X24892000Y59556250D02*
X26803750Y59556250D01*
X26028250Y59556250D02*
X26035000Y59563000D01*
X63621024Y64968976D02*
X63820000Y64770000D01*
X37372802Y64227198D02*
X37118802Y64227198D01*
X37118802Y64227198D02*
X37084000Y64262000D01*
X37372802Y64227198D02*
X58962802Y64227198D01*
X60960000Y62230000D02*
X63820000Y62230000D01*
X59055000Y64135000D02*
X60960000Y62230000D01*
X58962802Y64227198D02*
X59055000Y64135000D01*
X26035000Y59055000D02*
X26670000Y58420000D01*
X24765000Y59055000D02*
X26035000Y59055000D01*
X24616250Y58906250D02*
X24765000Y59055000D01*
X23701250Y58906250D02*
X24616250Y58906250D01*
X23701250Y62806250D02*
X23701250Y63245250D01*
X25156000Y64700000D02*
X26035000Y64700000D01*
X23701250Y63245250D02*
X25156000Y64700000D01*
X25400000Y52230000D02*
X25400000Y53268590D01*
X25400000Y53268590D02*
X24765000Y53903590D01*
X53340000Y53340000D02*
X53340000Y52230000D01*
X53975000Y53975000D02*
X53340000Y53340000D01*
X20851250Y63706250D02*
X20851250Y64751305D01*
X20851250Y64751305D02*
X20871050Y64771105D01*
X53340000Y52230000D02*
X53340000Y54930000D01*
X53340000Y54930000D02*
X53975000Y55565000D01*
X13020000Y53340000D02*
X13020000Y60824362D01*
X13020000Y60824362D02*
X15901888Y63706250D01*
X15901888Y63706250D02*
X18901250Y63706250D01*
X18001250Y62806250D02*
X18901250Y63706250D01*
X24130000Y52230000D02*
X24130000Y53786187D01*
X24130000Y53786187D02*
X24012597Y53903590D01*
X51354000Y53975000D02*
X50800000Y53975000D01*
X49530000Y52705000D02*
X49530000Y53129264D01*
X49530000Y53129264D02*
X50375736Y53975000D01*
X50375736Y53975000D02*
X50800000Y53975000D01*
X52070000Y52230000D02*
X52070000Y53259000D01*
X52070000Y53259000D02*
X51354000Y53975000D01*
X52070000Y52230000D02*
X52070000Y53340000D01*
X52070000Y53340000D02*
X52070000Y54930000D01*
X18001250Y62156250D02*
X17247250Y62156250D01*
X17247250Y62156250D02*
X16998048Y62405452D01*
X16998048Y62405452D02*
X16998048Y62865000D01*
X52070000Y54930000D02*
X51435000Y55565000D01*
X18415000Y57785000D02*
X18064190Y57434190D01*
X18064190Y57434190D02*
X18064190Y53506413D01*
X18064190Y53506413D02*
X18264100Y53306503D01*
X18415000Y43815000D02*
X18365000Y43815000D01*
X18365000Y43815000D02*
X17415000Y42865000D01*
X17415000Y42865000D02*
X17365000Y42865000D01*
X17365000Y42865000D02*
X15145000Y45085000D01*
X15145000Y45085000D02*
X14920000Y45085000D01*
X18901250Y58006250D02*
X18636250Y58006250D01*
X18636250Y58006250D02*
X18415000Y57785000D01*
X18470599Y53919401D02*
X19050000Y53340000D01*
X19551250Y57016250D02*
X18470599Y55935599D01*
X18470599Y55935599D02*
X18470599Y53919401D01*
X17415000Y36515000D02*
X17365000Y36515000D01*
X17365000Y36515000D02*
X15272000Y38608000D01*
X15272000Y38608000D02*
X14920000Y38608000D01*
X18415000Y37465000D02*
X18365000Y37465000D01*
X18365000Y37465000D02*
X17415000Y36515000D01*
X19551250Y58006250D02*
X19551250Y57016250D01*
X11700000Y18805005D02*
X11700000Y21225000D01*
X16510000Y26035000D02*
X16510000Y27780000D01*
X11700000Y21225000D02*
X16510000Y26035000D01*
X11700000Y16185005D02*
X11700000Y18805005D01*
X13700000Y18805005D02*
X13700000Y21955000D01*
X17780000Y26035000D02*
X17780000Y27780000D01*
X13700000Y21955000D02*
X17780000Y26035000D01*
X13700000Y18805005D02*
X13700000Y16185005D01*
X57785000Y14526260D02*
X57785000Y21275000D01*
X15240000Y52949401D02*
X15240000Y53020000D01*
X15240000Y53020000D02*
X14920000Y53340000D01*
X17415000Y50480000D02*
X15240000Y50480000D01*
X15240000Y50480000D02*
X14920000Y50800000D01*
X14920000Y50800000D02*
X14920000Y51115000D01*
X14920000Y51115000D02*
X15240000Y51435000D01*
X16510000Y33180000D02*
X16510000Y34925000D01*
X15875000Y47625000D02*
X15555000Y47625000D01*
X15555000Y47625000D02*
X14920000Y48260000D01*
X17780000Y33180000D02*
X16510000Y33180000D01*
X14920000Y48260000D02*
X14920000Y48560000D01*
X14920000Y48560000D02*
X15890000Y49530000D01*
X15890000Y49530000D02*
X18711000Y49530000D01*
X18711000Y49530000D02*
X19415000Y49530000D01*
X29845000Y23175000D02*
X29845000Y27780000D01*
X28575000Y26355000D02*
X26985000Y24765000D01*
X28575000Y27780000D02*
X28575000Y26355000D01*
X35245000Y29210000D02*
X34290000Y30165000D01*
X35245000Y29210000D02*
X38100000Y26355000D01*
X38100000Y26355000D02*
X38100000Y22860000D01*
X38100000Y22415500D02*
X38100000Y22860000D01*
X35560000Y19875500D02*
X38100000Y22415500D01*
X34290000Y19875500D02*
X35560000Y19875500D01*
X38420000Y36195000D02*
X38100000Y35875000D01*
X38100000Y35875000D02*
X38100000Y33020000D01*
X38100000Y33020000D02*
X38735000Y32385000D01*
X46990000Y33020000D02*
X43815000Y33020000D01*
X46990000Y33020000D02*
X47940000Y33970000D01*
X48260000Y33970000D02*
X47940000Y33970000D01*
X43180000Y32385000D02*
X43815000Y33020000D01*
X41275000Y32385000D02*
X43180000Y32385000D01*
X39845000Y32385000D02*
X41275000Y32385000D01*
X38735000Y32385000D02*
X39845000Y32385000D01*
X45560000Y32070000D02*
X48260000Y32070000D01*
X45245000Y32385000D02*
X45560000Y32070000D01*
X45245000Y32385000D02*
X45245000Y31115000D01*
X48260000Y19875500D02*
X48575000Y19560500D01*
X48575000Y19560500D02*
X48575000Y16510000D01*
X44765000Y18290500D02*
X44765000Y16510000D01*
X43180000Y19875500D02*
X44765000Y18290500D01*
X24130000Y46830000D02*
X24130000Y47625000D01*
X24130000Y47625000D02*
X24765000Y48260000D01*
X27940000Y47625000D02*
X31135000Y47625000D01*
X24765000Y48260000D02*
X27305000Y48260000D01*
X27305000Y48260000D02*
X27940000Y47625000D01*
X31135000Y47625000D02*
X32085000Y46675000D01*
X32085000Y46675000D02*
X32385000Y46675000D01*
X32385000Y46675000D02*
X31806000Y46675000D01*
X31806000Y46675000D02*
X30325000Y45194000D01*
X30325000Y45194000D02*
X30325000Y44815000D01*
X57785000Y23175000D02*
X57785000Y27780000D01*
X54925000Y24765000D02*
X56515000Y26355000D01*
X56515000Y26355000D02*
X56515000Y27780000D01*
X66040000Y26355000D02*
X62230000Y30165000D01*
X66040000Y22225000D02*
X66040000Y26355000D01*
X63690500Y19875500D02*
X66040000Y22225000D01*
X62230000Y19875500D02*
X63690500Y19875500D01*
X66360000Y36195000D02*
X66040000Y35875000D01*
X66040000Y35875000D02*
X66040000Y33020000D01*
X66040000Y33020000D02*
X66675000Y32385000D01*
X66675000Y32385000D02*
X67785000Y32385000D01*
X67785000Y32385000D02*
X71120000Y32385000D01*
X75250000Y33020000D02*
X76200000Y33970000D01*
X71755000Y33020000D02*
X75250000Y33020000D01*
X71120000Y32385000D02*
X71755000Y33020000D01*
X76515000Y16510000D02*
X76515000Y19560500D01*
X76515000Y19560500D02*
X76200000Y19875500D01*
X72705000Y18290500D02*
X72705000Y16510000D01*
X71120000Y19875500D02*
X72705000Y18290500D01*
X52070000Y47625000D02*
X52070000Y46830000D01*
X52705000Y48260000D02*
X52070000Y47625000D01*
X55245000Y48260000D02*
X52705000Y48260000D01*
X55880000Y47625000D02*
X55245000Y48260000D01*
X58471000Y47625000D02*
X55880000Y47625000D01*
X60325000Y46675000D02*
X59421000Y46675000D01*
X59421000Y46675000D02*
X58471000Y47625000D01*
X58265000Y44815000D02*
X58265000Y45194000D01*
X58265000Y45194000D02*
X59746000Y46675000D01*
X59746000Y46675000D02*
X60325000Y46675000D01*
X58265000Y44315000D02*
X57785000Y44315000D01*
X53340000Y46830000D02*
X53340000Y46057302D01*
X53340000Y46057302D02*
X55082302Y44315000D01*
X55082302Y44315000D02*
X57785000Y44315000D01*
X53340000Y46830000D02*
X53340000Y43495000D01*
D45*
X33655000Y52340000D02*
X36540000Y52340000D01*
X36540000Y52340000D02*
X36810000Y52070000D01*
X33655000Y52340000D02*
X33530000Y52340000D01*
X33530000Y52340000D02*
X30355000Y55515000D01*
X30355000Y55515000D02*
X29845000Y55515000D01*
X36810000Y51810000D02*
X36810000Y52070000D01*
X61595000Y52340000D02*
X64480000Y52340000D01*
X64480000Y52340000D02*
X64750000Y52070000D01*
X57785000Y55515000D02*
X57785000Y55465000D01*
X57785000Y55465000D02*
X60910000Y52340000D01*
X60910000Y52340000D02*
X61595000Y52340000D01*
D44*
X61595000Y52340000D02*
X61865000Y52070000D01*
X30347078Y62865000D02*
X31796000Y62865000D01*
X31796000Y62865000D02*
X32751000Y61910000D01*
X32751000Y61910000D02*
X33655000Y61910000D01*
X29845000Y61557078D02*
X29845000Y62362922D01*
X29845000Y62362922D02*
X30347078Y62865000D01*
X23701250Y60856250D02*
X24294000Y60856250D01*
X24294000Y60856250D02*
X24596659Y60553591D01*
X24596659Y60553591D02*
X28841513Y60553591D01*
X28841513Y60553591D02*
X29845000Y61557078D01*
X29210000Y63500000D02*
X48941000Y63500000D01*
X22801250Y63706250D02*
X23240250Y63706250D01*
X27258521Y65179401D02*
X28937922Y63500000D01*
X23240250Y63706250D02*
X24713401Y65179401D01*
X24713401Y65179401D02*
X27258521Y65179401D01*
X28937922Y63500000D02*
X29210000Y63500000D01*
X48941000Y63500000D02*
X50531000Y61910000D01*
X50531000Y61910000D02*
X51435000Y61910000D01*
X32041000Y60010000D02*
X32065000Y60010000D01*
X32065000Y60010000D02*
X33655000Y60010000D01*
X30795000Y61960000D02*
X30795000Y61256000D01*
X30795000Y61256000D02*
X32041000Y60010000D01*
X36830000Y61910000D02*
X36530000Y61910000D01*
X36530000Y61910000D02*
X35926000Y61306000D01*
X35926000Y61306000D02*
X35926000Y60778078D01*
X30499000Y59960000D02*
X29845000Y59960000D01*
X35926000Y60778078D02*
X34528521Y59380599D01*
X34528521Y59380599D02*
X31078401Y59380599D01*
X31078401Y59380599D02*
X30499000Y59960000D01*
X29845000Y58515000D02*
X29845000Y59960000D01*
X30795000Y57515000D02*
X30795000Y57565000D01*
X30795000Y57565000D02*
X29845000Y58515000D01*
X53427078Y62865000D02*
X57176000Y62865000D01*
X57176000Y62865000D02*
X58081000Y61960000D01*
X58081000Y61960000D02*
X58735000Y61960000D01*
X52705000Y60980000D02*
X52705000Y62142922D01*
X52705000Y62142922D02*
X53427078Y62865000D01*
X51435000Y60010000D02*
X51735000Y60010000D01*
X51735000Y60010000D02*
X52705000Y60980000D01*
X57515000Y59960000D02*
X55565000Y61910000D01*
X55565000Y61910000D02*
X53975000Y61910000D01*
X57785000Y59960000D02*
X57515000Y59960000D01*
X57785000Y58515000D02*
X57785000Y59960000D01*
X58735000Y57515000D02*
X58735000Y57565000D01*
X58735000Y57565000D02*
X57785000Y58515000D01*
M02*
