G04 #@! TF.FileFunction,Copper,L3,Inr,Plane*
%FSLAX46Y46*%
G04 Gerber Fmt 4.6, Leading zero omitted, Abs format (unit mm)*
G04 Created by KiCad (PCBNEW 4.0.2+dfsg1-stable) date Tue 31 Jul 2018 07:20:09 PM EDT*
%MOMM*%
G01*
G04 APERTURE LIST*
%ADD10C,0.127000*%
%ADD11R,1.700000X1.700000*%
%ADD12O,1.700000X1.700000*%
%ADD13C,1.420000*%
%ADD14C,2.800000*%
%ADD15R,2.300000X2.300000*%
%ADD16C,2.300000*%
%ADD17O,3.500120X7.000240*%
%ADD18O,1.600200X2.499360*%
%ADD19C,0.600000*%
%ADD20C,0.254000*%
G04 APERTURE END LIST*
D10*
D11*
X33655000Y67310000D03*
D12*
X36195000Y67310000D03*
X38735000Y67310000D03*
X41275000Y67310000D03*
X43815000Y67310000D03*
X46355000Y67310000D03*
D13*
X9200000Y19440005D03*
X11700000Y19440005D03*
X13700000Y19440005D03*
X16200000Y19440005D03*
X9200000Y16820005D03*
X11700000Y16820005D03*
X13700000Y16820005D03*
X16200000Y16820005D03*
D14*
X19270000Y14110005D03*
X19270000Y19790005D03*
X6130000Y19790005D03*
X6130000Y14110005D03*
D15*
X5080000Y65405000D03*
D16*
X7620000Y65405000D03*
D17*
X34942780Y10261600D03*
X24744680Y10261600D03*
D18*
X29845000Y14526260D03*
X32344360Y14526260D03*
D17*
X62882780Y10261600D03*
X52684680Y10261600D03*
D18*
X57785000Y14526260D03*
X60284360Y14526260D03*
D19*
X5080000Y56515000D03*
X8255000Y56515000D03*
X8890000Y53340000D03*
X10795000Y50165000D03*
X10795000Y50800000D03*
X10795000Y51435000D03*
X10160000Y52070000D03*
X9525000Y52070000D03*
X9007403Y52070000D03*
X57785000Y60960000D03*
X15240000Y26035000D03*
X19050000Y24130000D03*
X38735000Y53975000D03*
X38735000Y54610000D03*
X38735000Y55245000D03*
X34925000Y53975000D03*
X34925000Y54610000D03*
X34925000Y55245000D03*
X32385000Y55245000D03*
X31115000Y50800000D03*
X22860000Y53903590D03*
X20320000Y54492597D03*
X20262417Y56641826D03*
X15875000Y60960000D03*
X27711756Y63906756D03*
X18415000Y66040000D03*
X63500000Y55880000D03*
X64135000Y55880000D03*
X64770000Y55880000D03*
X65405000Y55880000D03*
X66040000Y55880000D03*
X66675000Y53975000D03*
X66675000Y54610000D03*
X66675000Y55245000D03*
X61595000Y53340000D03*
X73662822Y59690000D03*
X24638000Y61468000D03*
X27940000Y62865000D03*
X17780000Y48260000D03*
X12700000Y50165000D03*
X59055000Y52705000D03*
X50800000Y53340000D03*
X35560000Y34925000D03*
X43815000Y16510000D03*
X38100000Y29210000D03*
X45720000Y13335000D03*
X31115000Y26035000D03*
X25400000Y42545000D03*
X45085000Y46355000D03*
X45085000Y46990000D03*
X45085000Y47625000D03*
X48895000Y46355000D03*
X48895000Y46990000D03*
X48895000Y47625000D03*
X32385000Y47625000D03*
X26670000Y45720000D03*
X29273438Y45783438D03*
X41910000Y13335000D03*
X33655000Y41910000D03*
X29210000Y34925000D03*
X46355000Y34290000D03*
X44450000Y36195000D03*
X26035000Y20320000D03*
X48260000Y27940000D03*
X40640000Y27305000D03*
X33655000Y26670000D03*
X47625000Y16510000D03*
X27305000Y36195000D03*
X27940000Y40640000D03*
X46990000Y40640000D03*
X30480000Y48895000D03*
X34925000Y46355000D03*
X34925000Y46990000D03*
X34925000Y47625000D03*
X38735000Y46355000D03*
X38735000Y46990000D03*
X38735000Y47625000D03*
X22860000Y45720000D03*
X28575000Y43180000D03*
X34290000Y43180000D03*
X34290000Y45085000D03*
X48260000Y8890000D03*
X30480000Y40640000D03*
X44450000Y7620000D03*
X53340000Y42545000D03*
X55245000Y45085000D03*
X55880000Y45720000D03*
X60325000Y47625000D03*
X73025000Y46355000D03*
X73025000Y46990000D03*
X73025000Y47625000D03*
X76835000Y46355000D03*
X76835000Y46990000D03*
X76835000Y47625000D03*
X57150000Y45720000D03*
X55880000Y42545000D03*
X69850000Y13335000D03*
X61595000Y41910000D03*
X57150000Y34925000D03*
X74295000Y34290000D03*
X76200000Y10795000D03*
X75565000Y16510000D03*
X76200000Y27940000D03*
X61595000Y26670000D03*
X68580000Y27305000D03*
X55245000Y36195000D03*
X55880000Y40640000D03*
X50800000Y45085000D03*
X58420000Y48895000D03*
X66675000Y46355000D03*
X66675000Y46990000D03*
X66675000Y47625000D03*
X62865000Y46355000D03*
X62865000Y46990000D03*
X62865000Y47625000D03*
X72390000Y7620000D03*
X62230000Y43180000D03*
X62230000Y45085000D03*
X57150000Y43180000D03*
X70485000Y36195000D03*
X74930000Y38735000D03*
X53975000Y18415000D03*
X58420000Y40640000D03*
X71755000Y16510000D03*
X73660000Y13335000D03*
X63500000Y36830000D03*
X59055000Y26035000D03*
X66675000Y29210000D03*
X25400000Y58424800D03*
X23495000Y57150000D03*
X24130000Y57785000D03*
X8255000Y52070000D03*
X5715000Y52070000D03*
X6350000Y52070000D03*
X7620000Y52070000D03*
X53975000Y58420000D03*
X51435000Y58420000D03*
X64770000Y59690000D03*
X28575000Y50800000D03*
X26664697Y53903590D03*
X20320000Y55245000D03*
X20320000Y55880000D03*
X20955000Y66040000D03*
X73660000Y67945000D03*
X12700000Y45720000D03*
X17145000Y45085000D03*
X12700000Y39370000D03*
X17145000Y38735000D03*
X56515000Y52705000D03*
X22225000Y64770000D03*
X54610000Y53340000D03*
X32385000Y31115000D03*
X31115000Y29845000D03*
X60325000Y31115000D03*
X59055000Y29845000D03*
X27940000Y59944000D03*
X37440652Y65719128D03*
X35560000Y64770000D03*
X27178000Y59182000D03*
X37084000Y64262000D03*
X26670000Y58420000D03*
X24765000Y53903590D03*
X53975000Y53975000D03*
X20871050Y64771105D03*
X24012597Y53903590D03*
X49530000Y52705000D03*
X16998048Y62865000D03*
X18264100Y53306503D03*
X18415000Y43815000D03*
X19050000Y53340000D03*
X18415000Y37465000D03*
X15240000Y52949401D03*
X15240000Y51435000D03*
X16510000Y34925000D03*
X15875000Y47625000D03*
D20*
G36*
X29903013Y49281259D02*
X29799118Y49031054D01*
X29798882Y48760135D01*
X29902339Y48509748D01*
X30093741Y48318013D01*
X30343946Y48214118D01*
X30614865Y48213882D01*
X30865252Y48317339D01*
X31056987Y48508741D01*
X31160882Y48758946D01*
X31161118Y49029865D01*
X31057661Y49280252D01*
X30935126Y49403000D01*
X49149000Y49403000D01*
X49149000Y456000D01*
X21717000Y456000D01*
X21717000Y12087696D01*
X22613620Y12087696D01*
X22613620Y8435504D01*
X22775837Y7619983D01*
X23237793Y6928617D01*
X23929159Y6466661D01*
X24744680Y6304444D01*
X25560201Y6466661D01*
X26251567Y6928617D01*
X26713523Y7619983D01*
X26875740Y8435504D01*
X26875740Y12087696D01*
X26713523Y12903217D01*
X26251567Y13594583D01*
X25560201Y14056539D01*
X24744680Y14218756D01*
X23929159Y14056539D01*
X23237793Y13594583D01*
X22775837Y12903217D01*
X22613620Y12087696D01*
X21717000Y12087696D01*
X21717000Y15007787D01*
X28663900Y15007787D01*
X28663900Y14044733D01*
X28753806Y13592746D01*
X29009836Y13209569D01*
X29393013Y12953539D01*
X29845000Y12863633D01*
X30296987Y12953539D01*
X30680164Y13209569D01*
X30936194Y13592746D01*
X31026100Y14044733D01*
X31026100Y15007787D01*
X31163260Y15007787D01*
X31163260Y14044733D01*
X31253166Y13592746D01*
X31509196Y13209569D01*
X31892373Y12953539D01*
X32344360Y12863633D01*
X32796347Y12953539D01*
X33177918Y13208496D01*
X32973937Y12903217D01*
X32811720Y12087696D01*
X32811720Y8435504D01*
X32973937Y7619983D01*
X33435893Y6928617D01*
X34127259Y6466661D01*
X34942780Y6304444D01*
X35758301Y6466661D01*
X36449667Y6928617D01*
X36821520Y7485135D01*
X43768882Y7485135D01*
X43872339Y7234748D01*
X44063741Y7043013D01*
X44313946Y6939118D01*
X44584865Y6938882D01*
X44835252Y7042339D01*
X45026987Y7233741D01*
X45130882Y7483946D01*
X45131118Y7754865D01*
X45027661Y8005252D01*
X44836259Y8196987D01*
X44586054Y8300882D01*
X44315135Y8301118D01*
X44064748Y8197661D01*
X43873013Y8006259D01*
X43769118Y7756054D01*
X43768882Y7485135D01*
X36821520Y7485135D01*
X36911623Y7619983D01*
X37073840Y8435504D01*
X37073840Y8755135D01*
X47578882Y8755135D01*
X47682339Y8504748D01*
X47873741Y8313013D01*
X48123946Y8209118D01*
X48394865Y8208882D01*
X48645252Y8312339D01*
X48836987Y8503741D01*
X48940882Y8753946D01*
X48941118Y9024865D01*
X48837661Y9275252D01*
X48646259Y9466987D01*
X48396054Y9570882D01*
X48125135Y9571118D01*
X47874748Y9467661D01*
X47683013Y9276259D01*
X47579118Y9026054D01*
X47578882Y8755135D01*
X37073840Y8755135D01*
X37073840Y12087696D01*
X36911623Y12903217D01*
X36713229Y13200135D01*
X45038882Y13200135D01*
X45142339Y12949748D01*
X45333741Y12758013D01*
X45583946Y12654118D01*
X45854865Y12653882D01*
X46105252Y12757339D01*
X46296987Y12948741D01*
X46400882Y13198946D01*
X46401118Y13469865D01*
X46297661Y13720252D01*
X46106259Y13911987D01*
X45856054Y14015882D01*
X45585135Y14016118D01*
X45334748Y13912661D01*
X45143013Y13721259D01*
X45039118Y13471054D01*
X45038882Y13200135D01*
X36713229Y13200135D01*
X36449667Y13594583D01*
X35758301Y14056539D01*
X34942780Y14218756D01*
X34127259Y14056539D01*
X33435923Y13594603D01*
X33525460Y14044733D01*
X33525460Y15007787D01*
X33435554Y15459774D01*
X33179524Y15842951D01*
X32796347Y16098981D01*
X32344360Y16188887D01*
X31892373Y16098981D01*
X31509196Y15842951D01*
X31253166Y15459774D01*
X31163260Y15007787D01*
X31026100Y15007787D01*
X30936194Y15459774D01*
X30680164Y15842951D01*
X30296987Y16098981D01*
X29845000Y16188887D01*
X29393013Y16098981D01*
X29009836Y15842951D01*
X28753806Y15459774D01*
X28663900Y15007787D01*
X21717000Y15007787D01*
X21717000Y16375135D01*
X43133882Y16375135D01*
X43237339Y16124748D01*
X43428741Y15933013D01*
X43678946Y15829118D01*
X43949865Y15828882D01*
X44200252Y15932339D01*
X44391987Y16123741D01*
X44495882Y16373946D01*
X44495883Y16375135D01*
X46943882Y16375135D01*
X47047339Y16124748D01*
X47238741Y15933013D01*
X47488946Y15829118D01*
X47759865Y15828882D01*
X48010252Y15932339D01*
X48201987Y16123741D01*
X48305882Y16373946D01*
X48306118Y16644865D01*
X48202661Y16895252D01*
X48011259Y17086987D01*
X47761054Y17190882D01*
X47490135Y17191118D01*
X47239748Y17087661D01*
X47048013Y16896259D01*
X46944118Y16646054D01*
X46943882Y16375135D01*
X44495883Y16375135D01*
X44496118Y16644865D01*
X44392661Y16895252D01*
X44201259Y17086987D01*
X43951054Y17190882D01*
X43680135Y17191118D01*
X43429748Y17087661D01*
X43238013Y16896259D01*
X43134118Y16646054D01*
X43133882Y16375135D01*
X21717000Y16375135D01*
X21717000Y20185135D01*
X25353882Y20185135D01*
X25457339Y19934748D01*
X25648741Y19743013D01*
X25898946Y19639118D01*
X26169865Y19638882D01*
X26420252Y19742339D01*
X26611987Y19933741D01*
X26715882Y20183946D01*
X26716118Y20454865D01*
X26612661Y20705252D01*
X26421259Y20896987D01*
X26171054Y21000882D01*
X25900135Y21001118D01*
X25649748Y20897661D01*
X25458013Y20706259D01*
X25354118Y20456054D01*
X25353882Y20185135D01*
X21717000Y20185135D01*
X21717000Y25900135D01*
X30433882Y25900135D01*
X30537339Y25649748D01*
X30728741Y25458013D01*
X30978946Y25354118D01*
X31249865Y25353882D01*
X31500252Y25457339D01*
X31691987Y25648741D01*
X31795882Y25898946D01*
X31796118Y26169865D01*
X31692661Y26420252D01*
X31577978Y26535135D01*
X32973882Y26535135D01*
X33077339Y26284748D01*
X33268741Y26093013D01*
X33518946Y25989118D01*
X33789865Y25988882D01*
X34040252Y26092339D01*
X34231987Y26283741D01*
X34335882Y26533946D01*
X34336118Y26804865D01*
X34232661Y27055252D01*
X34117978Y27170135D01*
X39958882Y27170135D01*
X40062339Y26919748D01*
X40253741Y26728013D01*
X40503946Y26624118D01*
X40774865Y26623882D01*
X41025252Y26727339D01*
X41216987Y26918741D01*
X41320882Y27168946D01*
X41321118Y27439865D01*
X41217661Y27690252D01*
X41102978Y27805135D01*
X47578882Y27805135D01*
X47682339Y27554748D01*
X47873741Y27363013D01*
X48123946Y27259118D01*
X48394865Y27258882D01*
X48645252Y27362339D01*
X48836987Y27553741D01*
X48940882Y27803946D01*
X48941118Y28074865D01*
X48837661Y28325252D01*
X48646259Y28516987D01*
X48396054Y28620882D01*
X48125135Y28621118D01*
X47874748Y28517661D01*
X47683013Y28326259D01*
X47579118Y28076054D01*
X47578882Y27805135D01*
X41102978Y27805135D01*
X41026259Y27881987D01*
X40776054Y27985882D01*
X40505135Y27986118D01*
X40254748Y27882661D01*
X40063013Y27691259D01*
X39959118Y27441054D01*
X39958882Y27170135D01*
X34117978Y27170135D01*
X34041259Y27246987D01*
X33791054Y27350882D01*
X33520135Y27351118D01*
X33269748Y27247661D01*
X33078013Y27056259D01*
X32974118Y26806054D01*
X32973882Y26535135D01*
X31577978Y26535135D01*
X31501259Y26611987D01*
X31251054Y26715882D01*
X30980135Y26716118D01*
X30729748Y26612661D01*
X30538013Y26421259D01*
X30434118Y26171054D01*
X30433882Y25900135D01*
X21717000Y25900135D01*
X21717000Y29075135D01*
X37418882Y29075135D01*
X37522339Y28824748D01*
X37713741Y28633013D01*
X37963946Y28529118D01*
X38234865Y28528882D01*
X38485252Y28632339D01*
X38676987Y28823741D01*
X38780882Y29073946D01*
X38781118Y29344865D01*
X38677661Y29595252D01*
X38486259Y29786987D01*
X38236054Y29890882D01*
X37965135Y29891118D01*
X37714748Y29787661D01*
X37523013Y29596259D01*
X37419118Y29346054D01*
X37418882Y29075135D01*
X21717000Y29075135D01*
X21717000Y29710135D01*
X30433882Y29710135D01*
X30537339Y29459748D01*
X30728741Y29268013D01*
X30978946Y29164118D01*
X31249865Y29163882D01*
X31500252Y29267339D01*
X31691987Y29458741D01*
X31795882Y29708946D01*
X31796118Y29979865D01*
X31692661Y30230252D01*
X31501259Y30421987D01*
X31251054Y30525882D01*
X30980135Y30526118D01*
X30729748Y30422661D01*
X30538013Y30231259D01*
X30434118Y29981054D01*
X30433882Y29710135D01*
X21717000Y29710135D01*
X21717000Y30980135D01*
X31703882Y30980135D01*
X31807339Y30729748D01*
X31998741Y30538013D01*
X32248946Y30434118D01*
X32519865Y30433882D01*
X32770252Y30537339D01*
X32961987Y30728741D01*
X33065882Y30978946D01*
X33066118Y31249865D01*
X32962661Y31500252D01*
X32771259Y31691987D01*
X32521054Y31795882D01*
X32250135Y31796118D01*
X31999748Y31692661D01*
X31808013Y31501259D01*
X31704118Y31251054D01*
X31703882Y30980135D01*
X21717000Y30980135D01*
X21717000Y34790135D01*
X34878882Y34790135D01*
X34982339Y34539748D01*
X35173741Y34348013D01*
X35423946Y34244118D01*
X35694865Y34243882D01*
X35945252Y34347339D01*
X36136987Y34538741D01*
X36240882Y34788946D01*
X36241118Y35059865D01*
X36137661Y35310252D01*
X35946259Y35501987D01*
X35696054Y35605882D01*
X35425135Y35606118D01*
X35174748Y35502661D01*
X34983013Y35311259D01*
X34879118Y35061054D01*
X34878882Y34790135D01*
X21717000Y34790135D01*
X21717000Y36060135D01*
X26623882Y36060135D01*
X26727339Y35809748D01*
X26918741Y35618013D01*
X27168946Y35514118D01*
X27439865Y35513882D01*
X27690252Y35617339D01*
X27881987Y35808741D01*
X27985882Y36058946D01*
X27985883Y36060135D01*
X43768882Y36060135D01*
X43872339Y35809748D01*
X44063741Y35618013D01*
X44313946Y35514118D01*
X44584865Y35513882D01*
X44835252Y35617339D01*
X45026987Y35808741D01*
X45130882Y36058946D01*
X45131118Y36329865D01*
X45027661Y36580252D01*
X44836259Y36771987D01*
X44586054Y36875882D01*
X44315135Y36876118D01*
X44064748Y36772661D01*
X43873013Y36581259D01*
X43769118Y36331054D01*
X43768882Y36060135D01*
X27985883Y36060135D01*
X27986118Y36329865D01*
X27882661Y36580252D01*
X27691259Y36771987D01*
X27441054Y36875882D01*
X27170135Y36876118D01*
X26919748Y36772661D01*
X26728013Y36581259D01*
X26624118Y36331054D01*
X26623882Y36060135D01*
X21717000Y36060135D01*
X21717000Y40505135D01*
X27258882Y40505135D01*
X27362339Y40254748D01*
X27553741Y40063013D01*
X27803946Y39959118D01*
X28074865Y39958882D01*
X28325252Y40062339D01*
X28516987Y40253741D01*
X28620882Y40503946D01*
X28620883Y40505135D01*
X29798882Y40505135D01*
X29902339Y40254748D01*
X30093741Y40063013D01*
X30343946Y39959118D01*
X30614865Y39958882D01*
X30865252Y40062339D01*
X31056987Y40253741D01*
X31160882Y40503946D01*
X31160883Y40505135D01*
X46308882Y40505135D01*
X46412339Y40254748D01*
X46603741Y40063013D01*
X46853946Y39959118D01*
X47124865Y39958882D01*
X47375252Y40062339D01*
X47566987Y40253741D01*
X47670882Y40503946D01*
X47671118Y40774865D01*
X47567661Y41025252D01*
X47376259Y41216987D01*
X47126054Y41320882D01*
X46855135Y41321118D01*
X46604748Y41217661D01*
X46413013Y41026259D01*
X46309118Y40776054D01*
X46308882Y40505135D01*
X31160883Y40505135D01*
X31161118Y40774865D01*
X31057661Y41025252D01*
X30866259Y41216987D01*
X30616054Y41320882D01*
X30345135Y41321118D01*
X30094748Y41217661D01*
X29903013Y41026259D01*
X29799118Y40776054D01*
X29798882Y40505135D01*
X28620883Y40505135D01*
X28621118Y40774865D01*
X28517661Y41025252D01*
X28326259Y41216987D01*
X28076054Y41320882D01*
X27805135Y41321118D01*
X27554748Y41217661D01*
X27363013Y41026259D01*
X27259118Y40776054D01*
X27258882Y40505135D01*
X21717000Y40505135D01*
X21717000Y43045135D01*
X27893882Y43045135D01*
X27997339Y42794748D01*
X28188741Y42603013D01*
X28438946Y42499118D01*
X28709865Y42498882D01*
X28960252Y42602339D01*
X29151987Y42793741D01*
X29255882Y43043946D01*
X29255883Y43045135D01*
X33608882Y43045135D01*
X33712339Y42794748D01*
X33903741Y42603013D01*
X34153946Y42499118D01*
X34424865Y42498882D01*
X34675252Y42602339D01*
X34866987Y42793741D01*
X34970882Y43043946D01*
X34971118Y43314865D01*
X34867661Y43565252D01*
X34676259Y43756987D01*
X34426054Y43860882D01*
X34155135Y43861118D01*
X33904748Y43757661D01*
X33713013Y43566259D01*
X33609118Y43316054D01*
X33608882Y43045135D01*
X29255883Y43045135D01*
X29256118Y43314865D01*
X29152661Y43565252D01*
X28961259Y43756987D01*
X28711054Y43860882D01*
X28440135Y43861118D01*
X28189748Y43757661D01*
X27998013Y43566259D01*
X27894118Y43316054D01*
X27893882Y43045135D01*
X21717000Y43045135D01*
X21717000Y44950135D01*
X33608882Y44950135D01*
X33712339Y44699748D01*
X33903741Y44508013D01*
X34153946Y44404118D01*
X34424865Y44403882D01*
X34675252Y44507339D01*
X34866987Y44698741D01*
X34970882Y44948946D01*
X34971118Y45219865D01*
X34867661Y45470252D01*
X34676259Y45661987D01*
X34426054Y45765882D01*
X34155135Y45766118D01*
X33904748Y45662661D01*
X33713013Y45471259D01*
X33609118Y45221054D01*
X33608882Y44950135D01*
X21717000Y44950135D01*
X21717000Y45585135D01*
X22178882Y45585135D01*
X22282339Y45334748D01*
X22473741Y45143013D01*
X22723946Y45039118D01*
X22994865Y45038882D01*
X23245252Y45142339D01*
X23436987Y45333741D01*
X23540882Y45583946D01*
X23541118Y45854865D01*
X23437661Y46105252D01*
X23246259Y46296987D01*
X22996054Y46400882D01*
X22725135Y46401118D01*
X22474748Y46297661D01*
X22283013Y46106259D01*
X22179118Y45856054D01*
X22178882Y45585135D01*
X21717000Y45585135D01*
X21717000Y47490135D01*
X34243882Y47490135D01*
X34319403Y47307359D01*
X34244118Y47126054D01*
X34243882Y46855135D01*
X34319403Y46672359D01*
X34244118Y46491054D01*
X34243882Y46220135D01*
X34347339Y45969748D01*
X34538741Y45778013D01*
X34788946Y45674118D01*
X35059865Y45673882D01*
X35310252Y45777339D01*
X35501987Y45968741D01*
X35605882Y46218946D01*
X35606118Y46489865D01*
X35530597Y46672641D01*
X35605882Y46853946D01*
X35606118Y47124865D01*
X35530597Y47307641D01*
X35605882Y47488946D01*
X35605883Y47490135D01*
X38053882Y47490135D01*
X38129403Y47307359D01*
X38054118Y47126054D01*
X38053882Y46855135D01*
X38129403Y46672359D01*
X38054118Y46491054D01*
X38053882Y46220135D01*
X38157339Y45969748D01*
X38348741Y45778013D01*
X38598946Y45674118D01*
X38869865Y45673882D01*
X39120252Y45777339D01*
X39311987Y45968741D01*
X39415882Y46218946D01*
X39416118Y46489865D01*
X39340597Y46672641D01*
X39415882Y46853946D01*
X39416118Y47124865D01*
X39340597Y47307641D01*
X39415882Y47488946D01*
X39416118Y47759865D01*
X39312661Y48010252D01*
X39121259Y48201987D01*
X38871054Y48305882D01*
X38600135Y48306118D01*
X38349748Y48202661D01*
X38158013Y48011259D01*
X38054118Y47761054D01*
X38053882Y47490135D01*
X35605883Y47490135D01*
X35606118Y47759865D01*
X35502661Y48010252D01*
X35311259Y48201987D01*
X35061054Y48305882D01*
X34790135Y48306118D01*
X34539748Y48202661D01*
X34348013Y48011259D01*
X34244118Y47761054D01*
X34243882Y47490135D01*
X21717000Y47490135D01*
X21717000Y49403000D01*
X30024966Y49403000D01*
X29903013Y49281259D01*
X29903013Y49281259D01*
G37*
X29903013Y49281259D02*
X29799118Y49031054D01*
X29798882Y48760135D01*
X29902339Y48509748D01*
X30093741Y48318013D01*
X30343946Y48214118D01*
X30614865Y48213882D01*
X30865252Y48317339D01*
X31056987Y48508741D01*
X31160882Y48758946D01*
X31161118Y49029865D01*
X31057661Y49280252D01*
X30935126Y49403000D01*
X49149000Y49403000D01*
X49149000Y456000D01*
X21717000Y456000D01*
X21717000Y12087696D01*
X22613620Y12087696D01*
X22613620Y8435504D01*
X22775837Y7619983D01*
X23237793Y6928617D01*
X23929159Y6466661D01*
X24744680Y6304444D01*
X25560201Y6466661D01*
X26251567Y6928617D01*
X26713523Y7619983D01*
X26875740Y8435504D01*
X26875740Y12087696D01*
X26713523Y12903217D01*
X26251567Y13594583D01*
X25560201Y14056539D01*
X24744680Y14218756D01*
X23929159Y14056539D01*
X23237793Y13594583D01*
X22775837Y12903217D01*
X22613620Y12087696D01*
X21717000Y12087696D01*
X21717000Y15007787D01*
X28663900Y15007787D01*
X28663900Y14044733D01*
X28753806Y13592746D01*
X29009836Y13209569D01*
X29393013Y12953539D01*
X29845000Y12863633D01*
X30296987Y12953539D01*
X30680164Y13209569D01*
X30936194Y13592746D01*
X31026100Y14044733D01*
X31026100Y15007787D01*
X31163260Y15007787D01*
X31163260Y14044733D01*
X31253166Y13592746D01*
X31509196Y13209569D01*
X31892373Y12953539D01*
X32344360Y12863633D01*
X32796347Y12953539D01*
X33177918Y13208496D01*
X32973937Y12903217D01*
X32811720Y12087696D01*
X32811720Y8435504D01*
X32973937Y7619983D01*
X33435893Y6928617D01*
X34127259Y6466661D01*
X34942780Y6304444D01*
X35758301Y6466661D01*
X36449667Y6928617D01*
X36821520Y7485135D01*
X43768882Y7485135D01*
X43872339Y7234748D01*
X44063741Y7043013D01*
X44313946Y6939118D01*
X44584865Y6938882D01*
X44835252Y7042339D01*
X45026987Y7233741D01*
X45130882Y7483946D01*
X45131118Y7754865D01*
X45027661Y8005252D01*
X44836259Y8196987D01*
X44586054Y8300882D01*
X44315135Y8301118D01*
X44064748Y8197661D01*
X43873013Y8006259D01*
X43769118Y7756054D01*
X43768882Y7485135D01*
X36821520Y7485135D01*
X36911623Y7619983D01*
X37073840Y8435504D01*
X37073840Y8755135D01*
X47578882Y8755135D01*
X47682339Y8504748D01*
X47873741Y8313013D01*
X48123946Y8209118D01*
X48394865Y8208882D01*
X48645252Y8312339D01*
X48836987Y8503741D01*
X48940882Y8753946D01*
X48941118Y9024865D01*
X48837661Y9275252D01*
X48646259Y9466987D01*
X48396054Y9570882D01*
X48125135Y9571118D01*
X47874748Y9467661D01*
X47683013Y9276259D01*
X47579118Y9026054D01*
X47578882Y8755135D01*
X37073840Y8755135D01*
X37073840Y12087696D01*
X36911623Y12903217D01*
X36713229Y13200135D01*
X45038882Y13200135D01*
X45142339Y12949748D01*
X45333741Y12758013D01*
X45583946Y12654118D01*
X45854865Y12653882D01*
X46105252Y12757339D01*
X46296987Y12948741D01*
X46400882Y13198946D01*
X46401118Y13469865D01*
X46297661Y13720252D01*
X46106259Y13911987D01*
X45856054Y14015882D01*
X45585135Y14016118D01*
X45334748Y13912661D01*
X45143013Y13721259D01*
X45039118Y13471054D01*
X45038882Y13200135D01*
X36713229Y13200135D01*
X36449667Y13594583D01*
X35758301Y14056539D01*
X34942780Y14218756D01*
X34127259Y14056539D01*
X33435923Y13594603D01*
X33525460Y14044733D01*
X33525460Y15007787D01*
X33435554Y15459774D01*
X33179524Y15842951D01*
X32796347Y16098981D01*
X32344360Y16188887D01*
X31892373Y16098981D01*
X31509196Y15842951D01*
X31253166Y15459774D01*
X31163260Y15007787D01*
X31026100Y15007787D01*
X30936194Y15459774D01*
X30680164Y15842951D01*
X30296987Y16098981D01*
X29845000Y16188887D01*
X29393013Y16098981D01*
X29009836Y15842951D01*
X28753806Y15459774D01*
X28663900Y15007787D01*
X21717000Y15007787D01*
X21717000Y16375135D01*
X43133882Y16375135D01*
X43237339Y16124748D01*
X43428741Y15933013D01*
X43678946Y15829118D01*
X43949865Y15828882D01*
X44200252Y15932339D01*
X44391987Y16123741D01*
X44495882Y16373946D01*
X44495883Y16375135D01*
X46943882Y16375135D01*
X47047339Y16124748D01*
X47238741Y15933013D01*
X47488946Y15829118D01*
X47759865Y15828882D01*
X48010252Y15932339D01*
X48201987Y16123741D01*
X48305882Y16373946D01*
X48306118Y16644865D01*
X48202661Y16895252D01*
X48011259Y17086987D01*
X47761054Y17190882D01*
X47490135Y17191118D01*
X47239748Y17087661D01*
X47048013Y16896259D01*
X46944118Y16646054D01*
X46943882Y16375135D01*
X44495883Y16375135D01*
X44496118Y16644865D01*
X44392661Y16895252D01*
X44201259Y17086987D01*
X43951054Y17190882D01*
X43680135Y17191118D01*
X43429748Y17087661D01*
X43238013Y16896259D01*
X43134118Y16646054D01*
X43133882Y16375135D01*
X21717000Y16375135D01*
X21717000Y20185135D01*
X25353882Y20185135D01*
X25457339Y19934748D01*
X25648741Y19743013D01*
X25898946Y19639118D01*
X26169865Y19638882D01*
X26420252Y19742339D01*
X26611987Y19933741D01*
X26715882Y20183946D01*
X26716118Y20454865D01*
X26612661Y20705252D01*
X26421259Y20896987D01*
X26171054Y21000882D01*
X25900135Y21001118D01*
X25649748Y20897661D01*
X25458013Y20706259D01*
X25354118Y20456054D01*
X25353882Y20185135D01*
X21717000Y20185135D01*
X21717000Y25900135D01*
X30433882Y25900135D01*
X30537339Y25649748D01*
X30728741Y25458013D01*
X30978946Y25354118D01*
X31249865Y25353882D01*
X31500252Y25457339D01*
X31691987Y25648741D01*
X31795882Y25898946D01*
X31796118Y26169865D01*
X31692661Y26420252D01*
X31577978Y26535135D01*
X32973882Y26535135D01*
X33077339Y26284748D01*
X33268741Y26093013D01*
X33518946Y25989118D01*
X33789865Y25988882D01*
X34040252Y26092339D01*
X34231987Y26283741D01*
X34335882Y26533946D01*
X34336118Y26804865D01*
X34232661Y27055252D01*
X34117978Y27170135D01*
X39958882Y27170135D01*
X40062339Y26919748D01*
X40253741Y26728013D01*
X40503946Y26624118D01*
X40774865Y26623882D01*
X41025252Y26727339D01*
X41216987Y26918741D01*
X41320882Y27168946D01*
X41321118Y27439865D01*
X41217661Y27690252D01*
X41102978Y27805135D01*
X47578882Y27805135D01*
X47682339Y27554748D01*
X47873741Y27363013D01*
X48123946Y27259118D01*
X48394865Y27258882D01*
X48645252Y27362339D01*
X48836987Y27553741D01*
X48940882Y27803946D01*
X48941118Y28074865D01*
X48837661Y28325252D01*
X48646259Y28516987D01*
X48396054Y28620882D01*
X48125135Y28621118D01*
X47874748Y28517661D01*
X47683013Y28326259D01*
X47579118Y28076054D01*
X47578882Y27805135D01*
X41102978Y27805135D01*
X41026259Y27881987D01*
X40776054Y27985882D01*
X40505135Y27986118D01*
X40254748Y27882661D01*
X40063013Y27691259D01*
X39959118Y27441054D01*
X39958882Y27170135D01*
X34117978Y27170135D01*
X34041259Y27246987D01*
X33791054Y27350882D01*
X33520135Y27351118D01*
X33269748Y27247661D01*
X33078013Y27056259D01*
X32974118Y26806054D01*
X32973882Y26535135D01*
X31577978Y26535135D01*
X31501259Y26611987D01*
X31251054Y26715882D01*
X30980135Y26716118D01*
X30729748Y26612661D01*
X30538013Y26421259D01*
X30434118Y26171054D01*
X30433882Y25900135D01*
X21717000Y25900135D01*
X21717000Y29075135D01*
X37418882Y29075135D01*
X37522339Y28824748D01*
X37713741Y28633013D01*
X37963946Y28529118D01*
X38234865Y28528882D01*
X38485252Y28632339D01*
X38676987Y28823741D01*
X38780882Y29073946D01*
X38781118Y29344865D01*
X38677661Y29595252D01*
X38486259Y29786987D01*
X38236054Y29890882D01*
X37965135Y29891118D01*
X37714748Y29787661D01*
X37523013Y29596259D01*
X37419118Y29346054D01*
X37418882Y29075135D01*
X21717000Y29075135D01*
X21717000Y29710135D01*
X30433882Y29710135D01*
X30537339Y29459748D01*
X30728741Y29268013D01*
X30978946Y29164118D01*
X31249865Y29163882D01*
X31500252Y29267339D01*
X31691987Y29458741D01*
X31795882Y29708946D01*
X31796118Y29979865D01*
X31692661Y30230252D01*
X31501259Y30421987D01*
X31251054Y30525882D01*
X30980135Y30526118D01*
X30729748Y30422661D01*
X30538013Y30231259D01*
X30434118Y29981054D01*
X30433882Y29710135D01*
X21717000Y29710135D01*
X21717000Y30980135D01*
X31703882Y30980135D01*
X31807339Y30729748D01*
X31998741Y30538013D01*
X32248946Y30434118D01*
X32519865Y30433882D01*
X32770252Y30537339D01*
X32961987Y30728741D01*
X33065882Y30978946D01*
X33066118Y31249865D01*
X32962661Y31500252D01*
X32771259Y31691987D01*
X32521054Y31795882D01*
X32250135Y31796118D01*
X31999748Y31692661D01*
X31808013Y31501259D01*
X31704118Y31251054D01*
X31703882Y30980135D01*
X21717000Y30980135D01*
X21717000Y34790135D01*
X34878882Y34790135D01*
X34982339Y34539748D01*
X35173741Y34348013D01*
X35423946Y34244118D01*
X35694865Y34243882D01*
X35945252Y34347339D01*
X36136987Y34538741D01*
X36240882Y34788946D01*
X36241118Y35059865D01*
X36137661Y35310252D01*
X35946259Y35501987D01*
X35696054Y35605882D01*
X35425135Y35606118D01*
X35174748Y35502661D01*
X34983013Y35311259D01*
X34879118Y35061054D01*
X34878882Y34790135D01*
X21717000Y34790135D01*
X21717000Y36060135D01*
X26623882Y36060135D01*
X26727339Y35809748D01*
X26918741Y35618013D01*
X27168946Y35514118D01*
X27439865Y35513882D01*
X27690252Y35617339D01*
X27881987Y35808741D01*
X27985882Y36058946D01*
X27985883Y36060135D01*
X43768882Y36060135D01*
X43872339Y35809748D01*
X44063741Y35618013D01*
X44313946Y35514118D01*
X44584865Y35513882D01*
X44835252Y35617339D01*
X45026987Y35808741D01*
X45130882Y36058946D01*
X45131118Y36329865D01*
X45027661Y36580252D01*
X44836259Y36771987D01*
X44586054Y36875882D01*
X44315135Y36876118D01*
X44064748Y36772661D01*
X43873013Y36581259D01*
X43769118Y36331054D01*
X43768882Y36060135D01*
X27985883Y36060135D01*
X27986118Y36329865D01*
X27882661Y36580252D01*
X27691259Y36771987D01*
X27441054Y36875882D01*
X27170135Y36876118D01*
X26919748Y36772661D01*
X26728013Y36581259D01*
X26624118Y36331054D01*
X26623882Y36060135D01*
X21717000Y36060135D01*
X21717000Y40505135D01*
X27258882Y40505135D01*
X27362339Y40254748D01*
X27553741Y40063013D01*
X27803946Y39959118D01*
X28074865Y39958882D01*
X28325252Y40062339D01*
X28516987Y40253741D01*
X28620882Y40503946D01*
X28620883Y40505135D01*
X29798882Y40505135D01*
X29902339Y40254748D01*
X30093741Y40063013D01*
X30343946Y39959118D01*
X30614865Y39958882D01*
X30865252Y40062339D01*
X31056987Y40253741D01*
X31160882Y40503946D01*
X31160883Y40505135D01*
X46308882Y40505135D01*
X46412339Y40254748D01*
X46603741Y40063013D01*
X46853946Y39959118D01*
X47124865Y39958882D01*
X47375252Y40062339D01*
X47566987Y40253741D01*
X47670882Y40503946D01*
X47671118Y40774865D01*
X47567661Y41025252D01*
X47376259Y41216987D01*
X47126054Y41320882D01*
X46855135Y41321118D01*
X46604748Y41217661D01*
X46413013Y41026259D01*
X46309118Y40776054D01*
X46308882Y40505135D01*
X31160883Y40505135D01*
X31161118Y40774865D01*
X31057661Y41025252D01*
X30866259Y41216987D01*
X30616054Y41320882D01*
X30345135Y41321118D01*
X30094748Y41217661D01*
X29903013Y41026259D01*
X29799118Y40776054D01*
X29798882Y40505135D01*
X28620883Y40505135D01*
X28621118Y40774865D01*
X28517661Y41025252D01*
X28326259Y41216987D01*
X28076054Y41320882D01*
X27805135Y41321118D01*
X27554748Y41217661D01*
X27363013Y41026259D01*
X27259118Y40776054D01*
X27258882Y40505135D01*
X21717000Y40505135D01*
X21717000Y43045135D01*
X27893882Y43045135D01*
X27997339Y42794748D01*
X28188741Y42603013D01*
X28438946Y42499118D01*
X28709865Y42498882D01*
X28960252Y42602339D01*
X29151987Y42793741D01*
X29255882Y43043946D01*
X29255883Y43045135D01*
X33608882Y43045135D01*
X33712339Y42794748D01*
X33903741Y42603013D01*
X34153946Y42499118D01*
X34424865Y42498882D01*
X34675252Y42602339D01*
X34866987Y42793741D01*
X34970882Y43043946D01*
X34971118Y43314865D01*
X34867661Y43565252D01*
X34676259Y43756987D01*
X34426054Y43860882D01*
X34155135Y43861118D01*
X33904748Y43757661D01*
X33713013Y43566259D01*
X33609118Y43316054D01*
X33608882Y43045135D01*
X29255883Y43045135D01*
X29256118Y43314865D01*
X29152661Y43565252D01*
X28961259Y43756987D01*
X28711054Y43860882D01*
X28440135Y43861118D01*
X28189748Y43757661D01*
X27998013Y43566259D01*
X27894118Y43316054D01*
X27893882Y43045135D01*
X21717000Y43045135D01*
X21717000Y44950135D01*
X33608882Y44950135D01*
X33712339Y44699748D01*
X33903741Y44508013D01*
X34153946Y44404118D01*
X34424865Y44403882D01*
X34675252Y44507339D01*
X34866987Y44698741D01*
X34970882Y44948946D01*
X34971118Y45219865D01*
X34867661Y45470252D01*
X34676259Y45661987D01*
X34426054Y45765882D01*
X34155135Y45766118D01*
X33904748Y45662661D01*
X33713013Y45471259D01*
X33609118Y45221054D01*
X33608882Y44950135D01*
X21717000Y44950135D01*
X21717000Y45585135D01*
X22178882Y45585135D01*
X22282339Y45334748D01*
X22473741Y45143013D01*
X22723946Y45039118D01*
X22994865Y45038882D01*
X23245252Y45142339D01*
X23436987Y45333741D01*
X23540882Y45583946D01*
X23541118Y45854865D01*
X23437661Y46105252D01*
X23246259Y46296987D01*
X22996054Y46400882D01*
X22725135Y46401118D01*
X22474748Y46297661D01*
X22283013Y46106259D01*
X22179118Y45856054D01*
X22178882Y45585135D01*
X21717000Y45585135D01*
X21717000Y47490135D01*
X34243882Y47490135D01*
X34319403Y47307359D01*
X34244118Y47126054D01*
X34243882Y46855135D01*
X34319403Y46672359D01*
X34244118Y46491054D01*
X34243882Y46220135D01*
X34347339Y45969748D01*
X34538741Y45778013D01*
X34788946Y45674118D01*
X35059865Y45673882D01*
X35310252Y45777339D01*
X35501987Y45968741D01*
X35605882Y46218946D01*
X35606118Y46489865D01*
X35530597Y46672641D01*
X35605882Y46853946D01*
X35606118Y47124865D01*
X35530597Y47307641D01*
X35605882Y47488946D01*
X35605883Y47490135D01*
X38053882Y47490135D01*
X38129403Y47307359D01*
X38054118Y47126054D01*
X38053882Y46855135D01*
X38129403Y46672359D01*
X38054118Y46491054D01*
X38053882Y46220135D01*
X38157339Y45969748D01*
X38348741Y45778013D01*
X38598946Y45674118D01*
X38869865Y45673882D01*
X39120252Y45777339D01*
X39311987Y45968741D01*
X39415882Y46218946D01*
X39416118Y46489865D01*
X39340597Y46672641D01*
X39415882Y46853946D01*
X39416118Y47124865D01*
X39340597Y47307641D01*
X39415882Y47488946D01*
X39416118Y47759865D01*
X39312661Y48010252D01*
X39121259Y48201987D01*
X38871054Y48305882D01*
X38600135Y48306118D01*
X38349748Y48202661D01*
X38158013Y48011259D01*
X38054118Y47761054D01*
X38053882Y47490135D01*
X35605883Y47490135D01*
X35606118Y47759865D01*
X35502661Y48010252D01*
X35311259Y48201987D01*
X35061054Y48305882D01*
X34790135Y48306118D01*
X34539748Y48202661D01*
X34348013Y48011259D01*
X34244118Y47761054D01*
X34243882Y47490135D01*
X21717000Y47490135D01*
X21717000Y49403000D01*
X30024966Y49403000D01*
X29903013Y49281259D01*
G36*
X57843013Y49281259D02*
X57739118Y49031054D01*
X57738882Y48760135D01*
X57842339Y48509748D01*
X58033741Y48318013D01*
X58283946Y48214118D01*
X58554865Y48213882D01*
X58805252Y48317339D01*
X58996987Y48508741D01*
X59100882Y48758946D01*
X59101118Y49029865D01*
X58997661Y49280252D01*
X58875126Y49403000D01*
X79544000Y49403000D01*
X79544000Y456000D01*
X49911000Y456000D01*
X49911000Y12087696D01*
X50553620Y12087696D01*
X50553620Y8435504D01*
X50715837Y7619983D01*
X51177793Y6928617D01*
X51869159Y6466661D01*
X52684680Y6304444D01*
X53500201Y6466661D01*
X54191567Y6928617D01*
X54653523Y7619983D01*
X54815740Y8435504D01*
X54815740Y12087696D01*
X54653523Y12903217D01*
X54191567Y13594583D01*
X53500201Y14056539D01*
X52684680Y14218756D01*
X51869159Y14056539D01*
X51177793Y13594583D01*
X50715837Y12903217D01*
X50553620Y12087696D01*
X49911000Y12087696D01*
X49911000Y15007787D01*
X56603900Y15007787D01*
X56603900Y14044733D01*
X56693806Y13592746D01*
X56949836Y13209569D01*
X57333013Y12953539D01*
X57785000Y12863633D01*
X58236987Y12953539D01*
X58620164Y13209569D01*
X58876194Y13592746D01*
X58966100Y14044733D01*
X58966100Y15007787D01*
X59103260Y15007787D01*
X59103260Y14044733D01*
X59193166Y13592746D01*
X59449196Y13209569D01*
X59832373Y12953539D01*
X60284360Y12863633D01*
X60736347Y12953539D01*
X61117918Y13208496D01*
X60913937Y12903217D01*
X60751720Y12087696D01*
X60751720Y8435504D01*
X60913937Y7619983D01*
X61375893Y6928617D01*
X62067259Y6466661D01*
X62882780Y6304444D01*
X63698301Y6466661D01*
X64389667Y6928617D01*
X64761520Y7485135D01*
X71708882Y7485135D01*
X71812339Y7234748D01*
X72003741Y7043013D01*
X72253946Y6939118D01*
X72524865Y6938882D01*
X72775252Y7042339D01*
X72966987Y7233741D01*
X73070882Y7483946D01*
X73071118Y7754865D01*
X72967661Y8005252D01*
X72776259Y8196987D01*
X72526054Y8300882D01*
X72255135Y8301118D01*
X72004748Y8197661D01*
X71813013Y8006259D01*
X71709118Y7756054D01*
X71708882Y7485135D01*
X64761520Y7485135D01*
X64851623Y7619983D01*
X65013840Y8435504D01*
X65013840Y10660135D01*
X75518882Y10660135D01*
X75622339Y10409748D01*
X75813741Y10218013D01*
X76063946Y10114118D01*
X76334865Y10113882D01*
X76585252Y10217339D01*
X76776987Y10408741D01*
X76880882Y10658946D01*
X76881118Y10929865D01*
X76777661Y11180252D01*
X76586259Y11371987D01*
X76336054Y11475882D01*
X76065135Y11476118D01*
X75814748Y11372661D01*
X75623013Y11181259D01*
X75519118Y10931054D01*
X75518882Y10660135D01*
X65013840Y10660135D01*
X65013840Y12087696D01*
X64851623Y12903217D01*
X64653229Y13200135D01*
X72978882Y13200135D01*
X73082339Y12949748D01*
X73273741Y12758013D01*
X73523946Y12654118D01*
X73794865Y12653882D01*
X74045252Y12757339D01*
X74236987Y12948741D01*
X74340882Y13198946D01*
X74341118Y13469865D01*
X74237661Y13720252D01*
X74046259Y13911987D01*
X73796054Y14015882D01*
X73525135Y14016118D01*
X73274748Y13912661D01*
X73083013Y13721259D01*
X72979118Y13471054D01*
X72978882Y13200135D01*
X64653229Y13200135D01*
X64389667Y13594583D01*
X63698301Y14056539D01*
X62882780Y14218756D01*
X62067259Y14056539D01*
X61375923Y13594603D01*
X61465460Y14044733D01*
X61465460Y15007787D01*
X61375554Y15459774D01*
X61119524Y15842951D01*
X60736347Y16098981D01*
X60284360Y16188887D01*
X59832373Y16098981D01*
X59449196Y15842951D01*
X59193166Y15459774D01*
X59103260Y15007787D01*
X58966100Y15007787D01*
X58876194Y15459774D01*
X58620164Y15842951D01*
X58236987Y16098981D01*
X57785000Y16188887D01*
X57333013Y16098981D01*
X56949836Y15842951D01*
X56693806Y15459774D01*
X56603900Y15007787D01*
X49911000Y15007787D01*
X49911000Y16375135D01*
X71073882Y16375135D01*
X71177339Y16124748D01*
X71368741Y15933013D01*
X71618946Y15829118D01*
X71889865Y15828882D01*
X72140252Y15932339D01*
X72331987Y16123741D01*
X72435882Y16373946D01*
X72435883Y16375135D01*
X74883882Y16375135D01*
X74987339Y16124748D01*
X75178741Y15933013D01*
X75428946Y15829118D01*
X75699865Y15828882D01*
X75950252Y15932339D01*
X76141987Y16123741D01*
X76245882Y16373946D01*
X76246118Y16644865D01*
X76142661Y16895252D01*
X75951259Y17086987D01*
X75701054Y17190882D01*
X75430135Y17191118D01*
X75179748Y17087661D01*
X74988013Y16896259D01*
X74884118Y16646054D01*
X74883882Y16375135D01*
X72435883Y16375135D01*
X72436118Y16644865D01*
X72332661Y16895252D01*
X72141259Y17086987D01*
X71891054Y17190882D01*
X71620135Y17191118D01*
X71369748Y17087661D01*
X71178013Y16896259D01*
X71074118Y16646054D01*
X71073882Y16375135D01*
X49911000Y16375135D01*
X49911000Y18280135D01*
X53293882Y18280135D01*
X53397339Y18029748D01*
X53588741Y17838013D01*
X53838946Y17734118D01*
X54109865Y17733882D01*
X54360252Y17837339D01*
X54551987Y18028741D01*
X54655882Y18278946D01*
X54656118Y18549865D01*
X54552661Y18800252D01*
X54361259Y18991987D01*
X54111054Y19095882D01*
X53840135Y19096118D01*
X53589748Y18992661D01*
X53398013Y18801259D01*
X53294118Y18551054D01*
X53293882Y18280135D01*
X49911000Y18280135D01*
X49911000Y25900135D01*
X58373882Y25900135D01*
X58477339Y25649748D01*
X58668741Y25458013D01*
X58918946Y25354118D01*
X59189865Y25353882D01*
X59440252Y25457339D01*
X59631987Y25648741D01*
X59735882Y25898946D01*
X59736118Y26169865D01*
X59632661Y26420252D01*
X59517978Y26535135D01*
X60913882Y26535135D01*
X61017339Y26284748D01*
X61208741Y26093013D01*
X61458946Y25989118D01*
X61729865Y25988882D01*
X61980252Y26092339D01*
X62171987Y26283741D01*
X62275882Y26533946D01*
X62276118Y26804865D01*
X62172661Y27055252D01*
X62057978Y27170135D01*
X67898882Y27170135D01*
X68002339Y26919748D01*
X68193741Y26728013D01*
X68443946Y26624118D01*
X68714865Y26623882D01*
X68965252Y26727339D01*
X69156987Y26918741D01*
X69260882Y27168946D01*
X69261118Y27439865D01*
X69157661Y27690252D01*
X69042978Y27805135D01*
X75518882Y27805135D01*
X75622339Y27554748D01*
X75813741Y27363013D01*
X76063946Y27259118D01*
X76334865Y27258882D01*
X76585252Y27362339D01*
X76776987Y27553741D01*
X76880882Y27803946D01*
X76881118Y28074865D01*
X76777661Y28325252D01*
X76586259Y28516987D01*
X76336054Y28620882D01*
X76065135Y28621118D01*
X75814748Y28517661D01*
X75623013Y28326259D01*
X75519118Y28076054D01*
X75518882Y27805135D01*
X69042978Y27805135D01*
X68966259Y27881987D01*
X68716054Y27985882D01*
X68445135Y27986118D01*
X68194748Y27882661D01*
X68003013Y27691259D01*
X67899118Y27441054D01*
X67898882Y27170135D01*
X62057978Y27170135D01*
X61981259Y27246987D01*
X61731054Y27350882D01*
X61460135Y27351118D01*
X61209748Y27247661D01*
X61018013Y27056259D01*
X60914118Y26806054D01*
X60913882Y26535135D01*
X59517978Y26535135D01*
X59441259Y26611987D01*
X59191054Y26715882D01*
X58920135Y26716118D01*
X58669748Y26612661D01*
X58478013Y26421259D01*
X58374118Y26171054D01*
X58373882Y25900135D01*
X49911000Y25900135D01*
X49911000Y29075135D01*
X65993882Y29075135D01*
X66097339Y28824748D01*
X66288741Y28633013D01*
X66538946Y28529118D01*
X66809865Y28528882D01*
X67060252Y28632339D01*
X67251987Y28823741D01*
X67355882Y29073946D01*
X67356118Y29344865D01*
X67252661Y29595252D01*
X67061259Y29786987D01*
X66811054Y29890882D01*
X66540135Y29891118D01*
X66289748Y29787661D01*
X66098013Y29596259D01*
X65994118Y29346054D01*
X65993882Y29075135D01*
X49911000Y29075135D01*
X49911000Y29710135D01*
X58373882Y29710135D01*
X58477339Y29459748D01*
X58668741Y29268013D01*
X58918946Y29164118D01*
X59189865Y29163882D01*
X59440252Y29267339D01*
X59631987Y29458741D01*
X59735882Y29708946D01*
X59736118Y29979865D01*
X59632661Y30230252D01*
X59441259Y30421987D01*
X59191054Y30525882D01*
X58920135Y30526118D01*
X58669748Y30422661D01*
X58478013Y30231259D01*
X58374118Y29981054D01*
X58373882Y29710135D01*
X49911000Y29710135D01*
X49911000Y30980135D01*
X59643882Y30980135D01*
X59747339Y30729748D01*
X59938741Y30538013D01*
X60188946Y30434118D01*
X60459865Y30433882D01*
X60710252Y30537339D01*
X60901987Y30728741D01*
X61005882Y30978946D01*
X61006118Y31249865D01*
X60902661Y31500252D01*
X60711259Y31691987D01*
X60461054Y31795882D01*
X60190135Y31796118D01*
X59939748Y31692661D01*
X59748013Y31501259D01*
X59644118Y31251054D01*
X59643882Y30980135D01*
X49911000Y30980135D01*
X49911000Y36060135D01*
X54563882Y36060135D01*
X54667339Y35809748D01*
X54858741Y35618013D01*
X55108946Y35514118D01*
X55379865Y35513882D01*
X55630252Y35617339D01*
X55821987Y35808741D01*
X55925882Y36058946D01*
X55925883Y36060135D01*
X69803882Y36060135D01*
X69907339Y35809748D01*
X70098741Y35618013D01*
X70348946Y35514118D01*
X70619865Y35513882D01*
X70870252Y35617339D01*
X71061987Y35808741D01*
X71165882Y36058946D01*
X71166118Y36329865D01*
X71062661Y36580252D01*
X70871259Y36771987D01*
X70621054Y36875882D01*
X70350135Y36876118D01*
X70099748Y36772661D01*
X69908013Y36581259D01*
X69804118Y36331054D01*
X69803882Y36060135D01*
X55925883Y36060135D01*
X55926118Y36329865D01*
X55822661Y36580252D01*
X55707978Y36695135D01*
X62818882Y36695135D01*
X62922339Y36444748D01*
X63113741Y36253013D01*
X63363946Y36149118D01*
X63634865Y36148882D01*
X63885252Y36252339D01*
X64076987Y36443741D01*
X64180882Y36693946D01*
X64181118Y36964865D01*
X64077661Y37215252D01*
X63886259Y37406987D01*
X63636054Y37510882D01*
X63365135Y37511118D01*
X63114748Y37407661D01*
X62923013Y37216259D01*
X62819118Y36966054D01*
X62818882Y36695135D01*
X55707978Y36695135D01*
X55631259Y36771987D01*
X55381054Y36875882D01*
X55110135Y36876118D01*
X54859748Y36772661D01*
X54668013Y36581259D01*
X54564118Y36331054D01*
X54563882Y36060135D01*
X49911000Y36060135D01*
X49911000Y38600135D01*
X74248882Y38600135D01*
X74352339Y38349748D01*
X74543741Y38158013D01*
X74793946Y38054118D01*
X75064865Y38053882D01*
X75315252Y38157339D01*
X75506987Y38348741D01*
X75610882Y38598946D01*
X75611118Y38869865D01*
X75507661Y39120252D01*
X75316259Y39311987D01*
X75066054Y39415882D01*
X74795135Y39416118D01*
X74544748Y39312661D01*
X74353013Y39121259D01*
X74249118Y38871054D01*
X74248882Y38600135D01*
X49911000Y38600135D01*
X49911000Y40505135D01*
X55198882Y40505135D01*
X55302339Y40254748D01*
X55493741Y40063013D01*
X55743946Y39959118D01*
X56014865Y39958882D01*
X56265252Y40062339D01*
X56456987Y40253741D01*
X56560882Y40503946D01*
X56560883Y40505135D01*
X57738882Y40505135D01*
X57842339Y40254748D01*
X58033741Y40063013D01*
X58283946Y39959118D01*
X58554865Y39958882D01*
X58805252Y40062339D01*
X58996987Y40253741D01*
X59100882Y40503946D01*
X59101118Y40774865D01*
X58997661Y41025252D01*
X58806259Y41216987D01*
X58556054Y41320882D01*
X58285135Y41321118D01*
X58034748Y41217661D01*
X57843013Y41026259D01*
X57739118Y40776054D01*
X57738882Y40505135D01*
X56560883Y40505135D01*
X56561118Y40774865D01*
X56457661Y41025252D01*
X56266259Y41216987D01*
X56016054Y41320882D01*
X55745135Y41321118D01*
X55494748Y41217661D01*
X55303013Y41026259D01*
X55199118Y40776054D01*
X55198882Y40505135D01*
X49911000Y40505135D01*
X49911000Y43045135D01*
X56468882Y43045135D01*
X56572339Y42794748D01*
X56763741Y42603013D01*
X57013946Y42499118D01*
X57284865Y42498882D01*
X57535252Y42602339D01*
X57726987Y42793741D01*
X57830882Y43043946D01*
X57830883Y43045135D01*
X61548882Y43045135D01*
X61652339Y42794748D01*
X61843741Y42603013D01*
X62093946Y42499118D01*
X62364865Y42498882D01*
X62615252Y42602339D01*
X62806987Y42793741D01*
X62910882Y43043946D01*
X62911118Y43314865D01*
X62807661Y43565252D01*
X62616259Y43756987D01*
X62366054Y43860882D01*
X62095135Y43861118D01*
X61844748Y43757661D01*
X61653013Y43566259D01*
X61549118Y43316054D01*
X61548882Y43045135D01*
X57830883Y43045135D01*
X57831118Y43314865D01*
X57727661Y43565252D01*
X57536259Y43756987D01*
X57286054Y43860882D01*
X57015135Y43861118D01*
X56764748Y43757661D01*
X56573013Y43566259D01*
X56469118Y43316054D01*
X56468882Y43045135D01*
X49911000Y43045135D01*
X49911000Y44950135D01*
X50118882Y44950135D01*
X50222339Y44699748D01*
X50413741Y44508013D01*
X50663946Y44404118D01*
X50934865Y44403882D01*
X51185252Y44507339D01*
X51376987Y44698741D01*
X51480882Y44948946D01*
X51480883Y44950135D01*
X61548882Y44950135D01*
X61652339Y44699748D01*
X61843741Y44508013D01*
X62093946Y44404118D01*
X62364865Y44403882D01*
X62615252Y44507339D01*
X62806987Y44698741D01*
X62910882Y44948946D01*
X62911118Y45219865D01*
X62807661Y45470252D01*
X62616259Y45661987D01*
X62366054Y45765882D01*
X62095135Y45766118D01*
X61844748Y45662661D01*
X61653013Y45471259D01*
X61549118Y45221054D01*
X61548882Y44950135D01*
X51480883Y44950135D01*
X51481118Y45219865D01*
X51377661Y45470252D01*
X51186259Y45661987D01*
X50936054Y45765882D01*
X50665135Y45766118D01*
X50414748Y45662661D01*
X50223013Y45471259D01*
X50119118Y45221054D01*
X50118882Y44950135D01*
X49911000Y44950135D01*
X49911000Y47490135D01*
X62183882Y47490135D01*
X62259403Y47307359D01*
X62184118Y47126054D01*
X62183882Y46855135D01*
X62259403Y46672359D01*
X62184118Y46491054D01*
X62183882Y46220135D01*
X62287339Y45969748D01*
X62478741Y45778013D01*
X62728946Y45674118D01*
X62999865Y45673882D01*
X63250252Y45777339D01*
X63441987Y45968741D01*
X63545882Y46218946D01*
X63546118Y46489865D01*
X63470597Y46672641D01*
X63545882Y46853946D01*
X63546118Y47124865D01*
X63470597Y47307641D01*
X63545882Y47488946D01*
X63545883Y47490135D01*
X65993882Y47490135D01*
X66069403Y47307359D01*
X65994118Y47126054D01*
X65993882Y46855135D01*
X66069403Y46672359D01*
X65994118Y46491054D01*
X65993882Y46220135D01*
X66097339Y45969748D01*
X66288741Y45778013D01*
X66538946Y45674118D01*
X66809865Y45673882D01*
X67060252Y45777339D01*
X67251987Y45968741D01*
X67355882Y46218946D01*
X67356118Y46489865D01*
X67280597Y46672641D01*
X67355882Y46853946D01*
X67356118Y47124865D01*
X67280597Y47307641D01*
X67355882Y47488946D01*
X67356118Y47759865D01*
X67252661Y48010252D01*
X67061259Y48201987D01*
X66811054Y48305882D01*
X66540135Y48306118D01*
X66289748Y48202661D01*
X66098013Y48011259D01*
X65994118Y47761054D01*
X65993882Y47490135D01*
X63545883Y47490135D01*
X63546118Y47759865D01*
X63442661Y48010252D01*
X63251259Y48201987D01*
X63001054Y48305882D01*
X62730135Y48306118D01*
X62479748Y48202661D01*
X62288013Y48011259D01*
X62184118Y47761054D01*
X62183882Y47490135D01*
X49911000Y47490135D01*
X49911000Y49403000D01*
X57964966Y49403000D01*
X57843013Y49281259D01*
X57843013Y49281259D01*
G37*
X57843013Y49281259D02*
X57739118Y49031054D01*
X57738882Y48760135D01*
X57842339Y48509748D01*
X58033741Y48318013D01*
X58283946Y48214118D01*
X58554865Y48213882D01*
X58805252Y48317339D01*
X58996987Y48508741D01*
X59100882Y48758946D01*
X59101118Y49029865D01*
X58997661Y49280252D01*
X58875126Y49403000D01*
X79544000Y49403000D01*
X79544000Y456000D01*
X49911000Y456000D01*
X49911000Y12087696D01*
X50553620Y12087696D01*
X50553620Y8435504D01*
X50715837Y7619983D01*
X51177793Y6928617D01*
X51869159Y6466661D01*
X52684680Y6304444D01*
X53500201Y6466661D01*
X54191567Y6928617D01*
X54653523Y7619983D01*
X54815740Y8435504D01*
X54815740Y12087696D01*
X54653523Y12903217D01*
X54191567Y13594583D01*
X53500201Y14056539D01*
X52684680Y14218756D01*
X51869159Y14056539D01*
X51177793Y13594583D01*
X50715837Y12903217D01*
X50553620Y12087696D01*
X49911000Y12087696D01*
X49911000Y15007787D01*
X56603900Y15007787D01*
X56603900Y14044733D01*
X56693806Y13592746D01*
X56949836Y13209569D01*
X57333013Y12953539D01*
X57785000Y12863633D01*
X58236987Y12953539D01*
X58620164Y13209569D01*
X58876194Y13592746D01*
X58966100Y14044733D01*
X58966100Y15007787D01*
X59103260Y15007787D01*
X59103260Y14044733D01*
X59193166Y13592746D01*
X59449196Y13209569D01*
X59832373Y12953539D01*
X60284360Y12863633D01*
X60736347Y12953539D01*
X61117918Y13208496D01*
X60913937Y12903217D01*
X60751720Y12087696D01*
X60751720Y8435504D01*
X60913937Y7619983D01*
X61375893Y6928617D01*
X62067259Y6466661D01*
X62882780Y6304444D01*
X63698301Y6466661D01*
X64389667Y6928617D01*
X64761520Y7485135D01*
X71708882Y7485135D01*
X71812339Y7234748D01*
X72003741Y7043013D01*
X72253946Y6939118D01*
X72524865Y6938882D01*
X72775252Y7042339D01*
X72966987Y7233741D01*
X73070882Y7483946D01*
X73071118Y7754865D01*
X72967661Y8005252D01*
X72776259Y8196987D01*
X72526054Y8300882D01*
X72255135Y8301118D01*
X72004748Y8197661D01*
X71813013Y8006259D01*
X71709118Y7756054D01*
X71708882Y7485135D01*
X64761520Y7485135D01*
X64851623Y7619983D01*
X65013840Y8435504D01*
X65013840Y10660135D01*
X75518882Y10660135D01*
X75622339Y10409748D01*
X75813741Y10218013D01*
X76063946Y10114118D01*
X76334865Y10113882D01*
X76585252Y10217339D01*
X76776987Y10408741D01*
X76880882Y10658946D01*
X76881118Y10929865D01*
X76777661Y11180252D01*
X76586259Y11371987D01*
X76336054Y11475882D01*
X76065135Y11476118D01*
X75814748Y11372661D01*
X75623013Y11181259D01*
X75519118Y10931054D01*
X75518882Y10660135D01*
X65013840Y10660135D01*
X65013840Y12087696D01*
X64851623Y12903217D01*
X64653229Y13200135D01*
X72978882Y13200135D01*
X73082339Y12949748D01*
X73273741Y12758013D01*
X73523946Y12654118D01*
X73794865Y12653882D01*
X74045252Y12757339D01*
X74236987Y12948741D01*
X74340882Y13198946D01*
X74341118Y13469865D01*
X74237661Y13720252D01*
X74046259Y13911987D01*
X73796054Y14015882D01*
X73525135Y14016118D01*
X73274748Y13912661D01*
X73083013Y13721259D01*
X72979118Y13471054D01*
X72978882Y13200135D01*
X64653229Y13200135D01*
X64389667Y13594583D01*
X63698301Y14056539D01*
X62882780Y14218756D01*
X62067259Y14056539D01*
X61375923Y13594603D01*
X61465460Y14044733D01*
X61465460Y15007787D01*
X61375554Y15459774D01*
X61119524Y15842951D01*
X60736347Y16098981D01*
X60284360Y16188887D01*
X59832373Y16098981D01*
X59449196Y15842951D01*
X59193166Y15459774D01*
X59103260Y15007787D01*
X58966100Y15007787D01*
X58876194Y15459774D01*
X58620164Y15842951D01*
X58236987Y16098981D01*
X57785000Y16188887D01*
X57333013Y16098981D01*
X56949836Y15842951D01*
X56693806Y15459774D01*
X56603900Y15007787D01*
X49911000Y15007787D01*
X49911000Y16375135D01*
X71073882Y16375135D01*
X71177339Y16124748D01*
X71368741Y15933013D01*
X71618946Y15829118D01*
X71889865Y15828882D01*
X72140252Y15932339D01*
X72331987Y16123741D01*
X72435882Y16373946D01*
X72435883Y16375135D01*
X74883882Y16375135D01*
X74987339Y16124748D01*
X75178741Y15933013D01*
X75428946Y15829118D01*
X75699865Y15828882D01*
X75950252Y15932339D01*
X76141987Y16123741D01*
X76245882Y16373946D01*
X76246118Y16644865D01*
X76142661Y16895252D01*
X75951259Y17086987D01*
X75701054Y17190882D01*
X75430135Y17191118D01*
X75179748Y17087661D01*
X74988013Y16896259D01*
X74884118Y16646054D01*
X74883882Y16375135D01*
X72435883Y16375135D01*
X72436118Y16644865D01*
X72332661Y16895252D01*
X72141259Y17086987D01*
X71891054Y17190882D01*
X71620135Y17191118D01*
X71369748Y17087661D01*
X71178013Y16896259D01*
X71074118Y16646054D01*
X71073882Y16375135D01*
X49911000Y16375135D01*
X49911000Y18280135D01*
X53293882Y18280135D01*
X53397339Y18029748D01*
X53588741Y17838013D01*
X53838946Y17734118D01*
X54109865Y17733882D01*
X54360252Y17837339D01*
X54551987Y18028741D01*
X54655882Y18278946D01*
X54656118Y18549865D01*
X54552661Y18800252D01*
X54361259Y18991987D01*
X54111054Y19095882D01*
X53840135Y19096118D01*
X53589748Y18992661D01*
X53398013Y18801259D01*
X53294118Y18551054D01*
X53293882Y18280135D01*
X49911000Y18280135D01*
X49911000Y25900135D01*
X58373882Y25900135D01*
X58477339Y25649748D01*
X58668741Y25458013D01*
X58918946Y25354118D01*
X59189865Y25353882D01*
X59440252Y25457339D01*
X59631987Y25648741D01*
X59735882Y25898946D01*
X59736118Y26169865D01*
X59632661Y26420252D01*
X59517978Y26535135D01*
X60913882Y26535135D01*
X61017339Y26284748D01*
X61208741Y26093013D01*
X61458946Y25989118D01*
X61729865Y25988882D01*
X61980252Y26092339D01*
X62171987Y26283741D01*
X62275882Y26533946D01*
X62276118Y26804865D01*
X62172661Y27055252D01*
X62057978Y27170135D01*
X67898882Y27170135D01*
X68002339Y26919748D01*
X68193741Y26728013D01*
X68443946Y26624118D01*
X68714865Y26623882D01*
X68965252Y26727339D01*
X69156987Y26918741D01*
X69260882Y27168946D01*
X69261118Y27439865D01*
X69157661Y27690252D01*
X69042978Y27805135D01*
X75518882Y27805135D01*
X75622339Y27554748D01*
X75813741Y27363013D01*
X76063946Y27259118D01*
X76334865Y27258882D01*
X76585252Y27362339D01*
X76776987Y27553741D01*
X76880882Y27803946D01*
X76881118Y28074865D01*
X76777661Y28325252D01*
X76586259Y28516987D01*
X76336054Y28620882D01*
X76065135Y28621118D01*
X75814748Y28517661D01*
X75623013Y28326259D01*
X75519118Y28076054D01*
X75518882Y27805135D01*
X69042978Y27805135D01*
X68966259Y27881987D01*
X68716054Y27985882D01*
X68445135Y27986118D01*
X68194748Y27882661D01*
X68003013Y27691259D01*
X67899118Y27441054D01*
X67898882Y27170135D01*
X62057978Y27170135D01*
X61981259Y27246987D01*
X61731054Y27350882D01*
X61460135Y27351118D01*
X61209748Y27247661D01*
X61018013Y27056259D01*
X60914118Y26806054D01*
X60913882Y26535135D01*
X59517978Y26535135D01*
X59441259Y26611987D01*
X59191054Y26715882D01*
X58920135Y26716118D01*
X58669748Y26612661D01*
X58478013Y26421259D01*
X58374118Y26171054D01*
X58373882Y25900135D01*
X49911000Y25900135D01*
X49911000Y29075135D01*
X65993882Y29075135D01*
X66097339Y28824748D01*
X66288741Y28633013D01*
X66538946Y28529118D01*
X66809865Y28528882D01*
X67060252Y28632339D01*
X67251987Y28823741D01*
X67355882Y29073946D01*
X67356118Y29344865D01*
X67252661Y29595252D01*
X67061259Y29786987D01*
X66811054Y29890882D01*
X66540135Y29891118D01*
X66289748Y29787661D01*
X66098013Y29596259D01*
X65994118Y29346054D01*
X65993882Y29075135D01*
X49911000Y29075135D01*
X49911000Y29710135D01*
X58373882Y29710135D01*
X58477339Y29459748D01*
X58668741Y29268013D01*
X58918946Y29164118D01*
X59189865Y29163882D01*
X59440252Y29267339D01*
X59631987Y29458741D01*
X59735882Y29708946D01*
X59736118Y29979865D01*
X59632661Y30230252D01*
X59441259Y30421987D01*
X59191054Y30525882D01*
X58920135Y30526118D01*
X58669748Y30422661D01*
X58478013Y30231259D01*
X58374118Y29981054D01*
X58373882Y29710135D01*
X49911000Y29710135D01*
X49911000Y30980135D01*
X59643882Y30980135D01*
X59747339Y30729748D01*
X59938741Y30538013D01*
X60188946Y30434118D01*
X60459865Y30433882D01*
X60710252Y30537339D01*
X60901987Y30728741D01*
X61005882Y30978946D01*
X61006118Y31249865D01*
X60902661Y31500252D01*
X60711259Y31691987D01*
X60461054Y31795882D01*
X60190135Y31796118D01*
X59939748Y31692661D01*
X59748013Y31501259D01*
X59644118Y31251054D01*
X59643882Y30980135D01*
X49911000Y30980135D01*
X49911000Y36060135D01*
X54563882Y36060135D01*
X54667339Y35809748D01*
X54858741Y35618013D01*
X55108946Y35514118D01*
X55379865Y35513882D01*
X55630252Y35617339D01*
X55821987Y35808741D01*
X55925882Y36058946D01*
X55925883Y36060135D01*
X69803882Y36060135D01*
X69907339Y35809748D01*
X70098741Y35618013D01*
X70348946Y35514118D01*
X70619865Y35513882D01*
X70870252Y35617339D01*
X71061987Y35808741D01*
X71165882Y36058946D01*
X71166118Y36329865D01*
X71062661Y36580252D01*
X70871259Y36771987D01*
X70621054Y36875882D01*
X70350135Y36876118D01*
X70099748Y36772661D01*
X69908013Y36581259D01*
X69804118Y36331054D01*
X69803882Y36060135D01*
X55925883Y36060135D01*
X55926118Y36329865D01*
X55822661Y36580252D01*
X55707978Y36695135D01*
X62818882Y36695135D01*
X62922339Y36444748D01*
X63113741Y36253013D01*
X63363946Y36149118D01*
X63634865Y36148882D01*
X63885252Y36252339D01*
X64076987Y36443741D01*
X64180882Y36693946D01*
X64181118Y36964865D01*
X64077661Y37215252D01*
X63886259Y37406987D01*
X63636054Y37510882D01*
X63365135Y37511118D01*
X63114748Y37407661D01*
X62923013Y37216259D01*
X62819118Y36966054D01*
X62818882Y36695135D01*
X55707978Y36695135D01*
X55631259Y36771987D01*
X55381054Y36875882D01*
X55110135Y36876118D01*
X54859748Y36772661D01*
X54668013Y36581259D01*
X54564118Y36331054D01*
X54563882Y36060135D01*
X49911000Y36060135D01*
X49911000Y38600135D01*
X74248882Y38600135D01*
X74352339Y38349748D01*
X74543741Y38158013D01*
X74793946Y38054118D01*
X75064865Y38053882D01*
X75315252Y38157339D01*
X75506987Y38348741D01*
X75610882Y38598946D01*
X75611118Y38869865D01*
X75507661Y39120252D01*
X75316259Y39311987D01*
X75066054Y39415882D01*
X74795135Y39416118D01*
X74544748Y39312661D01*
X74353013Y39121259D01*
X74249118Y38871054D01*
X74248882Y38600135D01*
X49911000Y38600135D01*
X49911000Y40505135D01*
X55198882Y40505135D01*
X55302339Y40254748D01*
X55493741Y40063013D01*
X55743946Y39959118D01*
X56014865Y39958882D01*
X56265252Y40062339D01*
X56456987Y40253741D01*
X56560882Y40503946D01*
X56560883Y40505135D01*
X57738882Y40505135D01*
X57842339Y40254748D01*
X58033741Y40063013D01*
X58283946Y39959118D01*
X58554865Y39958882D01*
X58805252Y40062339D01*
X58996987Y40253741D01*
X59100882Y40503946D01*
X59101118Y40774865D01*
X58997661Y41025252D01*
X58806259Y41216987D01*
X58556054Y41320882D01*
X58285135Y41321118D01*
X58034748Y41217661D01*
X57843013Y41026259D01*
X57739118Y40776054D01*
X57738882Y40505135D01*
X56560883Y40505135D01*
X56561118Y40774865D01*
X56457661Y41025252D01*
X56266259Y41216987D01*
X56016054Y41320882D01*
X55745135Y41321118D01*
X55494748Y41217661D01*
X55303013Y41026259D01*
X55199118Y40776054D01*
X55198882Y40505135D01*
X49911000Y40505135D01*
X49911000Y43045135D01*
X56468882Y43045135D01*
X56572339Y42794748D01*
X56763741Y42603013D01*
X57013946Y42499118D01*
X57284865Y42498882D01*
X57535252Y42602339D01*
X57726987Y42793741D01*
X57830882Y43043946D01*
X57830883Y43045135D01*
X61548882Y43045135D01*
X61652339Y42794748D01*
X61843741Y42603013D01*
X62093946Y42499118D01*
X62364865Y42498882D01*
X62615252Y42602339D01*
X62806987Y42793741D01*
X62910882Y43043946D01*
X62911118Y43314865D01*
X62807661Y43565252D01*
X62616259Y43756987D01*
X62366054Y43860882D01*
X62095135Y43861118D01*
X61844748Y43757661D01*
X61653013Y43566259D01*
X61549118Y43316054D01*
X61548882Y43045135D01*
X57830883Y43045135D01*
X57831118Y43314865D01*
X57727661Y43565252D01*
X57536259Y43756987D01*
X57286054Y43860882D01*
X57015135Y43861118D01*
X56764748Y43757661D01*
X56573013Y43566259D01*
X56469118Y43316054D01*
X56468882Y43045135D01*
X49911000Y43045135D01*
X49911000Y44950135D01*
X50118882Y44950135D01*
X50222339Y44699748D01*
X50413741Y44508013D01*
X50663946Y44404118D01*
X50934865Y44403882D01*
X51185252Y44507339D01*
X51376987Y44698741D01*
X51480882Y44948946D01*
X51480883Y44950135D01*
X61548882Y44950135D01*
X61652339Y44699748D01*
X61843741Y44508013D01*
X62093946Y44404118D01*
X62364865Y44403882D01*
X62615252Y44507339D01*
X62806987Y44698741D01*
X62910882Y44948946D01*
X62911118Y45219865D01*
X62807661Y45470252D01*
X62616259Y45661987D01*
X62366054Y45765882D01*
X62095135Y45766118D01*
X61844748Y45662661D01*
X61653013Y45471259D01*
X61549118Y45221054D01*
X61548882Y44950135D01*
X51480883Y44950135D01*
X51481118Y45219865D01*
X51377661Y45470252D01*
X51186259Y45661987D01*
X50936054Y45765882D01*
X50665135Y45766118D01*
X50414748Y45662661D01*
X50223013Y45471259D01*
X50119118Y45221054D01*
X50118882Y44950135D01*
X49911000Y44950135D01*
X49911000Y47490135D01*
X62183882Y47490135D01*
X62259403Y47307359D01*
X62184118Y47126054D01*
X62183882Y46855135D01*
X62259403Y46672359D01*
X62184118Y46491054D01*
X62183882Y46220135D01*
X62287339Y45969748D01*
X62478741Y45778013D01*
X62728946Y45674118D01*
X62999865Y45673882D01*
X63250252Y45777339D01*
X63441987Y45968741D01*
X63545882Y46218946D01*
X63546118Y46489865D01*
X63470597Y46672641D01*
X63545882Y46853946D01*
X63546118Y47124865D01*
X63470597Y47307641D01*
X63545882Y47488946D01*
X63545883Y47490135D01*
X65993882Y47490135D01*
X66069403Y47307359D01*
X65994118Y47126054D01*
X65993882Y46855135D01*
X66069403Y46672359D01*
X65994118Y46491054D01*
X65993882Y46220135D01*
X66097339Y45969748D01*
X66288741Y45778013D01*
X66538946Y45674118D01*
X66809865Y45673882D01*
X67060252Y45777339D01*
X67251987Y45968741D01*
X67355882Y46218946D01*
X67356118Y46489865D01*
X67280597Y46672641D01*
X67355882Y46853946D01*
X67356118Y47124865D01*
X67280597Y47307641D01*
X67355882Y47488946D01*
X67356118Y47759865D01*
X67252661Y48010252D01*
X67061259Y48201987D01*
X66811054Y48305882D01*
X66540135Y48306118D01*
X66289748Y48202661D01*
X66098013Y48011259D01*
X65994118Y47761054D01*
X65993882Y47490135D01*
X63545883Y47490135D01*
X63546118Y47759865D01*
X63442661Y48010252D01*
X63251259Y48201987D01*
X63001054Y48305882D01*
X62730135Y48306118D01*
X62479748Y48202661D01*
X62288013Y48011259D01*
X62184118Y47761054D01*
X62183882Y47490135D01*
X49911000Y47490135D01*
X49911000Y49403000D01*
X57964966Y49403000D01*
X57843013Y49281259D01*
G36*
X79544000Y50292000D02*
X31570034Y50292000D01*
X31691987Y50413741D01*
X31795882Y50663946D01*
X31796118Y50934865D01*
X31692661Y51185252D01*
X31501259Y51376987D01*
X31251054Y51480882D01*
X30980135Y51481118D01*
X30729748Y51377661D01*
X30538013Y51186259D01*
X30434118Y50936054D01*
X30433882Y50665135D01*
X30537339Y50414748D01*
X30659874Y50292000D01*
X20955000Y50292000D01*
X20905590Y50281994D01*
X20863965Y50253553D01*
X20836685Y50211159D01*
X20828000Y50165000D01*
X20828000Y20683163D01*
X20780739Y20797543D01*
X20280173Y21298983D01*
X19625817Y21570695D01*
X18917291Y21571314D01*
X18262462Y21300744D01*
X17761022Y20800178D01*
X17489310Y20145822D01*
X17488691Y19437296D01*
X17759261Y18782467D01*
X18259827Y18281027D01*
X18914183Y18009315D01*
X19622709Y18008696D01*
X20277538Y18279266D01*
X20778978Y18779832D01*
X20828000Y18897890D01*
X20828000Y15003163D01*
X20780739Y15117543D01*
X20280173Y15618983D01*
X19625817Y15890695D01*
X18917291Y15891314D01*
X18262462Y15620744D01*
X17761022Y15120178D01*
X17489310Y14465822D01*
X17488691Y13757296D01*
X17759261Y13102467D01*
X18259827Y12601027D01*
X18914183Y12329315D01*
X19622709Y12328696D01*
X20277538Y12599266D01*
X20778978Y13099832D01*
X20828000Y13217890D01*
X20828000Y456000D01*
X456000Y456000D01*
X456000Y13757296D01*
X4348691Y13757296D01*
X4619261Y13102467D01*
X5119827Y12601027D01*
X5774183Y12329315D01*
X6482709Y12328696D01*
X7137538Y12599266D01*
X7638978Y13099832D01*
X7910690Y13754188D01*
X7911309Y14462714D01*
X7640739Y15117543D01*
X7140173Y15618983D01*
X6485817Y15890695D01*
X5777291Y15891314D01*
X5122462Y15620744D01*
X4621022Y15120178D01*
X4349310Y14465822D01*
X4348691Y13757296D01*
X456000Y13757296D01*
X456000Y16603944D01*
X8108811Y16603944D01*
X8274556Y16202810D01*
X8581191Y15895639D01*
X8982035Y15729195D01*
X9416061Y15728816D01*
X9817195Y15894561D01*
X10124366Y16201196D01*
X10290810Y16602040D01*
X10290811Y16603944D01*
X10608811Y16603944D01*
X10774556Y16202810D01*
X11081191Y15895639D01*
X11482035Y15729195D01*
X11916061Y15728816D01*
X12317195Y15894561D01*
X12624366Y16201196D01*
X12699980Y16383297D01*
X12774556Y16202810D01*
X13081191Y15895639D01*
X13482035Y15729195D01*
X13916061Y15728816D01*
X14317195Y15894561D01*
X14624366Y16201196D01*
X14790810Y16602040D01*
X14790811Y16603944D01*
X15108811Y16603944D01*
X15274556Y16202810D01*
X15581191Y15895639D01*
X15982035Y15729195D01*
X16416061Y15728816D01*
X16817195Y15894561D01*
X17124366Y16201196D01*
X17290810Y16602040D01*
X17291189Y17036066D01*
X17125444Y17437200D01*
X16818809Y17744371D01*
X16417965Y17910815D01*
X15983939Y17911194D01*
X15582805Y17745449D01*
X15275634Y17438814D01*
X15109190Y17037970D01*
X15108811Y16603944D01*
X14790811Y16603944D01*
X14791189Y17036066D01*
X14625444Y17437200D01*
X14318809Y17744371D01*
X13917965Y17910815D01*
X13483939Y17911194D01*
X13082805Y17745449D01*
X12775634Y17438814D01*
X12700020Y17256713D01*
X12625444Y17437200D01*
X12318809Y17744371D01*
X11917965Y17910815D01*
X11483939Y17911194D01*
X11082805Y17745449D01*
X10775634Y17438814D01*
X10609190Y17037970D01*
X10608811Y16603944D01*
X10290811Y16603944D01*
X10291189Y17036066D01*
X10125444Y17437200D01*
X9818809Y17744371D01*
X9417965Y17910815D01*
X8983939Y17911194D01*
X8582805Y17745449D01*
X8275634Y17438814D01*
X8109190Y17037970D01*
X8108811Y16603944D01*
X456000Y16603944D01*
X456000Y19437296D01*
X4348691Y19437296D01*
X4619261Y18782467D01*
X5119827Y18281027D01*
X5774183Y18009315D01*
X6482709Y18008696D01*
X7137538Y18279266D01*
X7638978Y18779832D01*
X7823389Y19223944D01*
X8108811Y19223944D01*
X8274556Y18822810D01*
X8581191Y18515639D01*
X8982035Y18349195D01*
X9416061Y18348816D01*
X9817195Y18514561D01*
X10124366Y18821196D01*
X10290810Y19222040D01*
X10290811Y19223944D01*
X10608811Y19223944D01*
X10774556Y18822810D01*
X11081191Y18515639D01*
X11482035Y18349195D01*
X11916061Y18348816D01*
X12317195Y18514561D01*
X12624366Y18821196D01*
X12699980Y19003297D01*
X12774556Y18822810D01*
X13081191Y18515639D01*
X13482035Y18349195D01*
X13916061Y18348816D01*
X14317195Y18514561D01*
X14624366Y18821196D01*
X14790810Y19222040D01*
X14790811Y19223944D01*
X15108811Y19223944D01*
X15274556Y18822810D01*
X15581191Y18515639D01*
X15982035Y18349195D01*
X16416061Y18348816D01*
X16817195Y18514561D01*
X17124366Y18821196D01*
X17290810Y19222040D01*
X17291189Y19656066D01*
X17125444Y20057200D01*
X16818809Y20364371D01*
X16417965Y20530815D01*
X15983939Y20531194D01*
X15582805Y20365449D01*
X15275634Y20058814D01*
X15109190Y19657970D01*
X15108811Y19223944D01*
X14790811Y19223944D01*
X14791189Y19656066D01*
X14625444Y20057200D01*
X14318809Y20364371D01*
X13917965Y20530815D01*
X13483939Y20531194D01*
X13082805Y20365449D01*
X12775634Y20058814D01*
X12700020Y19876713D01*
X12625444Y20057200D01*
X12318809Y20364371D01*
X11917965Y20530815D01*
X11483939Y20531194D01*
X11082805Y20365449D01*
X10775634Y20058814D01*
X10609190Y19657970D01*
X10608811Y19223944D01*
X10290811Y19223944D01*
X10291189Y19656066D01*
X10125444Y20057200D01*
X9818809Y20364371D01*
X9417965Y20530815D01*
X8983939Y20531194D01*
X8582805Y20365449D01*
X8275634Y20058814D01*
X8109190Y19657970D01*
X8108811Y19223944D01*
X7823389Y19223944D01*
X7910690Y19434188D01*
X7911309Y20142714D01*
X7640739Y20797543D01*
X7140173Y21298983D01*
X6485817Y21570695D01*
X5777291Y21571314D01*
X5122462Y21300744D01*
X4621022Y20800178D01*
X4349310Y20145822D01*
X4348691Y19437296D01*
X456000Y19437296D01*
X456000Y23995135D01*
X18368882Y23995135D01*
X18472339Y23744748D01*
X18663741Y23553013D01*
X18913946Y23449118D01*
X19184865Y23448882D01*
X19435252Y23552339D01*
X19626987Y23743741D01*
X19730882Y23993946D01*
X19731118Y24264865D01*
X19627661Y24515252D01*
X19436259Y24706987D01*
X19186054Y24810882D01*
X18915135Y24811118D01*
X18664748Y24707661D01*
X18473013Y24516259D01*
X18369118Y24266054D01*
X18368882Y23995135D01*
X456000Y23995135D01*
X456000Y25900135D01*
X14558882Y25900135D01*
X14662339Y25649748D01*
X14853741Y25458013D01*
X15103946Y25354118D01*
X15374865Y25353882D01*
X15625252Y25457339D01*
X15816987Y25648741D01*
X15920882Y25898946D01*
X15921118Y26169865D01*
X15817661Y26420252D01*
X15626259Y26611987D01*
X15376054Y26715882D01*
X15105135Y26716118D01*
X14854748Y26612661D01*
X14663013Y26421259D01*
X14559118Y26171054D01*
X14558882Y25900135D01*
X456000Y25900135D01*
X456000Y34790135D01*
X15828882Y34790135D01*
X15932339Y34539748D01*
X16123741Y34348013D01*
X16373946Y34244118D01*
X16644865Y34243882D01*
X16895252Y34347339D01*
X17086987Y34538741D01*
X17190882Y34788946D01*
X17191118Y35059865D01*
X17087661Y35310252D01*
X16896259Y35501987D01*
X16646054Y35605882D01*
X16375135Y35606118D01*
X16124748Y35502661D01*
X15933013Y35311259D01*
X15829118Y35061054D01*
X15828882Y34790135D01*
X456000Y34790135D01*
X456000Y37330135D01*
X17733882Y37330135D01*
X17837339Y37079748D01*
X18028741Y36888013D01*
X18278946Y36784118D01*
X18549865Y36783882D01*
X18800252Y36887339D01*
X18991987Y37078741D01*
X19095882Y37328946D01*
X19096118Y37599865D01*
X18992661Y37850252D01*
X18801259Y38041987D01*
X18551054Y38145882D01*
X18280135Y38146118D01*
X18029748Y38042661D01*
X17838013Y37851259D01*
X17734118Y37601054D01*
X17733882Y37330135D01*
X456000Y37330135D01*
X456000Y43680135D01*
X17733882Y43680135D01*
X17837339Y43429748D01*
X18028741Y43238013D01*
X18278946Y43134118D01*
X18549865Y43133882D01*
X18800252Y43237339D01*
X18991987Y43428741D01*
X19095882Y43678946D01*
X19096118Y43949865D01*
X18992661Y44200252D01*
X18801259Y44391987D01*
X18551054Y44495882D01*
X18280135Y44496118D01*
X18029748Y44392661D01*
X17838013Y44201259D01*
X17734118Y43951054D01*
X17733882Y43680135D01*
X456000Y43680135D01*
X456000Y47490135D01*
X15193882Y47490135D01*
X15297339Y47239748D01*
X15488741Y47048013D01*
X15738946Y46944118D01*
X16009865Y46943882D01*
X16260252Y47047339D01*
X16451987Y47238741D01*
X16555882Y47488946D01*
X16556118Y47759865D01*
X16452661Y48010252D01*
X16337978Y48125135D01*
X17098882Y48125135D01*
X17202339Y47874748D01*
X17393741Y47683013D01*
X17643946Y47579118D01*
X17914865Y47578882D01*
X18165252Y47682339D01*
X18356987Y47873741D01*
X18460882Y48123946D01*
X18461118Y48394865D01*
X18357661Y48645252D01*
X18166259Y48836987D01*
X17916054Y48940882D01*
X17645135Y48941118D01*
X17394748Y48837661D01*
X17203013Y48646259D01*
X17099118Y48396054D01*
X17098882Y48125135D01*
X16337978Y48125135D01*
X16261259Y48201987D01*
X16011054Y48305882D01*
X15740135Y48306118D01*
X15489748Y48202661D01*
X15298013Y48011259D01*
X15194118Y47761054D01*
X15193882Y47490135D01*
X456000Y47490135D01*
X456000Y53205135D01*
X8208882Y53205135D01*
X8312339Y52954748D01*
X8503741Y52763013D01*
X8702041Y52680671D01*
X8622151Y52647661D01*
X8430416Y52456259D01*
X8326521Y52206054D01*
X8326285Y51935135D01*
X8429742Y51684748D01*
X8621144Y51493013D01*
X8871349Y51389118D01*
X9142268Y51388882D01*
X9266197Y51440088D01*
X9388946Y51389118D01*
X9659865Y51388882D01*
X9842641Y51464403D01*
X10023946Y51389118D01*
X10113959Y51389040D01*
X10113882Y51300135D01*
X10189403Y51117359D01*
X10114118Y50936054D01*
X10113882Y50665135D01*
X10189403Y50482359D01*
X10114118Y50301054D01*
X10113882Y50030135D01*
X10217339Y49779748D01*
X10408741Y49588013D01*
X10658946Y49484118D01*
X10929865Y49483882D01*
X11180252Y49587339D01*
X11371987Y49778741D01*
X11475882Y50028946D01*
X11475883Y50030135D01*
X12018882Y50030135D01*
X12122339Y49779748D01*
X12313741Y49588013D01*
X12563946Y49484118D01*
X12834865Y49483882D01*
X13085252Y49587339D01*
X13276987Y49778741D01*
X13380882Y50028946D01*
X13381118Y50299865D01*
X13277661Y50550252D01*
X13086259Y50741987D01*
X12836054Y50845882D01*
X12565135Y50846118D01*
X12314748Y50742661D01*
X12123013Y50551259D01*
X12019118Y50301054D01*
X12018882Y50030135D01*
X11475883Y50030135D01*
X11476118Y50299865D01*
X11400597Y50482641D01*
X11475882Y50663946D01*
X11476118Y50934865D01*
X11400597Y51117641D01*
X11475882Y51298946D01*
X11475883Y51300135D01*
X14558882Y51300135D01*
X14662339Y51049748D01*
X14853741Y50858013D01*
X15103946Y50754118D01*
X15374865Y50753882D01*
X15625252Y50857339D01*
X15816987Y51048741D01*
X15920882Y51298946D01*
X15921118Y51569865D01*
X15817661Y51820252D01*
X15626259Y52011987D01*
X15376054Y52115882D01*
X15105135Y52116118D01*
X14854748Y52012661D01*
X14663013Y51821259D01*
X14559118Y51571054D01*
X14558882Y51300135D01*
X11475883Y51300135D01*
X11476118Y51569865D01*
X11372661Y51820252D01*
X11181259Y52011987D01*
X10931054Y52115882D01*
X10841041Y52115960D01*
X10841118Y52204865D01*
X10737661Y52455252D01*
X10546259Y52646987D01*
X10296054Y52750882D01*
X10025135Y52751118D01*
X9842359Y52675597D01*
X9661054Y52750882D01*
X9390135Y52751118D01*
X9266206Y52699912D01*
X9195362Y52729329D01*
X9275252Y52762339D01*
X9327539Y52814536D01*
X14558882Y52814536D01*
X14662339Y52564149D01*
X14853741Y52372414D01*
X15103946Y52268519D01*
X15374865Y52268283D01*
X15625252Y52371740D01*
X15816987Y52563142D01*
X15819890Y52570135D01*
X48848882Y52570135D01*
X48952339Y52319748D01*
X49143741Y52128013D01*
X49393946Y52024118D01*
X49664865Y52023882D01*
X49915252Y52127339D01*
X50106987Y52318741D01*
X50210882Y52568946D01*
X50210883Y52570135D01*
X58373882Y52570135D01*
X58477339Y52319748D01*
X58668741Y52128013D01*
X58918946Y52024118D01*
X59189865Y52023882D01*
X59440252Y52127339D01*
X59631987Y52318741D01*
X59735882Y52568946D01*
X59736118Y52839865D01*
X59632661Y53090252D01*
X59517978Y53205135D01*
X60913882Y53205135D01*
X61017339Y52954748D01*
X61208741Y52763013D01*
X61458946Y52659118D01*
X61729865Y52658882D01*
X61980252Y52762339D01*
X62171987Y52953741D01*
X62275882Y53203946D01*
X62276118Y53474865D01*
X62172661Y53725252D01*
X61981259Y53916987D01*
X61731054Y54020882D01*
X61460135Y54021118D01*
X61209748Y53917661D01*
X61018013Y53726259D01*
X60914118Y53476054D01*
X60913882Y53205135D01*
X59517978Y53205135D01*
X59441259Y53281987D01*
X59191054Y53385882D01*
X58920135Y53386118D01*
X58669748Y53282661D01*
X58478013Y53091259D01*
X58374118Y52841054D01*
X58373882Y52570135D01*
X50210883Y52570135D01*
X50211118Y52839865D01*
X50107661Y53090252D01*
X49992978Y53205135D01*
X50118882Y53205135D01*
X50222339Y52954748D01*
X50413741Y52763013D01*
X50663946Y52659118D01*
X50934865Y52658882D01*
X51185252Y52762339D01*
X51376987Y52953741D01*
X51480882Y53203946D01*
X51481118Y53474865D01*
X51377661Y53725252D01*
X51262978Y53840135D01*
X53293882Y53840135D01*
X53397339Y53589748D01*
X53588741Y53398013D01*
X53838946Y53294118D01*
X54109865Y53293882D01*
X54360252Y53397339D01*
X54551987Y53588741D01*
X54655882Y53838946D01*
X54656118Y54109865D01*
X54552661Y54360252D01*
X54361259Y54551987D01*
X54111054Y54655882D01*
X53840135Y54656118D01*
X53589748Y54552661D01*
X53398013Y54361259D01*
X53294118Y54111054D01*
X53293882Y53840135D01*
X51262978Y53840135D01*
X51186259Y53916987D01*
X50936054Y54020882D01*
X50665135Y54021118D01*
X50414748Y53917661D01*
X50223013Y53726259D01*
X50119118Y53476054D01*
X50118882Y53205135D01*
X49992978Y53205135D01*
X49916259Y53281987D01*
X49666054Y53385882D01*
X49395135Y53386118D01*
X49144748Y53282661D01*
X48953013Y53091259D01*
X48849118Y52841054D01*
X48848882Y52570135D01*
X15819890Y52570135D01*
X15920882Y52813347D01*
X15921118Y53084266D01*
X15885017Y53171638D01*
X17582982Y53171638D01*
X17686439Y52921251D01*
X17877841Y52729516D01*
X18128046Y52625621D01*
X18398965Y52625385D01*
X18649352Y52728842D01*
X18677754Y52757194D01*
X18913946Y52659118D01*
X19184865Y52658882D01*
X19435252Y52762339D01*
X19626987Y52953741D01*
X19730882Y53203946D01*
X19731118Y53474865D01*
X19627661Y53725252D01*
X19584264Y53768725D01*
X22178882Y53768725D01*
X22282339Y53518338D01*
X22473741Y53326603D01*
X22723946Y53222708D01*
X22994865Y53222472D01*
X23245252Y53325929D01*
X23436463Y53516808D01*
X23626338Y53326603D01*
X23876543Y53222708D01*
X24147462Y53222472D01*
X24389085Y53322308D01*
X24628946Y53222708D01*
X24899865Y53222472D01*
X25150252Y53325929D01*
X25341987Y53517331D01*
X25445882Y53767536D01*
X25446118Y54038455D01*
X25342661Y54288842D01*
X25151259Y54480577D01*
X24901054Y54584472D01*
X24630135Y54584708D01*
X24388512Y54484872D01*
X24148651Y54584472D01*
X23877732Y54584708D01*
X23627345Y54481251D01*
X23436134Y54290372D01*
X23246259Y54480577D01*
X22996054Y54584472D01*
X22725135Y54584708D01*
X22474748Y54481251D01*
X22283013Y54289849D01*
X22179118Y54039644D01*
X22178882Y53768725D01*
X19584264Y53768725D01*
X19436259Y53916987D01*
X19186054Y54020882D01*
X18915135Y54021118D01*
X18664748Y53917661D01*
X18636346Y53889309D01*
X18400154Y53987385D01*
X18129235Y53987621D01*
X17878848Y53884164D01*
X17687113Y53692762D01*
X17583218Y53442557D01*
X17582982Y53171638D01*
X15885017Y53171638D01*
X15817661Y53334653D01*
X15626259Y53526388D01*
X15376054Y53630283D01*
X15105135Y53630519D01*
X14854748Y53527062D01*
X14663013Y53335660D01*
X14559118Y53085455D01*
X14558882Y52814536D01*
X9327539Y52814536D01*
X9466987Y52953741D01*
X9570882Y53203946D01*
X9571118Y53474865D01*
X9467661Y53725252D01*
X9276259Y53916987D01*
X9026054Y54020882D01*
X8755135Y54021118D01*
X8504748Y53917661D01*
X8313013Y53726259D01*
X8209118Y53476054D01*
X8208882Y53205135D01*
X456000Y53205135D01*
X456000Y54357732D01*
X19638882Y54357732D01*
X19742339Y54107345D01*
X19933741Y53915610D01*
X20183946Y53811715D01*
X20454865Y53811479D01*
X20705252Y53914936D01*
X20896987Y54106338D01*
X21000882Y54356543D01*
X21001118Y54627462D01*
X20897661Y54877849D01*
X20706259Y55069584D01*
X20608603Y55110135D01*
X31703882Y55110135D01*
X31807339Y54859748D01*
X31998741Y54668013D01*
X32248946Y54564118D01*
X32519865Y54563882D01*
X32770252Y54667339D01*
X32961987Y54858741D01*
X33065882Y55108946D01*
X33065883Y55110135D01*
X34243882Y55110135D01*
X34319403Y54927359D01*
X34244118Y54746054D01*
X34243882Y54475135D01*
X34319403Y54292359D01*
X34244118Y54111054D01*
X34243882Y53840135D01*
X34347339Y53589748D01*
X34538741Y53398013D01*
X34788946Y53294118D01*
X35059865Y53293882D01*
X35310252Y53397339D01*
X35501987Y53588741D01*
X35605882Y53838946D01*
X35606118Y54109865D01*
X35530597Y54292641D01*
X35605882Y54473946D01*
X35606118Y54744865D01*
X35530597Y54927641D01*
X35605882Y55108946D01*
X35605883Y55110135D01*
X38053882Y55110135D01*
X38129403Y54927359D01*
X38054118Y54746054D01*
X38053882Y54475135D01*
X38129403Y54292359D01*
X38054118Y54111054D01*
X38053882Y53840135D01*
X38157339Y53589748D01*
X38348741Y53398013D01*
X38598946Y53294118D01*
X38869865Y53293882D01*
X39120252Y53397339D01*
X39311987Y53588741D01*
X39415882Y53838946D01*
X39416118Y54109865D01*
X39340597Y54292641D01*
X39415882Y54473946D01*
X39416118Y54744865D01*
X39340597Y54927641D01*
X39415882Y55108946D01*
X39416118Y55379865D01*
X39312661Y55630252D01*
X39197978Y55745135D01*
X62818882Y55745135D01*
X62922339Y55494748D01*
X63113741Y55303013D01*
X63363946Y55199118D01*
X63634865Y55198882D01*
X63817641Y55274403D01*
X63998946Y55199118D01*
X64269865Y55198882D01*
X64452641Y55274403D01*
X64633946Y55199118D01*
X64904865Y55198882D01*
X65087641Y55274403D01*
X65268946Y55199118D01*
X65539865Y55198882D01*
X65722641Y55274403D01*
X65903946Y55199118D01*
X65993959Y55199040D01*
X65993882Y55110135D01*
X66069403Y54927359D01*
X65994118Y54746054D01*
X65993882Y54475135D01*
X66069403Y54292359D01*
X65994118Y54111054D01*
X65993882Y53840135D01*
X66097339Y53589748D01*
X66288741Y53398013D01*
X66538946Y53294118D01*
X66809865Y53293882D01*
X67060252Y53397339D01*
X67251987Y53588741D01*
X67355882Y53838946D01*
X67356118Y54109865D01*
X67280597Y54292641D01*
X67355882Y54473946D01*
X67356118Y54744865D01*
X67280597Y54927641D01*
X67355882Y55108946D01*
X67356118Y55379865D01*
X67252661Y55630252D01*
X67061259Y55821987D01*
X66811054Y55925882D01*
X66721041Y55925960D01*
X66721118Y56014865D01*
X66617661Y56265252D01*
X66426259Y56456987D01*
X66176054Y56560882D01*
X65905135Y56561118D01*
X65722359Y56485597D01*
X65541054Y56560882D01*
X65270135Y56561118D01*
X65087359Y56485597D01*
X64906054Y56560882D01*
X64635135Y56561118D01*
X64452359Y56485597D01*
X64271054Y56560882D01*
X64000135Y56561118D01*
X63817359Y56485597D01*
X63636054Y56560882D01*
X63365135Y56561118D01*
X63114748Y56457661D01*
X62923013Y56266259D01*
X62819118Y56016054D01*
X62818882Y55745135D01*
X39197978Y55745135D01*
X39121259Y55821987D01*
X38871054Y55925882D01*
X38600135Y55926118D01*
X38349748Y55822661D01*
X38158013Y55631259D01*
X38054118Y55381054D01*
X38053882Y55110135D01*
X35605883Y55110135D01*
X35606118Y55379865D01*
X35502661Y55630252D01*
X35311259Y55821987D01*
X35061054Y55925882D01*
X34790135Y55926118D01*
X34539748Y55822661D01*
X34348013Y55631259D01*
X34244118Y55381054D01*
X34243882Y55110135D01*
X33065883Y55110135D01*
X33066118Y55379865D01*
X32962661Y55630252D01*
X32771259Y55821987D01*
X32521054Y55925882D01*
X32250135Y55926118D01*
X31999748Y55822661D01*
X31808013Y55631259D01*
X31704118Y55381054D01*
X31703882Y55110135D01*
X20608603Y55110135D01*
X20456054Y55173479D01*
X20185135Y55173715D01*
X19934748Y55070258D01*
X19743013Y54878856D01*
X19639118Y54628651D01*
X19638882Y54357732D01*
X456000Y54357732D01*
X456000Y56380135D01*
X4398882Y56380135D01*
X4502339Y56129748D01*
X4693741Y55938013D01*
X4943946Y55834118D01*
X5214865Y55833882D01*
X5465252Y55937339D01*
X5656987Y56128741D01*
X5760882Y56378946D01*
X5760883Y56380135D01*
X7573882Y56380135D01*
X7677339Y56129748D01*
X7868741Y55938013D01*
X8118946Y55834118D01*
X8389865Y55833882D01*
X8640252Y55937339D01*
X8831987Y56128741D01*
X8935882Y56378946D01*
X8935993Y56506961D01*
X19581299Y56506961D01*
X19684756Y56256574D01*
X19876158Y56064839D01*
X20126363Y55960944D01*
X20397282Y55960708D01*
X20647669Y56064165D01*
X20839404Y56255567D01*
X20943299Y56505772D01*
X20943535Y56776691D01*
X20845013Y57015135D01*
X22813882Y57015135D01*
X22917339Y56764748D01*
X23108741Y56573013D01*
X23358946Y56469118D01*
X23629865Y56468882D01*
X23880252Y56572339D01*
X24071987Y56763741D01*
X24175882Y57013946D01*
X24175960Y57103959D01*
X24264865Y57103882D01*
X24515252Y57207339D01*
X24706987Y57398741D01*
X24810882Y57648946D01*
X24811118Y57919865D01*
X24707661Y58170252D01*
X24588186Y58289935D01*
X24718882Y58289935D01*
X24822339Y58039548D01*
X25013741Y57847813D01*
X25263946Y57743918D01*
X25534865Y57743682D01*
X25785252Y57847139D01*
X25976987Y58038541D01*
X26034020Y58175891D01*
X26092339Y58034748D01*
X26283741Y57843013D01*
X26533946Y57739118D01*
X26804865Y57738882D01*
X27055252Y57842339D01*
X27246987Y58033741D01*
X27350882Y58283946D01*
X27351085Y58516674D01*
X27563252Y58604339D01*
X27754987Y58795741D01*
X27858882Y59045946D01*
X27859071Y59263070D01*
X28074865Y59262882D01*
X28325252Y59366339D01*
X28514376Y59555135D01*
X72981704Y59555135D01*
X73085161Y59304748D01*
X73276563Y59113013D01*
X73526768Y59009118D01*
X73797687Y59008882D01*
X74048074Y59112339D01*
X74239809Y59303741D01*
X74343704Y59553946D01*
X74343940Y59824865D01*
X74240483Y60075252D01*
X74049081Y60266987D01*
X73798876Y60370882D01*
X73527957Y60371118D01*
X73277570Y60267661D01*
X73085835Y60076259D01*
X72981940Y59826054D01*
X72981704Y59555135D01*
X28514376Y59555135D01*
X28516987Y59557741D01*
X28620882Y59807946D01*
X28621118Y60078865D01*
X28517661Y60329252D01*
X28326259Y60520987D01*
X28076054Y60624882D01*
X27805135Y60625118D01*
X27554748Y60521661D01*
X27363013Y60330259D01*
X27259118Y60080054D01*
X27258929Y59862930D01*
X27043135Y59863118D01*
X26792748Y59759661D01*
X26601013Y59568259D01*
X26497118Y59318054D01*
X26496915Y59085326D01*
X26284748Y58997661D01*
X26093013Y58806259D01*
X26035980Y58668909D01*
X25977661Y58810052D01*
X25786259Y59001787D01*
X25536054Y59105682D01*
X25265135Y59105918D01*
X25014748Y59002461D01*
X24823013Y58811059D01*
X24719118Y58560854D01*
X24718882Y58289935D01*
X24588186Y58289935D01*
X24516259Y58361987D01*
X24266054Y58465882D01*
X23995135Y58466118D01*
X23744748Y58362661D01*
X23553013Y58171259D01*
X23449118Y57921054D01*
X23449040Y57831041D01*
X23360135Y57831118D01*
X23109748Y57727661D01*
X22918013Y57536259D01*
X22814118Y57286054D01*
X22813882Y57015135D01*
X20845013Y57015135D01*
X20840078Y57027078D01*
X20648676Y57218813D01*
X20398471Y57322708D01*
X20127552Y57322944D01*
X19877165Y57219487D01*
X19685430Y57028085D01*
X19581535Y56777880D01*
X19581299Y56506961D01*
X8935993Y56506961D01*
X8936118Y56649865D01*
X8832661Y56900252D01*
X8641259Y57091987D01*
X8391054Y57195882D01*
X8120135Y57196118D01*
X7869748Y57092661D01*
X7678013Y56901259D01*
X7574118Y56651054D01*
X7573882Y56380135D01*
X5760883Y56380135D01*
X5761118Y56649865D01*
X5657661Y56900252D01*
X5466259Y57091987D01*
X5216054Y57195882D01*
X4945135Y57196118D01*
X4694748Y57092661D01*
X4503013Y56901259D01*
X4399118Y56651054D01*
X4398882Y56380135D01*
X456000Y56380135D01*
X456000Y60825135D01*
X15193882Y60825135D01*
X15297339Y60574748D01*
X15488741Y60383013D01*
X15738946Y60279118D01*
X16009865Y60278882D01*
X16260252Y60382339D01*
X16451987Y60573741D01*
X16555882Y60823946D01*
X16556118Y61094865D01*
X16457668Y61333135D01*
X23956882Y61333135D01*
X24060339Y61082748D01*
X24251741Y60891013D01*
X24501946Y60787118D01*
X24772865Y60786882D01*
X24865445Y60825135D01*
X57103882Y60825135D01*
X57207339Y60574748D01*
X57398741Y60383013D01*
X57648946Y60279118D01*
X57919865Y60278882D01*
X58170252Y60382339D01*
X58361987Y60573741D01*
X58465882Y60823946D01*
X58466118Y61094865D01*
X58362661Y61345252D01*
X58171259Y61536987D01*
X57921054Y61640882D01*
X57650135Y61641118D01*
X57399748Y61537661D01*
X57208013Y61346259D01*
X57104118Y61096054D01*
X57103882Y60825135D01*
X24865445Y60825135D01*
X25023252Y60890339D01*
X25214987Y61081741D01*
X25318882Y61331946D01*
X25319118Y61602865D01*
X25215661Y61853252D01*
X25024259Y62044987D01*
X24774054Y62148882D01*
X24503135Y62149118D01*
X24252748Y62045661D01*
X24061013Y61854259D01*
X23957118Y61604054D01*
X23956882Y61333135D01*
X16457668Y61333135D01*
X16452661Y61345252D01*
X16261259Y61536987D01*
X16011054Y61640882D01*
X15740135Y61641118D01*
X15489748Y61537661D01*
X15298013Y61346259D01*
X15194118Y61096054D01*
X15193882Y60825135D01*
X456000Y60825135D01*
X456000Y62730135D01*
X16316930Y62730135D01*
X16420387Y62479748D01*
X16611789Y62288013D01*
X16861994Y62184118D01*
X17132913Y62183882D01*
X17383300Y62287339D01*
X17575035Y62478741D01*
X17678930Y62728946D01*
X17679166Y62999865D01*
X17575709Y63250252D01*
X17384307Y63441987D01*
X17134102Y63545882D01*
X16863183Y63546118D01*
X16612796Y63442661D01*
X16421061Y63251259D01*
X16317166Y63001054D01*
X16316930Y62730135D01*
X456000Y62730135D01*
X456000Y63771891D01*
X27030638Y63771891D01*
X27134095Y63521504D01*
X27325497Y63329769D01*
X27407535Y63295704D01*
X27363013Y63251259D01*
X27259118Y63001054D01*
X27258882Y62730135D01*
X27362339Y62479748D01*
X27553741Y62288013D01*
X27803946Y62184118D01*
X28074865Y62183882D01*
X28325252Y62287339D01*
X28516987Y62478741D01*
X28620882Y62728946D01*
X28621118Y62999865D01*
X28517661Y63250252D01*
X28326259Y63441987D01*
X28244221Y63476052D01*
X28288743Y63520497D01*
X28392638Y63770702D01*
X28392874Y64041621D01*
X28289417Y64292008D01*
X28098015Y64483743D01*
X27847810Y64587638D01*
X27576891Y64587874D01*
X27326504Y64484417D01*
X27134769Y64293015D01*
X27030874Y64042810D01*
X27030638Y63771891D01*
X456000Y63771891D01*
X456000Y66555000D01*
X3541536Y66555000D01*
X3541536Y64255000D01*
X3568103Y64113810D01*
X3651546Y63984135D01*
X3778866Y63897141D01*
X3930000Y63866536D01*
X6230000Y63866536D01*
X6371190Y63893103D01*
X6500865Y63976546D01*
X6587859Y64103866D01*
X6616146Y64243555D01*
X6751626Y64107838D01*
X7314129Y63874266D01*
X7923199Y63873735D01*
X8486109Y64106325D01*
X8917162Y64536626D01*
X8958525Y64636240D01*
X20189932Y64636240D01*
X20293389Y64385853D01*
X20484791Y64194118D01*
X20734996Y64090223D01*
X21005915Y64089987D01*
X21256302Y64193444D01*
X21448037Y64384846D01*
X21551932Y64635051D01*
X21551932Y64635135D01*
X34878882Y64635135D01*
X34982339Y64384748D01*
X35173741Y64193013D01*
X35423946Y64089118D01*
X35694865Y64088882D01*
X35787445Y64127135D01*
X36402882Y64127135D01*
X36506339Y63876748D01*
X36697741Y63685013D01*
X36947946Y63581118D01*
X37218865Y63580882D01*
X37469252Y63684339D01*
X37660987Y63875741D01*
X37764882Y64125946D01*
X37765118Y64396865D01*
X37661661Y64647252D01*
X37470259Y64838987D01*
X37220054Y64942882D01*
X36949135Y64943118D01*
X36698748Y64839661D01*
X36507013Y64648259D01*
X36403118Y64398054D01*
X36402882Y64127135D01*
X35787445Y64127135D01*
X35945252Y64192339D01*
X36136987Y64383741D01*
X36240882Y64633946D01*
X36241118Y64904865D01*
X36137661Y65155252D01*
X35946259Y65346987D01*
X35696054Y65450882D01*
X35425135Y65451118D01*
X35174748Y65347661D01*
X34983013Y65156259D01*
X34879118Y64906054D01*
X34878882Y64635135D01*
X21551932Y64635135D01*
X21552168Y64905970D01*
X21448711Y65156357D01*
X21257309Y65348092D01*
X21007104Y65451987D01*
X20736185Y65452223D01*
X20485798Y65348766D01*
X20294063Y65157364D01*
X20190168Y64907159D01*
X20189932Y64636240D01*
X8958525Y64636240D01*
X9150734Y65099129D01*
X9151265Y65708199D01*
X9069893Y65905135D01*
X17733882Y65905135D01*
X17837339Y65654748D01*
X18028741Y65463013D01*
X18278946Y65359118D01*
X18549865Y65358882D01*
X18800252Y65462339D01*
X18922388Y65584263D01*
X36759534Y65584263D01*
X36862991Y65333876D01*
X37054393Y65142141D01*
X37304598Y65038246D01*
X37575517Y65038010D01*
X37825904Y65141467D01*
X38017639Y65332869D01*
X38121534Y65583074D01*
X38121770Y65853993D01*
X38018313Y66104380D01*
X37826911Y66296115D01*
X37576706Y66400010D01*
X37305787Y66400246D01*
X37055400Y66296789D01*
X36863665Y66105387D01*
X36759770Y65855182D01*
X36759534Y65584263D01*
X18922388Y65584263D01*
X18991987Y65653741D01*
X19095882Y65903946D01*
X19096118Y66174865D01*
X18992661Y66425252D01*
X18801259Y66616987D01*
X18551054Y66720882D01*
X18280135Y66721118D01*
X18029748Y66617661D01*
X17838013Y66426259D01*
X17734118Y66176054D01*
X17733882Y65905135D01*
X9069893Y65905135D01*
X8918675Y66271109D01*
X8488374Y66702162D01*
X7925871Y66935734D01*
X7316801Y66936265D01*
X6753891Y66703675D01*
X6616328Y66566352D01*
X6591897Y66696190D01*
X6508454Y66825865D01*
X6381134Y66912859D01*
X6230000Y66943464D01*
X3930000Y66943464D01*
X3788810Y66916897D01*
X3659135Y66833454D01*
X3572141Y66706134D01*
X3541536Y66555000D01*
X456000Y66555000D01*
X456000Y68160000D01*
X32416536Y68160000D01*
X32416536Y66460000D01*
X32443103Y66318810D01*
X32526546Y66189135D01*
X32653866Y66102141D01*
X32805000Y66071536D01*
X34505000Y66071536D01*
X34646190Y66098103D01*
X34775865Y66181546D01*
X34862859Y66308866D01*
X34893464Y66460000D01*
X34893464Y67334117D01*
X37504000Y67334117D01*
X37504000Y67285883D01*
X37597704Y66814800D01*
X37864552Y66415435D01*
X38263917Y66148587D01*
X38735000Y66054883D01*
X39206083Y66148587D01*
X39605448Y66415435D01*
X39872296Y66814800D01*
X39966000Y67285883D01*
X39966000Y67334117D01*
X40044000Y67334117D01*
X40044000Y67285883D01*
X40137704Y66814800D01*
X40404552Y66415435D01*
X40803917Y66148587D01*
X41275000Y66054883D01*
X41746083Y66148587D01*
X42145448Y66415435D01*
X42412296Y66814800D01*
X42506000Y67285883D01*
X42506000Y67334117D01*
X42584000Y67334117D01*
X42584000Y67285883D01*
X42677704Y66814800D01*
X42944552Y66415435D01*
X43343917Y66148587D01*
X43815000Y66054883D01*
X44286083Y66148587D01*
X44685448Y66415435D01*
X44952296Y66814800D01*
X45046000Y67285883D01*
X45046000Y67334117D01*
X45124000Y67334117D01*
X45124000Y67285883D01*
X45217704Y66814800D01*
X45484552Y66415435D01*
X45883917Y66148587D01*
X46355000Y66054883D01*
X46826083Y66148587D01*
X47225448Y66415435D01*
X47492296Y66814800D01*
X47586000Y67285883D01*
X47586000Y67334117D01*
X47492296Y67805200D01*
X47225448Y68204565D01*
X46826083Y68471413D01*
X46355000Y68565117D01*
X45883917Y68471413D01*
X45484552Y68204565D01*
X45217704Y67805200D01*
X45124000Y67334117D01*
X45046000Y67334117D01*
X44952296Y67805200D01*
X44685448Y68204565D01*
X44286083Y68471413D01*
X43815000Y68565117D01*
X43343917Y68471413D01*
X42944552Y68204565D01*
X42677704Y67805200D01*
X42584000Y67334117D01*
X42506000Y67334117D01*
X42412296Y67805200D01*
X42145448Y68204565D01*
X41746083Y68471413D01*
X41275000Y68565117D01*
X40803917Y68471413D01*
X40404552Y68204565D01*
X40137704Y67805200D01*
X40044000Y67334117D01*
X39966000Y67334117D01*
X39872296Y67805200D01*
X39605448Y68204565D01*
X39206083Y68471413D01*
X38735000Y68565117D01*
X38263917Y68471413D01*
X37864552Y68204565D01*
X37597704Y67805200D01*
X37504000Y67334117D01*
X34893464Y67334117D01*
X34893464Y68160000D01*
X34866897Y68301190D01*
X34783454Y68430865D01*
X34656134Y68517859D01*
X34505000Y68548464D01*
X32805000Y68548464D01*
X32663810Y68521897D01*
X32534135Y68438454D01*
X32447141Y68311134D01*
X32416536Y68160000D01*
X456000Y68160000D01*
X456000Y71544000D01*
X79544000Y71544000D01*
X79544000Y50292000D01*
X79544000Y50292000D01*
G37*
X79544000Y50292000D02*
X31570034Y50292000D01*
X31691987Y50413741D01*
X31795882Y50663946D01*
X31796118Y50934865D01*
X31692661Y51185252D01*
X31501259Y51376987D01*
X31251054Y51480882D01*
X30980135Y51481118D01*
X30729748Y51377661D01*
X30538013Y51186259D01*
X30434118Y50936054D01*
X30433882Y50665135D01*
X30537339Y50414748D01*
X30659874Y50292000D01*
X20955000Y50292000D01*
X20905590Y50281994D01*
X20863965Y50253553D01*
X20836685Y50211159D01*
X20828000Y50165000D01*
X20828000Y20683163D01*
X20780739Y20797543D01*
X20280173Y21298983D01*
X19625817Y21570695D01*
X18917291Y21571314D01*
X18262462Y21300744D01*
X17761022Y20800178D01*
X17489310Y20145822D01*
X17488691Y19437296D01*
X17759261Y18782467D01*
X18259827Y18281027D01*
X18914183Y18009315D01*
X19622709Y18008696D01*
X20277538Y18279266D01*
X20778978Y18779832D01*
X20828000Y18897890D01*
X20828000Y15003163D01*
X20780739Y15117543D01*
X20280173Y15618983D01*
X19625817Y15890695D01*
X18917291Y15891314D01*
X18262462Y15620744D01*
X17761022Y15120178D01*
X17489310Y14465822D01*
X17488691Y13757296D01*
X17759261Y13102467D01*
X18259827Y12601027D01*
X18914183Y12329315D01*
X19622709Y12328696D01*
X20277538Y12599266D01*
X20778978Y13099832D01*
X20828000Y13217890D01*
X20828000Y456000D01*
X456000Y456000D01*
X456000Y13757296D01*
X4348691Y13757296D01*
X4619261Y13102467D01*
X5119827Y12601027D01*
X5774183Y12329315D01*
X6482709Y12328696D01*
X7137538Y12599266D01*
X7638978Y13099832D01*
X7910690Y13754188D01*
X7911309Y14462714D01*
X7640739Y15117543D01*
X7140173Y15618983D01*
X6485817Y15890695D01*
X5777291Y15891314D01*
X5122462Y15620744D01*
X4621022Y15120178D01*
X4349310Y14465822D01*
X4348691Y13757296D01*
X456000Y13757296D01*
X456000Y16603944D01*
X8108811Y16603944D01*
X8274556Y16202810D01*
X8581191Y15895639D01*
X8982035Y15729195D01*
X9416061Y15728816D01*
X9817195Y15894561D01*
X10124366Y16201196D01*
X10290810Y16602040D01*
X10290811Y16603944D01*
X10608811Y16603944D01*
X10774556Y16202810D01*
X11081191Y15895639D01*
X11482035Y15729195D01*
X11916061Y15728816D01*
X12317195Y15894561D01*
X12624366Y16201196D01*
X12699980Y16383297D01*
X12774556Y16202810D01*
X13081191Y15895639D01*
X13482035Y15729195D01*
X13916061Y15728816D01*
X14317195Y15894561D01*
X14624366Y16201196D01*
X14790810Y16602040D01*
X14790811Y16603944D01*
X15108811Y16603944D01*
X15274556Y16202810D01*
X15581191Y15895639D01*
X15982035Y15729195D01*
X16416061Y15728816D01*
X16817195Y15894561D01*
X17124366Y16201196D01*
X17290810Y16602040D01*
X17291189Y17036066D01*
X17125444Y17437200D01*
X16818809Y17744371D01*
X16417965Y17910815D01*
X15983939Y17911194D01*
X15582805Y17745449D01*
X15275634Y17438814D01*
X15109190Y17037970D01*
X15108811Y16603944D01*
X14790811Y16603944D01*
X14791189Y17036066D01*
X14625444Y17437200D01*
X14318809Y17744371D01*
X13917965Y17910815D01*
X13483939Y17911194D01*
X13082805Y17745449D01*
X12775634Y17438814D01*
X12700020Y17256713D01*
X12625444Y17437200D01*
X12318809Y17744371D01*
X11917965Y17910815D01*
X11483939Y17911194D01*
X11082805Y17745449D01*
X10775634Y17438814D01*
X10609190Y17037970D01*
X10608811Y16603944D01*
X10290811Y16603944D01*
X10291189Y17036066D01*
X10125444Y17437200D01*
X9818809Y17744371D01*
X9417965Y17910815D01*
X8983939Y17911194D01*
X8582805Y17745449D01*
X8275634Y17438814D01*
X8109190Y17037970D01*
X8108811Y16603944D01*
X456000Y16603944D01*
X456000Y19437296D01*
X4348691Y19437296D01*
X4619261Y18782467D01*
X5119827Y18281027D01*
X5774183Y18009315D01*
X6482709Y18008696D01*
X7137538Y18279266D01*
X7638978Y18779832D01*
X7823389Y19223944D01*
X8108811Y19223944D01*
X8274556Y18822810D01*
X8581191Y18515639D01*
X8982035Y18349195D01*
X9416061Y18348816D01*
X9817195Y18514561D01*
X10124366Y18821196D01*
X10290810Y19222040D01*
X10290811Y19223944D01*
X10608811Y19223944D01*
X10774556Y18822810D01*
X11081191Y18515639D01*
X11482035Y18349195D01*
X11916061Y18348816D01*
X12317195Y18514561D01*
X12624366Y18821196D01*
X12699980Y19003297D01*
X12774556Y18822810D01*
X13081191Y18515639D01*
X13482035Y18349195D01*
X13916061Y18348816D01*
X14317195Y18514561D01*
X14624366Y18821196D01*
X14790810Y19222040D01*
X14790811Y19223944D01*
X15108811Y19223944D01*
X15274556Y18822810D01*
X15581191Y18515639D01*
X15982035Y18349195D01*
X16416061Y18348816D01*
X16817195Y18514561D01*
X17124366Y18821196D01*
X17290810Y19222040D01*
X17291189Y19656066D01*
X17125444Y20057200D01*
X16818809Y20364371D01*
X16417965Y20530815D01*
X15983939Y20531194D01*
X15582805Y20365449D01*
X15275634Y20058814D01*
X15109190Y19657970D01*
X15108811Y19223944D01*
X14790811Y19223944D01*
X14791189Y19656066D01*
X14625444Y20057200D01*
X14318809Y20364371D01*
X13917965Y20530815D01*
X13483939Y20531194D01*
X13082805Y20365449D01*
X12775634Y20058814D01*
X12700020Y19876713D01*
X12625444Y20057200D01*
X12318809Y20364371D01*
X11917965Y20530815D01*
X11483939Y20531194D01*
X11082805Y20365449D01*
X10775634Y20058814D01*
X10609190Y19657970D01*
X10608811Y19223944D01*
X10290811Y19223944D01*
X10291189Y19656066D01*
X10125444Y20057200D01*
X9818809Y20364371D01*
X9417965Y20530815D01*
X8983939Y20531194D01*
X8582805Y20365449D01*
X8275634Y20058814D01*
X8109190Y19657970D01*
X8108811Y19223944D01*
X7823389Y19223944D01*
X7910690Y19434188D01*
X7911309Y20142714D01*
X7640739Y20797543D01*
X7140173Y21298983D01*
X6485817Y21570695D01*
X5777291Y21571314D01*
X5122462Y21300744D01*
X4621022Y20800178D01*
X4349310Y20145822D01*
X4348691Y19437296D01*
X456000Y19437296D01*
X456000Y23995135D01*
X18368882Y23995135D01*
X18472339Y23744748D01*
X18663741Y23553013D01*
X18913946Y23449118D01*
X19184865Y23448882D01*
X19435252Y23552339D01*
X19626987Y23743741D01*
X19730882Y23993946D01*
X19731118Y24264865D01*
X19627661Y24515252D01*
X19436259Y24706987D01*
X19186054Y24810882D01*
X18915135Y24811118D01*
X18664748Y24707661D01*
X18473013Y24516259D01*
X18369118Y24266054D01*
X18368882Y23995135D01*
X456000Y23995135D01*
X456000Y25900135D01*
X14558882Y25900135D01*
X14662339Y25649748D01*
X14853741Y25458013D01*
X15103946Y25354118D01*
X15374865Y25353882D01*
X15625252Y25457339D01*
X15816987Y25648741D01*
X15920882Y25898946D01*
X15921118Y26169865D01*
X15817661Y26420252D01*
X15626259Y26611987D01*
X15376054Y26715882D01*
X15105135Y26716118D01*
X14854748Y26612661D01*
X14663013Y26421259D01*
X14559118Y26171054D01*
X14558882Y25900135D01*
X456000Y25900135D01*
X456000Y34790135D01*
X15828882Y34790135D01*
X15932339Y34539748D01*
X16123741Y34348013D01*
X16373946Y34244118D01*
X16644865Y34243882D01*
X16895252Y34347339D01*
X17086987Y34538741D01*
X17190882Y34788946D01*
X17191118Y35059865D01*
X17087661Y35310252D01*
X16896259Y35501987D01*
X16646054Y35605882D01*
X16375135Y35606118D01*
X16124748Y35502661D01*
X15933013Y35311259D01*
X15829118Y35061054D01*
X15828882Y34790135D01*
X456000Y34790135D01*
X456000Y37330135D01*
X17733882Y37330135D01*
X17837339Y37079748D01*
X18028741Y36888013D01*
X18278946Y36784118D01*
X18549865Y36783882D01*
X18800252Y36887339D01*
X18991987Y37078741D01*
X19095882Y37328946D01*
X19096118Y37599865D01*
X18992661Y37850252D01*
X18801259Y38041987D01*
X18551054Y38145882D01*
X18280135Y38146118D01*
X18029748Y38042661D01*
X17838013Y37851259D01*
X17734118Y37601054D01*
X17733882Y37330135D01*
X456000Y37330135D01*
X456000Y43680135D01*
X17733882Y43680135D01*
X17837339Y43429748D01*
X18028741Y43238013D01*
X18278946Y43134118D01*
X18549865Y43133882D01*
X18800252Y43237339D01*
X18991987Y43428741D01*
X19095882Y43678946D01*
X19096118Y43949865D01*
X18992661Y44200252D01*
X18801259Y44391987D01*
X18551054Y44495882D01*
X18280135Y44496118D01*
X18029748Y44392661D01*
X17838013Y44201259D01*
X17734118Y43951054D01*
X17733882Y43680135D01*
X456000Y43680135D01*
X456000Y47490135D01*
X15193882Y47490135D01*
X15297339Y47239748D01*
X15488741Y47048013D01*
X15738946Y46944118D01*
X16009865Y46943882D01*
X16260252Y47047339D01*
X16451987Y47238741D01*
X16555882Y47488946D01*
X16556118Y47759865D01*
X16452661Y48010252D01*
X16337978Y48125135D01*
X17098882Y48125135D01*
X17202339Y47874748D01*
X17393741Y47683013D01*
X17643946Y47579118D01*
X17914865Y47578882D01*
X18165252Y47682339D01*
X18356987Y47873741D01*
X18460882Y48123946D01*
X18461118Y48394865D01*
X18357661Y48645252D01*
X18166259Y48836987D01*
X17916054Y48940882D01*
X17645135Y48941118D01*
X17394748Y48837661D01*
X17203013Y48646259D01*
X17099118Y48396054D01*
X17098882Y48125135D01*
X16337978Y48125135D01*
X16261259Y48201987D01*
X16011054Y48305882D01*
X15740135Y48306118D01*
X15489748Y48202661D01*
X15298013Y48011259D01*
X15194118Y47761054D01*
X15193882Y47490135D01*
X456000Y47490135D01*
X456000Y53205135D01*
X8208882Y53205135D01*
X8312339Y52954748D01*
X8503741Y52763013D01*
X8702041Y52680671D01*
X8622151Y52647661D01*
X8430416Y52456259D01*
X8326521Y52206054D01*
X8326285Y51935135D01*
X8429742Y51684748D01*
X8621144Y51493013D01*
X8871349Y51389118D01*
X9142268Y51388882D01*
X9266197Y51440088D01*
X9388946Y51389118D01*
X9659865Y51388882D01*
X9842641Y51464403D01*
X10023946Y51389118D01*
X10113959Y51389040D01*
X10113882Y51300135D01*
X10189403Y51117359D01*
X10114118Y50936054D01*
X10113882Y50665135D01*
X10189403Y50482359D01*
X10114118Y50301054D01*
X10113882Y50030135D01*
X10217339Y49779748D01*
X10408741Y49588013D01*
X10658946Y49484118D01*
X10929865Y49483882D01*
X11180252Y49587339D01*
X11371987Y49778741D01*
X11475882Y50028946D01*
X11475883Y50030135D01*
X12018882Y50030135D01*
X12122339Y49779748D01*
X12313741Y49588013D01*
X12563946Y49484118D01*
X12834865Y49483882D01*
X13085252Y49587339D01*
X13276987Y49778741D01*
X13380882Y50028946D01*
X13381118Y50299865D01*
X13277661Y50550252D01*
X13086259Y50741987D01*
X12836054Y50845882D01*
X12565135Y50846118D01*
X12314748Y50742661D01*
X12123013Y50551259D01*
X12019118Y50301054D01*
X12018882Y50030135D01*
X11475883Y50030135D01*
X11476118Y50299865D01*
X11400597Y50482641D01*
X11475882Y50663946D01*
X11476118Y50934865D01*
X11400597Y51117641D01*
X11475882Y51298946D01*
X11475883Y51300135D01*
X14558882Y51300135D01*
X14662339Y51049748D01*
X14853741Y50858013D01*
X15103946Y50754118D01*
X15374865Y50753882D01*
X15625252Y50857339D01*
X15816987Y51048741D01*
X15920882Y51298946D01*
X15921118Y51569865D01*
X15817661Y51820252D01*
X15626259Y52011987D01*
X15376054Y52115882D01*
X15105135Y52116118D01*
X14854748Y52012661D01*
X14663013Y51821259D01*
X14559118Y51571054D01*
X14558882Y51300135D01*
X11475883Y51300135D01*
X11476118Y51569865D01*
X11372661Y51820252D01*
X11181259Y52011987D01*
X10931054Y52115882D01*
X10841041Y52115960D01*
X10841118Y52204865D01*
X10737661Y52455252D01*
X10546259Y52646987D01*
X10296054Y52750882D01*
X10025135Y52751118D01*
X9842359Y52675597D01*
X9661054Y52750882D01*
X9390135Y52751118D01*
X9266206Y52699912D01*
X9195362Y52729329D01*
X9275252Y52762339D01*
X9327539Y52814536D01*
X14558882Y52814536D01*
X14662339Y52564149D01*
X14853741Y52372414D01*
X15103946Y52268519D01*
X15374865Y52268283D01*
X15625252Y52371740D01*
X15816987Y52563142D01*
X15819890Y52570135D01*
X48848882Y52570135D01*
X48952339Y52319748D01*
X49143741Y52128013D01*
X49393946Y52024118D01*
X49664865Y52023882D01*
X49915252Y52127339D01*
X50106987Y52318741D01*
X50210882Y52568946D01*
X50210883Y52570135D01*
X58373882Y52570135D01*
X58477339Y52319748D01*
X58668741Y52128013D01*
X58918946Y52024118D01*
X59189865Y52023882D01*
X59440252Y52127339D01*
X59631987Y52318741D01*
X59735882Y52568946D01*
X59736118Y52839865D01*
X59632661Y53090252D01*
X59517978Y53205135D01*
X60913882Y53205135D01*
X61017339Y52954748D01*
X61208741Y52763013D01*
X61458946Y52659118D01*
X61729865Y52658882D01*
X61980252Y52762339D01*
X62171987Y52953741D01*
X62275882Y53203946D01*
X62276118Y53474865D01*
X62172661Y53725252D01*
X61981259Y53916987D01*
X61731054Y54020882D01*
X61460135Y54021118D01*
X61209748Y53917661D01*
X61018013Y53726259D01*
X60914118Y53476054D01*
X60913882Y53205135D01*
X59517978Y53205135D01*
X59441259Y53281987D01*
X59191054Y53385882D01*
X58920135Y53386118D01*
X58669748Y53282661D01*
X58478013Y53091259D01*
X58374118Y52841054D01*
X58373882Y52570135D01*
X50210883Y52570135D01*
X50211118Y52839865D01*
X50107661Y53090252D01*
X49992978Y53205135D01*
X50118882Y53205135D01*
X50222339Y52954748D01*
X50413741Y52763013D01*
X50663946Y52659118D01*
X50934865Y52658882D01*
X51185252Y52762339D01*
X51376987Y52953741D01*
X51480882Y53203946D01*
X51481118Y53474865D01*
X51377661Y53725252D01*
X51262978Y53840135D01*
X53293882Y53840135D01*
X53397339Y53589748D01*
X53588741Y53398013D01*
X53838946Y53294118D01*
X54109865Y53293882D01*
X54360252Y53397339D01*
X54551987Y53588741D01*
X54655882Y53838946D01*
X54656118Y54109865D01*
X54552661Y54360252D01*
X54361259Y54551987D01*
X54111054Y54655882D01*
X53840135Y54656118D01*
X53589748Y54552661D01*
X53398013Y54361259D01*
X53294118Y54111054D01*
X53293882Y53840135D01*
X51262978Y53840135D01*
X51186259Y53916987D01*
X50936054Y54020882D01*
X50665135Y54021118D01*
X50414748Y53917661D01*
X50223013Y53726259D01*
X50119118Y53476054D01*
X50118882Y53205135D01*
X49992978Y53205135D01*
X49916259Y53281987D01*
X49666054Y53385882D01*
X49395135Y53386118D01*
X49144748Y53282661D01*
X48953013Y53091259D01*
X48849118Y52841054D01*
X48848882Y52570135D01*
X15819890Y52570135D01*
X15920882Y52813347D01*
X15921118Y53084266D01*
X15885017Y53171638D01*
X17582982Y53171638D01*
X17686439Y52921251D01*
X17877841Y52729516D01*
X18128046Y52625621D01*
X18398965Y52625385D01*
X18649352Y52728842D01*
X18677754Y52757194D01*
X18913946Y52659118D01*
X19184865Y52658882D01*
X19435252Y52762339D01*
X19626987Y52953741D01*
X19730882Y53203946D01*
X19731118Y53474865D01*
X19627661Y53725252D01*
X19584264Y53768725D01*
X22178882Y53768725D01*
X22282339Y53518338D01*
X22473741Y53326603D01*
X22723946Y53222708D01*
X22994865Y53222472D01*
X23245252Y53325929D01*
X23436463Y53516808D01*
X23626338Y53326603D01*
X23876543Y53222708D01*
X24147462Y53222472D01*
X24389085Y53322308D01*
X24628946Y53222708D01*
X24899865Y53222472D01*
X25150252Y53325929D01*
X25341987Y53517331D01*
X25445882Y53767536D01*
X25446118Y54038455D01*
X25342661Y54288842D01*
X25151259Y54480577D01*
X24901054Y54584472D01*
X24630135Y54584708D01*
X24388512Y54484872D01*
X24148651Y54584472D01*
X23877732Y54584708D01*
X23627345Y54481251D01*
X23436134Y54290372D01*
X23246259Y54480577D01*
X22996054Y54584472D01*
X22725135Y54584708D01*
X22474748Y54481251D01*
X22283013Y54289849D01*
X22179118Y54039644D01*
X22178882Y53768725D01*
X19584264Y53768725D01*
X19436259Y53916987D01*
X19186054Y54020882D01*
X18915135Y54021118D01*
X18664748Y53917661D01*
X18636346Y53889309D01*
X18400154Y53987385D01*
X18129235Y53987621D01*
X17878848Y53884164D01*
X17687113Y53692762D01*
X17583218Y53442557D01*
X17582982Y53171638D01*
X15885017Y53171638D01*
X15817661Y53334653D01*
X15626259Y53526388D01*
X15376054Y53630283D01*
X15105135Y53630519D01*
X14854748Y53527062D01*
X14663013Y53335660D01*
X14559118Y53085455D01*
X14558882Y52814536D01*
X9327539Y52814536D01*
X9466987Y52953741D01*
X9570882Y53203946D01*
X9571118Y53474865D01*
X9467661Y53725252D01*
X9276259Y53916987D01*
X9026054Y54020882D01*
X8755135Y54021118D01*
X8504748Y53917661D01*
X8313013Y53726259D01*
X8209118Y53476054D01*
X8208882Y53205135D01*
X456000Y53205135D01*
X456000Y54357732D01*
X19638882Y54357732D01*
X19742339Y54107345D01*
X19933741Y53915610D01*
X20183946Y53811715D01*
X20454865Y53811479D01*
X20705252Y53914936D01*
X20896987Y54106338D01*
X21000882Y54356543D01*
X21001118Y54627462D01*
X20897661Y54877849D01*
X20706259Y55069584D01*
X20608603Y55110135D01*
X31703882Y55110135D01*
X31807339Y54859748D01*
X31998741Y54668013D01*
X32248946Y54564118D01*
X32519865Y54563882D01*
X32770252Y54667339D01*
X32961987Y54858741D01*
X33065882Y55108946D01*
X33065883Y55110135D01*
X34243882Y55110135D01*
X34319403Y54927359D01*
X34244118Y54746054D01*
X34243882Y54475135D01*
X34319403Y54292359D01*
X34244118Y54111054D01*
X34243882Y53840135D01*
X34347339Y53589748D01*
X34538741Y53398013D01*
X34788946Y53294118D01*
X35059865Y53293882D01*
X35310252Y53397339D01*
X35501987Y53588741D01*
X35605882Y53838946D01*
X35606118Y54109865D01*
X35530597Y54292641D01*
X35605882Y54473946D01*
X35606118Y54744865D01*
X35530597Y54927641D01*
X35605882Y55108946D01*
X35605883Y55110135D01*
X38053882Y55110135D01*
X38129403Y54927359D01*
X38054118Y54746054D01*
X38053882Y54475135D01*
X38129403Y54292359D01*
X38054118Y54111054D01*
X38053882Y53840135D01*
X38157339Y53589748D01*
X38348741Y53398013D01*
X38598946Y53294118D01*
X38869865Y53293882D01*
X39120252Y53397339D01*
X39311987Y53588741D01*
X39415882Y53838946D01*
X39416118Y54109865D01*
X39340597Y54292641D01*
X39415882Y54473946D01*
X39416118Y54744865D01*
X39340597Y54927641D01*
X39415882Y55108946D01*
X39416118Y55379865D01*
X39312661Y55630252D01*
X39197978Y55745135D01*
X62818882Y55745135D01*
X62922339Y55494748D01*
X63113741Y55303013D01*
X63363946Y55199118D01*
X63634865Y55198882D01*
X63817641Y55274403D01*
X63998946Y55199118D01*
X64269865Y55198882D01*
X64452641Y55274403D01*
X64633946Y55199118D01*
X64904865Y55198882D01*
X65087641Y55274403D01*
X65268946Y55199118D01*
X65539865Y55198882D01*
X65722641Y55274403D01*
X65903946Y55199118D01*
X65993959Y55199040D01*
X65993882Y55110135D01*
X66069403Y54927359D01*
X65994118Y54746054D01*
X65993882Y54475135D01*
X66069403Y54292359D01*
X65994118Y54111054D01*
X65993882Y53840135D01*
X66097339Y53589748D01*
X66288741Y53398013D01*
X66538946Y53294118D01*
X66809865Y53293882D01*
X67060252Y53397339D01*
X67251987Y53588741D01*
X67355882Y53838946D01*
X67356118Y54109865D01*
X67280597Y54292641D01*
X67355882Y54473946D01*
X67356118Y54744865D01*
X67280597Y54927641D01*
X67355882Y55108946D01*
X67356118Y55379865D01*
X67252661Y55630252D01*
X67061259Y55821987D01*
X66811054Y55925882D01*
X66721041Y55925960D01*
X66721118Y56014865D01*
X66617661Y56265252D01*
X66426259Y56456987D01*
X66176054Y56560882D01*
X65905135Y56561118D01*
X65722359Y56485597D01*
X65541054Y56560882D01*
X65270135Y56561118D01*
X65087359Y56485597D01*
X64906054Y56560882D01*
X64635135Y56561118D01*
X64452359Y56485597D01*
X64271054Y56560882D01*
X64000135Y56561118D01*
X63817359Y56485597D01*
X63636054Y56560882D01*
X63365135Y56561118D01*
X63114748Y56457661D01*
X62923013Y56266259D01*
X62819118Y56016054D01*
X62818882Y55745135D01*
X39197978Y55745135D01*
X39121259Y55821987D01*
X38871054Y55925882D01*
X38600135Y55926118D01*
X38349748Y55822661D01*
X38158013Y55631259D01*
X38054118Y55381054D01*
X38053882Y55110135D01*
X35605883Y55110135D01*
X35606118Y55379865D01*
X35502661Y55630252D01*
X35311259Y55821987D01*
X35061054Y55925882D01*
X34790135Y55926118D01*
X34539748Y55822661D01*
X34348013Y55631259D01*
X34244118Y55381054D01*
X34243882Y55110135D01*
X33065883Y55110135D01*
X33066118Y55379865D01*
X32962661Y55630252D01*
X32771259Y55821987D01*
X32521054Y55925882D01*
X32250135Y55926118D01*
X31999748Y55822661D01*
X31808013Y55631259D01*
X31704118Y55381054D01*
X31703882Y55110135D01*
X20608603Y55110135D01*
X20456054Y55173479D01*
X20185135Y55173715D01*
X19934748Y55070258D01*
X19743013Y54878856D01*
X19639118Y54628651D01*
X19638882Y54357732D01*
X456000Y54357732D01*
X456000Y56380135D01*
X4398882Y56380135D01*
X4502339Y56129748D01*
X4693741Y55938013D01*
X4943946Y55834118D01*
X5214865Y55833882D01*
X5465252Y55937339D01*
X5656987Y56128741D01*
X5760882Y56378946D01*
X5760883Y56380135D01*
X7573882Y56380135D01*
X7677339Y56129748D01*
X7868741Y55938013D01*
X8118946Y55834118D01*
X8389865Y55833882D01*
X8640252Y55937339D01*
X8831987Y56128741D01*
X8935882Y56378946D01*
X8935993Y56506961D01*
X19581299Y56506961D01*
X19684756Y56256574D01*
X19876158Y56064839D01*
X20126363Y55960944D01*
X20397282Y55960708D01*
X20647669Y56064165D01*
X20839404Y56255567D01*
X20943299Y56505772D01*
X20943535Y56776691D01*
X20845013Y57015135D01*
X22813882Y57015135D01*
X22917339Y56764748D01*
X23108741Y56573013D01*
X23358946Y56469118D01*
X23629865Y56468882D01*
X23880252Y56572339D01*
X24071987Y56763741D01*
X24175882Y57013946D01*
X24175960Y57103959D01*
X24264865Y57103882D01*
X24515252Y57207339D01*
X24706987Y57398741D01*
X24810882Y57648946D01*
X24811118Y57919865D01*
X24707661Y58170252D01*
X24588186Y58289935D01*
X24718882Y58289935D01*
X24822339Y58039548D01*
X25013741Y57847813D01*
X25263946Y57743918D01*
X25534865Y57743682D01*
X25785252Y57847139D01*
X25976987Y58038541D01*
X26034020Y58175891D01*
X26092339Y58034748D01*
X26283741Y57843013D01*
X26533946Y57739118D01*
X26804865Y57738882D01*
X27055252Y57842339D01*
X27246987Y58033741D01*
X27350882Y58283946D01*
X27351085Y58516674D01*
X27563252Y58604339D01*
X27754987Y58795741D01*
X27858882Y59045946D01*
X27859071Y59263070D01*
X28074865Y59262882D01*
X28325252Y59366339D01*
X28514376Y59555135D01*
X72981704Y59555135D01*
X73085161Y59304748D01*
X73276563Y59113013D01*
X73526768Y59009118D01*
X73797687Y59008882D01*
X74048074Y59112339D01*
X74239809Y59303741D01*
X74343704Y59553946D01*
X74343940Y59824865D01*
X74240483Y60075252D01*
X74049081Y60266987D01*
X73798876Y60370882D01*
X73527957Y60371118D01*
X73277570Y60267661D01*
X73085835Y60076259D01*
X72981940Y59826054D01*
X72981704Y59555135D01*
X28514376Y59555135D01*
X28516987Y59557741D01*
X28620882Y59807946D01*
X28621118Y60078865D01*
X28517661Y60329252D01*
X28326259Y60520987D01*
X28076054Y60624882D01*
X27805135Y60625118D01*
X27554748Y60521661D01*
X27363013Y60330259D01*
X27259118Y60080054D01*
X27258929Y59862930D01*
X27043135Y59863118D01*
X26792748Y59759661D01*
X26601013Y59568259D01*
X26497118Y59318054D01*
X26496915Y59085326D01*
X26284748Y58997661D01*
X26093013Y58806259D01*
X26035980Y58668909D01*
X25977661Y58810052D01*
X25786259Y59001787D01*
X25536054Y59105682D01*
X25265135Y59105918D01*
X25014748Y59002461D01*
X24823013Y58811059D01*
X24719118Y58560854D01*
X24718882Y58289935D01*
X24588186Y58289935D01*
X24516259Y58361987D01*
X24266054Y58465882D01*
X23995135Y58466118D01*
X23744748Y58362661D01*
X23553013Y58171259D01*
X23449118Y57921054D01*
X23449040Y57831041D01*
X23360135Y57831118D01*
X23109748Y57727661D01*
X22918013Y57536259D01*
X22814118Y57286054D01*
X22813882Y57015135D01*
X20845013Y57015135D01*
X20840078Y57027078D01*
X20648676Y57218813D01*
X20398471Y57322708D01*
X20127552Y57322944D01*
X19877165Y57219487D01*
X19685430Y57028085D01*
X19581535Y56777880D01*
X19581299Y56506961D01*
X8935993Y56506961D01*
X8936118Y56649865D01*
X8832661Y56900252D01*
X8641259Y57091987D01*
X8391054Y57195882D01*
X8120135Y57196118D01*
X7869748Y57092661D01*
X7678013Y56901259D01*
X7574118Y56651054D01*
X7573882Y56380135D01*
X5760883Y56380135D01*
X5761118Y56649865D01*
X5657661Y56900252D01*
X5466259Y57091987D01*
X5216054Y57195882D01*
X4945135Y57196118D01*
X4694748Y57092661D01*
X4503013Y56901259D01*
X4399118Y56651054D01*
X4398882Y56380135D01*
X456000Y56380135D01*
X456000Y60825135D01*
X15193882Y60825135D01*
X15297339Y60574748D01*
X15488741Y60383013D01*
X15738946Y60279118D01*
X16009865Y60278882D01*
X16260252Y60382339D01*
X16451987Y60573741D01*
X16555882Y60823946D01*
X16556118Y61094865D01*
X16457668Y61333135D01*
X23956882Y61333135D01*
X24060339Y61082748D01*
X24251741Y60891013D01*
X24501946Y60787118D01*
X24772865Y60786882D01*
X24865445Y60825135D01*
X57103882Y60825135D01*
X57207339Y60574748D01*
X57398741Y60383013D01*
X57648946Y60279118D01*
X57919865Y60278882D01*
X58170252Y60382339D01*
X58361987Y60573741D01*
X58465882Y60823946D01*
X58466118Y61094865D01*
X58362661Y61345252D01*
X58171259Y61536987D01*
X57921054Y61640882D01*
X57650135Y61641118D01*
X57399748Y61537661D01*
X57208013Y61346259D01*
X57104118Y61096054D01*
X57103882Y60825135D01*
X24865445Y60825135D01*
X25023252Y60890339D01*
X25214987Y61081741D01*
X25318882Y61331946D01*
X25319118Y61602865D01*
X25215661Y61853252D01*
X25024259Y62044987D01*
X24774054Y62148882D01*
X24503135Y62149118D01*
X24252748Y62045661D01*
X24061013Y61854259D01*
X23957118Y61604054D01*
X23956882Y61333135D01*
X16457668Y61333135D01*
X16452661Y61345252D01*
X16261259Y61536987D01*
X16011054Y61640882D01*
X15740135Y61641118D01*
X15489748Y61537661D01*
X15298013Y61346259D01*
X15194118Y61096054D01*
X15193882Y60825135D01*
X456000Y60825135D01*
X456000Y62730135D01*
X16316930Y62730135D01*
X16420387Y62479748D01*
X16611789Y62288013D01*
X16861994Y62184118D01*
X17132913Y62183882D01*
X17383300Y62287339D01*
X17575035Y62478741D01*
X17678930Y62728946D01*
X17679166Y62999865D01*
X17575709Y63250252D01*
X17384307Y63441987D01*
X17134102Y63545882D01*
X16863183Y63546118D01*
X16612796Y63442661D01*
X16421061Y63251259D01*
X16317166Y63001054D01*
X16316930Y62730135D01*
X456000Y62730135D01*
X456000Y63771891D01*
X27030638Y63771891D01*
X27134095Y63521504D01*
X27325497Y63329769D01*
X27407535Y63295704D01*
X27363013Y63251259D01*
X27259118Y63001054D01*
X27258882Y62730135D01*
X27362339Y62479748D01*
X27553741Y62288013D01*
X27803946Y62184118D01*
X28074865Y62183882D01*
X28325252Y62287339D01*
X28516987Y62478741D01*
X28620882Y62728946D01*
X28621118Y62999865D01*
X28517661Y63250252D01*
X28326259Y63441987D01*
X28244221Y63476052D01*
X28288743Y63520497D01*
X28392638Y63770702D01*
X28392874Y64041621D01*
X28289417Y64292008D01*
X28098015Y64483743D01*
X27847810Y64587638D01*
X27576891Y64587874D01*
X27326504Y64484417D01*
X27134769Y64293015D01*
X27030874Y64042810D01*
X27030638Y63771891D01*
X456000Y63771891D01*
X456000Y66555000D01*
X3541536Y66555000D01*
X3541536Y64255000D01*
X3568103Y64113810D01*
X3651546Y63984135D01*
X3778866Y63897141D01*
X3930000Y63866536D01*
X6230000Y63866536D01*
X6371190Y63893103D01*
X6500865Y63976546D01*
X6587859Y64103866D01*
X6616146Y64243555D01*
X6751626Y64107838D01*
X7314129Y63874266D01*
X7923199Y63873735D01*
X8486109Y64106325D01*
X8917162Y64536626D01*
X8958525Y64636240D01*
X20189932Y64636240D01*
X20293389Y64385853D01*
X20484791Y64194118D01*
X20734996Y64090223D01*
X21005915Y64089987D01*
X21256302Y64193444D01*
X21448037Y64384846D01*
X21551932Y64635051D01*
X21551932Y64635135D01*
X34878882Y64635135D01*
X34982339Y64384748D01*
X35173741Y64193013D01*
X35423946Y64089118D01*
X35694865Y64088882D01*
X35787445Y64127135D01*
X36402882Y64127135D01*
X36506339Y63876748D01*
X36697741Y63685013D01*
X36947946Y63581118D01*
X37218865Y63580882D01*
X37469252Y63684339D01*
X37660987Y63875741D01*
X37764882Y64125946D01*
X37765118Y64396865D01*
X37661661Y64647252D01*
X37470259Y64838987D01*
X37220054Y64942882D01*
X36949135Y64943118D01*
X36698748Y64839661D01*
X36507013Y64648259D01*
X36403118Y64398054D01*
X36402882Y64127135D01*
X35787445Y64127135D01*
X35945252Y64192339D01*
X36136987Y64383741D01*
X36240882Y64633946D01*
X36241118Y64904865D01*
X36137661Y65155252D01*
X35946259Y65346987D01*
X35696054Y65450882D01*
X35425135Y65451118D01*
X35174748Y65347661D01*
X34983013Y65156259D01*
X34879118Y64906054D01*
X34878882Y64635135D01*
X21551932Y64635135D01*
X21552168Y64905970D01*
X21448711Y65156357D01*
X21257309Y65348092D01*
X21007104Y65451987D01*
X20736185Y65452223D01*
X20485798Y65348766D01*
X20294063Y65157364D01*
X20190168Y64907159D01*
X20189932Y64636240D01*
X8958525Y64636240D01*
X9150734Y65099129D01*
X9151265Y65708199D01*
X9069893Y65905135D01*
X17733882Y65905135D01*
X17837339Y65654748D01*
X18028741Y65463013D01*
X18278946Y65359118D01*
X18549865Y65358882D01*
X18800252Y65462339D01*
X18922388Y65584263D01*
X36759534Y65584263D01*
X36862991Y65333876D01*
X37054393Y65142141D01*
X37304598Y65038246D01*
X37575517Y65038010D01*
X37825904Y65141467D01*
X38017639Y65332869D01*
X38121534Y65583074D01*
X38121770Y65853993D01*
X38018313Y66104380D01*
X37826911Y66296115D01*
X37576706Y66400010D01*
X37305787Y66400246D01*
X37055400Y66296789D01*
X36863665Y66105387D01*
X36759770Y65855182D01*
X36759534Y65584263D01*
X18922388Y65584263D01*
X18991987Y65653741D01*
X19095882Y65903946D01*
X19096118Y66174865D01*
X18992661Y66425252D01*
X18801259Y66616987D01*
X18551054Y66720882D01*
X18280135Y66721118D01*
X18029748Y66617661D01*
X17838013Y66426259D01*
X17734118Y66176054D01*
X17733882Y65905135D01*
X9069893Y65905135D01*
X8918675Y66271109D01*
X8488374Y66702162D01*
X7925871Y66935734D01*
X7316801Y66936265D01*
X6753891Y66703675D01*
X6616328Y66566352D01*
X6591897Y66696190D01*
X6508454Y66825865D01*
X6381134Y66912859D01*
X6230000Y66943464D01*
X3930000Y66943464D01*
X3788810Y66916897D01*
X3659135Y66833454D01*
X3572141Y66706134D01*
X3541536Y66555000D01*
X456000Y66555000D01*
X456000Y68160000D01*
X32416536Y68160000D01*
X32416536Y66460000D01*
X32443103Y66318810D01*
X32526546Y66189135D01*
X32653866Y66102141D01*
X32805000Y66071536D01*
X34505000Y66071536D01*
X34646190Y66098103D01*
X34775865Y66181546D01*
X34862859Y66308866D01*
X34893464Y66460000D01*
X34893464Y67334117D01*
X37504000Y67334117D01*
X37504000Y67285883D01*
X37597704Y66814800D01*
X37864552Y66415435D01*
X38263917Y66148587D01*
X38735000Y66054883D01*
X39206083Y66148587D01*
X39605448Y66415435D01*
X39872296Y66814800D01*
X39966000Y67285883D01*
X39966000Y67334117D01*
X40044000Y67334117D01*
X40044000Y67285883D01*
X40137704Y66814800D01*
X40404552Y66415435D01*
X40803917Y66148587D01*
X41275000Y66054883D01*
X41746083Y66148587D01*
X42145448Y66415435D01*
X42412296Y66814800D01*
X42506000Y67285883D01*
X42506000Y67334117D01*
X42584000Y67334117D01*
X42584000Y67285883D01*
X42677704Y66814800D01*
X42944552Y66415435D01*
X43343917Y66148587D01*
X43815000Y66054883D01*
X44286083Y66148587D01*
X44685448Y66415435D01*
X44952296Y66814800D01*
X45046000Y67285883D01*
X45046000Y67334117D01*
X45124000Y67334117D01*
X45124000Y67285883D01*
X45217704Y66814800D01*
X45484552Y66415435D01*
X45883917Y66148587D01*
X46355000Y66054883D01*
X46826083Y66148587D01*
X47225448Y66415435D01*
X47492296Y66814800D01*
X47586000Y67285883D01*
X47586000Y67334117D01*
X47492296Y67805200D01*
X47225448Y68204565D01*
X46826083Y68471413D01*
X46355000Y68565117D01*
X45883917Y68471413D01*
X45484552Y68204565D01*
X45217704Y67805200D01*
X45124000Y67334117D01*
X45046000Y67334117D01*
X44952296Y67805200D01*
X44685448Y68204565D01*
X44286083Y68471413D01*
X43815000Y68565117D01*
X43343917Y68471413D01*
X42944552Y68204565D01*
X42677704Y67805200D01*
X42584000Y67334117D01*
X42506000Y67334117D01*
X42412296Y67805200D01*
X42145448Y68204565D01*
X41746083Y68471413D01*
X41275000Y68565117D01*
X40803917Y68471413D01*
X40404552Y68204565D01*
X40137704Y67805200D01*
X40044000Y67334117D01*
X39966000Y67334117D01*
X39872296Y67805200D01*
X39605448Y68204565D01*
X39206083Y68471413D01*
X38735000Y68565117D01*
X38263917Y68471413D01*
X37864552Y68204565D01*
X37597704Y67805200D01*
X37504000Y67334117D01*
X34893464Y67334117D01*
X34893464Y68160000D01*
X34866897Y68301190D01*
X34783454Y68430865D01*
X34656134Y68517859D01*
X34505000Y68548464D01*
X32805000Y68548464D01*
X32663810Y68521897D01*
X32534135Y68438454D01*
X32447141Y68311134D01*
X32416536Y68160000D01*
X456000Y68160000D01*
X456000Y71544000D01*
X79544000Y71544000D01*
X79544000Y50292000D01*
M02*
