G04 #@! TF.FileFunction,Soldermask,Top*
%FSLAX46Y46*%
G04 Gerber Fmt 4.6, Leading zero omitted, Abs format (unit mm)*
G04 Created by KiCad (PCBNEW 4.0.2+dfsg1-stable) date Tue 31 Jul 2018 02:10:04 PM EDT*
%MOMM*%
G01*
G04 APERTURE LIST*
%ADD10C,0.127000*%
%ADD11R,1.700000X1.100000*%
%ADD12R,1.300000X1.200000*%
%ADD13R,0.850000X2.150000*%
%ADD14R,1.100000X1.700000*%
%ADD15R,1.650000X1.400000*%
%ADD16R,1.400000X1.650000*%
%ADD17R,1.600000X1.600000*%
%ADD18R,2.700000X2.700000*%
%ADD19C,2.700000*%
%ADD20R,1.200000X1.300000*%
%ADD21R,1.850000X0.850000*%
%ADD22R,0.800000X1.500000*%
%ADD23R,1.900000X1.300000*%
%ADD24C,1.820000*%
%ADD25C,3.200000*%
%ADD26R,1.000000X1.950000*%
%ADD27R,4.200000X2.400000*%
%ADD28R,1.900000X2.400000*%
%ADD29R,0.800000X2.400000*%
%ADD30R,2.127200X2.432000*%
%ADD31O,2.127200X2.432000*%
G04 APERTURE END LIST*
D10*
D11*
X29210000Y28895000D03*
X29210000Y30795000D03*
D12*
X17415000Y51115000D03*
X17415000Y49215000D03*
X19415000Y50165000D03*
D13*
X35780000Y54185000D03*
X36430000Y54185000D03*
X37080000Y54185000D03*
X37730000Y54185000D03*
X38380000Y54185000D03*
X39030000Y54185000D03*
X39680000Y54185000D03*
X40330000Y54185000D03*
X40980000Y54185000D03*
X41630000Y54185000D03*
X42280000Y54185000D03*
X42930000Y54185000D03*
X43580000Y54185000D03*
X44230000Y54185000D03*
X44230000Y61385000D03*
X43580000Y61385000D03*
X42930000Y61385000D03*
X42280000Y61385000D03*
X41630000Y61385000D03*
X40980000Y61385000D03*
X40330000Y61385000D03*
X39680000Y61385000D03*
X39030000Y61385000D03*
X38380000Y61385000D03*
X37730000Y61385000D03*
X37080000Y61385000D03*
X36430000Y61385000D03*
X35780000Y61385000D03*
D14*
X61910000Y45085000D03*
X60010000Y45085000D03*
X13020000Y48895000D03*
X14920000Y48895000D03*
X14920000Y51435000D03*
X13020000Y51435000D03*
X13020000Y53975000D03*
X14920000Y53975000D03*
D15*
X46990000Y56245000D03*
X46990000Y54245000D03*
D16*
X33385000Y61595000D03*
X31385000Y61595000D03*
X38465000Y33655000D03*
X36465000Y33655000D03*
X41545000Y64135000D03*
X43545000Y64135000D03*
D15*
X26670000Y35290000D03*
X26670000Y33290000D03*
X48260000Y35290000D03*
X48260000Y33290000D03*
X26670000Y28845000D03*
X26670000Y30845000D03*
X48260000Y28845000D03*
X48260000Y30845000D03*
D16*
X64500000Y33655000D03*
X62500000Y33655000D03*
D15*
X4445000Y50435000D03*
X4445000Y52435000D03*
X52705000Y35290000D03*
X52705000Y33290000D03*
X74295000Y35290000D03*
X74295000Y33290000D03*
X52705000Y28845000D03*
X52705000Y30845000D03*
X74295000Y28845000D03*
X74295000Y30845000D03*
X36195000Y21860000D03*
X36195000Y23860000D03*
X46355000Y21860000D03*
X46355000Y23860000D03*
X62230000Y21860000D03*
X62230000Y23860000D03*
X72390000Y21860000D03*
X72390000Y23860000D03*
X6985000Y50435000D03*
X6985000Y52435000D03*
X19050000Y25130000D03*
X19050000Y23130000D03*
D17*
X72560000Y59690000D03*
X74760000Y59690000D03*
X72560000Y57150000D03*
X74760000Y57150000D03*
D18*
X31115000Y6985000D03*
D19*
X33655000Y6985000D03*
X36195000Y6985000D03*
X38735000Y6985000D03*
X41275000Y6985000D03*
X43815000Y6985000D03*
X46355000Y6985000D03*
X48895000Y6985000D03*
D18*
X5080000Y65405000D03*
D19*
X7620000Y65405000D03*
X10160000Y65405000D03*
X12700000Y65405000D03*
D20*
X4130000Y54880000D03*
X6030000Y54880000D03*
X5080000Y56880000D03*
X9210000Y54880000D03*
X11110000Y54880000D03*
X10160000Y56880000D03*
X35875000Y42910000D03*
X33975000Y42910000D03*
X34925000Y40910000D03*
X61910000Y42910000D03*
X60010000Y42910000D03*
X60960000Y40910000D03*
X40955000Y42910000D03*
X39055000Y42910000D03*
X40005000Y40910000D03*
X66990000Y42910000D03*
X65090000Y42910000D03*
X66040000Y40910000D03*
D12*
X17415000Y44765000D03*
X17415000Y42865000D03*
X19415000Y43815000D03*
X17415000Y38415000D03*
X17415000Y36515000D03*
X19415000Y37465000D03*
D11*
X31750000Y28895000D03*
X31750000Y30795000D03*
X43180000Y28895000D03*
X43180000Y30795000D03*
X45720000Y28895000D03*
X45720000Y30795000D03*
X31750000Y35240000D03*
X31750000Y33340000D03*
X29210000Y33340000D03*
X29210000Y35240000D03*
X43180000Y35240000D03*
X43180000Y33340000D03*
X45720000Y33340000D03*
X45720000Y35240000D03*
X57785000Y28895000D03*
X57785000Y30795000D03*
X55245000Y28895000D03*
X55245000Y30795000D03*
X69215000Y28895000D03*
X69215000Y30795000D03*
X71755000Y28895000D03*
X71755000Y30795000D03*
X57785000Y35240000D03*
X57785000Y33340000D03*
X55245000Y33340000D03*
X55245000Y35240000D03*
X69215000Y35240000D03*
X69215000Y33340000D03*
X71755000Y33340000D03*
X71755000Y35240000D03*
D14*
X65720000Y64770000D03*
X63820000Y64770000D03*
X65720000Y62230000D03*
X63820000Y62230000D03*
X65720000Y67310000D03*
X63820000Y67310000D03*
X63820000Y59690000D03*
X65720000Y59690000D03*
X63820000Y57150000D03*
X65720000Y57150000D03*
X35875000Y45085000D03*
X33975000Y45085000D03*
X35875000Y38735000D03*
X33975000Y38735000D03*
X61910000Y38735000D03*
X60010000Y38735000D03*
X40955000Y45085000D03*
X39055000Y45085000D03*
X66990000Y45085000D03*
X65090000Y45085000D03*
X13020000Y45085000D03*
X14920000Y45085000D03*
X13020000Y38735000D03*
X14920000Y38735000D03*
X39055000Y38735000D03*
X40955000Y38735000D03*
X65090000Y38735000D03*
X66990000Y38735000D03*
X13020000Y42545000D03*
X14920000Y42545000D03*
X13020000Y36195000D03*
X14920000Y36195000D03*
D21*
X34515000Y31455000D03*
X34515000Y30805000D03*
X34515000Y30155000D03*
X34515000Y29505000D03*
X40415000Y29505000D03*
X40415000Y30155000D03*
X40415000Y30805000D03*
X40415000Y31455000D03*
X60550000Y31455000D03*
X60550000Y30805000D03*
X60550000Y30155000D03*
X60550000Y29505000D03*
X66450000Y29505000D03*
X66450000Y30155000D03*
X66450000Y30805000D03*
X66450000Y31455000D03*
D22*
X31410000Y20710000D03*
X32060000Y20710000D03*
X32710000Y20710000D03*
X33360000Y20710000D03*
X33360000Y25010000D03*
X32710000Y25010000D03*
X32060000Y25010000D03*
X31410000Y25010000D03*
X57445000Y20710000D03*
X58095000Y20710000D03*
X58745000Y20710000D03*
X59395000Y20710000D03*
X59395000Y25010000D03*
X58745000Y25010000D03*
X58095000Y25010000D03*
X57445000Y25010000D03*
X41570000Y20710000D03*
X42220000Y20710000D03*
X42870000Y20710000D03*
X43520000Y20710000D03*
X43520000Y25010000D03*
X42870000Y25010000D03*
X42220000Y25010000D03*
X41570000Y25010000D03*
X67605000Y20710000D03*
X68255000Y20710000D03*
X68905000Y20710000D03*
X69555000Y20710000D03*
X69555000Y25010000D03*
X68905000Y25010000D03*
X68255000Y25010000D03*
X67605000Y25010000D03*
D23*
X75210000Y66560000D03*
X75210000Y68060000D03*
X72110000Y68060000D03*
X72110000Y66560000D03*
D24*
X9200000Y19440005D03*
X11700000Y19440005D03*
X13700000Y19440005D03*
X16200000Y19440005D03*
X9200000Y16820005D03*
X11700000Y16820005D03*
X13700000Y16820005D03*
X16200000Y16820005D03*
D25*
X19270000Y14110005D03*
X19270000Y19790005D03*
X6130000Y19790005D03*
X6130000Y14110005D03*
D26*
X19050000Y33180000D03*
X17780000Y33180000D03*
X16510000Y33180000D03*
X15240000Y33180000D03*
X15240000Y27780000D03*
X16510000Y27780000D03*
X17780000Y27780000D03*
X19050000Y27780000D03*
D27*
X6985000Y41300000D03*
D28*
X6985000Y47600000D03*
X4685000Y47600000D03*
X9285000Y47600000D03*
D29*
X42545000Y50800000D03*
X41345000Y50800000D03*
X43745000Y50800000D03*
D30*
X33655000Y67310000D03*
D31*
X36195000Y67310000D03*
X38735000Y67310000D03*
X41275000Y67310000D03*
X43815000Y67310000D03*
X46355000Y67310000D03*
M02*
