M48
;DRILL file {KiCad 4.0.2+dfsg1-stable} date Tue 05 Jun 2018 02:13:06 AM EDT
;FORMAT={-:-/ absolute / inch / decimal}
FMAT,2
INCH,TZ
T1C0.013
T2C0.036
T3C0.039
T4C0.040
T5C0.043
T6C0.051
T7C0.052
T8C0.091
%
G90
G05
M72
T1
X1.05Y3.075
X1.05Y1.525
X1.15Y0.075
X1.275Y3.25
X1.275Y1.35
X1.375Y0.5
X1.4Y0.275
X1.475Y0.5
X1.575Y0.425
X1.575Y0.275
X1.6Y3.825
X1.6Y3.675
X1.6Y3.225
X1.6Y3.125
X1.6Y3.
X1.6Y2.8
X1.6Y2.1
X1.6Y1.95
X1.6Y1.8
X1.6Y1.475
X1.6Y1.375
X1.6Y1.25
X1.6Y1.05
X1.61Y0.41
X1.65Y3.475
X1.65Y2.6
X1.65Y0.975
X1.675Y2.4
X1.7Y0.15
X1.725Y2.475
X1.725Y2.
X1.725Y1.525
X1.7298Y2.2702
X1.7662Y2.3005
X1.775Y2.025
X1.775Y1.2
X1.775Y1.175
X1.775Y0.1
X1.7773Y2.0977
X1.7981Y1.5019
X1.8Y2.45
X1.8Y2.375
X1.823Y2.0388
X1.85Y1.725
X1.85Y0.2
X1.875Y1.95
X1.875Y1.425
X1.875Y1.325
X1.875Y1.225
X1.9Y0.85
X1.9003Y2.1005
X1.908Y1.95
X1.925Y2.125
X1.95Y2.15
X1.95Y1.875
X1.95Y1.625
X1.95Y1.525
X1.95Y1.375
X1.95Y1.075
X1.975Y2.175
X2.0223Y1.275
X2.025Y1.725
X2.0468Y1.6532
X2.05Y2.1
X2.05Y1.875
X2.0566Y2.2934
X2.0992Y1.9412
X2.1Y1.975
X2.1Y1.725
X2.1Y0.7856
X2.1056Y2.25
X2.1157Y2.0433
X2.125Y1.575
X2.125Y1.375
X2.125Y1.175
X2.1329Y1.8824
X2.15Y2.35
X2.15Y0.825
X2.175Y2.4
X2.175Y2.025
X2.1868Y2.3008
X2.2Y0.1
X2.2006Y2.1244
X2.2207Y2.3
X2.3Y3.275
X2.3Y2.425
X2.3Y1.65
X2.3Y0.95
X2.325Y0.675
X2.325Y0.15
X2.35Y3.475
X2.35Y3.15
X2.35Y3.025
X2.35Y2.925
X2.35Y2.625
X2.35Y2.3
X2.35Y1.75
X2.35Y1.425
X2.35Y1.3
X2.35Y1.2
X2.35Y0.55
X2.65Y1.3
X2.7245Y3.2495
X2.75Y1.275
X2.775Y0.375
X2.775Y0.175
X2.9Y3.05
X2.95Y1.5
T2
X1.8307Y0.5404
X1.8307Y0.4372
X1.9291Y0.5404
X1.9291Y0.4372
X2.0079Y0.5404
X2.0079Y0.4372
X2.1063Y0.5404
X2.1063Y0.4372
T3
X1.975Y3.1
X1.975Y3.
X1.975Y2.9
X1.975Y2.8
X1.975Y2.7
X1.975Y2.6
T4
X1.3799Y2.4439
X1.3819Y3.31
X1.3819Y1.5777
X1.3819Y0.7116
X1.4799Y2.4439
X1.4819Y3.31
X1.4819Y1.5777
X1.4819Y0.7116
X1.5799Y2.4439
X1.5819Y3.31
X1.5819Y1.5777
X1.5819Y0.7116
X2.3551Y3.6978
X2.3551Y2.8317
X2.3551Y1.9656
X2.3551Y1.0994
X2.4551Y3.6978
X2.4551Y2.8317
X2.4551Y1.9656
X2.4551Y1.0994
X2.5551Y3.6978
X2.5551Y2.8317
X2.5551Y1.9656
X2.5551Y1.0994
T5
X0.2165Y3.6811
X0.2165Y2.815
X0.2165Y1.9488
X0.2165Y1.0827
X0.6102Y3.6811
X0.6102Y2.815
X0.6102Y1.9488
X0.6102Y1.0827
X1.0827Y3.6811
X1.0827Y2.815
X1.0827Y1.9488
X1.0827Y1.0827
X1.2795Y3.6811
X1.2795Y2.815
X1.2795Y1.9488
X1.2795Y1.0827
X2.6575Y3.3268
X2.6575Y2.4606
X2.6575Y1.5945
X2.6575Y0.7283
X2.8543Y3.3268
X2.8543Y2.4606
X2.8543Y1.5945
X2.8543Y0.7283
X3.3268Y3.3268
X3.3268Y2.4606
X3.3268Y1.5945
X3.3268Y0.7283
X3.7205Y3.3268
X3.7205Y2.4606
X3.7205Y1.5945
X3.7205Y0.7283
T6
X0.175Y0.3165
X0.175Y0.1165
X0.398Y3.5311
X0.398Y2.665
X0.398Y1.7988
X0.398Y0.9327
X0.698Y3.5311
X0.698Y2.665
X0.698Y1.7988
X0.698Y0.9327
X1.098Y3.8311
X1.098Y3.5311
X1.098Y2.965
X1.098Y2.665
X1.098Y2.0988
X1.098Y1.7988
X1.098Y1.2327
X1.098Y0.9327
X2.839Y3.4768
X2.839Y3.1768
X2.839Y2.6106
X2.839Y2.3106
X2.839Y1.7445
X2.839Y1.4445
X2.839Y0.8783
X2.839Y0.5783
X3.239Y3.4768
X3.239Y2.6106
X3.239Y1.7445
X3.239Y0.8783
X3.539Y3.4768
X3.539Y2.6106
X3.539Y1.7445
X3.539Y0.8783
X3.7598Y0.3165
X3.7598Y0.1165
T7
X0.6299Y2.4213
X0.6319Y3.2874
X0.6319Y1.5551
X0.6319Y0.689
X0.8299Y2.4213
X0.8319Y3.2874
X0.8319Y1.5551
X0.8319Y0.689
X3.1051Y3.7205
X3.1051Y2.8543
X3.1051Y1.9882
X3.1051Y1.122
X3.3051Y3.7205
X3.3051Y2.8543
X3.3051Y1.9882
X3.3051Y1.122
T8
X1.7098Y0.5541
X1.7098Y0.3305
X2.2272Y0.5541
X2.2272Y0.3305
T0
M30
