G04 #@! TF.FileFunction,Copper,L3,Inr,Plane*
%FSLAX46Y46*%
G04 Gerber Fmt 4.6, Leading zero omitted, Abs format (unit mm)*
G04 Created by KiCad (PCBNEW 4.0.2+dfsg1-stable) date Tue 05 Jun 2018 02:18:01 AM EDT*
%MOMM*%
G01*
G04 APERTURE LIST*
%ADD10C,0.150000*%
%ADD11C,2.500000*%
%ADD12O,3.810000X2.540000*%
%ADD13O,1.727200X2.032000*%
%ADD14R,1.700000X1.700000*%
%ADD15O,1.700000X1.700000*%
%ADD16C,1.420000*%
%ADD17C,2.800000*%
%ADD18R,2.300000X2.300000*%
%ADD19C,2.300000*%
%ADD20C,0.685800*%
%ADD21C,0.750000*%
%ADD22C,0.254000*%
G04 APERTURE END LIST*
D10*
D11*
X72110000Y44310000D03*
X72110000Y36690000D03*
X82270000Y44310000D03*
X89890000Y44310000D03*
X94500000Y40500000D03*
X84500000Y40500000D03*
X72500000Y40500000D03*
X67500000Y40500000D03*
X27890000Y89690000D03*
X27890000Y97310000D03*
X17730000Y89690000D03*
X10110000Y89690000D03*
X5500000Y93500000D03*
X15500000Y93500000D03*
X27500000Y93500000D03*
X32500000Y93500000D03*
X72110000Y88310000D03*
X72110000Y80690000D03*
X82270000Y88310000D03*
X89890000Y88310000D03*
X94500000Y84500000D03*
X84500000Y84500000D03*
X72500000Y84500000D03*
X67500000Y84500000D03*
X72110000Y66310000D03*
X72110000Y58690000D03*
X82270000Y66310000D03*
X89890000Y66310000D03*
X94500000Y62500000D03*
X84500000Y62500000D03*
X72500000Y62500000D03*
X67500000Y62500000D03*
X72110000Y22310000D03*
X72110000Y14690000D03*
X82270000Y22310000D03*
X89890000Y22310000D03*
X94500000Y18500000D03*
X84500000Y18500000D03*
X72500000Y18500000D03*
X67500000Y18500000D03*
X27890000Y23690000D03*
X27890000Y31310000D03*
X17730000Y23690000D03*
X10110000Y23690000D03*
X5500000Y27500000D03*
X15500000Y27500000D03*
X27500000Y27500000D03*
X32500000Y27500000D03*
X27890000Y45690000D03*
X27890000Y53310000D03*
X17730000Y45690000D03*
X10110000Y45690000D03*
X5500000Y49500000D03*
X15500000Y49500000D03*
X27500000Y49500000D03*
X32500000Y49500000D03*
X27890000Y67690000D03*
X27890000Y75310000D03*
X17730000Y67690000D03*
X10110000Y67690000D03*
X5500000Y71500000D03*
X15500000Y71500000D03*
X27500000Y71500000D03*
X32500000Y71500000D03*
D12*
X16050000Y83500000D03*
X21130000Y83500000D03*
D13*
X35100000Y84074800D03*
X37640000Y84074800D03*
X40180000Y84074800D03*
D12*
X83950000Y94500000D03*
X78870000Y94500000D03*
D13*
X64900000Y93925200D03*
X62360000Y93925200D03*
X59820000Y93925200D03*
D12*
X83950000Y72500000D03*
X78870000Y72500000D03*
D13*
X64900000Y71925200D03*
X62360000Y71925200D03*
X59820000Y71925200D03*
D12*
X83950000Y50500000D03*
X78870000Y50500000D03*
D13*
X64900000Y49925200D03*
X62360000Y49925200D03*
X59820000Y49925200D03*
D12*
X83950000Y28500000D03*
X78870000Y28500000D03*
D13*
X64900000Y27925200D03*
X62360000Y27925200D03*
X59820000Y27925200D03*
D12*
X16050000Y17500000D03*
X21130000Y17500000D03*
D13*
X35100000Y18074800D03*
X37640000Y18074800D03*
X40180000Y18074800D03*
D12*
X16050000Y39500000D03*
X21130000Y39500000D03*
D13*
X35100000Y40074800D03*
X37640000Y40074800D03*
X40180000Y40074800D03*
D12*
X16000000Y61500000D03*
X21080000Y61500000D03*
D13*
X35050000Y62074800D03*
X37590000Y62074800D03*
X40130000Y62074800D03*
D14*
X50165000Y66040000D03*
D15*
X50165000Y68580000D03*
X50165000Y71120000D03*
X50165000Y73660000D03*
X50165000Y76200000D03*
X50165000Y78740000D03*
D16*
X46500000Y13725005D03*
X49000000Y13725005D03*
X51000000Y13725005D03*
X53500000Y13725005D03*
X46500000Y11105005D03*
X49000000Y11105005D03*
X51000000Y11105005D03*
X53500000Y11105005D03*
D17*
X56570000Y8395005D03*
X56570000Y14075005D03*
X43430000Y14075005D03*
X43430000Y8395005D03*
D18*
X95500000Y8040000D03*
D19*
X95500000Y2960000D03*
D18*
X4445000Y8040000D03*
D19*
X4445000Y2960000D03*
D20*
X49530000Y41275000D03*
X45720000Y62230000D03*
X45085000Y30480000D03*
X45085000Y29845000D03*
X46990000Y5080000D03*
X46304758Y51786205D03*
X54610000Y59690000D03*
X53975000Y40005000D03*
X53975000Y29845000D03*
X47625000Y31115000D03*
X40005000Y10795000D03*
X40894000Y10414000D03*
X53481820Y57150000D03*
X55895057Y53958904D03*
X53738495Y51899979D03*
X40640000Y26670000D03*
X40640000Y31750000D03*
X47625000Y33655000D03*
X48268143Y53352040D03*
X55245000Y51435000D03*
X40640000Y53340000D03*
X40640000Y45720000D03*
X59690000Y13970000D03*
X40640000Y71120000D03*
X40640000Y76200000D03*
X59690000Y80010000D03*
X59690000Y88265000D03*
X40640000Y97155000D03*
X40640000Y93345000D03*
X29210000Y1905000D03*
X48260000Y21590000D03*
X37465000Y12700000D03*
X34925000Y12700000D03*
X43180000Y3810000D03*
X40005000Y6985000D03*
X70485000Y9525000D03*
X70485000Y4445000D03*
X45720000Y60325000D03*
X42545000Y60960000D03*
X43815000Y62865000D03*
X55245000Y60960000D03*
X45085000Y51435000D03*
X54610000Y20955000D03*
X59055000Y17145000D03*
X59690000Y44450000D03*
X59690000Y66675000D03*
X59690000Y36195000D03*
X59690000Y58420000D03*
X53975000Y34925000D03*
D21*
X49530000Y34925000D03*
D20*
X40640000Y37465000D03*
X40640000Y34925000D03*
X49530000Y38735000D03*
X40640000Y81915000D03*
X40640000Y79375000D03*
X49530000Y27305000D03*
X35560000Y6985000D03*
X53340000Y19955000D03*
X59690000Y33020000D03*
X59690000Y30480000D03*
X59690000Y74295000D03*
X59690000Y76835000D03*
X32385000Y82550000D03*
X46990000Y43815000D03*
X51989401Y41990599D03*
X53340000Y43815000D03*
X45085000Y2540000D03*
X47625000Y36195000D03*
X45671125Y38148875D03*
X50165000Y55245000D03*
X43815000Y50800000D03*
X45144049Y53280951D03*
X52070000Y47625000D03*
X49530000Y54610000D03*
X49530000Y47625000D03*
X48895000Y53975000D03*
X51435000Y43815000D03*
X51367091Y32385000D03*
X52237209Y58252791D03*
X41910000Y88265000D03*
X44861369Y58432690D03*
X58420000Y83185000D03*
X55545561Y58440938D03*
X58420000Y61595000D03*
X56404702Y58420000D03*
X58420000Y41910000D03*
X53340000Y50165000D03*
X58420000Y24130000D03*
X54176017Y47813903D03*
X41910000Y24765000D03*
X48463203Y49530000D03*
X47625000Y49530000D03*
X40640000Y49530000D03*
X41910000Y66040000D03*
X43937540Y57662460D03*
X52070000Y53340000D03*
X43815000Y38735000D03*
X53319062Y49305859D03*
X55880000Y2540000D03*
X69850000Y32385000D03*
X69202658Y82537658D03*
X73660000Y77470000D03*
X74930000Y38100000D03*
X67310000Y33020000D03*
X32385000Y34290000D03*
X26670000Y38735000D03*
X26670000Y78105000D03*
X59055000Y3810000D03*
D22*
G36*
X55373000Y61683788D02*
X55101639Y61684025D01*
X54835479Y61574050D01*
X54631665Y61370592D01*
X54521226Y61104624D01*
X54520975Y60816639D01*
X54630950Y60550479D01*
X54834408Y60346665D01*
X55100376Y60236226D01*
X55373000Y60235988D01*
X55373000Y59152898D01*
X55136040Y59054988D01*
X54932226Y58851530D01*
X54821787Y58585562D01*
X54821536Y58297577D01*
X54931511Y58031417D01*
X55134969Y57827603D01*
X55373000Y57728764D01*
X55373000Y54460615D01*
X55281722Y54369496D01*
X55171283Y54103528D01*
X55171032Y53815543D01*
X55281007Y53549383D01*
X55373000Y53457229D01*
X55373000Y52158788D01*
X55101639Y52159025D01*
X54835479Y52049050D01*
X54631665Y51845592D01*
X54521226Y51579624D01*
X54520975Y51291639D01*
X54630950Y51025479D01*
X54834408Y50821665D01*
X55100376Y50711226D01*
X55373000Y50710988D01*
X55373000Y29127000D01*
X44627000Y29127000D01*
X44627000Y32241639D01*
X50643066Y32241639D01*
X50753041Y31975479D01*
X50956499Y31771665D01*
X51222467Y31661226D01*
X51510452Y31660975D01*
X51776612Y31770950D01*
X51980426Y31974408D01*
X52090865Y32240376D01*
X52091116Y32528361D01*
X51981141Y32794521D01*
X51777683Y32998335D01*
X51511715Y33108774D01*
X51223730Y33109025D01*
X50957570Y32999050D01*
X50753756Y32795592D01*
X50643317Y32529624D01*
X50643066Y32241639D01*
X44627000Y32241639D01*
X44627000Y33511639D01*
X46900975Y33511639D01*
X47010950Y33245479D01*
X47214408Y33041665D01*
X47480376Y32931226D01*
X47768361Y32930975D01*
X48034521Y33040950D01*
X48238335Y33244408D01*
X48348774Y33510376D01*
X48349025Y33798361D01*
X48239050Y34064521D01*
X48035592Y34268335D01*
X47769624Y34378774D01*
X47481639Y34379025D01*
X47215479Y34269050D01*
X47011665Y34065592D01*
X46901226Y33799624D01*
X46900975Y33511639D01*
X44627000Y33511639D01*
X44627000Y34775282D01*
X48773869Y34775282D01*
X48888721Y34497320D01*
X49101201Y34284468D01*
X49378963Y34169131D01*
X49679718Y34168869D01*
X49957680Y34283721D01*
X50170532Y34496201D01*
X50285869Y34773963D01*
X50285875Y34781639D01*
X53250975Y34781639D01*
X53360950Y34515479D01*
X53564408Y34311665D01*
X53830376Y34201226D01*
X54118361Y34200975D01*
X54384521Y34310950D01*
X54588335Y34514408D01*
X54698774Y34780376D01*
X54699025Y35068361D01*
X54589050Y35334521D01*
X54385592Y35538335D01*
X54119624Y35648774D01*
X53831639Y35649025D01*
X53565479Y35539050D01*
X53361665Y35335592D01*
X53251226Y35069624D01*
X53250975Y34781639D01*
X50285875Y34781639D01*
X50286131Y35074718D01*
X50171279Y35352680D01*
X49958799Y35565532D01*
X49681037Y35680869D01*
X49380282Y35681131D01*
X49102320Y35566279D01*
X48889468Y35353799D01*
X48774131Y35076037D01*
X48773869Y34775282D01*
X44627000Y34775282D01*
X44627000Y36051639D01*
X46900975Y36051639D01*
X47010950Y35785479D01*
X47214408Y35581665D01*
X47480376Y35471226D01*
X47768361Y35470975D01*
X48034521Y35580950D01*
X48238335Y35784408D01*
X48348774Y36050376D01*
X48349025Y36338361D01*
X48239050Y36604521D01*
X48035592Y36808335D01*
X47769624Y36918774D01*
X47481639Y36919025D01*
X47215479Y36809050D01*
X47011665Y36605592D01*
X46901226Y36339624D01*
X46900975Y36051639D01*
X44627000Y36051639D01*
X44627000Y38005514D01*
X44947100Y38005514D01*
X45057075Y37739354D01*
X45260533Y37535540D01*
X45526501Y37425101D01*
X45814486Y37424850D01*
X46080646Y37534825D01*
X46284460Y37738283D01*
X46394899Y38004251D01*
X46395150Y38292236D01*
X46285175Y38558396D01*
X46251991Y38591639D01*
X48805975Y38591639D01*
X48915950Y38325479D01*
X49119408Y38121665D01*
X49385376Y38011226D01*
X49673361Y38010975D01*
X49939521Y38120950D01*
X50143335Y38324408D01*
X50253774Y38590376D01*
X50254025Y38878361D01*
X50144050Y39144521D01*
X49940592Y39348335D01*
X49674624Y39458774D01*
X49386639Y39459025D01*
X49120479Y39349050D01*
X48916665Y39145592D01*
X48806226Y38879624D01*
X48805975Y38591639D01*
X46251991Y38591639D01*
X46081717Y38762210D01*
X45815749Y38872649D01*
X45527764Y38872900D01*
X45261604Y38762925D01*
X45057790Y38559467D01*
X44947351Y38293499D01*
X44947100Y38005514D01*
X44627000Y38005514D01*
X44627000Y41847238D01*
X51265376Y41847238D01*
X51375351Y41581078D01*
X51578809Y41377264D01*
X51844777Y41266825D01*
X52132762Y41266574D01*
X52398922Y41376549D01*
X52602736Y41580007D01*
X52713175Y41845975D01*
X52713426Y42133960D01*
X52603451Y42400120D01*
X52399993Y42603934D01*
X52134025Y42714373D01*
X51846040Y42714624D01*
X51579880Y42604649D01*
X51376066Y42401191D01*
X51265627Y42135223D01*
X51265376Y41847238D01*
X44627000Y41847238D01*
X44627000Y43671639D01*
X46265975Y43671639D01*
X46375950Y43405479D01*
X46579408Y43201665D01*
X46845376Y43091226D01*
X47133361Y43090975D01*
X47399521Y43200950D01*
X47603335Y43404408D01*
X47713774Y43670376D01*
X47713775Y43671639D01*
X50710975Y43671639D01*
X50820950Y43405479D01*
X51024408Y43201665D01*
X51290376Y43091226D01*
X51578361Y43090975D01*
X51844521Y43200950D01*
X52048335Y43404408D01*
X52158774Y43670376D01*
X52158775Y43671639D01*
X52615975Y43671639D01*
X52725950Y43405479D01*
X52929408Y43201665D01*
X53195376Y43091226D01*
X53483361Y43090975D01*
X53749521Y43200950D01*
X53953335Y43404408D01*
X54063774Y43670376D01*
X54064025Y43958361D01*
X53954050Y44224521D01*
X53750592Y44428335D01*
X53484624Y44538774D01*
X53196639Y44539025D01*
X52930479Y44429050D01*
X52726665Y44225592D01*
X52616226Y43959624D01*
X52615975Y43671639D01*
X52158775Y43671639D01*
X52159025Y43958361D01*
X52049050Y44224521D01*
X51845592Y44428335D01*
X51579624Y44538774D01*
X51291639Y44539025D01*
X51025479Y44429050D01*
X50821665Y44225592D01*
X50711226Y43959624D01*
X50710975Y43671639D01*
X47713775Y43671639D01*
X47714025Y43958361D01*
X47604050Y44224521D01*
X47400592Y44428335D01*
X47134624Y44538774D01*
X46846639Y44539025D01*
X46580479Y44429050D01*
X46376665Y44225592D01*
X46266226Y43959624D01*
X46265975Y43671639D01*
X44627000Y43671639D01*
X44627000Y47481639D01*
X48805975Y47481639D01*
X48915950Y47215479D01*
X49119408Y47011665D01*
X49385376Y46901226D01*
X49673361Y46900975D01*
X49939521Y47010950D01*
X50143335Y47214408D01*
X50253774Y47480376D01*
X50253775Y47481639D01*
X51345975Y47481639D01*
X51455950Y47215479D01*
X51659408Y47011665D01*
X51925376Y46901226D01*
X52213361Y46900975D01*
X52479521Y47010950D01*
X52683335Y47214408D01*
X52793774Y47480376D01*
X52793939Y47670542D01*
X53451992Y47670542D01*
X53561967Y47404382D01*
X53765425Y47200568D01*
X54031393Y47090129D01*
X54319378Y47089878D01*
X54585538Y47199853D01*
X54789352Y47403311D01*
X54899791Y47669279D01*
X54900042Y47957264D01*
X54790067Y48223424D01*
X54586609Y48427238D01*
X54320641Y48537677D01*
X54032656Y48537928D01*
X53766496Y48427953D01*
X53562682Y48224495D01*
X53452243Y47958527D01*
X53451992Y47670542D01*
X52793939Y47670542D01*
X52794025Y47768361D01*
X52684050Y48034521D01*
X52480592Y48238335D01*
X52214624Y48348774D01*
X51926639Y48349025D01*
X51660479Y48239050D01*
X51456665Y48035592D01*
X51346226Y47769624D01*
X51345975Y47481639D01*
X50253775Y47481639D01*
X50254025Y47768361D01*
X50144050Y48034521D01*
X49940592Y48238335D01*
X49674624Y48348774D01*
X49386639Y48349025D01*
X49120479Y48239050D01*
X48916665Y48035592D01*
X48806226Y47769624D01*
X48805975Y47481639D01*
X44627000Y47481639D01*
X44627000Y49386639D01*
X46900975Y49386639D01*
X47010950Y49120479D01*
X47214408Y48916665D01*
X47480376Y48806226D01*
X47768361Y48805975D01*
X48034521Y48915950D01*
X48043939Y48925352D01*
X48052611Y48916665D01*
X48318579Y48806226D01*
X48606564Y48805975D01*
X48872724Y48915950D01*
X49076538Y49119408D01*
X49094430Y49162498D01*
X52595037Y49162498D01*
X52705012Y48896338D01*
X52908470Y48692524D01*
X53174438Y48582085D01*
X53462423Y48581834D01*
X53728583Y48691809D01*
X53932397Y48895267D01*
X54042836Y49161235D01*
X54043087Y49449220D01*
X53933112Y49715380D01*
X53923692Y49724817D01*
X53953335Y49754408D01*
X54063774Y50020376D01*
X54064025Y50308361D01*
X53954050Y50574521D01*
X53750592Y50778335D01*
X53484624Y50888774D01*
X53196639Y50889025D01*
X52930479Y50779050D01*
X52726665Y50575592D01*
X52616226Y50309624D01*
X52615975Y50021639D01*
X52725950Y49755479D01*
X52735370Y49746042D01*
X52705727Y49716451D01*
X52595288Y49450483D01*
X52595037Y49162498D01*
X49094430Y49162498D01*
X49186977Y49385376D01*
X49187228Y49673361D01*
X49077253Y49939521D01*
X48873795Y50143335D01*
X48607827Y50253774D01*
X48319842Y50254025D01*
X48053682Y50144050D01*
X48044264Y50134648D01*
X48035592Y50143335D01*
X47769624Y50253774D01*
X47481639Y50254025D01*
X47215479Y50144050D01*
X47011665Y49940592D01*
X46901226Y49674624D01*
X46900975Y49386639D01*
X44627000Y49386639D01*
X44627000Y50869156D01*
X44674408Y50821665D01*
X44940376Y50711226D01*
X45228361Y50710975D01*
X45494521Y50820950D01*
X45698335Y51024408D01*
X45808774Y51290376D01*
X45809025Y51578361D01*
X45735371Y51756618D01*
X53014470Y51756618D01*
X53124445Y51490458D01*
X53327903Y51286644D01*
X53593871Y51176205D01*
X53881856Y51175954D01*
X54148016Y51285929D01*
X54351830Y51489387D01*
X54462269Y51755355D01*
X54462520Y52043340D01*
X54352545Y52309500D01*
X54149087Y52513314D01*
X53883119Y52623753D01*
X53595134Y52624004D01*
X53328974Y52514029D01*
X53125160Y52310571D01*
X53014721Y52044603D01*
X53014470Y51756618D01*
X45735371Y51756618D01*
X45699050Y51844521D01*
X45495592Y52048335D01*
X45229624Y52158774D01*
X44941639Y52159025D01*
X44675479Y52049050D01*
X44627000Y52000656D01*
X44627000Y52774259D01*
X44733457Y52667616D01*
X44999425Y52557177D01*
X45287410Y52556926D01*
X45553570Y52666901D01*
X45757384Y52870359D01*
X45867823Y53136327D01*
X45867886Y53208679D01*
X47544118Y53208679D01*
X47654093Y52942519D01*
X47857551Y52738705D01*
X48123519Y52628266D01*
X48411504Y52628015D01*
X48677664Y52737990D01*
X48881478Y52941448D01*
X48987442Y53196639D01*
X51345975Y53196639D01*
X51455950Y52930479D01*
X51659408Y52726665D01*
X51925376Y52616226D01*
X52213361Y52615975D01*
X52479521Y52725950D01*
X52683335Y52929408D01*
X52793774Y53195376D01*
X52794025Y53483361D01*
X52684050Y53749521D01*
X52480592Y53953335D01*
X52214624Y54063774D01*
X51926639Y54064025D01*
X51660479Y53954050D01*
X51456665Y53750592D01*
X51346226Y53484624D01*
X51345975Y53196639D01*
X48987442Y53196639D01*
X48991917Y53207416D01*
X48991955Y53251015D01*
X49038361Y53250975D01*
X49304521Y53360950D01*
X49508335Y53564408D01*
X49618774Y53830376D01*
X49618823Y53886023D01*
X49673361Y53885975D01*
X49939521Y53995950D01*
X50143335Y54199408D01*
X50253774Y54465376D01*
X50253823Y54521023D01*
X50308361Y54520975D01*
X50574521Y54630950D01*
X50778335Y54834408D01*
X50888774Y55100376D01*
X50889025Y55388361D01*
X50779050Y55654521D01*
X50575592Y55858335D01*
X50309624Y55968774D01*
X50021639Y55969025D01*
X49755479Y55859050D01*
X49551665Y55655592D01*
X49441226Y55389624D01*
X49441177Y55333977D01*
X49386639Y55334025D01*
X49120479Y55224050D01*
X48916665Y55020592D01*
X48806226Y54754624D01*
X48806177Y54698977D01*
X48751639Y54699025D01*
X48485479Y54589050D01*
X48281665Y54385592D01*
X48171226Y54119624D01*
X48171188Y54076025D01*
X48124782Y54076065D01*
X47858622Y53966090D01*
X47654808Y53762632D01*
X47544369Y53496664D01*
X47544118Y53208679D01*
X45867886Y53208679D01*
X45868074Y53424312D01*
X45758099Y53690472D01*
X45554641Y53894286D01*
X45288673Y54004725D01*
X45000688Y54004976D01*
X44734528Y53895001D01*
X44627000Y53787661D01*
X44627000Y57006639D01*
X52757795Y57006639D01*
X52867770Y56740479D01*
X53071228Y56536665D01*
X53337196Y56426226D01*
X53625181Y56425975D01*
X53891341Y56535950D01*
X54095155Y56739408D01*
X54205594Y57005376D01*
X54205845Y57293361D01*
X54095870Y57559521D01*
X53892412Y57763335D01*
X53626444Y57873774D01*
X53338459Y57874025D01*
X53072299Y57764050D01*
X52868485Y57560592D01*
X52758046Y57294624D01*
X52757795Y57006639D01*
X44627000Y57006639D01*
X44627000Y57435198D01*
X44661314Y57517836D01*
X44661501Y57731855D01*
X44716745Y57708916D01*
X45004730Y57708665D01*
X45270890Y57818640D01*
X45474704Y58022098D01*
X45510967Y58109430D01*
X51513184Y58109430D01*
X51623159Y57843270D01*
X51826617Y57639456D01*
X52092585Y57529017D01*
X52380570Y57528766D01*
X52646730Y57638741D01*
X52850544Y57842199D01*
X52960983Y58108167D01*
X52961234Y58396152D01*
X52851259Y58662312D01*
X52647801Y58866126D01*
X52381833Y58976565D01*
X52093848Y58976816D01*
X51827688Y58866841D01*
X51623874Y58663383D01*
X51513435Y58397415D01*
X51513184Y58109430D01*
X45510967Y58109430D01*
X45585143Y58288066D01*
X45585394Y58576051D01*
X45475419Y58842211D01*
X45271961Y59046025D01*
X45005993Y59156464D01*
X44718008Y59156715D01*
X44627000Y59119111D01*
X44627000Y60181639D01*
X44995975Y60181639D01*
X45105950Y59915479D01*
X45309408Y59711665D01*
X45575376Y59601226D01*
X45863361Y59600975D01*
X46129521Y59710950D01*
X46333335Y59914408D01*
X46443774Y60180376D01*
X46444025Y60468361D01*
X46334050Y60734521D01*
X46130592Y60938335D01*
X45864624Y61048774D01*
X45576639Y61049025D01*
X45310479Y60939050D01*
X45106665Y60735592D01*
X44996226Y60469624D01*
X44995975Y60181639D01*
X44627000Y60181639D01*
X44627000Y66890000D01*
X48926536Y66890000D01*
X48926536Y65190000D01*
X48953103Y65048810D01*
X49036546Y64919135D01*
X49163866Y64832141D01*
X49315000Y64801536D01*
X51015000Y64801536D01*
X51156190Y64828103D01*
X51285865Y64911546D01*
X51372859Y65038866D01*
X51403464Y65190000D01*
X51403464Y66890000D01*
X51376897Y67031190D01*
X51293454Y67160865D01*
X51166134Y67247859D01*
X51015000Y67278464D01*
X49315000Y67278464D01*
X49173810Y67251897D01*
X49044135Y67168454D01*
X48957141Y67041134D01*
X48926536Y66890000D01*
X44627000Y66890000D01*
X44627000Y71120000D01*
X48909883Y71120000D01*
X49003587Y70648917D01*
X49270435Y70249552D01*
X49669800Y69982704D01*
X50140883Y69889000D01*
X50189117Y69889000D01*
X50660200Y69982704D01*
X51059565Y70249552D01*
X51326413Y70648917D01*
X51420117Y71120000D01*
X51326413Y71591083D01*
X51059565Y71990448D01*
X50660200Y72257296D01*
X50189117Y72351000D01*
X50140883Y72351000D01*
X49669800Y72257296D01*
X49270435Y71990448D01*
X49003587Y71591083D01*
X48909883Y71120000D01*
X44627000Y71120000D01*
X44627000Y73660000D01*
X48909883Y73660000D01*
X49003587Y73188917D01*
X49270435Y72789552D01*
X49669800Y72522704D01*
X50140883Y72429000D01*
X50189117Y72429000D01*
X50660200Y72522704D01*
X51059565Y72789552D01*
X51326413Y73188917D01*
X51420117Y73660000D01*
X51326413Y74131083D01*
X51059565Y74530448D01*
X50660200Y74797296D01*
X50189117Y74891000D01*
X50140883Y74891000D01*
X49669800Y74797296D01*
X49270435Y74530448D01*
X49003587Y74131083D01*
X48909883Y73660000D01*
X44627000Y73660000D01*
X44627000Y76200000D01*
X48909883Y76200000D01*
X49003587Y75728917D01*
X49270435Y75329552D01*
X49669800Y75062704D01*
X50140883Y74969000D01*
X50189117Y74969000D01*
X50660200Y75062704D01*
X51059565Y75329552D01*
X51326413Y75728917D01*
X51420117Y76200000D01*
X51326413Y76671083D01*
X51059565Y77070448D01*
X50660200Y77337296D01*
X50189117Y77431000D01*
X50140883Y77431000D01*
X49669800Y77337296D01*
X49270435Y77070448D01*
X49003587Y76671083D01*
X48909883Y76200000D01*
X44627000Y76200000D01*
X44627000Y78740000D01*
X48909883Y78740000D01*
X49003587Y78268917D01*
X49270435Y77869552D01*
X49669800Y77602704D01*
X50140883Y77509000D01*
X50189117Y77509000D01*
X50660200Y77602704D01*
X51059565Y77869552D01*
X51326413Y78268917D01*
X51420117Y78740000D01*
X51326413Y79211083D01*
X51059565Y79610448D01*
X50660200Y79877296D01*
X50189117Y79971000D01*
X50140883Y79971000D01*
X49669800Y79877296D01*
X49270435Y79610448D01*
X49003587Y79211083D01*
X48909883Y78740000D01*
X44627000Y78740000D01*
X44627000Y99544000D01*
X55373000Y99544000D01*
X55373000Y61683788D01*
X55373000Y61683788D01*
G37*
X55373000Y61683788D02*
X55101639Y61684025D01*
X54835479Y61574050D01*
X54631665Y61370592D01*
X54521226Y61104624D01*
X54520975Y60816639D01*
X54630950Y60550479D01*
X54834408Y60346665D01*
X55100376Y60236226D01*
X55373000Y60235988D01*
X55373000Y59152898D01*
X55136040Y59054988D01*
X54932226Y58851530D01*
X54821787Y58585562D01*
X54821536Y58297577D01*
X54931511Y58031417D01*
X55134969Y57827603D01*
X55373000Y57728764D01*
X55373000Y54460615D01*
X55281722Y54369496D01*
X55171283Y54103528D01*
X55171032Y53815543D01*
X55281007Y53549383D01*
X55373000Y53457229D01*
X55373000Y52158788D01*
X55101639Y52159025D01*
X54835479Y52049050D01*
X54631665Y51845592D01*
X54521226Y51579624D01*
X54520975Y51291639D01*
X54630950Y51025479D01*
X54834408Y50821665D01*
X55100376Y50711226D01*
X55373000Y50710988D01*
X55373000Y29127000D01*
X44627000Y29127000D01*
X44627000Y32241639D01*
X50643066Y32241639D01*
X50753041Y31975479D01*
X50956499Y31771665D01*
X51222467Y31661226D01*
X51510452Y31660975D01*
X51776612Y31770950D01*
X51980426Y31974408D01*
X52090865Y32240376D01*
X52091116Y32528361D01*
X51981141Y32794521D01*
X51777683Y32998335D01*
X51511715Y33108774D01*
X51223730Y33109025D01*
X50957570Y32999050D01*
X50753756Y32795592D01*
X50643317Y32529624D01*
X50643066Y32241639D01*
X44627000Y32241639D01*
X44627000Y33511639D01*
X46900975Y33511639D01*
X47010950Y33245479D01*
X47214408Y33041665D01*
X47480376Y32931226D01*
X47768361Y32930975D01*
X48034521Y33040950D01*
X48238335Y33244408D01*
X48348774Y33510376D01*
X48349025Y33798361D01*
X48239050Y34064521D01*
X48035592Y34268335D01*
X47769624Y34378774D01*
X47481639Y34379025D01*
X47215479Y34269050D01*
X47011665Y34065592D01*
X46901226Y33799624D01*
X46900975Y33511639D01*
X44627000Y33511639D01*
X44627000Y34775282D01*
X48773869Y34775282D01*
X48888721Y34497320D01*
X49101201Y34284468D01*
X49378963Y34169131D01*
X49679718Y34168869D01*
X49957680Y34283721D01*
X50170532Y34496201D01*
X50285869Y34773963D01*
X50285875Y34781639D01*
X53250975Y34781639D01*
X53360950Y34515479D01*
X53564408Y34311665D01*
X53830376Y34201226D01*
X54118361Y34200975D01*
X54384521Y34310950D01*
X54588335Y34514408D01*
X54698774Y34780376D01*
X54699025Y35068361D01*
X54589050Y35334521D01*
X54385592Y35538335D01*
X54119624Y35648774D01*
X53831639Y35649025D01*
X53565479Y35539050D01*
X53361665Y35335592D01*
X53251226Y35069624D01*
X53250975Y34781639D01*
X50285875Y34781639D01*
X50286131Y35074718D01*
X50171279Y35352680D01*
X49958799Y35565532D01*
X49681037Y35680869D01*
X49380282Y35681131D01*
X49102320Y35566279D01*
X48889468Y35353799D01*
X48774131Y35076037D01*
X48773869Y34775282D01*
X44627000Y34775282D01*
X44627000Y36051639D01*
X46900975Y36051639D01*
X47010950Y35785479D01*
X47214408Y35581665D01*
X47480376Y35471226D01*
X47768361Y35470975D01*
X48034521Y35580950D01*
X48238335Y35784408D01*
X48348774Y36050376D01*
X48349025Y36338361D01*
X48239050Y36604521D01*
X48035592Y36808335D01*
X47769624Y36918774D01*
X47481639Y36919025D01*
X47215479Y36809050D01*
X47011665Y36605592D01*
X46901226Y36339624D01*
X46900975Y36051639D01*
X44627000Y36051639D01*
X44627000Y38005514D01*
X44947100Y38005514D01*
X45057075Y37739354D01*
X45260533Y37535540D01*
X45526501Y37425101D01*
X45814486Y37424850D01*
X46080646Y37534825D01*
X46284460Y37738283D01*
X46394899Y38004251D01*
X46395150Y38292236D01*
X46285175Y38558396D01*
X46251991Y38591639D01*
X48805975Y38591639D01*
X48915950Y38325479D01*
X49119408Y38121665D01*
X49385376Y38011226D01*
X49673361Y38010975D01*
X49939521Y38120950D01*
X50143335Y38324408D01*
X50253774Y38590376D01*
X50254025Y38878361D01*
X50144050Y39144521D01*
X49940592Y39348335D01*
X49674624Y39458774D01*
X49386639Y39459025D01*
X49120479Y39349050D01*
X48916665Y39145592D01*
X48806226Y38879624D01*
X48805975Y38591639D01*
X46251991Y38591639D01*
X46081717Y38762210D01*
X45815749Y38872649D01*
X45527764Y38872900D01*
X45261604Y38762925D01*
X45057790Y38559467D01*
X44947351Y38293499D01*
X44947100Y38005514D01*
X44627000Y38005514D01*
X44627000Y41847238D01*
X51265376Y41847238D01*
X51375351Y41581078D01*
X51578809Y41377264D01*
X51844777Y41266825D01*
X52132762Y41266574D01*
X52398922Y41376549D01*
X52602736Y41580007D01*
X52713175Y41845975D01*
X52713426Y42133960D01*
X52603451Y42400120D01*
X52399993Y42603934D01*
X52134025Y42714373D01*
X51846040Y42714624D01*
X51579880Y42604649D01*
X51376066Y42401191D01*
X51265627Y42135223D01*
X51265376Y41847238D01*
X44627000Y41847238D01*
X44627000Y43671639D01*
X46265975Y43671639D01*
X46375950Y43405479D01*
X46579408Y43201665D01*
X46845376Y43091226D01*
X47133361Y43090975D01*
X47399521Y43200950D01*
X47603335Y43404408D01*
X47713774Y43670376D01*
X47713775Y43671639D01*
X50710975Y43671639D01*
X50820950Y43405479D01*
X51024408Y43201665D01*
X51290376Y43091226D01*
X51578361Y43090975D01*
X51844521Y43200950D01*
X52048335Y43404408D01*
X52158774Y43670376D01*
X52158775Y43671639D01*
X52615975Y43671639D01*
X52725950Y43405479D01*
X52929408Y43201665D01*
X53195376Y43091226D01*
X53483361Y43090975D01*
X53749521Y43200950D01*
X53953335Y43404408D01*
X54063774Y43670376D01*
X54064025Y43958361D01*
X53954050Y44224521D01*
X53750592Y44428335D01*
X53484624Y44538774D01*
X53196639Y44539025D01*
X52930479Y44429050D01*
X52726665Y44225592D01*
X52616226Y43959624D01*
X52615975Y43671639D01*
X52158775Y43671639D01*
X52159025Y43958361D01*
X52049050Y44224521D01*
X51845592Y44428335D01*
X51579624Y44538774D01*
X51291639Y44539025D01*
X51025479Y44429050D01*
X50821665Y44225592D01*
X50711226Y43959624D01*
X50710975Y43671639D01*
X47713775Y43671639D01*
X47714025Y43958361D01*
X47604050Y44224521D01*
X47400592Y44428335D01*
X47134624Y44538774D01*
X46846639Y44539025D01*
X46580479Y44429050D01*
X46376665Y44225592D01*
X46266226Y43959624D01*
X46265975Y43671639D01*
X44627000Y43671639D01*
X44627000Y47481639D01*
X48805975Y47481639D01*
X48915950Y47215479D01*
X49119408Y47011665D01*
X49385376Y46901226D01*
X49673361Y46900975D01*
X49939521Y47010950D01*
X50143335Y47214408D01*
X50253774Y47480376D01*
X50253775Y47481639D01*
X51345975Y47481639D01*
X51455950Y47215479D01*
X51659408Y47011665D01*
X51925376Y46901226D01*
X52213361Y46900975D01*
X52479521Y47010950D01*
X52683335Y47214408D01*
X52793774Y47480376D01*
X52793939Y47670542D01*
X53451992Y47670542D01*
X53561967Y47404382D01*
X53765425Y47200568D01*
X54031393Y47090129D01*
X54319378Y47089878D01*
X54585538Y47199853D01*
X54789352Y47403311D01*
X54899791Y47669279D01*
X54900042Y47957264D01*
X54790067Y48223424D01*
X54586609Y48427238D01*
X54320641Y48537677D01*
X54032656Y48537928D01*
X53766496Y48427953D01*
X53562682Y48224495D01*
X53452243Y47958527D01*
X53451992Y47670542D01*
X52793939Y47670542D01*
X52794025Y47768361D01*
X52684050Y48034521D01*
X52480592Y48238335D01*
X52214624Y48348774D01*
X51926639Y48349025D01*
X51660479Y48239050D01*
X51456665Y48035592D01*
X51346226Y47769624D01*
X51345975Y47481639D01*
X50253775Y47481639D01*
X50254025Y47768361D01*
X50144050Y48034521D01*
X49940592Y48238335D01*
X49674624Y48348774D01*
X49386639Y48349025D01*
X49120479Y48239050D01*
X48916665Y48035592D01*
X48806226Y47769624D01*
X48805975Y47481639D01*
X44627000Y47481639D01*
X44627000Y49386639D01*
X46900975Y49386639D01*
X47010950Y49120479D01*
X47214408Y48916665D01*
X47480376Y48806226D01*
X47768361Y48805975D01*
X48034521Y48915950D01*
X48043939Y48925352D01*
X48052611Y48916665D01*
X48318579Y48806226D01*
X48606564Y48805975D01*
X48872724Y48915950D01*
X49076538Y49119408D01*
X49094430Y49162498D01*
X52595037Y49162498D01*
X52705012Y48896338D01*
X52908470Y48692524D01*
X53174438Y48582085D01*
X53462423Y48581834D01*
X53728583Y48691809D01*
X53932397Y48895267D01*
X54042836Y49161235D01*
X54043087Y49449220D01*
X53933112Y49715380D01*
X53923692Y49724817D01*
X53953335Y49754408D01*
X54063774Y50020376D01*
X54064025Y50308361D01*
X53954050Y50574521D01*
X53750592Y50778335D01*
X53484624Y50888774D01*
X53196639Y50889025D01*
X52930479Y50779050D01*
X52726665Y50575592D01*
X52616226Y50309624D01*
X52615975Y50021639D01*
X52725950Y49755479D01*
X52735370Y49746042D01*
X52705727Y49716451D01*
X52595288Y49450483D01*
X52595037Y49162498D01*
X49094430Y49162498D01*
X49186977Y49385376D01*
X49187228Y49673361D01*
X49077253Y49939521D01*
X48873795Y50143335D01*
X48607827Y50253774D01*
X48319842Y50254025D01*
X48053682Y50144050D01*
X48044264Y50134648D01*
X48035592Y50143335D01*
X47769624Y50253774D01*
X47481639Y50254025D01*
X47215479Y50144050D01*
X47011665Y49940592D01*
X46901226Y49674624D01*
X46900975Y49386639D01*
X44627000Y49386639D01*
X44627000Y50869156D01*
X44674408Y50821665D01*
X44940376Y50711226D01*
X45228361Y50710975D01*
X45494521Y50820950D01*
X45698335Y51024408D01*
X45808774Y51290376D01*
X45809025Y51578361D01*
X45735371Y51756618D01*
X53014470Y51756618D01*
X53124445Y51490458D01*
X53327903Y51286644D01*
X53593871Y51176205D01*
X53881856Y51175954D01*
X54148016Y51285929D01*
X54351830Y51489387D01*
X54462269Y51755355D01*
X54462520Y52043340D01*
X54352545Y52309500D01*
X54149087Y52513314D01*
X53883119Y52623753D01*
X53595134Y52624004D01*
X53328974Y52514029D01*
X53125160Y52310571D01*
X53014721Y52044603D01*
X53014470Y51756618D01*
X45735371Y51756618D01*
X45699050Y51844521D01*
X45495592Y52048335D01*
X45229624Y52158774D01*
X44941639Y52159025D01*
X44675479Y52049050D01*
X44627000Y52000656D01*
X44627000Y52774259D01*
X44733457Y52667616D01*
X44999425Y52557177D01*
X45287410Y52556926D01*
X45553570Y52666901D01*
X45757384Y52870359D01*
X45867823Y53136327D01*
X45867886Y53208679D01*
X47544118Y53208679D01*
X47654093Y52942519D01*
X47857551Y52738705D01*
X48123519Y52628266D01*
X48411504Y52628015D01*
X48677664Y52737990D01*
X48881478Y52941448D01*
X48987442Y53196639D01*
X51345975Y53196639D01*
X51455950Y52930479D01*
X51659408Y52726665D01*
X51925376Y52616226D01*
X52213361Y52615975D01*
X52479521Y52725950D01*
X52683335Y52929408D01*
X52793774Y53195376D01*
X52794025Y53483361D01*
X52684050Y53749521D01*
X52480592Y53953335D01*
X52214624Y54063774D01*
X51926639Y54064025D01*
X51660479Y53954050D01*
X51456665Y53750592D01*
X51346226Y53484624D01*
X51345975Y53196639D01*
X48987442Y53196639D01*
X48991917Y53207416D01*
X48991955Y53251015D01*
X49038361Y53250975D01*
X49304521Y53360950D01*
X49508335Y53564408D01*
X49618774Y53830376D01*
X49618823Y53886023D01*
X49673361Y53885975D01*
X49939521Y53995950D01*
X50143335Y54199408D01*
X50253774Y54465376D01*
X50253823Y54521023D01*
X50308361Y54520975D01*
X50574521Y54630950D01*
X50778335Y54834408D01*
X50888774Y55100376D01*
X50889025Y55388361D01*
X50779050Y55654521D01*
X50575592Y55858335D01*
X50309624Y55968774D01*
X50021639Y55969025D01*
X49755479Y55859050D01*
X49551665Y55655592D01*
X49441226Y55389624D01*
X49441177Y55333977D01*
X49386639Y55334025D01*
X49120479Y55224050D01*
X48916665Y55020592D01*
X48806226Y54754624D01*
X48806177Y54698977D01*
X48751639Y54699025D01*
X48485479Y54589050D01*
X48281665Y54385592D01*
X48171226Y54119624D01*
X48171188Y54076025D01*
X48124782Y54076065D01*
X47858622Y53966090D01*
X47654808Y53762632D01*
X47544369Y53496664D01*
X47544118Y53208679D01*
X45867886Y53208679D01*
X45868074Y53424312D01*
X45758099Y53690472D01*
X45554641Y53894286D01*
X45288673Y54004725D01*
X45000688Y54004976D01*
X44734528Y53895001D01*
X44627000Y53787661D01*
X44627000Y57006639D01*
X52757795Y57006639D01*
X52867770Y56740479D01*
X53071228Y56536665D01*
X53337196Y56426226D01*
X53625181Y56425975D01*
X53891341Y56535950D01*
X54095155Y56739408D01*
X54205594Y57005376D01*
X54205845Y57293361D01*
X54095870Y57559521D01*
X53892412Y57763335D01*
X53626444Y57873774D01*
X53338459Y57874025D01*
X53072299Y57764050D01*
X52868485Y57560592D01*
X52758046Y57294624D01*
X52757795Y57006639D01*
X44627000Y57006639D01*
X44627000Y57435198D01*
X44661314Y57517836D01*
X44661501Y57731855D01*
X44716745Y57708916D01*
X45004730Y57708665D01*
X45270890Y57818640D01*
X45474704Y58022098D01*
X45510967Y58109430D01*
X51513184Y58109430D01*
X51623159Y57843270D01*
X51826617Y57639456D01*
X52092585Y57529017D01*
X52380570Y57528766D01*
X52646730Y57638741D01*
X52850544Y57842199D01*
X52960983Y58108167D01*
X52961234Y58396152D01*
X52851259Y58662312D01*
X52647801Y58866126D01*
X52381833Y58976565D01*
X52093848Y58976816D01*
X51827688Y58866841D01*
X51623874Y58663383D01*
X51513435Y58397415D01*
X51513184Y58109430D01*
X45510967Y58109430D01*
X45585143Y58288066D01*
X45585394Y58576051D01*
X45475419Y58842211D01*
X45271961Y59046025D01*
X45005993Y59156464D01*
X44718008Y59156715D01*
X44627000Y59119111D01*
X44627000Y60181639D01*
X44995975Y60181639D01*
X45105950Y59915479D01*
X45309408Y59711665D01*
X45575376Y59601226D01*
X45863361Y59600975D01*
X46129521Y59710950D01*
X46333335Y59914408D01*
X46443774Y60180376D01*
X46444025Y60468361D01*
X46334050Y60734521D01*
X46130592Y60938335D01*
X45864624Y61048774D01*
X45576639Y61049025D01*
X45310479Y60939050D01*
X45106665Y60735592D01*
X44996226Y60469624D01*
X44995975Y60181639D01*
X44627000Y60181639D01*
X44627000Y66890000D01*
X48926536Y66890000D01*
X48926536Y65190000D01*
X48953103Y65048810D01*
X49036546Y64919135D01*
X49163866Y64832141D01*
X49315000Y64801536D01*
X51015000Y64801536D01*
X51156190Y64828103D01*
X51285865Y64911546D01*
X51372859Y65038866D01*
X51403464Y65190000D01*
X51403464Y66890000D01*
X51376897Y67031190D01*
X51293454Y67160865D01*
X51166134Y67247859D01*
X51015000Y67278464D01*
X49315000Y67278464D01*
X49173810Y67251897D01*
X49044135Y67168454D01*
X48957141Y67041134D01*
X48926536Y66890000D01*
X44627000Y66890000D01*
X44627000Y71120000D01*
X48909883Y71120000D01*
X49003587Y70648917D01*
X49270435Y70249552D01*
X49669800Y69982704D01*
X50140883Y69889000D01*
X50189117Y69889000D01*
X50660200Y69982704D01*
X51059565Y70249552D01*
X51326413Y70648917D01*
X51420117Y71120000D01*
X51326413Y71591083D01*
X51059565Y71990448D01*
X50660200Y72257296D01*
X50189117Y72351000D01*
X50140883Y72351000D01*
X49669800Y72257296D01*
X49270435Y71990448D01*
X49003587Y71591083D01*
X48909883Y71120000D01*
X44627000Y71120000D01*
X44627000Y73660000D01*
X48909883Y73660000D01*
X49003587Y73188917D01*
X49270435Y72789552D01*
X49669800Y72522704D01*
X50140883Y72429000D01*
X50189117Y72429000D01*
X50660200Y72522704D01*
X51059565Y72789552D01*
X51326413Y73188917D01*
X51420117Y73660000D01*
X51326413Y74131083D01*
X51059565Y74530448D01*
X50660200Y74797296D01*
X50189117Y74891000D01*
X50140883Y74891000D01*
X49669800Y74797296D01*
X49270435Y74530448D01*
X49003587Y74131083D01*
X48909883Y73660000D01*
X44627000Y73660000D01*
X44627000Y76200000D01*
X48909883Y76200000D01*
X49003587Y75728917D01*
X49270435Y75329552D01*
X49669800Y75062704D01*
X50140883Y74969000D01*
X50189117Y74969000D01*
X50660200Y75062704D01*
X51059565Y75329552D01*
X51326413Y75728917D01*
X51420117Y76200000D01*
X51326413Y76671083D01*
X51059565Y77070448D01*
X50660200Y77337296D01*
X50189117Y77431000D01*
X50140883Y77431000D01*
X49669800Y77337296D01*
X49270435Y77070448D01*
X49003587Y76671083D01*
X48909883Y76200000D01*
X44627000Y76200000D01*
X44627000Y78740000D01*
X48909883Y78740000D01*
X49003587Y78268917D01*
X49270435Y77869552D01*
X49669800Y77602704D01*
X50140883Y77509000D01*
X50189117Y77509000D01*
X50660200Y77602704D01*
X51059565Y77869552D01*
X51326413Y78268917D01*
X51420117Y78740000D01*
X51326413Y79211083D01*
X51059565Y79610448D01*
X50660200Y79877296D01*
X50189117Y79971000D01*
X50140883Y79971000D01*
X49669800Y79877296D01*
X49270435Y79610448D01*
X49003587Y79211083D01*
X48909883Y78740000D01*
X44627000Y78740000D01*
X44627000Y99544000D01*
X55373000Y99544000D01*
X55373000Y61683788D01*
G36*
X43373000Y63446628D02*
X43201665Y63275592D01*
X43091226Y63009624D01*
X43090975Y62721639D01*
X43200950Y62455479D01*
X43373000Y62283128D01*
X43373000Y58121762D01*
X43324205Y58073052D01*
X43213766Y57807084D01*
X43213515Y57519099D01*
X43323490Y57252939D01*
X43373000Y57203342D01*
X43373000Y51381628D01*
X43201665Y51210592D01*
X43091226Y50944624D01*
X43090975Y50656639D01*
X43200950Y50390479D01*
X43373000Y50218128D01*
X43373000Y39316628D01*
X43201665Y39145592D01*
X43091226Y38879624D01*
X43090975Y38591639D01*
X43200950Y38325479D01*
X43373000Y38153128D01*
X43373000Y28000000D01*
X43383006Y27950590D01*
X43411447Y27908965D01*
X43453841Y27881685D01*
X43500000Y27873000D01*
X56500000Y27873000D01*
X56549410Y27883006D01*
X56591035Y27911447D01*
X56618315Y27953841D01*
X56627000Y28000000D01*
X56627000Y28104969D01*
X58575400Y28104969D01*
X58575400Y27745431D01*
X58670140Y27269143D01*
X58939935Y26865366D01*
X59343712Y26595571D01*
X59820000Y26500831D01*
X60296288Y26595571D01*
X60700065Y26865366D01*
X60969860Y27269143D01*
X61064600Y27745431D01*
X61064600Y28104969D01*
X61115400Y28104969D01*
X61115400Y27745431D01*
X61210140Y27269143D01*
X61479935Y26865366D01*
X61883712Y26595571D01*
X62360000Y26500831D01*
X62836288Y26595571D01*
X63240065Y26865366D01*
X63509860Y27269143D01*
X63604600Y27745431D01*
X63604600Y28104969D01*
X63509860Y28581257D01*
X63240065Y28985034D01*
X62836288Y29254829D01*
X62360000Y29349569D01*
X61883712Y29254829D01*
X61479935Y28985034D01*
X61210140Y28581257D01*
X61115400Y28104969D01*
X61064600Y28104969D01*
X60969860Y28581257D01*
X60700065Y28985034D01*
X60296288Y29254829D01*
X59820000Y29349569D01*
X59343712Y29254829D01*
X58939935Y28985034D01*
X58670140Y28581257D01*
X58575400Y28104969D01*
X56627000Y28104969D01*
X56627000Y32241639D01*
X69125975Y32241639D01*
X69235950Y31975479D01*
X69439408Y31771665D01*
X69705376Y31661226D01*
X69993361Y31660975D01*
X70259521Y31770950D01*
X70463335Y31974408D01*
X70573774Y32240376D01*
X70574025Y32528361D01*
X70464050Y32794521D01*
X70260592Y32998335D01*
X69994624Y33108774D01*
X69706639Y33109025D01*
X69440479Y32999050D01*
X69236665Y32795592D01*
X69126226Y32529624D01*
X69125975Y32241639D01*
X56627000Y32241639D01*
X56627000Y32876639D01*
X66585975Y32876639D01*
X66695950Y32610479D01*
X66899408Y32406665D01*
X67165376Y32296226D01*
X67453361Y32295975D01*
X67719521Y32405950D01*
X67923335Y32609408D01*
X68033774Y32875376D01*
X68034025Y33163361D01*
X67924050Y33429521D01*
X67720592Y33633335D01*
X67454624Y33743774D01*
X67166639Y33744025D01*
X66900479Y33634050D01*
X66696665Y33430592D01*
X66586226Y33164624D01*
X66585975Y32876639D01*
X56627000Y32876639D01*
X56627000Y36051639D01*
X58965975Y36051639D01*
X59075950Y35785479D01*
X59279408Y35581665D01*
X59545376Y35471226D01*
X59833361Y35470975D01*
X60099521Y35580950D01*
X60303335Y35784408D01*
X60413774Y36050376D01*
X60414025Y36338361D01*
X60402193Y36366997D01*
X70478718Y36366997D01*
X70726499Y35767320D01*
X71184907Y35308112D01*
X71784151Y35059284D01*
X72433003Y35058718D01*
X73032680Y35306499D01*
X73491888Y35764907D01*
X73740716Y36364151D01*
X73741282Y37013003D01*
X73493501Y37612680D01*
X73035093Y38071888D01*
X72435849Y38320716D01*
X71786997Y38321282D01*
X71187320Y38073501D01*
X70728112Y37615093D01*
X70479284Y37015849D01*
X70478718Y36366997D01*
X60402193Y36366997D01*
X60304050Y36604521D01*
X60100592Y36808335D01*
X59834624Y36918774D01*
X59546639Y36919025D01*
X59280479Y36809050D01*
X59076665Y36605592D01*
X58966226Y36339624D01*
X58965975Y36051639D01*
X56627000Y36051639D01*
X56627000Y40176997D01*
X65868718Y40176997D01*
X66116499Y39577320D01*
X66574907Y39118112D01*
X67174151Y38869284D01*
X67823003Y38868718D01*
X68422680Y39116499D01*
X68881888Y39574907D01*
X69130716Y40174151D01*
X69131282Y40823003D01*
X68883501Y41422680D01*
X68425093Y41881888D01*
X67825849Y42130716D01*
X67176997Y42131282D01*
X66577320Y41883501D01*
X66118112Y41425093D01*
X65869284Y40825849D01*
X65868718Y40176997D01*
X56627000Y40176997D01*
X56627000Y41766639D01*
X57695975Y41766639D01*
X57805950Y41500479D01*
X58009408Y41296665D01*
X58275376Y41186226D01*
X58563361Y41185975D01*
X58829521Y41295950D01*
X59033335Y41499408D01*
X59143774Y41765376D01*
X59144025Y42053361D01*
X59034050Y42319521D01*
X58830592Y42523335D01*
X58564624Y42633774D01*
X58276639Y42634025D01*
X58010479Y42524050D01*
X57806665Y42320592D01*
X57696226Y42054624D01*
X57695975Y41766639D01*
X56627000Y41766639D01*
X56627000Y44306639D01*
X58965975Y44306639D01*
X59075950Y44040479D01*
X59279408Y43836665D01*
X59545376Y43726226D01*
X59833361Y43725975D01*
X60099521Y43835950D01*
X60303335Y44039408D01*
X60413774Y44305376D01*
X60414025Y44593361D01*
X60304050Y44859521D01*
X60100592Y45063335D01*
X59834624Y45173774D01*
X59546639Y45174025D01*
X59280479Y45064050D01*
X59076665Y44860592D01*
X58966226Y44594624D01*
X58965975Y44306639D01*
X56627000Y44306639D01*
X56627000Y50104969D01*
X58575400Y50104969D01*
X58575400Y49745431D01*
X58670140Y49269143D01*
X58939935Y48865366D01*
X59343712Y48595571D01*
X59820000Y48500831D01*
X60296288Y48595571D01*
X60700065Y48865366D01*
X60969860Y49269143D01*
X61064600Y49745431D01*
X61064600Y50104969D01*
X61115400Y50104969D01*
X61115400Y49745431D01*
X61210140Y49269143D01*
X61479935Y48865366D01*
X61883712Y48595571D01*
X62360000Y48500831D01*
X62836288Y48595571D01*
X63240065Y48865366D01*
X63509860Y49269143D01*
X63604600Y49745431D01*
X63604600Y50104969D01*
X63509860Y50581257D01*
X63240065Y50985034D01*
X62836288Y51254829D01*
X62360000Y51349569D01*
X61883712Y51254829D01*
X61479935Y50985034D01*
X61210140Y50581257D01*
X61115400Y50104969D01*
X61064600Y50104969D01*
X60969860Y50581257D01*
X60700065Y50985034D01*
X60296288Y51254829D01*
X59820000Y51349569D01*
X59343712Y51254829D01*
X58939935Y50985034D01*
X58670140Y50581257D01*
X58575400Y50104969D01*
X56627000Y50104969D01*
X56627000Y57728591D01*
X56814223Y57805950D01*
X57018037Y58009408D01*
X57128476Y58275376D01*
X57128477Y58276639D01*
X58965975Y58276639D01*
X59075950Y58010479D01*
X59279408Y57806665D01*
X59545376Y57696226D01*
X59833361Y57695975D01*
X60099521Y57805950D01*
X60303335Y58009408D01*
X60413774Y58275376D01*
X60413853Y58366997D01*
X70478718Y58366997D01*
X70726499Y57767320D01*
X71184907Y57308112D01*
X71784151Y57059284D01*
X72433003Y57058718D01*
X73032680Y57306499D01*
X73491888Y57764907D01*
X73740716Y58364151D01*
X73741282Y59013003D01*
X73493501Y59612680D01*
X73035093Y60071888D01*
X72435849Y60320716D01*
X71786997Y60321282D01*
X71187320Y60073501D01*
X70728112Y59615093D01*
X70479284Y59015849D01*
X70478718Y58366997D01*
X60413853Y58366997D01*
X60414025Y58563361D01*
X60304050Y58829521D01*
X60100592Y59033335D01*
X59834624Y59143774D01*
X59546639Y59144025D01*
X59280479Y59034050D01*
X59076665Y58830592D01*
X58966226Y58564624D01*
X58965975Y58276639D01*
X57128477Y58276639D01*
X57128727Y58563361D01*
X57018752Y58829521D01*
X56815294Y59033335D01*
X56627000Y59111521D01*
X56627000Y61451639D01*
X57695975Y61451639D01*
X57805950Y61185479D01*
X58009408Y60981665D01*
X58275376Y60871226D01*
X58563361Y60870975D01*
X58829521Y60980950D01*
X59033335Y61184408D01*
X59143774Y61450376D01*
X59144025Y61738361D01*
X59034050Y62004521D01*
X58861876Y62176997D01*
X65868718Y62176997D01*
X66116499Y61577320D01*
X66574907Y61118112D01*
X67174151Y60869284D01*
X67823003Y60868718D01*
X68422680Y61116499D01*
X68881888Y61574907D01*
X69130716Y62174151D01*
X69131282Y62823003D01*
X68883501Y63422680D01*
X68425093Y63881888D01*
X67825849Y64130716D01*
X67176997Y64131282D01*
X66577320Y63883501D01*
X66118112Y63425093D01*
X65869284Y62825849D01*
X65868718Y62176997D01*
X58861876Y62176997D01*
X58830592Y62208335D01*
X58564624Y62318774D01*
X58276639Y62319025D01*
X58010479Y62209050D01*
X57806665Y62005592D01*
X57696226Y61739624D01*
X57695975Y61451639D01*
X56627000Y61451639D01*
X56627000Y66531639D01*
X58965975Y66531639D01*
X59075950Y66265479D01*
X59279408Y66061665D01*
X59545376Y65951226D01*
X59833361Y65950975D01*
X60099521Y66060950D01*
X60303335Y66264408D01*
X60413774Y66530376D01*
X60414025Y66818361D01*
X60304050Y67084521D01*
X60100592Y67288335D01*
X59834624Y67398774D01*
X59546639Y67399025D01*
X59280479Y67289050D01*
X59076665Y67085592D01*
X58966226Y66819624D01*
X58965975Y66531639D01*
X56627000Y66531639D01*
X56627000Y72104969D01*
X58575400Y72104969D01*
X58575400Y71745431D01*
X58670140Y71269143D01*
X58939935Y70865366D01*
X59343712Y70595571D01*
X59820000Y70500831D01*
X60296288Y70595571D01*
X60700065Y70865366D01*
X60969860Y71269143D01*
X61064600Y71745431D01*
X61064600Y72104969D01*
X61115400Y72104969D01*
X61115400Y71745431D01*
X61210140Y71269143D01*
X61479935Y70865366D01*
X61883712Y70595571D01*
X62360000Y70500831D01*
X62836288Y70595571D01*
X63240065Y70865366D01*
X63509860Y71269143D01*
X63604600Y71745431D01*
X63604600Y72104969D01*
X63509860Y72581257D01*
X63240065Y72985034D01*
X62836288Y73254829D01*
X62360000Y73349569D01*
X61883712Y73254829D01*
X61479935Y72985034D01*
X61210140Y72581257D01*
X61115400Y72104969D01*
X61064600Y72104969D01*
X60969860Y72581257D01*
X60700065Y72985034D01*
X60296288Y73254829D01*
X59820000Y73349569D01*
X59343712Y73254829D01*
X58939935Y72985034D01*
X58670140Y72581257D01*
X58575400Y72104969D01*
X56627000Y72104969D01*
X56627000Y79866639D01*
X58965975Y79866639D01*
X59075950Y79600479D01*
X59279408Y79396665D01*
X59545376Y79286226D01*
X59833361Y79285975D01*
X60099521Y79395950D01*
X60303335Y79599408D01*
X60413774Y79865376D01*
X60414025Y80153361D01*
X60325753Y80366997D01*
X70478718Y80366997D01*
X70726499Y79767320D01*
X71184907Y79308112D01*
X71784151Y79059284D01*
X72433003Y79058718D01*
X73032680Y79306499D01*
X73491888Y79764907D01*
X73740716Y80364151D01*
X73741282Y81013003D01*
X73493501Y81612680D01*
X73035093Y82071888D01*
X72435849Y82320716D01*
X71786997Y82321282D01*
X71187320Y82073501D01*
X70728112Y81615093D01*
X70479284Y81015849D01*
X70478718Y80366997D01*
X60325753Y80366997D01*
X60304050Y80419521D01*
X60100592Y80623335D01*
X59834624Y80733774D01*
X59546639Y80734025D01*
X59280479Y80624050D01*
X59076665Y80420592D01*
X58966226Y80154624D01*
X58965975Y79866639D01*
X56627000Y79866639D01*
X56627000Y82394297D01*
X68478633Y82394297D01*
X68588608Y82128137D01*
X68792066Y81924323D01*
X69058034Y81813884D01*
X69346019Y81813633D01*
X69612179Y81923608D01*
X69815993Y82127066D01*
X69926432Y82393034D01*
X69926683Y82681019D01*
X69816708Y82947179D01*
X69613250Y83150993D01*
X69347282Y83261432D01*
X69059297Y83261683D01*
X68793137Y83151708D01*
X68589323Y82948250D01*
X68478884Y82682282D01*
X68478633Y82394297D01*
X56627000Y82394297D01*
X56627000Y83041639D01*
X57695975Y83041639D01*
X57805950Y82775479D01*
X58009408Y82571665D01*
X58275376Y82461226D01*
X58563361Y82460975D01*
X58829521Y82570950D01*
X59033335Y82774408D01*
X59143774Y83040376D01*
X59144025Y83328361D01*
X59034050Y83594521D01*
X58830592Y83798335D01*
X58564624Y83908774D01*
X58276639Y83909025D01*
X58010479Y83799050D01*
X57806665Y83595592D01*
X57696226Y83329624D01*
X57695975Y83041639D01*
X56627000Y83041639D01*
X56627000Y84176997D01*
X65868718Y84176997D01*
X66116499Y83577320D01*
X66574907Y83118112D01*
X67174151Y82869284D01*
X67823003Y82868718D01*
X68422680Y83116499D01*
X68881888Y83574907D01*
X69130716Y84174151D01*
X69131282Y84823003D01*
X68883501Y85422680D01*
X68425093Y85881888D01*
X67825849Y86130716D01*
X67176997Y86131282D01*
X66577320Y85883501D01*
X66118112Y85425093D01*
X65869284Y84825849D01*
X65868718Y84176997D01*
X56627000Y84176997D01*
X56627000Y88121639D01*
X58965975Y88121639D01*
X59075950Y87855479D01*
X59279408Y87651665D01*
X59545376Y87541226D01*
X59833361Y87540975D01*
X60099521Y87650950D01*
X60303335Y87854408D01*
X60413774Y88120376D01*
X60414025Y88408361D01*
X60304050Y88674521D01*
X60100592Y88878335D01*
X59834624Y88988774D01*
X59546639Y88989025D01*
X59280479Y88879050D01*
X59076665Y88675592D01*
X58966226Y88409624D01*
X58965975Y88121639D01*
X56627000Y88121639D01*
X56627000Y94104969D01*
X58575400Y94104969D01*
X58575400Y93745431D01*
X58670140Y93269143D01*
X58939935Y92865366D01*
X59343712Y92595571D01*
X59820000Y92500831D01*
X60296288Y92595571D01*
X60700065Y92865366D01*
X60969860Y93269143D01*
X61064600Y93745431D01*
X61064600Y94104969D01*
X61115400Y94104969D01*
X61115400Y93745431D01*
X61210140Y93269143D01*
X61479935Y92865366D01*
X61883712Y92595571D01*
X62360000Y92500831D01*
X62836288Y92595571D01*
X63240065Y92865366D01*
X63509860Y93269143D01*
X63604600Y93745431D01*
X63604600Y94104969D01*
X63509860Y94581257D01*
X63240065Y94985034D01*
X62836288Y95254829D01*
X62360000Y95349569D01*
X61883712Y95254829D01*
X61479935Y94985034D01*
X61210140Y94581257D01*
X61115400Y94104969D01*
X61064600Y94104969D01*
X60969860Y94581257D01*
X60700065Y94985034D01*
X60296288Y95254829D01*
X59820000Y95349569D01*
X59343712Y95254829D01*
X58939935Y94985034D01*
X58670140Y94581257D01*
X58575400Y94104969D01*
X56627000Y94104969D01*
X56627000Y99544000D01*
X73873000Y99544000D01*
X73873000Y78165382D01*
X73804624Y78193774D01*
X73516639Y78194025D01*
X73250479Y78084050D01*
X73046665Y77880592D01*
X72936226Y77614624D01*
X72935975Y77326639D01*
X73045950Y77060479D01*
X73249408Y76856665D01*
X73515376Y76746226D01*
X73803361Y76745975D01*
X73873000Y76774749D01*
X73873000Y456000D01*
X26127000Y456000D01*
X26127000Y1761639D01*
X28485975Y1761639D01*
X28595950Y1495479D01*
X28799408Y1291665D01*
X29065376Y1181226D01*
X29353361Y1180975D01*
X29619521Y1290950D01*
X29823335Y1494408D01*
X29933774Y1760376D01*
X29934025Y2048361D01*
X29824050Y2314521D01*
X29742076Y2396639D01*
X44360975Y2396639D01*
X44470950Y2130479D01*
X44674408Y1926665D01*
X44940376Y1816226D01*
X45228361Y1815975D01*
X45494521Y1925950D01*
X45698335Y2129408D01*
X45808774Y2395376D01*
X45808775Y2396639D01*
X55155975Y2396639D01*
X55265950Y2130479D01*
X55469408Y1926665D01*
X55735376Y1816226D01*
X56023361Y1815975D01*
X56289521Y1925950D01*
X56493335Y2129408D01*
X56603774Y2395376D01*
X56604025Y2683361D01*
X56494050Y2949521D01*
X56290592Y3153335D01*
X56024624Y3263774D01*
X55736639Y3264025D01*
X55470479Y3154050D01*
X55266665Y2950592D01*
X55156226Y2684624D01*
X55155975Y2396639D01*
X45808775Y2396639D01*
X45809025Y2683361D01*
X45699050Y2949521D01*
X45495592Y3153335D01*
X45229624Y3263774D01*
X44941639Y3264025D01*
X44675479Y3154050D01*
X44471665Y2950592D01*
X44361226Y2684624D01*
X44360975Y2396639D01*
X29742076Y2396639D01*
X29620592Y2518335D01*
X29354624Y2628774D01*
X29066639Y2629025D01*
X28800479Y2519050D01*
X28596665Y2315592D01*
X28486226Y2049624D01*
X28485975Y1761639D01*
X26127000Y1761639D01*
X26127000Y3666639D01*
X42455975Y3666639D01*
X42565950Y3400479D01*
X42769408Y3196665D01*
X43035376Y3086226D01*
X43323361Y3085975D01*
X43589521Y3195950D01*
X43793335Y3399408D01*
X43903774Y3665376D01*
X43903775Y3666639D01*
X58330975Y3666639D01*
X58440950Y3400479D01*
X58644408Y3196665D01*
X58910376Y3086226D01*
X59198361Y3085975D01*
X59464521Y3195950D01*
X59668335Y3399408D01*
X59778774Y3665376D01*
X59779025Y3953361D01*
X59669050Y4219521D01*
X59587076Y4301639D01*
X69760975Y4301639D01*
X69870950Y4035479D01*
X70074408Y3831665D01*
X70340376Y3721226D01*
X70628361Y3720975D01*
X70894521Y3830950D01*
X71098335Y4034408D01*
X71208774Y4300376D01*
X71209025Y4588361D01*
X71099050Y4854521D01*
X70895592Y5058335D01*
X70629624Y5168774D01*
X70341639Y5169025D01*
X70075479Y5059050D01*
X69871665Y4855592D01*
X69761226Y4589624D01*
X69760975Y4301639D01*
X59587076Y4301639D01*
X59465592Y4423335D01*
X59199624Y4533774D01*
X58911639Y4534025D01*
X58645479Y4424050D01*
X58441665Y4220592D01*
X58331226Y3954624D01*
X58330975Y3666639D01*
X43903775Y3666639D01*
X43904025Y3953361D01*
X43794050Y4219521D01*
X43590592Y4423335D01*
X43324624Y4533774D01*
X43036639Y4534025D01*
X42770479Y4424050D01*
X42566665Y4220592D01*
X42456226Y3954624D01*
X42455975Y3666639D01*
X26127000Y3666639D01*
X26127000Y4936639D01*
X46265975Y4936639D01*
X46375950Y4670479D01*
X46579408Y4466665D01*
X46845376Y4356226D01*
X47133361Y4355975D01*
X47399521Y4465950D01*
X47603335Y4669408D01*
X47713774Y4935376D01*
X47714025Y5223361D01*
X47604050Y5489521D01*
X47400592Y5693335D01*
X47134624Y5803774D01*
X46846639Y5804025D01*
X46580479Y5694050D01*
X46376665Y5490592D01*
X46266226Y5224624D01*
X46265975Y4936639D01*
X26127000Y4936639D01*
X26127000Y6841639D01*
X39280975Y6841639D01*
X39390950Y6575479D01*
X39594408Y6371665D01*
X39860376Y6261226D01*
X40148361Y6260975D01*
X40414521Y6370950D01*
X40618335Y6574408D01*
X40728774Y6840376D01*
X40729025Y7128361D01*
X40619050Y7394521D01*
X40415592Y7598335D01*
X40149624Y7708774D01*
X39861639Y7709025D01*
X39595479Y7599050D01*
X39391665Y7395592D01*
X39281226Y7129624D01*
X39280975Y6841639D01*
X26127000Y6841639D01*
X26127000Y8042296D01*
X41648691Y8042296D01*
X41919261Y7387467D01*
X42419827Y6886027D01*
X43074183Y6614315D01*
X43782709Y6613696D01*
X44437538Y6884266D01*
X44938978Y7384832D01*
X45210690Y8039188D01*
X45210692Y8042296D01*
X54788691Y8042296D01*
X55059261Y7387467D01*
X55559827Y6886027D01*
X56214183Y6614315D01*
X56922709Y6613696D01*
X57577538Y6884266D01*
X58078978Y7384832D01*
X58350690Y8039188D01*
X58351309Y8747714D01*
X58089377Y9381639D01*
X69760975Y9381639D01*
X69870950Y9115479D01*
X70074408Y8911665D01*
X70340376Y8801226D01*
X70628361Y8800975D01*
X70894521Y8910950D01*
X71098335Y9114408D01*
X71208774Y9380376D01*
X71209025Y9668361D01*
X71099050Y9934521D01*
X70895592Y10138335D01*
X70629624Y10248774D01*
X70341639Y10249025D01*
X70075479Y10139050D01*
X69871665Y9935592D01*
X69761226Y9669624D01*
X69760975Y9381639D01*
X58089377Y9381639D01*
X58080739Y9402543D01*
X57580173Y9903983D01*
X56925817Y10175695D01*
X56217291Y10176314D01*
X55562462Y9905744D01*
X55061022Y9405178D01*
X54789310Y8750822D01*
X54788691Y8042296D01*
X45210692Y8042296D01*
X45211309Y8747714D01*
X44940739Y9402543D01*
X44440173Y9903983D01*
X43785817Y10175695D01*
X43077291Y10176314D01*
X42422462Y9905744D01*
X41921022Y9405178D01*
X41649310Y8750822D01*
X41648691Y8042296D01*
X26127000Y8042296D01*
X26127000Y10651639D01*
X39280975Y10651639D01*
X39390950Y10385479D01*
X39594408Y10181665D01*
X39860376Y10071226D01*
X40148361Y10070975D01*
X40237292Y10107720D01*
X40279950Y10004479D01*
X40483408Y9800665D01*
X40749376Y9690226D01*
X41037361Y9689975D01*
X41303521Y9799950D01*
X41507335Y10003408D01*
X41617774Y10269376D01*
X41618025Y10557361D01*
X41508050Y10823521D01*
X41442742Y10888944D01*
X47908811Y10888944D01*
X48074556Y10487810D01*
X48381191Y10180639D01*
X48782035Y10014195D01*
X49216061Y10013816D01*
X49617195Y10179561D01*
X49924366Y10486196D01*
X49999980Y10668297D01*
X50074556Y10487810D01*
X50381191Y10180639D01*
X50782035Y10014195D01*
X51216061Y10013816D01*
X51617195Y10179561D01*
X51924366Y10486196D01*
X52090810Y10887040D01*
X52090811Y10888944D01*
X52408811Y10888944D01*
X52574556Y10487810D01*
X52881191Y10180639D01*
X53282035Y10014195D01*
X53716061Y10013816D01*
X54117195Y10179561D01*
X54424366Y10486196D01*
X54590810Y10887040D01*
X54591189Y11321066D01*
X54425444Y11722200D01*
X54118809Y12029371D01*
X53717965Y12195815D01*
X53283939Y12196194D01*
X52882805Y12030449D01*
X52575634Y11723814D01*
X52409190Y11322970D01*
X52408811Y10888944D01*
X52090811Y10888944D01*
X52091189Y11321066D01*
X51925444Y11722200D01*
X51618809Y12029371D01*
X51217965Y12195815D01*
X50783939Y12196194D01*
X50382805Y12030449D01*
X50075634Y11723814D01*
X50000020Y11541713D01*
X49925444Y11722200D01*
X49618809Y12029371D01*
X49217965Y12195815D01*
X48783939Y12196194D01*
X48382805Y12030449D01*
X48075634Y11723814D01*
X47909190Y11322970D01*
X47908811Y10888944D01*
X41442742Y10888944D01*
X41304592Y11027335D01*
X41038624Y11137774D01*
X40750639Y11138025D01*
X40661708Y11101280D01*
X40619050Y11204521D01*
X40415592Y11408335D01*
X40149624Y11518774D01*
X39861639Y11519025D01*
X39595479Y11409050D01*
X39391665Y11205592D01*
X39281226Y10939624D01*
X39280975Y10651639D01*
X26127000Y10651639D01*
X26127000Y12556639D01*
X34200975Y12556639D01*
X34310950Y12290479D01*
X34514408Y12086665D01*
X34780376Y11976226D01*
X35068361Y11975975D01*
X35334521Y12085950D01*
X35538335Y12289408D01*
X35648774Y12555376D01*
X35648775Y12556639D01*
X36740975Y12556639D01*
X36850950Y12290479D01*
X37054408Y12086665D01*
X37320376Y11976226D01*
X37608361Y11975975D01*
X37874521Y12085950D01*
X38078335Y12289408D01*
X38188774Y12555376D01*
X38189025Y12843361D01*
X38079050Y13109521D01*
X37875592Y13313335D01*
X37609624Y13423774D01*
X37321639Y13424025D01*
X37055479Y13314050D01*
X36851665Y13110592D01*
X36741226Y12844624D01*
X36740975Y12556639D01*
X35648775Y12556639D01*
X35649025Y12843361D01*
X35539050Y13109521D01*
X35335592Y13313335D01*
X35069624Y13423774D01*
X34781639Y13424025D01*
X34515479Y13314050D01*
X34311665Y13110592D01*
X34201226Y12844624D01*
X34200975Y12556639D01*
X26127000Y12556639D01*
X26127000Y13722296D01*
X41648691Y13722296D01*
X41919261Y13067467D01*
X42419827Y12566027D01*
X43074183Y12294315D01*
X43782709Y12293696D01*
X44437538Y12564266D01*
X44938978Y13064832D01*
X45123389Y13508944D01*
X47908811Y13508944D01*
X48074556Y13107810D01*
X48381191Y12800639D01*
X48782035Y12634195D01*
X49216061Y12633816D01*
X49617195Y12799561D01*
X49924366Y13106196D01*
X49999980Y13288297D01*
X50074556Y13107810D01*
X50381191Y12800639D01*
X50782035Y12634195D01*
X51216061Y12633816D01*
X51617195Y12799561D01*
X51924366Y13106196D01*
X52090810Y13507040D01*
X52090811Y13508944D01*
X52408811Y13508944D01*
X52574556Y13107810D01*
X52881191Y12800639D01*
X53282035Y12634195D01*
X53716061Y12633816D01*
X54117195Y12799561D01*
X54424366Y13106196D01*
X54590810Y13507040D01*
X54590997Y13722296D01*
X54788691Y13722296D01*
X55059261Y13067467D01*
X55559827Y12566027D01*
X56214183Y12294315D01*
X56922709Y12293696D01*
X57577538Y12564266D01*
X58078978Y13064832D01*
X58350690Y13719188D01*
X58350783Y13826639D01*
X58965975Y13826639D01*
X59075950Y13560479D01*
X59279408Y13356665D01*
X59545376Y13246226D01*
X59833361Y13245975D01*
X60099521Y13355950D01*
X60303335Y13559408D01*
X60413774Y13825376D01*
X60414025Y14113361D01*
X60309225Y14366997D01*
X70478718Y14366997D01*
X70726499Y13767320D01*
X71184907Y13308112D01*
X71784151Y13059284D01*
X72433003Y13058718D01*
X73032680Y13306499D01*
X73491888Y13764907D01*
X73740716Y14364151D01*
X73741282Y15013003D01*
X73493501Y15612680D01*
X73035093Y16071888D01*
X72435849Y16320716D01*
X71786997Y16321282D01*
X71187320Y16073501D01*
X70728112Y15615093D01*
X70479284Y15015849D01*
X70478718Y14366997D01*
X60309225Y14366997D01*
X60304050Y14379521D01*
X60100592Y14583335D01*
X59834624Y14693774D01*
X59546639Y14694025D01*
X59280479Y14584050D01*
X59076665Y14380592D01*
X58966226Y14114624D01*
X58965975Y13826639D01*
X58350783Y13826639D01*
X58351309Y14427714D01*
X58080739Y15082543D01*
X57580173Y15583983D01*
X56925817Y15855695D01*
X56217291Y15856314D01*
X55562462Y15585744D01*
X55061022Y15085178D01*
X54789310Y14430822D01*
X54788691Y13722296D01*
X54590997Y13722296D01*
X54591189Y13941066D01*
X54425444Y14342200D01*
X54118809Y14649371D01*
X53717965Y14815815D01*
X53283939Y14816194D01*
X52882805Y14650449D01*
X52575634Y14343814D01*
X52409190Y13942970D01*
X52408811Y13508944D01*
X52090811Y13508944D01*
X52091189Y13941066D01*
X51925444Y14342200D01*
X51618809Y14649371D01*
X51217965Y14815815D01*
X50783939Y14816194D01*
X50382805Y14650449D01*
X50075634Y14343814D01*
X50000020Y14161713D01*
X49925444Y14342200D01*
X49618809Y14649371D01*
X49217965Y14815815D01*
X48783939Y14816194D01*
X48382805Y14650449D01*
X48075634Y14343814D01*
X47909190Y13942970D01*
X47908811Y13508944D01*
X45123389Y13508944D01*
X45210690Y13719188D01*
X45211309Y14427714D01*
X44940739Y15082543D01*
X44440173Y15583983D01*
X43785817Y15855695D01*
X43077291Y15856314D01*
X42422462Y15585744D01*
X41921022Y15085178D01*
X41649310Y14430822D01*
X41648691Y13722296D01*
X26127000Y13722296D01*
X26127000Y18254569D01*
X36395400Y18254569D01*
X36395400Y17895031D01*
X36490140Y17418743D01*
X36759935Y17014966D01*
X37163712Y16745171D01*
X37640000Y16650431D01*
X38116288Y16745171D01*
X38520065Y17014966D01*
X38789860Y17418743D01*
X38884600Y17895031D01*
X38884600Y18254569D01*
X38935400Y18254569D01*
X38935400Y17895031D01*
X39030140Y17418743D01*
X39299935Y17014966D01*
X39703712Y16745171D01*
X40180000Y16650431D01*
X40656288Y16745171D01*
X41040119Y17001639D01*
X58330975Y17001639D01*
X58440950Y16735479D01*
X58644408Y16531665D01*
X58910376Y16421226D01*
X59198361Y16420975D01*
X59464521Y16530950D01*
X59668335Y16734408D01*
X59778774Y17000376D01*
X59779025Y17288361D01*
X59669050Y17554521D01*
X59465592Y17758335D01*
X59199624Y17868774D01*
X58911639Y17869025D01*
X58645479Y17759050D01*
X58441665Y17555592D01*
X58331226Y17289624D01*
X58330975Y17001639D01*
X41040119Y17001639D01*
X41060065Y17014966D01*
X41329860Y17418743D01*
X41424600Y17895031D01*
X41424600Y18176997D01*
X65868718Y18176997D01*
X66116499Y17577320D01*
X66574907Y17118112D01*
X67174151Y16869284D01*
X67823003Y16868718D01*
X68422680Y17116499D01*
X68881888Y17574907D01*
X69130716Y18174151D01*
X69131282Y18823003D01*
X68883501Y19422680D01*
X68425093Y19881888D01*
X67825849Y20130716D01*
X67176997Y20131282D01*
X66577320Y19883501D01*
X66118112Y19425093D01*
X65869284Y18825849D01*
X65868718Y18176997D01*
X41424600Y18176997D01*
X41424600Y18254569D01*
X41329860Y18730857D01*
X41060065Y19134634D01*
X40656288Y19404429D01*
X40180000Y19499169D01*
X39703712Y19404429D01*
X39299935Y19134634D01*
X39030140Y18730857D01*
X38935400Y18254569D01*
X38884600Y18254569D01*
X38789860Y18730857D01*
X38520065Y19134634D01*
X38116288Y19404429D01*
X37640000Y19499169D01*
X37163712Y19404429D01*
X36759935Y19134634D01*
X36490140Y18730857D01*
X36395400Y18254569D01*
X26127000Y18254569D01*
X26127000Y20811639D01*
X53885975Y20811639D01*
X53995950Y20545479D01*
X54199408Y20341665D01*
X54465376Y20231226D01*
X54753361Y20230975D01*
X55019521Y20340950D01*
X55223335Y20544408D01*
X55333774Y20810376D01*
X55334025Y21098361D01*
X55224050Y21364521D01*
X55020592Y21568335D01*
X54754624Y21678774D01*
X54466639Y21679025D01*
X54200479Y21569050D01*
X53996665Y21365592D01*
X53886226Y21099624D01*
X53885975Y20811639D01*
X26127000Y20811639D01*
X26127000Y21446639D01*
X47535975Y21446639D01*
X47645950Y21180479D01*
X47849408Y20976665D01*
X48115376Y20866226D01*
X48403361Y20865975D01*
X48669521Y20975950D01*
X48873335Y21179408D01*
X48983774Y21445376D01*
X48984025Y21733361D01*
X48874050Y21999521D01*
X48670592Y22203335D01*
X48404624Y22313774D01*
X48116639Y22314025D01*
X47850479Y22204050D01*
X47646665Y22000592D01*
X47536226Y21734624D01*
X47535975Y21446639D01*
X26127000Y21446639D01*
X26127000Y23986639D01*
X57695975Y23986639D01*
X57805950Y23720479D01*
X58009408Y23516665D01*
X58275376Y23406226D01*
X58563361Y23405975D01*
X58829521Y23515950D01*
X59033335Y23719408D01*
X59143774Y23985376D01*
X59144025Y24273361D01*
X59034050Y24539521D01*
X58830592Y24743335D01*
X58564624Y24853774D01*
X58276639Y24854025D01*
X58010479Y24744050D01*
X57806665Y24540592D01*
X57696226Y24274624D01*
X57695975Y23986639D01*
X26127000Y23986639D01*
X26127000Y24621639D01*
X41185975Y24621639D01*
X41295950Y24355479D01*
X41499408Y24151665D01*
X41765376Y24041226D01*
X42053361Y24040975D01*
X42319521Y24150950D01*
X42523335Y24354408D01*
X42633774Y24620376D01*
X42634025Y24908361D01*
X42524050Y25174521D01*
X42320592Y25378335D01*
X42054624Y25488774D01*
X41766639Y25489025D01*
X41500479Y25379050D01*
X41296665Y25175592D01*
X41186226Y24909624D01*
X41185975Y24621639D01*
X26127000Y24621639D01*
X26127000Y27176997D01*
X30868718Y27176997D01*
X31116499Y26577320D01*
X31574907Y26118112D01*
X32174151Y25869284D01*
X32823003Y25868718D01*
X33422680Y26116499D01*
X33833535Y26526639D01*
X39915975Y26526639D01*
X40025950Y26260479D01*
X40229408Y26056665D01*
X40495376Y25946226D01*
X40783361Y25945975D01*
X41049521Y26055950D01*
X41253335Y26259408D01*
X41363774Y26525376D01*
X41364025Y26813361D01*
X41254050Y27079521D01*
X41050592Y27283335D01*
X40784624Y27393774D01*
X40496639Y27394025D01*
X40230479Y27284050D01*
X40026665Y27080592D01*
X39916226Y26814624D01*
X39915975Y26526639D01*
X33833535Y26526639D01*
X33881888Y26574907D01*
X34130716Y27174151D01*
X34131282Y27823003D01*
X33883501Y28422680D01*
X33425093Y28881888D01*
X32825849Y29130716D01*
X32176997Y29131282D01*
X31577320Y28883501D01*
X31118112Y28425093D01*
X30869284Y27825849D01*
X30868718Y27176997D01*
X26127000Y27176997D01*
X26127000Y30986997D01*
X26258718Y30986997D01*
X26506499Y30387320D01*
X26964907Y29928112D01*
X27564151Y29679284D01*
X28213003Y29678718D01*
X28812680Y29926499D01*
X29271888Y30384907D01*
X29520716Y30984151D01*
X29521259Y31606639D01*
X39915975Y31606639D01*
X40025950Y31340479D01*
X40229408Y31136665D01*
X40495376Y31026226D01*
X40783361Y31025975D01*
X41049521Y31135950D01*
X41253335Y31339408D01*
X41363774Y31605376D01*
X41364025Y31893361D01*
X41254050Y32159521D01*
X41050592Y32363335D01*
X40784624Y32473774D01*
X40496639Y32474025D01*
X40230479Y32364050D01*
X40026665Y32160592D01*
X39916226Y31894624D01*
X39915975Y31606639D01*
X29521259Y31606639D01*
X29521282Y31633003D01*
X29273501Y32232680D01*
X28815093Y32691888D01*
X28215849Y32940716D01*
X27566997Y32941282D01*
X26967320Y32693501D01*
X26508112Y32235093D01*
X26259284Y31635849D01*
X26258718Y30986997D01*
X26127000Y30986997D01*
X26127000Y34146639D01*
X31660975Y34146639D01*
X31770950Y33880479D01*
X31974408Y33676665D01*
X32240376Y33566226D01*
X32528361Y33565975D01*
X32794521Y33675950D01*
X32998335Y33879408D01*
X33108774Y34145376D01*
X33109025Y34433361D01*
X32999050Y34699521D01*
X32795592Y34903335D01*
X32529624Y35013774D01*
X32241639Y35014025D01*
X31975479Y34904050D01*
X31771665Y34700592D01*
X31661226Y34434624D01*
X31660975Y34146639D01*
X26127000Y34146639D01*
X26127000Y38254305D01*
X26259408Y38121665D01*
X26525376Y38011226D01*
X26813361Y38010975D01*
X27079521Y38120950D01*
X27283335Y38324408D01*
X27393774Y38590376D01*
X27394025Y38878361D01*
X27284050Y39144521D01*
X27080592Y39348335D01*
X26814624Y39458774D01*
X26526639Y39459025D01*
X26260479Y39349050D01*
X26127000Y39215804D01*
X26127000Y40254569D01*
X36395400Y40254569D01*
X36395400Y39895031D01*
X36490140Y39418743D01*
X36759935Y39014966D01*
X37163712Y38745171D01*
X37640000Y38650431D01*
X38116288Y38745171D01*
X38520065Y39014966D01*
X38789860Y39418743D01*
X38884600Y39895031D01*
X38884600Y40254569D01*
X38935400Y40254569D01*
X38935400Y39895031D01*
X39030140Y39418743D01*
X39299935Y39014966D01*
X39703712Y38745171D01*
X40180000Y38650431D01*
X40656288Y38745171D01*
X41060065Y39014966D01*
X41329860Y39418743D01*
X41424600Y39895031D01*
X41424600Y40254569D01*
X41329860Y40730857D01*
X41060065Y41134634D01*
X40656288Y41404429D01*
X40180000Y41499169D01*
X39703712Y41404429D01*
X39299935Y41134634D01*
X39030140Y40730857D01*
X38935400Y40254569D01*
X38884600Y40254569D01*
X38789860Y40730857D01*
X38520065Y41134634D01*
X38116288Y41404429D01*
X37640000Y41499169D01*
X37163712Y41404429D01*
X36759935Y41134634D01*
X36490140Y40730857D01*
X36395400Y40254569D01*
X26127000Y40254569D01*
X26127000Y45576639D01*
X39915975Y45576639D01*
X40025950Y45310479D01*
X40229408Y45106665D01*
X40495376Y44996226D01*
X40783361Y44995975D01*
X41049521Y45105950D01*
X41253335Y45309408D01*
X41363774Y45575376D01*
X41364025Y45863361D01*
X41254050Y46129521D01*
X41050592Y46333335D01*
X40784624Y46443774D01*
X40496639Y46444025D01*
X40230479Y46334050D01*
X40026665Y46130592D01*
X39916226Y45864624D01*
X39915975Y45576639D01*
X26127000Y45576639D01*
X26127000Y49176997D01*
X30868718Y49176997D01*
X31116499Y48577320D01*
X31574907Y48118112D01*
X32174151Y47869284D01*
X32823003Y47868718D01*
X33422680Y48116499D01*
X33881888Y48574907D01*
X34130716Y49174151D01*
X34130901Y49386639D01*
X39915975Y49386639D01*
X40025950Y49120479D01*
X40229408Y48916665D01*
X40495376Y48806226D01*
X40783361Y48805975D01*
X41049521Y48915950D01*
X41253335Y49119408D01*
X41363774Y49385376D01*
X41364025Y49673361D01*
X41254050Y49939521D01*
X41050592Y50143335D01*
X40784624Y50253774D01*
X40496639Y50254025D01*
X40230479Y50144050D01*
X40026665Y49940592D01*
X39916226Y49674624D01*
X39915975Y49386639D01*
X34130901Y49386639D01*
X34131282Y49823003D01*
X33883501Y50422680D01*
X33425093Y50881888D01*
X32825849Y51130716D01*
X32176997Y51131282D01*
X31577320Y50883501D01*
X31118112Y50425093D01*
X30869284Y49825849D01*
X30868718Y49176997D01*
X26127000Y49176997D01*
X26127000Y52986997D01*
X26258718Y52986997D01*
X26506499Y52387320D01*
X26964907Y51928112D01*
X27564151Y51679284D01*
X28213003Y51678718D01*
X28812680Y51926499D01*
X29271888Y52384907D01*
X29520716Y52984151D01*
X29520901Y53196639D01*
X39915975Y53196639D01*
X40025950Y52930479D01*
X40229408Y52726665D01*
X40495376Y52616226D01*
X40783361Y52615975D01*
X41049521Y52725950D01*
X41253335Y52929408D01*
X41363774Y53195376D01*
X41364025Y53483361D01*
X41254050Y53749521D01*
X41050592Y53953335D01*
X40784624Y54063774D01*
X40496639Y54064025D01*
X40230479Y53954050D01*
X40026665Y53750592D01*
X39916226Y53484624D01*
X39915975Y53196639D01*
X29520901Y53196639D01*
X29521282Y53633003D01*
X29273501Y54232680D01*
X28815093Y54691888D01*
X28215849Y54940716D01*
X27566997Y54941282D01*
X26967320Y54693501D01*
X26508112Y54235093D01*
X26259284Y53635849D01*
X26258718Y52986997D01*
X26127000Y52986997D01*
X26127000Y62254569D01*
X36345400Y62254569D01*
X36345400Y61895031D01*
X36440140Y61418743D01*
X36709935Y61014966D01*
X37113712Y60745171D01*
X37590000Y60650431D01*
X38066288Y60745171D01*
X38470065Y61014966D01*
X38739860Y61418743D01*
X38834600Y61895031D01*
X38834600Y62254569D01*
X38885400Y62254569D01*
X38885400Y61895031D01*
X38980140Y61418743D01*
X39249935Y61014966D01*
X39653712Y60745171D01*
X40130000Y60650431D01*
X40606288Y60745171D01*
X40713247Y60816639D01*
X41820975Y60816639D01*
X41930950Y60550479D01*
X42134408Y60346665D01*
X42400376Y60236226D01*
X42688361Y60235975D01*
X42954521Y60345950D01*
X43158335Y60549408D01*
X43268774Y60815376D01*
X43269025Y61103361D01*
X43159050Y61369521D01*
X42955592Y61573335D01*
X42689624Y61683774D01*
X42401639Y61684025D01*
X42135479Y61574050D01*
X41931665Y61370592D01*
X41821226Y61104624D01*
X41820975Y60816639D01*
X40713247Y60816639D01*
X41010065Y61014966D01*
X41279860Y61418743D01*
X41374600Y61895031D01*
X41374600Y62254569D01*
X41279860Y62730857D01*
X41010065Y63134634D01*
X40606288Y63404429D01*
X40130000Y63499169D01*
X39653712Y63404429D01*
X39249935Y63134634D01*
X38980140Y62730857D01*
X38885400Y62254569D01*
X38834600Y62254569D01*
X38739860Y62730857D01*
X38470065Y63134634D01*
X38066288Y63404429D01*
X37590000Y63499169D01*
X37113712Y63404429D01*
X36709935Y63134634D01*
X36440140Y62730857D01*
X36345400Y62254569D01*
X26127000Y62254569D01*
X26127000Y65896639D01*
X41185975Y65896639D01*
X41295950Y65630479D01*
X41499408Y65426665D01*
X41765376Y65316226D01*
X42053361Y65315975D01*
X42319521Y65425950D01*
X42523335Y65629408D01*
X42633774Y65895376D01*
X42634025Y66183361D01*
X42524050Y66449521D01*
X42320592Y66653335D01*
X42054624Y66763774D01*
X41766639Y66764025D01*
X41500479Y66654050D01*
X41296665Y66450592D01*
X41186226Y66184624D01*
X41185975Y65896639D01*
X26127000Y65896639D01*
X26127000Y71176997D01*
X30868718Y71176997D01*
X31116499Y70577320D01*
X31574907Y70118112D01*
X32174151Y69869284D01*
X32823003Y69868718D01*
X33422680Y70116499D01*
X33881888Y70574907D01*
X34048701Y70976639D01*
X39915975Y70976639D01*
X40025950Y70710479D01*
X40229408Y70506665D01*
X40495376Y70396226D01*
X40783361Y70395975D01*
X41049521Y70505950D01*
X41253335Y70709408D01*
X41363774Y70975376D01*
X41364025Y71263361D01*
X41254050Y71529521D01*
X41050592Y71733335D01*
X40784624Y71843774D01*
X40496639Y71844025D01*
X40230479Y71734050D01*
X40026665Y71530592D01*
X39916226Y71264624D01*
X39915975Y70976639D01*
X34048701Y70976639D01*
X34130716Y71174151D01*
X34131282Y71823003D01*
X33883501Y72422680D01*
X33425093Y72881888D01*
X32825849Y73130716D01*
X32176997Y73131282D01*
X31577320Y72883501D01*
X31118112Y72425093D01*
X30869284Y71825849D01*
X30868718Y71176997D01*
X26127000Y71176997D01*
X26127000Y74986997D01*
X26258718Y74986997D01*
X26506499Y74387320D01*
X26964907Y73928112D01*
X27564151Y73679284D01*
X28213003Y73678718D01*
X28812680Y73926499D01*
X29271888Y74384907D01*
X29520716Y74984151D01*
X29521282Y75633003D01*
X29346240Y76056639D01*
X39915975Y76056639D01*
X40025950Y75790479D01*
X40229408Y75586665D01*
X40495376Y75476226D01*
X40783361Y75475975D01*
X41049521Y75585950D01*
X41253335Y75789408D01*
X41363774Y76055376D01*
X41364025Y76343361D01*
X41254050Y76609521D01*
X41050592Y76813335D01*
X40784624Y76923774D01*
X40496639Y76924025D01*
X40230479Y76814050D01*
X40026665Y76610592D01*
X39916226Y76344624D01*
X39915975Y76056639D01*
X29346240Y76056639D01*
X29273501Y76232680D01*
X28815093Y76691888D01*
X28215849Y76940716D01*
X27566997Y76941282D01*
X26967320Y76693501D01*
X26508112Y76235093D01*
X26259284Y75635849D01*
X26258718Y74986997D01*
X26127000Y74986997D01*
X26127000Y77624305D01*
X26259408Y77491665D01*
X26525376Y77381226D01*
X26813361Y77380975D01*
X27079521Y77490950D01*
X27283335Y77694408D01*
X27393774Y77960376D01*
X27394025Y78248361D01*
X27284050Y78514521D01*
X27080592Y78718335D01*
X26814624Y78828774D01*
X26526639Y78829025D01*
X26260479Y78719050D01*
X26127000Y78585804D01*
X26127000Y82406639D01*
X31660975Y82406639D01*
X31770950Y82140479D01*
X31974408Y81936665D01*
X32240376Y81826226D01*
X32528361Y81825975D01*
X32794521Y81935950D01*
X32998335Y82139408D01*
X33108774Y82405376D01*
X33109025Y82693361D01*
X32999050Y82959521D01*
X32795592Y83163335D01*
X32529624Y83273774D01*
X32241639Y83274025D01*
X31975479Y83164050D01*
X31771665Y82960592D01*
X31661226Y82694624D01*
X31660975Y82406639D01*
X26127000Y82406639D01*
X26127000Y84254569D01*
X36395400Y84254569D01*
X36395400Y83895031D01*
X36490140Y83418743D01*
X36759935Y83014966D01*
X37163712Y82745171D01*
X37640000Y82650431D01*
X38116288Y82745171D01*
X38520065Y83014966D01*
X38789860Y83418743D01*
X38884600Y83895031D01*
X38884600Y84254569D01*
X38935400Y84254569D01*
X38935400Y83895031D01*
X39030140Y83418743D01*
X39299935Y83014966D01*
X39703712Y82745171D01*
X40180000Y82650431D01*
X40656288Y82745171D01*
X41060065Y83014966D01*
X41329860Y83418743D01*
X41424600Y83895031D01*
X41424600Y84254569D01*
X41329860Y84730857D01*
X41060065Y85134634D01*
X40656288Y85404429D01*
X40180000Y85499169D01*
X39703712Y85404429D01*
X39299935Y85134634D01*
X39030140Y84730857D01*
X38935400Y84254569D01*
X38884600Y84254569D01*
X38789860Y84730857D01*
X38520065Y85134634D01*
X38116288Y85404429D01*
X37640000Y85499169D01*
X37163712Y85404429D01*
X36759935Y85134634D01*
X36490140Y84730857D01*
X36395400Y84254569D01*
X26127000Y84254569D01*
X26127000Y88121639D01*
X41185975Y88121639D01*
X41295950Y87855479D01*
X41499408Y87651665D01*
X41765376Y87541226D01*
X42053361Y87540975D01*
X42319521Y87650950D01*
X42523335Y87854408D01*
X42633774Y88120376D01*
X42634025Y88408361D01*
X42524050Y88674521D01*
X42320592Y88878335D01*
X42054624Y88988774D01*
X41766639Y88989025D01*
X41500479Y88879050D01*
X41296665Y88675592D01*
X41186226Y88409624D01*
X41185975Y88121639D01*
X26127000Y88121639D01*
X26127000Y93176997D01*
X30868718Y93176997D01*
X31116499Y92577320D01*
X31574907Y92118112D01*
X32174151Y91869284D01*
X32823003Y91868718D01*
X33422680Y92116499D01*
X33881888Y92574907D01*
X34130716Y93174151D01*
X34130739Y93201639D01*
X39915975Y93201639D01*
X40025950Y92935479D01*
X40229408Y92731665D01*
X40495376Y92621226D01*
X40783361Y92620975D01*
X41049521Y92730950D01*
X41253335Y92934408D01*
X41363774Y93200376D01*
X41364025Y93488361D01*
X41254050Y93754521D01*
X41050592Y93958335D01*
X40784624Y94068774D01*
X40496639Y94069025D01*
X40230479Y93959050D01*
X40026665Y93755592D01*
X39916226Y93489624D01*
X39915975Y93201639D01*
X34130739Y93201639D01*
X34131282Y93823003D01*
X33883501Y94422680D01*
X33425093Y94881888D01*
X32825849Y95130716D01*
X32176997Y95131282D01*
X31577320Y94883501D01*
X31118112Y94425093D01*
X30869284Y93825849D01*
X30868718Y93176997D01*
X26127000Y93176997D01*
X26127000Y96986997D01*
X26258718Y96986997D01*
X26506499Y96387320D01*
X26964907Y95928112D01*
X27564151Y95679284D01*
X28213003Y95678718D01*
X28812680Y95926499D01*
X29271888Y96384907D01*
X29520716Y96984151D01*
X29520739Y97011639D01*
X39915975Y97011639D01*
X40025950Y96745479D01*
X40229408Y96541665D01*
X40495376Y96431226D01*
X40783361Y96430975D01*
X41049521Y96540950D01*
X41253335Y96744408D01*
X41363774Y97010376D01*
X41364025Y97298361D01*
X41254050Y97564521D01*
X41050592Y97768335D01*
X40784624Y97878774D01*
X40496639Y97879025D01*
X40230479Y97769050D01*
X40026665Y97565592D01*
X39916226Y97299624D01*
X39915975Y97011639D01*
X29520739Y97011639D01*
X29521282Y97633003D01*
X29273501Y98232680D01*
X28815093Y98691888D01*
X28215849Y98940716D01*
X27566997Y98941282D01*
X26967320Y98693501D01*
X26508112Y98235093D01*
X26259284Y97635849D01*
X26258718Y96986997D01*
X26127000Y96986997D01*
X26127000Y99544000D01*
X43373000Y99544000D01*
X43373000Y63446628D01*
X43373000Y63446628D01*
G37*
X43373000Y63446628D02*
X43201665Y63275592D01*
X43091226Y63009624D01*
X43090975Y62721639D01*
X43200950Y62455479D01*
X43373000Y62283128D01*
X43373000Y58121762D01*
X43324205Y58073052D01*
X43213766Y57807084D01*
X43213515Y57519099D01*
X43323490Y57252939D01*
X43373000Y57203342D01*
X43373000Y51381628D01*
X43201665Y51210592D01*
X43091226Y50944624D01*
X43090975Y50656639D01*
X43200950Y50390479D01*
X43373000Y50218128D01*
X43373000Y39316628D01*
X43201665Y39145592D01*
X43091226Y38879624D01*
X43090975Y38591639D01*
X43200950Y38325479D01*
X43373000Y38153128D01*
X43373000Y28000000D01*
X43383006Y27950590D01*
X43411447Y27908965D01*
X43453841Y27881685D01*
X43500000Y27873000D01*
X56500000Y27873000D01*
X56549410Y27883006D01*
X56591035Y27911447D01*
X56618315Y27953841D01*
X56627000Y28000000D01*
X56627000Y28104969D01*
X58575400Y28104969D01*
X58575400Y27745431D01*
X58670140Y27269143D01*
X58939935Y26865366D01*
X59343712Y26595571D01*
X59820000Y26500831D01*
X60296288Y26595571D01*
X60700065Y26865366D01*
X60969860Y27269143D01*
X61064600Y27745431D01*
X61064600Y28104969D01*
X61115400Y28104969D01*
X61115400Y27745431D01*
X61210140Y27269143D01*
X61479935Y26865366D01*
X61883712Y26595571D01*
X62360000Y26500831D01*
X62836288Y26595571D01*
X63240065Y26865366D01*
X63509860Y27269143D01*
X63604600Y27745431D01*
X63604600Y28104969D01*
X63509860Y28581257D01*
X63240065Y28985034D01*
X62836288Y29254829D01*
X62360000Y29349569D01*
X61883712Y29254829D01*
X61479935Y28985034D01*
X61210140Y28581257D01*
X61115400Y28104969D01*
X61064600Y28104969D01*
X60969860Y28581257D01*
X60700065Y28985034D01*
X60296288Y29254829D01*
X59820000Y29349569D01*
X59343712Y29254829D01*
X58939935Y28985034D01*
X58670140Y28581257D01*
X58575400Y28104969D01*
X56627000Y28104969D01*
X56627000Y32241639D01*
X69125975Y32241639D01*
X69235950Y31975479D01*
X69439408Y31771665D01*
X69705376Y31661226D01*
X69993361Y31660975D01*
X70259521Y31770950D01*
X70463335Y31974408D01*
X70573774Y32240376D01*
X70574025Y32528361D01*
X70464050Y32794521D01*
X70260592Y32998335D01*
X69994624Y33108774D01*
X69706639Y33109025D01*
X69440479Y32999050D01*
X69236665Y32795592D01*
X69126226Y32529624D01*
X69125975Y32241639D01*
X56627000Y32241639D01*
X56627000Y32876639D01*
X66585975Y32876639D01*
X66695950Y32610479D01*
X66899408Y32406665D01*
X67165376Y32296226D01*
X67453361Y32295975D01*
X67719521Y32405950D01*
X67923335Y32609408D01*
X68033774Y32875376D01*
X68034025Y33163361D01*
X67924050Y33429521D01*
X67720592Y33633335D01*
X67454624Y33743774D01*
X67166639Y33744025D01*
X66900479Y33634050D01*
X66696665Y33430592D01*
X66586226Y33164624D01*
X66585975Y32876639D01*
X56627000Y32876639D01*
X56627000Y36051639D01*
X58965975Y36051639D01*
X59075950Y35785479D01*
X59279408Y35581665D01*
X59545376Y35471226D01*
X59833361Y35470975D01*
X60099521Y35580950D01*
X60303335Y35784408D01*
X60413774Y36050376D01*
X60414025Y36338361D01*
X60402193Y36366997D01*
X70478718Y36366997D01*
X70726499Y35767320D01*
X71184907Y35308112D01*
X71784151Y35059284D01*
X72433003Y35058718D01*
X73032680Y35306499D01*
X73491888Y35764907D01*
X73740716Y36364151D01*
X73741282Y37013003D01*
X73493501Y37612680D01*
X73035093Y38071888D01*
X72435849Y38320716D01*
X71786997Y38321282D01*
X71187320Y38073501D01*
X70728112Y37615093D01*
X70479284Y37015849D01*
X70478718Y36366997D01*
X60402193Y36366997D01*
X60304050Y36604521D01*
X60100592Y36808335D01*
X59834624Y36918774D01*
X59546639Y36919025D01*
X59280479Y36809050D01*
X59076665Y36605592D01*
X58966226Y36339624D01*
X58965975Y36051639D01*
X56627000Y36051639D01*
X56627000Y40176997D01*
X65868718Y40176997D01*
X66116499Y39577320D01*
X66574907Y39118112D01*
X67174151Y38869284D01*
X67823003Y38868718D01*
X68422680Y39116499D01*
X68881888Y39574907D01*
X69130716Y40174151D01*
X69131282Y40823003D01*
X68883501Y41422680D01*
X68425093Y41881888D01*
X67825849Y42130716D01*
X67176997Y42131282D01*
X66577320Y41883501D01*
X66118112Y41425093D01*
X65869284Y40825849D01*
X65868718Y40176997D01*
X56627000Y40176997D01*
X56627000Y41766639D01*
X57695975Y41766639D01*
X57805950Y41500479D01*
X58009408Y41296665D01*
X58275376Y41186226D01*
X58563361Y41185975D01*
X58829521Y41295950D01*
X59033335Y41499408D01*
X59143774Y41765376D01*
X59144025Y42053361D01*
X59034050Y42319521D01*
X58830592Y42523335D01*
X58564624Y42633774D01*
X58276639Y42634025D01*
X58010479Y42524050D01*
X57806665Y42320592D01*
X57696226Y42054624D01*
X57695975Y41766639D01*
X56627000Y41766639D01*
X56627000Y44306639D01*
X58965975Y44306639D01*
X59075950Y44040479D01*
X59279408Y43836665D01*
X59545376Y43726226D01*
X59833361Y43725975D01*
X60099521Y43835950D01*
X60303335Y44039408D01*
X60413774Y44305376D01*
X60414025Y44593361D01*
X60304050Y44859521D01*
X60100592Y45063335D01*
X59834624Y45173774D01*
X59546639Y45174025D01*
X59280479Y45064050D01*
X59076665Y44860592D01*
X58966226Y44594624D01*
X58965975Y44306639D01*
X56627000Y44306639D01*
X56627000Y50104969D01*
X58575400Y50104969D01*
X58575400Y49745431D01*
X58670140Y49269143D01*
X58939935Y48865366D01*
X59343712Y48595571D01*
X59820000Y48500831D01*
X60296288Y48595571D01*
X60700065Y48865366D01*
X60969860Y49269143D01*
X61064600Y49745431D01*
X61064600Y50104969D01*
X61115400Y50104969D01*
X61115400Y49745431D01*
X61210140Y49269143D01*
X61479935Y48865366D01*
X61883712Y48595571D01*
X62360000Y48500831D01*
X62836288Y48595571D01*
X63240065Y48865366D01*
X63509860Y49269143D01*
X63604600Y49745431D01*
X63604600Y50104969D01*
X63509860Y50581257D01*
X63240065Y50985034D01*
X62836288Y51254829D01*
X62360000Y51349569D01*
X61883712Y51254829D01*
X61479935Y50985034D01*
X61210140Y50581257D01*
X61115400Y50104969D01*
X61064600Y50104969D01*
X60969860Y50581257D01*
X60700065Y50985034D01*
X60296288Y51254829D01*
X59820000Y51349569D01*
X59343712Y51254829D01*
X58939935Y50985034D01*
X58670140Y50581257D01*
X58575400Y50104969D01*
X56627000Y50104969D01*
X56627000Y57728591D01*
X56814223Y57805950D01*
X57018037Y58009408D01*
X57128476Y58275376D01*
X57128477Y58276639D01*
X58965975Y58276639D01*
X59075950Y58010479D01*
X59279408Y57806665D01*
X59545376Y57696226D01*
X59833361Y57695975D01*
X60099521Y57805950D01*
X60303335Y58009408D01*
X60413774Y58275376D01*
X60413853Y58366997D01*
X70478718Y58366997D01*
X70726499Y57767320D01*
X71184907Y57308112D01*
X71784151Y57059284D01*
X72433003Y57058718D01*
X73032680Y57306499D01*
X73491888Y57764907D01*
X73740716Y58364151D01*
X73741282Y59013003D01*
X73493501Y59612680D01*
X73035093Y60071888D01*
X72435849Y60320716D01*
X71786997Y60321282D01*
X71187320Y60073501D01*
X70728112Y59615093D01*
X70479284Y59015849D01*
X70478718Y58366997D01*
X60413853Y58366997D01*
X60414025Y58563361D01*
X60304050Y58829521D01*
X60100592Y59033335D01*
X59834624Y59143774D01*
X59546639Y59144025D01*
X59280479Y59034050D01*
X59076665Y58830592D01*
X58966226Y58564624D01*
X58965975Y58276639D01*
X57128477Y58276639D01*
X57128727Y58563361D01*
X57018752Y58829521D01*
X56815294Y59033335D01*
X56627000Y59111521D01*
X56627000Y61451639D01*
X57695975Y61451639D01*
X57805950Y61185479D01*
X58009408Y60981665D01*
X58275376Y60871226D01*
X58563361Y60870975D01*
X58829521Y60980950D01*
X59033335Y61184408D01*
X59143774Y61450376D01*
X59144025Y61738361D01*
X59034050Y62004521D01*
X58861876Y62176997D01*
X65868718Y62176997D01*
X66116499Y61577320D01*
X66574907Y61118112D01*
X67174151Y60869284D01*
X67823003Y60868718D01*
X68422680Y61116499D01*
X68881888Y61574907D01*
X69130716Y62174151D01*
X69131282Y62823003D01*
X68883501Y63422680D01*
X68425093Y63881888D01*
X67825849Y64130716D01*
X67176997Y64131282D01*
X66577320Y63883501D01*
X66118112Y63425093D01*
X65869284Y62825849D01*
X65868718Y62176997D01*
X58861876Y62176997D01*
X58830592Y62208335D01*
X58564624Y62318774D01*
X58276639Y62319025D01*
X58010479Y62209050D01*
X57806665Y62005592D01*
X57696226Y61739624D01*
X57695975Y61451639D01*
X56627000Y61451639D01*
X56627000Y66531639D01*
X58965975Y66531639D01*
X59075950Y66265479D01*
X59279408Y66061665D01*
X59545376Y65951226D01*
X59833361Y65950975D01*
X60099521Y66060950D01*
X60303335Y66264408D01*
X60413774Y66530376D01*
X60414025Y66818361D01*
X60304050Y67084521D01*
X60100592Y67288335D01*
X59834624Y67398774D01*
X59546639Y67399025D01*
X59280479Y67289050D01*
X59076665Y67085592D01*
X58966226Y66819624D01*
X58965975Y66531639D01*
X56627000Y66531639D01*
X56627000Y72104969D01*
X58575400Y72104969D01*
X58575400Y71745431D01*
X58670140Y71269143D01*
X58939935Y70865366D01*
X59343712Y70595571D01*
X59820000Y70500831D01*
X60296288Y70595571D01*
X60700065Y70865366D01*
X60969860Y71269143D01*
X61064600Y71745431D01*
X61064600Y72104969D01*
X61115400Y72104969D01*
X61115400Y71745431D01*
X61210140Y71269143D01*
X61479935Y70865366D01*
X61883712Y70595571D01*
X62360000Y70500831D01*
X62836288Y70595571D01*
X63240065Y70865366D01*
X63509860Y71269143D01*
X63604600Y71745431D01*
X63604600Y72104969D01*
X63509860Y72581257D01*
X63240065Y72985034D01*
X62836288Y73254829D01*
X62360000Y73349569D01*
X61883712Y73254829D01*
X61479935Y72985034D01*
X61210140Y72581257D01*
X61115400Y72104969D01*
X61064600Y72104969D01*
X60969860Y72581257D01*
X60700065Y72985034D01*
X60296288Y73254829D01*
X59820000Y73349569D01*
X59343712Y73254829D01*
X58939935Y72985034D01*
X58670140Y72581257D01*
X58575400Y72104969D01*
X56627000Y72104969D01*
X56627000Y79866639D01*
X58965975Y79866639D01*
X59075950Y79600479D01*
X59279408Y79396665D01*
X59545376Y79286226D01*
X59833361Y79285975D01*
X60099521Y79395950D01*
X60303335Y79599408D01*
X60413774Y79865376D01*
X60414025Y80153361D01*
X60325753Y80366997D01*
X70478718Y80366997D01*
X70726499Y79767320D01*
X71184907Y79308112D01*
X71784151Y79059284D01*
X72433003Y79058718D01*
X73032680Y79306499D01*
X73491888Y79764907D01*
X73740716Y80364151D01*
X73741282Y81013003D01*
X73493501Y81612680D01*
X73035093Y82071888D01*
X72435849Y82320716D01*
X71786997Y82321282D01*
X71187320Y82073501D01*
X70728112Y81615093D01*
X70479284Y81015849D01*
X70478718Y80366997D01*
X60325753Y80366997D01*
X60304050Y80419521D01*
X60100592Y80623335D01*
X59834624Y80733774D01*
X59546639Y80734025D01*
X59280479Y80624050D01*
X59076665Y80420592D01*
X58966226Y80154624D01*
X58965975Y79866639D01*
X56627000Y79866639D01*
X56627000Y82394297D01*
X68478633Y82394297D01*
X68588608Y82128137D01*
X68792066Y81924323D01*
X69058034Y81813884D01*
X69346019Y81813633D01*
X69612179Y81923608D01*
X69815993Y82127066D01*
X69926432Y82393034D01*
X69926683Y82681019D01*
X69816708Y82947179D01*
X69613250Y83150993D01*
X69347282Y83261432D01*
X69059297Y83261683D01*
X68793137Y83151708D01*
X68589323Y82948250D01*
X68478884Y82682282D01*
X68478633Y82394297D01*
X56627000Y82394297D01*
X56627000Y83041639D01*
X57695975Y83041639D01*
X57805950Y82775479D01*
X58009408Y82571665D01*
X58275376Y82461226D01*
X58563361Y82460975D01*
X58829521Y82570950D01*
X59033335Y82774408D01*
X59143774Y83040376D01*
X59144025Y83328361D01*
X59034050Y83594521D01*
X58830592Y83798335D01*
X58564624Y83908774D01*
X58276639Y83909025D01*
X58010479Y83799050D01*
X57806665Y83595592D01*
X57696226Y83329624D01*
X57695975Y83041639D01*
X56627000Y83041639D01*
X56627000Y84176997D01*
X65868718Y84176997D01*
X66116499Y83577320D01*
X66574907Y83118112D01*
X67174151Y82869284D01*
X67823003Y82868718D01*
X68422680Y83116499D01*
X68881888Y83574907D01*
X69130716Y84174151D01*
X69131282Y84823003D01*
X68883501Y85422680D01*
X68425093Y85881888D01*
X67825849Y86130716D01*
X67176997Y86131282D01*
X66577320Y85883501D01*
X66118112Y85425093D01*
X65869284Y84825849D01*
X65868718Y84176997D01*
X56627000Y84176997D01*
X56627000Y88121639D01*
X58965975Y88121639D01*
X59075950Y87855479D01*
X59279408Y87651665D01*
X59545376Y87541226D01*
X59833361Y87540975D01*
X60099521Y87650950D01*
X60303335Y87854408D01*
X60413774Y88120376D01*
X60414025Y88408361D01*
X60304050Y88674521D01*
X60100592Y88878335D01*
X59834624Y88988774D01*
X59546639Y88989025D01*
X59280479Y88879050D01*
X59076665Y88675592D01*
X58966226Y88409624D01*
X58965975Y88121639D01*
X56627000Y88121639D01*
X56627000Y94104969D01*
X58575400Y94104969D01*
X58575400Y93745431D01*
X58670140Y93269143D01*
X58939935Y92865366D01*
X59343712Y92595571D01*
X59820000Y92500831D01*
X60296288Y92595571D01*
X60700065Y92865366D01*
X60969860Y93269143D01*
X61064600Y93745431D01*
X61064600Y94104969D01*
X61115400Y94104969D01*
X61115400Y93745431D01*
X61210140Y93269143D01*
X61479935Y92865366D01*
X61883712Y92595571D01*
X62360000Y92500831D01*
X62836288Y92595571D01*
X63240065Y92865366D01*
X63509860Y93269143D01*
X63604600Y93745431D01*
X63604600Y94104969D01*
X63509860Y94581257D01*
X63240065Y94985034D01*
X62836288Y95254829D01*
X62360000Y95349569D01*
X61883712Y95254829D01*
X61479935Y94985034D01*
X61210140Y94581257D01*
X61115400Y94104969D01*
X61064600Y94104969D01*
X60969860Y94581257D01*
X60700065Y94985034D01*
X60296288Y95254829D01*
X59820000Y95349569D01*
X59343712Y95254829D01*
X58939935Y94985034D01*
X58670140Y94581257D01*
X58575400Y94104969D01*
X56627000Y94104969D01*
X56627000Y99544000D01*
X73873000Y99544000D01*
X73873000Y78165382D01*
X73804624Y78193774D01*
X73516639Y78194025D01*
X73250479Y78084050D01*
X73046665Y77880592D01*
X72936226Y77614624D01*
X72935975Y77326639D01*
X73045950Y77060479D01*
X73249408Y76856665D01*
X73515376Y76746226D01*
X73803361Y76745975D01*
X73873000Y76774749D01*
X73873000Y456000D01*
X26127000Y456000D01*
X26127000Y1761639D01*
X28485975Y1761639D01*
X28595950Y1495479D01*
X28799408Y1291665D01*
X29065376Y1181226D01*
X29353361Y1180975D01*
X29619521Y1290950D01*
X29823335Y1494408D01*
X29933774Y1760376D01*
X29934025Y2048361D01*
X29824050Y2314521D01*
X29742076Y2396639D01*
X44360975Y2396639D01*
X44470950Y2130479D01*
X44674408Y1926665D01*
X44940376Y1816226D01*
X45228361Y1815975D01*
X45494521Y1925950D01*
X45698335Y2129408D01*
X45808774Y2395376D01*
X45808775Y2396639D01*
X55155975Y2396639D01*
X55265950Y2130479D01*
X55469408Y1926665D01*
X55735376Y1816226D01*
X56023361Y1815975D01*
X56289521Y1925950D01*
X56493335Y2129408D01*
X56603774Y2395376D01*
X56604025Y2683361D01*
X56494050Y2949521D01*
X56290592Y3153335D01*
X56024624Y3263774D01*
X55736639Y3264025D01*
X55470479Y3154050D01*
X55266665Y2950592D01*
X55156226Y2684624D01*
X55155975Y2396639D01*
X45808775Y2396639D01*
X45809025Y2683361D01*
X45699050Y2949521D01*
X45495592Y3153335D01*
X45229624Y3263774D01*
X44941639Y3264025D01*
X44675479Y3154050D01*
X44471665Y2950592D01*
X44361226Y2684624D01*
X44360975Y2396639D01*
X29742076Y2396639D01*
X29620592Y2518335D01*
X29354624Y2628774D01*
X29066639Y2629025D01*
X28800479Y2519050D01*
X28596665Y2315592D01*
X28486226Y2049624D01*
X28485975Y1761639D01*
X26127000Y1761639D01*
X26127000Y3666639D01*
X42455975Y3666639D01*
X42565950Y3400479D01*
X42769408Y3196665D01*
X43035376Y3086226D01*
X43323361Y3085975D01*
X43589521Y3195950D01*
X43793335Y3399408D01*
X43903774Y3665376D01*
X43903775Y3666639D01*
X58330975Y3666639D01*
X58440950Y3400479D01*
X58644408Y3196665D01*
X58910376Y3086226D01*
X59198361Y3085975D01*
X59464521Y3195950D01*
X59668335Y3399408D01*
X59778774Y3665376D01*
X59779025Y3953361D01*
X59669050Y4219521D01*
X59587076Y4301639D01*
X69760975Y4301639D01*
X69870950Y4035479D01*
X70074408Y3831665D01*
X70340376Y3721226D01*
X70628361Y3720975D01*
X70894521Y3830950D01*
X71098335Y4034408D01*
X71208774Y4300376D01*
X71209025Y4588361D01*
X71099050Y4854521D01*
X70895592Y5058335D01*
X70629624Y5168774D01*
X70341639Y5169025D01*
X70075479Y5059050D01*
X69871665Y4855592D01*
X69761226Y4589624D01*
X69760975Y4301639D01*
X59587076Y4301639D01*
X59465592Y4423335D01*
X59199624Y4533774D01*
X58911639Y4534025D01*
X58645479Y4424050D01*
X58441665Y4220592D01*
X58331226Y3954624D01*
X58330975Y3666639D01*
X43903775Y3666639D01*
X43904025Y3953361D01*
X43794050Y4219521D01*
X43590592Y4423335D01*
X43324624Y4533774D01*
X43036639Y4534025D01*
X42770479Y4424050D01*
X42566665Y4220592D01*
X42456226Y3954624D01*
X42455975Y3666639D01*
X26127000Y3666639D01*
X26127000Y4936639D01*
X46265975Y4936639D01*
X46375950Y4670479D01*
X46579408Y4466665D01*
X46845376Y4356226D01*
X47133361Y4355975D01*
X47399521Y4465950D01*
X47603335Y4669408D01*
X47713774Y4935376D01*
X47714025Y5223361D01*
X47604050Y5489521D01*
X47400592Y5693335D01*
X47134624Y5803774D01*
X46846639Y5804025D01*
X46580479Y5694050D01*
X46376665Y5490592D01*
X46266226Y5224624D01*
X46265975Y4936639D01*
X26127000Y4936639D01*
X26127000Y6841639D01*
X39280975Y6841639D01*
X39390950Y6575479D01*
X39594408Y6371665D01*
X39860376Y6261226D01*
X40148361Y6260975D01*
X40414521Y6370950D01*
X40618335Y6574408D01*
X40728774Y6840376D01*
X40729025Y7128361D01*
X40619050Y7394521D01*
X40415592Y7598335D01*
X40149624Y7708774D01*
X39861639Y7709025D01*
X39595479Y7599050D01*
X39391665Y7395592D01*
X39281226Y7129624D01*
X39280975Y6841639D01*
X26127000Y6841639D01*
X26127000Y8042296D01*
X41648691Y8042296D01*
X41919261Y7387467D01*
X42419827Y6886027D01*
X43074183Y6614315D01*
X43782709Y6613696D01*
X44437538Y6884266D01*
X44938978Y7384832D01*
X45210690Y8039188D01*
X45210692Y8042296D01*
X54788691Y8042296D01*
X55059261Y7387467D01*
X55559827Y6886027D01*
X56214183Y6614315D01*
X56922709Y6613696D01*
X57577538Y6884266D01*
X58078978Y7384832D01*
X58350690Y8039188D01*
X58351309Y8747714D01*
X58089377Y9381639D01*
X69760975Y9381639D01*
X69870950Y9115479D01*
X70074408Y8911665D01*
X70340376Y8801226D01*
X70628361Y8800975D01*
X70894521Y8910950D01*
X71098335Y9114408D01*
X71208774Y9380376D01*
X71209025Y9668361D01*
X71099050Y9934521D01*
X70895592Y10138335D01*
X70629624Y10248774D01*
X70341639Y10249025D01*
X70075479Y10139050D01*
X69871665Y9935592D01*
X69761226Y9669624D01*
X69760975Y9381639D01*
X58089377Y9381639D01*
X58080739Y9402543D01*
X57580173Y9903983D01*
X56925817Y10175695D01*
X56217291Y10176314D01*
X55562462Y9905744D01*
X55061022Y9405178D01*
X54789310Y8750822D01*
X54788691Y8042296D01*
X45210692Y8042296D01*
X45211309Y8747714D01*
X44940739Y9402543D01*
X44440173Y9903983D01*
X43785817Y10175695D01*
X43077291Y10176314D01*
X42422462Y9905744D01*
X41921022Y9405178D01*
X41649310Y8750822D01*
X41648691Y8042296D01*
X26127000Y8042296D01*
X26127000Y10651639D01*
X39280975Y10651639D01*
X39390950Y10385479D01*
X39594408Y10181665D01*
X39860376Y10071226D01*
X40148361Y10070975D01*
X40237292Y10107720D01*
X40279950Y10004479D01*
X40483408Y9800665D01*
X40749376Y9690226D01*
X41037361Y9689975D01*
X41303521Y9799950D01*
X41507335Y10003408D01*
X41617774Y10269376D01*
X41618025Y10557361D01*
X41508050Y10823521D01*
X41442742Y10888944D01*
X47908811Y10888944D01*
X48074556Y10487810D01*
X48381191Y10180639D01*
X48782035Y10014195D01*
X49216061Y10013816D01*
X49617195Y10179561D01*
X49924366Y10486196D01*
X49999980Y10668297D01*
X50074556Y10487810D01*
X50381191Y10180639D01*
X50782035Y10014195D01*
X51216061Y10013816D01*
X51617195Y10179561D01*
X51924366Y10486196D01*
X52090810Y10887040D01*
X52090811Y10888944D01*
X52408811Y10888944D01*
X52574556Y10487810D01*
X52881191Y10180639D01*
X53282035Y10014195D01*
X53716061Y10013816D01*
X54117195Y10179561D01*
X54424366Y10486196D01*
X54590810Y10887040D01*
X54591189Y11321066D01*
X54425444Y11722200D01*
X54118809Y12029371D01*
X53717965Y12195815D01*
X53283939Y12196194D01*
X52882805Y12030449D01*
X52575634Y11723814D01*
X52409190Y11322970D01*
X52408811Y10888944D01*
X52090811Y10888944D01*
X52091189Y11321066D01*
X51925444Y11722200D01*
X51618809Y12029371D01*
X51217965Y12195815D01*
X50783939Y12196194D01*
X50382805Y12030449D01*
X50075634Y11723814D01*
X50000020Y11541713D01*
X49925444Y11722200D01*
X49618809Y12029371D01*
X49217965Y12195815D01*
X48783939Y12196194D01*
X48382805Y12030449D01*
X48075634Y11723814D01*
X47909190Y11322970D01*
X47908811Y10888944D01*
X41442742Y10888944D01*
X41304592Y11027335D01*
X41038624Y11137774D01*
X40750639Y11138025D01*
X40661708Y11101280D01*
X40619050Y11204521D01*
X40415592Y11408335D01*
X40149624Y11518774D01*
X39861639Y11519025D01*
X39595479Y11409050D01*
X39391665Y11205592D01*
X39281226Y10939624D01*
X39280975Y10651639D01*
X26127000Y10651639D01*
X26127000Y12556639D01*
X34200975Y12556639D01*
X34310950Y12290479D01*
X34514408Y12086665D01*
X34780376Y11976226D01*
X35068361Y11975975D01*
X35334521Y12085950D01*
X35538335Y12289408D01*
X35648774Y12555376D01*
X35648775Y12556639D01*
X36740975Y12556639D01*
X36850950Y12290479D01*
X37054408Y12086665D01*
X37320376Y11976226D01*
X37608361Y11975975D01*
X37874521Y12085950D01*
X38078335Y12289408D01*
X38188774Y12555376D01*
X38189025Y12843361D01*
X38079050Y13109521D01*
X37875592Y13313335D01*
X37609624Y13423774D01*
X37321639Y13424025D01*
X37055479Y13314050D01*
X36851665Y13110592D01*
X36741226Y12844624D01*
X36740975Y12556639D01*
X35648775Y12556639D01*
X35649025Y12843361D01*
X35539050Y13109521D01*
X35335592Y13313335D01*
X35069624Y13423774D01*
X34781639Y13424025D01*
X34515479Y13314050D01*
X34311665Y13110592D01*
X34201226Y12844624D01*
X34200975Y12556639D01*
X26127000Y12556639D01*
X26127000Y13722296D01*
X41648691Y13722296D01*
X41919261Y13067467D01*
X42419827Y12566027D01*
X43074183Y12294315D01*
X43782709Y12293696D01*
X44437538Y12564266D01*
X44938978Y13064832D01*
X45123389Y13508944D01*
X47908811Y13508944D01*
X48074556Y13107810D01*
X48381191Y12800639D01*
X48782035Y12634195D01*
X49216061Y12633816D01*
X49617195Y12799561D01*
X49924366Y13106196D01*
X49999980Y13288297D01*
X50074556Y13107810D01*
X50381191Y12800639D01*
X50782035Y12634195D01*
X51216061Y12633816D01*
X51617195Y12799561D01*
X51924366Y13106196D01*
X52090810Y13507040D01*
X52090811Y13508944D01*
X52408811Y13508944D01*
X52574556Y13107810D01*
X52881191Y12800639D01*
X53282035Y12634195D01*
X53716061Y12633816D01*
X54117195Y12799561D01*
X54424366Y13106196D01*
X54590810Y13507040D01*
X54590997Y13722296D01*
X54788691Y13722296D01*
X55059261Y13067467D01*
X55559827Y12566027D01*
X56214183Y12294315D01*
X56922709Y12293696D01*
X57577538Y12564266D01*
X58078978Y13064832D01*
X58350690Y13719188D01*
X58350783Y13826639D01*
X58965975Y13826639D01*
X59075950Y13560479D01*
X59279408Y13356665D01*
X59545376Y13246226D01*
X59833361Y13245975D01*
X60099521Y13355950D01*
X60303335Y13559408D01*
X60413774Y13825376D01*
X60414025Y14113361D01*
X60309225Y14366997D01*
X70478718Y14366997D01*
X70726499Y13767320D01*
X71184907Y13308112D01*
X71784151Y13059284D01*
X72433003Y13058718D01*
X73032680Y13306499D01*
X73491888Y13764907D01*
X73740716Y14364151D01*
X73741282Y15013003D01*
X73493501Y15612680D01*
X73035093Y16071888D01*
X72435849Y16320716D01*
X71786997Y16321282D01*
X71187320Y16073501D01*
X70728112Y15615093D01*
X70479284Y15015849D01*
X70478718Y14366997D01*
X60309225Y14366997D01*
X60304050Y14379521D01*
X60100592Y14583335D01*
X59834624Y14693774D01*
X59546639Y14694025D01*
X59280479Y14584050D01*
X59076665Y14380592D01*
X58966226Y14114624D01*
X58965975Y13826639D01*
X58350783Y13826639D01*
X58351309Y14427714D01*
X58080739Y15082543D01*
X57580173Y15583983D01*
X56925817Y15855695D01*
X56217291Y15856314D01*
X55562462Y15585744D01*
X55061022Y15085178D01*
X54789310Y14430822D01*
X54788691Y13722296D01*
X54590997Y13722296D01*
X54591189Y13941066D01*
X54425444Y14342200D01*
X54118809Y14649371D01*
X53717965Y14815815D01*
X53283939Y14816194D01*
X52882805Y14650449D01*
X52575634Y14343814D01*
X52409190Y13942970D01*
X52408811Y13508944D01*
X52090811Y13508944D01*
X52091189Y13941066D01*
X51925444Y14342200D01*
X51618809Y14649371D01*
X51217965Y14815815D01*
X50783939Y14816194D01*
X50382805Y14650449D01*
X50075634Y14343814D01*
X50000020Y14161713D01*
X49925444Y14342200D01*
X49618809Y14649371D01*
X49217965Y14815815D01*
X48783939Y14816194D01*
X48382805Y14650449D01*
X48075634Y14343814D01*
X47909190Y13942970D01*
X47908811Y13508944D01*
X45123389Y13508944D01*
X45210690Y13719188D01*
X45211309Y14427714D01*
X44940739Y15082543D01*
X44440173Y15583983D01*
X43785817Y15855695D01*
X43077291Y15856314D01*
X42422462Y15585744D01*
X41921022Y15085178D01*
X41649310Y14430822D01*
X41648691Y13722296D01*
X26127000Y13722296D01*
X26127000Y18254569D01*
X36395400Y18254569D01*
X36395400Y17895031D01*
X36490140Y17418743D01*
X36759935Y17014966D01*
X37163712Y16745171D01*
X37640000Y16650431D01*
X38116288Y16745171D01*
X38520065Y17014966D01*
X38789860Y17418743D01*
X38884600Y17895031D01*
X38884600Y18254569D01*
X38935400Y18254569D01*
X38935400Y17895031D01*
X39030140Y17418743D01*
X39299935Y17014966D01*
X39703712Y16745171D01*
X40180000Y16650431D01*
X40656288Y16745171D01*
X41040119Y17001639D01*
X58330975Y17001639D01*
X58440950Y16735479D01*
X58644408Y16531665D01*
X58910376Y16421226D01*
X59198361Y16420975D01*
X59464521Y16530950D01*
X59668335Y16734408D01*
X59778774Y17000376D01*
X59779025Y17288361D01*
X59669050Y17554521D01*
X59465592Y17758335D01*
X59199624Y17868774D01*
X58911639Y17869025D01*
X58645479Y17759050D01*
X58441665Y17555592D01*
X58331226Y17289624D01*
X58330975Y17001639D01*
X41040119Y17001639D01*
X41060065Y17014966D01*
X41329860Y17418743D01*
X41424600Y17895031D01*
X41424600Y18176997D01*
X65868718Y18176997D01*
X66116499Y17577320D01*
X66574907Y17118112D01*
X67174151Y16869284D01*
X67823003Y16868718D01*
X68422680Y17116499D01*
X68881888Y17574907D01*
X69130716Y18174151D01*
X69131282Y18823003D01*
X68883501Y19422680D01*
X68425093Y19881888D01*
X67825849Y20130716D01*
X67176997Y20131282D01*
X66577320Y19883501D01*
X66118112Y19425093D01*
X65869284Y18825849D01*
X65868718Y18176997D01*
X41424600Y18176997D01*
X41424600Y18254569D01*
X41329860Y18730857D01*
X41060065Y19134634D01*
X40656288Y19404429D01*
X40180000Y19499169D01*
X39703712Y19404429D01*
X39299935Y19134634D01*
X39030140Y18730857D01*
X38935400Y18254569D01*
X38884600Y18254569D01*
X38789860Y18730857D01*
X38520065Y19134634D01*
X38116288Y19404429D01*
X37640000Y19499169D01*
X37163712Y19404429D01*
X36759935Y19134634D01*
X36490140Y18730857D01*
X36395400Y18254569D01*
X26127000Y18254569D01*
X26127000Y20811639D01*
X53885975Y20811639D01*
X53995950Y20545479D01*
X54199408Y20341665D01*
X54465376Y20231226D01*
X54753361Y20230975D01*
X55019521Y20340950D01*
X55223335Y20544408D01*
X55333774Y20810376D01*
X55334025Y21098361D01*
X55224050Y21364521D01*
X55020592Y21568335D01*
X54754624Y21678774D01*
X54466639Y21679025D01*
X54200479Y21569050D01*
X53996665Y21365592D01*
X53886226Y21099624D01*
X53885975Y20811639D01*
X26127000Y20811639D01*
X26127000Y21446639D01*
X47535975Y21446639D01*
X47645950Y21180479D01*
X47849408Y20976665D01*
X48115376Y20866226D01*
X48403361Y20865975D01*
X48669521Y20975950D01*
X48873335Y21179408D01*
X48983774Y21445376D01*
X48984025Y21733361D01*
X48874050Y21999521D01*
X48670592Y22203335D01*
X48404624Y22313774D01*
X48116639Y22314025D01*
X47850479Y22204050D01*
X47646665Y22000592D01*
X47536226Y21734624D01*
X47535975Y21446639D01*
X26127000Y21446639D01*
X26127000Y23986639D01*
X57695975Y23986639D01*
X57805950Y23720479D01*
X58009408Y23516665D01*
X58275376Y23406226D01*
X58563361Y23405975D01*
X58829521Y23515950D01*
X59033335Y23719408D01*
X59143774Y23985376D01*
X59144025Y24273361D01*
X59034050Y24539521D01*
X58830592Y24743335D01*
X58564624Y24853774D01*
X58276639Y24854025D01*
X58010479Y24744050D01*
X57806665Y24540592D01*
X57696226Y24274624D01*
X57695975Y23986639D01*
X26127000Y23986639D01*
X26127000Y24621639D01*
X41185975Y24621639D01*
X41295950Y24355479D01*
X41499408Y24151665D01*
X41765376Y24041226D01*
X42053361Y24040975D01*
X42319521Y24150950D01*
X42523335Y24354408D01*
X42633774Y24620376D01*
X42634025Y24908361D01*
X42524050Y25174521D01*
X42320592Y25378335D01*
X42054624Y25488774D01*
X41766639Y25489025D01*
X41500479Y25379050D01*
X41296665Y25175592D01*
X41186226Y24909624D01*
X41185975Y24621639D01*
X26127000Y24621639D01*
X26127000Y27176997D01*
X30868718Y27176997D01*
X31116499Y26577320D01*
X31574907Y26118112D01*
X32174151Y25869284D01*
X32823003Y25868718D01*
X33422680Y26116499D01*
X33833535Y26526639D01*
X39915975Y26526639D01*
X40025950Y26260479D01*
X40229408Y26056665D01*
X40495376Y25946226D01*
X40783361Y25945975D01*
X41049521Y26055950D01*
X41253335Y26259408D01*
X41363774Y26525376D01*
X41364025Y26813361D01*
X41254050Y27079521D01*
X41050592Y27283335D01*
X40784624Y27393774D01*
X40496639Y27394025D01*
X40230479Y27284050D01*
X40026665Y27080592D01*
X39916226Y26814624D01*
X39915975Y26526639D01*
X33833535Y26526639D01*
X33881888Y26574907D01*
X34130716Y27174151D01*
X34131282Y27823003D01*
X33883501Y28422680D01*
X33425093Y28881888D01*
X32825849Y29130716D01*
X32176997Y29131282D01*
X31577320Y28883501D01*
X31118112Y28425093D01*
X30869284Y27825849D01*
X30868718Y27176997D01*
X26127000Y27176997D01*
X26127000Y30986997D01*
X26258718Y30986997D01*
X26506499Y30387320D01*
X26964907Y29928112D01*
X27564151Y29679284D01*
X28213003Y29678718D01*
X28812680Y29926499D01*
X29271888Y30384907D01*
X29520716Y30984151D01*
X29521259Y31606639D01*
X39915975Y31606639D01*
X40025950Y31340479D01*
X40229408Y31136665D01*
X40495376Y31026226D01*
X40783361Y31025975D01*
X41049521Y31135950D01*
X41253335Y31339408D01*
X41363774Y31605376D01*
X41364025Y31893361D01*
X41254050Y32159521D01*
X41050592Y32363335D01*
X40784624Y32473774D01*
X40496639Y32474025D01*
X40230479Y32364050D01*
X40026665Y32160592D01*
X39916226Y31894624D01*
X39915975Y31606639D01*
X29521259Y31606639D01*
X29521282Y31633003D01*
X29273501Y32232680D01*
X28815093Y32691888D01*
X28215849Y32940716D01*
X27566997Y32941282D01*
X26967320Y32693501D01*
X26508112Y32235093D01*
X26259284Y31635849D01*
X26258718Y30986997D01*
X26127000Y30986997D01*
X26127000Y34146639D01*
X31660975Y34146639D01*
X31770950Y33880479D01*
X31974408Y33676665D01*
X32240376Y33566226D01*
X32528361Y33565975D01*
X32794521Y33675950D01*
X32998335Y33879408D01*
X33108774Y34145376D01*
X33109025Y34433361D01*
X32999050Y34699521D01*
X32795592Y34903335D01*
X32529624Y35013774D01*
X32241639Y35014025D01*
X31975479Y34904050D01*
X31771665Y34700592D01*
X31661226Y34434624D01*
X31660975Y34146639D01*
X26127000Y34146639D01*
X26127000Y38254305D01*
X26259408Y38121665D01*
X26525376Y38011226D01*
X26813361Y38010975D01*
X27079521Y38120950D01*
X27283335Y38324408D01*
X27393774Y38590376D01*
X27394025Y38878361D01*
X27284050Y39144521D01*
X27080592Y39348335D01*
X26814624Y39458774D01*
X26526639Y39459025D01*
X26260479Y39349050D01*
X26127000Y39215804D01*
X26127000Y40254569D01*
X36395400Y40254569D01*
X36395400Y39895031D01*
X36490140Y39418743D01*
X36759935Y39014966D01*
X37163712Y38745171D01*
X37640000Y38650431D01*
X38116288Y38745171D01*
X38520065Y39014966D01*
X38789860Y39418743D01*
X38884600Y39895031D01*
X38884600Y40254569D01*
X38935400Y40254569D01*
X38935400Y39895031D01*
X39030140Y39418743D01*
X39299935Y39014966D01*
X39703712Y38745171D01*
X40180000Y38650431D01*
X40656288Y38745171D01*
X41060065Y39014966D01*
X41329860Y39418743D01*
X41424600Y39895031D01*
X41424600Y40254569D01*
X41329860Y40730857D01*
X41060065Y41134634D01*
X40656288Y41404429D01*
X40180000Y41499169D01*
X39703712Y41404429D01*
X39299935Y41134634D01*
X39030140Y40730857D01*
X38935400Y40254569D01*
X38884600Y40254569D01*
X38789860Y40730857D01*
X38520065Y41134634D01*
X38116288Y41404429D01*
X37640000Y41499169D01*
X37163712Y41404429D01*
X36759935Y41134634D01*
X36490140Y40730857D01*
X36395400Y40254569D01*
X26127000Y40254569D01*
X26127000Y45576639D01*
X39915975Y45576639D01*
X40025950Y45310479D01*
X40229408Y45106665D01*
X40495376Y44996226D01*
X40783361Y44995975D01*
X41049521Y45105950D01*
X41253335Y45309408D01*
X41363774Y45575376D01*
X41364025Y45863361D01*
X41254050Y46129521D01*
X41050592Y46333335D01*
X40784624Y46443774D01*
X40496639Y46444025D01*
X40230479Y46334050D01*
X40026665Y46130592D01*
X39916226Y45864624D01*
X39915975Y45576639D01*
X26127000Y45576639D01*
X26127000Y49176997D01*
X30868718Y49176997D01*
X31116499Y48577320D01*
X31574907Y48118112D01*
X32174151Y47869284D01*
X32823003Y47868718D01*
X33422680Y48116499D01*
X33881888Y48574907D01*
X34130716Y49174151D01*
X34130901Y49386639D01*
X39915975Y49386639D01*
X40025950Y49120479D01*
X40229408Y48916665D01*
X40495376Y48806226D01*
X40783361Y48805975D01*
X41049521Y48915950D01*
X41253335Y49119408D01*
X41363774Y49385376D01*
X41364025Y49673361D01*
X41254050Y49939521D01*
X41050592Y50143335D01*
X40784624Y50253774D01*
X40496639Y50254025D01*
X40230479Y50144050D01*
X40026665Y49940592D01*
X39916226Y49674624D01*
X39915975Y49386639D01*
X34130901Y49386639D01*
X34131282Y49823003D01*
X33883501Y50422680D01*
X33425093Y50881888D01*
X32825849Y51130716D01*
X32176997Y51131282D01*
X31577320Y50883501D01*
X31118112Y50425093D01*
X30869284Y49825849D01*
X30868718Y49176997D01*
X26127000Y49176997D01*
X26127000Y52986997D01*
X26258718Y52986997D01*
X26506499Y52387320D01*
X26964907Y51928112D01*
X27564151Y51679284D01*
X28213003Y51678718D01*
X28812680Y51926499D01*
X29271888Y52384907D01*
X29520716Y52984151D01*
X29520901Y53196639D01*
X39915975Y53196639D01*
X40025950Y52930479D01*
X40229408Y52726665D01*
X40495376Y52616226D01*
X40783361Y52615975D01*
X41049521Y52725950D01*
X41253335Y52929408D01*
X41363774Y53195376D01*
X41364025Y53483361D01*
X41254050Y53749521D01*
X41050592Y53953335D01*
X40784624Y54063774D01*
X40496639Y54064025D01*
X40230479Y53954050D01*
X40026665Y53750592D01*
X39916226Y53484624D01*
X39915975Y53196639D01*
X29520901Y53196639D01*
X29521282Y53633003D01*
X29273501Y54232680D01*
X28815093Y54691888D01*
X28215849Y54940716D01*
X27566997Y54941282D01*
X26967320Y54693501D01*
X26508112Y54235093D01*
X26259284Y53635849D01*
X26258718Y52986997D01*
X26127000Y52986997D01*
X26127000Y62254569D01*
X36345400Y62254569D01*
X36345400Y61895031D01*
X36440140Y61418743D01*
X36709935Y61014966D01*
X37113712Y60745171D01*
X37590000Y60650431D01*
X38066288Y60745171D01*
X38470065Y61014966D01*
X38739860Y61418743D01*
X38834600Y61895031D01*
X38834600Y62254569D01*
X38885400Y62254569D01*
X38885400Y61895031D01*
X38980140Y61418743D01*
X39249935Y61014966D01*
X39653712Y60745171D01*
X40130000Y60650431D01*
X40606288Y60745171D01*
X40713247Y60816639D01*
X41820975Y60816639D01*
X41930950Y60550479D01*
X42134408Y60346665D01*
X42400376Y60236226D01*
X42688361Y60235975D01*
X42954521Y60345950D01*
X43158335Y60549408D01*
X43268774Y60815376D01*
X43269025Y61103361D01*
X43159050Y61369521D01*
X42955592Y61573335D01*
X42689624Y61683774D01*
X42401639Y61684025D01*
X42135479Y61574050D01*
X41931665Y61370592D01*
X41821226Y61104624D01*
X41820975Y60816639D01*
X40713247Y60816639D01*
X41010065Y61014966D01*
X41279860Y61418743D01*
X41374600Y61895031D01*
X41374600Y62254569D01*
X41279860Y62730857D01*
X41010065Y63134634D01*
X40606288Y63404429D01*
X40130000Y63499169D01*
X39653712Y63404429D01*
X39249935Y63134634D01*
X38980140Y62730857D01*
X38885400Y62254569D01*
X38834600Y62254569D01*
X38739860Y62730857D01*
X38470065Y63134634D01*
X38066288Y63404429D01*
X37590000Y63499169D01*
X37113712Y63404429D01*
X36709935Y63134634D01*
X36440140Y62730857D01*
X36345400Y62254569D01*
X26127000Y62254569D01*
X26127000Y65896639D01*
X41185975Y65896639D01*
X41295950Y65630479D01*
X41499408Y65426665D01*
X41765376Y65316226D01*
X42053361Y65315975D01*
X42319521Y65425950D01*
X42523335Y65629408D01*
X42633774Y65895376D01*
X42634025Y66183361D01*
X42524050Y66449521D01*
X42320592Y66653335D01*
X42054624Y66763774D01*
X41766639Y66764025D01*
X41500479Y66654050D01*
X41296665Y66450592D01*
X41186226Y66184624D01*
X41185975Y65896639D01*
X26127000Y65896639D01*
X26127000Y71176997D01*
X30868718Y71176997D01*
X31116499Y70577320D01*
X31574907Y70118112D01*
X32174151Y69869284D01*
X32823003Y69868718D01*
X33422680Y70116499D01*
X33881888Y70574907D01*
X34048701Y70976639D01*
X39915975Y70976639D01*
X40025950Y70710479D01*
X40229408Y70506665D01*
X40495376Y70396226D01*
X40783361Y70395975D01*
X41049521Y70505950D01*
X41253335Y70709408D01*
X41363774Y70975376D01*
X41364025Y71263361D01*
X41254050Y71529521D01*
X41050592Y71733335D01*
X40784624Y71843774D01*
X40496639Y71844025D01*
X40230479Y71734050D01*
X40026665Y71530592D01*
X39916226Y71264624D01*
X39915975Y70976639D01*
X34048701Y70976639D01*
X34130716Y71174151D01*
X34131282Y71823003D01*
X33883501Y72422680D01*
X33425093Y72881888D01*
X32825849Y73130716D01*
X32176997Y73131282D01*
X31577320Y72883501D01*
X31118112Y72425093D01*
X30869284Y71825849D01*
X30868718Y71176997D01*
X26127000Y71176997D01*
X26127000Y74986997D01*
X26258718Y74986997D01*
X26506499Y74387320D01*
X26964907Y73928112D01*
X27564151Y73679284D01*
X28213003Y73678718D01*
X28812680Y73926499D01*
X29271888Y74384907D01*
X29520716Y74984151D01*
X29521282Y75633003D01*
X29346240Y76056639D01*
X39915975Y76056639D01*
X40025950Y75790479D01*
X40229408Y75586665D01*
X40495376Y75476226D01*
X40783361Y75475975D01*
X41049521Y75585950D01*
X41253335Y75789408D01*
X41363774Y76055376D01*
X41364025Y76343361D01*
X41254050Y76609521D01*
X41050592Y76813335D01*
X40784624Y76923774D01*
X40496639Y76924025D01*
X40230479Y76814050D01*
X40026665Y76610592D01*
X39916226Y76344624D01*
X39915975Y76056639D01*
X29346240Y76056639D01*
X29273501Y76232680D01*
X28815093Y76691888D01*
X28215849Y76940716D01*
X27566997Y76941282D01*
X26967320Y76693501D01*
X26508112Y76235093D01*
X26259284Y75635849D01*
X26258718Y74986997D01*
X26127000Y74986997D01*
X26127000Y77624305D01*
X26259408Y77491665D01*
X26525376Y77381226D01*
X26813361Y77380975D01*
X27079521Y77490950D01*
X27283335Y77694408D01*
X27393774Y77960376D01*
X27394025Y78248361D01*
X27284050Y78514521D01*
X27080592Y78718335D01*
X26814624Y78828774D01*
X26526639Y78829025D01*
X26260479Y78719050D01*
X26127000Y78585804D01*
X26127000Y82406639D01*
X31660975Y82406639D01*
X31770950Y82140479D01*
X31974408Y81936665D01*
X32240376Y81826226D01*
X32528361Y81825975D01*
X32794521Y81935950D01*
X32998335Y82139408D01*
X33108774Y82405376D01*
X33109025Y82693361D01*
X32999050Y82959521D01*
X32795592Y83163335D01*
X32529624Y83273774D01*
X32241639Y83274025D01*
X31975479Y83164050D01*
X31771665Y82960592D01*
X31661226Y82694624D01*
X31660975Y82406639D01*
X26127000Y82406639D01*
X26127000Y84254569D01*
X36395400Y84254569D01*
X36395400Y83895031D01*
X36490140Y83418743D01*
X36759935Y83014966D01*
X37163712Y82745171D01*
X37640000Y82650431D01*
X38116288Y82745171D01*
X38520065Y83014966D01*
X38789860Y83418743D01*
X38884600Y83895031D01*
X38884600Y84254569D01*
X38935400Y84254569D01*
X38935400Y83895031D01*
X39030140Y83418743D01*
X39299935Y83014966D01*
X39703712Y82745171D01*
X40180000Y82650431D01*
X40656288Y82745171D01*
X41060065Y83014966D01*
X41329860Y83418743D01*
X41424600Y83895031D01*
X41424600Y84254569D01*
X41329860Y84730857D01*
X41060065Y85134634D01*
X40656288Y85404429D01*
X40180000Y85499169D01*
X39703712Y85404429D01*
X39299935Y85134634D01*
X39030140Y84730857D01*
X38935400Y84254569D01*
X38884600Y84254569D01*
X38789860Y84730857D01*
X38520065Y85134634D01*
X38116288Y85404429D01*
X37640000Y85499169D01*
X37163712Y85404429D01*
X36759935Y85134634D01*
X36490140Y84730857D01*
X36395400Y84254569D01*
X26127000Y84254569D01*
X26127000Y88121639D01*
X41185975Y88121639D01*
X41295950Y87855479D01*
X41499408Y87651665D01*
X41765376Y87541226D01*
X42053361Y87540975D01*
X42319521Y87650950D01*
X42523335Y87854408D01*
X42633774Y88120376D01*
X42634025Y88408361D01*
X42524050Y88674521D01*
X42320592Y88878335D01*
X42054624Y88988774D01*
X41766639Y88989025D01*
X41500479Y88879050D01*
X41296665Y88675592D01*
X41186226Y88409624D01*
X41185975Y88121639D01*
X26127000Y88121639D01*
X26127000Y93176997D01*
X30868718Y93176997D01*
X31116499Y92577320D01*
X31574907Y92118112D01*
X32174151Y91869284D01*
X32823003Y91868718D01*
X33422680Y92116499D01*
X33881888Y92574907D01*
X34130716Y93174151D01*
X34130739Y93201639D01*
X39915975Y93201639D01*
X40025950Y92935479D01*
X40229408Y92731665D01*
X40495376Y92621226D01*
X40783361Y92620975D01*
X41049521Y92730950D01*
X41253335Y92934408D01*
X41363774Y93200376D01*
X41364025Y93488361D01*
X41254050Y93754521D01*
X41050592Y93958335D01*
X40784624Y94068774D01*
X40496639Y94069025D01*
X40230479Y93959050D01*
X40026665Y93755592D01*
X39916226Y93489624D01*
X39915975Y93201639D01*
X34130739Y93201639D01*
X34131282Y93823003D01*
X33883501Y94422680D01*
X33425093Y94881888D01*
X32825849Y95130716D01*
X32176997Y95131282D01*
X31577320Y94883501D01*
X31118112Y94425093D01*
X30869284Y93825849D01*
X30868718Y93176997D01*
X26127000Y93176997D01*
X26127000Y96986997D01*
X26258718Y96986997D01*
X26506499Y96387320D01*
X26964907Y95928112D01*
X27564151Y95679284D01*
X28213003Y95678718D01*
X28812680Y95926499D01*
X29271888Y96384907D01*
X29520716Y96984151D01*
X29520739Y97011639D01*
X39915975Y97011639D01*
X40025950Y96745479D01*
X40229408Y96541665D01*
X40495376Y96431226D01*
X40783361Y96430975D01*
X41049521Y96540950D01*
X41253335Y96744408D01*
X41363774Y97010376D01*
X41364025Y97298361D01*
X41254050Y97564521D01*
X41050592Y97768335D01*
X40784624Y97878774D01*
X40496639Y97879025D01*
X40230479Y97769050D01*
X40026665Y97565592D01*
X39916226Y97299624D01*
X39915975Y97011639D01*
X29520739Y97011639D01*
X29521282Y97633003D01*
X29273501Y98232680D01*
X28815093Y98691888D01*
X28215849Y98940716D01*
X27566997Y98941282D01*
X26967320Y98693501D01*
X26508112Y98235093D01*
X26259284Y97635849D01*
X26258718Y96986997D01*
X26127000Y96986997D01*
X26127000Y99544000D01*
X43373000Y99544000D01*
X43373000Y63446628D01*
M02*
