G04 #@! TF.FileFunction,Legend,Bot*
%FSLAX46Y46*%
G04 Gerber Fmt 4.6, Leading zero omitted, Abs format (unit mm)*
G04 Created by KiCad (PCBNEW 4.0.2+dfsg1-stable) date Tue 05 Jun 2018 02:18:01 AM EDT*
%MOMM*%
G01*
G04 APERTURE LIST*
%ADD10C,0.150000*%
%ADD11C,0.120000*%
G04 APERTURE END LIST*
D10*
X52799905Y29590333D02*
X52323714Y29590333D01*
X52895143Y29304619D02*
X52561810Y30304619D01*
X52228476Y29304619D01*
X51466571Y29971286D02*
X51466571Y28971286D01*
X51466571Y29352238D02*
X51561809Y29304619D01*
X51752286Y29304619D01*
X51847524Y29352238D01*
X51895143Y29399857D01*
X51942762Y29495095D01*
X51942762Y29780810D01*
X51895143Y29876048D01*
X51847524Y29923667D01*
X51752286Y29971286D01*
X51561809Y29971286D01*
X51466571Y29923667D01*
X50561809Y29971286D02*
X50561809Y29304619D01*
X50990381Y29971286D02*
X50990381Y29447476D01*
X50942762Y29352238D01*
X50847524Y29304619D01*
X50704666Y29304619D01*
X50609428Y29352238D01*
X50561809Y29399857D01*
X49657047Y29304619D02*
X49657047Y29828429D01*
X49704666Y29923667D01*
X49799904Y29971286D01*
X49990381Y29971286D01*
X50085619Y29923667D01*
X49657047Y29352238D02*
X49752285Y29304619D01*
X49990381Y29304619D01*
X50085619Y29352238D01*
X50133238Y29447476D01*
X50133238Y29542714D01*
X50085619Y29637952D01*
X49990381Y29685571D01*
X49752285Y29685571D01*
X49657047Y29733190D01*
X49180857Y29304619D02*
X49180857Y30304619D01*
X48799904Y30304619D01*
X48704666Y30257000D01*
X48657047Y30209381D01*
X48609428Y30114143D01*
X48609428Y29971286D01*
X48657047Y29876048D01*
X48704666Y29828429D01*
X48799904Y29780810D01*
X49180857Y29780810D01*
X48180857Y29304619D02*
X48180857Y29971286D01*
X48180857Y30304619D02*
X48228476Y30257000D01*
X48180857Y30209381D01*
X48133238Y30257000D01*
X48180857Y30304619D01*
X48180857Y30209381D01*
X47276095Y29352238D02*
X47371333Y29304619D01*
X47561810Y29304619D01*
X47657048Y29352238D01*
X47704667Y29399857D01*
X47752286Y29495095D01*
X47752286Y29780810D01*
X47704667Y29876048D01*
X47657048Y29923667D01*
X47561810Y29971286D01*
X47371333Y29971286D01*
X47276095Y29923667D01*
X52014191Y27754619D02*
X52014191Y28754619D01*
X51633238Y28754619D01*
X51538000Y28707000D01*
X51490381Y28659381D01*
X51442762Y28564143D01*
X51442762Y28421286D01*
X51490381Y28326048D01*
X51538000Y28278429D01*
X51633238Y28230810D01*
X52014191Y28230810D01*
X50871334Y27754619D02*
X50966572Y27802238D01*
X51014191Y27849857D01*
X51061810Y27945095D01*
X51061810Y28230810D01*
X51014191Y28326048D01*
X50966572Y28373667D01*
X50871334Y28421286D01*
X50728476Y28421286D01*
X50633238Y28373667D01*
X50585619Y28326048D01*
X50538000Y28230810D01*
X50538000Y27945095D01*
X50585619Y27849857D01*
X50633238Y27802238D01*
X50728476Y27754619D01*
X50871334Y27754619D01*
X50204667Y28421286D02*
X50014191Y27754619D01*
X49823714Y28230810D01*
X49633238Y27754619D01*
X49442762Y28421286D01*
X48680857Y27802238D02*
X48776095Y27754619D01*
X48966572Y27754619D01*
X49061810Y27802238D01*
X49109429Y27897476D01*
X49109429Y28278429D01*
X49061810Y28373667D01*
X48966572Y28421286D01*
X48776095Y28421286D01*
X48680857Y28373667D01*
X48633238Y28278429D01*
X48633238Y28183190D01*
X49109429Y28087952D01*
X48204667Y27754619D02*
X48204667Y28421286D01*
X48204667Y28230810D02*
X48157048Y28326048D01*
X48109429Y28373667D01*
X48014191Y28421286D01*
X47918952Y28421286D01*
X52109428Y26204619D02*
X52442762Y26680810D01*
X52680857Y26204619D02*
X52680857Y27204619D01*
X52299904Y27204619D01*
X52204666Y27157000D01*
X52157047Y27109381D01*
X52109428Y27014143D01*
X52109428Y26871286D01*
X52157047Y26776048D01*
X52204666Y26728429D01*
X52299904Y26680810D01*
X52680857Y26680810D01*
X51299904Y26252238D02*
X51395142Y26204619D01*
X51585619Y26204619D01*
X51680857Y26252238D01*
X51728476Y26347476D01*
X51728476Y26728429D01*
X51680857Y26823667D01*
X51585619Y26871286D01*
X51395142Y26871286D01*
X51299904Y26823667D01*
X51252285Y26728429D01*
X51252285Y26633190D01*
X51728476Y26537952D01*
X50918952Y26871286D02*
X50680857Y26204619D01*
X50442761Y26871286D01*
X48871332Y27204619D02*
X49061809Y27204619D01*
X49157047Y27157000D01*
X49204666Y27109381D01*
X49299904Y26966524D01*
X49347523Y26776048D01*
X49347523Y26395095D01*
X49299904Y26299857D01*
X49252285Y26252238D01*
X49157047Y26204619D01*
X48966570Y26204619D01*
X48871332Y26252238D01*
X48823713Y26299857D01*
X48776094Y26395095D01*
X48776094Y26633190D01*
X48823713Y26728429D01*
X48871332Y26776048D01*
X48966570Y26823667D01*
X49157047Y26823667D01*
X49252285Y26776048D01*
X49299904Y26728429D01*
X49347523Y26633190D01*
X48347523Y26299857D02*
X48299904Y26252238D01*
X48347523Y26204619D01*
X48395142Y26252238D01*
X48347523Y26299857D01*
X48347523Y26204619D01*
X47680857Y27204619D02*
X47585618Y27204619D01*
X47490380Y27157000D01*
X47442761Y27109381D01*
X47395142Y27014143D01*
X47347523Y26823667D01*
X47347523Y26585571D01*
X47395142Y26395095D01*
X47442761Y26299857D01*
X47490380Y26252238D01*
X47585618Y26204619D01*
X47680857Y26204619D01*
X47776095Y26252238D01*
X47823714Y26299857D01*
X47871333Y26395095D01*
X47918952Y26585571D01*
X47918952Y26823667D01*
X47871333Y27014143D01*
X47823714Y27109381D01*
X47776095Y27157000D01*
X47680857Y27204619D01*
X57871334Y25607000D02*
X57966572Y25654619D01*
X58109429Y25654619D01*
X58252287Y25607000D01*
X58347525Y25511762D01*
X58395144Y25416524D01*
X58442763Y25226048D01*
X58442763Y25083190D01*
X58395144Y24892714D01*
X58347525Y24797476D01*
X58252287Y24702238D01*
X58109429Y24654619D01*
X58014191Y24654619D01*
X57871334Y24702238D01*
X57823715Y24749857D01*
X57823715Y25083190D01*
X58014191Y25083190D01*
X57252287Y24654619D02*
X57347525Y24702238D01*
X57395144Y24749857D01*
X57442763Y24845095D01*
X57442763Y25130810D01*
X57395144Y25226048D01*
X57347525Y25273667D01*
X57252287Y25321286D01*
X57109429Y25321286D01*
X57014191Y25273667D01*
X56966572Y25226048D01*
X56918953Y25130810D01*
X56918953Y24845095D01*
X56966572Y24749857D01*
X57014191Y24702238D01*
X57109429Y24654619D01*
X57252287Y24654619D01*
X56347525Y24654619D02*
X56442763Y24702238D01*
X56490382Y24749857D01*
X56538001Y24845095D01*
X56538001Y25130810D01*
X56490382Y25226048D01*
X56442763Y25273667D01*
X56347525Y25321286D01*
X56204667Y25321286D01*
X56109429Y25273667D01*
X56061810Y25226048D01*
X56014191Y25130810D01*
X56014191Y24845095D01*
X56061810Y24749857D01*
X56109429Y24702238D01*
X56204667Y24654619D01*
X56347525Y24654619D01*
X55157048Y24654619D02*
X55157048Y25654619D01*
X55157048Y24702238D02*
X55252286Y24654619D01*
X55442763Y24654619D01*
X55538001Y24702238D01*
X55585620Y24749857D01*
X55633239Y24845095D01*
X55633239Y25130810D01*
X55585620Y25226048D01*
X55538001Y25273667D01*
X55442763Y25321286D01*
X55252286Y25321286D01*
X55157048Y25273667D01*
X54823715Y25321286D02*
X54442763Y25321286D01*
X54680858Y25654619D02*
X54680858Y24797476D01*
X54633239Y24702238D01*
X54538001Y24654619D01*
X54442763Y24654619D01*
X54109429Y24654619D02*
X54109429Y25321286D01*
X54109429Y25654619D02*
X54157048Y25607000D01*
X54109429Y25559381D01*
X54061810Y25607000D01*
X54109429Y25654619D01*
X54109429Y25559381D01*
X53633239Y24654619D02*
X53633239Y25321286D01*
X53633239Y25226048D02*
X53585620Y25273667D01*
X53490382Y25321286D01*
X53347524Y25321286D01*
X53252286Y25273667D01*
X53204667Y25178429D01*
X53204667Y24654619D01*
X53204667Y25178429D02*
X53157048Y25273667D01*
X53061810Y25321286D01*
X52918953Y25321286D01*
X52823715Y25273667D01*
X52776096Y25178429D01*
X52776096Y24654619D01*
X51918953Y24702238D02*
X52014191Y24654619D01*
X52204668Y24654619D01*
X52299906Y24702238D01*
X52347525Y24797476D01*
X52347525Y25178429D01*
X52299906Y25273667D01*
X52204668Y25321286D01*
X52014191Y25321286D01*
X51918953Y25273667D01*
X51871334Y25178429D01*
X51871334Y25083190D01*
X52347525Y24987952D01*
X50680858Y24654619D02*
X50680858Y25654619D01*
X50442763Y25654619D01*
X50299905Y25607000D01*
X50204667Y25511762D01*
X50157048Y25416524D01*
X50109429Y25226048D01*
X50109429Y25083190D01*
X50157048Y24892714D01*
X50204667Y24797476D01*
X50299905Y24702238D01*
X50442763Y24654619D01*
X50680858Y24654619D01*
X49299905Y24702238D02*
X49395143Y24654619D01*
X49585620Y24654619D01*
X49680858Y24702238D01*
X49728477Y24797476D01*
X49728477Y25178429D01*
X49680858Y25273667D01*
X49585620Y25321286D01*
X49395143Y25321286D01*
X49299905Y25273667D01*
X49252286Y25178429D01*
X49252286Y25083190D01*
X49728477Y24987952D01*
X48918953Y25321286D02*
X48680858Y24654619D01*
X48442762Y25321286D01*
X47680857Y24702238D02*
X47776095Y24654619D01*
X47966572Y24654619D01*
X48061810Y24702238D01*
X48109429Y24797476D01*
X48109429Y25178429D01*
X48061810Y25273667D01*
X47966572Y25321286D01*
X47776095Y25321286D01*
X47680857Y25273667D01*
X47633238Y25178429D01*
X47633238Y25083190D01*
X48109429Y24987952D01*
X47061810Y24654619D02*
X47157048Y24702238D01*
X47204667Y24797476D01*
X47204667Y25654619D01*
X46538000Y24654619D02*
X46633238Y24702238D01*
X46680857Y24749857D01*
X46728476Y24845095D01*
X46728476Y25130810D01*
X46680857Y25226048D01*
X46633238Y25273667D01*
X46538000Y25321286D01*
X46395142Y25321286D01*
X46299904Y25273667D01*
X46252285Y25226048D01*
X46204666Y25130810D01*
X46204666Y24845095D01*
X46252285Y24749857D01*
X46299904Y24702238D01*
X46395142Y24654619D01*
X46538000Y24654619D01*
X45776095Y25321286D02*
X45776095Y24321286D01*
X45776095Y25273667D02*
X45680857Y25321286D01*
X45490380Y25321286D01*
X45395142Y25273667D01*
X45347523Y25226048D01*
X45299904Y25130810D01*
X45299904Y24845095D01*
X45347523Y24749857D01*
X45395142Y24702238D01*
X45490380Y24654619D01*
X45680857Y24654619D01*
X45776095Y24702238D01*
X44871333Y24654619D02*
X44871333Y25321286D01*
X44871333Y25226048D02*
X44823714Y25273667D01*
X44728476Y25321286D01*
X44585618Y25321286D01*
X44490380Y25273667D01*
X44442761Y25178429D01*
X44442761Y24654619D01*
X44442761Y25178429D02*
X44395142Y25273667D01*
X44299904Y25321286D01*
X44157047Y25321286D01*
X44061809Y25273667D01*
X44014190Y25178429D01*
X44014190Y24654619D01*
X43157047Y24702238D02*
X43252285Y24654619D01*
X43442762Y24654619D01*
X43538000Y24702238D01*
X43585619Y24797476D01*
X43585619Y25178429D01*
X43538000Y25273667D01*
X43442762Y25321286D01*
X43252285Y25321286D01*
X43157047Y25273667D01*
X43109428Y25178429D01*
X43109428Y25083190D01*
X43585619Y24987952D01*
X42680857Y25321286D02*
X42680857Y24654619D01*
X42680857Y25226048D02*
X42633238Y25273667D01*
X42538000Y25321286D01*
X42395142Y25321286D01*
X42299904Y25273667D01*
X42252285Y25178429D01*
X42252285Y24654619D01*
X41918952Y25321286D02*
X41538000Y25321286D01*
X41776095Y25654619D02*
X41776095Y24797476D01*
X41728476Y24702238D01*
X41633238Y24654619D01*
X41538000Y24654619D01*
X65436334Y4418333D02*
X64960143Y4418333D01*
X65531572Y4132619D02*
X65198239Y5132619D01*
X64864905Y4132619D01*
X63960143Y4227857D02*
X64007762Y4180238D01*
X64150619Y4132619D01*
X64245857Y4132619D01*
X64388715Y4180238D01*
X64483953Y4275476D01*
X64531572Y4370714D01*
X64579191Y4561190D01*
X64579191Y4704048D01*
X64531572Y4894524D01*
X64483953Y4989762D01*
X64388715Y5085000D01*
X64245857Y5132619D01*
X64150619Y5132619D01*
X64007762Y5085000D01*
X63960143Y5037381D01*
X62769667Y4132619D02*
X62769667Y5132619D01*
X62388714Y5132619D01*
X62293476Y5085000D01*
X62245857Y5037381D01*
X62198238Y4942143D01*
X62198238Y4799286D01*
X62245857Y4704048D01*
X62293476Y4656429D01*
X62388714Y4608810D01*
X62769667Y4608810D01*
X61626810Y4132619D02*
X61722048Y4180238D01*
X61769667Y4227857D01*
X61817286Y4323095D01*
X61817286Y4608810D01*
X61769667Y4704048D01*
X61722048Y4751667D01*
X61626810Y4799286D01*
X61483952Y4799286D01*
X61388714Y4751667D01*
X61341095Y4704048D01*
X61293476Y4608810D01*
X61293476Y4323095D01*
X61341095Y4227857D01*
X61388714Y4180238D01*
X61483952Y4132619D01*
X61626810Y4132619D01*
X60960143Y4799286D02*
X60769667Y4132619D01*
X60579190Y4608810D01*
X60388714Y4132619D01*
X60198238Y4799286D01*
X59436333Y4180238D02*
X59531571Y4132619D01*
X59722048Y4132619D01*
X59817286Y4180238D01*
X59864905Y4275476D01*
X59864905Y4656429D01*
X59817286Y4751667D01*
X59722048Y4799286D01*
X59531571Y4799286D01*
X59436333Y4751667D01*
X59388714Y4656429D01*
X59388714Y4561190D01*
X59864905Y4465952D01*
X58960143Y4132619D02*
X58960143Y4799286D01*
X58960143Y4608810D02*
X58912524Y4704048D01*
X58864905Y4751667D01*
X58769667Y4799286D01*
X58674428Y4799286D01*
X65269667Y2868333D02*
X64793476Y2868333D01*
X65364905Y2582619D02*
X65031572Y3582619D01*
X64698238Y2582619D01*
X64460143Y3249286D02*
X64222048Y2582619D01*
X63983952Y3249286D01*
X63174428Y2582619D02*
X63174428Y3106429D01*
X63222047Y3201667D01*
X63317285Y3249286D01*
X63507762Y3249286D01*
X63603000Y3201667D01*
X63174428Y2630238D02*
X63269666Y2582619D01*
X63507762Y2582619D01*
X63603000Y2630238D01*
X63650619Y2725476D01*
X63650619Y2820714D01*
X63603000Y2915952D01*
X63507762Y2963571D01*
X63269666Y2963571D01*
X63174428Y3011190D01*
X62698238Y2582619D02*
X62698238Y3249286D01*
X62698238Y3582619D02*
X62745857Y3535000D01*
X62698238Y3487381D01*
X62650619Y3535000D01*
X62698238Y3582619D01*
X62698238Y3487381D01*
X62079191Y2582619D02*
X62174429Y2630238D01*
X62222048Y2725476D01*
X62222048Y3582619D01*
X61269666Y2582619D02*
X61269666Y3106429D01*
X61317285Y3201667D01*
X61412523Y3249286D01*
X61603000Y3249286D01*
X61698238Y3201667D01*
X61269666Y2630238D02*
X61364904Y2582619D01*
X61603000Y2582619D01*
X61698238Y2630238D01*
X61745857Y2725476D01*
X61745857Y2820714D01*
X61698238Y2915952D01*
X61603000Y2963571D01*
X61364904Y2963571D01*
X61269666Y3011190D01*
X60793476Y2582619D02*
X60793476Y3582619D01*
X60793476Y3201667D02*
X60698238Y3249286D01*
X60507761Y3249286D01*
X60412523Y3201667D01*
X60364904Y3154048D01*
X60317285Y3058810D01*
X60317285Y2773095D01*
X60364904Y2677857D01*
X60412523Y2630238D01*
X60507761Y2582619D01*
X60698238Y2582619D01*
X60793476Y2630238D01*
X59745857Y2582619D02*
X59841095Y2630238D01*
X59888714Y2725476D01*
X59888714Y3582619D01*
X58983951Y2630238D02*
X59079189Y2582619D01*
X59269666Y2582619D01*
X59364904Y2630238D01*
X59412523Y2725476D01*
X59412523Y3106429D01*
X59364904Y3201667D01*
X59269666Y3249286D01*
X59079189Y3249286D01*
X58983951Y3201667D01*
X58936332Y3106429D01*
X58936332Y3011190D01*
X59412523Y2915952D01*
X40750715Y3357619D02*
X40750715Y4357619D01*
X40369762Y4357619D01*
X40274524Y4310000D01*
X40226905Y4262381D01*
X40179286Y4167143D01*
X40179286Y4024286D01*
X40226905Y3929048D01*
X40274524Y3881429D01*
X40369762Y3833810D01*
X40750715Y3833810D01*
X39607858Y3357619D02*
X39703096Y3405238D01*
X39750715Y3452857D01*
X39798334Y3548095D01*
X39798334Y3833810D01*
X39750715Y3929048D01*
X39703096Y3976667D01*
X39607858Y4024286D01*
X39465000Y4024286D01*
X39369762Y3976667D01*
X39322143Y3929048D01*
X39274524Y3833810D01*
X39274524Y3548095D01*
X39322143Y3452857D01*
X39369762Y3405238D01*
X39465000Y3357619D01*
X39607858Y3357619D01*
X38941191Y4024286D02*
X38750715Y3357619D01*
X38560238Y3833810D01*
X38369762Y3357619D01*
X38179286Y4024286D01*
X37417381Y3405238D02*
X37512619Y3357619D01*
X37703096Y3357619D01*
X37798334Y3405238D01*
X37845953Y3500476D01*
X37845953Y3881429D01*
X37798334Y3976667D01*
X37703096Y4024286D01*
X37512619Y4024286D01*
X37417381Y3976667D01*
X37369762Y3881429D01*
X37369762Y3786190D01*
X37845953Y3690952D01*
X36941191Y3357619D02*
X36941191Y4024286D01*
X36941191Y3833810D02*
X36893572Y3929048D01*
X36845953Y3976667D01*
X36750715Y4024286D01*
X36655476Y4024286D01*
X35369762Y4357619D02*
X35179285Y4357619D01*
X35084047Y4310000D01*
X34988809Y4214762D01*
X34941190Y4024286D01*
X34941190Y3690952D01*
X34988809Y3500476D01*
X35084047Y3405238D01*
X35179285Y3357619D01*
X35369762Y3357619D01*
X35465000Y3405238D01*
X35560238Y3500476D01*
X35607857Y3690952D01*
X35607857Y4024286D01*
X35560238Y4214762D01*
X35465000Y4310000D01*
X35369762Y4357619D01*
X34512619Y3357619D02*
X34512619Y4357619D01*
X34417381Y3738571D02*
X34131666Y3357619D01*
X34131666Y4024286D02*
X34512619Y3643333D01*
X52331667Y6199238D02*
X52188810Y6151619D01*
X51950714Y6151619D01*
X51855476Y6199238D01*
X51807857Y6246857D01*
X51760238Y6342095D01*
X51760238Y6437333D01*
X51807857Y6532571D01*
X51855476Y6580190D01*
X51950714Y6627810D01*
X52141191Y6675429D01*
X52236429Y6723048D01*
X52284048Y6770667D01*
X52331667Y6865905D01*
X52331667Y6961143D01*
X52284048Y7056381D01*
X52236429Y7104000D01*
X52141191Y7151619D01*
X51903095Y7151619D01*
X51760238Y7104000D01*
X51474524Y6818286D02*
X51093572Y6818286D01*
X51331667Y7151619D02*
X51331667Y6294476D01*
X51284048Y6199238D01*
X51188810Y6151619D01*
X51093572Y6151619D01*
X50331666Y6151619D02*
X50331666Y6675429D01*
X50379285Y6770667D01*
X50474523Y6818286D01*
X50665000Y6818286D01*
X50760238Y6770667D01*
X50331666Y6199238D02*
X50426904Y6151619D01*
X50665000Y6151619D01*
X50760238Y6199238D01*
X50807857Y6294476D01*
X50807857Y6389714D01*
X50760238Y6484952D01*
X50665000Y6532571D01*
X50426904Y6532571D01*
X50331666Y6580190D01*
X49998333Y6818286D02*
X49617381Y6818286D01*
X49855476Y7151619D02*
X49855476Y6294476D01*
X49807857Y6199238D01*
X49712619Y6151619D01*
X49617381Y6151619D01*
X48855475Y6818286D02*
X48855475Y6151619D01*
X49284047Y6818286D02*
X49284047Y6294476D01*
X49236428Y6199238D01*
X49141190Y6151619D01*
X48998332Y6151619D01*
X48903094Y6199238D01*
X48855475Y6246857D01*
X48426904Y6199238D02*
X48331666Y6151619D01*
X48141190Y6151619D01*
X48045951Y6199238D01*
X47998332Y6294476D01*
X47998332Y6342095D01*
X48045951Y6437333D01*
X48141190Y6484952D01*
X48284047Y6484952D01*
X48379285Y6532571D01*
X48426904Y6627810D01*
X48426904Y6675429D01*
X48379285Y6770667D01*
X48284047Y6818286D01*
X48141190Y6818286D01*
X48045951Y6770667D01*
D11*
X30300000Y86800000D02*
X31700000Y86800000D01*
X31700000Y86800000D02*
X31700000Y84000000D01*
X30300000Y86800000D02*
X30300000Y84000000D01*
D10*
X52915000Y3810000D02*
X52915000Y5810000D01*
X52915000Y5810000D02*
X50915000Y5810000D01*
X51765000Y4610000D02*
X51165000Y5210000D01*
X51765000Y4210000D02*
X50765000Y5210000D01*
X51765000Y3810000D02*
X50365000Y5210000D01*
X51365000Y3810000D02*
G75*
G03X51365000Y3810000I-1200000J0D01*
G01*
X48565000Y2410000D02*
X48565000Y5210000D01*
X48565000Y5210000D02*
X51765000Y5210000D01*
X51765000Y5210000D02*
X51765000Y2410000D01*
X51765000Y2410000D02*
X48565000Y2410000D01*
D11*
X41380000Y3110000D02*
X41380000Y4510000D01*
X41380000Y4510000D02*
X44180000Y4510000D01*
X41380000Y3110000D02*
X44180000Y3110000D01*
X69050000Y86800000D02*
X70450000Y86800000D01*
X70450000Y86800000D02*
X70450000Y84000000D01*
X69050000Y86800000D02*
X69050000Y84000000D01*
X74300000Y80800000D02*
X75700000Y80800000D01*
X75700000Y80800000D02*
X75700000Y78000000D01*
X74300000Y80800000D02*
X74300000Y78000000D01*
X74300000Y42800000D02*
X75700000Y42800000D01*
X75700000Y42800000D02*
X75700000Y40000000D01*
X74300000Y42800000D02*
X74300000Y40000000D01*
X68300000Y36800000D02*
X69700000Y36800000D01*
X69700000Y36800000D02*
X69700000Y34000000D01*
X68300000Y36800000D02*
X68300000Y34000000D01*
X30300000Y36800000D02*
X31700000Y36800000D01*
X31700000Y36800000D02*
X31700000Y34000000D01*
X30300000Y36800000D02*
X30300000Y34000000D01*
X24700000Y43075000D02*
X26100000Y43075000D01*
X26100000Y43075000D02*
X26100000Y40275000D01*
X24700000Y43075000D02*
X24700000Y40275000D01*
X24300000Y80800000D02*
X25700000Y80800000D01*
X25700000Y80800000D02*
X25700000Y78000000D01*
X24300000Y80800000D02*
X24300000Y78000000D01*
X54715000Y3110000D02*
X54715000Y4510000D01*
X54715000Y4510000D02*
X57515000Y4510000D01*
X54715000Y3110000D02*
X57515000Y3110000D01*
D10*
X48369220Y17630140D02*
X48008540Y16159480D01*
X48008540Y16159480D02*
X47729140Y17221200D01*
X47729140Y17221200D02*
X47419260Y16149320D01*
X47419260Y16149320D02*
X47078900Y17599660D01*
X49789080Y16939260D02*
X48999140Y16949420D01*
X48999140Y16949420D02*
X48988980Y16939260D01*
X48988980Y16939260D02*
X48988980Y16949420D01*
X48948340Y17660620D02*
X48948340Y16118840D01*
X49837340Y17670780D02*
X49837340Y16101060D01*
X49837340Y16101060D02*
X49827180Y16111220D01*
X50388520Y17569180D02*
X50739040Y17650460D01*
X50739040Y17650460D02*
X51059080Y17660620D01*
X51059080Y17660620D02*
X51297840Y17459960D01*
X51297840Y17459960D02*
X51328320Y17190720D01*
X51328320Y17190720D02*
X51087020Y16949420D01*
X51087020Y16949420D02*
X50698400Y16819880D01*
X50698400Y16819880D02*
X50518060Y16659860D01*
X50518060Y16659860D02*
X50477420Y16360140D01*
X50477420Y16360140D02*
X50708560Y16139160D01*
X50708560Y16139160D02*
X51028600Y16111220D01*
X51028600Y16111220D02*
X51379120Y16220440D01*
X52417980Y17670780D02*
X52666900Y17650460D01*
X52666900Y17650460D02*
X52908200Y17409160D01*
X52908200Y17409160D02*
X52997100Y16918940D01*
X52997100Y16918940D02*
X52969160Y16570960D01*
X52969160Y16570960D02*
X52768500Y16250920D01*
X52768500Y16250920D02*
X52517040Y16129000D01*
X52517040Y16129000D02*
X52207160Y16200120D01*
X52207160Y16200120D02*
X51988720Y16380460D01*
X51988720Y16380460D02*
X51917600Y16840200D01*
X51917600Y16840200D02*
X51968400Y17249140D01*
X51968400Y17249140D02*
X52077620Y17531080D01*
X52077620Y17531080D02*
X52438300Y17660620D01*
X51818540Y19390360D02*
X52077620Y18829020D01*
X52077620Y18829020D02*
X51539140Y18310860D01*
X51539140Y18310860D02*
X51018440Y18580100D01*
X51018440Y18580100D02*
X50739040Y18420080D01*
X49298860Y18440400D02*
X48968660Y18630900D01*
X48968660Y18630900D02*
X48529240Y18300700D01*
X48529240Y18300700D02*
X48056800Y18790920D01*
X48056800Y18790920D02*
X48338740Y19270980D01*
X48338740Y19270980D02*
X48148240Y19740880D01*
X48148240Y19740880D02*
X47538640Y19928840D01*
X47538640Y19928840D02*
X47538640Y20609560D01*
X47538640Y20609560D02*
X48097440Y20749260D01*
X48097440Y20749260D02*
X48298100Y21320760D01*
X48298100Y21320760D02*
X48028860Y21790660D01*
X48028860Y21790660D02*
X48498760Y22301200D01*
X48498760Y22301200D02*
X49016920Y22039580D01*
X49016920Y22039580D02*
X49486820Y22240240D01*
X49486820Y22240240D02*
X49657000Y22781260D01*
X49657000Y22781260D02*
X50347880Y22799040D01*
X50347880Y22799040D02*
X50558700Y22250400D01*
X50558700Y22250400D02*
X50977800Y22080220D01*
X50977800Y22080220D02*
X51528980Y22349460D01*
X51528980Y22349460D02*
X52047140Y21821140D01*
X52047140Y21821140D02*
X51798220Y21280120D01*
X51798220Y21280120D02*
X51968400Y20800060D01*
X51968400Y20800060D02*
X52517040Y20701000D01*
X52517040Y20701000D02*
X52527200Y19999960D01*
X52527200Y19999960D02*
X51968400Y19799300D01*
X51968400Y19799300D02*
X51828700Y19400520D01*
X49687480Y19420840D02*
X49387760Y19570700D01*
X49387760Y19570700D02*
X49187100Y19768820D01*
X49187100Y19768820D02*
X49037240Y20170140D01*
X49037240Y20170140D02*
X49037240Y20568920D01*
X49037240Y20568920D02*
X49187100Y20919440D01*
X49187100Y20919440D02*
X49639220Y21269960D01*
X49639220Y21269960D02*
X50088800Y21320760D01*
X50088800Y21320760D02*
X50487580Y21219160D01*
X50487580Y21219160D02*
X50888900Y20871180D01*
X50888900Y20871180D02*
X51038760Y20419060D01*
X51038760Y20419060D02*
X50987960Y19921220D01*
X50987960Y19921220D02*
X50739040Y19618960D01*
X50739040Y19618960D02*
X50388520Y19420840D01*
X50388520Y19420840D02*
X50739040Y18420080D01*
X49687480Y19420840D02*
X49288700Y18420080D01*
X31726095Y87177619D02*
X31726095Y88177619D01*
X31488000Y88177619D01*
X31345142Y88130000D01*
X31249904Y88034762D01*
X31202285Y87939524D01*
X31154666Y87749048D01*
X31154666Y87606190D01*
X31202285Y87415714D01*
X31249904Y87320476D01*
X31345142Y87225238D01*
X31488000Y87177619D01*
X31726095Y87177619D01*
X30202285Y87177619D02*
X30773714Y87177619D01*
X30488000Y87177619D02*
X30488000Y88177619D01*
X30583238Y88034762D01*
X30678476Y87939524D01*
X30773714Y87891905D01*
X51379286Y1057619D02*
X51379286Y2057619D01*
X51141191Y2057619D01*
X50998333Y2010000D01*
X50903095Y1914762D01*
X50855476Y1819524D01*
X50807857Y1629048D01*
X50807857Y1486190D01*
X50855476Y1295714D01*
X50903095Y1200476D01*
X50998333Y1105238D01*
X51141191Y1057619D01*
X51379286Y1057619D01*
X49855476Y1057619D02*
X50426905Y1057619D01*
X50141191Y1057619D02*
X50141191Y2057619D01*
X50236429Y1914762D01*
X50331667Y1819524D01*
X50426905Y1771905D01*
X49522143Y2057619D02*
X48855476Y2057619D01*
X49284048Y1057619D01*
X44394286Y1907619D02*
X44394286Y2907619D01*
X44156191Y2907619D01*
X44013333Y2860000D01*
X43918095Y2764762D01*
X43870476Y2669524D01*
X43822857Y2479048D01*
X43822857Y2336190D01*
X43870476Y2145714D01*
X43918095Y2050476D01*
X44013333Y1955238D01*
X44156191Y1907619D01*
X44394286Y1907619D01*
X42870476Y1907619D02*
X43441905Y1907619D01*
X43156191Y1907619D02*
X43156191Y2907619D01*
X43251429Y2764762D01*
X43346667Y2669524D01*
X43441905Y2621905D01*
X42299048Y2479048D02*
X42394286Y2526667D01*
X42441905Y2574286D01*
X42489524Y2669524D01*
X42489524Y2717143D01*
X42441905Y2812381D01*
X42394286Y2860000D01*
X42299048Y2907619D01*
X42108571Y2907619D01*
X42013333Y2860000D01*
X41965714Y2812381D01*
X41918095Y2717143D01*
X41918095Y2669524D01*
X41965714Y2574286D01*
X42013333Y2526667D01*
X42108571Y2479048D01*
X42299048Y2479048D01*
X42394286Y2431429D01*
X42441905Y2383810D01*
X42489524Y2288571D01*
X42489524Y2098095D01*
X42441905Y2002857D01*
X42394286Y1955238D01*
X42299048Y1907619D01*
X42108571Y1907619D01*
X42013333Y1955238D01*
X41965714Y2002857D01*
X41918095Y2098095D01*
X41918095Y2288571D01*
X41965714Y2383810D01*
X42013333Y2431429D01*
X42108571Y2479048D01*
X70334095Y87177619D02*
X70334095Y88177619D01*
X70096000Y88177619D01*
X69953142Y88130000D01*
X69857904Y88034762D01*
X69810285Y87939524D01*
X69762666Y87749048D01*
X69762666Y87606190D01*
X69810285Y87415714D01*
X69857904Y87320476D01*
X69953142Y87225238D01*
X70096000Y87177619D01*
X70334095Y87177619D01*
X69429333Y88177619D02*
X68810285Y88177619D01*
X69143619Y87796667D01*
X69000761Y87796667D01*
X68905523Y87749048D01*
X68857904Y87701429D01*
X68810285Y87606190D01*
X68810285Y87368095D01*
X68857904Y87272857D01*
X68905523Y87225238D01*
X69000761Y87177619D01*
X69286476Y87177619D01*
X69381714Y87225238D01*
X69429333Y87272857D01*
X75795095Y81208619D02*
X75795095Y82208619D01*
X75557000Y82208619D01*
X75414142Y82161000D01*
X75318904Y82065762D01*
X75271285Y81970524D01*
X75223666Y81780048D01*
X75223666Y81637190D01*
X75271285Y81446714D01*
X75318904Y81351476D01*
X75414142Y81256238D01*
X75557000Y81208619D01*
X75795095Y81208619D01*
X74318904Y82208619D02*
X74795095Y82208619D01*
X74842714Y81732429D01*
X74795095Y81780048D01*
X74699857Y81827667D01*
X74461761Y81827667D01*
X74366523Y81780048D01*
X74318904Y81732429D01*
X74271285Y81637190D01*
X74271285Y81399095D01*
X74318904Y81303857D01*
X74366523Y81256238D01*
X74461761Y81208619D01*
X74699857Y81208619D01*
X74795095Y81256238D01*
X74842714Y81303857D01*
X75795095Y43108619D02*
X75795095Y44108619D01*
X75557000Y44108619D01*
X75414142Y44061000D01*
X75318904Y43965762D01*
X75271285Y43870524D01*
X75223666Y43680048D01*
X75223666Y43537190D01*
X75271285Y43346714D01*
X75318904Y43251476D01*
X75414142Y43156238D01*
X75557000Y43108619D01*
X75795095Y43108619D01*
X74890333Y44108619D02*
X74223666Y44108619D01*
X74652238Y43108619D01*
X69699095Y37139619D02*
X69699095Y38139619D01*
X69461000Y38139619D01*
X69318142Y38092000D01*
X69222904Y37996762D01*
X69175285Y37901524D01*
X69127666Y37711048D01*
X69127666Y37568190D01*
X69175285Y37377714D01*
X69222904Y37282476D01*
X69318142Y37187238D01*
X69461000Y37139619D01*
X69699095Y37139619D01*
X68651476Y37139619D02*
X68461000Y37139619D01*
X68365761Y37187238D01*
X68318142Y37234857D01*
X68222904Y37377714D01*
X68175285Y37568190D01*
X68175285Y37949143D01*
X68222904Y38044381D01*
X68270523Y38092000D01*
X68365761Y38139619D01*
X68556238Y38139619D01*
X68651476Y38092000D01*
X68699095Y38044381D01*
X68746714Y37949143D01*
X68746714Y37711048D01*
X68699095Y37615810D01*
X68651476Y37568190D01*
X68556238Y37520571D01*
X68365761Y37520571D01*
X68270523Y37568190D01*
X68222904Y37615810D01*
X68175285Y37711048D01*
X32202286Y37139619D02*
X32202286Y38139619D01*
X31964191Y38139619D01*
X31821333Y38092000D01*
X31726095Y37996762D01*
X31678476Y37901524D01*
X31630857Y37711048D01*
X31630857Y37568190D01*
X31678476Y37377714D01*
X31726095Y37282476D01*
X31821333Y37187238D01*
X31964191Y37139619D01*
X32202286Y37139619D01*
X30678476Y37139619D02*
X31249905Y37139619D01*
X30964191Y37139619D02*
X30964191Y38139619D01*
X31059429Y37996762D01*
X31154667Y37901524D01*
X31249905Y37853905D01*
X29726095Y37139619D02*
X30297524Y37139619D01*
X30011810Y37139619D02*
X30011810Y38139619D01*
X30107048Y37996762D01*
X30202286Y37901524D01*
X30297524Y37853905D01*
X26614286Y43489619D02*
X26614286Y44489619D01*
X26376191Y44489619D01*
X26233333Y44442000D01*
X26138095Y44346762D01*
X26090476Y44251524D01*
X26042857Y44061048D01*
X26042857Y43918190D01*
X26090476Y43727714D01*
X26138095Y43632476D01*
X26233333Y43537238D01*
X26376191Y43489619D01*
X26614286Y43489619D01*
X25090476Y43489619D02*
X25661905Y43489619D01*
X25376191Y43489619D02*
X25376191Y44489619D01*
X25471429Y44346762D01*
X25566667Y44251524D01*
X25661905Y44203905D01*
X24757143Y44489619D02*
X24138095Y44489619D01*
X24471429Y44108667D01*
X24328571Y44108667D01*
X24233333Y44061048D01*
X24185714Y44013429D01*
X24138095Y43918190D01*
X24138095Y43680095D01*
X24185714Y43584857D01*
X24233333Y43537238D01*
X24328571Y43489619D01*
X24614286Y43489619D01*
X24709524Y43537238D01*
X24757143Y43584857D01*
X26233286Y81081619D02*
X26233286Y82081619D01*
X25995191Y82081619D01*
X25852333Y82034000D01*
X25757095Y81938762D01*
X25709476Y81843524D01*
X25661857Y81653048D01*
X25661857Y81510190D01*
X25709476Y81319714D01*
X25757095Y81224476D01*
X25852333Y81129238D01*
X25995191Y81081619D01*
X26233286Y81081619D01*
X24709476Y81081619D02*
X25280905Y81081619D01*
X24995191Y81081619D02*
X24995191Y82081619D01*
X25090429Y81938762D01*
X25185667Y81843524D01*
X25280905Y81795905D01*
X23804714Y82081619D02*
X24280905Y82081619D01*
X24328524Y81605429D01*
X24280905Y81653048D01*
X24185667Y81700667D01*
X23947571Y81700667D01*
X23852333Y81653048D01*
X23804714Y81605429D01*
X23757095Y81510190D01*
X23757095Y81272095D01*
X23804714Y81176857D01*
X23852333Y81129238D01*
X23947571Y81081619D01*
X24185667Y81081619D01*
X24280905Y81129238D01*
X24328524Y81176857D01*
X57729286Y1907619D02*
X57729286Y2907619D01*
X57491191Y2907619D01*
X57348333Y2860000D01*
X57253095Y2764762D01*
X57205476Y2669524D01*
X57157857Y2479048D01*
X57157857Y2336190D01*
X57205476Y2145714D01*
X57253095Y2050476D01*
X57348333Y1955238D01*
X57491191Y1907619D01*
X57729286Y1907619D01*
X56205476Y1907619D02*
X56776905Y1907619D01*
X56491191Y1907619D02*
X56491191Y2907619D01*
X56586429Y2764762D01*
X56681667Y2669524D01*
X56776905Y2621905D01*
X55729286Y1907619D02*
X55538810Y1907619D01*
X55443571Y1955238D01*
X55395952Y2002857D01*
X55300714Y2145714D01*
X55253095Y2336190D01*
X55253095Y2717143D01*
X55300714Y2812381D01*
X55348333Y2860000D01*
X55443571Y2907619D01*
X55634048Y2907619D01*
X55729286Y2860000D01*
X55776905Y2812381D01*
X55824524Y2717143D01*
X55824524Y2479048D01*
X55776905Y2383810D01*
X55729286Y2336190D01*
X55634048Y2288571D01*
X55443571Y2288571D01*
X55348333Y2336190D01*
X55300714Y2383810D01*
X55253095Y2479048D01*
M02*
