G04 #@! TF.FileFunction,Legend,Top*
%FSLAX46Y46*%
G04 Gerber Fmt 4.6, Leading zero omitted, Abs format (unit mm)*
G04 Created by KiCad (PCBNEW 4.0.7) date Sun Dec 10 04:28:40 2017*
%MOMM*%
%LPD*%
G01*
G04 APERTURE LIST*
%ADD10C,0.127000*%
%ADD11C,0.300000*%
%ADD12C,0.200000*%
%ADD13C,0.150000*%
%ADD14C,0.304800*%
%ADD15C,0.152400*%
%ADD16C,0.010000*%
%ADD17C,0.120000*%
G04 APERTURE END LIST*
D10*
D11*
X34988572Y11537143D02*
X36131429Y11537143D01*
X35560000Y12108571D02*
X35560000Y10965714D01*
D12*
X45720000Y10330000D02*
X45720000Y22395000D01*
X19515109Y31559500D02*
G75*
G03X19515109Y31559500I-401609J0D01*
G01*
X44897667Y54991000D02*
G75*
G03X44897667Y54991000I-638167J0D01*
G01*
X70866000Y69088000D02*
X72771000Y69088000D01*
X70866000Y67310000D02*
X70866000Y69088000D01*
D11*
X27368572Y11537143D02*
X28511429Y11537143D01*
X32448572Y11537143D02*
X33591429Y11537143D01*
X37528572Y11537143D02*
X38671429Y11537143D01*
X43878572Y11537143D02*
X45021429Y11537143D01*
X48958572Y11537143D02*
X50101429Y11537143D01*
X54038572Y11537143D02*
X55181429Y11537143D01*
X51498572Y11537143D02*
X52641429Y11537143D01*
X52070000Y12108571D02*
X52070000Y10965714D01*
X46418572Y11537143D02*
X47561429Y11537143D01*
X46990000Y12108571D02*
X46990000Y10965714D01*
X41338572Y11537143D02*
X42481429Y11537143D01*
X41910000Y12108571D02*
X41910000Y10965714D01*
X29908572Y11537143D02*
X31051429Y11537143D01*
X30480000Y12108571D02*
X30480000Y10965714D01*
X24828572Y11537143D02*
X25971429Y11537143D01*
X25400000Y12108571D02*
X25400000Y10965714D01*
D13*
X70048572Y13819119D02*
X69572381Y13819119D01*
X69524762Y13342929D01*
X69572381Y13390548D01*
X69667619Y13438167D01*
X69905715Y13438167D01*
X70000953Y13390548D01*
X70048572Y13342929D01*
X70096191Y13247690D01*
X70096191Y13009595D01*
X70048572Y12914357D01*
X70000953Y12866738D01*
X69905715Y12819119D01*
X69667619Y12819119D01*
X69572381Y12866738D01*
X69524762Y12914357D01*
X70381905Y13819119D02*
X70715238Y12819119D01*
X71048572Y13819119D01*
X71810477Y12819119D02*
X71810477Y13819119D01*
X71810477Y12866738D02*
X71715239Y12819119D01*
X71524762Y12819119D01*
X71429524Y12866738D01*
X71381905Y12914357D01*
X71334286Y13009595D01*
X71334286Y13295310D01*
X71381905Y13390548D01*
X71429524Y13438167D01*
X71524762Y13485786D01*
X71715239Y13485786D01*
X71810477Y13438167D01*
X72715239Y12866738D02*
X72620001Y12819119D01*
X72429524Y12819119D01*
X72334286Y12866738D01*
X72286667Y12914357D01*
X72239048Y13009595D01*
X72239048Y13295310D01*
X72286667Y13390548D01*
X72334286Y13438167D01*
X72429524Y13485786D01*
X72620001Y13485786D01*
X72715239Y13438167D01*
X5278572Y59666119D02*
X4802381Y59666119D01*
X4754762Y59189929D01*
X4802381Y59237548D01*
X4897619Y59285167D01*
X5135715Y59285167D01*
X5230953Y59237548D01*
X5278572Y59189929D01*
X5326191Y59094690D01*
X5326191Y58856595D01*
X5278572Y58761357D01*
X5230953Y58713738D01*
X5135715Y58666119D01*
X4897619Y58666119D01*
X4802381Y58713738D01*
X4754762Y58761357D01*
X5611905Y59666119D02*
X5945238Y58666119D01*
X6278572Y59666119D01*
X7040477Y58666119D02*
X7040477Y59666119D01*
X7040477Y58713738D02*
X6945239Y58666119D01*
X6754762Y58666119D01*
X6659524Y58713738D01*
X6611905Y58761357D01*
X6564286Y58856595D01*
X6564286Y59142310D01*
X6611905Y59237548D01*
X6659524Y59285167D01*
X6754762Y59332786D01*
X6945239Y59332786D01*
X7040477Y59285167D01*
X7945239Y58713738D02*
X7850001Y58666119D01*
X7659524Y58666119D01*
X7564286Y58713738D01*
X7516667Y58761357D01*
X7469048Y58856595D01*
X7469048Y59142310D01*
X7516667Y59237548D01*
X7564286Y59285167D01*
X7659524Y59332786D01*
X7850001Y59332786D01*
X7945239Y59285167D01*
D11*
X74358572Y11537143D02*
X75501429Y11537143D01*
X69278572Y11537143D02*
X70421429Y11537143D01*
X69850000Y12108571D02*
X69850000Y10965714D01*
X71818572Y11537143D02*
X72961429Y11537143D01*
X66738572Y11537143D02*
X67881429Y11537143D01*
X67310000Y12108571D02*
X67310000Y10965714D01*
D12*
X55880000Y10330000D02*
X55880000Y22395000D01*
X50800000Y10330000D02*
X50800000Y22395000D01*
X40005000Y3980000D02*
X40005000Y22395000D01*
X34290000Y10330000D02*
X34290000Y22395000D01*
X29210000Y10330000D02*
X29210000Y22395000D01*
X24130000Y10330000D02*
X24130000Y22395000D01*
D14*
X27250571Y16860762D02*
X26089429Y16860762D01*
X26670000Y16860762D02*
X26670000Y18892762D01*
X26476476Y18602476D01*
X26282952Y18408952D01*
X26089429Y18312190D01*
X31169429Y18699238D02*
X31266191Y18796000D01*
X31459714Y18892762D01*
X31943524Y18892762D01*
X32137048Y18796000D01*
X32233810Y18699238D01*
X32330571Y18505714D01*
X32330571Y18312190D01*
X32233810Y18021905D01*
X31072667Y16860762D01*
X32330571Y16860762D01*
X36152667Y18892762D02*
X37410571Y18892762D01*
X36733238Y18118667D01*
X37023524Y18118667D01*
X37217048Y18021905D01*
X37313810Y17925143D01*
X37410571Y17731619D01*
X37410571Y17247810D01*
X37313810Y17054286D01*
X37217048Y16957524D01*
X37023524Y16860762D01*
X36442952Y16860762D01*
X36249429Y16957524D01*
X36152667Y17054286D01*
X42932048Y18215429D02*
X42932048Y16860762D01*
X42448238Y18989524D02*
X41964429Y17538095D01*
X43222333Y17538095D01*
X48743810Y18892762D02*
X47776191Y18892762D01*
X47679429Y17925143D01*
X47776191Y18021905D01*
X47969714Y18118667D01*
X48453524Y18118667D01*
X48647048Y18021905D01*
X48743810Y17925143D01*
X48840571Y17731619D01*
X48840571Y17247810D01*
X48743810Y17054286D01*
X48647048Y16957524D01*
X48453524Y16860762D01*
X47969714Y16860762D01*
X47776191Y16957524D01*
X47679429Y17054286D01*
X53727048Y18892762D02*
X53340000Y18892762D01*
X53146476Y18796000D01*
X53049714Y18699238D01*
X52856191Y18408952D01*
X52759429Y18021905D01*
X52759429Y17247810D01*
X52856191Y17054286D01*
X52952952Y16957524D01*
X53146476Y16860762D01*
X53533524Y16860762D01*
X53727048Y16957524D01*
X53823810Y17054286D01*
X53920571Y17247810D01*
X53920571Y17731619D01*
X53823810Y17925143D01*
X53727048Y18021905D01*
X53533524Y18118667D01*
X53146476Y18118667D01*
X52952952Y18021905D01*
X52856191Y17925143D01*
X52759429Y17731619D01*
D12*
X34544000Y63881000D02*
X34671000Y64008000D01*
X34290000Y63881000D02*
X34544000Y64135000D01*
X34036000Y63881000D02*
X34417000Y64262000D01*
X34798000Y63881000D02*
X32385000Y63881000D01*
X35179000Y63754000D02*
X32131000Y63754000D01*
X32766000Y63881000D02*
X33782000Y64897000D01*
X33655000Y65278000D02*
X32131000Y63754000D01*
X32512000Y63881000D02*
X33655000Y65024000D01*
X33655000Y65024000D02*
X33655000Y65151000D01*
X33528000Y63881000D02*
X34163000Y64516000D01*
X33274000Y63881000D02*
X34036000Y64643000D01*
X33020000Y63881000D02*
X33909000Y64770000D01*
D11*
X7048572Y60852857D02*
X8191429Y60852857D01*
X4508572Y60852857D02*
X5651429Y60852857D01*
X5080000Y60281429D02*
X5080000Y61424286D01*
D15*
X71458668Y64612762D02*
X71603811Y64564381D01*
X71845715Y64564381D01*
X71942477Y64612762D01*
X71990858Y64661143D01*
X72039239Y64757905D01*
X72039239Y64854667D01*
X71990858Y64951429D01*
X71942477Y64999810D01*
X71845715Y65048190D01*
X71652192Y65096571D01*
X71555430Y65144952D01*
X71507049Y65193333D01*
X71458668Y65290095D01*
X71458668Y65386857D01*
X71507049Y65483619D01*
X71555430Y65532000D01*
X71652192Y65580381D01*
X71894096Y65580381D01*
X72039239Y65532000D01*
X72329525Y65241714D02*
X72716573Y65241714D01*
X72474668Y65580381D02*
X72474668Y64709524D01*
X72523049Y64612762D01*
X72619811Y64564381D01*
X72716573Y64564381D01*
X73490667Y64564381D02*
X73490667Y65096571D01*
X73442286Y65193333D01*
X73345524Y65241714D01*
X73152001Y65241714D01*
X73055239Y65193333D01*
X73490667Y64612762D02*
X73393905Y64564381D01*
X73152001Y64564381D01*
X73055239Y64612762D01*
X73006858Y64709524D01*
X73006858Y64806286D01*
X73055239Y64903048D01*
X73152001Y64951429D01*
X73393905Y64951429D01*
X73490667Y64999810D01*
X73829334Y65241714D02*
X74216382Y65241714D01*
X73974477Y65580381D02*
X73974477Y64709524D01*
X74022858Y64612762D01*
X74119620Y64564381D01*
X74216382Y64564381D01*
X74990476Y65241714D02*
X74990476Y64564381D01*
X74555048Y65241714D02*
X74555048Y64709524D01*
X74603429Y64612762D01*
X74700191Y64564381D01*
X74845333Y64564381D01*
X74942095Y64612762D01*
X74990476Y64661143D01*
X75425905Y64612762D02*
X75522667Y64564381D01*
X75716191Y64564381D01*
X75812952Y64612762D01*
X75861333Y64709524D01*
X75861333Y64757905D01*
X75812952Y64854667D01*
X75716191Y64903048D01*
X75571048Y64903048D01*
X75474286Y64951429D01*
X75425905Y65048190D01*
X75425905Y65096571D01*
X75474286Y65193333D01*
X75571048Y65241714D01*
X75716191Y65241714D01*
X75812952Y65193333D01*
X69051715Y60754381D02*
X69051715Y61770381D01*
X69438762Y61770381D01*
X69535524Y61722000D01*
X69583905Y61673619D01*
X69632286Y61576857D01*
X69632286Y61431714D01*
X69583905Y61334952D01*
X69535524Y61286571D01*
X69438762Y61238190D01*
X69051715Y61238190D01*
X70212858Y60754381D02*
X70116096Y60802762D01*
X70067715Y60851143D01*
X70019334Y60947905D01*
X70019334Y61238190D01*
X70067715Y61334952D01*
X70116096Y61383333D01*
X70212858Y61431714D01*
X70358000Y61431714D01*
X70454762Y61383333D01*
X70503143Y61334952D01*
X70551524Y61238190D01*
X70551524Y60947905D01*
X70503143Y60851143D01*
X70454762Y60802762D01*
X70358000Y60754381D01*
X70212858Y60754381D01*
X70890191Y61431714D02*
X71083715Y60754381D01*
X71277238Y61238190D01*
X71470762Y60754381D01*
X71664286Y61431714D01*
X72438381Y60802762D02*
X72341619Y60754381D01*
X72148096Y60754381D01*
X72051334Y60802762D01*
X72002953Y60899524D01*
X72002953Y61286571D01*
X72051334Y61383333D01*
X72148096Y61431714D01*
X72341619Y61431714D01*
X72438381Y61383333D01*
X72486762Y61286571D01*
X72486762Y61189810D01*
X72002953Y61093048D01*
X72922191Y60754381D02*
X72922191Y61431714D01*
X72922191Y61238190D02*
X72970572Y61334952D01*
X73018953Y61383333D01*
X73115715Y61431714D01*
X73212476Y61431714D01*
X74518762Y61770381D02*
X74712285Y61770381D01*
X74809047Y61722000D01*
X74905809Y61625238D01*
X74954190Y61431714D01*
X74954190Y61093048D01*
X74905809Y60899524D01*
X74809047Y60802762D01*
X74712285Y60754381D01*
X74518762Y60754381D01*
X74422000Y60802762D01*
X74325238Y60899524D01*
X74276857Y61093048D01*
X74276857Y61431714D01*
X74325238Y61625238D01*
X74422000Y61722000D01*
X74518762Y61770381D01*
X75389619Y60754381D02*
X75389619Y61770381D01*
X75486381Y61141429D02*
X75776666Y60754381D01*
X75776666Y61431714D02*
X75389619Y61044667D01*
D12*
X34798000Y63881000D02*
X33655000Y65024000D01*
X33782000Y63881000D02*
X34290000Y64389000D01*
X33655000Y65278000D02*
X35179000Y63754000D01*
D13*
X40440000Y10455000D02*
X40440000Y3855000D01*
X40440000Y3855000D02*
X56080000Y3855000D01*
X56080000Y3855000D02*
X56080000Y10455000D01*
X56080000Y10455000D02*
X40440000Y10455000D01*
X39570000Y10455000D02*
X23930000Y10455000D01*
X23930000Y10455000D02*
X23930000Y3855000D01*
X23930000Y3855000D02*
X39570000Y3855000D01*
X39570000Y3855000D02*
X39570000Y10455000D01*
X45300000Y45220000D02*
X45300000Y46220000D01*
X43600000Y46220000D02*
X43600000Y45220000D01*
X34710000Y61460000D02*
X34710000Y60460000D01*
X36410000Y60460000D02*
X36410000Y61460000D01*
X40220000Y45220000D02*
X40220000Y46220000D01*
X38520000Y46220000D02*
X38520000Y45220000D01*
X19900000Y23630000D02*
X19900000Y24630000D01*
X18200000Y24630000D02*
X18200000Y23630000D01*
X72060000Y68110000D02*
X72660000Y68710000D01*
X72060000Y67710000D02*
X73060000Y68710000D01*
X72060000Y67310000D02*
X73460000Y68710000D01*
X74860000Y67310000D02*
G75*
G03X74860000Y67310000I-1200000J0D01*
G01*
X75260000Y65910000D02*
X75260000Y68710000D01*
X75260000Y68710000D02*
X72060000Y68710000D01*
X72060000Y68710000D02*
X72060000Y65910000D01*
X72060000Y65910000D02*
X75260000Y65910000D01*
X34925000Y68580000D02*
X47625000Y68580000D01*
X47625000Y68580000D02*
X47625000Y66040000D01*
X47625000Y66040000D02*
X34925000Y66040000D01*
X32105000Y68860000D02*
X33655000Y68860000D01*
X34925000Y68580000D02*
X34925000Y66040000D01*
X33655000Y65760000D02*
X32105000Y65760000D01*
X32105000Y65760000D02*
X32105000Y68860000D01*
X19720000Y32555000D02*
X19575000Y32555000D01*
X19720000Y28405000D02*
X19575000Y28405000D01*
X14570000Y28405000D02*
X14715000Y28405000D01*
X14570000Y32555000D02*
X14715000Y32555000D01*
X19720000Y32555000D02*
X19720000Y28405000D01*
X14570000Y32555000D02*
X14570000Y28405000D01*
X19575000Y32555000D02*
X19575000Y33955000D01*
X6379160Y56530240D02*
X6330900Y56530240D01*
X3580180Y55829200D02*
X3580180Y56530240D01*
X3580180Y56530240D02*
X3829100Y56530240D01*
X6379160Y56530240D02*
X6579820Y56530240D01*
X6579820Y56530240D02*
X6579820Y55829200D01*
X55372000Y12489000D02*
X55372000Y14140000D01*
X54737000Y12489000D02*
X53848000Y12489000D01*
X54737000Y12489000D02*
X55372000Y12489000D01*
X53086000Y13759000D02*
X53086000Y13251000D01*
X52324000Y12870000D02*
X54356000Y12870000D01*
X54356000Y14140000D02*
X52324000Y14140000D01*
X52324000Y12870000D02*
X52324000Y14140000D01*
X54356000Y14140000D02*
X54356000Y12870000D01*
X53086000Y13505000D02*
X53340000Y13505000D01*
X53340000Y13505000D02*
X53594000Y13759000D01*
X53594000Y13505000D02*
X53340000Y13505000D01*
X53340000Y13505000D02*
X53594000Y13251000D01*
X53594000Y13251000D02*
X53340000Y13505000D01*
X53594000Y13759000D02*
X53594000Y13251000D01*
X53594000Y13251000D02*
X53086000Y13505000D01*
X53086000Y13505000D02*
X53594000Y13759000D01*
X50292000Y12489000D02*
X50292000Y14140000D01*
X49657000Y12489000D02*
X48768000Y12489000D01*
X49657000Y12489000D02*
X50292000Y12489000D01*
X48006000Y13759000D02*
X48006000Y13251000D01*
X47244000Y12870000D02*
X49276000Y12870000D01*
X49276000Y14140000D02*
X47244000Y14140000D01*
X47244000Y12870000D02*
X47244000Y14140000D01*
X49276000Y14140000D02*
X49276000Y12870000D01*
X48006000Y13505000D02*
X48260000Y13505000D01*
X48260000Y13505000D02*
X48514000Y13759000D01*
X48514000Y13505000D02*
X48260000Y13505000D01*
X48260000Y13505000D02*
X48514000Y13251000D01*
X48514000Y13251000D02*
X48260000Y13505000D01*
X48514000Y13759000D02*
X48514000Y13251000D01*
X48514000Y13251000D02*
X48006000Y13505000D01*
X48006000Y13505000D02*
X48514000Y13759000D01*
X45212000Y12489000D02*
X45212000Y14140000D01*
X44577000Y12489000D02*
X43688000Y12489000D01*
X44577000Y12489000D02*
X45212000Y12489000D01*
X42926000Y13759000D02*
X42926000Y13251000D01*
X42164000Y12870000D02*
X44196000Y12870000D01*
X44196000Y14140000D02*
X42164000Y14140000D01*
X42164000Y12870000D02*
X42164000Y14140000D01*
X44196000Y14140000D02*
X44196000Y12870000D01*
X42926000Y13505000D02*
X43180000Y13505000D01*
X43180000Y13505000D02*
X43434000Y13759000D01*
X43434000Y13505000D02*
X43180000Y13505000D01*
X43180000Y13505000D02*
X43434000Y13251000D01*
X43434000Y13251000D02*
X43180000Y13505000D01*
X43434000Y13759000D02*
X43434000Y13251000D01*
X43434000Y13251000D02*
X42926000Y13505000D01*
X42926000Y13505000D02*
X43434000Y13759000D01*
X38862000Y12489000D02*
X38862000Y14140000D01*
X38227000Y12489000D02*
X37338000Y12489000D01*
X38227000Y12489000D02*
X38862000Y12489000D01*
X36576000Y13759000D02*
X36576000Y13251000D01*
X35814000Y12870000D02*
X37846000Y12870000D01*
X37846000Y14140000D02*
X35814000Y14140000D01*
X35814000Y12870000D02*
X35814000Y14140000D01*
X37846000Y14140000D02*
X37846000Y12870000D01*
X36576000Y13505000D02*
X36830000Y13505000D01*
X36830000Y13505000D02*
X37084000Y13759000D01*
X37084000Y13505000D02*
X36830000Y13505000D01*
X36830000Y13505000D02*
X37084000Y13251000D01*
X37084000Y13251000D02*
X36830000Y13505000D01*
X37084000Y13759000D02*
X37084000Y13251000D01*
X37084000Y13251000D02*
X36576000Y13505000D01*
X36576000Y13505000D02*
X37084000Y13759000D01*
X33782000Y12489000D02*
X33782000Y14140000D01*
X33147000Y12489000D02*
X32258000Y12489000D01*
X33147000Y12489000D02*
X33782000Y12489000D01*
X31496000Y13759000D02*
X31496000Y13251000D01*
X30734000Y12870000D02*
X32766000Y12870000D01*
X32766000Y14140000D02*
X30734000Y14140000D01*
X30734000Y12870000D02*
X30734000Y14140000D01*
X32766000Y14140000D02*
X32766000Y12870000D01*
X31496000Y13505000D02*
X31750000Y13505000D01*
X31750000Y13505000D02*
X32004000Y13759000D01*
X32004000Y13505000D02*
X31750000Y13505000D01*
X31750000Y13505000D02*
X32004000Y13251000D01*
X32004000Y13251000D02*
X31750000Y13505000D01*
X32004000Y13759000D02*
X32004000Y13251000D01*
X32004000Y13251000D02*
X31496000Y13505000D01*
X31496000Y13505000D02*
X32004000Y13759000D01*
X28702000Y12489000D02*
X28702000Y14140000D01*
X28067000Y12489000D02*
X27178000Y12489000D01*
X28067000Y12489000D02*
X28702000Y12489000D01*
X26416000Y13759000D02*
X26416000Y13251000D01*
X25654000Y12870000D02*
X27686000Y12870000D01*
X27686000Y14140000D02*
X25654000Y14140000D01*
X25654000Y12870000D02*
X25654000Y14140000D01*
X27686000Y14140000D02*
X27686000Y12870000D01*
X26416000Y13505000D02*
X26670000Y13505000D01*
X26670000Y13505000D02*
X26924000Y13759000D01*
X26924000Y13505000D02*
X26670000Y13505000D01*
X26670000Y13505000D02*
X26924000Y13251000D01*
X26924000Y13251000D02*
X26670000Y13505000D01*
X26924000Y13759000D02*
X26924000Y13251000D01*
X26924000Y13251000D02*
X26416000Y13505000D01*
X26416000Y13505000D02*
X26924000Y13759000D01*
X75692000Y58674000D02*
X75692000Y60325000D01*
X75057000Y58674000D02*
X74168000Y58674000D01*
X75057000Y58674000D02*
X75692000Y58674000D01*
X73406000Y59944000D02*
X73406000Y59436000D01*
X72644000Y59055000D02*
X74676000Y59055000D01*
X74676000Y60325000D02*
X72644000Y60325000D01*
X72644000Y59055000D02*
X72644000Y60325000D01*
X74676000Y60325000D02*
X74676000Y59055000D01*
X73406000Y59690000D02*
X73660000Y59690000D01*
X73660000Y59690000D02*
X73914000Y59944000D01*
X73914000Y59690000D02*
X73660000Y59690000D01*
X73660000Y59690000D02*
X73914000Y59436000D01*
X73914000Y59436000D02*
X73660000Y59690000D01*
X73914000Y59944000D02*
X73914000Y59436000D01*
X73914000Y59436000D02*
X73406000Y59690000D01*
X73406000Y59690000D02*
X73914000Y59944000D01*
D16*
G36*
X5775686Y24385380D02*
X5828153Y24413969D01*
X5910847Y24457253D01*
X6019881Y24513302D01*
X6151368Y24580188D01*
X6301421Y24655981D01*
X6466152Y24738752D01*
X6641674Y24826570D01*
X6824100Y24917507D01*
X7009543Y25009633D01*
X7194116Y25101019D01*
X7373931Y25189734D01*
X7545102Y25273850D01*
X7703741Y25351437D01*
X7845961Y25420565D01*
X7967875Y25479306D01*
X8065596Y25525729D01*
X8135236Y25557905D01*
X8172908Y25573905D01*
X8178540Y25575237D01*
X8184751Y25549238D01*
X8189337Y25492328D01*
X8191448Y25415924D01*
X8191500Y25401557D01*
X8191500Y25240837D01*
X7323673Y24807336D01*
X6455846Y24373836D01*
X7318381Y23939710D01*
X8180916Y23505583D01*
X8187020Y23345882D01*
X8188248Y23267432D01*
X8185903Y23206349D01*
X8180493Y23174139D01*
X8179352Y23172408D01*
X8159009Y23179526D01*
X8104756Y23203780D01*
X8020482Y23243242D01*
X7910074Y23295984D01*
X7777421Y23360077D01*
X7626412Y23433594D01*
X7460934Y23514607D01*
X7284876Y23601187D01*
X7102125Y23691407D01*
X6916570Y23783338D01*
X6732100Y23875053D01*
X6552602Y23964623D01*
X6381965Y24050120D01*
X6224077Y24129616D01*
X6082826Y24201184D01*
X5962100Y24262895D01*
X5865788Y24312821D01*
X5797777Y24349034D01*
X5761957Y24369606D01*
X5757333Y24373416D01*
X5775686Y24385380D01*
X5775686Y24385380D01*
G37*
X5775686Y24385380D02*
X5828153Y24413969D01*
X5910847Y24457253D01*
X6019881Y24513302D01*
X6151368Y24580188D01*
X6301421Y24655981D01*
X6466152Y24738752D01*
X6641674Y24826570D01*
X6824100Y24917507D01*
X7009543Y25009633D01*
X7194116Y25101019D01*
X7373931Y25189734D01*
X7545102Y25273850D01*
X7703741Y25351437D01*
X7845961Y25420565D01*
X7967875Y25479306D01*
X8065596Y25525729D01*
X8135236Y25557905D01*
X8172908Y25573905D01*
X8178540Y25575237D01*
X8184751Y25549238D01*
X8189337Y25492328D01*
X8191448Y25415924D01*
X8191500Y25401557D01*
X8191500Y25240837D01*
X7323673Y24807336D01*
X6455846Y24373836D01*
X7318381Y23939710D01*
X8180916Y23505583D01*
X8187020Y23345882D01*
X8188248Y23267432D01*
X8185903Y23206349D01*
X8180493Y23174139D01*
X8179352Y23172408D01*
X8159009Y23179526D01*
X8104756Y23203780D01*
X8020482Y23243242D01*
X7910074Y23295984D01*
X7777421Y23360077D01*
X7626412Y23433594D01*
X7460934Y23514607D01*
X7284876Y23601187D01*
X7102125Y23691407D01*
X6916570Y23783338D01*
X6732100Y23875053D01*
X6552602Y23964623D01*
X6381965Y24050120D01*
X6224077Y24129616D01*
X6082826Y24201184D01*
X5962100Y24262895D01*
X5865788Y24312821D01*
X5797777Y24349034D01*
X5761957Y24369606D01*
X5757333Y24373416D01*
X5775686Y24385380D01*
G36*
X5775898Y27285783D02*
X5833263Y27492278D01*
X5926303Y27686833D01*
X6052830Y27864525D01*
X6210656Y28020432D01*
X6334551Y28111369D01*
X6521701Y28207841D01*
X6723748Y28267716D01*
X6934232Y28290949D01*
X7146697Y28277496D01*
X7354684Y28227313D01*
X7551733Y28140354D01*
X7586836Y28120013D01*
X7712423Y28044251D01*
X7959079Y28288333D01*
X8179999Y28067413D01*
X7935917Y27820757D01*
X8011679Y27695170D01*
X8104473Y27500844D01*
X8159889Y27289323D01*
X8177072Y27064825D01*
X8168489Y26924000D01*
X8125363Y26720903D01*
X8045517Y26530758D01*
X7933551Y26357312D01*
X7794067Y26204311D01*
X7631663Y26075501D01*
X7450940Y25974627D01*
X7256499Y25905438D01*
X7052939Y25871679D01*
X6938483Y25872825D01*
X6938483Y26194671D01*
X7118425Y26205642D01*
X7289947Y26252527D01*
X7448374Y26333310D01*
X7589036Y26445978D01*
X7707259Y26588513D01*
X7798369Y26758900D01*
X7824324Y26828750D01*
X7839567Y26905609D01*
X7846700Y27014703D01*
X7846216Y27114500D01*
X7840720Y27222185D01*
X7829828Y27303389D01*
X7810408Y27373902D01*
X7780072Y27447875D01*
X7748446Y27513887D01*
X7722531Y27561300D01*
X7707792Y27580147D01*
X7707565Y27580167D01*
X7688206Y27566180D01*
X7646102Y27528503D01*
X7588260Y27473559D01*
X7545802Y27431887D01*
X7396527Y27283607D01*
X7175597Y27507315D01*
X7323715Y27654298D01*
X7386591Y27717982D01*
X7436216Y27770699D01*
X7466086Y27805399D01*
X7471833Y27814833D01*
X7454048Y27829676D01*
X7407464Y27855456D01*
X7343464Y27885994D01*
X7159891Y27947109D01*
X6976649Y27968538D01*
X6798336Y27952712D01*
X6629549Y27902061D01*
X6474886Y27819017D01*
X6338945Y27706011D01*
X6226322Y27565474D01*
X6141616Y27399837D01*
X6091670Y27224048D01*
X6079697Y27048240D01*
X6106081Y26872939D01*
X6167320Y26704967D01*
X6259912Y26551146D01*
X6380353Y26418296D01*
X6525142Y26313239D01*
X6572025Y26288538D01*
X6754792Y26221631D01*
X6938483Y26194671D01*
X6938483Y25872825D01*
X6878426Y25873427D01*
X6659938Y25913806D01*
X6455556Y25990808D01*
X6269428Y26100731D01*
X6105701Y26239873D01*
X5968522Y26404532D01*
X5862038Y26591006D01*
X5790397Y26795594D01*
X5776944Y26856667D01*
X5756396Y27072272D01*
X5775898Y27285783D01*
X5775898Y27285783D01*
G37*
X5775898Y27285783D02*
X5833263Y27492278D01*
X5926303Y27686833D01*
X6052830Y27864525D01*
X6210656Y28020432D01*
X6334551Y28111369D01*
X6521701Y28207841D01*
X6723748Y28267716D01*
X6934232Y28290949D01*
X7146697Y28277496D01*
X7354684Y28227313D01*
X7551733Y28140354D01*
X7586836Y28120013D01*
X7712423Y28044251D01*
X7959079Y28288333D01*
X8179999Y28067413D01*
X7935917Y27820757D01*
X8011679Y27695170D01*
X8104473Y27500844D01*
X8159889Y27289323D01*
X8177072Y27064825D01*
X8168489Y26924000D01*
X8125363Y26720903D01*
X8045517Y26530758D01*
X7933551Y26357312D01*
X7794067Y26204311D01*
X7631663Y26075501D01*
X7450940Y25974627D01*
X7256499Y25905438D01*
X7052939Y25871679D01*
X6938483Y25872825D01*
X6938483Y26194671D01*
X7118425Y26205642D01*
X7289947Y26252527D01*
X7448374Y26333310D01*
X7589036Y26445978D01*
X7707259Y26588513D01*
X7798369Y26758900D01*
X7824324Y26828750D01*
X7839567Y26905609D01*
X7846700Y27014703D01*
X7846216Y27114500D01*
X7840720Y27222185D01*
X7829828Y27303389D01*
X7810408Y27373902D01*
X7780072Y27447875D01*
X7748446Y27513887D01*
X7722531Y27561300D01*
X7707792Y27580147D01*
X7707565Y27580167D01*
X7688206Y27566180D01*
X7646102Y27528503D01*
X7588260Y27473559D01*
X7545802Y27431887D01*
X7396527Y27283607D01*
X7175597Y27507315D01*
X7323715Y27654298D01*
X7386591Y27717982D01*
X7436216Y27770699D01*
X7466086Y27805399D01*
X7471833Y27814833D01*
X7454048Y27829676D01*
X7407464Y27855456D01*
X7343464Y27885994D01*
X7159891Y27947109D01*
X6976649Y27968538D01*
X6798336Y27952712D01*
X6629549Y27902061D01*
X6474886Y27819017D01*
X6338945Y27706011D01*
X6226322Y27565474D01*
X6141616Y27399837D01*
X6091670Y27224048D01*
X6079697Y27048240D01*
X6106081Y26872939D01*
X6167320Y26704967D01*
X6259912Y26551146D01*
X6380353Y26418296D01*
X6525142Y26313239D01*
X6572025Y26288538D01*
X6754792Y26221631D01*
X6938483Y26194671D01*
X6938483Y25872825D01*
X6878426Y25873427D01*
X6659938Y25913806D01*
X6455556Y25990808D01*
X6269428Y26100731D01*
X6105701Y26239873D01*
X5968522Y26404532D01*
X5862038Y26591006D01*
X5790397Y26795594D01*
X5776944Y26856667D01*
X5756396Y27072272D01*
X5775898Y27285783D01*
G36*
X6588125Y28896999D02*
X6807524Y28898822D01*
X6988993Y28900823D01*
X7136930Y28903654D01*
X7255735Y28907969D01*
X7349807Y28914421D01*
X7423548Y28923663D01*
X7481354Y28936348D01*
X7527628Y28953129D01*
X7566767Y28974660D01*
X7603172Y29001593D01*
X7641243Y29034582D01*
X7666126Y29057023D01*
X7765793Y29173463D01*
X7827494Y29308500D01*
X7850841Y29461232D01*
X7851016Y29485167D01*
X7846374Y29569399D01*
X7835784Y29646671D01*
X7824764Y29690146D01*
X7757122Y29817851D01*
X7658701Y29929345D01*
X7555215Y30003750D01*
X7440083Y30067250D01*
X6598708Y30073453D01*
X5757333Y30079657D01*
X5757333Y30397100D01*
X7503583Y30384750D01*
X7646962Y30316834D01*
X7812130Y30216438D01*
X7950286Y30087238D01*
X8058531Y29934690D01*
X8133964Y29764250D01*
X8173688Y29581375D01*
X8174802Y29391519D01*
X8167663Y29337000D01*
X8119005Y29164302D01*
X8034064Y29003586D01*
X7918437Y28860647D01*
X7777722Y28741283D01*
X7617514Y28651289D01*
X7454916Y28598818D01*
X7398306Y28591777D01*
X7301435Y28585893D01*
X7166360Y28581219D01*
X6995140Y28577809D01*
X6789831Y28575718D01*
X6552491Y28575000D01*
X5757333Y28575000D01*
X5757333Y28890238D01*
X6588125Y28896999D01*
X6588125Y28896999D01*
G37*
X6588125Y28896999D02*
X6807524Y28898822D01*
X6988993Y28900823D01*
X7136930Y28903654D01*
X7255735Y28907969D01*
X7349807Y28914421D01*
X7423548Y28923663D01*
X7481354Y28936348D01*
X7527628Y28953129D01*
X7566767Y28974660D01*
X7603172Y29001593D01*
X7641243Y29034582D01*
X7666126Y29057023D01*
X7765793Y29173463D01*
X7827494Y29308500D01*
X7850841Y29461232D01*
X7851016Y29485167D01*
X7846374Y29569399D01*
X7835784Y29646671D01*
X7824764Y29690146D01*
X7757122Y29817851D01*
X7658701Y29929345D01*
X7555215Y30003750D01*
X7440083Y30067250D01*
X6598708Y30073453D01*
X5757333Y30079657D01*
X5757333Y30397100D01*
X7503583Y30384750D01*
X7646962Y30316834D01*
X7812130Y30216438D01*
X7950286Y30087238D01*
X8058531Y29934690D01*
X8133964Y29764250D01*
X8173688Y29581375D01*
X8174802Y29391519D01*
X8167663Y29337000D01*
X8119005Y29164302D01*
X8034064Y29003586D01*
X7918437Y28860647D01*
X7777722Y28741283D01*
X7617514Y28651289D01*
X7454916Y28598818D01*
X7398306Y28591777D01*
X7301435Y28585893D01*
X7166360Y28581219D01*
X6995140Y28577809D01*
X6789831Y28575718D01*
X6552491Y28575000D01*
X5757333Y28575000D01*
X5757333Y28890238D01*
X6588125Y28896999D01*
G36*
X6958542Y32498771D02*
X7169209Y32604036D01*
X7368578Y32703499D01*
X7553447Y32795572D01*
X7720611Y32878666D01*
X7866867Y32951195D01*
X7989012Y33011569D01*
X8083842Y33058201D01*
X8148153Y33089503D01*
X8178741Y33103886D01*
X8180843Y33104667D01*
X8185792Y33085171D01*
X8189518Y33033364D01*
X8191392Y32959260D01*
X8191500Y32935299D01*
X8191500Y32765931D01*
X7334250Y32337462D01*
X7158070Y32249173D01*
X6994088Y32166549D01*
X6846077Y32091525D01*
X6717810Y32026033D01*
X6613062Y31972008D01*
X6535606Y31931383D01*
X6489214Y31906093D01*
X6477000Y31898167D01*
X6495325Y31886782D01*
X6547787Y31858490D01*
X6630611Y31815223D01*
X6740024Y31758917D01*
X6872252Y31691504D01*
X7023523Y31614918D01*
X7190062Y31531093D01*
X7334250Y31458871D01*
X8191500Y31030402D01*
X8191500Y30861034D01*
X8189298Y30769304D01*
X8182205Y30715045D01*
X8169488Y30693597D01*
X8165041Y30692826D01*
X8141946Y30702284D01*
X8084318Y30729172D01*
X7995433Y30771877D01*
X7878568Y30828791D01*
X7737000Y30898303D01*
X7574007Y30978803D01*
X7392865Y31068681D01*
X7196852Y31166326D01*
X6989243Y31270129D01*
X6942740Y31293430D01*
X5746898Y31892875D01*
X6958542Y32498771D01*
X6958542Y32498771D01*
G37*
X6958542Y32498771D02*
X7169209Y32604036D01*
X7368578Y32703499D01*
X7553447Y32795572D01*
X7720611Y32878666D01*
X7866867Y32951195D01*
X7989012Y33011569D01*
X8083842Y33058201D01*
X8148153Y33089503D01*
X8178741Y33103886D01*
X8180843Y33104667D01*
X8185792Y33085171D01*
X8189518Y33033364D01*
X8191392Y32959260D01*
X8191500Y32935299D01*
X8191500Y32765931D01*
X7334250Y32337462D01*
X7158070Y32249173D01*
X6994088Y32166549D01*
X6846077Y32091525D01*
X6717810Y32026033D01*
X6613062Y31972008D01*
X6535606Y31931383D01*
X6489214Y31906093D01*
X6477000Y31898167D01*
X6495325Y31886782D01*
X6547787Y31858490D01*
X6630611Y31815223D01*
X6740024Y31758917D01*
X6872252Y31691504D01*
X7023523Y31614918D01*
X7190062Y31531093D01*
X7334250Y31458871D01*
X8191500Y31030402D01*
X8191500Y30861034D01*
X8189298Y30769304D01*
X8182205Y30715045D01*
X8169488Y30693597D01*
X8165041Y30692826D01*
X8141946Y30702284D01*
X8084318Y30729172D01*
X7995433Y30771877D01*
X7878568Y30828791D01*
X7737000Y30898303D01*
X7574007Y30978803D01*
X7392865Y31068681D01*
X7196852Y31166326D01*
X6989243Y31270129D01*
X6942740Y31293430D01*
X5746898Y31892875D01*
X6958542Y32498771D01*
G36*
X5757707Y34091474D02*
X5759405Y34261047D01*
X5763288Y34398099D01*
X5770220Y34507535D01*
X5781063Y34594259D01*
X5796679Y34663177D01*
X5817931Y34719193D01*
X5845683Y34767213D01*
X5880795Y34812141D01*
X5924131Y34858881D01*
X5929693Y34864608D01*
X6056660Y34967608D01*
X6195882Y35032326D01*
X6341732Y35058747D01*
X6488583Y35046854D01*
X6630808Y34996631D01*
X6762782Y34908062D01*
X6806387Y34867106D01*
X6853957Y34816174D01*
X6891453Y34767788D01*
X6920183Y34716062D01*
X6941454Y34655111D01*
X6956572Y34579052D01*
X6966847Y34481999D01*
X6973583Y34358067D01*
X6978090Y34201371D01*
X6980359Y34083951D01*
X6989333Y33570985D01*
X7585124Y33565367D01*
X8180916Y33559750D01*
X8187047Y33410658D01*
X8188106Y33334717D01*
X8185089Y33276159D01*
X8178647Y33247097D01*
X8178228Y33246617D01*
X8154297Y33243148D01*
X8092929Y33239963D01*
X7999019Y33237160D01*
X7877461Y33234833D01*
X7733151Y33233078D01*
X7570984Y33231993D01*
X7415388Y33231667D01*
X6667500Y33231667D01*
X6667500Y33812708D01*
X6666852Y34015262D01*
X6664521Y34180138D01*
X6659929Y34311975D01*
X6652494Y34415412D01*
X6641636Y34495091D01*
X6626776Y34555652D01*
X6607334Y34601733D01*
X6582729Y34637976D01*
X6561517Y34660559D01*
X6479746Y34711797D01*
X6381552Y34733106D01*
X6281885Y34722978D01*
X6217404Y34695249D01*
X6182391Y34672426D01*
X6154172Y34648672D01*
X6131926Y34619338D01*
X6114833Y34579775D01*
X6102070Y34525336D01*
X6092818Y34451370D01*
X6086256Y34353229D01*
X6081562Y34226265D01*
X6077916Y34065827D01*
X6074833Y33887833D01*
X6064250Y33242250D01*
X5910791Y33236031D01*
X5757333Y33229812D01*
X5757333Y33884475D01*
X5757707Y34091474D01*
X5757707Y34091474D01*
G37*
X5757707Y34091474D02*
X5759405Y34261047D01*
X5763288Y34398099D01*
X5770220Y34507535D01*
X5781063Y34594259D01*
X5796679Y34663177D01*
X5817931Y34719193D01*
X5845683Y34767213D01*
X5880795Y34812141D01*
X5924131Y34858881D01*
X5929693Y34864608D01*
X6056660Y34967608D01*
X6195882Y35032326D01*
X6341732Y35058747D01*
X6488583Y35046854D01*
X6630808Y34996631D01*
X6762782Y34908062D01*
X6806387Y34867106D01*
X6853957Y34816174D01*
X6891453Y34767788D01*
X6920183Y34716062D01*
X6941454Y34655111D01*
X6956572Y34579052D01*
X6966847Y34481999D01*
X6973583Y34358067D01*
X6978090Y34201371D01*
X6980359Y34083951D01*
X6989333Y33570985D01*
X7585124Y33565367D01*
X8180916Y33559750D01*
X8187047Y33410658D01*
X8188106Y33334717D01*
X8185089Y33276159D01*
X8178647Y33247097D01*
X8178228Y33246617D01*
X8154297Y33243148D01*
X8092929Y33239963D01*
X7999019Y33237160D01*
X7877461Y33234833D01*
X7733151Y33233078D01*
X7570984Y33231993D01*
X7415388Y33231667D01*
X6667500Y33231667D01*
X6667500Y33812708D01*
X6666852Y34015262D01*
X6664521Y34180138D01*
X6659929Y34311975D01*
X6652494Y34415412D01*
X6641636Y34495091D01*
X6626776Y34555652D01*
X6607334Y34601733D01*
X6582729Y34637976D01*
X6561517Y34660559D01*
X6479746Y34711797D01*
X6381552Y34733106D01*
X6281885Y34722978D01*
X6217404Y34695249D01*
X6182391Y34672426D01*
X6154172Y34648672D01*
X6131926Y34619338D01*
X6114833Y34579775D01*
X6102070Y34525336D01*
X6092818Y34451370D01*
X6086256Y34353229D01*
X6081562Y34226265D01*
X6077916Y34065827D01*
X6074833Y33887833D01*
X6064250Y33242250D01*
X5910791Y33236031D01*
X5757333Y33229812D01*
X5757333Y33884475D01*
X5757707Y34091474D01*
G36*
X8191500Y35665833D02*
X8191500Y35348333D01*
X5757333Y35348333D01*
X5757333Y35665833D01*
X8191500Y35665833D01*
X8191500Y35665833D01*
G37*
X8191500Y35665833D02*
X8191500Y35348333D01*
X5757333Y35348333D01*
X5757333Y35665833D01*
X8191500Y35665833D01*
G36*
X5921375Y37778135D02*
X6074833Y37784354D01*
X6074833Y37428041D01*
X6078386Y37229592D01*
X6090297Y37066109D01*
X6112443Y36930721D01*
X6146701Y36816560D01*
X6194947Y36716757D01*
X6259059Y36624441D01*
X6310790Y36564479D01*
X6451658Y36437325D01*
X6605754Y36348892D01*
X6776874Y36297662D01*
X6968814Y36282116D01*
X7013649Y36283309D01*
X7119896Y36290423D01*
X7201208Y36303422D01*
X7274934Y36326192D01*
X7349929Y36358618D01*
X7511619Y36457283D01*
X7648093Y36589027D01*
X7756438Y36750945D01*
X7769868Y36777219D01*
X7842250Y36924133D01*
X7863416Y37771917D01*
X8180916Y37771917D01*
X8183787Y37454417D01*
X8183659Y37330303D01*
X8181321Y37209705D01*
X8177148Y37104397D01*
X8171515Y37026153D01*
X8169623Y37009917D01*
X8119948Y36793671D01*
X8033058Y36592429D01*
X7912713Y36410551D01*
X7762673Y36252394D01*
X7586695Y36122319D01*
X7388540Y36024683D01*
X7291916Y35992137D01*
X7162222Y35966651D01*
X7011014Y35955875D01*
X6855936Y35959806D01*
X6714628Y35978438D01*
X6658023Y35992264D01*
X6445846Y36075587D01*
X6254306Y36192907D01*
X6087577Y36340297D01*
X5949834Y36513829D01*
X5845252Y36709575D01*
X5816900Y36783635D01*
X5799972Y36835885D01*
X5787449Y36885559D01*
X5778676Y36940229D01*
X5772998Y37007468D01*
X5769757Y37094847D01*
X5768300Y37209937D01*
X5767969Y37348583D01*
X5767916Y37771917D01*
X5921375Y37778135D01*
X5921375Y37778135D01*
G37*
X5921375Y37778135D02*
X6074833Y37784354D01*
X6074833Y37428041D01*
X6078386Y37229592D01*
X6090297Y37066109D01*
X6112443Y36930721D01*
X6146701Y36816560D01*
X6194947Y36716757D01*
X6259059Y36624441D01*
X6310790Y36564479D01*
X6451658Y36437325D01*
X6605754Y36348892D01*
X6776874Y36297662D01*
X6968814Y36282116D01*
X7013649Y36283309D01*
X7119896Y36290423D01*
X7201208Y36303422D01*
X7274934Y36326192D01*
X7349929Y36358618D01*
X7511619Y36457283D01*
X7648093Y36589027D01*
X7756438Y36750945D01*
X7769868Y36777219D01*
X7842250Y36924133D01*
X7863416Y37771917D01*
X8180916Y37771917D01*
X8183787Y37454417D01*
X8183659Y37330303D01*
X8181321Y37209705D01*
X8177148Y37104397D01*
X8171515Y37026153D01*
X8169623Y37009917D01*
X8119948Y36793671D01*
X8033058Y36592429D01*
X7912713Y36410551D01*
X7762673Y36252394D01*
X7586695Y36122319D01*
X7388540Y36024683D01*
X7291916Y35992137D01*
X7162222Y35966651D01*
X7011014Y35955875D01*
X6855936Y35959806D01*
X6714628Y35978438D01*
X6658023Y35992264D01*
X6445846Y36075587D01*
X6254306Y36192907D01*
X6087577Y36340297D01*
X5949834Y36513829D01*
X5845252Y36709575D01*
X5816900Y36783635D01*
X5799972Y36835885D01*
X5787449Y36885559D01*
X5778676Y36940229D01*
X5772998Y37007468D01*
X5769757Y37094847D01*
X5768300Y37209937D01*
X5767969Y37348583D01*
X5767916Y37771917D01*
X5921375Y37778135D01*
D17*
X3595000Y51935000D02*
X3595000Y50935000D01*
X5295000Y50935000D02*
X5295000Y51935000D01*
X6135000Y51935000D02*
X6135000Y50935000D01*
X7835000Y50935000D02*
X7835000Y51935000D01*
D13*
X45330000Y56215000D02*
X44755000Y56215000D01*
X45330000Y50465000D02*
X44680000Y50465000D01*
X34680000Y50465000D02*
X35330000Y50465000D01*
X34680000Y56215000D02*
X35330000Y56215000D01*
X45330000Y56215000D02*
X45330000Y50465000D01*
X34680000Y56215000D02*
X34680000Y50465000D01*
X44755000Y56215000D02*
X44755000Y57815000D01*
D17*
X19175000Y42235000D02*
X19175000Y43165000D01*
X19175000Y45395000D02*
X19175000Y44465000D01*
X19175000Y45395000D02*
X17015000Y45395000D01*
X19175000Y42235000D02*
X17715000Y42235000D01*
X19175000Y35885000D02*
X19175000Y36815000D01*
X19175000Y39045000D02*
X19175000Y38115000D01*
X19175000Y39045000D02*
X17015000Y39045000D01*
X19175000Y35885000D02*
X17715000Y35885000D01*
X19175000Y47950000D02*
X19175000Y48880000D01*
X19175000Y51110000D02*
X19175000Y50180000D01*
X19175000Y51110000D02*
X17015000Y51110000D01*
X19175000Y47950000D02*
X17715000Y47950000D01*
X33410000Y31150000D02*
X33410000Y32350000D01*
X35170000Y32350000D02*
X35170000Y31150000D01*
X39125000Y31150000D02*
X39125000Y32350000D01*
X40885000Y32350000D02*
X40885000Y31150000D01*
X44840000Y31150000D02*
X44840000Y32350000D01*
X46600000Y32350000D02*
X46600000Y31150000D01*
X64170000Y68190000D02*
X65370000Y68190000D01*
X65370000Y66430000D02*
X64170000Y66430000D01*
X64170000Y65650000D02*
X65370000Y65650000D01*
X65370000Y63890000D02*
X64170000Y63890000D01*
X64170000Y63110000D02*
X65370000Y63110000D01*
X65370000Y61350000D02*
X64170000Y61350000D01*
X65370000Y58810000D02*
X64170000Y58810000D01*
X64170000Y60570000D02*
X65370000Y60570000D01*
X13370000Y54220000D02*
X14570000Y54220000D01*
X14570000Y52460000D02*
X13370000Y52460000D01*
X13370000Y51680000D02*
X14570000Y51680000D01*
X14570000Y49920000D02*
X13370000Y49920000D01*
X14570000Y47380000D02*
X13370000Y47380000D01*
X13370000Y49140000D02*
X14570000Y49140000D01*
X14570000Y44205000D02*
X13370000Y44205000D01*
X13370000Y45965000D02*
X14570000Y45965000D01*
X14570000Y37855000D02*
X13370000Y37855000D01*
X13370000Y39615000D02*
X14570000Y39615000D01*
X14570000Y41665000D02*
X13370000Y41665000D01*
X13370000Y43425000D02*
X14570000Y43425000D01*
X14570000Y35315000D02*
X13370000Y35315000D01*
X13370000Y37075000D02*
X14570000Y37075000D01*
X3575000Y42540000D02*
X4835000Y42540000D01*
X10395000Y42540000D02*
X9135000Y42540000D01*
X3575000Y46300000D02*
X3575000Y42540000D01*
X10395000Y48550000D02*
X10395000Y42540000D01*
D13*
X9090000Y62105000D02*
X3610000Y62105000D01*
X3610000Y62105000D02*
X3610000Y68705000D01*
X3610000Y68705000D02*
X9090000Y68705000D01*
X9090000Y68705000D02*
X9090000Y62105000D01*
X76400000Y10455000D02*
X76400000Y3855000D01*
X76400000Y3855000D02*
X65840000Y3855000D01*
X65840000Y3855000D02*
X65840000Y10455000D01*
X65840000Y10455000D02*
X76400000Y10455000D01*
X12700000Y14745005D02*
X12700000Y13475005D01*
X12065000Y14110005D02*
X13335000Y14110005D01*
X6150000Y14110005D02*
X6150000Y3810005D01*
X6150000Y3810005D02*
X19250000Y3810005D01*
X19250000Y3810005D02*
X19250000Y14110005D01*
X6150000Y14110005D02*
X6150000Y20810005D01*
X6150000Y20810005D02*
X19250000Y20810005D01*
X19250000Y20810005D02*
X19250000Y14110005D01*
D17*
X63230000Y5915000D02*
X61230000Y5915000D01*
X61230000Y8055000D02*
X63230000Y8055000D01*
D10*
X33528000Y60687857D02*
X33491714Y60651571D01*
X33382857Y60615286D01*
X33310286Y60615286D01*
X33201429Y60651571D01*
X33128857Y60724143D01*
X33092572Y60796714D01*
X33056286Y60941857D01*
X33056286Y61050714D01*
X33092572Y61195857D01*
X33128857Y61268429D01*
X33201429Y61341000D01*
X33310286Y61377286D01*
X33382857Y61377286D01*
X33491714Y61341000D01*
X33528000Y61304714D01*
X34253714Y60615286D02*
X33818286Y60615286D01*
X34036000Y60615286D02*
X34036000Y61377286D01*
X33963429Y61268429D01*
X33890857Y61195857D01*
X33818286Y61159571D01*
X46101000Y45447857D02*
X46064714Y45411571D01*
X45955857Y45375286D01*
X45883286Y45375286D01*
X45774429Y45411571D01*
X45701857Y45484143D01*
X45665572Y45556714D01*
X45629286Y45701857D01*
X45629286Y45810714D01*
X45665572Y45955857D01*
X45701857Y46028429D01*
X45774429Y46101000D01*
X45883286Y46137286D01*
X45955857Y46137286D01*
X46064714Y46101000D01*
X46101000Y46064714D01*
X46391286Y46064714D02*
X46427572Y46101000D01*
X46500143Y46137286D01*
X46681572Y46137286D01*
X46754143Y46101000D01*
X46790429Y46064714D01*
X46826714Y45992143D01*
X46826714Y45919571D01*
X46790429Y45810714D01*
X46355000Y45375286D01*
X46826714Y45375286D01*
X37465000Y45447857D02*
X37428714Y45411571D01*
X37319857Y45375286D01*
X37247286Y45375286D01*
X37138429Y45411571D01*
X37065857Y45484143D01*
X37029572Y45556714D01*
X36993286Y45701857D01*
X36993286Y45810714D01*
X37029572Y45955857D01*
X37065857Y46028429D01*
X37138429Y46101000D01*
X37247286Y46137286D01*
X37319857Y46137286D01*
X37428714Y46101000D01*
X37465000Y46064714D01*
X37719000Y46137286D02*
X38190714Y46137286D01*
X37936714Y45847000D01*
X38045572Y45847000D01*
X38118143Y45810714D01*
X38154429Y45774429D01*
X38190714Y45701857D01*
X38190714Y45520429D01*
X38154429Y45447857D01*
X38118143Y45411571D01*
X38045572Y45375286D01*
X37827857Y45375286D01*
X37755286Y45411571D01*
X37719000Y45447857D01*
X20764500Y23857857D02*
X20728214Y23821571D01*
X20619357Y23785286D01*
X20546786Y23785286D01*
X20437929Y23821571D01*
X20365357Y23894143D01*
X20329072Y23966714D01*
X20292786Y24111857D01*
X20292786Y24220714D01*
X20329072Y24365857D01*
X20365357Y24438429D01*
X20437929Y24511000D01*
X20546786Y24547286D01*
X20619357Y24547286D01*
X20728214Y24511000D01*
X20764500Y24474714D01*
X21417643Y24293286D02*
X21417643Y23785286D01*
X21236214Y24583571D02*
X21054786Y24039286D01*
X21526500Y24039286D01*
X69287572Y67028786D02*
X69287572Y67790786D01*
X69469000Y67790786D01*
X69577857Y67754500D01*
X69650429Y67681929D01*
X69686714Y67609357D01*
X69723000Y67464214D01*
X69723000Y67355357D01*
X69686714Y67210214D01*
X69650429Y67137643D01*
X69577857Y67065071D01*
X69469000Y67028786D01*
X69287572Y67028786D01*
X69977000Y67790786D02*
X70485000Y67790786D01*
X70158429Y67028786D01*
D13*
X20066095Y33758119D02*
X20066095Y32948595D01*
X20113714Y32853357D01*
X20161333Y32805738D01*
X20256571Y32758119D01*
X20447048Y32758119D01*
X20542286Y32805738D01*
X20589905Y32853357D01*
X20637524Y32948595D01*
X20637524Y33758119D01*
X21637524Y32758119D02*
X21066095Y32758119D01*
X21351809Y32758119D02*
X21351809Y33758119D01*
X21256571Y33615262D01*
X21161333Y33520024D01*
X21066095Y33472405D01*
D10*
X38181643Y62647286D02*
X38689643Y61885286D01*
X38689643Y62647286D02*
X38181643Y61885286D01*
X39379071Y61885286D02*
X38943643Y61885286D01*
X39161357Y61885286D02*
X39161357Y62647286D01*
X39088786Y62538429D01*
X39016214Y62465857D01*
X38943643Y62429571D01*
D13*
X7651762Y55332381D02*
X7556524Y55380000D01*
X7461286Y55475238D01*
X7318429Y55618095D01*
X7223190Y55665714D01*
X7127952Y55665714D01*
X7175571Y55427619D02*
X7080333Y55475238D01*
X6985095Y55570476D01*
X6937476Y55760952D01*
X6937476Y56094286D01*
X6985095Y56284762D01*
X7080333Y56380000D01*
X7175571Y56427619D01*
X7366048Y56427619D01*
X7461286Y56380000D01*
X7556524Y56284762D01*
X7604143Y56094286D01*
X7604143Y55760952D01*
X7556524Y55570476D01*
X7461286Y55475238D01*
X7366048Y55427619D01*
X7175571Y55427619D01*
X8556524Y55427619D02*
X7985095Y55427619D01*
X8270809Y55427619D02*
X8270809Y56427619D01*
X8175571Y56284762D01*
X8080333Y56189524D01*
X7985095Y56141905D01*
D10*
X52777572Y14514286D02*
X52777572Y15276286D01*
X52959000Y15276286D01*
X53067857Y15240000D01*
X53140429Y15167429D01*
X53176714Y15094857D01*
X53213000Y14949714D01*
X53213000Y14840857D01*
X53176714Y14695714D01*
X53140429Y14623143D01*
X53067857Y14550571D01*
X52959000Y14514286D01*
X52777572Y14514286D01*
X53866143Y15276286D02*
X53721000Y15276286D01*
X53648429Y15240000D01*
X53612143Y15203714D01*
X53539572Y15094857D01*
X53503286Y14949714D01*
X53503286Y14659429D01*
X53539572Y14586857D01*
X53575857Y14550571D01*
X53648429Y14514286D01*
X53793572Y14514286D01*
X53866143Y14550571D01*
X53902429Y14586857D01*
X53938714Y14659429D01*
X53938714Y14840857D01*
X53902429Y14913429D01*
X53866143Y14949714D01*
X53793572Y14986000D01*
X53648429Y14986000D01*
X53575857Y14949714D01*
X53539572Y14913429D01*
X53503286Y14840857D01*
X47697572Y14514286D02*
X47697572Y15276286D01*
X47879000Y15276286D01*
X47987857Y15240000D01*
X48060429Y15167429D01*
X48096714Y15094857D01*
X48133000Y14949714D01*
X48133000Y14840857D01*
X48096714Y14695714D01*
X48060429Y14623143D01*
X47987857Y14550571D01*
X47879000Y14514286D01*
X47697572Y14514286D01*
X48822429Y15276286D02*
X48459572Y15276286D01*
X48423286Y14913429D01*
X48459572Y14949714D01*
X48532143Y14986000D01*
X48713572Y14986000D01*
X48786143Y14949714D01*
X48822429Y14913429D01*
X48858714Y14840857D01*
X48858714Y14659429D01*
X48822429Y14586857D01*
X48786143Y14550571D01*
X48713572Y14514286D01*
X48532143Y14514286D01*
X48459572Y14550571D01*
X48423286Y14586857D01*
X42617572Y14514286D02*
X42617572Y15276286D01*
X42799000Y15276286D01*
X42907857Y15240000D01*
X42980429Y15167429D01*
X43016714Y15094857D01*
X43053000Y14949714D01*
X43053000Y14840857D01*
X43016714Y14695714D01*
X42980429Y14623143D01*
X42907857Y14550571D01*
X42799000Y14514286D01*
X42617572Y14514286D01*
X43706143Y15022286D02*
X43706143Y14514286D01*
X43524714Y15312571D02*
X43343286Y14768286D01*
X43815000Y14768286D01*
X36267572Y14514286D02*
X36267572Y15276286D01*
X36449000Y15276286D01*
X36557857Y15240000D01*
X36630429Y15167429D01*
X36666714Y15094857D01*
X36703000Y14949714D01*
X36703000Y14840857D01*
X36666714Y14695714D01*
X36630429Y14623143D01*
X36557857Y14550571D01*
X36449000Y14514286D01*
X36267572Y14514286D01*
X36957000Y15276286D02*
X37428714Y15276286D01*
X37174714Y14986000D01*
X37283572Y14986000D01*
X37356143Y14949714D01*
X37392429Y14913429D01*
X37428714Y14840857D01*
X37428714Y14659429D01*
X37392429Y14586857D01*
X37356143Y14550571D01*
X37283572Y14514286D01*
X37065857Y14514286D01*
X36993286Y14550571D01*
X36957000Y14586857D01*
X31187572Y14514286D02*
X31187572Y15276286D01*
X31369000Y15276286D01*
X31477857Y15240000D01*
X31550429Y15167429D01*
X31586714Y15094857D01*
X31623000Y14949714D01*
X31623000Y14840857D01*
X31586714Y14695714D01*
X31550429Y14623143D01*
X31477857Y14550571D01*
X31369000Y14514286D01*
X31187572Y14514286D01*
X31913286Y15203714D02*
X31949572Y15240000D01*
X32022143Y15276286D01*
X32203572Y15276286D01*
X32276143Y15240000D01*
X32312429Y15203714D01*
X32348714Y15131143D01*
X32348714Y15058571D01*
X32312429Y14949714D01*
X31877000Y14514286D01*
X32348714Y14514286D01*
X26107572Y14514286D02*
X26107572Y15276286D01*
X26289000Y15276286D01*
X26397857Y15240000D01*
X26470429Y15167429D01*
X26506714Y15094857D01*
X26543000Y14949714D01*
X26543000Y14840857D01*
X26506714Y14695714D01*
X26470429Y14623143D01*
X26397857Y14550571D01*
X26289000Y14514286D01*
X26107572Y14514286D01*
X27268714Y14514286D02*
X26833286Y14514286D01*
X27051000Y14514286D02*
X27051000Y15276286D01*
X26978429Y15167429D01*
X26905857Y15094857D01*
X26833286Y15058571D01*
X70430572Y59345286D02*
X70430572Y60107286D01*
X70612000Y60107286D01*
X70720857Y60071000D01*
X70793429Y59998429D01*
X70829714Y59925857D01*
X70866000Y59780714D01*
X70866000Y59671857D01*
X70829714Y59526714D01*
X70793429Y59454143D01*
X70720857Y59381571D01*
X70612000Y59345286D01*
X70430572Y59345286D01*
X71301429Y59780714D02*
X71228857Y59817000D01*
X71192572Y59853286D01*
X71156286Y59925857D01*
X71156286Y59962143D01*
X71192572Y60034714D01*
X71228857Y60071000D01*
X71301429Y60107286D01*
X71446572Y60107286D01*
X71519143Y60071000D01*
X71555429Y60034714D01*
X71591714Y59962143D01*
X71591714Y59925857D01*
X71555429Y59853286D01*
X71519143Y59817000D01*
X71446572Y59780714D01*
X71301429Y59780714D01*
X71228857Y59744429D01*
X71192572Y59708143D01*
X71156286Y59635571D01*
X71156286Y59490429D01*
X71192572Y59417857D01*
X71228857Y59381571D01*
X71301429Y59345286D01*
X71446572Y59345286D01*
X71519143Y59381571D01*
X71555429Y59417857D01*
X71591714Y59490429D01*
X71591714Y59635571D01*
X71555429Y59708143D01*
X71519143Y59744429D01*
X71446572Y59780714D01*
D13*
X2373334Y51077857D02*
X2325715Y51030238D01*
X2182858Y50982619D01*
X2087620Y50982619D01*
X1944762Y51030238D01*
X1849524Y51125476D01*
X1801905Y51220714D01*
X1754286Y51411190D01*
X1754286Y51554048D01*
X1801905Y51744524D01*
X1849524Y51839762D01*
X1944762Y51935000D01*
X2087620Y51982619D01*
X2182858Y51982619D01*
X2325715Y51935000D01*
X2373334Y51887381D01*
X3278096Y51982619D02*
X2801905Y51982619D01*
X2754286Y51506429D01*
X2801905Y51554048D01*
X2897143Y51601667D01*
X3135239Y51601667D01*
X3230477Y51554048D01*
X3278096Y51506429D01*
X3325715Y51411190D01*
X3325715Y51173095D01*
X3278096Y51077857D01*
X3230477Y51030238D01*
X3135239Y50982619D01*
X2897143Y50982619D01*
X2801905Y51030238D01*
X2754286Y51077857D01*
X8850334Y51077857D02*
X8802715Y51030238D01*
X8659858Y50982619D01*
X8564620Y50982619D01*
X8421762Y51030238D01*
X8326524Y51125476D01*
X8278905Y51220714D01*
X8231286Y51411190D01*
X8231286Y51554048D01*
X8278905Y51744524D01*
X8326524Y51839762D01*
X8421762Y51935000D01*
X8564620Y51982619D01*
X8659858Y51982619D01*
X8802715Y51935000D01*
X8850334Y51887381D01*
X9707477Y51982619D02*
X9517000Y51982619D01*
X9421762Y51935000D01*
X9374143Y51887381D01*
X9278905Y51744524D01*
X9231286Y51554048D01*
X9231286Y51173095D01*
X9278905Y51077857D01*
X9326524Y51030238D01*
X9421762Y50982619D01*
X9612239Y50982619D01*
X9707477Y51030238D01*
X9755096Y51077857D01*
X9802715Y51173095D01*
X9802715Y51411190D01*
X9755096Y51506429D01*
X9707477Y51554048D01*
X9612239Y51601667D01*
X9421762Y51601667D01*
X9326524Y51554048D01*
X9278905Y51506429D01*
X9231286Y51411190D01*
X45759810Y56507119D02*
X45759810Y57507119D01*
X46807429Y56602357D02*
X46759810Y56554738D01*
X46616953Y56507119D01*
X46521715Y56507119D01*
X46378857Y56554738D01*
X46283619Y56649976D01*
X46236000Y56745214D01*
X46188381Y56935690D01*
X46188381Y57078548D01*
X46236000Y57269024D01*
X46283619Y57364262D01*
X46378857Y57459500D01*
X46521715Y57507119D01*
X46616953Y57507119D01*
X46759810Y57459500D01*
X46807429Y57411881D01*
X47759810Y56507119D02*
X47188381Y56507119D01*
X47474095Y56507119D02*
X47474095Y57507119D01*
X47378857Y57364262D01*
X47283619Y57269024D01*
X47188381Y57221405D01*
X18319762Y45767381D02*
X18224524Y45815000D01*
X18129286Y45910238D01*
X17986429Y46053095D01*
X17891190Y46100714D01*
X17795952Y46100714D01*
X17843571Y45862619D02*
X17748333Y45910238D01*
X17653095Y46005476D01*
X17605476Y46195952D01*
X17605476Y46529286D01*
X17653095Y46719762D01*
X17748333Y46815000D01*
X17843571Y46862619D01*
X18034048Y46862619D01*
X18129286Y46815000D01*
X18224524Y46719762D01*
X18272143Y46529286D01*
X18272143Y46195952D01*
X18224524Y46005476D01*
X18129286Y45910238D01*
X18034048Y45862619D01*
X17843571Y45862619D01*
X18653095Y46767381D02*
X18700714Y46815000D01*
X18795952Y46862619D01*
X19034048Y46862619D01*
X19129286Y46815000D01*
X19176905Y46767381D01*
X19224524Y46672143D01*
X19224524Y46576905D01*
X19176905Y46434048D01*
X18605476Y45862619D01*
X19224524Y45862619D01*
X18319762Y39417381D02*
X18224524Y39465000D01*
X18129286Y39560238D01*
X17986429Y39703095D01*
X17891190Y39750714D01*
X17795952Y39750714D01*
X17843571Y39512619D02*
X17748333Y39560238D01*
X17653095Y39655476D01*
X17605476Y39845952D01*
X17605476Y40179286D01*
X17653095Y40369762D01*
X17748333Y40465000D01*
X17843571Y40512619D01*
X18034048Y40512619D01*
X18129286Y40465000D01*
X18224524Y40369762D01*
X18272143Y40179286D01*
X18272143Y39845952D01*
X18224524Y39655476D01*
X18129286Y39560238D01*
X18034048Y39512619D01*
X17843571Y39512619D01*
X18605476Y40512619D02*
X19224524Y40512619D01*
X18891190Y40131667D01*
X19034048Y40131667D01*
X19129286Y40084048D01*
X19176905Y40036429D01*
X19224524Y39941190D01*
X19224524Y39703095D01*
X19176905Y39607857D01*
X19129286Y39560238D01*
X19034048Y39512619D01*
X18748333Y39512619D01*
X18653095Y39560238D01*
X18605476Y39607857D01*
X18319762Y51482381D02*
X18224524Y51530000D01*
X18129286Y51625238D01*
X17986429Y51768095D01*
X17891190Y51815714D01*
X17795952Y51815714D01*
X17843571Y51577619D02*
X17748333Y51625238D01*
X17653095Y51720476D01*
X17605476Y51910952D01*
X17605476Y52244286D01*
X17653095Y52434762D01*
X17748333Y52530000D01*
X17843571Y52577619D01*
X18034048Y52577619D01*
X18129286Y52530000D01*
X18224524Y52434762D01*
X18272143Y52244286D01*
X18272143Y51910952D01*
X18224524Y51720476D01*
X18129286Y51625238D01*
X18034048Y51577619D01*
X17843571Y51577619D01*
X19129286Y52244286D02*
X19129286Y51577619D01*
X18891190Y52625238D02*
X18653095Y51910952D01*
X19272143Y51910952D01*
X34123334Y33583619D02*
X33790000Y34059810D01*
X33551905Y33583619D02*
X33551905Y34583619D01*
X33932858Y34583619D01*
X34028096Y34536000D01*
X34075715Y34488381D01*
X34123334Y34393143D01*
X34123334Y34250286D01*
X34075715Y34155048D01*
X34028096Y34107429D01*
X33932858Y34059810D01*
X33551905Y34059810D01*
X35075715Y33583619D02*
X34504286Y33583619D01*
X34790000Y33583619D02*
X34790000Y34583619D01*
X34694762Y34440762D01*
X34599524Y34345524D01*
X34504286Y34297905D01*
X39838334Y33583619D02*
X39505000Y34059810D01*
X39266905Y33583619D02*
X39266905Y34583619D01*
X39647858Y34583619D01*
X39743096Y34536000D01*
X39790715Y34488381D01*
X39838334Y34393143D01*
X39838334Y34250286D01*
X39790715Y34155048D01*
X39743096Y34107429D01*
X39647858Y34059810D01*
X39266905Y34059810D01*
X40219286Y34488381D02*
X40266905Y34536000D01*
X40362143Y34583619D01*
X40600239Y34583619D01*
X40695477Y34536000D01*
X40743096Y34488381D01*
X40790715Y34393143D01*
X40790715Y34297905D01*
X40743096Y34155048D01*
X40171667Y33583619D01*
X40790715Y33583619D01*
X45553334Y33583619D02*
X45220000Y34059810D01*
X44981905Y33583619D02*
X44981905Y34583619D01*
X45362858Y34583619D01*
X45458096Y34536000D01*
X45505715Y34488381D01*
X45553334Y34393143D01*
X45553334Y34250286D01*
X45505715Y34155048D01*
X45458096Y34107429D01*
X45362858Y34059810D01*
X44981905Y34059810D01*
X45886667Y34583619D02*
X46505715Y34583619D01*
X46172381Y34202667D01*
X46315239Y34202667D01*
X46410477Y34155048D01*
X46458096Y34107429D01*
X46505715Y34012190D01*
X46505715Y33774095D01*
X46458096Y33678857D01*
X46410477Y33631238D01*
X46315239Y33583619D01*
X46029524Y33583619D01*
X45934286Y33631238D01*
X45886667Y33678857D01*
X62063334Y66857619D02*
X61730000Y67333810D01*
X61491905Y66857619D02*
X61491905Y67857619D01*
X61872858Y67857619D01*
X61968096Y67810000D01*
X62015715Y67762381D01*
X62063334Y67667143D01*
X62063334Y67524286D01*
X62015715Y67429048D01*
X61968096Y67381429D01*
X61872858Y67333810D01*
X61491905Y67333810D01*
X62920477Y67524286D02*
X62920477Y66857619D01*
X62682381Y67905238D02*
X62444286Y67190952D01*
X63063334Y67190952D01*
X62063334Y64317619D02*
X61730000Y64793810D01*
X61491905Y64317619D02*
X61491905Y65317619D01*
X61872858Y65317619D01*
X61968096Y65270000D01*
X62015715Y65222381D01*
X62063334Y65127143D01*
X62063334Y64984286D01*
X62015715Y64889048D01*
X61968096Y64841429D01*
X61872858Y64793810D01*
X61491905Y64793810D01*
X62968096Y65317619D02*
X62491905Y65317619D01*
X62444286Y64841429D01*
X62491905Y64889048D01*
X62587143Y64936667D01*
X62825239Y64936667D01*
X62920477Y64889048D01*
X62968096Y64841429D01*
X63015715Y64746190D01*
X63015715Y64508095D01*
X62968096Y64412857D01*
X62920477Y64365238D01*
X62825239Y64317619D01*
X62587143Y64317619D01*
X62491905Y64365238D01*
X62444286Y64412857D01*
X62063334Y61815019D02*
X61730000Y62291210D01*
X61491905Y61815019D02*
X61491905Y62815019D01*
X61872858Y62815019D01*
X61968096Y62767400D01*
X62015715Y62719781D01*
X62063334Y62624543D01*
X62063334Y62481686D01*
X62015715Y62386448D01*
X61968096Y62338829D01*
X61872858Y62291210D01*
X61491905Y62291210D01*
X62920477Y62815019D02*
X62730000Y62815019D01*
X62634762Y62767400D01*
X62587143Y62719781D01*
X62491905Y62576924D01*
X62444286Y62386448D01*
X62444286Y62005495D01*
X62491905Y61910257D01*
X62539524Y61862638D01*
X62634762Y61815019D01*
X62825239Y61815019D01*
X62920477Y61862638D01*
X62968096Y61910257D01*
X63015715Y62005495D01*
X63015715Y62243590D01*
X62968096Y62338829D01*
X62920477Y62386448D01*
X62825239Y62434067D01*
X62634762Y62434067D01*
X62539524Y62386448D01*
X62491905Y62338829D01*
X62444286Y62243590D01*
X62063334Y59237619D02*
X61730000Y59713810D01*
X61491905Y59237619D02*
X61491905Y60237619D01*
X61872858Y60237619D01*
X61968096Y60190000D01*
X62015715Y60142381D01*
X62063334Y60047143D01*
X62063334Y59904286D01*
X62015715Y59809048D01*
X61968096Y59761429D01*
X61872858Y59713810D01*
X61491905Y59713810D01*
X62396667Y60237619D02*
X63063334Y60237619D01*
X62634762Y59237619D01*
X11263334Y52887619D02*
X10930000Y53363810D01*
X10691905Y52887619D02*
X10691905Y53887619D01*
X11072858Y53887619D01*
X11168096Y53840000D01*
X11215715Y53792381D01*
X11263334Y53697143D01*
X11263334Y53554286D01*
X11215715Y53459048D01*
X11168096Y53411429D01*
X11072858Y53363810D01*
X10691905Y53363810D01*
X11834762Y53459048D02*
X11739524Y53506667D01*
X11691905Y53554286D01*
X11644286Y53649524D01*
X11644286Y53697143D01*
X11691905Y53792381D01*
X11739524Y53840000D01*
X11834762Y53887619D01*
X12025239Y53887619D01*
X12120477Y53840000D01*
X12168096Y53792381D01*
X12215715Y53697143D01*
X12215715Y53649524D01*
X12168096Y53554286D01*
X12120477Y53506667D01*
X12025239Y53459048D01*
X11834762Y53459048D01*
X11739524Y53411429D01*
X11691905Y53363810D01*
X11644286Y53268571D01*
X11644286Y53078095D01*
X11691905Y52982857D01*
X11739524Y52935238D01*
X11834762Y52887619D01*
X12025239Y52887619D01*
X12120477Y52935238D01*
X12168096Y52982857D01*
X12215715Y53078095D01*
X12215715Y53268571D01*
X12168096Y53363810D01*
X12120477Y53411429D01*
X12025239Y53459048D01*
X11263334Y50347619D02*
X10930000Y50823810D01*
X10691905Y50347619D02*
X10691905Y51347619D01*
X11072858Y51347619D01*
X11168096Y51300000D01*
X11215715Y51252381D01*
X11263334Y51157143D01*
X11263334Y51014286D01*
X11215715Y50919048D01*
X11168096Y50871429D01*
X11072858Y50823810D01*
X10691905Y50823810D01*
X11739524Y50347619D02*
X11930000Y50347619D01*
X12025239Y50395238D01*
X12072858Y50442857D01*
X12168096Y50585714D01*
X12215715Y50776190D01*
X12215715Y51157143D01*
X12168096Y51252381D01*
X12120477Y51300000D01*
X12025239Y51347619D01*
X11834762Y51347619D01*
X11739524Y51300000D01*
X11691905Y51252381D01*
X11644286Y51157143D01*
X11644286Y50919048D01*
X11691905Y50823810D01*
X11739524Y50776190D01*
X11834762Y50728571D01*
X12025239Y50728571D01*
X12120477Y50776190D01*
X12168096Y50823810D01*
X12215715Y50919048D01*
X12199881Y47617143D02*
X11723690Y47283809D01*
X12199881Y47045714D02*
X11199881Y47045714D01*
X11199881Y47426667D01*
X11247500Y47521905D01*
X11295119Y47569524D01*
X11390357Y47617143D01*
X11533214Y47617143D01*
X11628452Y47569524D01*
X11676071Y47521905D01*
X11723690Y47426667D01*
X11723690Y47045714D01*
X12199881Y48569524D02*
X12199881Y47998095D01*
X12199881Y48283809D02*
X11199881Y48283809D01*
X11342738Y48188571D01*
X11437976Y48093333D01*
X11485595Y47998095D01*
X11199881Y49188571D02*
X11199881Y49283810D01*
X11247500Y49379048D01*
X11295119Y49426667D01*
X11390357Y49474286D01*
X11580833Y49521905D01*
X11818929Y49521905D01*
X12009405Y49474286D01*
X12104643Y49426667D01*
X12152262Y49379048D01*
X12199881Y49283810D01*
X12199881Y49188571D01*
X12152262Y49093333D01*
X12104643Y49045714D01*
X12009405Y48998095D01*
X11818929Y48950476D01*
X11580833Y48950476D01*
X11390357Y48998095D01*
X11295119Y49045714D01*
X11247500Y49093333D01*
X11199881Y49188571D01*
X12263381Y44442143D02*
X11787190Y44108809D01*
X12263381Y43870714D02*
X11263381Y43870714D01*
X11263381Y44251667D01*
X11311000Y44346905D01*
X11358619Y44394524D01*
X11453857Y44442143D01*
X11596714Y44442143D01*
X11691952Y44394524D01*
X11739571Y44346905D01*
X11787190Y44251667D01*
X11787190Y43870714D01*
X12263381Y45394524D02*
X12263381Y44823095D01*
X12263381Y45108809D02*
X11263381Y45108809D01*
X11406238Y45013571D01*
X11501476Y44918333D01*
X11549095Y44823095D01*
X12263381Y46346905D02*
X12263381Y45775476D01*
X12263381Y46061190D02*
X11263381Y46061190D01*
X11406238Y45965952D01*
X11501476Y45870714D01*
X11549095Y45775476D01*
X10279143Y38282619D02*
X9945809Y38758810D01*
X9707714Y38282619D02*
X9707714Y39282619D01*
X10088667Y39282619D01*
X10183905Y39235000D01*
X10231524Y39187381D01*
X10279143Y39092143D01*
X10279143Y38949286D01*
X10231524Y38854048D01*
X10183905Y38806429D01*
X10088667Y38758810D01*
X9707714Y38758810D01*
X11231524Y38282619D02*
X10660095Y38282619D01*
X10945809Y38282619D02*
X10945809Y39282619D01*
X10850571Y39139762D01*
X10755333Y39044524D01*
X10660095Y38996905D01*
X11612476Y39187381D02*
X11660095Y39235000D01*
X11755333Y39282619D01*
X11993429Y39282619D01*
X12088667Y39235000D01*
X12136286Y39187381D01*
X12183905Y39092143D01*
X12183905Y38996905D01*
X12136286Y38854048D01*
X11564857Y38282619D01*
X12183905Y38282619D01*
X12263381Y41521143D02*
X11787190Y41187809D01*
X12263381Y40949714D02*
X11263381Y40949714D01*
X11263381Y41330667D01*
X11311000Y41425905D01*
X11358619Y41473524D01*
X11453857Y41521143D01*
X11596714Y41521143D01*
X11691952Y41473524D01*
X11739571Y41425905D01*
X11787190Y41330667D01*
X11787190Y40949714D01*
X12263381Y42473524D02*
X12263381Y41902095D01*
X12263381Y42187809D02*
X11263381Y42187809D01*
X11406238Y42092571D01*
X11501476Y41997333D01*
X11549095Y41902095D01*
X11263381Y42806857D02*
X11263381Y43425905D01*
X11644333Y43092571D01*
X11644333Y43235429D01*
X11691952Y43330667D01*
X11739571Y43378286D01*
X11834810Y43425905D01*
X12072905Y43425905D01*
X12168143Y43378286D01*
X12215762Y43330667D01*
X12263381Y43235429D01*
X12263381Y42949714D01*
X12215762Y42854476D01*
X12168143Y42806857D01*
X10279143Y35742619D02*
X9945809Y36218810D01*
X9707714Y35742619D02*
X9707714Y36742619D01*
X10088667Y36742619D01*
X10183905Y36695000D01*
X10231524Y36647381D01*
X10279143Y36552143D01*
X10279143Y36409286D01*
X10231524Y36314048D01*
X10183905Y36266429D01*
X10088667Y36218810D01*
X9707714Y36218810D01*
X11231524Y35742619D02*
X10660095Y35742619D01*
X10945809Y35742619D02*
X10945809Y36742619D01*
X10850571Y36599762D01*
X10755333Y36504524D01*
X10660095Y36456905D01*
X12088667Y36409286D02*
X12088667Y35742619D01*
X11850571Y36790238D02*
X11612476Y36075952D01*
X12231524Y36075952D01*
X2984595Y41886119D02*
X2984595Y41076595D01*
X3032214Y40981357D01*
X3079833Y40933738D01*
X3175071Y40886119D01*
X3365548Y40886119D01*
X3460786Y40933738D01*
X3508405Y40981357D01*
X3556024Y41076595D01*
X3556024Y41886119D01*
X3984595Y41790881D02*
X4032214Y41838500D01*
X4127452Y41886119D01*
X4365548Y41886119D01*
X4460786Y41838500D01*
X4508405Y41790881D01*
X4556024Y41695643D01*
X4556024Y41600405D01*
X4508405Y41457548D01*
X3936976Y40886119D01*
X4556024Y40886119D01*
X61796667Y8961429D02*
X61463333Y8961429D01*
X61463333Y8437619D02*
X61463333Y9437619D01*
X61939524Y9437619D01*
X62844286Y8437619D02*
X62272857Y8437619D01*
X62558571Y8437619D02*
X62558571Y9437619D01*
X62463333Y9294762D01*
X62368095Y9199524D01*
X62272857Y9151905D01*
M02*
