G04 #@! TF.FileFunction,Copper,L2,Bot,Signal*
%FSLAX46Y46*%
G04 Gerber Fmt 4.6, Leading zero omitted, Abs format (unit mm)*
G04 Created by KiCad (PCBNEW 4.0.7) date Sun Dec 10 04:28:40 2017*
%MOMM*%
%LPD*%
G01*
G04 APERTURE LIST*
%ADD10C,0.127000*%
%ADD11C,2.300000*%
%ADD12R,2.300000X2.300000*%
%ADD13R,1.727200X2.032000*%
%ADD14O,1.727200X2.032000*%
%ADD15C,1.420000*%
%ADD16C,2.800000*%
%ADD17C,0.600000*%
%ADD18C,0.550000*%
%ADD19C,0.254000*%
G04 APERTURE END LIST*
D10*
D11*
X49530000Y7155000D03*
X44450000Y7155000D03*
X41910000Y7155000D03*
X46990000Y7155000D03*
X52070000Y7155000D03*
X54610000Y7155000D03*
X38100000Y7155000D03*
X35560000Y7155000D03*
X33020000Y7155000D03*
X30480000Y7155000D03*
X27940000Y7155000D03*
D12*
X25400000Y7155000D03*
X25400000Y7155000D03*
D11*
X27940000Y7155000D03*
X30480000Y7155000D03*
X33020000Y7155000D03*
X35560000Y7155000D03*
X38100000Y7155000D03*
D13*
X33655000Y67310000D03*
D14*
X36195000Y67310000D03*
X38735000Y67310000D03*
X41275000Y67310000D03*
X43815000Y67310000D03*
X46355000Y67310000D03*
D12*
X5080000Y65405000D03*
D11*
X7620000Y65405000D03*
D12*
X67310000Y7155000D03*
D11*
X69850000Y7155000D03*
X72390000Y7155000D03*
X74930000Y7155000D03*
D15*
X9200000Y19440005D03*
X11700000Y19440005D03*
X13700000Y19440005D03*
X16200000Y19440005D03*
X9200000Y16820005D03*
X11700000Y16820005D03*
X13700000Y16820005D03*
X16200000Y16820005D03*
D16*
X19270000Y14110005D03*
X19270000Y19790005D03*
X6130000Y19790005D03*
X6130000Y14110005D03*
D17*
X11430000Y45720000D03*
X11430000Y44450000D03*
X4000000Y53000000D03*
X7000000Y53000000D03*
X75000000Y59000000D03*
X41000000Y51000000D03*
X43523600Y51067364D03*
X39370000Y43815000D03*
X10160000Y46355000D03*
X9525000Y46355000D03*
X8890000Y46355000D03*
X8890000Y48895000D03*
X9525000Y48895000D03*
X10160000Y48895000D03*
X45085000Y44450000D03*
X36195000Y62230000D03*
X38735000Y61595000D03*
X39493838Y55680782D03*
X17780000Y48260000D03*
X12700000Y50165000D03*
X4445000Y53975000D03*
X18415000Y22860000D03*
X15240000Y26670000D03*
X34290000Y54610000D03*
X31750000Y50165000D03*
D18*
X37136400Y55245000D03*
D17*
X32385000Y49530000D03*
X37482196Y54576768D03*
X33020000Y50165000D03*
X42545000Y60960000D03*
X44450000Y59055000D03*
X43815000Y62230000D03*
X45085000Y59690000D03*
X13335000Y40005000D03*
X15240000Y40005000D03*
D18*
X36830000Y52102457D03*
D17*
X36965891Y50943656D03*
X34290000Y50800000D03*
X36195000Y52705000D03*
X15875000Y47625000D03*
X16510000Y34290000D03*
X15240000Y52949401D03*
X15240000Y51435000D03*
D19*
X11430000Y44450000D02*
X11430000Y45720000D01*
X32385000Y52705000D02*
X34290000Y54610000D01*
X31750000Y50165000D02*
X31750000Y52070000D01*
X31750000Y52070000D02*
X32385000Y52705000D01*
X34139100Y52738497D02*
X36645603Y55245000D01*
X36645603Y55245000D02*
X37136400Y55245000D01*
X32385000Y49530000D02*
X32385000Y50984397D01*
X32385000Y50984397D02*
X34139100Y52738497D01*
X34925000Y52705000D02*
X36796768Y54576768D01*
X36796768Y54576768D02*
X37482196Y54576768D01*
X34925000Y52705000D02*
X33020000Y50800000D01*
X33020000Y50800000D02*
X33020000Y50165000D01*
X44450000Y59055000D02*
X42545000Y60960000D01*
X45085000Y59690000D02*
X45085000Y60960000D01*
X45085000Y60960000D02*
X43815000Y62230000D01*
X15240000Y40005000D02*
X13335000Y40005000D01*
X36965891Y50943656D02*
X36965891Y51966566D01*
X36965891Y51966566D02*
X36830000Y52102457D01*
X36195000Y52705000D02*
X34290000Y50800000D01*
X16510000Y34290000D02*
X16510000Y46990000D01*
X16510000Y46990000D02*
X15875000Y47625000D01*
X15240000Y51435000D02*
X15240000Y52949401D01*
G36*
X79544000Y456000D02*
X456000Y456000D01*
X456000Y8305000D01*
X23861536Y8305000D01*
X23861536Y6005000D01*
X23888103Y5863810D01*
X23971546Y5734135D01*
X24098866Y5647141D01*
X24250000Y5616536D01*
X26550000Y5616536D01*
X26691190Y5643103D01*
X26820865Y5726546D01*
X26907859Y5853866D01*
X26938464Y6005000D01*
X26938464Y6851801D01*
X28948735Y6851801D01*
X29181325Y6288891D01*
X29611626Y5857838D01*
X30174129Y5624266D01*
X30783199Y5623735D01*
X31346109Y5856325D01*
X31777162Y6286626D01*
X32010734Y6849129D01*
X32010736Y6851801D01*
X34028735Y6851801D01*
X34261325Y6288891D01*
X34691626Y5857838D01*
X35254129Y5624266D01*
X35863199Y5623735D01*
X36426109Y5856325D01*
X36857162Y6286626D01*
X37090734Y6849129D01*
X37090736Y6851801D01*
X40378735Y6851801D01*
X40611325Y6288891D01*
X41041626Y5857838D01*
X41604129Y5624266D01*
X42213199Y5623735D01*
X42776109Y5856325D01*
X43207162Y6286626D01*
X43440734Y6849129D01*
X43440736Y6851801D01*
X45458735Y6851801D01*
X45691325Y6288891D01*
X46121626Y5857838D01*
X46684129Y5624266D01*
X47293199Y5623735D01*
X47856109Y5856325D01*
X48287162Y6286626D01*
X48520734Y6849129D01*
X48520736Y6851801D01*
X50538735Y6851801D01*
X50771325Y6288891D01*
X51201626Y5857838D01*
X51764129Y5624266D01*
X52373199Y5623735D01*
X52936109Y5856325D01*
X53367162Y6286626D01*
X53600734Y6849129D01*
X53601265Y7458199D01*
X53368675Y8021109D01*
X53085280Y8305000D01*
X65771536Y8305000D01*
X65771536Y6005000D01*
X65798103Y5863810D01*
X65881546Y5734135D01*
X66008866Y5647141D01*
X66160000Y5616536D01*
X68460000Y5616536D01*
X68601190Y5643103D01*
X68730865Y5726546D01*
X68817859Y5853866D01*
X68846146Y5993555D01*
X68981626Y5857838D01*
X69544129Y5624266D01*
X70153199Y5623735D01*
X70716109Y5856325D01*
X71147162Y6286626D01*
X71380734Y6849129D01*
X71381265Y7458199D01*
X71148675Y8021109D01*
X70718374Y8452162D01*
X70155871Y8685734D01*
X69546801Y8686265D01*
X68983891Y8453675D01*
X68846328Y8316352D01*
X68821897Y8446190D01*
X68738454Y8575865D01*
X68611134Y8662859D01*
X68460000Y8693464D01*
X66160000Y8693464D01*
X66018810Y8666897D01*
X65889135Y8583454D01*
X65802141Y8456134D01*
X65771536Y8305000D01*
X53085280Y8305000D01*
X52938374Y8452162D01*
X52375871Y8685734D01*
X51766801Y8686265D01*
X51203891Y8453675D01*
X50772838Y8023374D01*
X50539266Y7460871D01*
X50538735Y6851801D01*
X48520736Y6851801D01*
X48521265Y7458199D01*
X48288675Y8021109D01*
X47858374Y8452162D01*
X47295871Y8685734D01*
X46686801Y8686265D01*
X46123891Y8453675D01*
X45692838Y8023374D01*
X45459266Y7460871D01*
X45458735Y6851801D01*
X43440736Y6851801D01*
X43441265Y7458199D01*
X43208675Y8021109D01*
X42778374Y8452162D01*
X42215871Y8685734D01*
X41606801Y8686265D01*
X41043891Y8453675D01*
X40612838Y8023374D01*
X40379266Y7460871D01*
X40378735Y6851801D01*
X37090736Y6851801D01*
X37091265Y7458199D01*
X36858675Y8021109D01*
X36428374Y8452162D01*
X35865871Y8685734D01*
X35256801Y8686265D01*
X34693891Y8453675D01*
X34262838Y8023374D01*
X34029266Y7460871D01*
X34028735Y6851801D01*
X32010736Y6851801D01*
X32011265Y7458199D01*
X31778675Y8021109D01*
X31348374Y8452162D01*
X30785871Y8685734D01*
X30176801Y8686265D01*
X29613891Y8453675D01*
X29182838Y8023374D01*
X28949266Y7460871D01*
X28948735Y6851801D01*
X26938464Y6851801D01*
X26938464Y8305000D01*
X26911897Y8446190D01*
X26828454Y8575865D01*
X26701134Y8662859D01*
X26550000Y8693464D01*
X24250000Y8693464D01*
X24108810Y8666897D01*
X23979135Y8583454D01*
X23892141Y8456134D01*
X23861536Y8305000D01*
X456000Y8305000D01*
X456000Y13757296D01*
X4348691Y13757296D01*
X4619261Y13102467D01*
X5119827Y12601027D01*
X5774183Y12329315D01*
X6482709Y12328696D01*
X7137538Y12599266D01*
X7638978Y13099832D01*
X7910690Y13754188D01*
X7910692Y13757296D01*
X17488691Y13757296D01*
X17759261Y13102467D01*
X18259827Y12601027D01*
X18914183Y12329315D01*
X19622709Y12328696D01*
X20277538Y12599266D01*
X20778978Y13099832D01*
X21050690Y13754188D01*
X21051309Y14462714D01*
X20780739Y15117543D01*
X20280173Y15618983D01*
X19625817Y15890695D01*
X18917291Y15891314D01*
X18262462Y15620744D01*
X17761022Y15120178D01*
X17489310Y14465822D01*
X17488691Y13757296D01*
X7910692Y13757296D01*
X7911309Y14462714D01*
X7640739Y15117543D01*
X7140173Y15618983D01*
X6485817Y15890695D01*
X5777291Y15891314D01*
X5122462Y15620744D01*
X4621022Y15120178D01*
X4349310Y14465822D01*
X4348691Y13757296D01*
X456000Y13757296D01*
X456000Y16603944D01*
X8108811Y16603944D01*
X8274556Y16202810D01*
X8581191Y15895639D01*
X8982035Y15729195D01*
X9416061Y15728816D01*
X9817195Y15894561D01*
X10124366Y16201196D01*
X10290810Y16602040D01*
X10290811Y16603944D01*
X10608811Y16603944D01*
X10774556Y16202810D01*
X11081191Y15895639D01*
X11482035Y15729195D01*
X11916061Y15728816D01*
X12317195Y15894561D01*
X12624366Y16201196D01*
X12699980Y16383297D01*
X12774556Y16202810D01*
X13081191Y15895639D01*
X13482035Y15729195D01*
X13916061Y15728816D01*
X14317195Y15894561D01*
X14624366Y16201196D01*
X14790810Y16602040D01*
X14791189Y17036066D01*
X14625444Y17437200D01*
X14318809Y17744371D01*
X13917965Y17910815D01*
X13483939Y17911194D01*
X13082805Y17745449D01*
X12775634Y17438814D01*
X12700020Y17256713D01*
X12625444Y17437200D01*
X12318809Y17744371D01*
X11917965Y17910815D01*
X11483939Y17911194D01*
X11082805Y17745449D01*
X10775634Y17438814D01*
X10609190Y17037970D01*
X10608811Y16603944D01*
X10290811Y16603944D01*
X10291189Y17036066D01*
X10125444Y17437200D01*
X9818809Y17744371D01*
X9417965Y17910815D01*
X8983939Y17911194D01*
X8582805Y17745449D01*
X8275634Y17438814D01*
X8109190Y17037970D01*
X8108811Y16603944D01*
X456000Y16603944D01*
X456000Y19437296D01*
X4348691Y19437296D01*
X4619261Y18782467D01*
X5119827Y18281027D01*
X5774183Y18009315D01*
X6482709Y18008696D01*
X7137538Y18279266D01*
X7638978Y18779832D01*
X7823389Y19223944D01*
X8108811Y19223944D01*
X8274556Y18822810D01*
X8581191Y18515639D01*
X8982035Y18349195D01*
X9416061Y18348816D01*
X9817195Y18514561D01*
X10124366Y18821196D01*
X10290810Y19222040D01*
X10290811Y19223944D01*
X10608811Y19223944D01*
X10774556Y18822810D01*
X11081191Y18515639D01*
X11482035Y18349195D01*
X11916061Y18348816D01*
X12317195Y18514561D01*
X12624366Y18821196D01*
X12699980Y19003297D01*
X12774556Y18822810D01*
X13081191Y18515639D01*
X13482035Y18349195D01*
X13916061Y18348816D01*
X14317195Y18514561D01*
X14624366Y18821196D01*
X14790810Y19222040D01*
X14790997Y19437296D01*
X17488691Y19437296D01*
X17759261Y18782467D01*
X18259827Y18281027D01*
X18914183Y18009315D01*
X19622709Y18008696D01*
X20277538Y18279266D01*
X20778978Y18779832D01*
X21050690Y19434188D01*
X21051309Y20142714D01*
X20780739Y20797543D01*
X20280173Y21298983D01*
X19625817Y21570695D01*
X18917291Y21571314D01*
X18262462Y21300744D01*
X17761022Y20800178D01*
X17489310Y20145822D01*
X17488691Y19437296D01*
X14790997Y19437296D01*
X14791189Y19656066D01*
X14625444Y20057200D01*
X14318809Y20364371D01*
X13917965Y20530815D01*
X13483939Y20531194D01*
X13082805Y20365449D01*
X12775634Y20058814D01*
X12700020Y19876713D01*
X12625444Y20057200D01*
X12318809Y20364371D01*
X11917965Y20530815D01*
X11483939Y20531194D01*
X11082805Y20365449D01*
X10775634Y20058814D01*
X10609190Y19657970D01*
X10608811Y19223944D01*
X10290811Y19223944D01*
X10291189Y19656066D01*
X10125444Y20057200D01*
X9818809Y20364371D01*
X9417965Y20530815D01*
X8983939Y20531194D01*
X8582805Y20365449D01*
X8275634Y20058814D01*
X8109190Y19657970D01*
X8108811Y19223944D01*
X7823389Y19223944D01*
X7910690Y19434188D01*
X7911309Y20142714D01*
X7640739Y20797543D01*
X7140173Y21298983D01*
X6485817Y21570695D01*
X5777291Y21571314D01*
X5122462Y21300744D01*
X4621022Y20800178D01*
X4349310Y20145822D01*
X4348691Y19437296D01*
X456000Y19437296D01*
X456000Y39870135D01*
X12653882Y39870135D01*
X12757339Y39619748D01*
X12948741Y39428013D01*
X13198946Y39324118D01*
X13469865Y39323882D01*
X13720252Y39427339D01*
X13790034Y39497000D01*
X14784874Y39497000D01*
X14853741Y39428013D01*
X15103946Y39324118D01*
X15374865Y39323882D01*
X15625252Y39427339D01*
X15816987Y39618741D01*
X15920882Y39868946D01*
X15921118Y40139865D01*
X15817661Y40390252D01*
X15626259Y40581987D01*
X15376054Y40685882D01*
X15105135Y40686118D01*
X14854748Y40582661D01*
X14784966Y40513000D01*
X13790126Y40513000D01*
X13721259Y40581987D01*
X13471054Y40685882D01*
X13200135Y40686118D01*
X12949748Y40582661D01*
X12758013Y40391259D01*
X12654118Y40141054D01*
X12653882Y39870135D01*
X456000Y39870135D01*
X456000Y45585135D01*
X10748882Y45585135D01*
X10852339Y45334748D01*
X10922000Y45264966D01*
X10922000Y44905126D01*
X10853013Y44836259D01*
X10749118Y44586054D01*
X10748882Y44315135D01*
X10852339Y44064748D01*
X11043741Y43873013D01*
X11293946Y43769118D01*
X11564865Y43768882D01*
X11815252Y43872339D01*
X12006987Y44063741D01*
X12110882Y44313946D01*
X12111118Y44584865D01*
X12007661Y44835252D01*
X11938000Y44905034D01*
X11938000Y45264874D01*
X12006987Y45333741D01*
X12110882Y45583946D01*
X12111118Y45854865D01*
X12007661Y46105252D01*
X11816259Y46296987D01*
X11566054Y46400882D01*
X11295135Y46401118D01*
X11044748Y46297661D01*
X10853013Y46106259D01*
X10749118Y45856054D01*
X10748882Y45585135D01*
X456000Y45585135D01*
X456000Y47490135D01*
X15193882Y47490135D01*
X15297339Y47239748D01*
X15488741Y47048013D01*
X15738946Y46944118D01*
X15837547Y46944032D01*
X16002000Y46779579D01*
X16002000Y34745126D01*
X15933013Y34676259D01*
X15829118Y34426054D01*
X15828882Y34155135D01*
X15932339Y33904748D01*
X16123741Y33713013D01*
X16373946Y33609118D01*
X16644865Y33608882D01*
X16895252Y33712339D01*
X17086987Y33903741D01*
X17190882Y34153946D01*
X17191118Y34424865D01*
X17087661Y34675252D01*
X17018000Y34745034D01*
X17018000Y46990000D01*
X16979331Y47184403D01*
X16869211Y47349210D01*
X16556033Y47662387D01*
X16556118Y47759865D01*
X16452661Y48010252D01*
X16261259Y48201987D01*
X16011054Y48305882D01*
X15740135Y48306118D01*
X15489748Y48202661D01*
X15298013Y48011259D01*
X15194118Y47761054D01*
X15193882Y47490135D01*
X456000Y47490135D01*
X456000Y50030135D01*
X31068882Y50030135D01*
X31172339Y49779748D01*
X31363741Y49588013D01*
X31613946Y49484118D01*
X31703959Y49484040D01*
X31703882Y49395135D01*
X31807339Y49144748D01*
X31998741Y48953013D01*
X32248946Y48849118D01*
X32519865Y48848882D01*
X32770252Y48952339D01*
X32961987Y49143741D01*
X33065882Y49393946D01*
X33065960Y49483959D01*
X33154865Y49483882D01*
X33405252Y49587339D01*
X33596987Y49778741D01*
X33700882Y50028946D01*
X33701118Y50299865D01*
X33597661Y50550252D01*
X33543214Y50604794D01*
X33608887Y50670467D01*
X33608882Y50665135D01*
X33712339Y50414748D01*
X33903741Y50223013D01*
X34153946Y50119118D01*
X34424865Y50118882D01*
X34675252Y50222339D01*
X34866987Y50413741D01*
X34970882Y50663946D01*
X34970968Y50762548D01*
X36175955Y51967535D01*
X36273546Y51731348D01*
X36457891Y51546681D01*
X36457891Y51398782D01*
X36388904Y51329915D01*
X36285009Y51079710D01*
X36284773Y50808791D01*
X36388230Y50558404D01*
X36579632Y50366669D01*
X36829837Y50262774D01*
X37100756Y50262538D01*
X37351143Y50365995D01*
X37542878Y50557397D01*
X37646773Y50807602D01*
X37647009Y51078521D01*
X37543552Y51328908D01*
X37473891Y51398690D01*
X37473891Y51942511D01*
X37485886Y51971398D01*
X37486114Y52232371D01*
X37386454Y52473566D01*
X37202079Y52658263D01*
X36961059Y52758343D01*
X36876047Y52758417D01*
X36876118Y52839865D01*
X36772661Y53090252D01*
X36581259Y53281987D01*
X36331054Y53385882D01*
X36324308Y53385888D01*
X37007188Y54068768D01*
X37027070Y54068768D01*
X37095937Y53999781D01*
X37346142Y53895886D01*
X37617061Y53895650D01*
X37867448Y53999107D01*
X38059183Y54190509D01*
X38163078Y54440714D01*
X38163314Y54711633D01*
X38059857Y54962020D01*
X37868455Y55153755D01*
X37792348Y55185357D01*
X37792514Y55374914D01*
X37692854Y55616109D01*
X37508479Y55800806D01*
X37267459Y55900886D01*
X37006486Y55901114D01*
X36765291Y55801454D01*
X36716752Y55753000D01*
X36645603Y55753000D01*
X36451200Y55714331D01*
X36286393Y55604211D01*
X33779890Y53097707D01*
X32258000Y51575817D01*
X32258000Y51859580D01*
X32744211Y52345790D01*
X32744213Y52345793D01*
X34327387Y53928967D01*
X34424865Y53928882D01*
X34675252Y54032339D01*
X34866987Y54223741D01*
X34970882Y54473946D01*
X34971118Y54744865D01*
X34867661Y54995252D01*
X34676259Y55186987D01*
X34426054Y55290882D01*
X34155135Y55291118D01*
X33904748Y55187661D01*
X33713013Y54996259D01*
X33609118Y54746054D01*
X33609032Y54647452D01*
X32025793Y53064213D01*
X32025790Y53064211D01*
X31390790Y52429210D01*
X31280669Y52264403D01*
X31242000Y52070000D01*
X31242000Y50620126D01*
X31173013Y50551259D01*
X31069118Y50301054D01*
X31068882Y50030135D01*
X456000Y50030135D01*
X456000Y52814536D01*
X14558882Y52814536D01*
X14662339Y52564149D01*
X14732000Y52494367D01*
X14732000Y51890126D01*
X14663013Y51821259D01*
X14559118Y51571054D01*
X14558882Y51300135D01*
X14662339Y51049748D01*
X14853741Y50858013D01*
X15103946Y50754118D01*
X15374865Y50753882D01*
X15625252Y50857339D01*
X15816987Y51048741D01*
X15920882Y51298946D01*
X15921118Y51569865D01*
X15817661Y51820252D01*
X15748000Y51890034D01*
X15748000Y52494275D01*
X15816987Y52563142D01*
X15920882Y52813347D01*
X15921118Y53084266D01*
X15817661Y53334653D01*
X15626259Y53526388D01*
X15376054Y53630283D01*
X15105135Y53630519D01*
X14854748Y53527062D01*
X14663013Y53335660D01*
X14559118Y53085455D01*
X14558882Y52814536D01*
X456000Y52814536D01*
X456000Y60825135D01*
X41863882Y60825135D01*
X41967339Y60574748D01*
X42158741Y60383013D01*
X42408946Y60279118D01*
X42507548Y60279032D01*
X43768967Y59017613D01*
X43768882Y58920135D01*
X43872339Y58669748D01*
X44063741Y58478013D01*
X44313946Y58374118D01*
X44584865Y58373882D01*
X44835252Y58477339D01*
X45026987Y58668741D01*
X45130882Y58918946D01*
X45130960Y59008959D01*
X45219865Y59008882D01*
X45470252Y59112339D01*
X45661987Y59303741D01*
X45765882Y59553946D01*
X45766118Y59824865D01*
X45662661Y60075252D01*
X45593000Y60145034D01*
X45593000Y60960000D01*
X45554331Y61154403D01*
X45554331Y61154404D01*
X45444210Y61319210D01*
X44496033Y62267387D01*
X44496118Y62364865D01*
X44392661Y62615252D01*
X44201259Y62806987D01*
X43951054Y62910882D01*
X43680135Y62911118D01*
X43429748Y62807661D01*
X43238013Y62616259D01*
X43134118Y62366054D01*
X43133882Y62095135D01*
X43237339Y61844748D01*
X43428741Y61653013D01*
X43678946Y61549118D01*
X43777548Y61549032D01*
X44577000Y60749580D01*
X44577000Y60145126D01*
X44508013Y60076259D01*
X44404118Y59826054D01*
X44404112Y59819308D01*
X43226033Y60997387D01*
X43226118Y61094865D01*
X43122661Y61345252D01*
X42931259Y61536987D01*
X42681054Y61640882D01*
X42410135Y61641118D01*
X42159748Y61537661D01*
X41968013Y61346259D01*
X41864118Y61096054D01*
X41863882Y60825135D01*
X456000Y60825135D01*
X456000Y66555000D01*
X3541536Y66555000D01*
X3541536Y64255000D01*
X3568103Y64113810D01*
X3651546Y63984135D01*
X3778866Y63897141D01*
X3930000Y63866536D01*
X6230000Y63866536D01*
X6371190Y63893103D01*
X6500865Y63976546D01*
X6587859Y64103866D01*
X6618464Y64255000D01*
X6618464Y66555000D01*
X6591897Y66696190D01*
X6508454Y66825865D01*
X6381134Y66912859D01*
X6230000Y66943464D01*
X3930000Y66943464D01*
X3788810Y66916897D01*
X3659135Y66833454D01*
X3572141Y66706134D01*
X3541536Y66555000D01*
X456000Y66555000D01*
X456000Y68326000D01*
X32402936Y68326000D01*
X32402936Y66294000D01*
X32429503Y66152810D01*
X32512946Y66023135D01*
X32640266Y65936141D01*
X32791400Y65905536D01*
X34518600Y65905536D01*
X34659790Y65932103D01*
X34789465Y66015546D01*
X34876459Y66142866D01*
X34907064Y66294000D01*
X34907064Y67489769D01*
X34950400Y67489769D01*
X34950400Y67130231D01*
X35045140Y66653943D01*
X35314935Y66250166D01*
X35718712Y65980371D01*
X36195000Y65885631D01*
X36671288Y65980371D01*
X37075065Y66250166D01*
X37344860Y66653943D01*
X37439600Y67130231D01*
X37439600Y67489769D01*
X40030400Y67489769D01*
X40030400Y67130231D01*
X40125140Y66653943D01*
X40394935Y66250166D01*
X40798712Y65980371D01*
X41275000Y65885631D01*
X41751288Y65980371D01*
X42155065Y66250166D01*
X42424860Y66653943D01*
X42519600Y67130231D01*
X42519600Y67489769D01*
X42570400Y67489769D01*
X42570400Y67130231D01*
X42665140Y66653943D01*
X42934935Y66250166D01*
X43338712Y65980371D01*
X43815000Y65885631D01*
X44291288Y65980371D01*
X44695065Y66250166D01*
X44964860Y66653943D01*
X45059600Y67130231D01*
X45059600Y67489769D01*
X45110400Y67489769D01*
X45110400Y67130231D01*
X45205140Y66653943D01*
X45474935Y66250166D01*
X45878712Y65980371D01*
X46355000Y65885631D01*
X46831288Y65980371D01*
X47235065Y66250166D01*
X47504860Y66653943D01*
X47599600Y67130231D01*
X47599600Y67489769D01*
X47504860Y67966057D01*
X47235065Y68369834D01*
X46831288Y68639629D01*
X46355000Y68734369D01*
X45878712Y68639629D01*
X45474935Y68369834D01*
X45205140Y67966057D01*
X45110400Y67489769D01*
X45059600Y67489769D01*
X44964860Y67966057D01*
X44695065Y68369834D01*
X44291288Y68639629D01*
X43815000Y68734369D01*
X43338712Y68639629D01*
X42934935Y68369834D01*
X42665140Y67966057D01*
X42570400Y67489769D01*
X42519600Y67489769D01*
X42424860Y67966057D01*
X42155065Y68369834D01*
X41751288Y68639629D01*
X41275000Y68734369D01*
X40798712Y68639629D01*
X40394935Y68369834D01*
X40125140Y67966057D01*
X40030400Y67489769D01*
X37439600Y67489769D01*
X37344860Y67966057D01*
X37075065Y68369834D01*
X36671288Y68639629D01*
X36195000Y68734369D01*
X35718712Y68639629D01*
X35314935Y68369834D01*
X35045140Y67966057D01*
X34950400Y67489769D01*
X34907064Y67489769D01*
X34907064Y68326000D01*
X34880497Y68467190D01*
X34797054Y68596865D01*
X34669734Y68683859D01*
X34518600Y68714464D01*
X32791400Y68714464D01*
X32650210Y68687897D01*
X32520535Y68604454D01*
X32433541Y68477134D01*
X32402936Y68326000D01*
X456000Y68326000D01*
X456000Y71544000D01*
X79544000Y71544000D01*
X79544000Y456000D01*
X79544000Y456000D01*
G37*
X79544000Y456000D02*
X456000Y456000D01*
X456000Y8305000D01*
X23861536Y8305000D01*
X23861536Y6005000D01*
X23888103Y5863810D01*
X23971546Y5734135D01*
X24098866Y5647141D01*
X24250000Y5616536D01*
X26550000Y5616536D01*
X26691190Y5643103D01*
X26820865Y5726546D01*
X26907859Y5853866D01*
X26938464Y6005000D01*
X26938464Y6851801D01*
X28948735Y6851801D01*
X29181325Y6288891D01*
X29611626Y5857838D01*
X30174129Y5624266D01*
X30783199Y5623735D01*
X31346109Y5856325D01*
X31777162Y6286626D01*
X32010734Y6849129D01*
X32010736Y6851801D01*
X34028735Y6851801D01*
X34261325Y6288891D01*
X34691626Y5857838D01*
X35254129Y5624266D01*
X35863199Y5623735D01*
X36426109Y5856325D01*
X36857162Y6286626D01*
X37090734Y6849129D01*
X37090736Y6851801D01*
X40378735Y6851801D01*
X40611325Y6288891D01*
X41041626Y5857838D01*
X41604129Y5624266D01*
X42213199Y5623735D01*
X42776109Y5856325D01*
X43207162Y6286626D01*
X43440734Y6849129D01*
X43440736Y6851801D01*
X45458735Y6851801D01*
X45691325Y6288891D01*
X46121626Y5857838D01*
X46684129Y5624266D01*
X47293199Y5623735D01*
X47856109Y5856325D01*
X48287162Y6286626D01*
X48520734Y6849129D01*
X48520736Y6851801D01*
X50538735Y6851801D01*
X50771325Y6288891D01*
X51201626Y5857838D01*
X51764129Y5624266D01*
X52373199Y5623735D01*
X52936109Y5856325D01*
X53367162Y6286626D01*
X53600734Y6849129D01*
X53601265Y7458199D01*
X53368675Y8021109D01*
X53085280Y8305000D01*
X65771536Y8305000D01*
X65771536Y6005000D01*
X65798103Y5863810D01*
X65881546Y5734135D01*
X66008866Y5647141D01*
X66160000Y5616536D01*
X68460000Y5616536D01*
X68601190Y5643103D01*
X68730865Y5726546D01*
X68817859Y5853866D01*
X68846146Y5993555D01*
X68981626Y5857838D01*
X69544129Y5624266D01*
X70153199Y5623735D01*
X70716109Y5856325D01*
X71147162Y6286626D01*
X71380734Y6849129D01*
X71381265Y7458199D01*
X71148675Y8021109D01*
X70718374Y8452162D01*
X70155871Y8685734D01*
X69546801Y8686265D01*
X68983891Y8453675D01*
X68846328Y8316352D01*
X68821897Y8446190D01*
X68738454Y8575865D01*
X68611134Y8662859D01*
X68460000Y8693464D01*
X66160000Y8693464D01*
X66018810Y8666897D01*
X65889135Y8583454D01*
X65802141Y8456134D01*
X65771536Y8305000D01*
X53085280Y8305000D01*
X52938374Y8452162D01*
X52375871Y8685734D01*
X51766801Y8686265D01*
X51203891Y8453675D01*
X50772838Y8023374D01*
X50539266Y7460871D01*
X50538735Y6851801D01*
X48520736Y6851801D01*
X48521265Y7458199D01*
X48288675Y8021109D01*
X47858374Y8452162D01*
X47295871Y8685734D01*
X46686801Y8686265D01*
X46123891Y8453675D01*
X45692838Y8023374D01*
X45459266Y7460871D01*
X45458735Y6851801D01*
X43440736Y6851801D01*
X43441265Y7458199D01*
X43208675Y8021109D01*
X42778374Y8452162D01*
X42215871Y8685734D01*
X41606801Y8686265D01*
X41043891Y8453675D01*
X40612838Y8023374D01*
X40379266Y7460871D01*
X40378735Y6851801D01*
X37090736Y6851801D01*
X37091265Y7458199D01*
X36858675Y8021109D01*
X36428374Y8452162D01*
X35865871Y8685734D01*
X35256801Y8686265D01*
X34693891Y8453675D01*
X34262838Y8023374D01*
X34029266Y7460871D01*
X34028735Y6851801D01*
X32010736Y6851801D01*
X32011265Y7458199D01*
X31778675Y8021109D01*
X31348374Y8452162D01*
X30785871Y8685734D01*
X30176801Y8686265D01*
X29613891Y8453675D01*
X29182838Y8023374D01*
X28949266Y7460871D01*
X28948735Y6851801D01*
X26938464Y6851801D01*
X26938464Y8305000D01*
X26911897Y8446190D01*
X26828454Y8575865D01*
X26701134Y8662859D01*
X26550000Y8693464D01*
X24250000Y8693464D01*
X24108810Y8666897D01*
X23979135Y8583454D01*
X23892141Y8456134D01*
X23861536Y8305000D01*
X456000Y8305000D01*
X456000Y13757296D01*
X4348691Y13757296D01*
X4619261Y13102467D01*
X5119827Y12601027D01*
X5774183Y12329315D01*
X6482709Y12328696D01*
X7137538Y12599266D01*
X7638978Y13099832D01*
X7910690Y13754188D01*
X7910692Y13757296D01*
X17488691Y13757296D01*
X17759261Y13102467D01*
X18259827Y12601027D01*
X18914183Y12329315D01*
X19622709Y12328696D01*
X20277538Y12599266D01*
X20778978Y13099832D01*
X21050690Y13754188D01*
X21051309Y14462714D01*
X20780739Y15117543D01*
X20280173Y15618983D01*
X19625817Y15890695D01*
X18917291Y15891314D01*
X18262462Y15620744D01*
X17761022Y15120178D01*
X17489310Y14465822D01*
X17488691Y13757296D01*
X7910692Y13757296D01*
X7911309Y14462714D01*
X7640739Y15117543D01*
X7140173Y15618983D01*
X6485817Y15890695D01*
X5777291Y15891314D01*
X5122462Y15620744D01*
X4621022Y15120178D01*
X4349310Y14465822D01*
X4348691Y13757296D01*
X456000Y13757296D01*
X456000Y16603944D01*
X8108811Y16603944D01*
X8274556Y16202810D01*
X8581191Y15895639D01*
X8982035Y15729195D01*
X9416061Y15728816D01*
X9817195Y15894561D01*
X10124366Y16201196D01*
X10290810Y16602040D01*
X10290811Y16603944D01*
X10608811Y16603944D01*
X10774556Y16202810D01*
X11081191Y15895639D01*
X11482035Y15729195D01*
X11916061Y15728816D01*
X12317195Y15894561D01*
X12624366Y16201196D01*
X12699980Y16383297D01*
X12774556Y16202810D01*
X13081191Y15895639D01*
X13482035Y15729195D01*
X13916061Y15728816D01*
X14317195Y15894561D01*
X14624366Y16201196D01*
X14790810Y16602040D01*
X14791189Y17036066D01*
X14625444Y17437200D01*
X14318809Y17744371D01*
X13917965Y17910815D01*
X13483939Y17911194D01*
X13082805Y17745449D01*
X12775634Y17438814D01*
X12700020Y17256713D01*
X12625444Y17437200D01*
X12318809Y17744371D01*
X11917965Y17910815D01*
X11483939Y17911194D01*
X11082805Y17745449D01*
X10775634Y17438814D01*
X10609190Y17037970D01*
X10608811Y16603944D01*
X10290811Y16603944D01*
X10291189Y17036066D01*
X10125444Y17437200D01*
X9818809Y17744371D01*
X9417965Y17910815D01*
X8983939Y17911194D01*
X8582805Y17745449D01*
X8275634Y17438814D01*
X8109190Y17037970D01*
X8108811Y16603944D01*
X456000Y16603944D01*
X456000Y19437296D01*
X4348691Y19437296D01*
X4619261Y18782467D01*
X5119827Y18281027D01*
X5774183Y18009315D01*
X6482709Y18008696D01*
X7137538Y18279266D01*
X7638978Y18779832D01*
X7823389Y19223944D01*
X8108811Y19223944D01*
X8274556Y18822810D01*
X8581191Y18515639D01*
X8982035Y18349195D01*
X9416061Y18348816D01*
X9817195Y18514561D01*
X10124366Y18821196D01*
X10290810Y19222040D01*
X10290811Y19223944D01*
X10608811Y19223944D01*
X10774556Y18822810D01*
X11081191Y18515639D01*
X11482035Y18349195D01*
X11916061Y18348816D01*
X12317195Y18514561D01*
X12624366Y18821196D01*
X12699980Y19003297D01*
X12774556Y18822810D01*
X13081191Y18515639D01*
X13482035Y18349195D01*
X13916061Y18348816D01*
X14317195Y18514561D01*
X14624366Y18821196D01*
X14790810Y19222040D01*
X14790997Y19437296D01*
X17488691Y19437296D01*
X17759261Y18782467D01*
X18259827Y18281027D01*
X18914183Y18009315D01*
X19622709Y18008696D01*
X20277538Y18279266D01*
X20778978Y18779832D01*
X21050690Y19434188D01*
X21051309Y20142714D01*
X20780739Y20797543D01*
X20280173Y21298983D01*
X19625817Y21570695D01*
X18917291Y21571314D01*
X18262462Y21300744D01*
X17761022Y20800178D01*
X17489310Y20145822D01*
X17488691Y19437296D01*
X14790997Y19437296D01*
X14791189Y19656066D01*
X14625444Y20057200D01*
X14318809Y20364371D01*
X13917965Y20530815D01*
X13483939Y20531194D01*
X13082805Y20365449D01*
X12775634Y20058814D01*
X12700020Y19876713D01*
X12625444Y20057200D01*
X12318809Y20364371D01*
X11917965Y20530815D01*
X11483939Y20531194D01*
X11082805Y20365449D01*
X10775634Y20058814D01*
X10609190Y19657970D01*
X10608811Y19223944D01*
X10290811Y19223944D01*
X10291189Y19656066D01*
X10125444Y20057200D01*
X9818809Y20364371D01*
X9417965Y20530815D01*
X8983939Y20531194D01*
X8582805Y20365449D01*
X8275634Y20058814D01*
X8109190Y19657970D01*
X8108811Y19223944D01*
X7823389Y19223944D01*
X7910690Y19434188D01*
X7911309Y20142714D01*
X7640739Y20797543D01*
X7140173Y21298983D01*
X6485817Y21570695D01*
X5777291Y21571314D01*
X5122462Y21300744D01*
X4621022Y20800178D01*
X4349310Y20145822D01*
X4348691Y19437296D01*
X456000Y19437296D01*
X456000Y39870135D01*
X12653882Y39870135D01*
X12757339Y39619748D01*
X12948741Y39428013D01*
X13198946Y39324118D01*
X13469865Y39323882D01*
X13720252Y39427339D01*
X13790034Y39497000D01*
X14784874Y39497000D01*
X14853741Y39428013D01*
X15103946Y39324118D01*
X15374865Y39323882D01*
X15625252Y39427339D01*
X15816987Y39618741D01*
X15920882Y39868946D01*
X15921118Y40139865D01*
X15817661Y40390252D01*
X15626259Y40581987D01*
X15376054Y40685882D01*
X15105135Y40686118D01*
X14854748Y40582661D01*
X14784966Y40513000D01*
X13790126Y40513000D01*
X13721259Y40581987D01*
X13471054Y40685882D01*
X13200135Y40686118D01*
X12949748Y40582661D01*
X12758013Y40391259D01*
X12654118Y40141054D01*
X12653882Y39870135D01*
X456000Y39870135D01*
X456000Y45585135D01*
X10748882Y45585135D01*
X10852339Y45334748D01*
X10922000Y45264966D01*
X10922000Y44905126D01*
X10853013Y44836259D01*
X10749118Y44586054D01*
X10748882Y44315135D01*
X10852339Y44064748D01*
X11043741Y43873013D01*
X11293946Y43769118D01*
X11564865Y43768882D01*
X11815252Y43872339D01*
X12006987Y44063741D01*
X12110882Y44313946D01*
X12111118Y44584865D01*
X12007661Y44835252D01*
X11938000Y44905034D01*
X11938000Y45264874D01*
X12006987Y45333741D01*
X12110882Y45583946D01*
X12111118Y45854865D01*
X12007661Y46105252D01*
X11816259Y46296987D01*
X11566054Y46400882D01*
X11295135Y46401118D01*
X11044748Y46297661D01*
X10853013Y46106259D01*
X10749118Y45856054D01*
X10748882Y45585135D01*
X456000Y45585135D01*
X456000Y47490135D01*
X15193882Y47490135D01*
X15297339Y47239748D01*
X15488741Y47048013D01*
X15738946Y46944118D01*
X15837547Y46944032D01*
X16002000Y46779579D01*
X16002000Y34745126D01*
X15933013Y34676259D01*
X15829118Y34426054D01*
X15828882Y34155135D01*
X15932339Y33904748D01*
X16123741Y33713013D01*
X16373946Y33609118D01*
X16644865Y33608882D01*
X16895252Y33712339D01*
X17086987Y33903741D01*
X17190882Y34153946D01*
X17191118Y34424865D01*
X17087661Y34675252D01*
X17018000Y34745034D01*
X17018000Y46990000D01*
X16979331Y47184403D01*
X16869211Y47349210D01*
X16556033Y47662387D01*
X16556118Y47759865D01*
X16452661Y48010252D01*
X16261259Y48201987D01*
X16011054Y48305882D01*
X15740135Y48306118D01*
X15489748Y48202661D01*
X15298013Y48011259D01*
X15194118Y47761054D01*
X15193882Y47490135D01*
X456000Y47490135D01*
X456000Y50030135D01*
X31068882Y50030135D01*
X31172339Y49779748D01*
X31363741Y49588013D01*
X31613946Y49484118D01*
X31703959Y49484040D01*
X31703882Y49395135D01*
X31807339Y49144748D01*
X31998741Y48953013D01*
X32248946Y48849118D01*
X32519865Y48848882D01*
X32770252Y48952339D01*
X32961987Y49143741D01*
X33065882Y49393946D01*
X33065960Y49483959D01*
X33154865Y49483882D01*
X33405252Y49587339D01*
X33596987Y49778741D01*
X33700882Y50028946D01*
X33701118Y50299865D01*
X33597661Y50550252D01*
X33543214Y50604794D01*
X33608887Y50670467D01*
X33608882Y50665135D01*
X33712339Y50414748D01*
X33903741Y50223013D01*
X34153946Y50119118D01*
X34424865Y50118882D01*
X34675252Y50222339D01*
X34866987Y50413741D01*
X34970882Y50663946D01*
X34970968Y50762548D01*
X36175955Y51967535D01*
X36273546Y51731348D01*
X36457891Y51546681D01*
X36457891Y51398782D01*
X36388904Y51329915D01*
X36285009Y51079710D01*
X36284773Y50808791D01*
X36388230Y50558404D01*
X36579632Y50366669D01*
X36829837Y50262774D01*
X37100756Y50262538D01*
X37351143Y50365995D01*
X37542878Y50557397D01*
X37646773Y50807602D01*
X37647009Y51078521D01*
X37543552Y51328908D01*
X37473891Y51398690D01*
X37473891Y51942511D01*
X37485886Y51971398D01*
X37486114Y52232371D01*
X37386454Y52473566D01*
X37202079Y52658263D01*
X36961059Y52758343D01*
X36876047Y52758417D01*
X36876118Y52839865D01*
X36772661Y53090252D01*
X36581259Y53281987D01*
X36331054Y53385882D01*
X36324308Y53385888D01*
X37007188Y54068768D01*
X37027070Y54068768D01*
X37095937Y53999781D01*
X37346142Y53895886D01*
X37617061Y53895650D01*
X37867448Y53999107D01*
X38059183Y54190509D01*
X38163078Y54440714D01*
X38163314Y54711633D01*
X38059857Y54962020D01*
X37868455Y55153755D01*
X37792348Y55185357D01*
X37792514Y55374914D01*
X37692854Y55616109D01*
X37508479Y55800806D01*
X37267459Y55900886D01*
X37006486Y55901114D01*
X36765291Y55801454D01*
X36716752Y55753000D01*
X36645603Y55753000D01*
X36451200Y55714331D01*
X36286393Y55604211D01*
X33779890Y53097707D01*
X32258000Y51575817D01*
X32258000Y51859580D01*
X32744211Y52345790D01*
X32744213Y52345793D01*
X34327387Y53928967D01*
X34424865Y53928882D01*
X34675252Y54032339D01*
X34866987Y54223741D01*
X34970882Y54473946D01*
X34971118Y54744865D01*
X34867661Y54995252D01*
X34676259Y55186987D01*
X34426054Y55290882D01*
X34155135Y55291118D01*
X33904748Y55187661D01*
X33713013Y54996259D01*
X33609118Y54746054D01*
X33609032Y54647452D01*
X32025793Y53064213D01*
X32025790Y53064211D01*
X31390790Y52429210D01*
X31280669Y52264403D01*
X31242000Y52070000D01*
X31242000Y50620126D01*
X31173013Y50551259D01*
X31069118Y50301054D01*
X31068882Y50030135D01*
X456000Y50030135D01*
X456000Y52814536D01*
X14558882Y52814536D01*
X14662339Y52564149D01*
X14732000Y52494367D01*
X14732000Y51890126D01*
X14663013Y51821259D01*
X14559118Y51571054D01*
X14558882Y51300135D01*
X14662339Y51049748D01*
X14853741Y50858013D01*
X15103946Y50754118D01*
X15374865Y50753882D01*
X15625252Y50857339D01*
X15816987Y51048741D01*
X15920882Y51298946D01*
X15921118Y51569865D01*
X15817661Y51820252D01*
X15748000Y51890034D01*
X15748000Y52494275D01*
X15816987Y52563142D01*
X15920882Y52813347D01*
X15921118Y53084266D01*
X15817661Y53334653D01*
X15626259Y53526388D01*
X15376054Y53630283D01*
X15105135Y53630519D01*
X14854748Y53527062D01*
X14663013Y53335660D01*
X14559118Y53085455D01*
X14558882Y52814536D01*
X456000Y52814536D01*
X456000Y60825135D01*
X41863882Y60825135D01*
X41967339Y60574748D01*
X42158741Y60383013D01*
X42408946Y60279118D01*
X42507548Y60279032D01*
X43768967Y59017613D01*
X43768882Y58920135D01*
X43872339Y58669748D01*
X44063741Y58478013D01*
X44313946Y58374118D01*
X44584865Y58373882D01*
X44835252Y58477339D01*
X45026987Y58668741D01*
X45130882Y58918946D01*
X45130960Y59008959D01*
X45219865Y59008882D01*
X45470252Y59112339D01*
X45661987Y59303741D01*
X45765882Y59553946D01*
X45766118Y59824865D01*
X45662661Y60075252D01*
X45593000Y60145034D01*
X45593000Y60960000D01*
X45554331Y61154403D01*
X45554331Y61154404D01*
X45444210Y61319210D01*
X44496033Y62267387D01*
X44496118Y62364865D01*
X44392661Y62615252D01*
X44201259Y62806987D01*
X43951054Y62910882D01*
X43680135Y62911118D01*
X43429748Y62807661D01*
X43238013Y62616259D01*
X43134118Y62366054D01*
X43133882Y62095135D01*
X43237339Y61844748D01*
X43428741Y61653013D01*
X43678946Y61549118D01*
X43777548Y61549032D01*
X44577000Y60749580D01*
X44577000Y60145126D01*
X44508013Y60076259D01*
X44404118Y59826054D01*
X44404112Y59819308D01*
X43226033Y60997387D01*
X43226118Y61094865D01*
X43122661Y61345252D01*
X42931259Y61536987D01*
X42681054Y61640882D01*
X42410135Y61641118D01*
X42159748Y61537661D01*
X41968013Y61346259D01*
X41864118Y61096054D01*
X41863882Y60825135D01*
X456000Y60825135D01*
X456000Y66555000D01*
X3541536Y66555000D01*
X3541536Y64255000D01*
X3568103Y64113810D01*
X3651546Y63984135D01*
X3778866Y63897141D01*
X3930000Y63866536D01*
X6230000Y63866536D01*
X6371190Y63893103D01*
X6500865Y63976546D01*
X6587859Y64103866D01*
X6618464Y64255000D01*
X6618464Y66555000D01*
X6591897Y66696190D01*
X6508454Y66825865D01*
X6381134Y66912859D01*
X6230000Y66943464D01*
X3930000Y66943464D01*
X3788810Y66916897D01*
X3659135Y66833454D01*
X3572141Y66706134D01*
X3541536Y66555000D01*
X456000Y66555000D01*
X456000Y68326000D01*
X32402936Y68326000D01*
X32402936Y66294000D01*
X32429503Y66152810D01*
X32512946Y66023135D01*
X32640266Y65936141D01*
X32791400Y65905536D01*
X34518600Y65905536D01*
X34659790Y65932103D01*
X34789465Y66015546D01*
X34876459Y66142866D01*
X34907064Y66294000D01*
X34907064Y67489769D01*
X34950400Y67489769D01*
X34950400Y67130231D01*
X35045140Y66653943D01*
X35314935Y66250166D01*
X35718712Y65980371D01*
X36195000Y65885631D01*
X36671288Y65980371D01*
X37075065Y66250166D01*
X37344860Y66653943D01*
X37439600Y67130231D01*
X37439600Y67489769D01*
X40030400Y67489769D01*
X40030400Y67130231D01*
X40125140Y66653943D01*
X40394935Y66250166D01*
X40798712Y65980371D01*
X41275000Y65885631D01*
X41751288Y65980371D01*
X42155065Y66250166D01*
X42424860Y66653943D01*
X42519600Y67130231D01*
X42519600Y67489769D01*
X42570400Y67489769D01*
X42570400Y67130231D01*
X42665140Y66653943D01*
X42934935Y66250166D01*
X43338712Y65980371D01*
X43815000Y65885631D01*
X44291288Y65980371D01*
X44695065Y66250166D01*
X44964860Y66653943D01*
X45059600Y67130231D01*
X45059600Y67489769D01*
X45110400Y67489769D01*
X45110400Y67130231D01*
X45205140Y66653943D01*
X45474935Y66250166D01*
X45878712Y65980371D01*
X46355000Y65885631D01*
X46831288Y65980371D01*
X47235065Y66250166D01*
X47504860Y66653943D01*
X47599600Y67130231D01*
X47599600Y67489769D01*
X47504860Y67966057D01*
X47235065Y68369834D01*
X46831288Y68639629D01*
X46355000Y68734369D01*
X45878712Y68639629D01*
X45474935Y68369834D01*
X45205140Y67966057D01*
X45110400Y67489769D01*
X45059600Y67489769D01*
X44964860Y67966057D01*
X44695065Y68369834D01*
X44291288Y68639629D01*
X43815000Y68734369D01*
X43338712Y68639629D01*
X42934935Y68369834D01*
X42665140Y67966057D01*
X42570400Y67489769D01*
X42519600Y67489769D01*
X42424860Y67966057D01*
X42155065Y68369834D01*
X41751288Y68639629D01*
X41275000Y68734369D01*
X40798712Y68639629D01*
X40394935Y68369834D01*
X40125140Y67966057D01*
X40030400Y67489769D01*
X37439600Y67489769D01*
X37344860Y67966057D01*
X37075065Y68369834D01*
X36671288Y68639629D01*
X36195000Y68734369D01*
X35718712Y68639629D01*
X35314935Y68369834D01*
X35045140Y67966057D01*
X34950400Y67489769D01*
X34907064Y67489769D01*
X34907064Y68326000D01*
X34880497Y68467190D01*
X34797054Y68596865D01*
X34669734Y68683859D01*
X34518600Y68714464D01*
X32791400Y68714464D01*
X32650210Y68687897D01*
X32520535Y68604454D01*
X32433541Y68477134D01*
X32402936Y68326000D01*
X456000Y68326000D01*
X456000Y71544000D01*
X79544000Y71544000D01*
X79544000Y456000D01*
M02*
