M48
;DRILL file {KiCad 4.0.7} date Sun Dec 10 04:28:42 2017
;FORMAT={-:-/ absolute / inch / decimal}
FMAT,2
INCH,TZ
T1C0.016
T2C0.036
T3C0.040
T4C0.051
T5C0.091
%
G90
G05
M72
T1
X0.1575Y2.0866
X0.175Y2.125
X0.2756Y2.0866
X0.35Y1.925
X0.35Y1.825
X0.375Y1.925
X0.375Y1.825
X0.4Y1.925
X0.4Y1.825
X0.45Y1.8
X0.45Y1.75
X0.5Y1.975
X0.525Y1.575
X0.6Y2.0846
X0.6Y2.025
X0.6Y1.575
X0.6Y1.05
X0.625Y1.875
X0.65Y1.35
X0.7Y1.9
X0.725Y0.9
X1.25Y1.975
X1.275Y1.95
X1.3Y1.975
X1.35Y2.15
X1.35Y2.
X1.425Y2.45
X1.425Y2.075
X1.45Y2.0513
X1.4554Y2.0057
X1.4621Y2.175
X1.4757Y2.1487
X1.525Y2.425
X1.55Y1.725
X1.5549Y2.1922
X1.6142Y2.0079
X1.675Y2.4
X1.7135Y2.0105
X1.725Y2.45
X1.75Y2.325
X1.775Y2.35
X1.775Y1.75
X2.9528Y2.3228
T2
X0.3622Y0.7654
X0.3622Y0.6622
X0.4606Y0.7654
X0.4606Y0.6622
X0.5394Y0.7654
X0.5394Y0.6622
X0.6378Y0.7654
X0.6378Y0.6622
T3
X1.325Y2.65
X1.425Y2.65
X1.525Y2.65
X1.625Y2.65
X1.725Y2.65
X1.825Y2.65
T4
X0.2Y2.575
X0.3Y2.575
X1.Y0.2817
X1.Y0.2817
X1.1Y0.2817
X1.1Y0.2817
X1.2Y0.2817
X1.2Y0.2817
X1.3Y0.2817
X1.3Y0.2817
X1.4Y0.2817
X1.4Y0.2817
X1.5Y0.2817
X1.5Y0.2817
X1.65Y0.2817
X1.75Y0.2817
X1.85Y0.2817
X1.95Y0.2817
X2.05Y0.2817
X2.15Y0.2817
X2.65Y0.2817
X2.75Y0.2817
X2.85Y0.2817
X2.95Y0.2817
T5
X0.2413Y0.7791
X0.2413Y0.5555
X0.7587Y0.7791
X0.7587Y0.5555
T0
M30
