G04 #@! TF.FileFunction,Copper,L2,Bot,Signal*
%FSLAX46Y46*%
G04 Gerber Fmt 4.6, Leading zero omitted, Abs format (unit mm)*
G04 Created by KiCad (PCBNEW (2015-01-16 BZR 5376)-product) date 11/18/2015 9:54:18 PM*
%MOMM*%
G01*
G04 APERTURE LIST*
%ADD10C,0.100000*%
%ADD11R,1.727200X2.032000*%
%ADD12O,1.727200X2.032000*%
%ADD13C,1.420000*%
%ADD14C,2.800000*%
%ADD15R,2.032000X1.727200*%
%ADD16O,2.032000X1.727200*%
%ADD17R,2.300000X2.300000*%
%ADD18C,2.300000*%
%ADD19C,0.889000*%
%ADD20C,0.762000*%
%ADD21C,0.254000*%
G04 APERTURE END LIST*
D10*
D11*
X29210000Y67310000D03*
D12*
X31750000Y67310000D03*
X34290000Y67310000D03*
X36830000Y67310000D03*
X39370000Y67310000D03*
X41910000Y67310000D03*
D13*
X9200000Y18805005D03*
X11700000Y18805005D03*
X13700000Y18805005D03*
X16200000Y18805005D03*
X9200000Y16185005D03*
X11700000Y16185005D03*
X13700000Y16185005D03*
X16200000Y16185005D03*
D14*
X19270000Y13475005D03*
X19270000Y19155005D03*
X6130000Y19155005D03*
X6130000Y13475005D03*
D15*
X5080000Y49530000D03*
D16*
X5080000Y46990000D03*
X5080000Y44450000D03*
D17*
X26670000Y6350000D03*
D18*
X29210000Y6350000D03*
X31750000Y6350000D03*
X34290000Y6350000D03*
X36830000Y6350000D03*
X39370000Y6350000D03*
X41910000Y6350000D03*
X44450000Y6350000D03*
D17*
X5080000Y65405000D03*
D18*
X7620000Y65405000D03*
X10160000Y65405000D03*
X12700000Y65405000D03*
D19*
X18415000Y40640000D03*
X54610000Y38735000D03*
X67310000Y40640000D03*
X40640000Y38735000D03*
X29210000Y38735000D03*
X46990000Y47625000D03*
X43180000Y47625000D03*
X15875000Y50165000D03*
X24765000Y50800000D03*
X69215000Y59690000D03*
X69215000Y57150000D03*
X15875000Y39370000D03*
X32385000Y52705000D03*
X29210000Y52705000D03*
X41910000Y50165000D03*
X38735000Y50165000D03*
X26670000Y58420000D03*
X63500000Y42545000D03*
X52070000Y42545000D03*
X38100000Y42545000D03*
X26670000Y42545000D03*
X50800000Y34290000D03*
X38100000Y34925000D03*
X25400000Y34290000D03*
X63500000Y34925000D03*
X8255000Y53340000D03*
X3175000Y53340000D03*
X28575000Y29845000D03*
X53975000Y29845000D03*
X34290000Y28575000D03*
X59690000Y28575000D03*
X58420000Y34925000D03*
X33020000Y34925000D03*
X15240000Y54610000D03*
X17145000Y52705000D03*
X20320000Y36830000D03*
X29210000Y62865000D03*
X34925000Y60325000D03*
X43180000Y63500000D03*
X35560000Y59055000D03*
X43180000Y62230000D03*
X42545000Y60325000D03*
X36830000Y58420000D03*
X38100000Y46355000D03*
X27940000Y46355000D03*
X38100000Y47625000D03*
X28575000Y48260000D03*
X36830000Y45085000D03*
X26035000Y45085000D03*
X31115000Y42545000D03*
X33655000Y42545000D03*
X36830000Y53975000D03*
X42545000Y53975000D03*
X45085000Y47625000D03*
X45085000Y53975000D03*
X49530000Y52070000D03*
X52070000Y46355000D03*
X43815000Y57785000D03*
X46990000Y57785000D03*
X50800000Y50165000D03*
X50800000Y46990000D03*
D20*
X40640000Y40640000D02*
X54610000Y40640000D01*
X29210000Y40640000D02*
X40640000Y40640000D01*
X18415000Y40640000D02*
X29210000Y40640000D01*
D21*
X54610000Y40640000D02*
X54610000Y38735000D01*
D20*
X54610000Y40640000D02*
X60960000Y40640000D01*
X60960000Y40640000D02*
X67310000Y40640000D01*
D21*
X40640000Y40640000D02*
X40640000Y38735000D01*
X29210000Y40640000D02*
X29210000Y38735000D01*
D20*
X33020000Y36830000D02*
X56515000Y36830000D01*
X56515000Y36830000D02*
X58420000Y34925000D01*
X33020000Y34925000D02*
X33020000Y36830000D01*
X17145000Y52705000D02*
X15240000Y54610000D01*
X20320000Y36830000D02*
X33020000Y36830000D01*
D21*
X29210000Y62865000D02*
X29210000Y67310000D01*
X34925000Y60325000D02*
X38100000Y63500000D01*
X38100000Y63500000D02*
X43180000Y63500000D01*
X35560000Y59055000D02*
X38735000Y62230000D01*
X38735000Y62230000D02*
X43180000Y62230000D01*
X38735000Y60325000D02*
X42545000Y60325000D01*
X36830000Y58420000D02*
X38735000Y60325000D01*
X38100000Y46355000D02*
X27940000Y46355000D01*
X38100000Y47625000D02*
X29210000Y47625000D01*
X29210000Y47625000D02*
X28575000Y48260000D01*
X36830000Y45085000D02*
X35560000Y45085000D01*
X35560000Y45085000D02*
X26035000Y45085000D01*
X31115000Y42545000D02*
X33655000Y42545000D01*
X36830000Y53975000D02*
X42545000Y53975000D01*
X45085000Y47625000D02*
X45085000Y53975000D01*
X50165000Y52070000D02*
X49530000Y52070000D01*
X52070000Y50165000D02*
X50165000Y52070000D01*
X52070000Y46355000D02*
X52070000Y50165000D01*
X46990000Y57785000D02*
X43815000Y57785000D01*
X50800000Y50165000D02*
X50800000Y46990000D01*
G36*
X71544000Y456000D02*
X68135643Y456000D01*
X68135643Y40803482D01*
X68010233Y41106998D01*
X67778219Y41339417D01*
X67474923Y41465357D01*
X67146518Y41465643D01*
X66992489Y41402000D01*
X60960000Y41402000D01*
X54610000Y41402000D01*
X52895643Y41402000D01*
X52895643Y46518482D01*
X52770233Y46821998D01*
X52578000Y47014566D01*
X52578000Y50165000D01*
X52539331Y50359403D01*
X52429210Y50524210D01*
X50524210Y52429210D01*
X50359403Y52539331D01*
X50195323Y52571969D01*
X49998219Y52769417D01*
X49694923Y52895357D01*
X49366518Y52895643D01*
X49063002Y52770233D01*
X48830583Y52538219D01*
X48704643Y52234923D01*
X48704357Y51906518D01*
X48829767Y51603002D01*
X49061781Y51370583D01*
X49365077Y51244643D01*
X49693482Y51244357D01*
X49996998Y51369767D01*
X50071970Y51444610D01*
X50558268Y50958312D01*
X50333002Y50865233D01*
X50100583Y50633219D01*
X49974643Y50329923D01*
X49974357Y50001518D01*
X50099767Y49698002D01*
X50292000Y49505433D01*
X50292000Y47649303D01*
X50100583Y47458219D01*
X49974643Y47154923D01*
X49974357Y46826518D01*
X50099767Y46523002D01*
X50331781Y46290583D01*
X50635077Y46164643D01*
X50963482Y46164357D01*
X51244434Y46280444D01*
X51244357Y46191518D01*
X51369767Y45888002D01*
X51601781Y45655583D01*
X51905077Y45529643D01*
X52233482Y45529357D01*
X52536998Y45654767D01*
X52769417Y45886781D01*
X52895357Y46190077D01*
X52895643Y46518482D01*
X52895643Y41402000D01*
X47815643Y41402000D01*
X47815643Y57948482D01*
X47690233Y58251998D01*
X47458219Y58484417D01*
X47154923Y58610357D01*
X46826518Y58610643D01*
X46523002Y58485233D01*
X46330433Y58293000D01*
X44474302Y58293000D01*
X44283219Y58484417D01*
X44005643Y58599677D01*
X44005643Y62393482D01*
X43880233Y62696998D01*
X43712434Y62865090D01*
X43879417Y63031781D01*
X44005357Y63335077D01*
X44005643Y63663482D01*
X43880233Y63966998D01*
X43648219Y64199417D01*
X43344923Y64325357D01*
X43154600Y64325522D01*
X43154600Y67130231D01*
X43154600Y67489769D01*
X43059860Y67966057D01*
X42790065Y68369834D01*
X42386288Y68639629D01*
X41910000Y68734369D01*
X41433712Y68639629D01*
X41029935Y68369834D01*
X40760140Y67966057D01*
X40665400Y67489769D01*
X40665400Y67130231D01*
X40760140Y66653943D01*
X41029935Y66250166D01*
X41433712Y65980371D01*
X41910000Y65885631D01*
X42386288Y65980371D01*
X42790065Y66250166D01*
X43059860Y66653943D01*
X43154600Y67130231D01*
X43154600Y64325522D01*
X43016518Y64325643D01*
X42713002Y64200233D01*
X42520433Y64008000D01*
X40614600Y64008000D01*
X40614600Y67130231D01*
X40614600Y67489769D01*
X40519860Y67966057D01*
X40250065Y68369834D01*
X39846288Y68639629D01*
X39370000Y68734369D01*
X38893712Y68639629D01*
X38489935Y68369834D01*
X38220140Y67966057D01*
X38125400Y67489769D01*
X38125400Y67130231D01*
X38220140Y66653943D01*
X38489935Y66250166D01*
X38893712Y65980371D01*
X39370000Y65885631D01*
X39846288Y65980371D01*
X40250065Y66250166D01*
X40519860Y66653943D01*
X40614600Y67130231D01*
X40614600Y64008000D01*
X38100000Y64008000D01*
X38074600Y64002947D01*
X38074600Y67130231D01*
X38074600Y67489769D01*
X37979860Y67966057D01*
X37710065Y68369834D01*
X37306288Y68639629D01*
X36830000Y68734369D01*
X36353712Y68639629D01*
X35949935Y68369834D01*
X35680140Y67966057D01*
X35585400Y67489769D01*
X35585400Y67130231D01*
X35680140Y66653943D01*
X35949935Y66250166D01*
X36353712Y65980371D01*
X36830000Y65885631D01*
X37306288Y65980371D01*
X37710065Y66250166D01*
X37979860Y66653943D01*
X38074600Y67130231D01*
X38074600Y64002947D01*
X37905597Y63969331D01*
X37740790Y63859210D01*
X35031987Y61150408D01*
X34761518Y61150643D01*
X34458002Y61025233D01*
X34225583Y60793219D01*
X34099643Y60489923D01*
X34099357Y60161518D01*
X34224767Y59858002D01*
X34456781Y59625583D01*
X34760077Y59499643D01*
X34850760Y59499565D01*
X34734643Y59219923D01*
X34734357Y58891518D01*
X34859767Y58588002D01*
X35091781Y58355583D01*
X35395077Y58229643D01*
X35723482Y58229357D01*
X36004434Y58345444D01*
X36004357Y58256518D01*
X36129767Y57953002D01*
X36361781Y57720583D01*
X36665077Y57594643D01*
X36993482Y57594357D01*
X37296998Y57719767D01*
X37529417Y57951781D01*
X37655357Y58255077D01*
X37655593Y58527174D01*
X38945420Y59817000D01*
X41885697Y59817000D01*
X42076781Y59625583D01*
X42380077Y59499643D01*
X42708482Y59499357D01*
X43011998Y59624767D01*
X43244417Y59856781D01*
X43370357Y60160077D01*
X43370643Y60488482D01*
X43245233Y60791998D01*
X43013219Y61024417D01*
X42709923Y61150357D01*
X42381518Y61150643D01*
X42078002Y61025233D01*
X41885433Y60833000D01*
X38735000Y60833000D01*
X38540597Y60794331D01*
X38375790Y60684210D01*
X36936987Y59245408D01*
X36666518Y59245643D01*
X36385565Y59129557D01*
X36385593Y59162174D01*
X38945420Y61722000D01*
X42520697Y61722000D01*
X42711781Y61530583D01*
X43015077Y61404643D01*
X43343482Y61404357D01*
X43646998Y61529767D01*
X43879417Y61761781D01*
X44005357Y62065077D01*
X44005643Y62393482D01*
X44005643Y58599677D01*
X43979923Y58610357D01*
X43651518Y58610643D01*
X43348002Y58485233D01*
X43115583Y58253219D01*
X42989643Y57949923D01*
X42989357Y57621518D01*
X43114767Y57318002D01*
X43346781Y57085583D01*
X43650077Y56959643D01*
X43978482Y56959357D01*
X44281998Y57084767D01*
X44474566Y57277000D01*
X46330697Y57277000D01*
X46521781Y57085583D01*
X46825077Y56959643D01*
X47153482Y56959357D01*
X47456998Y57084767D01*
X47689417Y57316781D01*
X47815357Y57620077D01*
X47815643Y57948482D01*
X47815643Y41402000D01*
X45910643Y41402000D01*
X45910643Y47788482D01*
X45785233Y48091998D01*
X45593000Y48284566D01*
X45593000Y53315698D01*
X45784417Y53506781D01*
X45910357Y53810077D01*
X45910643Y54138482D01*
X45785233Y54441998D01*
X45553219Y54674417D01*
X45249923Y54800357D01*
X44921518Y54800643D01*
X44618002Y54675233D01*
X44385583Y54443219D01*
X44259643Y54139923D01*
X44259357Y53811518D01*
X44384767Y53508002D01*
X44577000Y53315433D01*
X44577000Y48284303D01*
X44385583Y48093219D01*
X44259643Y47789923D01*
X44259357Y47461518D01*
X44384767Y47158002D01*
X44616781Y46925583D01*
X44920077Y46799643D01*
X45248482Y46799357D01*
X45551998Y46924767D01*
X45784417Y47156781D01*
X45910357Y47460077D01*
X45910643Y47788482D01*
X45910643Y41402000D01*
X43370643Y41402000D01*
X43370643Y54138482D01*
X43245233Y54441998D01*
X43013219Y54674417D01*
X42709923Y54800357D01*
X42381518Y54800643D01*
X42078002Y54675233D01*
X41885433Y54483000D01*
X37489302Y54483000D01*
X37298219Y54674417D01*
X36994923Y54800357D01*
X36666518Y54800643D01*
X36363002Y54675233D01*
X36130583Y54443219D01*
X36004643Y54139923D01*
X36004357Y53811518D01*
X36129767Y53508002D01*
X36361781Y53275583D01*
X36665077Y53149643D01*
X36993482Y53149357D01*
X37296998Y53274767D01*
X37489566Y53467000D01*
X41885697Y53467000D01*
X42076781Y53275583D01*
X42380077Y53149643D01*
X42708482Y53149357D01*
X43011998Y53274767D01*
X43244417Y53506781D01*
X43370357Y53810077D01*
X43370643Y54138482D01*
X43370643Y41402000D01*
X40640000Y41402000D01*
X38925643Y41402000D01*
X38925643Y46518482D01*
X38800233Y46821998D01*
X38632434Y46990090D01*
X38799417Y47156781D01*
X38925357Y47460077D01*
X38925643Y47788482D01*
X38800233Y48091998D01*
X38568219Y48324417D01*
X38264923Y48450357D01*
X37936518Y48450643D01*
X37633002Y48325233D01*
X37440433Y48133000D01*
X32994600Y48133000D01*
X32994600Y67130231D01*
X32994600Y67489769D01*
X32899860Y67966057D01*
X32630065Y68369834D01*
X32226288Y68639629D01*
X31750000Y68734369D01*
X31273712Y68639629D01*
X30869935Y68369834D01*
X30600140Y67966057D01*
X30505400Y67489769D01*
X30505400Y67130231D01*
X30600140Y66653943D01*
X30869935Y66250166D01*
X31273712Y65980371D01*
X31750000Y65885631D01*
X32226288Y65980371D01*
X32630065Y66250166D01*
X32899860Y66653943D01*
X32994600Y67130231D01*
X32994600Y48133000D01*
X30462064Y48133000D01*
X30462064Y66294000D01*
X30462064Y68326000D01*
X30433878Y68471274D01*
X30350004Y68598956D01*
X30223384Y68684426D01*
X30073600Y68714464D01*
X28346400Y68714464D01*
X28201126Y68686278D01*
X28073444Y68602404D01*
X27987974Y68475784D01*
X27957936Y68326000D01*
X27957936Y66294000D01*
X27986122Y66148726D01*
X28069996Y66021044D01*
X28196616Y65935574D01*
X28346400Y65905536D01*
X28702000Y65905536D01*
X28702000Y63524303D01*
X28510583Y63333219D01*
X28384643Y63029923D01*
X28384357Y62701518D01*
X28509767Y62398002D01*
X28741781Y62165583D01*
X29045077Y62039643D01*
X29373482Y62039357D01*
X29676998Y62164767D01*
X29909417Y62396781D01*
X30035357Y62700077D01*
X30035643Y63028482D01*
X29910233Y63331998D01*
X29718000Y63524566D01*
X29718000Y65905536D01*
X30073600Y65905536D01*
X30218874Y65933722D01*
X30346556Y66017596D01*
X30432026Y66144216D01*
X30462064Y66294000D01*
X30462064Y48133000D01*
X29420420Y48133000D01*
X29400407Y48153014D01*
X29400643Y48423482D01*
X29275233Y48726998D01*
X29043219Y48959417D01*
X28739923Y49085357D01*
X28411518Y49085643D01*
X28108002Y48960233D01*
X27875583Y48728219D01*
X27749643Y48424923D01*
X27749357Y48096518D01*
X27874767Y47793002D01*
X28106781Y47560583D01*
X28410077Y47434643D01*
X28682173Y47434407D01*
X28850790Y47265789D01*
X29015597Y47155669D01*
X29210000Y47117000D01*
X37440697Y47117000D01*
X37567565Y46989911D01*
X37440433Y46863000D01*
X28599302Y46863000D01*
X28408219Y47054417D01*
X28104923Y47180357D01*
X27776518Y47180643D01*
X27473002Y47055233D01*
X27240583Y46823219D01*
X27114643Y46519923D01*
X27114357Y46191518D01*
X27239767Y45888002D01*
X27471781Y45655583D01*
X27622497Y45593000D01*
X26694302Y45593000D01*
X26503219Y45784417D01*
X26199923Y45910357D01*
X25871518Y45910643D01*
X25568002Y45785233D01*
X25335583Y45553219D01*
X25209643Y45249923D01*
X25209357Y44921518D01*
X25334767Y44618002D01*
X25566781Y44385583D01*
X25870077Y44259643D01*
X26198482Y44259357D01*
X26501998Y44384767D01*
X26694566Y44577000D01*
X35560000Y44577000D01*
X36170697Y44577000D01*
X36361781Y44385583D01*
X36665077Y44259643D01*
X36993482Y44259357D01*
X37296998Y44384767D01*
X37529417Y44616781D01*
X37655357Y44920077D01*
X37655643Y45248482D01*
X37530233Y45551998D01*
X37298219Y45784417D01*
X37147502Y45847000D01*
X37440697Y45847000D01*
X37631781Y45655583D01*
X37935077Y45529643D01*
X38263482Y45529357D01*
X38566998Y45654767D01*
X38799417Y45886781D01*
X38925357Y46190077D01*
X38925643Y46518482D01*
X38925643Y41402000D01*
X34480643Y41402000D01*
X34480643Y42708482D01*
X34355233Y43011998D01*
X34123219Y43244417D01*
X33819923Y43370357D01*
X33491518Y43370643D01*
X33188002Y43245233D01*
X32995433Y43053000D01*
X31774302Y43053000D01*
X31583219Y43244417D01*
X31279923Y43370357D01*
X30951518Y43370643D01*
X30648002Y43245233D01*
X30415583Y43013219D01*
X30289643Y42709923D01*
X30289357Y42381518D01*
X30414767Y42078002D01*
X30646781Y41845583D01*
X30950077Y41719643D01*
X31278482Y41719357D01*
X31581998Y41844767D01*
X31774566Y42037000D01*
X32995697Y42037000D01*
X33186781Y41845583D01*
X33490077Y41719643D01*
X33818482Y41719357D01*
X34121998Y41844767D01*
X34354417Y42076781D01*
X34480357Y42380077D01*
X34480643Y42708482D01*
X34480643Y41402000D01*
X29210000Y41402000D01*
X18732502Y41402000D01*
X18579923Y41465357D01*
X18251518Y41465643D01*
X17970643Y41349588D01*
X17970643Y52868482D01*
X17845233Y53171998D01*
X17613219Y53404417D01*
X17459299Y53468331D01*
X16003323Y54924307D01*
X15940233Y55076998D01*
X15708219Y55309417D01*
X15404923Y55435357D01*
X15076518Y55435643D01*
X14773002Y55310233D01*
X14540583Y55078219D01*
X14414643Y54774923D01*
X14414357Y54446518D01*
X14539767Y54143002D01*
X14771781Y53910583D01*
X14925700Y53846670D01*
X16381676Y52390694D01*
X16444767Y52238002D01*
X16676781Y52005583D01*
X16980077Y51879643D01*
X17308482Y51879357D01*
X17611998Y52004767D01*
X17844417Y52236781D01*
X17970357Y52540077D01*
X17970643Y52868482D01*
X17970643Y41349588D01*
X17948002Y41340233D01*
X17715583Y41108219D01*
X17589643Y40804923D01*
X17589357Y40476518D01*
X17714767Y40173002D01*
X17946781Y39940583D01*
X18250077Y39814643D01*
X18578482Y39814357D01*
X18732510Y39878000D01*
X28702000Y39878000D01*
X28702000Y39394303D01*
X28510583Y39203219D01*
X28384643Y38899923D01*
X28384357Y38571518D01*
X28509767Y38268002D01*
X28741781Y38035583D01*
X29045077Y37909643D01*
X29373482Y37909357D01*
X29676998Y38034767D01*
X29909417Y38266781D01*
X30035357Y38570077D01*
X30035643Y38898482D01*
X29910233Y39201998D01*
X29718000Y39394566D01*
X29718000Y39878000D01*
X40132000Y39878000D01*
X40132000Y39394303D01*
X39940583Y39203219D01*
X39814643Y38899923D01*
X39814357Y38571518D01*
X39939767Y38268002D01*
X40171781Y38035583D01*
X40475077Y37909643D01*
X40803482Y37909357D01*
X41106998Y38034767D01*
X41339417Y38266781D01*
X41465357Y38570077D01*
X41465643Y38898482D01*
X41340233Y39201998D01*
X41148000Y39394566D01*
X41148000Y39878000D01*
X54102000Y39878000D01*
X54102000Y39394303D01*
X53910583Y39203219D01*
X53784643Y38899923D01*
X53784357Y38571518D01*
X53909767Y38268002D01*
X54141781Y38035583D01*
X54445077Y37909643D01*
X54773482Y37909357D01*
X55076998Y38034767D01*
X55309417Y38266781D01*
X55435357Y38570077D01*
X55435643Y38898482D01*
X55310233Y39201998D01*
X55118000Y39394566D01*
X55118000Y39878000D01*
X60960000Y39878000D01*
X66992497Y39878000D01*
X67145077Y39814643D01*
X67473482Y39814357D01*
X67776998Y39939767D01*
X68009417Y40171781D01*
X68135357Y40475077D01*
X68135643Y40803482D01*
X68135643Y456000D01*
X59245643Y456000D01*
X59245643Y35088482D01*
X59120233Y35391998D01*
X58888219Y35624417D01*
X58734299Y35688331D01*
X57053815Y37368815D01*
X56806605Y37533996D01*
X56515000Y37592000D01*
X33020000Y37592000D01*
X20637502Y37592000D01*
X20484923Y37655357D01*
X20156518Y37655643D01*
X19853002Y37530233D01*
X19620583Y37298219D01*
X19494643Y36994923D01*
X19494357Y36666518D01*
X19619767Y36363002D01*
X19851781Y36130583D01*
X20155077Y36004643D01*
X20483482Y36004357D01*
X20637510Y36068000D01*
X32258000Y36068000D01*
X32258000Y35242503D01*
X32194643Y35089923D01*
X32194357Y34761518D01*
X32319767Y34458002D01*
X32551781Y34225583D01*
X32855077Y34099643D01*
X33183482Y34099357D01*
X33486998Y34224767D01*
X33719417Y34456781D01*
X33845357Y34760077D01*
X33845643Y35088482D01*
X33782000Y35242510D01*
X33782000Y36068000D01*
X56199370Y36068000D01*
X57656676Y34610694D01*
X57719767Y34458002D01*
X57951781Y34225583D01*
X58255077Y34099643D01*
X58583482Y34099357D01*
X58886998Y34224767D01*
X59119417Y34456781D01*
X59245357Y34760077D01*
X59245643Y35088482D01*
X59245643Y456000D01*
X43441265Y456000D01*
X43441265Y6653199D01*
X43208675Y7216109D01*
X42778374Y7647162D01*
X42215871Y7880734D01*
X41606801Y7881265D01*
X41043891Y7648675D01*
X40612838Y7218374D01*
X40379266Y6655871D01*
X40378735Y6046801D01*
X40611325Y5483891D01*
X41041626Y5052838D01*
X41604129Y4819266D01*
X42213199Y4818735D01*
X42776109Y5051325D01*
X43207162Y5481626D01*
X43440734Y6044129D01*
X43441265Y6653199D01*
X43441265Y456000D01*
X38361265Y456000D01*
X38361265Y6653199D01*
X38128675Y7216109D01*
X37698374Y7647162D01*
X37135871Y7880734D01*
X36526801Y7881265D01*
X35963891Y7648675D01*
X35532838Y7218374D01*
X35299266Y6655871D01*
X35298735Y6046801D01*
X35531325Y5483891D01*
X35961626Y5052838D01*
X36524129Y4819266D01*
X37133199Y4818735D01*
X37696109Y5051325D01*
X38127162Y5481626D01*
X38360734Y6044129D01*
X38361265Y6653199D01*
X38361265Y456000D01*
X33281265Y456000D01*
X33281265Y6653199D01*
X33048675Y7216109D01*
X32618374Y7647162D01*
X32055871Y7880734D01*
X31446801Y7881265D01*
X30883891Y7648675D01*
X30452838Y7218374D01*
X30219266Y6655871D01*
X30218735Y6046801D01*
X30451325Y5483891D01*
X30881626Y5052838D01*
X31444129Y4819266D01*
X32053199Y4818735D01*
X32616109Y5051325D01*
X33047162Y5481626D01*
X33280734Y6044129D01*
X33281265Y6653199D01*
X33281265Y456000D01*
X28208464Y456000D01*
X28208464Y5200000D01*
X28208464Y7500000D01*
X28180278Y7645274D01*
X28096404Y7772956D01*
X27969784Y7858426D01*
X27820000Y7888464D01*
X25520000Y7888464D01*
X25374726Y7860278D01*
X25247044Y7776404D01*
X25161574Y7649784D01*
X25131536Y7500000D01*
X25131536Y5200000D01*
X25159722Y5054726D01*
X25243596Y4927044D01*
X25370216Y4841574D01*
X25520000Y4811536D01*
X27820000Y4811536D01*
X27965274Y4839722D01*
X28092956Y4923596D01*
X28178426Y5050216D01*
X28208464Y5200000D01*
X28208464Y456000D01*
X21051309Y456000D01*
X21051309Y13827714D01*
X21051309Y19507714D01*
X20780739Y20162543D01*
X20280173Y20663983D01*
X19625817Y20935695D01*
X18917291Y20936314D01*
X18262462Y20665744D01*
X17761022Y20165178D01*
X17489310Y19510822D01*
X17488691Y18802296D01*
X17759261Y18147467D01*
X18259827Y17646027D01*
X18914183Y17374315D01*
X19622709Y17373696D01*
X20277538Y17644266D01*
X20778978Y18144832D01*
X21050690Y18799188D01*
X21051309Y19507714D01*
X21051309Y13827714D01*
X20780739Y14482543D01*
X20280173Y14983983D01*
X19625817Y15255695D01*
X18917291Y15256314D01*
X18262462Y14985744D01*
X17761022Y14485178D01*
X17489310Y13830822D01*
X17488691Y13122296D01*
X17759261Y12467467D01*
X18259827Y11966027D01*
X18914183Y11694315D01*
X19622709Y11693696D01*
X20277538Y11964266D01*
X20778978Y12464832D01*
X21050690Y13119188D01*
X21051309Y13827714D01*
X21051309Y456000D01*
X14791189Y456000D01*
X14791189Y16401066D01*
X14791189Y19021066D01*
X14625444Y19422200D01*
X14318809Y19729371D01*
X13917965Y19895815D01*
X13483939Y19896194D01*
X13082805Y19730449D01*
X12775634Y19423814D01*
X12700019Y19241714D01*
X12625444Y19422200D01*
X12318809Y19729371D01*
X11917965Y19895815D01*
X11691265Y19896012D01*
X11691265Y65708199D01*
X11458675Y66271109D01*
X11028374Y66702162D01*
X10465871Y66935734D01*
X9856801Y66936265D01*
X9293891Y66703675D01*
X8862838Y66273374D01*
X8629266Y65710871D01*
X8628735Y65101801D01*
X8861325Y64538891D01*
X9291626Y64107838D01*
X9854129Y63874266D01*
X10463199Y63873735D01*
X11026109Y64106325D01*
X11457162Y64536626D01*
X11690734Y65099129D01*
X11691265Y65708199D01*
X11691265Y19896012D01*
X11483939Y19896194D01*
X11082805Y19730449D01*
X10775634Y19423814D01*
X10609190Y19022970D01*
X10608811Y18588944D01*
X10774556Y18187810D01*
X11081191Y17880639D01*
X11482035Y17714195D01*
X11916061Y17713816D01*
X12317195Y17879561D01*
X12624366Y18186196D01*
X12699980Y18368297D01*
X12774556Y18187810D01*
X13081191Y17880639D01*
X13482035Y17714195D01*
X13916061Y17713816D01*
X14317195Y17879561D01*
X14624366Y18186196D01*
X14790810Y18587040D01*
X14791189Y19021066D01*
X14791189Y16401066D01*
X14625444Y16802200D01*
X14318809Y17109371D01*
X13917965Y17275815D01*
X13483939Y17276194D01*
X13082805Y17110449D01*
X12775634Y16803814D01*
X12700019Y16621714D01*
X12625444Y16802200D01*
X12318809Y17109371D01*
X11917965Y17275815D01*
X11483939Y17276194D01*
X11082805Y17110449D01*
X10775634Y16803814D01*
X10609190Y16402970D01*
X10608811Y15968944D01*
X10774556Y15567810D01*
X11081191Y15260639D01*
X11482035Y15094195D01*
X11916061Y15093816D01*
X12317195Y15259561D01*
X12624366Y15566196D01*
X12699980Y15748297D01*
X12774556Y15567810D01*
X13081191Y15260639D01*
X13482035Y15094195D01*
X13916061Y15093816D01*
X14317195Y15259561D01*
X14624366Y15566196D01*
X14790810Y15967040D01*
X14791189Y16401066D01*
X14791189Y456000D01*
X10291189Y456000D01*
X10291189Y16401066D01*
X10291189Y19021066D01*
X10125444Y19422200D01*
X9818809Y19729371D01*
X9417965Y19895815D01*
X8983939Y19896194D01*
X8582805Y19730449D01*
X8275634Y19423814D01*
X8109190Y19022970D01*
X8108811Y18588944D01*
X8274556Y18187810D01*
X8581191Y17880639D01*
X8982035Y17714195D01*
X9416061Y17713816D01*
X9817195Y17879561D01*
X10124366Y18186196D01*
X10290810Y18587040D01*
X10291189Y19021066D01*
X10291189Y16401066D01*
X10125444Y16802200D01*
X9818809Y17109371D01*
X9417965Y17275815D01*
X8983939Y17276194D01*
X8582805Y17110449D01*
X8275634Y16803814D01*
X8109190Y16402970D01*
X8108811Y15968944D01*
X8274556Y15567810D01*
X8581191Y15260639D01*
X8982035Y15094195D01*
X9416061Y15093816D01*
X9817195Y15259561D01*
X10124366Y15566196D01*
X10290810Y15967040D01*
X10291189Y16401066D01*
X10291189Y456000D01*
X7911309Y456000D01*
X7911309Y13827714D01*
X7911309Y19507714D01*
X7640739Y20162543D01*
X7140173Y20663983D01*
X6618464Y20880615D01*
X6618464Y64255000D01*
X6618464Y66555000D01*
X6590278Y66700274D01*
X6506404Y66827956D01*
X6379784Y66913426D01*
X6230000Y66943464D01*
X3930000Y66943464D01*
X3784726Y66915278D01*
X3657044Y66831404D01*
X3571574Y66704784D01*
X3541536Y66555000D01*
X3541536Y64255000D01*
X3569722Y64109726D01*
X3653596Y63982044D01*
X3780216Y63896574D01*
X3930000Y63866536D01*
X6230000Y63866536D01*
X6375274Y63894722D01*
X6502956Y63978596D01*
X6588426Y64105216D01*
X6618464Y64255000D01*
X6618464Y20880615D01*
X6504369Y20927991D01*
X6504369Y44450000D01*
X6504369Y46990000D01*
X6484464Y47090068D01*
X6484464Y48666400D01*
X6484464Y50393600D01*
X6456278Y50538874D01*
X6372404Y50666556D01*
X6245784Y50752026D01*
X6096000Y50782064D01*
X4064000Y50782064D01*
X3918726Y50753878D01*
X3791044Y50670004D01*
X3705574Y50543384D01*
X3675536Y50393600D01*
X3675536Y48666400D01*
X3703722Y48521126D01*
X3787596Y48393444D01*
X3914216Y48307974D01*
X4064000Y48277936D01*
X6096000Y48277936D01*
X6241274Y48306122D01*
X6368956Y48389996D01*
X6454426Y48516616D01*
X6484464Y48666400D01*
X6484464Y47090068D01*
X6409629Y47466288D01*
X6139834Y47870065D01*
X5736057Y48139860D01*
X5259769Y48234600D01*
X4900231Y48234600D01*
X4423943Y48139860D01*
X4020166Y47870065D01*
X3750371Y47466288D01*
X3655631Y46990000D01*
X3750371Y46513712D01*
X4020166Y46109935D01*
X4423943Y45840140D01*
X4900231Y45745400D01*
X5259769Y45745400D01*
X5736057Y45840140D01*
X6139834Y46109935D01*
X6409629Y46513712D01*
X6504369Y46990000D01*
X6504369Y44450000D01*
X6409629Y44926288D01*
X6139834Y45330065D01*
X5736057Y45599860D01*
X5259769Y45694600D01*
X4900231Y45694600D01*
X4423943Y45599860D01*
X4020166Y45330065D01*
X3750371Y44926288D01*
X3655631Y44450000D01*
X3750371Y43973712D01*
X4020166Y43569935D01*
X4423943Y43300140D01*
X4900231Y43205400D01*
X5259769Y43205400D01*
X5736057Y43300140D01*
X6139834Y43569935D01*
X6409629Y43973712D01*
X6504369Y44450000D01*
X6504369Y20927991D01*
X6485817Y20935695D01*
X5777291Y20936314D01*
X5122462Y20665744D01*
X4621022Y20165178D01*
X4349310Y19510822D01*
X4348691Y18802296D01*
X4619261Y18147467D01*
X5119827Y17646027D01*
X5774183Y17374315D01*
X6482709Y17373696D01*
X7137538Y17644266D01*
X7638978Y18144832D01*
X7910690Y18799188D01*
X7911309Y19507714D01*
X7911309Y13827714D01*
X7640739Y14482543D01*
X7140173Y14983983D01*
X6485817Y15255695D01*
X5777291Y15256314D01*
X5122462Y14985744D01*
X4621022Y14485178D01*
X4349310Y13830822D01*
X4348691Y13122296D01*
X4619261Y12467467D01*
X5119827Y11966027D01*
X5774183Y11694315D01*
X6482709Y11693696D01*
X7137538Y11964266D01*
X7638978Y12464832D01*
X7910690Y13119188D01*
X7911309Y13827714D01*
X7911309Y456000D01*
X456000Y456000D01*
X456000Y71544000D01*
X71544000Y71544000D01*
X71544000Y456000D01*
X71544000Y456000D01*
G37*
X71544000Y456000D02*
X68135643Y456000D01*
X68135643Y40803482D01*
X68010233Y41106998D01*
X67778219Y41339417D01*
X67474923Y41465357D01*
X67146518Y41465643D01*
X66992489Y41402000D01*
X60960000Y41402000D01*
X54610000Y41402000D01*
X52895643Y41402000D01*
X52895643Y46518482D01*
X52770233Y46821998D01*
X52578000Y47014566D01*
X52578000Y50165000D01*
X52539331Y50359403D01*
X52429210Y50524210D01*
X50524210Y52429210D01*
X50359403Y52539331D01*
X50195323Y52571969D01*
X49998219Y52769417D01*
X49694923Y52895357D01*
X49366518Y52895643D01*
X49063002Y52770233D01*
X48830583Y52538219D01*
X48704643Y52234923D01*
X48704357Y51906518D01*
X48829767Y51603002D01*
X49061781Y51370583D01*
X49365077Y51244643D01*
X49693482Y51244357D01*
X49996998Y51369767D01*
X50071970Y51444610D01*
X50558268Y50958312D01*
X50333002Y50865233D01*
X50100583Y50633219D01*
X49974643Y50329923D01*
X49974357Y50001518D01*
X50099767Y49698002D01*
X50292000Y49505433D01*
X50292000Y47649303D01*
X50100583Y47458219D01*
X49974643Y47154923D01*
X49974357Y46826518D01*
X50099767Y46523002D01*
X50331781Y46290583D01*
X50635077Y46164643D01*
X50963482Y46164357D01*
X51244434Y46280444D01*
X51244357Y46191518D01*
X51369767Y45888002D01*
X51601781Y45655583D01*
X51905077Y45529643D01*
X52233482Y45529357D01*
X52536998Y45654767D01*
X52769417Y45886781D01*
X52895357Y46190077D01*
X52895643Y46518482D01*
X52895643Y41402000D01*
X47815643Y41402000D01*
X47815643Y57948482D01*
X47690233Y58251998D01*
X47458219Y58484417D01*
X47154923Y58610357D01*
X46826518Y58610643D01*
X46523002Y58485233D01*
X46330433Y58293000D01*
X44474302Y58293000D01*
X44283219Y58484417D01*
X44005643Y58599677D01*
X44005643Y62393482D01*
X43880233Y62696998D01*
X43712434Y62865090D01*
X43879417Y63031781D01*
X44005357Y63335077D01*
X44005643Y63663482D01*
X43880233Y63966998D01*
X43648219Y64199417D01*
X43344923Y64325357D01*
X43154600Y64325522D01*
X43154600Y67130231D01*
X43154600Y67489769D01*
X43059860Y67966057D01*
X42790065Y68369834D01*
X42386288Y68639629D01*
X41910000Y68734369D01*
X41433712Y68639629D01*
X41029935Y68369834D01*
X40760140Y67966057D01*
X40665400Y67489769D01*
X40665400Y67130231D01*
X40760140Y66653943D01*
X41029935Y66250166D01*
X41433712Y65980371D01*
X41910000Y65885631D01*
X42386288Y65980371D01*
X42790065Y66250166D01*
X43059860Y66653943D01*
X43154600Y67130231D01*
X43154600Y64325522D01*
X43016518Y64325643D01*
X42713002Y64200233D01*
X42520433Y64008000D01*
X40614600Y64008000D01*
X40614600Y67130231D01*
X40614600Y67489769D01*
X40519860Y67966057D01*
X40250065Y68369834D01*
X39846288Y68639629D01*
X39370000Y68734369D01*
X38893712Y68639629D01*
X38489935Y68369834D01*
X38220140Y67966057D01*
X38125400Y67489769D01*
X38125400Y67130231D01*
X38220140Y66653943D01*
X38489935Y66250166D01*
X38893712Y65980371D01*
X39370000Y65885631D01*
X39846288Y65980371D01*
X40250065Y66250166D01*
X40519860Y66653943D01*
X40614600Y67130231D01*
X40614600Y64008000D01*
X38100000Y64008000D01*
X38074600Y64002947D01*
X38074600Y67130231D01*
X38074600Y67489769D01*
X37979860Y67966057D01*
X37710065Y68369834D01*
X37306288Y68639629D01*
X36830000Y68734369D01*
X36353712Y68639629D01*
X35949935Y68369834D01*
X35680140Y67966057D01*
X35585400Y67489769D01*
X35585400Y67130231D01*
X35680140Y66653943D01*
X35949935Y66250166D01*
X36353712Y65980371D01*
X36830000Y65885631D01*
X37306288Y65980371D01*
X37710065Y66250166D01*
X37979860Y66653943D01*
X38074600Y67130231D01*
X38074600Y64002947D01*
X37905597Y63969331D01*
X37740790Y63859210D01*
X35031987Y61150408D01*
X34761518Y61150643D01*
X34458002Y61025233D01*
X34225583Y60793219D01*
X34099643Y60489923D01*
X34099357Y60161518D01*
X34224767Y59858002D01*
X34456781Y59625583D01*
X34760077Y59499643D01*
X34850760Y59499565D01*
X34734643Y59219923D01*
X34734357Y58891518D01*
X34859767Y58588002D01*
X35091781Y58355583D01*
X35395077Y58229643D01*
X35723482Y58229357D01*
X36004434Y58345444D01*
X36004357Y58256518D01*
X36129767Y57953002D01*
X36361781Y57720583D01*
X36665077Y57594643D01*
X36993482Y57594357D01*
X37296998Y57719767D01*
X37529417Y57951781D01*
X37655357Y58255077D01*
X37655593Y58527174D01*
X38945420Y59817000D01*
X41885697Y59817000D01*
X42076781Y59625583D01*
X42380077Y59499643D01*
X42708482Y59499357D01*
X43011998Y59624767D01*
X43244417Y59856781D01*
X43370357Y60160077D01*
X43370643Y60488482D01*
X43245233Y60791998D01*
X43013219Y61024417D01*
X42709923Y61150357D01*
X42381518Y61150643D01*
X42078002Y61025233D01*
X41885433Y60833000D01*
X38735000Y60833000D01*
X38540597Y60794331D01*
X38375790Y60684210D01*
X36936987Y59245408D01*
X36666518Y59245643D01*
X36385565Y59129557D01*
X36385593Y59162174D01*
X38945420Y61722000D01*
X42520697Y61722000D01*
X42711781Y61530583D01*
X43015077Y61404643D01*
X43343482Y61404357D01*
X43646998Y61529767D01*
X43879417Y61761781D01*
X44005357Y62065077D01*
X44005643Y62393482D01*
X44005643Y58599677D01*
X43979923Y58610357D01*
X43651518Y58610643D01*
X43348002Y58485233D01*
X43115583Y58253219D01*
X42989643Y57949923D01*
X42989357Y57621518D01*
X43114767Y57318002D01*
X43346781Y57085583D01*
X43650077Y56959643D01*
X43978482Y56959357D01*
X44281998Y57084767D01*
X44474566Y57277000D01*
X46330697Y57277000D01*
X46521781Y57085583D01*
X46825077Y56959643D01*
X47153482Y56959357D01*
X47456998Y57084767D01*
X47689417Y57316781D01*
X47815357Y57620077D01*
X47815643Y57948482D01*
X47815643Y41402000D01*
X45910643Y41402000D01*
X45910643Y47788482D01*
X45785233Y48091998D01*
X45593000Y48284566D01*
X45593000Y53315698D01*
X45784417Y53506781D01*
X45910357Y53810077D01*
X45910643Y54138482D01*
X45785233Y54441998D01*
X45553219Y54674417D01*
X45249923Y54800357D01*
X44921518Y54800643D01*
X44618002Y54675233D01*
X44385583Y54443219D01*
X44259643Y54139923D01*
X44259357Y53811518D01*
X44384767Y53508002D01*
X44577000Y53315433D01*
X44577000Y48284303D01*
X44385583Y48093219D01*
X44259643Y47789923D01*
X44259357Y47461518D01*
X44384767Y47158002D01*
X44616781Y46925583D01*
X44920077Y46799643D01*
X45248482Y46799357D01*
X45551998Y46924767D01*
X45784417Y47156781D01*
X45910357Y47460077D01*
X45910643Y47788482D01*
X45910643Y41402000D01*
X43370643Y41402000D01*
X43370643Y54138482D01*
X43245233Y54441998D01*
X43013219Y54674417D01*
X42709923Y54800357D01*
X42381518Y54800643D01*
X42078002Y54675233D01*
X41885433Y54483000D01*
X37489302Y54483000D01*
X37298219Y54674417D01*
X36994923Y54800357D01*
X36666518Y54800643D01*
X36363002Y54675233D01*
X36130583Y54443219D01*
X36004643Y54139923D01*
X36004357Y53811518D01*
X36129767Y53508002D01*
X36361781Y53275583D01*
X36665077Y53149643D01*
X36993482Y53149357D01*
X37296998Y53274767D01*
X37489566Y53467000D01*
X41885697Y53467000D01*
X42076781Y53275583D01*
X42380077Y53149643D01*
X42708482Y53149357D01*
X43011998Y53274767D01*
X43244417Y53506781D01*
X43370357Y53810077D01*
X43370643Y54138482D01*
X43370643Y41402000D01*
X40640000Y41402000D01*
X38925643Y41402000D01*
X38925643Y46518482D01*
X38800233Y46821998D01*
X38632434Y46990090D01*
X38799417Y47156781D01*
X38925357Y47460077D01*
X38925643Y47788482D01*
X38800233Y48091998D01*
X38568219Y48324417D01*
X38264923Y48450357D01*
X37936518Y48450643D01*
X37633002Y48325233D01*
X37440433Y48133000D01*
X32994600Y48133000D01*
X32994600Y67130231D01*
X32994600Y67489769D01*
X32899860Y67966057D01*
X32630065Y68369834D01*
X32226288Y68639629D01*
X31750000Y68734369D01*
X31273712Y68639629D01*
X30869935Y68369834D01*
X30600140Y67966057D01*
X30505400Y67489769D01*
X30505400Y67130231D01*
X30600140Y66653943D01*
X30869935Y66250166D01*
X31273712Y65980371D01*
X31750000Y65885631D01*
X32226288Y65980371D01*
X32630065Y66250166D01*
X32899860Y66653943D01*
X32994600Y67130231D01*
X32994600Y48133000D01*
X30462064Y48133000D01*
X30462064Y66294000D01*
X30462064Y68326000D01*
X30433878Y68471274D01*
X30350004Y68598956D01*
X30223384Y68684426D01*
X30073600Y68714464D01*
X28346400Y68714464D01*
X28201126Y68686278D01*
X28073444Y68602404D01*
X27987974Y68475784D01*
X27957936Y68326000D01*
X27957936Y66294000D01*
X27986122Y66148726D01*
X28069996Y66021044D01*
X28196616Y65935574D01*
X28346400Y65905536D01*
X28702000Y65905536D01*
X28702000Y63524303D01*
X28510583Y63333219D01*
X28384643Y63029923D01*
X28384357Y62701518D01*
X28509767Y62398002D01*
X28741781Y62165583D01*
X29045077Y62039643D01*
X29373482Y62039357D01*
X29676998Y62164767D01*
X29909417Y62396781D01*
X30035357Y62700077D01*
X30035643Y63028482D01*
X29910233Y63331998D01*
X29718000Y63524566D01*
X29718000Y65905536D01*
X30073600Y65905536D01*
X30218874Y65933722D01*
X30346556Y66017596D01*
X30432026Y66144216D01*
X30462064Y66294000D01*
X30462064Y48133000D01*
X29420420Y48133000D01*
X29400407Y48153014D01*
X29400643Y48423482D01*
X29275233Y48726998D01*
X29043219Y48959417D01*
X28739923Y49085357D01*
X28411518Y49085643D01*
X28108002Y48960233D01*
X27875583Y48728219D01*
X27749643Y48424923D01*
X27749357Y48096518D01*
X27874767Y47793002D01*
X28106781Y47560583D01*
X28410077Y47434643D01*
X28682173Y47434407D01*
X28850790Y47265789D01*
X29015597Y47155669D01*
X29210000Y47117000D01*
X37440697Y47117000D01*
X37567565Y46989911D01*
X37440433Y46863000D01*
X28599302Y46863000D01*
X28408219Y47054417D01*
X28104923Y47180357D01*
X27776518Y47180643D01*
X27473002Y47055233D01*
X27240583Y46823219D01*
X27114643Y46519923D01*
X27114357Y46191518D01*
X27239767Y45888002D01*
X27471781Y45655583D01*
X27622497Y45593000D01*
X26694302Y45593000D01*
X26503219Y45784417D01*
X26199923Y45910357D01*
X25871518Y45910643D01*
X25568002Y45785233D01*
X25335583Y45553219D01*
X25209643Y45249923D01*
X25209357Y44921518D01*
X25334767Y44618002D01*
X25566781Y44385583D01*
X25870077Y44259643D01*
X26198482Y44259357D01*
X26501998Y44384767D01*
X26694566Y44577000D01*
X35560000Y44577000D01*
X36170697Y44577000D01*
X36361781Y44385583D01*
X36665077Y44259643D01*
X36993482Y44259357D01*
X37296998Y44384767D01*
X37529417Y44616781D01*
X37655357Y44920077D01*
X37655643Y45248482D01*
X37530233Y45551998D01*
X37298219Y45784417D01*
X37147502Y45847000D01*
X37440697Y45847000D01*
X37631781Y45655583D01*
X37935077Y45529643D01*
X38263482Y45529357D01*
X38566998Y45654767D01*
X38799417Y45886781D01*
X38925357Y46190077D01*
X38925643Y46518482D01*
X38925643Y41402000D01*
X34480643Y41402000D01*
X34480643Y42708482D01*
X34355233Y43011998D01*
X34123219Y43244417D01*
X33819923Y43370357D01*
X33491518Y43370643D01*
X33188002Y43245233D01*
X32995433Y43053000D01*
X31774302Y43053000D01*
X31583219Y43244417D01*
X31279923Y43370357D01*
X30951518Y43370643D01*
X30648002Y43245233D01*
X30415583Y43013219D01*
X30289643Y42709923D01*
X30289357Y42381518D01*
X30414767Y42078002D01*
X30646781Y41845583D01*
X30950077Y41719643D01*
X31278482Y41719357D01*
X31581998Y41844767D01*
X31774566Y42037000D01*
X32995697Y42037000D01*
X33186781Y41845583D01*
X33490077Y41719643D01*
X33818482Y41719357D01*
X34121998Y41844767D01*
X34354417Y42076781D01*
X34480357Y42380077D01*
X34480643Y42708482D01*
X34480643Y41402000D01*
X29210000Y41402000D01*
X18732502Y41402000D01*
X18579923Y41465357D01*
X18251518Y41465643D01*
X17970643Y41349588D01*
X17970643Y52868482D01*
X17845233Y53171998D01*
X17613219Y53404417D01*
X17459299Y53468331D01*
X16003323Y54924307D01*
X15940233Y55076998D01*
X15708219Y55309417D01*
X15404923Y55435357D01*
X15076518Y55435643D01*
X14773002Y55310233D01*
X14540583Y55078219D01*
X14414643Y54774923D01*
X14414357Y54446518D01*
X14539767Y54143002D01*
X14771781Y53910583D01*
X14925700Y53846670D01*
X16381676Y52390694D01*
X16444767Y52238002D01*
X16676781Y52005583D01*
X16980077Y51879643D01*
X17308482Y51879357D01*
X17611998Y52004767D01*
X17844417Y52236781D01*
X17970357Y52540077D01*
X17970643Y52868482D01*
X17970643Y41349588D01*
X17948002Y41340233D01*
X17715583Y41108219D01*
X17589643Y40804923D01*
X17589357Y40476518D01*
X17714767Y40173002D01*
X17946781Y39940583D01*
X18250077Y39814643D01*
X18578482Y39814357D01*
X18732510Y39878000D01*
X28702000Y39878000D01*
X28702000Y39394303D01*
X28510583Y39203219D01*
X28384643Y38899923D01*
X28384357Y38571518D01*
X28509767Y38268002D01*
X28741781Y38035583D01*
X29045077Y37909643D01*
X29373482Y37909357D01*
X29676998Y38034767D01*
X29909417Y38266781D01*
X30035357Y38570077D01*
X30035643Y38898482D01*
X29910233Y39201998D01*
X29718000Y39394566D01*
X29718000Y39878000D01*
X40132000Y39878000D01*
X40132000Y39394303D01*
X39940583Y39203219D01*
X39814643Y38899923D01*
X39814357Y38571518D01*
X39939767Y38268002D01*
X40171781Y38035583D01*
X40475077Y37909643D01*
X40803482Y37909357D01*
X41106998Y38034767D01*
X41339417Y38266781D01*
X41465357Y38570077D01*
X41465643Y38898482D01*
X41340233Y39201998D01*
X41148000Y39394566D01*
X41148000Y39878000D01*
X54102000Y39878000D01*
X54102000Y39394303D01*
X53910583Y39203219D01*
X53784643Y38899923D01*
X53784357Y38571518D01*
X53909767Y38268002D01*
X54141781Y38035583D01*
X54445077Y37909643D01*
X54773482Y37909357D01*
X55076998Y38034767D01*
X55309417Y38266781D01*
X55435357Y38570077D01*
X55435643Y38898482D01*
X55310233Y39201998D01*
X55118000Y39394566D01*
X55118000Y39878000D01*
X60960000Y39878000D01*
X66992497Y39878000D01*
X67145077Y39814643D01*
X67473482Y39814357D01*
X67776998Y39939767D01*
X68009417Y40171781D01*
X68135357Y40475077D01*
X68135643Y40803482D01*
X68135643Y456000D01*
X59245643Y456000D01*
X59245643Y35088482D01*
X59120233Y35391998D01*
X58888219Y35624417D01*
X58734299Y35688331D01*
X57053815Y37368815D01*
X56806605Y37533996D01*
X56515000Y37592000D01*
X33020000Y37592000D01*
X20637502Y37592000D01*
X20484923Y37655357D01*
X20156518Y37655643D01*
X19853002Y37530233D01*
X19620583Y37298219D01*
X19494643Y36994923D01*
X19494357Y36666518D01*
X19619767Y36363002D01*
X19851781Y36130583D01*
X20155077Y36004643D01*
X20483482Y36004357D01*
X20637510Y36068000D01*
X32258000Y36068000D01*
X32258000Y35242503D01*
X32194643Y35089923D01*
X32194357Y34761518D01*
X32319767Y34458002D01*
X32551781Y34225583D01*
X32855077Y34099643D01*
X33183482Y34099357D01*
X33486998Y34224767D01*
X33719417Y34456781D01*
X33845357Y34760077D01*
X33845643Y35088482D01*
X33782000Y35242510D01*
X33782000Y36068000D01*
X56199370Y36068000D01*
X57656676Y34610694D01*
X57719767Y34458002D01*
X57951781Y34225583D01*
X58255077Y34099643D01*
X58583482Y34099357D01*
X58886998Y34224767D01*
X59119417Y34456781D01*
X59245357Y34760077D01*
X59245643Y35088482D01*
X59245643Y456000D01*
X43441265Y456000D01*
X43441265Y6653199D01*
X43208675Y7216109D01*
X42778374Y7647162D01*
X42215871Y7880734D01*
X41606801Y7881265D01*
X41043891Y7648675D01*
X40612838Y7218374D01*
X40379266Y6655871D01*
X40378735Y6046801D01*
X40611325Y5483891D01*
X41041626Y5052838D01*
X41604129Y4819266D01*
X42213199Y4818735D01*
X42776109Y5051325D01*
X43207162Y5481626D01*
X43440734Y6044129D01*
X43441265Y6653199D01*
X43441265Y456000D01*
X38361265Y456000D01*
X38361265Y6653199D01*
X38128675Y7216109D01*
X37698374Y7647162D01*
X37135871Y7880734D01*
X36526801Y7881265D01*
X35963891Y7648675D01*
X35532838Y7218374D01*
X35299266Y6655871D01*
X35298735Y6046801D01*
X35531325Y5483891D01*
X35961626Y5052838D01*
X36524129Y4819266D01*
X37133199Y4818735D01*
X37696109Y5051325D01*
X38127162Y5481626D01*
X38360734Y6044129D01*
X38361265Y6653199D01*
X38361265Y456000D01*
X33281265Y456000D01*
X33281265Y6653199D01*
X33048675Y7216109D01*
X32618374Y7647162D01*
X32055871Y7880734D01*
X31446801Y7881265D01*
X30883891Y7648675D01*
X30452838Y7218374D01*
X30219266Y6655871D01*
X30218735Y6046801D01*
X30451325Y5483891D01*
X30881626Y5052838D01*
X31444129Y4819266D01*
X32053199Y4818735D01*
X32616109Y5051325D01*
X33047162Y5481626D01*
X33280734Y6044129D01*
X33281265Y6653199D01*
X33281265Y456000D01*
X28208464Y456000D01*
X28208464Y5200000D01*
X28208464Y7500000D01*
X28180278Y7645274D01*
X28096404Y7772956D01*
X27969784Y7858426D01*
X27820000Y7888464D01*
X25520000Y7888464D01*
X25374726Y7860278D01*
X25247044Y7776404D01*
X25161574Y7649784D01*
X25131536Y7500000D01*
X25131536Y5200000D01*
X25159722Y5054726D01*
X25243596Y4927044D01*
X25370216Y4841574D01*
X25520000Y4811536D01*
X27820000Y4811536D01*
X27965274Y4839722D01*
X28092956Y4923596D01*
X28178426Y5050216D01*
X28208464Y5200000D01*
X28208464Y456000D01*
X21051309Y456000D01*
X21051309Y13827714D01*
X21051309Y19507714D01*
X20780739Y20162543D01*
X20280173Y20663983D01*
X19625817Y20935695D01*
X18917291Y20936314D01*
X18262462Y20665744D01*
X17761022Y20165178D01*
X17489310Y19510822D01*
X17488691Y18802296D01*
X17759261Y18147467D01*
X18259827Y17646027D01*
X18914183Y17374315D01*
X19622709Y17373696D01*
X20277538Y17644266D01*
X20778978Y18144832D01*
X21050690Y18799188D01*
X21051309Y19507714D01*
X21051309Y13827714D01*
X20780739Y14482543D01*
X20280173Y14983983D01*
X19625817Y15255695D01*
X18917291Y15256314D01*
X18262462Y14985744D01*
X17761022Y14485178D01*
X17489310Y13830822D01*
X17488691Y13122296D01*
X17759261Y12467467D01*
X18259827Y11966027D01*
X18914183Y11694315D01*
X19622709Y11693696D01*
X20277538Y11964266D01*
X20778978Y12464832D01*
X21050690Y13119188D01*
X21051309Y13827714D01*
X21051309Y456000D01*
X14791189Y456000D01*
X14791189Y16401066D01*
X14791189Y19021066D01*
X14625444Y19422200D01*
X14318809Y19729371D01*
X13917965Y19895815D01*
X13483939Y19896194D01*
X13082805Y19730449D01*
X12775634Y19423814D01*
X12700019Y19241714D01*
X12625444Y19422200D01*
X12318809Y19729371D01*
X11917965Y19895815D01*
X11691265Y19896012D01*
X11691265Y65708199D01*
X11458675Y66271109D01*
X11028374Y66702162D01*
X10465871Y66935734D01*
X9856801Y66936265D01*
X9293891Y66703675D01*
X8862838Y66273374D01*
X8629266Y65710871D01*
X8628735Y65101801D01*
X8861325Y64538891D01*
X9291626Y64107838D01*
X9854129Y63874266D01*
X10463199Y63873735D01*
X11026109Y64106325D01*
X11457162Y64536626D01*
X11690734Y65099129D01*
X11691265Y65708199D01*
X11691265Y19896012D01*
X11483939Y19896194D01*
X11082805Y19730449D01*
X10775634Y19423814D01*
X10609190Y19022970D01*
X10608811Y18588944D01*
X10774556Y18187810D01*
X11081191Y17880639D01*
X11482035Y17714195D01*
X11916061Y17713816D01*
X12317195Y17879561D01*
X12624366Y18186196D01*
X12699980Y18368297D01*
X12774556Y18187810D01*
X13081191Y17880639D01*
X13482035Y17714195D01*
X13916061Y17713816D01*
X14317195Y17879561D01*
X14624366Y18186196D01*
X14790810Y18587040D01*
X14791189Y19021066D01*
X14791189Y16401066D01*
X14625444Y16802200D01*
X14318809Y17109371D01*
X13917965Y17275815D01*
X13483939Y17276194D01*
X13082805Y17110449D01*
X12775634Y16803814D01*
X12700019Y16621714D01*
X12625444Y16802200D01*
X12318809Y17109371D01*
X11917965Y17275815D01*
X11483939Y17276194D01*
X11082805Y17110449D01*
X10775634Y16803814D01*
X10609190Y16402970D01*
X10608811Y15968944D01*
X10774556Y15567810D01*
X11081191Y15260639D01*
X11482035Y15094195D01*
X11916061Y15093816D01*
X12317195Y15259561D01*
X12624366Y15566196D01*
X12699980Y15748297D01*
X12774556Y15567810D01*
X13081191Y15260639D01*
X13482035Y15094195D01*
X13916061Y15093816D01*
X14317195Y15259561D01*
X14624366Y15566196D01*
X14790810Y15967040D01*
X14791189Y16401066D01*
X14791189Y456000D01*
X10291189Y456000D01*
X10291189Y16401066D01*
X10291189Y19021066D01*
X10125444Y19422200D01*
X9818809Y19729371D01*
X9417965Y19895815D01*
X8983939Y19896194D01*
X8582805Y19730449D01*
X8275634Y19423814D01*
X8109190Y19022970D01*
X8108811Y18588944D01*
X8274556Y18187810D01*
X8581191Y17880639D01*
X8982035Y17714195D01*
X9416061Y17713816D01*
X9817195Y17879561D01*
X10124366Y18186196D01*
X10290810Y18587040D01*
X10291189Y19021066D01*
X10291189Y16401066D01*
X10125444Y16802200D01*
X9818809Y17109371D01*
X9417965Y17275815D01*
X8983939Y17276194D01*
X8582805Y17110449D01*
X8275634Y16803814D01*
X8109190Y16402970D01*
X8108811Y15968944D01*
X8274556Y15567810D01*
X8581191Y15260639D01*
X8982035Y15094195D01*
X9416061Y15093816D01*
X9817195Y15259561D01*
X10124366Y15566196D01*
X10290810Y15967040D01*
X10291189Y16401066D01*
X10291189Y456000D01*
X7911309Y456000D01*
X7911309Y13827714D01*
X7911309Y19507714D01*
X7640739Y20162543D01*
X7140173Y20663983D01*
X6618464Y20880615D01*
X6618464Y64255000D01*
X6618464Y66555000D01*
X6590278Y66700274D01*
X6506404Y66827956D01*
X6379784Y66913426D01*
X6230000Y66943464D01*
X3930000Y66943464D01*
X3784726Y66915278D01*
X3657044Y66831404D01*
X3571574Y66704784D01*
X3541536Y66555000D01*
X3541536Y64255000D01*
X3569722Y64109726D01*
X3653596Y63982044D01*
X3780216Y63896574D01*
X3930000Y63866536D01*
X6230000Y63866536D01*
X6375274Y63894722D01*
X6502956Y63978596D01*
X6588426Y64105216D01*
X6618464Y64255000D01*
X6618464Y20880615D01*
X6504369Y20927991D01*
X6504369Y44450000D01*
X6504369Y46990000D01*
X6484464Y47090068D01*
X6484464Y48666400D01*
X6484464Y50393600D01*
X6456278Y50538874D01*
X6372404Y50666556D01*
X6245784Y50752026D01*
X6096000Y50782064D01*
X4064000Y50782064D01*
X3918726Y50753878D01*
X3791044Y50670004D01*
X3705574Y50543384D01*
X3675536Y50393600D01*
X3675536Y48666400D01*
X3703722Y48521126D01*
X3787596Y48393444D01*
X3914216Y48307974D01*
X4064000Y48277936D01*
X6096000Y48277936D01*
X6241274Y48306122D01*
X6368956Y48389996D01*
X6454426Y48516616D01*
X6484464Y48666400D01*
X6484464Y47090068D01*
X6409629Y47466288D01*
X6139834Y47870065D01*
X5736057Y48139860D01*
X5259769Y48234600D01*
X4900231Y48234600D01*
X4423943Y48139860D01*
X4020166Y47870065D01*
X3750371Y47466288D01*
X3655631Y46990000D01*
X3750371Y46513712D01*
X4020166Y46109935D01*
X4423943Y45840140D01*
X4900231Y45745400D01*
X5259769Y45745400D01*
X5736057Y45840140D01*
X6139834Y46109935D01*
X6409629Y46513712D01*
X6504369Y46990000D01*
X6504369Y44450000D01*
X6409629Y44926288D01*
X6139834Y45330065D01*
X5736057Y45599860D01*
X5259769Y45694600D01*
X4900231Y45694600D01*
X4423943Y45599860D01*
X4020166Y45330065D01*
X3750371Y44926288D01*
X3655631Y44450000D01*
X3750371Y43973712D01*
X4020166Y43569935D01*
X4423943Y43300140D01*
X4900231Y43205400D01*
X5259769Y43205400D01*
X5736057Y43300140D01*
X6139834Y43569935D01*
X6409629Y43973712D01*
X6504369Y44450000D01*
X6504369Y20927991D01*
X6485817Y20935695D01*
X5777291Y20936314D01*
X5122462Y20665744D01*
X4621022Y20165178D01*
X4349310Y19510822D01*
X4348691Y18802296D01*
X4619261Y18147467D01*
X5119827Y17646027D01*
X5774183Y17374315D01*
X6482709Y17373696D01*
X7137538Y17644266D01*
X7638978Y18144832D01*
X7910690Y18799188D01*
X7911309Y19507714D01*
X7911309Y13827714D01*
X7640739Y14482543D01*
X7140173Y14983983D01*
X6485817Y15255695D01*
X5777291Y15256314D01*
X5122462Y14985744D01*
X4621022Y14485178D01*
X4349310Y13830822D01*
X4348691Y13122296D01*
X4619261Y12467467D01*
X5119827Y11966027D01*
X5774183Y11694315D01*
X6482709Y11693696D01*
X7137538Y11964266D01*
X7638978Y12464832D01*
X7910690Y13119188D01*
X7911309Y13827714D01*
X7911309Y456000D01*
X456000Y456000D01*
X456000Y71544000D01*
X71544000Y71544000D01*
X71544000Y456000D01*
M02*
