G04 #@! TF.FileFunction,Legend,Bot*
%FSLAX46Y46*%
G04 Gerber Fmt 4.6, Leading zero omitted, Abs format (unit mm)*
G04 Created by KiCad (PCBNEW (2015-01-16 BZR 5376)-product) date 11/18/2015 9:54:18 PM*
%MOMM*%
G01*
G04 APERTURE LIST*
%ADD10C,0.100000*%
%ADD11C,0.152400*%
%ADD12C,0.150000*%
G04 APERTURE END LIST*
D10*
D11*
X67576095Y9558867D02*
X67092286Y9558867D01*
X67672857Y9268581D02*
X67334190Y10284581D01*
X66995524Y9268581D01*
X66221429Y9945914D02*
X66221429Y8929914D01*
X66221429Y9316962D02*
X66318191Y9268581D01*
X66511714Y9268581D01*
X66608476Y9316962D01*
X66656857Y9365343D01*
X66705238Y9462105D01*
X66705238Y9752390D01*
X66656857Y9849152D01*
X66608476Y9897533D01*
X66511714Y9945914D01*
X66318191Y9945914D01*
X66221429Y9897533D01*
X65302191Y9945914D02*
X65302191Y9268581D01*
X65737619Y9945914D02*
X65737619Y9413724D01*
X65689238Y9316962D01*
X65592476Y9268581D01*
X65447334Y9268581D01*
X65350572Y9316962D01*
X65302191Y9365343D01*
X64382953Y9268581D02*
X64382953Y9800771D01*
X64431334Y9897533D01*
X64528096Y9945914D01*
X64721619Y9945914D01*
X64818381Y9897533D01*
X64382953Y9316962D02*
X64479715Y9268581D01*
X64721619Y9268581D01*
X64818381Y9316962D01*
X64866762Y9413724D01*
X64866762Y9510486D01*
X64818381Y9607248D01*
X64721619Y9655629D01*
X64479715Y9655629D01*
X64382953Y9704010D01*
X63899143Y9268581D02*
X63899143Y10284581D01*
X63512096Y10284581D01*
X63415334Y10236200D01*
X63366953Y10187819D01*
X63318572Y10091057D01*
X63318572Y9945914D01*
X63366953Y9849152D01*
X63415334Y9800771D01*
X63512096Y9752390D01*
X63899143Y9752390D01*
X62883143Y9268581D02*
X62883143Y9945914D01*
X62883143Y10284581D02*
X62931524Y10236200D01*
X62883143Y10187819D01*
X62834762Y10236200D01*
X62883143Y10284581D01*
X62883143Y10187819D01*
X61963905Y9316962D02*
X62060667Y9268581D01*
X62254190Y9268581D01*
X62350952Y9316962D01*
X62399333Y9365343D01*
X62447714Y9462105D01*
X62447714Y9752390D01*
X62399333Y9849152D01*
X62350952Y9897533D01*
X62254190Y9945914D01*
X62060667Y9945914D01*
X61963905Y9897533D01*
X67793810Y7693781D02*
X67793810Y8709781D01*
X67551905Y8709781D01*
X67406763Y8661400D01*
X67310001Y8564638D01*
X67261620Y8467876D01*
X67213239Y8274352D01*
X67213239Y8129210D01*
X67261620Y7935686D01*
X67310001Y7838924D01*
X67406763Y7742162D01*
X67551905Y7693781D01*
X67793810Y7693781D01*
X66777810Y7693781D02*
X66777810Y8371114D01*
X66777810Y8709781D02*
X66826191Y8661400D01*
X66777810Y8613019D01*
X66729429Y8661400D01*
X66777810Y8709781D01*
X66777810Y8613019D01*
X66294000Y7693781D02*
X66294000Y8371114D01*
X66294000Y8274352D02*
X66245619Y8322733D01*
X66148857Y8371114D01*
X66003715Y8371114D01*
X65906953Y8322733D01*
X65858572Y8225971D01*
X65858572Y7693781D01*
X65858572Y8225971D02*
X65810191Y8322733D01*
X65713429Y8371114D01*
X65568286Y8371114D01*
X65471524Y8322733D01*
X65423143Y8225971D01*
X65423143Y7693781D01*
X64939333Y7693781D02*
X64939333Y8371114D01*
X64939333Y8274352D02*
X64890952Y8322733D01*
X64794190Y8371114D01*
X64649048Y8371114D01*
X64552286Y8322733D01*
X64503905Y8225971D01*
X64503905Y7693781D01*
X64503905Y8225971D02*
X64455524Y8322733D01*
X64358762Y8371114D01*
X64213619Y8371114D01*
X64116857Y8322733D01*
X64068476Y8225971D01*
X64068476Y7693781D01*
X63584666Y7693781D02*
X63584666Y8371114D01*
X63584666Y8709781D02*
X63633047Y8661400D01*
X63584666Y8613019D01*
X63536285Y8661400D01*
X63584666Y8709781D01*
X63584666Y8613019D01*
X63100856Y8371114D02*
X63100856Y7693781D01*
X63100856Y8274352D02*
X63052475Y8322733D01*
X62955713Y8371114D01*
X62810571Y8371114D01*
X62713809Y8322733D01*
X62665428Y8225971D01*
X62665428Y7693781D01*
X61746190Y8371114D02*
X61746190Y7548638D01*
X61794571Y7451876D01*
X61842952Y7403495D01*
X61939713Y7355114D01*
X62084856Y7355114D01*
X62181618Y7403495D01*
X61746190Y7742162D02*
X61842952Y7693781D01*
X62036475Y7693781D01*
X62133237Y7742162D01*
X62181618Y7790543D01*
X62229999Y7887305D01*
X62229999Y8177590D01*
X62181618Y8274352D01*
X62133237Y8322733D01*
X62036475Y8371114D01*
X61842952Y8371114D01*
X61746190Y8322733D01*
X66874571Y6118981D02*
X67213237Y6602790D01*
X67455142Y6118981D02*
X67455142Y7134981D01*
X67068095Y7134981D01*
X66971333Y7086600D01*
X66922952Y7038219D01*
X66874571Y6941457D01*
X66874571Y6796314D01*
X66922952Y6699552D01*
X66971333Y6651171D01*
X67068095Y6602790D01*
X67455142Y6602790D01*
X66052095Y6167362D02*
X66148857Y6118981D01*
X66342380Y6118981D01*
X66439142Y6167362D01*
X66487523Y6264124D01*
X66487523Y6651171D01*
X66439142Y6747933D01*
X66342380Y6796314D01*
X66148857Y6796314D01*
X66052095Y6747933D01*
X66003714Y6651171D01*
X66003714Y6554410D01*
X66487523Y6457648D01*
X65665047Y6796314D02*
X65423142Y6118981D01*
X65181238Y6796314D01*
X63487905Y6118981D02*
X64068476Y6118981D01*
X63778190Y6118981D02*
X63778190Y7134981D01*
X63874952Y6989838D01*
X63971714Y6893076D01*
X64068476Y6844695D01*
X63052476Y6215743D02*
X63004095Y6167362D01*
X63052476Y6118981D01*
X63100857Y6167362D01*
X63052476Y6215743D01*
X63052476Y6118981D01*
X62036476Y6118981D02*
X62617047Y6118981D01*
X62326761Y6118981D02*
X62326761Y7134981D01*
X62423523Y6989838D01*
X62520285Y6893076D01*
X62617047Y6844695D01*
X69753236Y4592562D02*
X69608093Y4544181D01*
X69366189Y4544181D01*
X69269427Y4592562D01*
X69221046Y4640943D01*
X69172665Y4737705D01*
X69172665Y4834467D01*
X69221046Y4931229D01*
X69269427Y4979610D01*
X69366189Y5027990D01*
X69559712Y5076371D01*
X69656474Y5124752D01*
X69704855Y5173133D01*
X69753236Y5269895D01*
X69753236Y5366657D01*
X69704855Y5463419D01*
X69656474Y5511800D01*
X69559712Y5560181D01*
X69317808Y5560181D01*
X69172665Y5511800D01*
X68737236Y4544181D02*
X68737236Y5560181D01*
X68640474Y4931229D02*
X68350189Y4544181D01*
X68350189Y5221514D02*
X68737236Y4834467D01*
X68011522Y5221514D02*
X67769617Y4544181D01*
X67527713Y5221514D02*
X67769617Y4544181D01*
X67866379Y4302276D01*
X67914760Y4253895D01*
X68011522Y4205514D01*
X66995522Y4544181D02*
X67092284Y4592562D01*
X67140665Y4689324D01*
X67140665Y5560181D01*
X66221428Y4592562D02*
X66318190Y4544181D01*
X66511713Y4544181D01*
X66608475Y4592562D01*
X66656856Y4689324D01*
X66656856Y5076371D01*
X66608475Y5173133D01*
X66511713Y5221514D01*
X66318190Y5221514D01*
X66221428Y5173133D01*
X66173047Y5076371D01*
X66173047Y4979610D01*
X66656856Y4882848D01*
X65737618Y4544181D02*
X65737618Y5221514D01*
X65737618Y5027990D02*
X65689237Y5124752D01*
X65640856Y5173133D01*
X65544094Y5221514D01*
X65447333Y5221514D01*
X63995905Y5076371D02*
X63850762Y5027990D01*
X63802381Y4979610D01*
X63754000Y4882848D01*
X63754000Y4737705D01*
X63802381Y4640943D01*
X63850762Y4592562D01*
X63947524Y4544181D01*
X64334571Y4544181D01*
X64334571Y5560181D01*
X63995905Y5560181D01*
X63899143Y5511800D01*
X63850762Y5463419D01*
X63802381Y5366657D01*
X63802381Y5269895D01*
X63850762Y5173133D01*
X63899143Y5124752D01*
X63995905Y5076371D01*
X64334571Y5076371D01*
X63318571Y4544181D02*
X63318571Y5221514D01*
X63318571Y5027990D02*
X63270190Y5124752D01*
X63221809Y5173133D01*
X63125047Y5221514D01*
X63028286Y5221514D01*
X62254191Y4544181D02*
X62254191Y5076371D01*
X62302572Y5173133D01*
X62399334Y5221514D01*
X62592857Y5221514D01*
X62689619Y5173133D01*
X62254191Y4592562D02*
X62350953Y4544181D01*
X62592857Y4544181D01*
X62689619Y4592562D01*
X62738000Y4689324D01*
X62738000Y4786086D01*
X62689619Y4882848D01*
X62592857Y4931229D01*
X62350953Y4931229D01*
X62254191Y4979610D01*
X61770381Y5221514D02*
X61770381Y4544181D01*
X61770381Y5124752D02*
X61722000Y5173133D01*
X61625238Y5221514D01*
X61480096Y5221514D01*
X61383334Y5173133D01*
X61334953Y5076371D01*
X61334953Y4544181D01*
X60415715Y4544181D02*
X60415715Y5560181D01*
X60415715Y4592562D02*
X60512477Y4544181D01*
X60706000Y4544181D01*
X60802762Y4592562D01*
X60851143Y4640943D01*
X60899524Y4737705D01*
X60899524Y5027990D01*
X60851143Y5124752D01*
X60802762Y5173133D01*
X60706000Y5221514D01*
X60512477Y5221514D01*
X60415715Y5173133D01*
X60077048Y5221514D02*
X59690000Y5221514D01*
X59931905Y5560181D02*
X59931905Y4689324D01*
X59883524Y4592562D01*
X59786762Y4544181D01*
X59690000Y4544181D01*
D12*
X51671220Y5692140D02*
X51310540Y4221480D01*
X51310540Y4221480D02*
X51031140Y5283200D01*
X51031140Y5283200D02*
X50721260Y4211320D01*
X50721260Y4211320D02*
X50380900Y5661660D01*
X53091080Y5001260D02*
X52301140Y5011420D01*
X52301140Y5011420D02*
X52290980Y5001260D01*
X52290980Y5001260D02*
X52290980Y5011420D01*
X52250340Y5722620D02*
X52250340Y4180840D01*
X53139340Y5732780D02*
X53139340Y4163060D01*
X53139340Y4163060D02*
X53129180Y4173220D01*
X53690520Y5631180D02*
X54041040Y5712460D01*
X54041040Y5712460D02*
X54361080Y5722620D01*
X54361080Y5722620D02*
X54599840Y5521960D01*
X54599840Y5521960D02*
X54630320Y5252720D01*
X54630320Y5252720D02*
X54389020Y5011420D01*
X54389020Y5011420D02*
X54000400Y4881880D01*
X54000400Y4881880D02*
X53820060Y4721860D01*
X53820060Y4721860D02*
X53779420Y4422140D01*
X53779420Y4422140D02*
X54010560Y4201160D01*
X54010560Y4201160D02*
X54330600Y4173220D01*
X54330600Y4173220D02*
X54681120Y4282440D01*
X55719980Y5732780D02*
X55968900Y5712460D01*
X55968900Y5712460D02*
X56210200Y5471160D01*
X56210200Y5471160D02*
X56299100Y4980940D01*
X56299100Y4980940D02*
X56271160Y4632960D01*
X56271160Y4632960D02*
X56070500Y4312920D01*
X56070500Y4312920D02*
X55819040Y4191000D01*
X55819040Y4191000D02*
X55509160Y4262120D01*
X55509160Y4262120D02*
X55290720Y4442460D01*
X55290720Y4442460D02*
X55219600Y4902200D01*
X55219600Y4902200D02*
X55270400Y5311140D01*
X55270400Y5311140D02*
X55379620Y5593080D01*
X55379620Y5593080D02*
X55740300Y5722620D01*
X55120540Y7452360D02*
X55379620Y6891020D01*
X55379620Y6891020D02*
X54841140Y6372860D01*
X54841140Y6372860D02*
X54320440Y6642100D01*
X54320440Y6642100D02*
X54041040Y6482080D01*
X52600860Y6502400D02*
X52270660Y6692900D01*
X52270660Y6692900D02*
X51831240Y6362700D01*
X51831240Y6362700D02*
X51358800Y6852920D01*
X51358800Y6852920D02*
X51640740Y7332980D01*
X51640740Y7332980D02*
X51450240Y7802880D01*
X51450240Y7802880D02*
X50840640Y7990840D01*
X50840640Y7990840D02*
X50840640Y8671560D01*
X50840640Y8671560D02*
X51399440Y8811260D01*
X51399440Y8811260D02*
X51600100Y9382760D01*
X51600100Y9382760D02*
X51330860Y9852660D01*
X51330860Y9852660D02*
X51800760Y10363200D01*
X51800760Y10363200D02*
X52318920Y10101580D01*
X52318920Y10101580D02*
X52788820Y10302240D01*
X52788820Y10302240D02*
X52959000Y10843260D01*
X52959000Y10843260D02*
X53649880Y10861040D01*
X53649880Y10861040D02*
X53860700Y10312400D01*
X53860700Y10312400D02*
X54279800Y10142220D01*
X54279800Y10142220D02*
X54830980Y10411460D01*
X54830980Y10411460D02*
X55349140Y9883140D01*
X55349140Y9883140D02*
X55100220Y9342120D01*
X55100220Y9342120D02*
X55270400Y8862060D01*
X55270400Y8862060D02*
X55819040Y8763000D01*
X55819040Y8763000D02*
X55829200Y8061960D01*
X55829200Y8061960D02*
X55270400Y7861300D01*
X55270400Y7861300D02*
X55130700Y7462520D01*
X52989480Y7482840D02*
X52689760Y7632700D01*
X52689760Y7632700D02*
X52489100Y7830820D01*
X52489100Y7830820D02*
X52339240Y8232140D01*
X52339240Y8232140D02*
X52339240Y8630920D01*
X52339240Y8630920D02*
X52489100Y8981440D01*
X52489100Y8981440D02*
X52941220Y9331960D01*
X52941220Y9331960D02*
X53390800Y9382760D01*
X53390800Y9382760D02*
X53789580Y9281160D01*
X53789580Y9281160D02*
X54190900Y8933180D01*
X54190900Y8933180D02*
X54340760Y8481060D01*
X54340760Y8481060D02*
X54289960Y7983220D01*
X54289960Y7983220D02*
X54041040Y7680960D01*
X54041040Y7680960D02*
X53690520Y7482840D01*
X53690520Y7482840D02*
X54041040Y6482080D01*
X52989480Y7482840D02*
X52590700Y6482080D01*
M02*
