G04 #@! TF.FileFunction,Soldermask,Top*
%FSLAX46Y46*%
G04 Gerber Fmt 4.6, Leading zero omitted, Abs format (unit mm)*
G04 Created by KiCad (PCBNEW 4.0.2+dfsg1-stable) date Tue 31 Jul 2018 01:25:16 PM EDT*
%MOMM*%
G01*
G04 APERTURE LIST*
%ADD10C,0.127000*%
%ADD11R,1.650000X1.400000*%
%ADD12C,1.820000*%
%ADD13C,3.200000*%
%ADD14R,1.100000X1.700000*%
%ADD15R,1.400000X1.650000*%
%ADD16R,1.300000X1.200000*%
%ADD17R,2.900000X2.700000*%
%ADD18C,2.700000*%
%ADD19R,2.700000X2.700000*%
%ADD20R,2.100000X2.100000*%
%ADD21O,2.100000X2.100000*%
%ADD22R,1.416000X3.194000*%
%ADD23R,1.850000X0.850000*%
%ADD24R,2.400000X0.800000*%
%ADD25R,2.150000X0.850000*%
%ADD26R,4.200000X2.400000*%
%ADD27R,1.900000X2.400000*%
%ADD28R,1.598880X1.598880*%
%ADD29R,1.000000X1.950000*%
%ADD30R,1.900000X1.300000*%
%ADD31R,1.200000X1.300000*%
G04 APERTURE END LIST*
D10*
D11*
X46990000Y56880000D03*
X46990000Y54880000D03*
D12*
X9200000Y19440005D03*
X11700000Y19440005D03*
X13700000Y19440005D03*
X16200000Y19440005D03*
X9200000Y16820005D03*
X11700000Y16820005D03*
X13700000Y16820005D03*
X16200000Y16820005D03*
D13*
X19270000Y14110005D03*
X19270000Y19790005D03*
X6130000Y19790005D03*
X6130000Y14110005D03*
D14*
X48575000Y50165000D03*
X46675000Y50165000D03*
D15*
X37195000Y44450000D03*
X35195000Y44450000D03*
D11*
X29845000Y37735000D03*
X29845000Y39735000D03*
X40005000Y37735000D03*
X40005000Y39735000D03*
X51435000Y37735000D03*
X51435000Y39735000D03*
X61595000Y37735000D03*
X61595000Y39735000D03*
D16*
X23400000Y39685000D03*
X23400000Y37785000D03*
X25400000Y38735000D03*
D17*
X25155000Y21590000D03*
X29455000Y21590000D03*
D16*
X33560000Y39685000D03*
X33560000Y37785000D03*
X35560000Y38735000D03*
D17*
X35315000Y21590000D03*
X39615000Y21590000D03*
D16*
X44974000Y39685000D03*
X44974000Y37785000D03*
X46974000Y38735000D03*
D17*
X46745000Y21590000D03*
X51045000Y21590000D03*
D16*
X55388000Y39558000D03*
X55388000Y37658000D03*
X57388000Y38608000D03*
D17*
X56905000Y21590000D03*
X61205000Y21590000D03*
D18*
X62865000Y6350000D03*
X60325000Y6350000D03*
X57785000Y6350000D03*
X55245000Y6350000D03*
X52705000Y6350000D03*
X50165000Y6350000D03*
X47625000Y6350000D03*
D19*
X45085000Y6350000D03*
X23495000Y6350000D03*
D18*
X26035000Y6350000D03*
X28575000Y6350000D03*
X31115000Y6350000D03*
X33655000Y6350000D03*
X36195000Y6350000D03*
X38735000Y6350000D03*
X41275000Y6350000D03*
D19*
X69850000Y6350000D03*
D18*
X72390000Y6350000D03*
D20*
X33655000Y67310000D03*
D21*
X36195000Y67310000D03*
X38735000Y67310000D03*
X41275000Y67310000D03*
X43815000Y67310000D03*
X46355000Y67310000D03*
D14*
X40955000Y50165000D03*
X39055000Y50165000D03*
X30160000Y34925000D03*
X28260000Y34925000D03*
X24450000Y34925000D03*
X26350000Y34925000D03*
X40320000Y34925000D03*
X38420000Y34925000D03*
X34610000Y34925000D03*
X36510000Y34925000D03*
X51750000Y34925000D03*
X49850000Y34925000D03*
X46040000Y34925000D03*
X47940000Y34925000D03*
X61910000Y34925000D03*
X60010000Y34925000D03*
X56200000Y34925000D03*
X58100000Y34925000D03*
D22*
X24765000Y26860500D03*
X27305000Y31559500D03*
X29845000Y26860500D03*
X34925000Y26860500D03*
X37465000Y31559500D03*
X40005000Y26860500D03*
X46355000Y26860500D03*
X48895000Y31559500D03*
X51435000Y26860500D03*
X56515000Y26860500D03*
X59055000Y31559500D03*
X61595000Y26860500D03*
D23*
X39595000Y47670000D03*
X39595000Y47020000D03*
X39595000Y46370000D03*
X39595000Y45720000D03*
X39595000Y45070000D03*
X39595000Y44420000D03*
X39595000Y43770000D03*
X45495000Y43770000D03*
X45495000Y44420000D03*
X45495000Y45070000D03*
X45495000Y45720000D03*
X45495000Y46370000D03*
X45495000Y47020000D03*
X45495000Y47670000D03*
D24*
X33020000Y59690000D03*
X33020000Y60890000D03*
X33020000Y58490000D03*
D11*
X33655000Y52975000D03*
X33655000Y54975000D03*
D25*
X36405000Y61375000D03*
X36405000Y60725000D03*
X36405000Y60075000D03*
X36405000Y59425000D03*
X36405000Y58775000D03*
X36405000Y58125000D03*
X36405000Y57475000D03*
X36405000Y56825000D03*
X36405000Y56175000D03*
X36405000Y55525000D03*
X36405000Y54875000D03*
X36405000Y54225000D03*
X36405000Y53575000D03*
X36405000Y52925000D03*
X43605000Y52925000D03*
X43605000Y53575000D03*
X43605000Y54225000D03*
X43605000Y54875000D03*
X43605000Y55525000D03*
X43605000Y56175000D03*
X43605000Y56825000D03*
X43605000Y57475000D03*
X43605000Y58125000D03*
X43605000Y58775000D03*
X43605000Y59425000D03*
X43605000Y60075000D03*
X43605000Y60725000D03*
X43605000Y61375000D03*
D11*
X46990000Y61341000D03*
X46990000Y59341000D03*
D26*
X6985000Y41300000D03*
D27*
X6985000Y47600000D03*
X4685000Y47600000D03*
X9285000Y47600000D03*
D11*
X4445000Y50435000D03*
X4445000Y52435000D03*
X6985000Y50435000D03*
X6985000Y52435000D03*
X19050000Y25130000D03*
X19050000Y23130000D03*
D28*
X72610980Y59690000D03*
X74709020Y59690000D03*
D14*
X65720000Y64770000D03*
X63820000Y64770000D03*
X65720000Y62230000D03*
X63820000Y62230000D03*
X65720000Y67310000D03*
X63820000Y67310000D03*
X14920000Y53340000D03*
X13020000Y53340000D03*
X14920000Y50800000D03*
X13020000Y50800000D03*
X13020000Y48260000D03*
X14920000Y48260000D03*
X13020000Y45085000D03*
X14920000Y45085000D03*
X13020000Y42545000D03*
X14920000Y42545000D03*
X13020000Y36195000D03*
X14920000Y36195000D03*
X63820000Y59690000D03*
X65720000Y59690000D03*
D29*
X19050000Y33180000D03*
X17780000Y33180000D03*
X16510000Y33180000D03*
X15240000Y33180000D03*
X15240000Y27780000D03*
X16510000Y27780000D03*
X17780000Y27780000D03*
X19050000Y27780000D03*
D30*
X75210000Y66560000D03*
X75210000Y68060000D03*
X72110000Y68060000D03*
X72110000Y66560000D03*
D19*
X5080000Y64770000D03*
D18*
X7620000Y64770000D03*
D16*
X17415000Y50480000D03*
X17415000Y48580000D03*
X19415000Y49530000D03*
X17415000Y44765000D03*
X17415000Y42865000D03*
X19415000Y43815000D03*
X17415000Y38415000D03*
X17415000Y36515000D03*
X19415000Y37465000D03*
D31*
X4130000Y54880000D03*
X6030000Y54880000D03*
X5080000Y56880000D03*
D14*
X13020000Y38608000D03*
X14920000Y38608000D03*
M02*
