M48
;DRILL file {KiCad 4.0.1-stable} date 8/17/2016 11:23:19 PM
;FORMAT={-:-/ absolute / inch / decimal}
FMAT,2
INCH,TZ
T1C0.016
T2C0.036
T3C0.040
T4C0.051
T5C0.091
T6C0.134
%
G90
G05
M72
T1
X0.1Y2.15
X0.575Y1.925
X0.7Y1.6
X1.125Y2.225
X1.325Y2.225
X1.45Y2.225
X1.575Y1.95
X1.575Y1.9
X1.625Y1.95
X1.65Y2.025
X1.65Y1.825
X1.7Y2.125
X1.7Y1.775
X1.825Y2.125
X1.95Y2.2
X3.Y2.35
T2
X0.3622Y0.7404
X0.3622Y0.6372
X0.4606Y0.7404
X0.4606Y0.6372
X0.5394Y0.7404
X0.5394Y0.6372
X0.6378Y0.7404
X0.6378Y0.6372
T3
X0.2Y1.95
X0.2Y1.85
X0.2Y1.75
X1.325Y2.65
X1.425Y2.65
X1.525Y2.65
X1.625Y2.65
X1.725Y2.65
X1.825Y2.65
T4
X0.2Y2.575
X0.3Y2.575
X0.925Y0.25
X1.025Y0.25
X1.125Y0.25
X1.225Y0.25
X1.325Y0.25
X1.425Y0.25
X1.525Y0.25
X1.625Y0.25
X1.775Y0.25
X1.875Y0.25
X1.975Y0.25
X2.075Y0.25
X2.175Y0.25
X2.275Y0.25
X2.375Y0.25
X2.475Y0.25
T5
X0.2413Y0.7541
X0.2413Y0.5305
X0.7587Y0.7541
X0.7587Y0.5305
T6
X2.825Y0.325
T0
M30
