G04 #@! TF.FileFunction,Copper,L1,Top,Signal*
%FSLAX46Y46*%
G04 Gerber Fmt 4.6, Leading zero omitted, Abs format (unit mm)*
G04 Created by KiCad (PCBNEW 4.0.7) date Thu Nov 16 18:20:54 2017*
%MOMM*%
%LPD*%
G01*
G04 APERTURE LIST*
%ADD10C,0.127000*%
%ADD11R,0.700000X1.300000*%
%ADD12R,1.000000X1.250000*%
%ADD13R,1.550000X0.600000*%
%ADD14R,1.198880X1.198880*%
%ADD15R,1.250000X1.000000*%
%ADD16R,1.500000X0.900000*%
%ADD17R,0.900000X0.800000*%
%ADD18R,2.500000X2.300000*%
%ADD19C,1.420000*%
%ADD20C,2.800000*%
%ADD21C,2.300000*%
%ADD22R,2.300000X2.300000*%
%ADD23R,1.700000X1.700000*%
%ADD24O,1.700000X1.700000*%
%ADD25R,1.016000X2.794000*%
%ADD26R,1.450000X0.450000*%
%ADD27R,2.000000X0.400000*%
%ADD28R,1.300000X0.700000*%
%ADD29R,2.000000X3.800000*%
%ADD30R,2.000000X1.500000*%
%ADD31R,1.750000X0.450000*%
%ADD32C,0.600000*%
%ADD33C,0.762000*%
%ADD34C,0.254000*%
%ADD35C,0.508000*%
G04 APERTURE END LIST*
D10*
D11*
X48575000Y50165000D03*
X46675000Y50165000D03*
D12*
X16780000Y42545000D03*
X18780000Y42545000D03*
D11*
X65720000Y64770000D03*
X63820000Y64770000D03*
X65720000Y62230000D03*
X63820000Y62230000D03*
X63820000Y59690000D03*
X65720000Y59690000D03*
X65720000Y67310000D03*
X63820000Y67310000D03*
D13*
X20480000Y45085000D03*
X20480000Y46355000D03*
X20480000Y47625000D03*
X20480000Y48895000D03*
X15080000Y48895000D03*
X15080000Y47625000D03*
X15080000Y46355000D03*
X15080000Y45085000D03*
D14*
X74709020Y59690000D03*
X72610980Y59690000D03*
D12*
X37195000Y44450000D03*
X35195000Y44450000D03*
D15*
X29845000Y37735000D03*
X29845000Y39735000D03*
X40005000Y37735000D03*
X40005000Y39735000D03*
X51435000Y37735000D03*
X51435000Y39735000D03*
X61595000Y37735000D03*
X61595000Y39735000D03*
D16*
X75210000Y66560000D03*
X75210000Y68060000D03*
X72110000Y68060000D03*
X72110000Y66560000D03*
D17*
X23400000Y39685000D03*
X23400000Y37785000D03*
X25400000Y38735000D03*
D18*
X25155000Y21590000D03*
X29455000Y21590000D03*
D17*
X33560000Y39685000D03*
X33560000Y37785000D03*
X35560000Y38735000D03*
D18*
X35315000Y21590000D03*
X39615000Y21590000D03*
D17*
X44974000Y39685000D03*
X44974000Y37785000D03*
X46974000Y38735000D03*
D18*
X46745000Y21590000D03*
X51045000Y21590000D03*
D17*
X55388000Y39558000D03*
X55388000Y37658000D03*
X57388000Y38608000D03*
D18*
X56905000Y21590000D03*
X61205000Y21590000D03*
D19*
X9200000Y18805005D03*
X11700000Y18805005D03*
X13700000Y18805005D03*
X16200000Y18805005D03*
X9200000Y16185005D03*
X11700000Y16185005D03*
X13700000Y16185005D03*
X16200000Y16185005D03*
D20*
X19270000Y13475005D03*
X19270000Y19155005D03*
X6130000Y19155005D03*
X6130000Y13475005D03*
D21*
X62865000Y6350000D03*
X60325000Y6350000D03*
X57785000Y6350000D03*
X55245000Y6350000D03*
X52705000Y6350000D03*
X50165000Y6350000D03*
X47625000Y6350000D03*
D22*
X45085000Y6350000D03*
X23495000Y6350000D03*
D21*
X26035000Y6350000D03*
X28575000Y6350000D03*
X31115000Y6350000D03*
X33655000Y6350000D03*
X36195000Y6350000D03*
X38735000Y6350000D03*
X41275000Y6350000D03*
D22*
X69850000Y6350000D03*
D21*
X72390000Y6350000D03*
D22*
X5080000Y65405000D03*
D21*
X7620000Y65405000D03*
D23*
X33655000Y67310000D03*
D24*
X36195000Y67310000D03*
X38735000Y67310000D03*
X41275000Y67310000D03*
X43815000Y67310000D03*
X46355000Y67310000D03*
D11*
X36195000Y50165000D03*
X38095000Y50165000D03*
X30160000Y34925000D03*
X28260000Y34925000D03*
X24450000Y34925000D03*
X26350000Y34925000D03*
X40320000Y34925000D03*
X38420000Y34925000D03*
X34610000Y34925000D03*
X36510000Y34925000D03*
X51750000Y34925000D03*
X49850000Y34925000D03*
X46040000Y34925000D03*
X47940000Y34925000D03*
X61910000Y34925000D03*
X60010000Y34925000D03*
X56200000Y34925000D03*
X58100000Y34925000D03*
D25*
X24765000Y26860500D03*
X27305000Y31559500D03*
X29845000Y26860500D03*
X34925000Y26860500D03*
X37465000Y31559500D03*
X40005000Y26860500D03*
X46355000Y26860500D03*
X48895000Y31559500D03*
X51435000Y26860500D03*
X56515000Y26860500D03*
X59055000Y31559500D03*
X61595000Y26860500D03*
D26*
X39595000Y47670000D03*
X39595000Y47020000D03*
X39595000Y46370000D03*
X39595000Y45720000D03*
X39595000Y45070000D03*
X39595000Y44420000D03*
X39595000Y43770000D03*
X45495000Y43770000D03*
X45495000Y44420000D03*
X45495000Y45070000D03*
X45495000Y45720000D03*
X45495000Y46370000D03*
X45495000Y47020000D03*
X45495000Y47670000D03*
D27*
X33020000Y59690000D03*
X33020000Y60890000D03*
X33020000Y58490000D03*
D12*
X34020000Y56515000D03*
X32020000Y56515000D03*
D15*
X46990000Y54880000D03*
X46990000Y56880000D03*
X12700000Y63865000D03*
X12700000Y61865000D03*
X12700000Y66310000D03*
X12700000Y68310000D03*
D17*
X24495000Y56835000D03*
X24495000Y58735000D03*
X22495000Y57785000D03*
X28305000Y45405000D03*
X28305000Y47305000D03*
X26305000Y46355000D03*
X28305000Y51120000D03*
X28305000Y53020000D03*
X26305000Y52070000D03*
D28*
X27305000Y56835000D03*
X27305000Y58735000D03*
X19685000Y58735000D03*
X19685000Y56835000D03*
X31115000Y45405000D03*
X31115000Y47305000D03*
X23495000Y47305000D03*
X23495000Y45405000D03*
D11*
X30800000Y53340000D03*
X32700000Y53340000D03*
X30800000Y50800000D03*
X32700000Y50800000D03*
D28*
X23495000Y53020000D03*
X23495000Y51120000D03*
D29*
X22200000Y65405000D03*
D30*
X15900000Y65405000D03*
X15900000Y63105000D03*
X15900000Y67705000D03*
D17*
X6080000Y54930000D03*
X6080000Y56830000D03*
X4080000Y55880000D03*
D31*
X36405000Y61375000D03*
X36405000Y60725000D03*
X36405000Y60075000D03*
X36405000Y59425000D03*
X36405000Y58775000D03*
X36405000Y58125000D03*
X36405000Y57475000D03*
X36405000Y56825000D03*
X36405000Y56175000D03*
X36405000Y55525000D03*
X36405000Y54875000D03*
X36405000Y54225000D03*
X36405000Y53575000D03*
X36405000Y52925000D03*
X43605000Y52925000D03*
X43605000Y53575000D03*
X43605000Y54225000D03*
X43605000Y54875000D03*
X43605000Y55525000D03*
X43605000Y56175000D03*
X43605000Y56825000D03*
X43605000Y57475000D03*
X43605000Y58125000D03*
X43605000Y58775000D03*
X43605000Y59425000D03*
X43605000Y60075000D03*
X43605000Y60725000D03*
X43605000Y61375000D03*
D32*
X20826881Y57913119D03*
X21082096Y56385886D03*
X24765000Y52070000D03*
X24765000Y50489800D03*
X15240000Y49530000D03*
X6985000Y54610000D03*
X12700000Y60960000D03*
X15240000Y68580000D03*
X14605000Y67310000D03*
X16510000Y68580000D03*
X17145000Y67310000D03*
X14605000Y67945000D03*
X15875000Y68580000D03*
X17145000Y67945000D03*
X12700000Y69215000D03*
X31750000Y59690000D03*
X23495000Y34925000D03*
X33655000Y34925000D03*
X45085000Y34925000D03*
X61595000Y40640000D03*
X55245000Y34925000D03*
X19685000Y42545000D03*
X23495000Y40640000D03*
X29845000Y40640000D03*
X33710619Y40584381D03*
X40005000Y40640000D03*
X55181881Y40576881D03*
X51435000Y40640000D03*
X45085000Y40640000D03*
X46990000Y45085000D03*
X46990000Y46355000D03*
X46990000Y47650200D03*
X38100000Y47000200D03*
X38100000Y45720000D03*
X34925000Y43180000D03*
X33655000Y50800000D03*
X29210000Y53340000D03*
X31115000Y56515000D03*
X37750638Y58528079D03*
X41894881Y58435119D03*
X46990000Y57785000D03*
X62865000Y21590000D03*
X52705000Y21590000D03*
X31115000Y21590000D03*
X41275000Y21590000D03*
X76200000Y59690000D03*
X40640000Y60325000D03*
X36195000Y62865000D03*
X41910000Y60791797D03*
X41910000Y61595000D03*
X45720000Y52827200D03*
X46355000Y51312800D03*
X41275000Y46355000D03*
X41275000Y43815000D03*
X50922200Y64770000D03*
X49407800Y64770000D03*
X39370000Y62865000D03*
X38100000Y61595000D03*
X50922200Y63966797D03*
X49407800Y63966797D03*
X40640000Y62865000D03*
X39370000Y61595000D03*
X50922200Y62865000D03*
X49407800Y62865000D03*
X41910000Y62865000D03*
X40640000Y61595000D03*
X37464800Y52070000D03*
X40640000Y52070000D03*
X28575000Y59690000D03*
X29845000Y60960000D03*
X40005000Y50165000D03*
X38735000Y48895000D03*
D33*
X9200000Y16185005D02*
X19035005Y6350000D01*
X19035005Y6350000D02*
X23495000Y6350000D01*
D34*
X20826881Y57913119D02*
X20506881Y57913119D01*
X20506881Y57913119D02*
X19685000Y58735000D01*
X23495000Y53020000D02*
X23495000Y53972982D01*
X23495000Y53972982D02*
X21082096Y56385886D01*
X24765000Y52070000D02*
X24445000Y52070000D01*
X24445000Y52070000D02*
X23495000Y53020000D01*
X23495000Y47305000D02*
X23495000Y49219800D01*
X23495000Y49219800D02*
X24765000Y50489800D01*
X12700000Y63865000D02*
X12575000Y63865000D01*
X74503152Y70561210D02*
X76290201Y68774161D01*
X12575000Y63865000D02*
X11430000Y65010000D01*
X11430000Y65010000D02*
X11430000Y68877698D01*
X76290201Y65845839D02*
X71114563Y60670201D01*
X63820000Y59990000D02*
X63820000Y59690000D01*
X11430000Y68877698D02*
X13113512Y70561210D01*
X13113512Y70561210D02*
X74503152Y70561210D01*
X76290201Y68774161D02*
X76290201Y65845839D01*
X71114563Y60670201D02*
X64500201Y60670201D01*
X64500201Y60670201D02*
X63820000Y59990000D01*
X16312201Y61434799D02*
X16685201Y61434799D01*
X16685201Y61434799D02*
X19385000Y58735000D01*
X19385000Y58735000D02*
X19685000Y58735000D01*
D35*
X15080000Y45085000D02*
X15080000Y44245000D01*
X15080000Y44245000D02*
X16780000Y42545000D01*
X16312201Y45522201D02*
X15875000Y45085000D01*
X15875000Y45085000D02*
X15080000Y45085000D01*
X15900000Y63105000D02*
X15900000Y61847000D01*
X15900000Y61847000D02*
X16312201Y61434799D01*
X16312201Y61434799D02*
X16312201Y45522201D01*
D33*
X12700000Y63865000D02*
X14240000Y63865000D01*
X14240000Y63865000D02*
X15000000Y63105000D01*
X15000000Y63105000D02*
X15900000Y63105000D01*
X9200000Y18805005D02*
X9200000Y54920000D01*
X9200000Y54920000D02*
X13335000Y59055000D01*
X6080000Y56830000D02*
X8305000Y59055000D01*
X8305000Y59055000D02*
X13335000Y59055000D01*
X15900000Y61620000D02*
X15900000Y63105000D01*
X13335000Y59055000D02*
X15900000Y61620000D01*
X45085000Y5080000D02*
X46355000Y3810000D01*
X55245000Y5080000D02*
X55245000Y6350000D01*
X53975000Y3810000D02*
X55245000Y5080000D01*
X46355000Y3810000D02*
X53975000Y3810000D01*
X33655000Y5080000D02*
X34925000Y3810000D01*
X45085000Y5080000D02*
X45085000Y6350000D01*
X43815000Y3810000D02*
X45085000Y5080000D01*
X34925000Y3810000D02*
X43815000Y3810000D01*
X23495000Y6350000D02*
X23495000Y5080000D01*
X33655000Y5080000D02*
X33655000Y6350000D01*
X32385000Y3810000D02*
X33655000Y5080000D01*
X24765000Y3810000D02*
X32385000Y3810000D01*
X23495000Y5080000D02*
X24765000Y3810000D01*
D34*
X63820000Y59690000D02*
X63820000Y60010000D01*
D33*
X9200000Y18805005D02*
X9200000Y16185005D01*
D34*
X15080000Y48895000D02*
X15080000Y49370000D01*
X15080000Y49370000D02*
X15240000Y49530000D01*
X6080000Y54930000D02*
X6665000Y54930000D01*
X6665000Y54930000D02*
X6985000Y54610000D01*
X12700000Y61865000D02*
X12700000Y60960000D01*
X15900000Y67705000D02*
X15900000Y67920000D01*
X15900000Y67920000D02*
X15240000Y68580000D01*
X15900000Y67705000D02*
X15000000Y67705000D01*
X15000000Y67705000D02*
X14605000Y67310000D01*
X15900000Y67970000D02*
X16510000Y68580000D01*
X15900000Y67705000D02*
X15900000Y67970000D01*
X15900000Y67705000D02*
X16750000Y67705000D01*
X16750000Y67705000D02*
X17145000Y67310000D01*
X15900000Y67705000D02*
X14845000Y67705000D01*
X14845000Y67705000D02*
X14605000Y67945000D01*
X15900000Y67705000D02*
X15900000Y68555000D01*
X15900000Y68555000D02*
X15875000Y68580000D01*
X15900000Y67705000D02*
X16905000Y67705000D01*
X16905000Y67705000D02*
X17145000Y67945000D01*
X12700000Y68310000D02*
X12700000Y69215000D01*
X33020000Y59690000D02*
X31750000Y59690000D01*
X24450000Y34925000D02*
X23495000Y34925000D01*
X34610000Y34925000D02*
X33655000Y34925000D01*
X46040000Y34925000D02*
X45085000Y34925000D01*
X61595000Y39735000D02*
X61595000Y40640000D01*
X56200000Y34925000D02*
X55245000Y34925000D01*
X18780000Y42545000D02*
X19685000Y42545000D01*
X23400000Y39685000D02*
X23400000Y40545000D01*
X23400000Y40545000D02*
X23495000Y40640000D01*
X29845000Y39735000D02*
X29845000Y40640000D01*
X33560000Y39685000D02*
X33560000Y40433762D01*
X33560000Y40433762D02*
X33710619Y40584381D01*
X40005000Y39735000D02*
X40005000Y40640000D01*
X55388000Y39558000D02*
X55388000Y40370762D01*
X55388000Y40370762D02*
X55181881Y40576881D01*
X51435000Y39735000D02*
X51435000Y40640000D01*
X44974000Y39685000D02*
X44974000Y40529000D01*
X44974000Y40529000D02*
X45085000Y40640000D01*
X45495000Y44420000D02*
X46325000Y44420000D01*
X46325000Y44420000D02*
X46990000Y45085000D01*
X45495000Y45070000D02*
X46975000Y45070000D01*
X46975000Y45070000D02*
X46990000Y45085000D01*
X45495000Y46370000D02*
X46975000Y46370000D01*
X46975000Y46370000D02*
X46990000Y46355000D01*
X45495000Y47670000D02*
X46970200Y47670000D01*
X46970200Y47670000D02*
X46990000Y47650200D01*
X39595000Y47020000D02*
X38119800Y47020000D01*
X38119800Y47020000D02*
X38100000Y47000200D01*
X39595000Y45070000D02*
X38750000Y45070000D01*
X38750000Y45070000D02*
X38100000Y45720000D01*
X39595000Y45720000D02*
X38100000Y45720000D01*
X35195000Y44450000D02*
X35195000Y43450000D01*
X35195000Y43450000D02*
X34925000Y43180000D01*
X32700000Y50800000D02*
X33655000Y50800000D01*
X28305000Y53020000D02*
X28890000Y53020000D01*
X28890000Y53020000D02*
X29210000Y53340000D01*
X32020000Y56515000D02*
X31115000Y56515000D01*
X36405000Y58775000D02*
X37503717Y58775000D01*
X37503717Y58775000D02*
X37750638Y58528079D01*
X43605000Y58775000D02*
X42234762Y58775000D01*
X42234762Y58775000D02*
X41894881Y58435119D01*
X46990000Y56880000D02*
X46990000Y57785000D01*
X61205000Y21590000D02*
X62865000Y21590000D01*
X51045000Y21590000D02*
X52705000Y21590000D01*
X29455000Y21590000D02*
X31115000Y21590000D01*
X39615000Y21590000D02*
X41275000Y21590000D01*
D35*
X74709020Y59690000D02*
X76200000Y59690000D01*
D34*
X70880000Y62230000D02*
X75210000Y66560000D01*
X65720000Y62230000D02*
X70880000Y62230000D01*
X68580000Y67310000D02*
X69330000Y68060000D01*
X69330000Y68060000D02*
X72110000Y68060000D01*
X65720000Y67310000D02*
X68580000Y67310000D01*
X67945000Y64770000D02*
X69735000Y66560000D01*
X69735000Y66560000D02*
X72110000Y66560000D01*
X65720000Y64770000D02*
X67945000Y64770000D01*
X65720000Y59690000D02*
X72610980Y59690000D01*
X47625000Y6350000D02*
X47625000Y20710000D01*
X47625000Y20710000D02*
X46745000Y21590000D01*
X46355000Y26860500D02*
X46355000Y21980000D01*
X46355000Y21980000D02*
X46745000Y21590000D01*
X57785000Y6350000D02*
X57785000Y20710000D01*
X57785000Y20710000D02*
X56905000Y21590000D01*
X56515000Y26860500D02*
X56515000Y21980000D01*
X56515000Y21980000D02*
X56905000Y21590000D01*
X40640000Y60325000D02*
X41444099Y60325000D01*
X41444099Y60325000D02*
X41788898Y59980201D01*
X41788898Y59980201D02*
X43510201Y59980201D01*
X43510201Y59980201D02*
X43605000Y60075000D01*
X33655000Y67310000D02*
X33655000Y65405000D01*
X33655000Y65405000D02*
X36195000Y62865000D01*
X20480000Y45085000D02*
X23175000Y45085000D01*
X23175000Y45085000D02*
X23495000Y45405000D01*
X26305000Y46355000D02*
X25601000Y46355000D01*
X25601000Y46355000D02*
X24651000Y45405000D01*
X24651000Y45405000D02*
X23495000Y45405000D01*
X20640000Y56835000D02*
X21590000Y57785000D01*
X21590000Y57785000D02*
X22495000Y57785000D01*
X19685000Y56835000D02*
X20640000Y56835000D01*
X19685000Y50800000D02*
X20480000Y50005000D01*
X20480000Y50005000D02*
X20480000Y48895000D01*
X19685000Y56835000D02*
X19685000Y50800000D01*
X41910000Y60791797D02*
X43538203Y60791797D01*
X43538203Y60791797D02*
X43605000Y60725000D01*
X43605000Y61375000D02*
X43385000Y61595000D01*
X43385000Y61595000D02*
X41910000Y61595000D01*
X24765000Y21980000D02*
X24765000Y26860500D01*
X25155000Y21590000D02*
X24765000Y21980000D01*
D33*
X26035000Y8890000D02*
X25155000Y9770000D01*
X25155000Y9770000D02*
X25155000Y21590000D01*
X26035000Y6350000D02*
X26035000Y8890000D01*
D34*
X36195000Y6350000D02*
X36195000Y20710000D01*
X36195000Y20710000D02*
X35315000Y21590000D01*
X34925000Y26860500D02*
X34925000Y21980000D01*
X34925000Y21980000D02*
X35315000Y21590000D01*
X34925000Y57839000D02*
X34925000Y57826000D01*
X34925000Y57826000D02*
X35276000Y57475000D01*
X35276000Y57475000D02*
X36405000Y57475000D01*
X33020000Y58490000D02*
X34274000Y58490000D01*
X34274000Y58490000D02*
X34925000Y57839000D01*
X34925000Y60239000D02*
X34925000Y58560638D01*
X35360638Y58125000D02*
X36405000Y58125000D01*
X34925000Y58560638D02*
X35360638Y58125000D01*
X33020000Y60890000D02*
X34274000Y60890000D01*
X34274000Y60890000D02*
X34925000Y60239000D01*
X33655000Y45085000D02*
X36240000Y47670000D01*
X36240000Y47670000D02*
X39595000Y47670000D01*
X33655000Y41420000D02*
X33655000Y45085000D01*
X29970000Y37735000D02*
X33655000Y41420000D01*
X29845000Y37735000D02*
X29970000Y37735000D01*
X28260000Y34925000D02*
X28260000Y36275000D01*
X28260000Y36275000D02*
X29720000Y37735000D01*
X29720000Y37735000D02*
X29845000Y37735000D01*
X25400000Y38735000D02*
X25450000Y38735000D01*
X25450000Y38735000D02*
X26350000Y37835000D01*
X26350000Y37835000D02*
X26350000Y35829000D01*
X26350000Y35829000D02*
X26350000Y34925000D01*
X28260000Y34925000D02*
X28260000Y35225000D01*
X26350000Y34925000D02*
X28260000Y34925000D01*
X36195000Y40024000D02*
X36195000Y45169362D01*
X36195000Y45169362D02*
X37395638Y46370000D01*
X37395638Y46370000D02*
X38616000Y46370000D01*
X38616000Y46370000D02*
X39595000Y46370000D01*
X35560000Y38735000D02*
X35560000Y39389000D01*
X35560000Y39389000D02*
X36195000Y40024000D01*
X38420000Y34925000D02*
X36510000Y34925000D01*
X38420000Y34925000D02*
X38420000Y36275000D01*
X38420000Y36275000D02*
X39880000Y37735000D01*
X39880000Y37735000D02*
X40005000Y37735000D01*
X36510000Y34925000D02*
X36510000Y37835000D01*
X36510000Y37835000D02*
X35610000Y38735000D01*
X35610000Y38735000D02*
X35560000Y38735000D01*
X47625000Y40040000D02*
X47625000Y45382698D01*
X47625000Y45382698D02*
X47287698Y45720000D01*
X47287698Y45720000D02*
X46474000Y45720000D01*
X46474000Y45720000D02*
X45495000Y45720000D01*
X46974000Y38735000D02*
X46974000Y39389000D01*
X46974000Y39389000D02*
X47625000Y40040000D01*
X49850000Y34925000D02*
X49850000Y36275000D01*
X49850000Y36275000D02*
X51310000Y37735000D01*
X51310000Y37735000D02*
X51435000Y37735000D01*
X47940000Y34925000D02*
X47940000Y37819000D01*
X47940000Y37819000D02*
X47024000Y38735000D01*
X47024000Y38735000D02*
X46974000Y38735000D01*
X49850000Y34925000D02*
X47940000Y34925000D01*
X57388000Y38608000D02*
X57388000Y39262000D01*
X57388000Y39262000D02*
X49630000Y47020000D01*
X49630000Y47020000D02*
X46474000Y47020000D01*
X46474000Y47020000D02*
X45495000Y47020000D01*
X60010000Y34925000D02*
X60010000Y36275000D01*
X60010000Y36275000D02*
X61470000Y37735000D01*
X61470000Y37735000D02*
X61595000Y37735000D01*
X58100000Y34925000D02*
X58100000Y37946000D01*
X58100000Y37946000D02*
X57438000Y38608000D01*
X57438000Y38608000D02*
X57388000Y38608000D01*
X60010000Y34925000D02*
X58100000Y34925000D01*
X45720000Y52827200D02*
X44972200Y53575000D01*
X44972200Y53575000D02*
X44734000Y53575000D01*
X46675000Y50165000D02*
X46675000Y50992800D01*
X46675000Y50992800D02*
X46355000Y51312800D01*
X45495000Y43770000D02*
X44516000Y43770000D01*
X44516000Y43770000D02*
X43815000Y44471000D01*
X43815000Y44471000D02*
X43815000Y47909000D01*
X46071000Y50165000D02*
X46675000Y50165000D01*
X43815000Y47909000D02*
X46071000Y50165000D01*
X43605000Y53575000D02*
X44734000Y53575000D01*
X41275000Y47625000D02*
X38735000Y50165000D01*
X38735000Y50165000D02*
X38095000Y50165000D01*
X41275000Y46355000D02*
X41275000Y47625000D01*
X39595000Y43770000D02*
X41230000Y43770000D01*
X41230000Y43770000D02*
X41275000Y43815000D01*
X36405000Y54875000D02*
X37465000Y54875000D01*
X38095000Y50165000D02*
X38095000Y54245000D01*
X38095000Y54245000D02*
X37465000Y54875000D01*
D33*
X5080000Y65405000D02*
X4080000Y64405000D01*
X4080000Y64405000D02*
X4080000Y55880000D01*
D34*
X29845000Y26860500D02*
X29083000Y26860500D01*
X29083000Y26860500D02*
X27305000Y28638500D01*
X27305000Y28638500D02*
X27305000Y29908500D01*
X27305000Y29908500D02*
X27305000Y31559500D01*
X27305000Y31559500D02*
X28067000Y31559500D01*
X28067000Y31559500D02*
X30160000Y33652500D01*
X30160000Y33652500D02*
X30160000Y34021000D01*
X30160000Y34021000D02*
X30160000Y34925000D01*
X50609500Y26860500D02*
X48895000Y28575000D01*
X48895000Y28575000D02*
X48895000Y31559500D01*
X51435000Y26860500D02*
X50609500Y26860500D01*
X49974500Y31559500D02*
X51750000Y33335000D01*
X51750000Y33335000D02*
X51750000Y34925000D01*
X48895000Y31559500D02*
X49974500Y31559500D01*
X60134500Y31559500D02*
X61910000Y33335000D01*
X61910000Y33335000D02*
X61910000Y34925000D01*
X59055000Y31559500D02*
X60134500Y31559500D01*
X60769500Y26860500D02*
X59055000Y28575000D01*
X59055000Y28575000D02*
X59055000Y31559500D01*
X61595000Y26860500D02*
X60769500Y26860500D01*
X43605000Y59425000D02*
X41952064Y59425000D01*
X41952064Y59425000D02*
X38052064Y55525000D01*
X38052064Y55525000D02*
X37534000Y55525000D01*
X37534000Y55525000D02*
X36405000Y55525000D01*
X27305000Y56835000D02*
X27305000Y50165000D01*
X27305000Y50165000D02*
X27305000Y46355000D01*
X36195000Y50165000D02*
X35591000Y50165000D01*
X35245799Y49819799D02*
X27650201Y49819799D01*
X35591000Y50165000D02*
X35245799Y49819799D01*
X27650201Y49819799D02*
X27305000Y50165000D01*
X23495000Y57785000D02*
X23495000Y59318000D01*
X23495000Y59318000D02*
X21853000Y60960000D01*
X24495000Y56835000D02*
X24445000Y56835000D01*
X24445000Y56835000D02*
X23495000Y57785000D01*
X28305000Y45405000D02*
X31115000Y45405000D01*
X27305000Y46355000D02*
X28255000Y45405000D01*
X28255000Y45405000D02*
X28305000Y45405000D01*
X24495000Y56835000D02*
X27305000Y56835000D01*
X48575000Y50165000D02*
X48575000Y50465000D01*
X48575000Y50465000D02*
X48260000Y50780000D01*
X48260000Y50780000D02*
X48260000Y52070000D01*
D35*
X34020000Y56515000D02*
X34020000Y56390000D01*
X34020000Y56390000D02*
X34885000Y55525000D01*
X15900000Y65405000D02*
X17408000Y65405000D01*
X17408000Y65405000D02*
X21853000Y60960000D01*
X21853000Y60960000D02*
X28575000Y60960000D01*
X28575000Y60960000D02*
X31750000Y57785000D01*
X31750000Y57785000D02*
X32875000Y57785000D01*
X32875000Y57785000D02*
X34020000Y56640000D01*
X34020000Y56640000D02*
X34020000Y56515000D01*
X45749658Y69850000D02*
X73120000Y69850000D01*
X73120000Y69850000D02*
X74910000Y68060000D01*
X74910000Y68060000D02*
X75210000Y68060000D01*
D34*
X36405000Y55525000D02*
X34885000Y55525000D01*
X40717962Y44420000D02*
X39595000Y44420000D01*
D35*
X40717962Y44420000D02*
X42545000Y46247038D01*
X45749658Y69850000D02*
X37465000Y69850000D01*
X42545000Y46247038D02*
X42545000Y49530000D01*
X45085000Y52070000D02*
X48260000Y52070000D01*
X42545000Y49530000D02*
X45085000Y52070000D01*
X48260000Y52070000D02*
X50165000Y53975000D01*
X50165000Y53975000D02*
X50165000Y65434658D01*
X50165000Y65434658D02*
X45749658Y69850000D01*
X37465000Y69850000D02*
X36195000Y68580000D01*
D33*
X36195000Y67310000D02*
X36195000Y68580000D01*
X36195000Y68580000D02*
X34925000Y69850000D01*
X34925000Y69850000D02*
X22107000Y69850000D01*
X22107000Y69850000D02*
X17662000Y65405000D01*
X17662000Y65405000D02*
X15900000Y65405000D01*
D34*
X39595000Y44420000D02*
X37225000Y44420000D01*
X37225000Y44420000D02*
X37195000Y44450000D01*
D33*
X15900000Y65405000D02*
X14605000Y65405000D01*
X13700000Y66310000D02*
X12700000Y66310000D01*
X14605000Y65405000D02*
X13700000Y66310000D01*
D34*
X46990000Y54880000D02*
X46111000Y54880000D01*
X46111000Y54880000D02*
X45456000Y54225000D01*
X45456000Y54225000D02*
X44734000Y54225000D01*
X44734000Y54225000D02*
X43605000Y54225000D01*
X57150000Y64770000D02*
X59690000Y67310000D01*
X59690000Y67310000D02*
X63820000Y67310000D01*
X50922200Y64770000D02*
X57150000Y64770000D01*
X39370000Y62865000D02*
X41275000Y64770000D01*
X41275000Y64770000D02*
X49407800Y64770000D01*
X36405000Y61375000D02*
X37880000Y61375000D01*
X37880000Y61375000D02*
X38100000Y61595000D01*
X57616797Y63966797D02*
X58420000Y64770000D01*
X58420000Y64770000D02*
X63820000Y64770000D01*
X50922200Y63966797D02*
X57616797Y63966797D01*
X40640000Y62865000D02*
X41741797Y63966797D01*
X41741797Y63966797D02*
X49407800Y63966797D01*
X38500000Y60725000D02*
X39370000Y61595000D01*
X36405000Y60725000D02*
X38500000Y60725000D01*
X57785000Y62865000D02*
X58420000Y62230000D01*
X58420000Y62230000D02*
X63820000Y62230000D01*
X50922200Y62865000D02*
X57785000Y62865000D01*
X41910000Y62865000D02*
X49407800Y62865000D01*
X36405000Y60075000D02*
X39120000Y60075000D01*
X39120000Y60075000D02*
X40640000Y61595000D01*
X37464800Y52070000D02*
X37260000Y52070000D01*
X37260000Y52070000D02*
X36405000Y52925000D01*
X41495000Y52925000D02*
X40640000Y52070000D01*
X43605000Y52925000D02*
X41495000Y52925000D01*
X35780000Y52925000D02*
X36405000Y52925000D01*
X36405000Y52925000D02*
X33115000Y52925000D01*
X33115000Y52925000D02*
X32700000Y53340000D01*
X27305000Y58735000D02*
X24495000Y58735000D01*
X28575000Y59690000D02*
X28260000Y59690000D01*
X28260000Y59690000D02*
X27305000Y58735000D01*
X31115000Y62230000D02*
X29845000Y60960000D01*
X44450000Y62230000D02*
X31115000Y62230000D01*
X45085000Y61595000D02*
X44450000Y62230000D01*
X45085000Y57785000D02*
X45085000Y61595000D01*
X44775000Y57475000D02*
X45085000Y57785000D01*
X43605000Y57475000D02*
X44775000Y57475000D01*
X40005000Y50165000D02*
X40005000Y55654000D01*
X40005000Y55654000D02*
X42476000Y58125000D01*
X42476000Y58125000D02*
X43605000Y58125000D01*
X33005000Y48895000D02*
X38735000Y48895000D01*
X31115000Y47305000D02*
X31415000Y47305000D01*
X31415000Y47305000D02*
X33005000Y48895000D01*
X28305000Y47305000D02*
X31115000Y47305000D01*
X15080000Y47625000D02*
X14605000Y47625000D01*
X14605000Y47625000D02*
X11700000Y44720000D01*
X11700000Y44720000D02*
X11700000Y19809096D01*
X11700000Y19809096D02*
X11700000Y18805005D01*
X11700000Y16185005D02*
X11700000Y18805005D01*
X13700000Y18805005D02*
X13700000Y45450000D01*
X13700000Y45450000D02*
X14605000Y46355000D01*
X14605000Y46355000D02*
X15080000Y46355000D01*
X13700000Y16185005D02*
X13700000Y18805005D01*
X28305000Y51120000D02*
X30480000Y51120000D01*
X30480000Y51120000D02*
X30800000Y50800000D01*
X30800000Y53340000D02*
X30800000Y50800000D01*
X23495000Y51120000D02*
X26009000Y51120000D01*
X26009000Y51120000D02*
X26305000Y51416000D01*
X26305000Y51416000D02*
X26305000Y52070000D01*
X20955000Y47625000D02*
X23495000Y50165000D01*
X23495000Y50165000D02*
X23495000Y51120000D01*
X20480000Y47625000D02*
X20955000Y47625000D01*
X20480000Y47625000D02*
X20480000Y46355000D01*
X40005000Y26860500D02*
X39243000Y26860500D01*
X39243000Y26860500D02*
X37465000Y28638500D01*
X37465000Y28638500D02*
X37465000Y31559500D01*
X38544500Y31559500D02*
X40320000Y33335000D01*
X40320000Y33335000D02*
X40320000Y34925000D01*
X37465000Y31559500D02*
X38544500Y31559500D01*
M02*
