G04 #@! TF.FileFunction,Copper,L2,Bot,Signal*
%FSLAX46Y46*%
G04 Gerber Fmt 4.6, Leading zero omitted, Abs format (unit mm)*
G04 Created by KiCad (PCBNEW 4.0.1-stable) date 8/17/2016 11:23:15 PM*
%MOMM*%
G01*
G04 APERTURE LIST*
%ADD10C,0.127000*%
%ADD11R,2.032000X1.727200*%
%ADD12O,2.032000X1.727200*%
%ADD13C,1.420000*%
%ADD14C,2.800000*%
%ADD15R,1.727200X2.032000*%
%ADD16O,1.727200X2.032000*%
%ADD17R,2.300000X2.300000*%
%ADD18C,2.300000*%
%ADD19R,10.000000X10.000000*%
%ADD20C,0.600000*%
%ADD21C,0.254000*%
%ADD22C,0.762000*%
G04 APERTURE END LIST*
D10*
D11*
X5080000Y49530000D03*
D12*
X5080000Y46990000D03*
X5080000Y44450000D03*
D13*
X9200000Y18805005D03*
X11700000Y18805005D03*
X13700000Y18805005D03*
X16200000Y18805005D03*
X9200000Y16185005D03*
X11700000Y16185005D03*
X13700000Y16185005D03*
X16200000Y16185005D03*
D14*
X19270000Y13475005D03*
X19270000Y19155005D03*
X6130000Y19155005D03*
X6130000Y13475005D03*
D15*
X33655000Y67310000D03*
D16*
X36195000Y67310000D03*
X38735000Y67310000D03*
X41275000Y67310000D03*
X43815000Y67310000D03*
X46355000Y67310000D03*
D17*
X5080000Y65405000D03*
D18*
X7620000Y65405000D03*
X62865000Y6350000D03*
X60325000Y6350000D03*
X57785000Y6350000D03*
X55245000Y6350000D03*
X52705000Y6350000D03*
X50165000Y6350000D03*
X47625000Y6350000D03*
D17*
X45085000Y6350000D03*
X23495000Y6350000D03*
D18*
X26035000Y6350000D03*
X28575000Y6350000D03*
X31115000Y6350000D03*
X33655000Y6350000D03*
X36195000Y6350000D03*
X38735000Y6350000D03*
X41275000Y6350000D03*
D19*
X71755000Y8255000D03*
D20*
X17780000Y40640000D03*
X43180000Y53975000D03*
X33655000Y56515000D03*
X36830000Y56515000D03*
X28575000Y56515000D03*
X46355000Y53975000D03*
X49530000Y55880000D03*
X76200000Y59690000D03*
X14605000Y48895000D03*
X2540000Y54610000D03*
X43180000Y45085000D03*
X41910000Y46355000D03*
X40005000Y49530000D03*
X41910000Y51435000D03*
X40005000Y48260000D03*
X41275000Y49530000D03*
D21*
X41910000Y46355000D02*
X43180000Y45085000D01*
X40005000Y49530000D02*
X41910000Y51435000D01*
X40005000Y48260000D02*
X41275000Y49530000D01*
D22*
X62865000Y6350000D02*
X69850000Y6350000D01*
X69850000Y6350000D02*
X71755000Y8255000D01*
X52705000Y5080000D02*
X53975000Y3810000D01*
X62865000Y5080000D02*
X62865000Y6350000D01*
X61595000Y3810000D02*
X62865000Y5080000D01*
X53975000Y3810000D02*
X61595000Y3810000D01*
X41275000Y5080000D02*
X42545000Y3810000D01*
X52705000Y5080000D02*
X52705000Y6350000D01*
X51435000Y3810000D02*
X52705000Y5080000D01*
X42545000Y3810000D02*
X51435000Y3810000D01*
X31115000Y6350000D02*
X31115000Y5080000D01*
X41275000Y5080000D02*
X41275000Y6350000D01*
X40005000Y3810000D02*
X41275000Y5080000D01*
X32385000Y3810000D02*
X40005000Y3810000D01*
X31115000Y5080000D02*
X32385000Y3810000D01*
D21*
G36*
X79544000Y456000D02*
X456000Y456000D01*
X456000Y7500000D01*
X21956536Y7500000D01*
X21956536Y5200000D01*
X21983103Y5058810D01*
X22066546Y4929135D01*
X22193866Y4842141D01*
X22345000Y4811536D01*
X24645000Y4811536D01*
X24786190Y4838103D01*
X24915865Y4921546D01*
X25002859Y5048866D01*
X25031146Y5188555D01*
X25166626Y5052838D01*
X25729129Y4819266D01*
X26338199Y4818735D01*
X26901109Y5051325D01*
X27332162Y5481626D01*
X27565734Y6044129D01*
X27565736Y6046801D01*
X29583735Y6046801D01*
X29816325Y5483891D01*
X30246626Y5052838D01*
X30368466Y5002245D01*
X30411004Y4788395D01*
X30555595Y4572000D01*
X30576185Y4541185D01*
X31846184Y3271185D01*
X32093395Y3106004D01*
X32385000Y3048000D01*
X40005000Y3048000D01*
X40296605Y3106004D01*
X40543815Y3271185D01*
X41275000Y4002369D01*
X42006184Y3271185D01*
X42253395Y3106004D01*
X42545000Y3048000D01*
X51435000Y3048000D01*
X51726605Y3106004D01*
X51973815Y3271185D01*
X52705000Y4002369D01*
X53436184Y3271185D01*
X53683395Y3106004D01*
X53975000Y3048000D01*
X61595000Y3048000D01*
X61886605Y3106004D01*
X62133815Y3271185D01*
X63403815Y4541184D01*
X63568996Y4788395D01*
X63575137Y4819266D01*
X63611463Y5001888D01*
X63731109Y5051325D01*
X64162162Y5481626D01*
X64206332Y5588000D01*
X66366536Y5588000D01*
X66366536Y3255000D01*
X66393103Y3113810D01*
X66476546Y2984135D01*
X66603866Y2897141D01*
X66755000Y2866536D01*
X76755000Y2866536D01*
X76896190Y2893103D01*
X77025865Y2976546D01*
X77112859Y3103866D01*
X77143464Y3255000D01*
X77143464Y13255000D01*
X77116897Y13396190D01*
X77033454Y13525865D01*
X76906134Y13612859D01*
X76755000Y13643464D01*
X66755000Y13643464D01*
X66613810Y13616897D01*
X66484135Y13533454D01*
X66397141Y13406134D01*
X66366536Y13255000D01*
X66366536Y7112000D01*
X64206692Y7112000D01*
X64163675Y7216109D01*
X63733374Y7647162D01*
X63170871Y7880734D01*
X62561801Y7881265D01*
X61998891Y7648675D01*
X61567838Y7218374D01*
X61334266Y6655871D01*
X61333735Y6046801D01*
X61566325Y5483891D01*
X61878520Y5171151D01*
X61279370Y4572000D01*
X54290631Y4572000D01*
X53691312Y5171318D01*
X53975327Y5454838D01*
X54376626Y5052838D01*
X54939129Y4819266D01*
X55548199Y4818735D01*
X56111109Y5051325D01*
X56515327Y5454838D01*
X56916626Y5052838D01*
X57479129Y4819266D01*
X58088199Y4818735D01*
X58651109Y5051325D01*
X59082162Y5481626D01*
X59315734Y6044129D01*
X59316265Y6653199D01*
X59083675Y7216109D01*
X58653374Y7647162D01*
X58090871Y7880734D01*
X57481801Y7881265D01*
X56918891Y7648675D01*
X56514673Y7245162D01*
X56113374Y7647162D01*
X55550871Y7880734D01*
X54941801Y7881265D01*
X54378891Y7648675D01*
X53974673Y7245162D01*
X53573374Y7647162D01*
X53010871Y7880734D01*
X52401801Y7881265D01*
X51838891Y7648675D01*
X51407838Y7218374D01*
X51174266Y6655871D01*
X51173735Y6046801D01*
X51406325Y5483891D01*
X51718520Y5171151D01*
X51119370Y4572000D01*
X42860631Y4572000D01*
X42261312Y5171318D01*
X42572162Y5481626D01*
X42805734Y6044129D01*
X42806265Y6653199D01*
X42573675Y7216109D01*
X42290280Y7500000D01*
X43546536Y7500000D01*
X43546536Y5200000D01*
X43573103Y5058810D01*
X43656546Y4929135D01*
X43783866Y4842141D01*
X43935000Y4811536D01*
X46235000Y4811536D01*
X46376190Y4838103D01*
X46505865Y4921546D01*
X46592859Y5048866D01*
X46621146Y5188555D01*
X46756626Y5052838D01*
X47319129Y4819266D01*
X47928199Y4818735D01*
X48491109Y5051325D01*
X48922162Y5481626D01*
X49155734Y6044129D01*
X49156265Y6653199D01*
X48923675Y7216109D01*
X48493374Y7647162D01*
X47930871Y7880734D01*
X47321801Y7881265D01*
X46758891Y7648675D01*
X46621328Y7511352D01*
X46596897Y7641190D01*
X46513454Y7770865D01*
X46386134Y7857859D01*
X46235000Y7888464D01*
X43935000Y7888464D01*
X43793810Y7861897D01*
X43664135Y7778454D01*
X43577141Y7651134D01*
X43546536Y7500000D01*
X42290280Y7500000D01*
X42143374Y7647162D01*
X41580871Y7880734D01*
X40971801Y7881265D01*
X40408891Y7648675D01*
X39977838Y7218374D01*
X39744266Y6655871D01*
X39743735Y6046801D01*
X39976325Y5483891D01*
X40288520Y5171151D01*
X39689370Y4572000D01*
X32700631Y4572000D01*
X32101312Y5171318D01*
X32385327Y5454838D01*
X32786626Y5052838D01*
X33349129Y4819266D01*
X33958199Y4818735D01*
X34521109Y5051325D01*
X34925327Y5454838D01*
X35326626Y5052838D01*
X35889129Y4819266D01*
X36498199Y4818735D01*
X37061109Y5051325D01*
X37492162Y5481626D01*
X37725734Y6044129D01*
X37726265Y6653199D01*
X37493675Y7216109D01*
X37063374Y7647162D01*
X36500871Y7880734D01*
X35891801Y7881265D01*
X35328891Y7648675D01*
X34924673Y7245162D01*
X34523374Y7647162D01*
X33960871Y7880734D01*
X33351801Y7881265D01*
X32788891Y7648675D01*
X32384673Y7245162D01*
X31983374Y7647162D01*
X31420871Y7880734D01*
X30811801Y7881265D01*
X30248891Y7648675D01*
X29817838Y7218374D01*
X29584266Y6655871D01*
X29583735Y6046801D01*
X27565736Y6046801D01*
X27566265Y6653199D01*
X27333675Y7216109D01*
X26903374Y7647162D01*
X26340871Y7880734D01*
X25731801Y7881265D01*
X25168891Y7648675D01*
X25031328Y7511352D01*
X25006897Y7641190D01*
X24923454Y7770865D01*
X24796134Y7857859D01*
X24645000Y7888464D01*
X22345000Y7888464D01*
X22203810Y7861897D01*
X22074135Y7778454D01*
X21987141Y7651134D01*
X21956536Y7500000D01*
X456000Y7500000D01*
X456000Y13122296D01*
X4348691Y13122296D01*
X4619261Y12467467D01*
X5119827Y11966027D01*
X5774183Y11694315D01*
X6482709Y11693696D01*
X7137538Y11964266D01*
X7638978Y12464832D01*
X7910690Y13119188D01*
X7910692Y13122296D01*
X17488691Y13122296D01*
X17759261Y12467467D01*
X18259827Y11966027D01*
X18914183Y11694315D01*
X19622709Y11693696D01*
X20277538Y11964266D01*
X20778978Y12464832D01*
X21050690Y13119188D01*
X21051309Y13827714D01*
X20780739Y14482543D01*
X20280173Y14983983D01*
X19625817Y15255695D01*
X18917291Y15256314D01*
X18262462Y14985744D01*
X17761022Y14485178D01*
X17489310Y13830822D01*
X17488691Y13122296D01*
X7910692Y13122296D01*
X7911309Y13827714D01*
X7640739Y14482543D01*
X7140173Y14983983D01*
X6485817Y15255695D01*
X5777291Y15256314D01*
X5122462Y14985744D01*
X4621022Y14485178D01*
X4349310Y13830822D01*
X4348691Y13122296D01*
X456000Y13122296D01*
X456000Y15968944D01*
X8108811Y15968944D01*
X8274556Y15567810D01*
X8581191Y15260639D01*
X8982035Y15094195D01*
X9416061Y15093816D01*
X9817195Y15259561D01*
X10124366Y15566196D01*
X10290810Y15967040D01*
X10290811Y15968944D01*
X10608811Y15968944D01*
X10774556Y15567810D01*
X11081191Y15260639D01*
X11482035Y15094195D01*
X11916061Y15093816D01*
X12317195Y15259561D01*
X12624366Y15566196D01*
X12699980Y15748297D01*
X12774556Y15567810D01*
X13081191Y15260639D01*
X13482035Y15094195D01*
X13916061Y15093816D01*
X14317195Y15259561D01*
X14624366Y15566196D01*
X14790810Y15967040D01*
X14791189Y16401066D01*
X14625444Y16802200D01*
X14318809Y17109371D01*
X13917965Y17275815D01*
X13483939Y17276194D01*
X13082805Y17110449D01*
X12775634Y16803814D01*
X12700020Y16621713D01*
X12625444Y16802200D01*
X12318809Y17109371D01*
X11917965Y17275815D01*
X11483939Y17276194D01*
X11082805Y17110449D01*
X10775634Y16803814D01*
X10609190Y16402970D01*
X10608811Y15968944D01*
X10290811Y15968944D01*
X10291189Y16401066D01*
X10125444Y16802200D01*
X9818809Y17109371D01*
X9417965Y17275815D01*
X8983939Y17276194D01*
X8582805Y17110449D01*
X8275634Y16803814D01*
X8109190Y16402970D01*
X8108811Y15968944D01*
X456000Y15968944D01*
X456000Y18802296D01*
X4348691Y18802296D01*
X4619261Y18147467D01*
X5119827Y17646027D01*
X5774183Y17374315D01*
X6482709Y17373696D01*
X7137538Y17644266D01*
X7638978Y18144832D01*
X7823389Y18588944D01*
X8108811Y18588944D01*
X8274556Y18187810D01*
X8581191Y17880639D01*
X8982035Y17714195D01*
X9416061Y17713816D01*
X9817195Y17879561D01*
X10124366Y18186196D01*
X10290810Y18587040D01*
X10290811Y18588944D01*
X10608811Y18588944D01*
X10774556Y18187810D01*
X11081191Y17880639D01*
X11482035Y17714195D01*
X11916061Y17713816D01*
X12317195Y17879561D01*
X12624366Y18186196D01*
X12699980Y18368297D01*
X12774556Y18187810D01*
X13081191Y17880639D01*
X13482035Y17714195D01*
X13916061Y17713816D01*
X14317195Y17879561D01*
X14624366Y18186196D01*
X14790810Y18587040D01*
X14790997Y18802296D01*
X17488691Y18802296D01*
X17759261Y18147467D01*
X18259827Y17646027D01*
X18914183Y17374315D01*
X19622709Y17373696D01*
X20277538Y17644266D01*
X20778978Y18144832D01*
X21050690Y18799188D01*
X21051309Y19507714D01*
X20780739Y20162543D01*
X20280173Y20663983D01*
X19625817Y20935695D01*
X18917291Y20936314D01*
X18262462Y20665744D01*
X17761022Y20165178D01*
X17489310Y19510822D01*
X17488691Y18802296D01*
X14790997Y18802296D01*
X14791189Y19021066D01*
X14625444Y19422200D01*
X14318809Y19729371D01*
X13917965Y19895815D01*
X13483939Y19896194D01*
X13082805Y19730449D01*
X12775634Y19423814D01*
X12700020Y19241713D01*
X12625444Y19422200D01*
X12318809Y19729371D01*
X11917965Y19895815D01*
X11483939Y19896194D01*
X11082805Y19730449D01*
X10775634Y19423814D01*
X10609190Y19022970D01*
X10608811Y18588944D01*
X10290811Y18588944D01*
X10291189Y19021066D01*
X10125444Y19422200D01*
X9818809Y19729371D01*
X9417965Y19895815D01*
X8983939Y19896194D01*
X8582805Y19730449D01*
X8275634Y19423814D01*
X8109190Y19022970D01*
X8108811Y18588944D01*
X7823389Y18588944D01*
X7910690Y18799188D01*
X7911309Y19507714D01*
X7640739Y20162543D01*
X7140173Y20663983D01*
X6485817Y20935695D01*
X5777291Y20936314D01*
X5122462Y20665744D01*
X4621022Y20165178D01*
X4349310Y19510822D01*
X4348691Y18802296D01*
X456000Y18802296D01*
X456000Y44450000D01*
X3655631Y44450000D01*
X3750371Y43973712D01*
X4020166Y43569935D01*
X4423943Y43300140D01*
X4900231Y43205400D01*
X5259769Y43205400D01*
X5736057Y43300140D01*
X6139834Y43569935D01*
X6409629Y43973712D01*
X6504369Y44450000D01*
X6409629Y44926288D01*
X6139834Y45330065D01*
X5736057Y45599860D01*
X5259769Y45694600D01*
X4900231Y45694600D01*
X4423943Y45599860D01*
X4020166Y45330065D01*
X3750371Y44926288D01*
X3655631Y44450000D01*
X456000Y44450000D01*
X456000Y46990000D01*
X3655631Y46990000D01*
X3750371Y46513712D01*
X4020166Y46109935D01*
X4423943Y45840140D01*
X4900231Y45745400D01*
X5259769Y45745400D01*
X5736057Y45840140D01*
X6139834Y46109935D01*
X6213467Y46220135D01*
X41228882Y46220135D01*
X41332339Y45969748D01*
X41523741Y45778013D01*
X41773946Y45674118D01*
X41872548Y45674032D01*
X42498967Y45047613D01*
X42498882Y44950135D01*
X42602339Y44699748D01*
X42793741Y44508013D01*
X43043946Y44404118D01*
X43314865Y44403882D01*
X43565252Y44507339D01*
X43756987Y44698741D01*
X43860882Y44948946D01*
X43861118Y45219865D01*
X43757661Y45470252D01*
X43566259Y45661987D01*
X43316054Y45765882D01*
X43217452Y45765968D01*
X42591033Y46392387D01*
X42591118Y46489865D01*
X42487661Y46740252D01*
X42296259Y46931987D01*
X42046054Y47035882D01*
X41775135Y47036118D01*
X41524748Y46932661D01*
X41333013Y46741259D01*
X41229118Y46491054D01*
X41228882Y46220135D01*
X6213467Y46220135D01*
X6409629Y46513712D01*
X6504369Y46990000D01*
X6409629Y47466288D01*
X6139834Y47870065D01*
X5736057Y48139860D01*
X5259769Y48234600D01*
X4900231Y48234600D01*
X4423943Y48139860D01*
X4020166Y47870065D01*
X3750371Y47466288D01*
X3655631Y46990000D01*
X456000Y46990000D01*
X456000Y50393600D01*
X3675536Y50393600D01*
X3675536Y48666400D01*
X3702103Y48525210D01*
X3785546Y48395535D01*
X3912866Y48308541D01*
X4064000Y48277936D01*
X6096000Y48277936D01*
X6237190Y48304503D01*
X6366865Y48387946D01*
X6453859Y48515266D01*
X6484464Y48666400D01*
X6484464Y49395135D01*
X39323882Y49395135D01*
X39427339Y49144748D01*
X39618741Y48953013D01*
X39758485Y48894986D01*
X39619748Y48837661D01*
X39428013Y48646259D01*
X39324118Y48396054D01*
X39323882Y48125135D01*
X39427339Y47874748D01*
X39618741Y47683013D01*
X39868946Y47579118D01*
X40139865Y47578882D01*
X40390252Y47682339D01*
X40581987Y47873741D01*
X40685882Y48123946D01*
X40685968Y48222548D01*
X41312387Y48848967D01*
X41409865Y48848882D01*
X41660252Y48952339D01*
X41851987Y49143741D01*
X41955882Y49393946D01*
X41956118Y49664865D01*
X41852661Y49915252D01*
X41661259Y50106987D01*
X41411054Y50210882D01*
X41404308Y50210888D01*
X41947387Y50753967D01*
X42044865Y50753882D01*
X42295252Y50857339D01*
X42486987Y51048741D01*
X42590882Y51298946D01*
X42591118Y51569865D01*
X42487661Y51820252D01*
X42296259Y52011987D01*
X42046054Y52115882D01*
X41775135Y52116118D01*
X41524748Y52012661D01*
X41333013Y51821259D01*
X41229118Y51571054D01*
X41229032Y51472452D01*
X39967613Y50211033D01*
X39870135Y50211118D01*
X39619748Y50107661D01*
X39428013Y49916259D01*
X39324118Y49666054D01*
X39323882Y49395135D01*
X6484464Y49395135D01*
X6484464Y50393600D01*
X6457897Y50534790D01*
X6374454Y50664465D01*
X6247134Y50751459D01*
X6096000Y50782064D01*
X4064000Y50782064D01*
X3922810Y50755497D01*
X3793135Y50672054D01*
X3706141Y50544734D01*
X3675536Y50393600D01*
X456000Y50393600D01*
X456000Y66555000D01*
X3541536Y66555000D01*
X3541536Y64255000D01*
X3568103Y64113810D01*
X3651546Y63984135D01*
X3778866Y63897141D01*
X3930000Y63866536D01*
X6230000Y63866536D01*
X6371190Y63893103D01*
X6500865Y63976546D01*
X6587859Y64103866D01*
X6618464Y64255000D01*
X6618464Y66555000D01*
X6591897Y66696190D01*
X6508454Y66825865D01*
X6381134Y66912859D01*
X6230000Y66943464D01*
X3930000Y66943464D01*
X3788810Y66916897D01*
X3659135Y66833454D01*
X3572141Y66706134D01*
X3541536Y66555000D01*
X456000Y66555000D01*
X456000Y68326000D01*
X32402936Y68326000D01*
X32402936Y66294000D01*
X32429503Y66152810D01*
X32512946Y66023135D01*
X32640266Y65936141D01*
X32791400Y65905536D01*
X34518600Y65905536D01*
X34659790Y65932103D01*
X34789465Y66015546D01*
X34876459Y66142866D01*
X34907064Y66294000D01*
X34907064Y67489769D01*
X34950400Y67489769D01*
X34950400Y67130231D01*
X35045140Y66653943D01*
X35314935Y66250166D01*
X35718712Y65980371D01*
X36195000Y65885631D01*
X36671288Y65980371D01*
X37075065Y66250166D01*
X37344860Y66653943D01*
X37439600Y67130231D01*
X37439600Y67489769D01*
X40030400Y67489769D01*
X40030400Y67130231D01*
X40125140Y66653943D01*
X40394935Y66250166D01*
X40798712Y65980371D01*
X41275000Y65885631D01*
X41751288Y65980371D01*
X42155065Y66250166D01*
X42424860Y66653943D01*
X42519600Y67130231D01*
X42519600Y67489769D01*
X42570400Y67489769D01*
X42570400Y67130231D01*
X42665140Y66653943D01*
X42934935Y66250166D01*
X43338712Y65980371D01*
X43815000Y65885631D01*
X44291288Y65980371D01*
X44695065Y66250166D01*
X44964860Y66653943D01*
X45059600Y67130231D01*
X45059600Y67489769D01*
X45110400Y67489769D01*
X45110400Y67130231D01*
X45205140Y66653943D01*
X45474935Y66250166D01*
X45878712Y65980371D01*
X46355000Y65885631D01*
X46831288Y65980371D01*
X47235065Y66250166D01*
X47504860Y66653943D01*
X47599600Y67130231D01*
X47599600Y67489769D01*
X47504860Y67966057D01*
X47235065Y68369834D01*
X46831288Y68639629D01*
X46355000Y68734369D01*
X45878712Y68639629D01*
X45474935Y68369834D01*
X45205140Y67966057D01*
X45110400Y67489769D01*
X45059600Y67489769D01*
X44964860Y67966057D01*
X44695065Y68369834D01*
X44291288Y68639629D01*
X43815000Y68734369D01*
X43338712Y68639629D01*
X42934935Y68369834D01*
X42665140Y67966057D01*
X42570400Y67489769D01*
X42519600Y67489769D01*
X42424860Y67966057D01*
X42155065Y68369834D01*
X41751288Y68639629D01*
X41275000Y68734369D01*
X40798712Y68639629D01*
X40394935Y68369834D01*
X40125140Y67966057D01*
X40030400Y67489769D01*
X37439600Y67489769D01*
X37344860Y67966057D01*
X37075065Y68369834D01*
X36671288Y68639629D01*
X36195000Y68734369D01*
X35718712Y68639629D01*
X35314935Y68369834D01*
X35045140Y67966057D01*
X34950400Y67489769D01*
X34907064Y67489769D01*
X34907064Y68326000D01*
X34880497Y68467190D01*
X34797054Y68596865D01*
X34669734Y68683859D01*
X34518600Y68714464D01*
X32791400Y68714464D01*
X32650210Y68687897D01*
X32520535Y68604454D01*
X32433541Y68477134D01*
X32402936Y68326000D01*
X456000Y68326000D01*
X456000Y71544000D01*
X79544000Y71544000D01*
X79544000Y456000D01*
X79544000Y456000D01*
G37*
X79544000Y456000D02*
X456000Y456000D01*
X456000Y7500000D01*
X21956536Y7500000D01*
X21956536Y5200000D01*
X21983103Y5058810D01*
X22066546Y4929135D01*
X22193866Y4842141D01*
X22345000Y4811536D01*
X24645000Y4811536D01*
X24786190Y4838103D01*
X24915865Y4921546D01*
X25002859Y5048866D01*
X25031146Y5188555D01*
X25166626Y5052838D01*
X25729129Y4819266D01*
X26338199Y4818735D01*
X26901109Y5051325D01*
X27332162Y5481626D01*
X27565734Y6044129D01*
X27565736Y6046801D01*
X29583735Y6046801D01*
X29816325Y5483891D01*
X30246626Y5052838D01*
X30368466Y5002245D01*
X30411004Y4788395D01*
X30555595Y4572000D01*
X30576185Y4541185D01*
X31846184Y3271185D01*
X32093395Y3106004D01*
X32385000Y3048000D01*
X40005000Y3048000D01*
X40296605Y3106004D01*
X40543815Y3271185D01*
X41275000Y4002369D01*
X42006184Y3271185D01*
X42253395Y3106004D01*
X42545000Y3048000D01*
X51435000Y3048000D01*
X51726605Y3106004D01*
X51973815Y3271185D01*
X52705000Y4002369D01*
X53436184Y3271185D01*
X53683395Y3106004D01*
X53975000Y3048000D01*
X61595000Y3048000D01*
X61886605Y3106004D01*
X62133815Y3271185D01*
X63403815Y4541184D01*
X63568996Y4788395D01*
X63575137Y4819266D01*
X63611463Y5001888D01*
X63731109Y5051325D01*
X64162162Y5481626D01*
X64206332Y5588000D01*
X66366536Y5588000D01*
X66366536Y3255000D01*
X66393103Y3113810D01*
X66476546Y2984135D01*
X66603866Y2897141D01*
X66755000Y2866536D01*
X76755000Y2866536D01*
X76896190Y2893103D01*
X77025865Y2976546D01*
X77112859Y3103866D01*
X77143464Y3255000D01*
X77143464Y13255000D01*
X77116897Y13396190D01*
X77033454Y13525865D01*
X76906134Y13612859D01*
X76755000Y13643464D01*
X66755000Y13643464D01*
X66613810Y13616897D01*
X66484135Y13533454D01*
X66397141Y13406134D01*
X66366536Y13255000D01*
X66366536Y7112000D01*
X64206692Y7112000D01*
X64163675Y7216109D01*
X63733374Y7647162D01*
X63170871Y7880734D01*
X62561801Y7881265D01*
X61998891Y7648675D01*
X61567838Y7218374D01*
X61334266Y6655871D01*
X61333735Y6046801D01*
X61566325Y5483891D01*
X61878520Y5171151D01*
X61279370Y4572000D01*
X54290631Y4572000D01*
X53691312Y5171318D01*
X53975327Y5454838D01*
X54376626Y5052838D01*
X54939129Y4819266D01*
X55548199Y4818735D01*
X56111109Y5051325D01*
X56515327Y5454838D01*
X56916626Y5052838D01*
X57479129Y4819266D01*
X58088199Y4818735D01*
X58651109Y5051325D01*
X59082162Y5481626D01*
X59315734Y6044129D01*
X59316265Y6653199D01*
X59083675Y7216109D01*
X58653374Y7647162D01*
X58090871Y7880734D01*
X57481801Y7881265D01*
X56918891Y7648675D01*
X56514673Y7245162D01*
X56113374Y7647162D01*
X55550871Y7880734D01*
X54941801Y7881265D01*
X54378891Y7648675D01*
X53974673Y7245162D01*
X53573374Y7647162D01*
X53010871Y7880734D01*
X52401801Y7881265D01*
X51838891Y7648675D01*
X51407838Y7218374D01*
X51174266Y6655871D01*
X51173735Y6046801D01*
X51406325Y5483891D01*
X51718520Y5171151D01*
X51119370Y4572000D01*
X42860631Y4572000D01*
X42261312Y5171318D01*
X42572162Y5481626D01*
X42805734Y6044129D01*
X42806265Y6653199D01*
X42573675Y7216109D01*
X42290280Y7500000D01*
X43546536Y7500000D01*
X43546536Y5200000D01*
X43573103Y5058810D01*
X43656546Y4929135D01*
X43783866Y4842141D01*
X43935000Y4811536D01*
X46235000Y4811536D01*
X46376190Y4838103D01*
X46505865Y4921546D01*
X46592859Y5048866D01*
X46621146Y5188555D01*
X46756626Y5052838D01*
X47319129Y4819266D01*
X47928199Y4818735D01*
X48491109Y5051325D01*
X48922162Y5481626D01*
X49155734Y6044129D01*
X49156265Y6653199D01*
X48923675Y7216109D01*
X48493374Y7647162D01*
X47930871Y7880734D01*
X47321801Y7881265D01*
X46758891Y7648675D01*
X46621328Y7511352D01*
X46596897Y7641190D01*
X46513454Y7770865D01*
X46386134Y7857859D01*
X46235000Y7888464D01*
X43935000Y7888464D01*
X43793810Y7861897D01*
X43664135Y7778454D01*
X43577141Y7651134D01*
X43546536Y7500000D01*
X42290280Y7500000D01*
X42143374Y7647162D01*
X41580871Y7880734D01*
X40971801Y7881265D01*
X40408891Y7648675D01*
X39977838Y7218374D01*
X39744266Y6655871D01*
X39743735Y6046801D01*
X39976325Y5483891D01*
X40288520Y5171151D01*
X39689370Y4572000D01*
X32700631Y4572000D01*
X32101312Y5171318D01*
X32385327Y5454838D01*
X32786626Y5052838D01*
X33349129Y4819266D01*
X33958199Y4818735D01*
X34521109Y5051325D01*
X34925327Y5454838D01*
X35326626Y5052838D01*
X35889129Y4819266D01*
X36498199Y4818735D01*
X37061109Y5051325D01*
X37492162Y5481626D01*
X37725734Y6044129D01*
X37726265Y6653199D01*
X37493675Y7216109D01*
X37063374Y7647162D01*
X36500871Y7880734D01*
X35891801Y7881265D01*
X35328891Y7648675D01*
X34924673Y7245162D01*
X34523374Y7647162D01*
X33960871Y7880734D01*
X33351801Y7881265D01*
X32788891Y7648675D01*
X32384673Y7245162D01*
X31983374Y7647162D01*
X31420871Y7880734D01*
X30811801Y7881265D01*
X30248891Y7648675D01*
X29817838Y7218374D01*
X29584266Y6655871D01*
X29583735Y6046801D01*
X27565736Y6046801D01*
X27566265Y6653199D01*
X27333675Y7216109D01*
X26903374Y7647162D01*
X26340871Y7880734D01*
X25731801Y7881265D01*
X25168891Y7648675D01*
X25031328Y7511352D01*
X25006897Y7641190D01*
X24923454Y7770865D01*
X24796134Y7857859D01*
X24645000Y7888464D01*
X22345000Y7888464D01*
X22203810Y7861897D01*
X22074135Y7778454D01*
X21987141Y7651134D01*
X21956536Y7500000D01*
X456000Y7500000D01*
X456000Y13122296D01*
X4348691Y13122296D01*
X4619261Y12467467D01*
X5119827Y11966027D01*
X5774183Y11694315D01*
X6482709Y11693696D01*
X7137538Y11964266D01*
X7638978Y12464832D01*
X7910690Y13119188D01*
X7910692Y13122296D01*
X17488691Y13122296D01*
X17759261Y12467467D01*
X18259827Y11966027D01*
X18914183Y11694315D01*
X19622709Y11693696D01*
X20277538Y11964266D01*
X20778978Y12464832D01*
X21050690Y13119188D01*
X21051309Y13827714D01*
X20780739Y14482543D01*
X20280173Y14983983D01*
X19625817Y15255695D01*
X18917291Y15256314D01*
X18262462Y14985744D01*
X17761022Y14485178D01*
X17489310Y13830822D01*
X17488691Y13122296D01*
X7910692Y13122296D01*
X7911309Y13827714D01*
X7640739Y14482543D01*
X7140173Y14983983D01*
X6485817Y15255695D01*
X5777291Y15256314D01*
X5122462Y14985744D01*
X4621022Y14485178D01*
X4349310Y13830822D01*
X4348691Y13122296D01*
X456000Y13122296D01*
X456000Y15968944D01*
X8108811Y15968944D01*
X8274556Y15567810D01*
X8581191Y15260639D01*
X8982035Y15094195D01*
X9416061Y15093816D01*
X9817195Y15259561D01*
X10124366Y15566196D01*
X10290810Y15967040D01*
X10290811Y15968944D01*
X10608811Y15968944D01*
X10774556Y15567810D01*
X11081191Y15260639D01*
X11482035Y15094195D01*
X11916061Y15093816D01*
X12317195Y15259561D01*
X12624366Y15566196D01*
X12699980Y15748297D01*
X12774556Y15567810D01*
X13081191Y15260639D01*
X13482035Y15094195D01*
X13916061Y15093816D01*
X14317195Y15259561D01*
X14624366Y15566196D01*
X14790810Y15967040D01*
X14791189Y16401066D01*
X14625444Y16802200D01*
X14318809Y17109371D01*
X13917965Y17275815D01*
X13483939Y17276194D01*
X13082805Y17110449D01*
X12775634Y16803814D01*
X12700020Y16621713D01*
X12625444Y16802200D01*
X12318809Y17109371D01*
X11917965Y17275815D01*
X11483939Y17276194D01*
X11082805Y17110449D01*
X10775634Y16803814D01*
X10609190Y16402970D01*
X10608811Y15968944D01*
X10290811Y15968944D01*
X10291189Y16401066D01*
X10125444Y16802200D01*
X9818809Y17109371D01*
X9417965Y17275815D01*
X8983939Y17276194D01*
X8582805Y17110449D01*
X8275634Y16803814D01*
X8109190Y16402970D01*
X8108811Y15968944D01*
X456000Y15968944D01*
X456000Y18802296D01*
X4348691Y18802296D01*
X4619261Y18147467D01*
X5119827Y17646027D01*
X5774183Y17374315D01*
X6482709Y17373696D01*
X7137538Y17644266D01*
X7638978Y18144832D01*
X7823389Y18588944D01*
X8108811Y18588944D01*
X8274556Y18187810D01*
X8581191Y17880639D01*
X8982035Y17714195D01*
X9416061Y17713816D01*
X9817195Y17879561D01*
X10124366Y18186196D01*
X10290810Y18587040D01*
X10290811Y18588944D01*
X10608811Y18588944D01*
X10774556Y18187810D01*
X11081191Y17880639D01*
X11482035Y17714195D01*
X11916061Y17713816D01*
X12317195Y17879561D01*
X12624366Y18186196D01*
X12699980Y18368297D01*
X12774556Y18187810D01*
X13081191Y17880639D01*
X13482035Y17714195D01*
X13916061Y17713816D01*
X14317195Y17879561D01*
X14624366Y18186196D01*
X14790810Y18587040D01*
X14790997Y18802296D01*
X17488691Y18802296D01*
X17759261Y18147467D01*
X18259827Y17646027D01*
X18914183Y17374315D01*
X19622709Y17373696D01*
X20277538Y17644266D01*
X20778978Y18144832D01*
X21050690Y18799188D01*
X21051309Y19507714D01*
X20780739Y20162543D01*
X20280173Y20663983D01*
X19625817Y20935695D01*
X18917291Y20936314D01*
X18262462Y20665744D01*
X17761022Y20165178D01*
X17489310Y19510822D01*
X17488691Y18802296D01*
X14790997Y18802296D01*
X14791189Y19021066D01*
X14625444Y19422200D01*
X14318809Y19729371D01*
X13917965Y19895815D01*
X13483939Y19896194D01*
X13082805Y19730449D01*
X12775634Y19423814D01*
X12700020Y19241713D01*
X12625444Y19422200D01*
X12318809Y19729371D01*
X11917965Y19895815D01*
X11483939Y19896194D01*
X11082805Y19730449D01*
X10775634Y19423814D01*
X10609190Y19022970D01*
X10608811Y18588944D01*
X10290811Y18588944D01*
X10291189Y19021066D01*
X10125444Y19422200D01*
X9818809Y19729371D01*
X9417965Y19895815D01*
X8983939Y19896194D01*
X8582805Y19730449D01*
X8275634Y19423814D01*
X8109190Y19022970D01*
X8108811Y18588944D01*
X7823389Y18588944D01*
X7910690Y18799188D01*
X7911309Y19507714D01*
X7640739Y20162543D01*
X7140173Y20663983D01*
X6485817Y20935695D01*
X5777291Y20936314D01*
X5122462Y20665744D01*
X4621022Y20165178D01*
X4349310Y19510822D01*
X4348691Y18802296D01*
X456000Y18802296D01*
X456000Y44450000D01*
X3655631Y44450000D01*
X3750371Y43973712D01*
X4020166Y43569935D01*
X4423943Y43300140D01*
X4900231Y43205400D01*
X5259769Y43205400D01*
X5736057Y43300140D01*
X6139834Y43569935D01*
X6409629Y43973712D01*
X6504369Y44450000D01*
X6409629Y44926288D01*
X6139834Y45330065D01*
X5736057Y45599860D01*
X5259769Y45694600D01*
X4900231Y45694600D01*
X4423943Y45599860D01*
X4020166Y45330065D01*
X3750371Y44926288D01*
X3655631Y44450000D01*
X456000Y44450000D01*
X456000Y46990000D01*
X3655631Y46990000D01*
X3750371Y46513712D01*
X4020166Y46109935D01*
X4423943Y45840140D01*
X4900231Y45745400D01*
X5259769Y45745400D01*
X5736057Y45840140D01*
X6139834Y46109935D01*
X6213467Y46220135D01*
X41228882Y46220135D01*
X41332339Y45969748D01*
X41523741Y45778013D01*
X41773946Y45674118D01*
X41872548Y45674032D01*
X42498967Y45047613D01*
X42498882Y44950135D01*
X42602339Y44699748D01*
X42793741Y44508013D01*
X43043946Y44404118D01*
X43314865Y44403882D01*
X43565252Y44507339D01*
X43756987Y44698741D01*
X43860882Y44948946D01*
X43861118Y45219865D01*
X43757661Y45470252D01*
X43566259Y45661987D01*
X43316054Y45765882D01*
X43217452Y45765968D01*
X42591033Y46392387D01*
X42591118Y46489865D01*
X42487661Y46740252D01*
X42296259Y46931987D01*
X42046054Y47035882D01*
X41775135Y47036118D01*
X41524748Y46932661D01*
X41333013Y46741259D01*
X41229118Y46491054D01*
X41228882Y46220135D01*
X6213467Y46220135D01*
X6409629Y46513712D01*
X6504369Y46990000D01*
X6409629Y47466288D01*
X6139834Y47870065D01*
X5736057Y48139860D01*
X5259769Y48234600D01*
X4900231Y48234600D01*
X4423943Y48139860D01*
X4020166Y47870065D01*
X3750371Y47466288D01*
X3655631Y46990000D01*
X456000Y46990000D01*
X456000Y50393600D01*
X3675536Y50393600D01*
X3675536Y48666400D01*
X3702103Y48525210D01*
X3785546Y48395535D01*
X3912866Y48308541D01*
X4064000Y48277936D01*
X6096000Y48277936D01*
X6237190Y48304503D01*
X6366865Y48387946D01*
X6453859Y48515266D01*
X6484464Y48666400D01*
X6484464Y49395135D01*
X39323882Y49395135D01*
X39427339Y49144748D01*
X39618741Y48953013D01*
X39758485Y48894986D01*
X39619748Y48837661D01*
X39428013Y48646259D01*
X39324118Y48396054D01*
X39323882Y48125135D01*
X39427339Y47874748D01*
X39618741Y47683013D01*
X39868946Y47579118D01*
X40139865Y47578882D01*
X40390252Y47682339D01*
X40581987Y47873741D01*
X40685882Y48123946D01*
X40685968Y48222548D01*
X41312387Y48848967D01*
X41409865Y48848882D01*
X41660252Y48952339D01*
X41851987Y49143741D01*
X41955882Y49393946D01*
X41956118Y49664865D01*
X41852661Y49915252D01*
X41661259Y50106987D01*
X41411054Y50210882D01*
X41404308Y50210888D01*
X41947387Y50753967D01*
X42044865Y50753882D01*
X42295252Y50857339D01*
X42486987Y51048741D01*
X42590882Y51298946D01*
X42591118Y51569865D01*
X42487661Y51820252D01*
X42296259Y52011987D01*
X42046054Y52115882D01*
X41775135Y52116118D01*
X41524748Y52012661D01*
X41333013Y51821259D01*
X41229118Y51571054D01*
X41229032Y51472452D01*
X39967613Y50211033D01*
X39870135Y50211118D01*
X39619748Y50107661D01*
X39428013Y49916259D01*
X39324118Y49666054D01*
X39323882Y49395135D01*
X6484464Y49395135D01*
X6484464Y50393600D01*
X6457897Y50534790D01*
X6374454Y50664465D01*
X6247134Y50751459D01*
X6096000Y50782064D01*
X4064000Y50782064D01*
X3922810Y50755497D01*
X3793135Y50672054D01*
X3706141Y50544734D01*
X3675536Y50393600D01*
X456000Y50393600D01*
X456000Y66555000D01*
X3541536Y66555000D01*
X3541536Y64255000D01*
X3568103Y64113810D01*
X3651546Y63984135D01*
X3778866Y63897141D01*
X3930000Y63866536D01*
X6230000Y63866536D01*
X6371190Y63893103D01*
X6500865Y63976546D01*
X6587859Y64103866D01*
X6618464Y64255000D01*
X6618464Y66555000D01*
X6591897Y66696190D01*
X6508454Y66825865D01*
X6381134Y66912859D01*
X6230000Y66943464D01*
X3930000Y66943464D01*
X3788810Y66916897D01*
X3659135Y66833454D01*
X3572141Y66706134D01*
X3541536Y66555000D01*
X456000Y66555000D01*
X456000Y68326000D01*
X32402936Y68326000D01*
X32402936Y66294000D01*
X32429503Y66152810D01*
X32512946Y66023135D01*
X32640266Y65936141D01*
X32791400Y65905536D01*
X34518600Y65905536D01*
X34659790Y65932103D01*
X34789465Y66015546D01*
X34876459Y66142866D01*
X34907064Y66294000D01*
X34907064Y67489769D01*
X34950400Y67489769D01*
X34950400Y67130231D01*
X35045140Y66653943D01*
X35314935Y66250166D01*
X35718712Y65980371D01*
X36195000Y65885631D01*
X36671288Y65980371D01*
X37075065Y66250166D01*
X37344860Y66653943D01*
X37439600Y67130231D01*
X37439600Y67489769D01*
X40030400Y67489769D01*
X40030400Y67130231D01*
X40125140Y66653943D01*
X40394935Y66250166D01*
X40798712Y65980371D01*
X41275000Y65885631D01*
X41751288Y65980371D01*
X42155065Y66250166D01*
X42424860Y66653943D01*
X42519600Y67130231D01*
X42519600Y67489769D01*
X42570400Y67489769D01*
X42570400Y67130231D01*
X42665140Y66653943D01*
X42934935Y66250166D01*
X43338712Y65980371D01*
X43815000Y65885631D01*
X44291288Y65980371D01*
X44695065Y66250166D01*
X44964860Y66653943D01*
X45059600Y67130231D01*
X45059600Y67489769D01*
X45110400Y67489769D01*
X45110400Y67130231D01*
X45205140Y66653943D01*
X45474935Y66250166D01*
X45878712Y65980371D01*
X46355000Y65885631D01*
X46831288Y65980371D01*
X47235065Y66250166D01*
X47504860Y66653943D01*
X47599600Y67130231D01*
X47599600Y67489769D01*
X47504860Y67966057D01*
X47235065Y68369834D01*
X46831288Y68639629D01*
X46355000Y68734369D01*
X45878712Y68639629D01*
X45474935Y68369834D01*
X45205140Y67966057D01*
X45110400Y67489769D01*
X45059600Y67489769D01*
X44964860Y67966057D01*
X44695065Y68369834D01*
X44291288Y68639629D01*
X43815000Y68734369D01*
X43338712Y68639629D01*
X42934935Y68369834D01*
X42665140Y67966057D01*
X42570400Y67489769D01*
X42519600Y67489769D01*
X42424860Y67966057D01*
X42155065Y68369834D01*
X41751288Y68639629D01*
X41275000Y68734369D01*
X40798712Y68639629D01*
X40394935Y68369834D01*
X40125140Y67966057D01*
X40030400Y67489769D01*
X37439600Y67489769D01*
X37344860Y67966057D01*
X37075065Y68369834D01*
X36671288Y68639629D01*
X36195000Y68734369D01*
X35718712Y68639629D01*
X35314935Y68369834D01*
X35045140Y67966057D01*
X34950400Y67489769D01*
X34907064Y67489769D01*
X34907064Y68326000D01*
X34880497Y68467190D01*
X34797054Y68596865D01*
X34669734Y68683859D01*
X34518600Y68714464D01*
X32791400Y68714464D01*
X32650210Y68687897D01*
X32520535Y68604454D01*
X32433541Y68477134D01*
X32402936Y68326000D01*
X456000Y68326000D01*
X456000Y71544000D01*
X79544000Y71544000D01*
X79544000Y456000D01*
M02*
