G04 #@! TF.FileFunction,Legend,Bot*
%FSLAX46Y46*%
G04 Gerber Fmt 4.6, Leading zero omitted, Abs format (unit mm)*
G04 Created by KiCad (PCBNEW 4.0.7) date Fri Nov 24 00:26:01 2017*
%MOMM*%
%LPD*%
G01*
G04 APERTURE LIST*
%ADD10C,0.152400*%
%ADD11C,0.150000*%
G04 APERTURE END LIST*
D10*
X67576095Y27110267D02*
X67092286Y27110267D01*
X67672857Y26819981D02*
X67334190Y27835981D01*
X66995524Y26819981D01*
X66221429Y27497314D02*
X66221429Y26481314D01*
X66221429Y26868362D02*
X66318191Y26819981D01*
X66511714Y26819981D01*
X66608476Y26868362D01*
X66656857Y26916743D01*
X66705238Y27013505D01*
X66705238Y27303790D01*
X66656857Y27400552D01*
X66608476Y27448933D01*
X66511714Y27497314D01*
X66318191Y27497314D01*
X66221429Y27448933D01*
X65302191Y27497314D02*
X65302191Y26819981D01*
X65737619Y27497314D02*
X65737619Y26965124D01*
X65689238Y26868362D01*
X65592476Y26819981D01*
X65447334Y26819981D01*
X65350572Y26868362D01*
X65302191Y26916743D01*
X64382953Y26819981D02*
X64382953Y27352171D01*
X64431334Y27448933D01*
X64528096Y27497314D01*
X64721619Y27497314D01*
X64818381Y27448933D01*
X64382953Y26868362D02*
X64479715Y26819981D01*
X64721619Y26819981D01*
X64818381Y26868362D01*
X64866762Y26965124D01*
X64866762Y27061886D01*
X64818381Y27158648D01*
X64721619Y27207029D01*
X64479715Y27207029D01*
X64382953Y27255410D01*
X63899143Y26819981D02*
X63899143Y27835981D01*
X63512096Y27835981D01*
X63415334Y27787600D01*
X63366953Y27739219D01*
X63318572Y27642457D01*
X63318572Y27497314D01*
X63366953Y27400552D01*
X63415334Y27352171D01*
X63512096Y27303790D01*
X63899143Y27303790D01*
X62883143Y26819981D02*
X62883143Y27497314D01*
X62883143Y27835981D02*
X62931524Y27787600D01*
X62883143Y27739219D01*
X62834762Y27787600D01*
X62883143Y27835981D01*
X62883143Y27739219D01*
X61963905Y26868362D02*
X62060667Y26819981D01*
X62254190Y26819981D01*
X62350952Y26868362D01*
X62399333Y26916743D01*
X62447714Y27013505D01*
X62447714Y27303790D01*
X62399333Y27400552D01*
X62350952Y27448933D01*
X62254190Y27497314D01*
X62060667Y27497314D01*
X61963905Y27448933D01*
X69414570Y25433867D02*
X68930761Y25433867D01*
X69511332Y25143581D02*
X69172665Y26159581D01*
X68833999Y25143581D01*
X68495332Y25820914D02*
X68495332Y25143581D01*
X68495332Y25724152D02*
X68446951Y25772533D01*
X68350189Y25820914D01*
X68205047Y25820914D01*
X68108285Y25772533D01*
X68059904Y25675771D01*
X68059904Y25143581D01*
X67140666Y25143581D02*
X67140666Y25675771D01*
X67189047Y25772533D01*
X67285809Y25820914D01*
X67479332Y25820914D01*
X67576094Y25772533D01*
X67140666Y25191962D02*
X67237428Y25143581D01*
X67479332Y25143581D01*
X67576094Y25191962D01*
X67624475Y25288724D01*
X67624475Y25385486D01*
X67576094Y25482248D01*
X67479332Y25530629D01*
X67237428Y25530629D01*
X67140666Y25579010D01*
X66511713Y25143581D02*
X66608475Y25191962D01*
X66656856Y25288724D01*
X66656856Y26159581D01*
X65979523Y25143581D02*
X66076285Y25191962D01*
X66124666Y25240343D01*
X66173047Y25337105D01*
X66173047Y25627390D01*
X66124666Y25724152D01*
X66076285Y25772533D01*
X65979523Y25820914D01*
X65834381Y25820914D01*
X65737619Y25772533D01*
X65689238Y25724152D01*
X65640857Y25627390D01*
X65640857Y25337105D01*
X65689238Y25240343D01*
X65737619Y25191962D01*
X65834381Y25143581D01*
X65979523Y25143581D01*
X64770000Y25820914D02*
X64770000Y24998438D01*
X64818381Y24901676D01*
X64866762Y24853295D01*
X64963523Y24804914D01*
X65108666Y24804914D01*
X65205428Y24853295D01*
X64770000Y25191962D02*
X64866762Y25143581D01*
X65060285Y25143581D01*
X65157047Y25191962D01*
X65205428Y25240343D01*
X65253809Y25337105D01*
X65253809Y25627390D01*
X65205428Y25724152D01*
X65157047Y25772533D01*
X65060285Y25820914D01*
X64866762Y25820914D01*
X64770000Y25772533D01*
X63512095Y25143581D02*
X63512095Y26159581D01*
X63028285Y25820914D02*
X63028285Y25143581D01*
X63028285Y25724152D02*
X62979904Y25772533D01*
X62883142Y25820914D01*
X62738000Y25820914D01*
X62641238Y25772533D01*
X62592857Y25675771D01*
X62592857Y25143581D01*
X62109047Y25820914D02*
X62109047Y24804914D01*
X62109047Y25772533D02*
X62012285Y25820914D01*
X61818762Y25820914D01*
X61722000Y25772533D01*
X61673619Y25724152D01*
X61625238Y25627390D01*
X61625238Y25337105D01*
X61673619Y25240343D01*
X61722000Y25191962D01*
X61818762Y25143581D01*
X62012285Y25143581D01*
X62109047Y25191962D01*
X60754381Y25820914D02*
X60754381Y25143581D01*
X61189809Y25820914D02*
X61189809Y25288724D01*
X61141428Y25191962D01*
X61044666Y25143581D01*
X60899524Y25143581D01*
X60802762Y25191962D01*
X60754381Y25240343D01*
X60415714Y25820914D02*
X60028666Y25820914D01*
X60270571Y26159581D02*
X60270571Y25288724D01*
X60222190Y25191962D01*
X60125428Y25143581D01*
X60028666Y25143581D01*
X66874571Y23467181D02*
X67213237Y23950990D01*
X67455142Y23467181D02*
X67455142Y24483181D01*
X67068095Y24483181D01*
X66971333Y24434800D01*
X66922952Y24386419D01*
X66874571Y24289657D01*
X66874571Y24144514D01*
X66922952Y24047752D01*
X66971333Y23999371D01*
X67068095Y23950990D01*
X67455142Y23950990D01*
X66052095Y23515562D02*
X66148857Y23467181D01*
X66342380Y23467181D01*
X66439142Y23515562D01*
X66487523Y23612324D01*
X66487523Y23999371D01*
X66439142Y24096133D01*
X66342380Y24144514D01*
X66148857Y24144514D01*
X66052095Y24096133D01*
X66003714Y23999371D01*
X66003714Y23902610D01*
X66487523Y23805848D01*
X65665047Y24144514D02*
X65423142Y23467181D01*
X65181238Y24144514D01*
X64068476Y24386419D02*
X64020095Y24434800D01*
X63923333Y24483181D01*
X63681429Y24483181D01*
X63584667Y24434800D01*
X63536286Y24386419D01*
X63487905Y24289657D01*
X63487905Y24192895D01*
X63536286Y24047752D01*
X64116857Y23467181D01*
X63487905Y23467181D01*
X63052476Y23563943D02*
X63004095Y23515562D01*
X63052476Y23467181D01*
X63100857Y23515562D01*
X63052476Y23563943D01*
X63052476Y23467181D01*
X62375142Y24483181D02*
X62278381Y24483181D01*
X62181619Y24434800D01*
X62133238Y24386419D01*
X62084857Y24289657D01*
X62036476Y24096133D01*
X62036476Y23854229D01*
X62084857Y23660705D01*
X62133238Y23563943D01*
X62181619Y23515562D01*
X62278381Y23467181D01*
X62375142Y23467181D01*
X62471904Y23515562D01*
X62520285Y23563943D01*
X62568666Y23660705D01*
X62617047Y23854229D01*
X62617047Y24096133D01*
X62568666Y24289657D01*
X62520285Y24386419D01*
X62471904Y24434800D01*
X62375142Y24483181D01*
X72728666Y22758400D02*
X72825428Y22806781D01*
X72970571Y22806781D01*
X73115713Y22758400D01*
X73212475Y22661638D01*
X73260856Y22564876D01*
X73309237Y22371352D01*
X73309237Y22226210D01*
X73260856Y22032686D01*
X73212475Y21935924D01*
X73115713Y21839162D01*
X72970571Y21790781D01*
X72873809Y21790781D01*
X72728666Y21839162D01*
X72680285Y21887543D01*
X72680285Y22226210D01*
X72873809Y22226210D01*
X72099713Y21790781D02*
X72196475Y21839162D01*
X72244856Y21887543D01*
X72293237Y21984305D01*
X72293237Y22274590D01*
X72244856Y22371352D01*
X72196475Y22419733D01*
X72099713Y22468114D01*
X71954571Y22468114D01*
X71857809Y22419733D01*
X71809428Y22371352D01*
X71761047Y22274590D01*
X71761047Y21984305D01*
X71809428Y21887543D01*
X71857809Y21839162D01*
X71954571Y21790781D01*
X72099713Y21790781D01*
X71180475Y21790781D02*
X71277237Y21839162D01*
X71325618Y21887543D01*
X71373999Y21984305D01*
X71373999Y22274590D01*
X71325618Y22371352D01*
X71277237Y22419733D01*
X71180475Y22468114D01*
X71035333Y22468114D01*
X70938571Y22419733D01*
X70890190Y22371352D01*
X70841809Y22274590D01*
X70841809Y21984305D01*
X70890190Y21887543D01*
X70938571Y21839162D01*
X71035333Y21790781D01*
X71180475Y21790781D01*
X69970952Y21790781D02*
X69970952Y22806781D01*
X69970952Y21839162D02*
X70067714Y21790781D01*
X70261237Y21790781D01*
X70357999Y21839162D01*
X70406380Y21887543D01*
X70454761Y21984305D01*
X70454761Y22274590D01*
X70406380Y22371352D01*
X70357999Y22419733D01*
X70261237Y22468114D01*
X70067714Y22468114D01*
X69970952Y22419733D01*
X69632285Y22468114D02*
X69245237Y22468114D01*
X69487142Y22806781D02*
X69487142Y21935924D01*
X69438761Y21839162D01*
X69341999Y21790781D01*
X69245237Y21790781D01*
X68906571Y21790781D02*
X68906571Y22468114D01*
X68906571Y22806781D02*
X68954952Y22758400D01*
X68906571Y22710019D01*
X68858190Y22758400D01*
X68906571Y22806781D01*
X68906571Y22710019D01*
X68422761Y21790781D02*
X68422761Y22468114D01*
X68422761Y22371352D02*
X68374380Y22419733D01*
X68277618Y22468114D01*
X68132476Y22468114D01*
X68035714Y22419733D01*
X67987333Y22322971D01*
X67987333Y21790781D01*
X67987333Y22322971D02*
X67938952Y22419733D01*
X67842190Y22468114D01*
X67697047Y22468114D01*
X67600285Y22419733D01*
X67551904Y22322971D01*
X67551904Y21790781D01*
X66681047Y21839162D02*
X66777809Y21790781D01*
X66971332Y21790781D01*
X67068094Y21839162D01*
X67116475Y21935924D01*
X67116475Y22322971D01*
X67068094Y22419733D01*
X66971332Y22468114D01*
X66777809Y22468114D01*
X66681047Y22419733D01*
X66632666Y22322971D01*
X66632666Y22226210D01*
X67116475Y22129448D01*
X65423142Y21790781D02*
X65423142Y22806781D01*
X65181237Y22806781D01*
X65036095Y22758400D01*
X64939333Y22661638D01*
X64890952Y22564876D01*
X64842571Y22371352D01*
X64842571Y22226210D01*
X64890952Y22032686D01*
X64939333Y21935924D01*
X65036095Y21839162D01*
X65181237Y21790781D01*
X65423142Y21790781D01*
X64020095Y21839162D02*
X64116857Y21790781D01*
X64310380Y21790781D01*
X64407142Y21839162D01*
X64455523Y21935924D01*
X64455523Y22322971D01*
X64407142Y22419733D01*
X64310380Y22468114D01*
X64116857Y22468114D01*
X64020095Y22419733D01*
X63971714Y22322971D01*
X63971714Y22226210D01*
X64455523Y22129448D01*
X63633047Y22468114D02*
X63391142Y21790781D01*
X63149238Y22468114D01*
X62375143Y21839162D02*
X62471905Y21790781D01*
X62665428Y21790781D01*
X62762190Y21839162D01*
X62810571Y21935924D01*
X62810571Y22322971D01*
X62762190Y22419733D01*
X62665428Y22468114D01*
X62471905Y22468114D01*
X62375143Y22419733D01*
X62326762Y22322971D01*
X62326762Y22226210D01*
X62810571Y22129448D01*
X61746190Y21790781D02*
X61842952Y21839162D01*
X61891333Y21935924D01*
X61891333Y22806781D01*
X61214000Y21790781D02*
X61310762Y21839162D01*
X61359143Y21887543D01*
X61407524Y21984305D01*
X61407524Y22274590D01*
X61359143Y22371352D01*
X61310762Y22419733D01*
X61214000Y22468114D01*
X61068858Y22468114D01*
X60972096Y22419733D01*
X60923715Y22371352D01*
X60875334Y22274590D01*
X60875334Y21984305D01*
X60923715Y21887543D01*
X60972096Y21839162D01*
X61068858Y21790781D01*
X61214000Y21790781D01*
X60439905Y22468114D02*
X60439905Y21452114D01*
X60439905Y22419733D02*
X60343143Y22468114D01*
X60149620Y22468114D01*
X60052858Y22419733D01*
X60004477Y22371352D01*
X59956096Y22274590D01*
X59956096Y21984305D01*
X60004477Y21887543D01*
X60052858Y21839162D01*
X60149620Y21790781D01*
X60343143Y21790781D01*
X60439905Y21839162D01*
X59520667Y21790781D02*
X59520667Y22468114D01*
X59520667Y22371352D02*
X59472286Y22419733D01*
X59375524Y22468114D01*
X59230382Y22468114D01*
X59133620Y22419733D01*
X59085239Y22322971D01*
X59085239Y21790781D01*
X59085239Y22322971D02*
X59036858Y22419733D01*
X58940096Y22468114D01*
X58794953Y22468114D01*
X58698191Y22419733D01*
X58649810Y22322971D01*
X58649810Y21790781D01*
X57778953Y21839162D02*
X57875715Y21790781D01*
X58069238Y21790781D01*
X58166000Y21839162D01*
X58214381Y21935924D01*
X58214381Y22322971D01*
X58166000Y22419733D01*
X58069238Y22468114D01*
X57875715Y22468114D01*
X57778953Y22419733D01*
X57730572Y22322971D01*
X57730572Y22226210D01*
X58214381Y22129448D01*
X57295143Y22468114D02*
X57295143Y21790781D01*
X57295143Y22371352D02*
X57246762Y22419733D01*
X57150000Y22468114D01*
X57004858Y22468114D01*
X56908096Y22419733D01*
X56859715Y22322971D01*
X56859715Y21790781D01*
X56521048Y22468114D02*
X56134000Y22468114D01*
X56375905Y22806781D02*
X56375905Y21935924D01*
X56327524Y21839162D01*
X56230762Y21790781D01*
X56134000Y21790781D01*
D11*
X49131220Y22710140D02*
X48770540Y21239480D01*
X48770540Y21239480D02*
X48491140Y22301200D01*
X48491140Y22301200D02*
X48181260Y21229320D01*
X48181260Y21229320D02*
X47840900Y22679660D01*
X50551080Y22019260D02*
X49761140Y22029420D01*
X49761140Y22029420D02*
X49750980Y22019260D01*
X49750980Y22019260D02*
X49750980Y22029420D01*
X49710340Y22740620D02*
X49710340Y21198840D01*
X50599340Y22750780D02*
X50599340Y21181060D01*
X50599340Y21181060D02*
X50589180Y21191220D01*
X51150520Y22649180D02*
X51501040Y22730460D01*
X51501040Y22730460D02*
X51821080Y22740620D01*
X51821080Y22740620D02*
X52059840Y22539960D01*
X52059840Y22539960D02*
X52090320Y22270720D01*
X52090320Y22270720D02*
X51849020Y22029420D01*
X51849020Y22029420D02*
X51460400Y21899880D01*
X51460400Y21899880D02*
X51280060Y21739860D01*
X51280060Y21739860D02*
X51239420Y21440140D01*
X51239420Y21440140D02*
X51470560Y21219160D01*
X51470560Y21219160D02*
X51790600Y21191220D01*
X51790600Y21191220D02*
X52141120Y21300440D01*
X53179980Y22750780D02*
X53428900Y22730460D01*
X53428900Y22730460D02*
X53670200Y22489160D01*
X53670200Y22489160D02*
X53759100Y21998940D01*
X53759100Y21998940D02*
X53731160Y21650960D01*
X53731160Y21650960D02*
X53530500Y21330920D01*
X53530500Y21330920D02*
X53279040Y21209000D01*
X53279040Y21209000D02*
X52969160Y21280120D01*
X52969160Y21280120D02*
X52750720Y21460460D01*
X52750720Y21460460D02*
X52679600Y21920200D01*
X52679600Y21920200D02*
X52730400Y22329140D01*
X52730400Y22329140D02*
X52839620Y22611080D01*
X52839620Y22611080D02*
X53200300Y22740620D01*
X52580540Y24470360D02*
X52839620Y23909020D01*
X52839620Y23909020D02*
X52301140Y23390860D01*
X52301140Y23390860D02*
X51780440Y23660100D01*
X51780440Y23660100D02*
X51501040Y23500080D01*
X50060860Y23520400D02*
X49730660Y23710900D01*
X49730660Y23710900D02*
X49291240Y23380700D01*
X49291240Y23380700D02*
X48818800Y23870920D01*
X48818800Y23870920D02*
X49100740Y24350980D01*
X49100740Y24350980D02*
X48910240Y24820880D01*
X48910240Y24820880D02*
X48300640Y25008840D01*
X48300640Y25008840D02*
X48300640Y25689560D01*
X48300640Y25689560D02*
X48859440Y25829260D01*
X48859440Y25829260D02*
X49060100Y26400760D01*
X49060100Y26400760D02*
X48790860Y26870660D01*
X48790860Y26870660D02*
X49260760Y27381200D01*
X49260760Y27381200D02*
X49778920Y27119580D01*
X49778920Y27119580D02*
X50248820Y27320240D01*
X50248820Y27320240D02*
X50419000Y27861260D01*
X50419000Y27861260D02*
X51109880Y27879040D01*
X51109880Y27879040D02*
X51320700Y27330400D01*
X51320700Y27330400D02*
X51739800Y27160220D01*
X51739800Y27160220D02*
X52290980Y27429460D01*
X52290980Y27429460D02*
X52809140Y26901140D01*
X52809140Y26901140D02*
X52560220Y26360120D01*
X52560220Y26360120D02*
X52730400Y25880060D01*
X52730400Y25880060D02*
X53279040Y25781000D01*
X53279040Y25781000D02*
X53289200Y25079960D01*
X53289200Y25079960D02*
X52730400Y24879300D01*
X52730400Y24879300D02*
X52590700Y24480520D01*
X50449480Y24500840D02*
X50149760Y24650700D01*
X50149760Y24650700D02*
X49949100Y24848820D01*
X49949100Y24848820D02*
X49799240Y25250140D01*
X49799240Y25250140D02*
X49799240Y25648920D01*
X49799240Y25648920D02*
X49949100Y25999440D01*
X49949100Y25999440D02*
X50401220Y26349960D01*
X50401220Y26349960D02*
X50850800Y26400760D01*
X50850800Y26400760D02*
X51249580Y26299160D01*
X51249580Y26299160D02*
X51650900Y25951180D01*
X51650900Y25951180D02*
X51800760Y25499060D01*
X51800760Y25499060D02*
X51749960Y25001220D01*
X51749960Y25001220D02*
X51501040Y24698960D01*
X51501040Y24698960D02*
X51150520Y24500840D01*
X51150520Y24500840D02*
X51501040Y23500080D01*
X50449480Y24500840D02*
X50050700Y23500080D01*
M02*
