G04 #@! TF.FileFunction,Soldermask,Bot*
%FSLAX46Y46*%
G04 Gerber Fmt 4.6, Leading zero omitted, Abs format (unit mm)*
G04 Created by KiCad (PCBNEW 4.0.1-stable) date 8/17/2016 11:23:16 PM*
%MOMM*%
G01*
G04 APERTURE LIST*
%ADD10C,0.127000*%
%ADD11R,2.432000X2.127200*%
%ADD12O,2.432000X2.127200*%
%ADD13C,1.820000*%
%ADD14C,3.200000*%
%ADD15R,2.127200X2.432000*%
%ADD16O,2.127200X2.432000*%
%ADD17R,2.700000X2.700000*%
%ADD18C,2.700000*%
%ADD19R,10.400000X10.400000*%
G04 APERTURE END LIST*
D10*
D11*
X5080000Y49530000D03*
D12*
X5080000Y46990000D03*
X5080000Y44450000D03*
D13*
X9200000Y18805005D03*
X11700000Y18805005D03*
X13700000Y18805005D03*
X16200000Y18805005D03*
X9200000Y16185005D03*
X11700000Y16185005D03*
X13700000Y16185005D03*
X16200000Y16185005D03*
D14*
X19270000Y13475005D03*
X19270000Y19155005D03*
X6130000Y19155005D03*
X6130000Y13475005D03*
D15*
X33655000Y67310000D03*
D16*
X36195000Y67310000D03*
X38735000Y67310000D03*
X41275000Y67310000D03*
X43815000Y67310000D03*
X46355000Y67310000D03*
D17*
X5080000Y65405000D03*
D18*
X7620000Y65405000D03*
X62865000Y6350000D03*
X60325000Y6350000D03*
X57785000Y6350000D03*
X55245000Y6350000D03*
X52705000Y6350000D03*
X50165000Y6350000D03*
X47625000Y6350000D03*
D17*
X45085000Y6350000D03*
X23495000Y6350000D03*
D18*
X26035000Y6350000D03*
X28575000Y6350000D03*
X31115000Y6350000D03*
X33655000Y6350000D03*
X36195000Y6350000D03*
X38735000Y6350000D03*
X41275000Y6350000D03*
D19*
X71755000Y8255000D03*
M02*
