M48
;DRILL file {KiCad 4.0.7} date Thu Nov 16 18:21:00 2017
;FORMAT={-:-/ absolute / inch / decimal}
FMAT,2
INCH,TZ
T1C0.016
T2C0.036
T3C0.039
T4C0.051
T5C0.091
%
G90
G05
M72
T1
X0.275Y2.15
X0.5Y2.725
X0.5Y2.4
X0.575Y2.675
X0.575Y2.65
X0.6Y2.7
X0.6Y1.95
X0.625Y2.7
X0.65Y2.7
X0.675Y2.675
X0.675Y2.65
X0.775Y1.675
X0.82Y2.28
X0.83Y2.2199
X0.925Y1.6
X0.925Y1.375
X0.975Y2.05
X0.975Y1.9878
X1.125Y2.35
X1.15Y2.1
X1.175Y2.4
X1.175Y1.6
X1.225Y2.225
X1.225Y0.85
X1.25Y2.35
X1.325Y2.
X1.325Y1.375
X1.3272Y1.5978
X1.375Y1.7
X1.425Y2.475
X1.475Y2.05
X1.4862Y2.3043
X1.5Y2.425
X1.5Y1.8504
X1.5Y1.8
X1.525Y1.925
X1.55Y2.475
X1.55Y2.425
X1.575Y1.975
X1.575Y1.6
X1.6Y2.475
X1.6Y2.425
X1.6Y2.375
X1.6Y2.05
X1.625Y1.825
X1.625Y1.725
X1.625Y0.85
X1.6494Y2.3006
X1.65Y2.475
X1.65Y2.425
X1.65Y2.3934
X1.775Y1.6
X1.775Y1.375
X1.8Y2.0798
X1.825Y2.0202
X1.85Y2.275
X1.85Y1.876
X1.85Y1.825
X1.85Y1.775
X1.9452Y2.55
X1.9452Y2.5184
X1.9452Y2.475
X2.0048Y2.55
X2.0048Y2.5184
X2.0048Y2.475
X2.025Y1.6
X2.075Y0.85
X2.1725Y1.5975
X2.175Y1.375
X2.425Y1.6
X2.475Y0.85
X3.Y2.35
T2
X0.3622Y0.7404
X0.3622Y0.6372
X0.4606Y0.7404
X0.4606Y0.6372
X0.5394Y0.7404
X0.5394Y0.6372
X0.6378Y0.7404
X0.6378Y0.6372
T3
X1.325Y2.65
X1.425Y2.65
X1.525Y2.65
X1.625Y2.65
X1.725Y2.65
X1.825Y2.65
T4
X0.2Y2.575
X0.3Y2.575
X0.925Y0.25
X1.025Y0.25
X1.125Y0.25
X1.225Y0.25
X1.325Y0.25
X1.425Y0.25
X1.525Y0.25
X1.625Y0.25
X1.775Y0.25
X1.875Y0.25
X1.975Y0.25
X2.075Y0.25
X2.175Y0.25
X2.275Y0.25
X2.375Y0.25
X2.475Y0.25
X2.75Y0.25
X2.85Y0.25
T5
X0.2413Y0.7541
X0.2413Y0.5305
X0.7587Y0.7541
X0.7587Y0.5305
T0
M30
