G04 #@! TF.FileFunction,Copper,L2,Bot,Signal*
%FSLAX46Y46*%
G04 Gerber Fmt 4.6, Leading zero omitted, Abs format (unit mm)*
G04 Created by KiCad (PCBNEW 4.0.7) date Fri Dec  1 15:12:30 2017*
%MOMM*%
%LPD*%
G01*
G04 APERTURE LIST*
%ADD10C,0.152400*%
%ADD11C,1.420000*%
%ADD12C,2.800000*%
%ADD13C,2.300000*%
%ADD14R,2.300000X2.300000*%
%ADD15R,1.700000X1.700000*%
%ADD16O,1.700000X1.700000*%
%ADD17C,0.600000*%
%ADD18C,0.254000*%
%ADD19C,0.762000*%
G04 APERTURE END LIST*
D10*
D11*
X9200000Y18805005D03*
X11700000Y18805005D03*
X13700000Y18805005D03*
X16200000Y18805005D03*
X9200000Y16185005D03*
X11700000Y16185005D03*
X13700000Y16185005D03*
X16200000Y16185005D03*
D12*
X19270000Y13475005D03*
X19270000Y19155005D03*
X6130000Y19155005D03*
X6130000Y13475005D03*
D13*
X62865000Y6350000D03*
X60325000Y6350000D03*
X57785000Y6350000D03*
X55245000Y6350000D03*
X52705000Y6350000D03*
X50165000Y6350000D03*
X47625000Y6350000D03*
D14*
X45085000Y6350000D03*
X23495000Y6350000D03*
D13*
X26035000Y6350000D03*
X28575000Y6350000D03*
X31115000Y6350000D03*
X33655000Y6350000D03*
X36195000Y6350000D03*
X38735000Y6350000D03*
X41275000Y6350000D03*
D14*
X69850000Y6350000D03*
D13*
X72390000Y6350000D03*
D14*
X5080000Y65405000D03*
D13*
X7620000Y65405000D03*
D15*
X33655000Y67310000D03*
D16*
X36195000Y67310000D03*
X38735000Y67310000D03*
X41275000Y67310000D03*
X43815000Y67310000D03*
X46355000Y67310000D03*
D17*
X20826881Y57913119D03*
X21082096Y56385886D03*
X24765000Y52070000D03*
X24765000Y50489800D03*
X42504830Y60735434D03*
X74930000Y59055000D03*
X34290000Y55245000D03*
X47625000Y54610000D03*
X47625000Y59055000D03*
X42359849Y58289894D03*
X37677981Y57034875D03*
X31750000Y59690000D03*
X15240000Y49530000D03*
X6985000Y54610000D03*
X12700000Y60960000D03*
X15240000Y68580000D03*
X14605000Y67310000D03*
X16510000Y68580000D03*
X17145000Y67310000D03*
X14605000Y67945000D03*
X15875000Y68580000D03*
X17145000Y67945000D03*
X12700000Y69215000D03*
X23495000Y34925000D03*
X33655000Y34925000D03*
X45085000Y34925000D03*
X61595000Y40640000D03*
X55245000Y34925000D03*
X19685000Y42545000D03*
X23495000Y40640000D03*
X29845000Y40640000D03*
X33710619Y40584381D03*
X40005000Y40640000D03*
X55181881Y40576881D03*
X51435000Y40640000D03*
X45085000Y40640000D03*
X46990000Y45085000D03*
X46990000Y46355000D03*
X46990000Y47650200D03*
X38100000Y47000200D03*
X38100000Y45720000D03*
X34925000Y43180000D03*
X33655000Y50800000D03*
X29210000Y53340000D03*
X62865000Y21590000D03*
X52705000Y21590000D03*
X31115000Y21590000D03*
X41275000Y21590000D03*
X34925000Y62865000D03*
X34925000Y61595000D03*
X39370000Y63500000D03*
X37865194Y61595000D03*
X38735000Y62865000D03*
X38617597Y61595000D03*
X45720000Y53340000D03*
X45720000Y50800000D03*
X41275000Y46355000D03*
X41275000Y43815000D03*
X40005000Y62865000D03*
X39370000Y61595000D03*
X50922200Y65405000D03*
X49407800Y65405000D03*
X41275000Y62865000D03*
X40122403Y61595000D03*
X50922200Y64135000D03*
X49407800Y64135000D03*
X42545000Y62865000D03*
X40874806Y61595000D03*
X50922200Y62865000D03*
X49407800Y62865000D03*
X38100000Y52070000D03*
X34925000Y51435000D03*
X45085000Y59690000D03*
X45085000Y62230000D03*
X29845000Y60960000D03*
X28575000Y59690000D03*
X40005000Y50165000D03*
X38735000Y48895000D03*
X40740939Y53340000D03*
X40664698Y55245000D03*
D18*
X21082096Y56385886D02*
X21082096Y57657904D01*
X21082096Y57657904D02*
X20826881Y57913119D01*
X24765000Y50489800D02*
X24765000Y52070000D01*
X34925000Y61595000D02*
X34925000Y62865000D01*
X37865194Y61595000D02*
X37865194Y62852708D01*
X37865194Y62852708D02*
X38512486Y63500000D01*
X38512486Y63500000D02*
X39370000Y63500000D01*
X38617597Y61595000D02*
X38617597Y62747597D01*
X38617597Y62747597D02*
X38735000Y62865000D01*
X45720000Y50800000D02*
X45720000Y53340000D01*
X41275000Y43815000D02*
X41275000Y46355000D01*
D19*
X69850000Y6350000D02*
X72390000Y6350000D01*
X62865000Y6350000D02*
X62865000Y5080000D01*
X62865000Y5080000D02*
X64135000Y3810000D01*
X69850000Y5080000D02*
X69850000Y6350000D01*
X68580000Y3810000D02*
X69850000Y5080000D01*
X64135000Y3810000D02*
X68580000Y3810000D01*
X52705000Y5080000D02*
X53975000Y3810000D01*
X61595000Y3810000D02*
X62865000Y5080000D01*
X53975000Y3810000D02*
X61595000Y3810000D01*
X41275000Y5080000D02*
X42545000Y3810000D01*
X52705000Y5080000D02*
X52705000Y6350000D01*
X51435000Y3810000D02*
X52705000Y5080000D01*
X42545000Y3810000D02*
X51435000Y3810000D01*
X31115000Y6350000D02*
X31115000Y5080000D01*
X41275000Y5080000D02*
X41275000Y6350000D01*
X40005000Y3810000D02*
X41275000Y5080000D01*
X32385000Y3810000D02*
X40005000Y3810000D01*
X31115000Y5080000D02*
X32385000Y3810000D01*
D18*
X39370000Y61595000D02*
X39370000Y62230000D01*
X39370000Y62230000D02*
X40005000Y62865000D01*
X49407800Y65405000D02*
X50922200Y65405000D01*
X40122403Y61595000D02*
X40122403Y61712403D01*
X40122403Y61712403D02*
X41275000Y62865000D01*
X49407800Y64135000D02*
X50922200Y64135000D01*
X40874806Y61595000D02*
X41275000Y61595000D01*
X41275000Y61595000D02*
X42545000Y62865000D01*
X49407800Y62865000D02*
X50922200Y62865000D01*
X34925000Y51435000D02*
X37465000Y51435000D01*
X37465000Y51435000D02*
X38100000Y52070000D01*
X45085000Y62230000D02*
X45085000Y59690000D01*
X28575000Y59690000D02*
X29845000Y60960000D01*
X40740939Y53340000D02*
X40740939Y55168759D01*
X40740939Y55168759D02*
X40664698Y55245000D01*
X38735000Y48895000D02*
X40005000Y50165000D01*
G36*
X79544000Y456000D02*
X456000Y456000D01*
X456000Y7500000D01*
X21956536Y7500000D01*
X21956536Y5200000D01*
X21983103Y5058810D01*
X22066546Y4929135D01*
X22193866Y4842141D01*
X22345000Y4811536D01*
X24645000Y4811536D01*
X24786190Y4838103D01*
X24915865Y4921546D01*
X25002859Y5048866D01*
X25031146Y5188555D01*
X25166626Y5052838D01*
X25729129Y4819266D01*
X26338199Y4818735D01*
X26901109Y5051325D01*
X27332162Y5481626D01*
X27565734Y6044129D01*
X27565736Y6046801D01*
X29583735Y6046801D01*
X29816325Y5483891D01*
X30246626Y5052838D01*
X30368466Y5002245D01*
X30411004Y4788395D01*
X30555595Y4572000D01*
X30576185Y4541185D01*
X31846184Y3271185D01*
X32093395Y3106004D01*
X32385000Y3048000D01*
X40005000Y3048000D01*
X40296605Y3106004D01*
X40543815Y3271185D01*
X41275000Y4002369D01*
X42006184Y3271185D01*
X42253395Y3106004D01*
X42545000Y3048000D01*
X51435000Y3048000D01*
X51726605Y3106004D01*
X51973815Y3271185D01*
X52705000Y4002369D01*
X53436184Y3271185D01*
X53683395Y3106004D01*
X53975000Y3048000D01*
X61595000Y3048000D01*
X61886605Y3106004D01*
X62133815Y3271185D01*
X62865000Y4002369D01*
X63596184Y3271185D01*
X63843395Y3106004D01*
X64135000Y3048000D01*
X68580000Y3048000D01*
X68871605Y3106004D01*
X69118815Y3271185D01*
X70388815Y4541184D01*
X70553996Y4788395D01*
X70558599Y4811536D01*
X71000000Y4811536D01*
X71141190Y4838103D01*
X71270865Y4921546D01*
X71357859Y5048866D01*
X71386146Y5188555D01*
X71521626Y5052838D01*
X72084129Y4819266D01*
X72693199Y4818735D01*
X73256109Y5051325D01*
X73687162Y5481626D01*
X73920734Y6044129D01*
X73921265Y6653199D01*
X73688675Y7216109D01*
X73258374Y7647162D01*
X72695871Y7880734D01*
X72086801Y7881265D01*
X71523891Y7648675D01*
X71386328Y7511352D01*
X71361897Y7641190D01*
X71278454Y7770865D01*
X71151134Y7857859D01*
X71000000Y7888464D01*
X68700000Y7888464D01*
X68558810Y7861897D01*
X68429135Y7778454D01*
X68342141Y7651134D01*
X68311536Y7500000D01*
X68311536Y5200000D01*
X68338103Y5058810D01*
X68421546Y4929135D01*
X68540338Y4847968D01*
X68264370Y4572000D01*
X64450631Y4572000D01*
X63851312Y5171318D01*
X64162162Y5481626D01*
X64395734Y6044129D01*
X64396265Y6653199D01*
X64163675Y7216109D01*
X63733374Y7647162D01*
X63170871Y7880734D01*
X62561801Y7881265D01*
X61998891Y7648675D01*
X61567838Y7218374D01*
X61334266Y6655871D01*
X61333735Y6046801D01*
X61566325Y5483891D01*
X61878520Y5171151D01*
X61279370Y4572000D01*
X54290631Y4572000D01*
X53691312Y5171318D01*
X53975327Y5454838D01*
X54376626Y5052838D01*
X54939129Y4819266D01*
X55548199Y4818735D01*
X56111109Y5051325D01*
X56515327Y5454838D01*
X56916626Y5052838D01*
X57479129Y4819266D01*
X58088199Y4818735D01*
X58651109Y5051325D01*
X59082162Y5481626D01*
X59315734Y6044129D01*
X59316265Y6653199D01*
X59083675Y7216109D01*
X58653374Y7647162D01*
X58090871Y7880734D01*
X57481801Y7881265D01*
X56918891Y7648675D01*
X56514673Y7245162D01*
X56113374Y7647162D01*
X55550871Y7880734D01*
X54941801Y7881265D01*
X54378891Y7648675D01*
X53974673Y7245162D01*
X53573374Y7647162D01*
X53010871Y7880734D01*
X52401801Y7881265D01*
X51838891Y7648675D01*
X51407838Y7218374D01*
X51174266Y6655871D01*
X51173735Y6046801D01*
X51406325Y5483891D01*
X51718520Y5171151D01*
X51119370Y4572000D01*
X42860631Y4572000D01*
X42261312Y5171318D01*
X42572162Y5481626D01*
X42805734Y6044129D01*
X42806265Y6653199D01*
X42573675Y7216109D01*
X42290280Y7500000D01*
X43546536Y7500000D01*
X43546536Y5200000D01*
X43573103Y5058810D01*
X43656546Y4929135D01*
X43783866Y4842141D01*
X43935000Y4811536D01*
X46235000Y4811536D01*
X46376190Y4838103D01*
X46505865Y4921546D01*
X46592859Y5048866D01*
X46621146Y5188555D01*
X46756626Y5052838D01*
X47319129Y4819266D01*
X47928199Y4818735D01*
X48491109Y5051325D01*
X48922162Y5481626D01*
X49155734Y6044129D01*
X49156265Y6653199D01*
X48923675Y7216109D01*
X48493374Y7647162D01*
X47930871Y7880734D01*
X47321801Y7881265D01*
X46758891Y7648675D01*
X46621328Y7511352D01*
X46596897Y7641190D01*
X46513454Y7770865D01*
X46386134Y7857859D01*
X46235000Y7888464D01*
X43935000Y7888464D01*
X43793810Y7861897D01*
X43664135Y7778454D01*
X43577141Y7651134D01*
X43546536Y7500000D01*
X42290280Y7500000D01*
X42143374Y7647162D01*
X41580871Y7880734D01*
X40971801Y7881265D01*
X40408891Y7648675D01*
X39977838Y7218374D01*
X39744266Y6655871D01*
X39743735Y6046801D01*
X39976325Y5483891D01*
X40288520Y5171151D01*
X39689370Y4572000D01*
X32700631Y4572000D01*
X32101312Y5171318D01*
X32385327Y5454838D01*
X32786626Y5052838D01*
X33349129Y4819266D01*
X33958199Y4818735D01*
X34521109Y5051325D01*
X34925327Y5454838D01*
X35326626Y5052838D01*
X35889129Y4819266D01*
X36498199Y4818735D01*
X37061109Y5051325D01*
X37492162Y5481626D01*
X37725734Y6044129D01*
X37726265Y6653199D01*
X37493675Y7216109D01*
X37063374Y7647162D01*
X36500871Y7880734D01*
X35891801Y7881265D01*
X35328891Y7648675D01*
X34924673Y7245162D01*
X34523374Y7647162D01*
X33960871Y7880734D01*
X33351801Y7881265D01*
X32788891Y7648675D01*
X32384673Y7245162D01*
X31983374Y7647162D01*
X31420871Y7880734D01*
X30811801Y7881265D01*
X30248891Y7648675D01*
X29817838Y7218374D01*
X29584266Y6655871D01*
X29583735Y6046801D01*
X27565736Y6046801D01*
X27566265Y6653199D01*
X27333675Y7216109D01*
X26903374Y7647162D01*
X26340871Y7880734D01*
X25731801Y7881265D01*
X25168891Y7648675D01*
X25031328Y7511352D01*
X25006897Y7641190D01*
X24923454Y7770865D01*
X24796134Y7857859D01*
X24645000Y7888464D01*
X22345000Y7888464D01*
X22203810Y7861897D01*
X22074135Y7778454D01*
X21987141Y7651134D01*
X21956536Y7500000D01*
X456000Y7500000D01*
X456000Y13122296D01*
X4348691Y13122296D01*
X4619261Y12467467D01*
X5119827Y11966027D01*
X5774183Y11694315D01*
X6482709Y11693696D01*
X7137538Y11964266D01*
X7638978Y12464832D01*
X7910690Y13119188D01*
X7910692Y13122296D01*
X17488691Y13122296D01*
X17759261Y12467467D01*
X18259827Y11966027D01*
X18914183Y11694315D01*
X19622709Y11693696D01*
X20277538Y11964266D01*
X20778978Y12464832D01*
X21050690Y13119188D01*
X21051309Y13827714D01*
X20780739Y14482543D01*
X20280173Y14983983D01*
X19625817Y15255695D01*
X18917291Y15256314D01*
X18262462Y14985744D01*
X17761022Y14485178D01*
X17489310Y13830822D01*
X17488691Y13122296D01*
X7910692Y13122296D01*
X7911309Y13827714D01*
X7640739Y14482543D01*
X7140173Y14983983D01*
X6485817Y15255695D01*
X5777291Y15256314D01*
X5122462Y14985744D01*
X4621022Y14485178D01*
X4349310Y13830822D01*
X4348691Y13122296D01*
X456000Y13122296D01*
X456000Y15968944D01*
X8108811Y15968944D01*
X8274556Y15567810D01*
X8581191Y15260639D01*
X8982035Y15094195D01*
X9416061Y15093816D01*
X9817195Y15259561D01*
X10124366Y15566196D01*
X10290810Y15967040D01*
X10290811Y15968944D01*
X10608811Y15968944D01*
X10774556Y15567810D01*
X11081191Y15260639D01*
X11482035Y15094195D01*
X11916061Y15093816D01*
X12317195Y15259561D01*
X12624366Y15566196D01*
X12699980Y15748297D01*
X12774556Y15567810D01*
X13081191Y15260639D01*
X13482035Y15094195D01*
X13916061Y15093816D01*
X14317195Y15259561D01*
X14624366Y15566196D01*
X14790810Y15967040D01*
X14791189Y16401066D01*
X14625444Y16802200D01*
X14318809Y17109371D01*
X13917965Y17275815D01*
X13483939Y17276194D01*
X13082805Y17110449D01*
X12775634Y16803814D01*
X12700020Y16621713D01*
X12625444Y16802200D01*
X12318809Y17109371D01*
X11917965Y17275815D01*
X11483939Y17276194D01*
X11082805Y17110449D01*
X10775634Y16803814D01*
X10609190Y16402970D01*
X10608811Y15968944D01*
X10290811Y15968944D01*
X10291189Y16401066D01*
X10125444Y16802200D01*
X9818809Y17109371D01*
X9417965Y17275815D01*
X8983939Y17276194D01*
X8582805Y17110449D01*
X8275634Y16803814D01*
X8109190Y16402970D01*
X8108811Y15968944D01*
X456000Y15968944D01*
X456000Y18802296D01*
X4348691Y18802296D01*
X4619261Y18147467D01*
X5119827Y17646027D01*
X5774183Y17374315D01*
X6482709Y17373696D01*
X7137538Y17644266D01*
X7638978Y18144832D01*
X7823389Y18588944D01*
X8108811Y18588944D01*
X8274556Y18187810D01*
X8581191Y17880639D01*
X8982035Y17714195D01*
X9416061Y17713816D01*
X9817195Y17879561D01*
X10124366Y18186196D01*
X10290810Y18587040D01*
X10290811Y18588944D01*
X10608811Y18588944D01*
X10774556Y18187810D01*
X11081191Y17880639D01*
X11482035Y17714195D01*
X11916061Y17713816D01*
X12317195Y17879561D01*
X12624366Y18186196D01*
X12699980Y18368297D01*
X12774556Y18187810D01*
X13081191Y17880639D01*
X13482035Y17714195D01*
X13916061Y17713816D01*
X14317195Y17879561D01*
X14624366Y18186196D01*
X14790810Y18587040D01*
X14790997Y18802296D01*
X17488691Y18802296D01*
X17759261Y18147467D01*
X18259827Y17646027D01*
X18914183Y17374315D01*
X19622709Y17373696D01*
X20277538Y17644266D01*
X20778978Y18144832D01*
X21050690Y18799188D01*
X21051309Y19507714D01*
X20780739Y20162543D01*
X20280173Y20663983D01*
X19625817Y20935695D01*
X18917291Y20936314D01*
X18262462Y20665744D01*
X17761022Y20165178D01*
X17489310Y19510822D01*
X17488691Y18802296D01*
X14790997Y18802296D01*
X14791189Y19021066D01*
X14625444Y19422200D01*
X14318809Y19729371D01*
X13917965Y19895815D01*
X13483939Y19896194D01*
X13082805Y19730449D01*
X12775634Y19423814D01*
X12700020Y19241713D01*
X12625444Y19422200D01*
X12318809Y19729371D01*
X11917965Y19895815D01*
X11483939Y19896194D01*
X11082805Y19730449D01*
X10775634Y19423814D01*
X10609190Y19022970D01*
X10608811Y18588944D01*
X10290811Y18588944D01*
X10291189Y19021066D01*
X10125444Y19422200D01*
X9818809Y19729371D01*
X9417965Y19895815D01*
X8983939Y19896194D01*
X8582805Y19730449D01*
X8275634Y19423814D01*
X8109190Y19022970D01*
X8108811Y18588944D01*
X7823389Y18588944D01*
X7910690Y18799188D01*
X7911309Y19507714D01*
X7640739Y20162543D01*
X7140173Y20663983D01*
X6485817Y20935695D01*
X5777291Y20936314D01*
X5122462Y20665744D01*
X4621022Y20165178D01*
X4349310Y19510822D01*
X4348691Y18802296D01*
X456000Y18802296D01*
X456000Y46220135D01*
X40593882Y46220135D01*
X40697339Y45969748D01*
X40767000Y45899966D01*
X40767000Y44270126D01*
X40698013Y44201259D01*
X40594118Y43951054D01*
X40593882Y43680135D01*
X40697339Y43429748D01*
X40888741Y43238013D01*
X41138946Y43134118D01*
X41409865Y43133882D01*
X41660252Y43237339D01*
X41851987Y43428741D01*
X41955882Y43678946D01*
X41956118Y43949865D01*
X41852661Y44200252D01*
X41783000Y44270034D01*
X41783000Y45899874D01*
X41851987Y45968741D01*
X41955882Y46218946D01*
X41956118Y46489865D01*
X41852661Y46740252D01*
X41661259Y46931987D01*
X41411054Y47035882D01*
X41140135Y47036118D01*
X40889748Y46932661D01*
X40698013Y46741259D01*
X40594118Y46491054D01*
X40593882Y46220135D01*
X456000Y46220135D01*
X456000Y48760135D01*
X38053882Y48760135D01*
X38157339Y48509748D01*
X38348741Y48318013D01*
X38598946Y48214118D01*
X38869865Y48213882D01*
X39120252Y48317339D01*
X39311987Y48508741D01*
X39415882Y48758946D01*
X39415968Y48857548D01*
X40042387Y49483967D01*
X40139865Y49483882D01*
X40390252Y49587339D01*
X40581987Y49778741D01*
X40685882Y50028946D01*
X40686118Y50299865D01*
X40582661Y50550252D01*
X40391259Y50741987D01*
X40141054Y50845882D01*
X39870135Y50846118D01*
X39619748Y50742661D01*
X39428013Y50551259D01*
X39324118Y50301054D01*
X39324032Y50202452D01*
X38697613Y49576033D01*
X38600135Y49576118D01*
X38349748Y49472661D01*
X38158013Y49281259D01*
X38054118Y49031054D01*
X38053882Y48760135D01*
X456000Y48760135D01*
X456000Y51935135D01*
X24083882Y51935135D01*
X24187339Y51684748D01*
X24257000Y51614966D01*
X24257000Y50944926D01*
X24188013Y50876059D01*
X24084118Y50625854D01*
X24083882Y50354935D01*
X24187339Y50104548D01*
X24378741Y49912813D01*
X24628946Y49808918D01*
X24899865Y49808682D01*
X25150252Y49912139D01*
X25341987Y50103541D01*
X25445882Y50353746D01*
X25446118Y50624665D01*
X25342661Y50875052D01*
X25273000Y50944834D01*
X25273000Y51300135D01*
X34243882Y51300135D01*
X34347339Y51049748D01*
X34538741Y50858013D01*
X34788946Y50754118D01*
X35059865Y50753882D01*
X35310252Y50857339D01*
X35380034Y50927000D01*
X37465000Y50927000D01*
X37659403Y50965669D01*
X37824210Y51075790D01*
X38137387Y51388967D01*
X38234865Y51388882D01*
X38485252Y51492339D01*
X38676987Y51683741D01*
X38780882Y51933946D01*
X38781118Y52204865D01*
X38677661Y52455252D01*
X38486259Y52646987D01*
X38236054Y52750882D01*
X37965135Y52751118D01*
X37714748Y52647661D01*
X37523013Y52456259D01*
X37419118Y52206054D01*
X37419032Y52107453D01*
X37254580Y51943000D01*
X35380126Y51943000D01*
X35311259Y52011987D01*
X35061054Y52115882D01*
X34790135Y52116118D01*
X34539748Y52012661D01*
X34348013Y51821259D01*
X34244118Y51571054D01*
X34243882Y51300135D01*
X25273000Y51300135D01*
X25273000Y51614874D01*
X25341987Y51683741D01*
X25445882Y51933946D01*
X25446118Y52204865D01*
X25342661Y52455252D01*
X25151259Y52646987D01*
X24901054Y52750882D01*
X24630135Y52751118D01*
X24379748Y52647661D01*
X24188013Y52456259D01*
X24084118Y52206054D01*
X24083882Y51935135D01*
X456000Y51935135D01*
X456000Y55110135D01*
X39983580Y55110135D01*
X40087037Y54859748D01*
X40232939Y54713592D01*
X40232939Y53795126D01*
X40163952Y53726259D01*
X40060057Y53476054D01*
X40059821Y53205135D01*
X40163278Y52954748D01*
X40354680Y52763013D01*
X40604885Y52659118D01*
X40875804Y52658882D01*
X41126191Y52762339D01*
X41317926Y52953741D01*
X41421821Y53203946D01*
X41421822Y53205135D01*
X45038882Y53205135D01*
X45142339Y52954748D01*
X45212000Y52884966D01*
X45212000Y51255126D01*
X45143013Y51186259D01*
X45039118Y50936054D01*
X45038882Y50665135D01*
X45142339Y50414748D01*
X45333741Y50223013D01*
X45583946Y50119118D01*
X45854865Y50118882D01*
X46105252Y50222339D01*
X46296987Y50413741D01*
X46400882Y50663946D01*
X46401118Y50934865D01*
X46297661Y51185252D01*
X46228000Y51255034D01*
X46228000Y52884874D01*
X46296987Y52953741D01*
X46400882Y53203946D01*
X46401118Y53474865D01*
X46297661Y53725252D01*
X46106259Y53916987D01*
X45856054Y54020882D01*
X45585135Y54021118D01*
X45334748Y53917661D01*
X45143013Y53726259D01*
X45039118Y53476054D01*
X45038882Y53205135D01*
X41421822Y53205135D01*
X41422057Y53474865D01*
X41318600Y53725252D01*
X41248939Y53795034D01*
X41248939Y54876210D01*
X41345580Y55108946D01*
X41345816Y55379865D01*
X41242359Y55630252D01*
X41050957Y55821987D01*
X40800752Y55925882D01*
X40529833Y55926118D01*
X40279446Y55822661D01*
X40087711Y55631259D01*
X39983816Y55381054D01*
X39983580Y55110135D01*
X456000Y55110135D01*
X456000Y57778254D01*
X20145763Y57778254D01*
X20249220Y57527867D01*
X20440622Y57336132D01*
X20574096Y57280708D01*
X20574096Y56841012D01*
X20505109Y56772145D01*
X20401214Y56521940D01*
X20400978Y56251021D01*
X20504435Y56000634D01*
X20695837Y55808899D01*
X20946042Y55705004D01*
X21216961Y55704768D01*
X21467348Y55808225D01*
X21659083Y55999627D01*
X21762978Y56249832D01*
X21763214Y56520751D01*
X21659757Y56771138D01*
X21590096Y56840920D01*
X21590096Y57657904D01*
X21551427Y57852307D01*
X21510794Y57913119D01*
X21507885Y57917472D01*
X21507999Y58047984D01*
X21404542Y58298371D01*
X21213140Y58490106D01*
X20962935Y58594001D01*
X20692016Y58594237D01*
X20441629Y58490780D01*
X20249894Y58299378D01*
X20145999Y58049173D01*
X20145763Y57778254D01*
X456000Y57778254D01*
X456000Y59555135D01*
X27893882Y59555135D01*
X27997339Y59304748D01*
X28188741Y59113013D01*
X28438946Y59009118D01*
X28709865Y59008882D01*
X28960252Y59112339D01*
X29151987Y59303741D01*
X29255882Y59553946D01*
X29255968Y59652548D01*
X29882387Y60278967D01*
X29979865Y60278882D01*
X30230252Y60382339D01*
X30421987Y60573741D01*
X30525882Y60823946D01*
X30526118Y61094865D01*
X30422661Y61345252D01*
X30231259Y61536987D01*
X29981054Y61640882D01*
X29710135Y61641118D01*
X29459748Y61537661D01*
X29268013Y61346259D01*
X29164118Y61096054D01*
X29164032Y60997452D01*
X28537613Y60371033D01*
X28440135Y60371118D01*
X28189748Y60267661D01*
X27998013Y60076259D01*
X27894118Y59826054D01*
X27893882Y59555135D01*
X456000Y59555135D01*
X456000Y62730135D01*
X34243882Y62730135D01*
X34347339Y62479748D01*
X34417000Y62409966D01*
X34417000Y62050126D01*
X34348013Y61981259D01*
X34244118Y61731054D01*
X34243882Y61460135D01*
X34347339Y61209748D01*
X34538741Y61018013D01*
X34788946Y60914118D01*
X35059865Y60913882D01*
X35310252Y61017339D01*
X35501987Y61208741D01*
X35605882Y61458946D01*
X35605883Y61460135D01*
X37184076Y61460135D01*
X37287533Y61209748D01*
X37478935Y61018013D01*
X37729140Y60914118D01*
X38000059Y60913882D01*
X38241682Y61013718D01*
X38481543Y60914118D01*
X38752462Y60913882D01*
X38994085Y61013718D01*
X39233946Y60914118D01*
X39504865Y60913882D01*
X39746488Y61013718D01*
X39986349Y60914118D01*
X40257268Y60913882D01*
X40498891Y61013718D01*
X40738752Y60914118D01*
X41009671Y60913882D01*
X41260058Y61017339D01*
X41343487Y61100623D01*
X41469403Y61125669D01*
X41634210Y61235790D01*
X42493555Y62095135D01*
X44403882Y62095135D01*
X44507339Y61844748D01*
X44577000Y61774966D01*
X44577000Y60145126D01*
X44508013Y60076259D01*
X44404118Y59826054D01*
X44403882Y59555135D01*
X44507339Y59304748D01*
X44698741Y59113013D01*
X44948946Y59009118D01*
X45219865Y59008882D01*
X45470252Y59112339D01*
X45661987Y59303741D01*
X45765882Y59553946D01*
X45766118Y59824865D01*
X45662661Y60075252D01*
X45593000Y60145034D01*
X45593000Y61774874D01*
X45661987Y61843741D01*
X45765882Y62093946D01*
X45766118Y62364865D01*
X45662661Y62615252D01*
X45471259Y62806987D01*
X45221054Y62910882D01*
X44950135Y62911118D01*
X44699748Y62807661D01*
X44508013Y62616259D01*
X44404118Y62366054D01*
X44403882Y62095135D01*
X42493555Y62095135D01*
X42582387Y62183967D01*
X42679865Y62183882D01*
X42930252Y62287339D01*
X43121987Y62478741D01*
X43225882Y62728946D01*
X43226118Y62999865D01*
X43122661Y63250252D01*
X42931259Y63441987D01*
X42681054Y63545882D01*
X42410135Y63546118D01*
X42159748Y63442661D01*
X41968013Y63251259D01*
X41909986Y63111515D01*
X41852661Y63250252D01*
X41661259Y63441987D01*
X41411054Y63545882D01*
X41140135Y63546118D01*
X40889748Y63442661D01*
X40698013Y63251259D01*
X40639986Y63111515D01*
X40582661Y63250252D01*
X40391259Y63441987D01*
X40141054Y63545882D01*
X40051041Y63545960D01*
X40051118Y63634865D01*
X39947661Y63885252D01*
X39756259Y64076987D01*
X39506054Y64180882D01*
X39235135Y64181118D01*
X38984748Y64077661D01*
X38914966Y64008000D01*
X38512486Y64008000D01*
X38318082Y63969331D01*
X38153276Y63859210D01*
X37505984Y63211918D01*
X37395863Y63047111D01*
X37357194Y62852708D01*
X37357194Y62050126D01*
X37288207Y61981259D01*
X37184312Y61731054D01*
X37184076Y61460135D01*
X35605883Y61460135D01*
X35606118Y61729865D01*
X35502661Y61980252D01*
X35433000Y62050034D01*
X35433000Y62409874D01*
X35501987Y62478741D01*
X35605882Y62728946D01*
X35606118Y62999865D01*
X35502661Y63250252D01*
X35311259Y63441987D01*
X35061054Y63545882D01*
X34790135Y63546118D01*
X34539748Y63442661D01*
X34348013Y63251259D01*
X34244118Y63001054D01*
X34243882Y62730135D01*
X456000Y62730135D01*
X456000Y66555000D01*
X3541536Y66555000D01*
X3541536Y64255000D01*
X3568103Y64113810D01*
X3651546Y63984135D01*
X3778866Y63897141D01*
X3930000Y63866536D01*
X6230000Y63866536D01*
X6371190Y63893103D01*
X6500865Y63976546D01*
X6587859Y64103866D01*
X6618464Y64255000D01*
X6618464Y65270135D01*
X48726682Y65270135D01*
X48830139Y65019748D01*
X49021541Y64828013D01*
X49161285Y64769986D01*
X49022548Y64712661D01*
X48830813Y64521259D01*
X48726918Y64271054D01*
X48726682Y64000135D01*
X48830139Y63749748D01*
X49021541Y63558013D01*
X49161285Y63499986D01*
X49022548Y63442661D01*
X48830813Y63251259D01*
X48726918Y63001054D01*
X48726682Y62730135D01*
X48830139Y62479748D01*
X49021541Y62288013D01*
X49271746Y62184118D01*
X49542665Y62183882D01*
X49793052Y62287339D01*
X49862834Y62357000D01*
X50467074Y62357000D01*
X50535941Y62288013D01*
X50786146Y62184118D01*
X51057065Y62183882D01*
X51307452Y62287339D01*
X51499187Y62478741D01*
X51603082Y62728946D01*
X51603318Y62999865D01*
X51499861Y63250252D01*
X51308459Y63441987D01*
X51168715Y63500014D01*
X51307452Y63557339D01*
X51499187Y63748741D01*
X51603082Y63998946D01*
X51603318Y64269865D01*
X51499861Y64520252D01*
X51308459Y64711987D01*
X51168715Y64770014D01*
X51307452Y64827339D01*
X51499187Y65018741D01*
X51603082Y65268946D01*
X51603318Y65539865D01*
X51499861Y65790252D01*
X51308459Y65981987D01*
X51058254Y66085882D01*
X50787335Y66086118D01*
X50536948Y65982661D01*
X50467166Y65913000D01*
X49862926Y65913000D01*
X49794059Y65981987D01*
X49543854Y66085882D01*
X49272935Y66086118D01*
X49022548Y65982661D01*
X48830813Y65791259D01*
X48726918Y65541054D01*
X48726682Y65270135D01*
X6618464Y65270135D01*
X6618464Y66555000D01*
X6591897Y66696190D01*
X6508454Y66825865D01*
X6381134Y66912859D01*
X6230000Y66943464D01*
X3930000Y66943464D01*
X3788810Y66916897D01*
X3659135Y66833454D01*
X3572141Y66706134D01*
X3541536Y66555000D01*
X456000Y66555000D01*
X456000Y68160000D01*
X32416536Y68160000D01*
X32416536Y66460000D01*
X32443103Y66318810D01*
X32526546Y66189135D01*
X32653866Y66102141D01*
X32805000Y66071536D01*
X34505000Y66071536D01*
X34646190Y66098103D01*
X34775865Y66181546D01*
X34862859Y66308866D01*
X34893464Y66460000D01*
X34893464Y67334117D01*
X34964000Y67334117D01*
X34964000Y67285883D01*
X35057704Y66814800D01*
X35324552Y66415435D01*
X35723917Y66148587D01*
X36195000Y66054883D01*
X36666083Y66148587D01*
X37065448Y66415435D01*
X37332296Y66814800D01*
X37426000Y67285883D01*
X37426000Y67334117D01*
X40044000Y67334117D01*
X40044000Y67285883D01*
X40137704Y66814800D01*
X40404552Y66415435D01*
X40803917Y66148587D01*
X41275000Y66054883D01*
X41746083Y66148587D01*
X42145448Y66415435D01*
X42412296Y66814800D01*
X42506000Y67285883D01*
X42506000Y67334117D01*
X42584000Y67334117D01*
X42584000Y67285883D01*
X42677704Y66814800D01*
X42944552Y66415435D01*
X43343917Y66148587D01*
X43815000Y66054883D01*
X44286083Y66148587D01*
X44685448Y66415435D01*
X44952296Y66814800D01*
X45046000Y67285883D01*
X45046000Y67334117D01*
X45124000Y67334117D01*
X45124000Y67285883D01*
X45217704Y66814800D01*
X45484552Y66415435D01*
X45883917Y66148587D01*
X46355000Y66054883D01*
X46826083Y66148587D01*
X47225448Y66415435D01*
X47492296Y66814800D01*
X47586000Y67285883D01*
X47586000Y67334117D01*
X47492296Y67805200D01*
X47225448Y68204565D01*
X46826083Y68471413D01*
X46355000Y68565117D01*
X45883917Y68471413D01*
X45484552Y68204565D01*
X45217704Y67805200D01*
X45124000Y67334117D01*
X45046000Y67334117D01*
X44952296Y67805200D01*
X44685448Y68204565D01*
X44286083Y68471413D01*
X43815000Y68565117D01*
X43343917Y68471413D01*
X42944552Y68204565D01*
X42677704Y67805200D01*
X42584000Y67334117D01*
X42506000Y67334117D01*
X42412296Y67805200D01*
X42145448Y68204565D01*
X41746083Y68471413D01*
X41275000Y68565117D01*
X40803917Y68471413D01*
X40404552Y68204565D01*
X40137704Y67805200D01*
X40044000Y67334117D01*
X37426000Y67334117D01*
X37332296Y67805200D01*
X37065448Y68204565D01*
X36666083Y68471413D01*
X36195000Y68565117D01*
X35723917Y68471413D01*
X35324552Y68204565D01*
X35057704Y67805200D01*
X34964000Y67334117D01*
X34893464Y67334117D01*
X34893464Y68160000D01*
X34866897Y68301190D01*
X34783454Y68430865D01*
X34656134Y68517859D01*
X34505000Y68548464D01*
X32805000Y68548464D01*
X32663810Y68521897D01*
X32534135Y68438454D01*
X32447141Y68311134D01*
X32416536Y68160000D01*
X456000Y68160000D01*
X456000Y71544000D01*
X79544000Y71544000D01*
X79544000Y456000D01*
X79544000Y456000D01*
G37*
X79544000Y456000D02*
X456000Y456000D01*
X456000Y7500000D01*
X21956536Y7500000D01*
X21956536Y5200000D01*
X21983103Y5058810D01*
X22066546Y4929135D01*
X22193866Y4842141D01*
X22345000Y4811536D01*
X24645000Y4811536D01*
X24786190Y4838103D01*
X24915865Y4921546D01*
X25002859Y5048866D01*
X25031146Y5188555D01*
X25166626Y5052838D01*
X25729129Y4819266D01*
X26338199Y4818735D01*
X26901109Y5051325D01*
X27332162Y5481626D01*
X27565734Y6044129D01*
X27565736Y6046801D01*
X29583735Y6046801D01*
X29816325Y5483891D01*
X30246626Y5052838D01*
X30368466Y5002245D01*
X30411004Y4788395D01*
X30555595Y4572000D01*
X30576185Y4541185D01*
X31846184Y3271185D01*
X32093395Y3106004D01*
X32385000Y3048000D01*
X40005000Y3048000D01*
X40296605Y3106004D01*
X40543815Y3271185D01*
X41275000Y4002369D01*
X42006184Y3271185D01*
X42253395Y3106004D01*
X42545000Y3048000D01*
X51435000Y3048000D01*
X51726605Y3106004D01*
X51973815Y3271185D01*
X52705000Y4002369D01*
X53436184Y3271185D01*
X53683395Y3106004D01*
X53975000Y3048000D01*
X61595000Y3048000D01*
X61886605Y3106004D01*
X62133815Y3271185D01*
X62865000Y4002369D01*
X63596184Y3271185D01*
X63843395Y3106004D01*
X64135000Y3048000D01*
X68580000Y3048000D01*
X68871605Y3106004D01*
X69118815Y3271185D01*
X70388815Y4541184D01*
X70553996Y4788395D01*
X70558599Y4811536D01*
X71000000Y4811536D01*
X71141190Y4838103D01*
X71270865Y4921546D01*
X71357859Y5048866D01*
X71386146Y5188555D01*
X71521626Y5052838D01*
X72084129Y4819266D01*
X72693199Y4818735D01*
X73256109Y5051325D01*
X73687162Y5481626D01*
X73920734Y6044129D01*
X73921265Y6653199D01*
X73688675Y7216109D01*
X73258374Y7647162D01*
X72695871Y7880734D01*
X72086801Y7881265D01*
X71523891Y7648675D01*
X71386328Y7511352D01*
X71361897Y7641190D01*
X71278454Y7770865D01*
X71151134Y7857859D01*
X71000000Y7888464D01*
X68700000Y7888464D01*
X68558810Y7861897D01*
X68429135Y7778454D01*
X68342141Y7651134D01*
X68311536Y7500000D01*
X68311536Y5200000D01*
X68338103Y5058810D01*
X68421546Y4929135D01*
X68540338Y4847968D01*
X68264370Y4572000D01*
X64450631Y4572000D01*
X63851312Y5171318D01*
X64162162Y5481626D01*
X64395734Y6044129D01*
X64396265Y6653199D01*
X64163675Y7216109D01*
X63733374Y7647162D01*
X63170871Y7880734D01*
X62561801Y7881265D01*
X61998891Y7648675D01*
X61567838Y7218374D01*
X61334266Y6655871D01*
X61333735Y6046801D01*
X61566325Y5483891D01*
X61878520Y5171151D01*
X61279370Y4572000D01*
X54290631Y4572000D01*
X53691312Y5171318D01*
X53975327Y5454838D01*
X54376626Y5052838D01*
X54939129Y4819266D01*
X55548199Y4818735D01*
X56111109Y5051325D01*
X56515327Y5454838D01*
X56916626Y5052838D01*
X57479129Y4819266D01*
X58088199Y4818735D01*
X58651109Y5051325D01*
X59082162Y5481626D01*
X59315734Y6044129D01*
X59316265Y6653199D01*
X59083675Y7216109D01*
X58653374Y7647162D01*
X58090871Y7880734D01*
X57481801Y7881265D01*
X56918891Y7648675D01*
X56514673Y7245162D01*
X56113374Y7647162D01*
X55550871Y7880734D01*
X54941801Y7881265D01*
X54378891Y7648675D01*
X53974673Y7245162D01*
X53573374Y7647162D01*
X53010871Y7880734D01*
X52401801Y7881265D01*
X51838891Y7648675D01*
X51407838Y7218374D01*
X51174266Y6655871D01*
X51173735Y6046801D01*
X51406325Y5483891D01*
X51718520Y5171151D01*
X51119370Y4572000D01*
X42860631Y4572000D01*
X42261312Y5171318D01*
X42572162Y5481626D01*
X42805734Y6044129D01*
X42806265Y6653199D01*
X42573675Y7216109D01*
X42290280Y7500000D01*
X43546536Y7500000D01*
X43546536Y5200000D01*
X43573103Y5058810D01*
X43656546Y4929135D01*
X43783866Y4842141D01*
X43935000Y4811536D01*
X46235000Y4811536D01*
X46376190Y4838103D01*
X46505865Y4921546D01*
X46592859Y5048866D01*
X46621146Y5188555D01*
X46756626Y5052838D01*
X47319129Y4819266D01*
X47928199Y4818735D01*
X48491109Y5051325D01*
X48922162Y5481626D01*
X49155734Y6044129D01*
X49156265Y6653199D01*
X48923675Y7216109D01*
X48493374Y7647162D01*
X47930871Y7880734D01*
X47321801Y7881265D01*
X46758891Y7648675D01*
X46621328Y7511352D01*
X46596897Y7641190D01*
X46513454Y7770865D01*
X46386134Y7857859D01*
X46235000Y7888464D01*
X43935000Y7888464D01*
X43793810Y7861897D01*
X43664135Y7778454D01*
X43577141Y7651134D01*
X43546536Y7500000D01*
X42290280Y7500000D01*
X42143374Y7647162D01*
X41580871Y7880734D01*
X40971801Y7881265D01*
X40408891Y7648675D01*
X39977838Y7218374D01*
X39744266Y6655871D01*
X39743735Y6046801D01*
X39976325Y5483891D01*
X40288520Y5171151D01*
X39689370Y4572000D01*
X32700631Y4572000D01*
X32101312Y5171318D01*
X32385327Y5454838D01*
X32786626Y5052838D01*
X33349129Y4819266D01*
X33958199Y4818735D01*
X34521109Y5051325D01*
X34925327Y5454838D01*
X35326626Y5052838D01*
X35889129Y4819266D01*
X36498199Y4818735D01*
X37061109Y5051325D01*
X37492162Y5481626D01*
X37725734Y6044129D01*
X37726265Y6653199D01*
X37493675Y7216109D01*
X37063374Y7647162D01*
X36500871Y7880734D01*
X35891801Y7881265D01*
X35328891Y7648675D01*
X34924673Y7245162D01*
X34523374Y7647162D01*
X33960871Y7880734D01*
X33351801Y7881265D01*
X32788891Y7648675D01*
X32384673Y7245162D01*
X31983374Y7647162D01*
X31420871Y7880734D01*
X30811801Y7881265D01*
X30248891Y7648675D01*
X29817838Y7218374D01*
X29584266Y6655871D01*
X29583735Y6046801D01*
X27565736Y6046801D01*
X27566265Y6653199D01*
X27333675Y7216109D01*
X26903374Y7647162D01*
X26340871Y7880734D01*
X25731801Y7881265D01*
X25168891Y7648675D01*
X25031328Y7511352D01*
X25006897Y7641190D01*
X24923454Y7770865D01*
X24796134Y7857859D01*
X24645000Y7888464D01*
X22345000Y7888464D01*
X22203810Y7861897D01*
X22074135Y7778454D01*
X21987141Y7651134D01*
X21956536Y7500000D01*
X456000Y7500000D01*
X456000Y13122296D01*
X4348691Y13122296D01*
X4619261Y12467467D01*
X5119827Y11966027D01*
X5774183Y11694315D01*
X6482709Y11693696D01*
X7137538Y11964266D01*
X7638978Y12464832D01*
X7910690Y13119188D01*
X7910692Y13122296D01*
X17488691Y13122296D01*
X17759261Y12467467D01*
X18259827Y11966027D01*
X18914183Y11694315D01*
X19622709Y11693696D01*
X20277538Y11964266D01*
X20778978Y12464832D01*
X21050690Y13119188D01*
X21051309Y13827714D01*
X20780739Y14482543D01*
X20280173Y14983983D01*
X19625817Y15255695D01*
X18917291Y15256314D01*
X18262462Y14985744D01*
X17761022Y14485178D01*
X17489310Y13830822D01*
X17488691Y13122296D01*
X7910692Y13122296D01*
X7911309Y13827714D01*
X7640739Y14482543D01*
X7140173Y14983983D01*
X6485817Y15255695D01*
X5777291Y15256314D01*
X5122462Y14985744D01*
X4621022Y14485178D01*
X4349310Y13830822D01*
X4348691Y13122296D01*
X456000Y13122296D01*
X456000Y15968944D01*
X8108811Y15968944D01*
X8274556Y15567810D01*
X8581191Y15260639D01*
X8982035Y15094195D01*
X9416061Y15093816D01*
X9817195Y15259561D01*
X10124366Y15566196D01*
X10290810Y15967040D01*
X10290811Y15968944D01*
X10608811Y15968944D01*
X10774556Y15567810D01*
X11081191Y15260639D01*
X11482035Y15094195D01*
X11916061Y15093816D01*
X12317195Y15259561D01*
X12624366Y15566196D01*
X12699980Y15748297D01*
X12774556Y15567810D01*
X13081191Y15260639D01*
X13482035Y15094195D01*
X13916061Y15093816D01*
X14317195Y15259561D01*
X14624366Y15566196D01*
X14790810Y15967040D01*
X14791189Y16401066D01*
X14625444Y16802200D01*
X14318809Y17109371D01*
X13917965Y17275815D01*
X13483939Y17276194D01*
X13082805Y17110449D01*
X12775634Y16803814D01*
X12700020Y16621713D01*
X12625444Y16802200D01*
X12318809Y17109371D01*
X11917965Y17275815D01*
X11483939Y17276194D01*
X11082805Y17110449D01*
X10775634Y16803814D01*
X10609190Y16402970D01*
X10608811Y15968944D01*
X10290811Y15968944D01*
X10291189Y16401066D01*
X10125444Y16802200D01*
X9818809Y17109371D01*
X9417965Y17275815D01*
X8983939Y17276194D01*
X8582805Y17110449D01*
X8275634Y16803814D01*
X8109190Y16402970D01*
X8108811Y15968944D01*
X456000Y15968944D01*
X456000Y18802296D01*
X4348691Y18802296D01*
X4619261Y18147467D01*
X5119827Y17646027D01*
X5774183Y17374315D01*
X6482709Y17373696D01*
X7137538Y17644266D01*
X7638978Y18144832D01*
X7823389Y18588944D01*
X8108811Y18588944D01*
X8274556Y18187810D01*
X8581191Y17880639D01*
X8982035Y17714195D01*
X9416061Y17713816D01*
X9817195Y17879561D01*
X10124366Y18186196D01*
X10290810Y18587040D01*
X10290811Y18588944D01*
X10608811Y18588944D01*
X10774556Y18187810D01*
X11081191Y17880639D01*
X11482035Y17714195D01*
X11916061Y17713816D01*
X12317195Y17879561D01*
X12624366Y18186196D01*
X12699980Y18368297D01*
X12774556Y18187810D01*
X13081191Y17880639D01*
X13482035Y17714195D01*
X13916061Y17713816D01*
X14317195Y17879561D01*
X14624366Y18186196D01*
X14790810Y18587040D01*
X14790997Y18802296D01*
X17488691Y18802296D01*
X17759261Y18147467D01*
X18259827Y17646027D01*
X18914183Y17374315D01*
X19622709Y17373696D01*
X20277538Y17644266D01*
X20778978Y18144832D01*
X21050690Y18799188D01*
X21051309Y19507714D01*
X20780739Y20162543D01*
X20280173Y20663983D01*
X19625817Y20935695D01*
X18917291Y20936314D01*
X18262462Y20665744D01*
X17761022Y20165178D01*
X17489310Y19510822D01*
X17488691Y18802296D01*
X14790997Y18802296D01*
X14791189Y19021066D01*
X14625444Y19422200D01*
X14318809Y19729371D01*
X13917965Y19895815D01*
X13483939Y19896194D01*
X13082805Y19730449D01*
X12775634Y19423814D01*
X12700020Y19241713D01*
X12625444Y19422200D01*
X12318809Y19729371D01*
X11917965Y19895815D01*
X11483939Y19896194D01*
X11082805Y19730449D01*
X10775634Y19423814D01*
X10609190Y19022970D01*
X10608811Y18588944D01*
X10290811Y18588944D01*
X10291189Y19021066D01*
X10125444Y19422200D01*
X9818809Y19729371D01*
X9417965Y19895815D01*
X8983939Y19896194D01*
X8582805Y19730449D01*
X8275634Y19423814D01*
X8109190Y19022970D01*
X8108811Y18588944D01*
X7823389Y18588944D01*
X7910690Y18799188D01*
X7911309Y19507714D01*
X7640739Y20162543D01*
X7140173Y20663983D01*
X6485817Y20935695D01*
X5777291Y20936314D01*
X5122462Y20665744D01*
X4621022Y20165178D01*
X4349310Y19510822D01*
X4348691Y18802296D01*
X456000Y18802296D01*
X456000Y46220135D01*
X40593882Y46220135D01*
X40697339Y45969748D01*
X40767000Y45899966D01*
X40767000Y44270126D01*
X40698013Y44201259D01*
X40594118Y43951054D01*
X40593882Y43680135D01*
X40697339Y43429748D01*
X40888741Y43238013D01*
X41138946Y43134118D01*
X41409865Y43133882D01*
X41660252Y43237339D01*
X41851987Y43428741D01*
X41955882Y43678946D01*
X41956118Y43949865D01*
X41852661Y44200252D01*
X41783000Y44270034D01*
X41783000Y45899874D01*
X41851987Y45968741D01*
X41955882Y46218946D01*
X41956118Y46489865D01*
X41852661Y46740252D01*
X41661259Y46931987D01*
X41411054Y47035882D01*
X41140135Y47036118D01*
X40889748Y46932661D01*
X40698013Y46741259D01*
X40594118Y46491054D01*
X40593882Y46220135D01*
X456000Y46220135D01*
X456000Y48760135D01*
X38053882Y48760135D01*
X38157339Y48509748D01*
X38348741Y48318013D01*
X38598946Y48214118D01*
X38869865Y48213882D01*
X39120252Y48317339D01*
X39311987Y48508741D01*
X39415882Y48758946D01*
X39415968Y48857548D01*
X40042387Y49483967D01*
X40139865Y49483882D01*
X40390252Y49587339D01*
X40581987Y49778741D01*
X40685882Y50028946D01*
X40686118Y50299865D01*
X40582661Y50550252D01*
X40391259Y50741987D01*
X40141054Y50845882D01*
X39870135Y50846118D01*
X39619748Y50742661D01*
X39428013Y50551259D01*
X39324118Y50301054D01*
X39324032Y50202452D01*
X38697613Y49576033D01*
X38600135Y49576118D01*
X38349748Y49472661D01*
X38158013Y49281259D01*
X38054118Y49031054D01*
X38053882Y48760135D01*
X456000Y48760135D01*
X456000Y51935135D01*
X24083882Y51935135D01*
X24187339Y51684748D01*
X24257000Y51614966D01*
X24257000Y50944926D01*
X24188013Y50876059D01*
X24084118Y50625854D01*
X24083882Y50354935D01*
X24187339Y50104548D01*
X24378741Y49912813D01*
X24628946Y49808918D01*
X24899865Y49808682D01*
X25150252Y49912139D01*
X25341987Y50103541D01*
X25445882Y50353746D01*
X25446118Y50624665D01*
X25342661Y50875052D01*
X25273000Y50944834D01*
X25273000Y51300135D01*
X34243882Y51300135D01*
X34347339Y51049748D01*
X34538741Y50858013D01*
X34788946Y50754118D01*
X35059865Y50753882D01*
X35310252Y50857339D01*
X35380034Y50927000D01*
X37465000Y50927000D01*
X37659403Y50965669D01*
X37824210Y51075790D01*
X38137387Y51388967D01*
X38234865Y51388882D01*
X38485252Y51492339D01*
X38676987Y51683741D01*
X38780882Y51933946D01*
X38781118Y52204865D01*
X38677661Y52455252D01*
X38486259Y52646987D01*
X38236054Y52750882D01*
X37965135Y52751118D01*
X37714748Y52647661D01*
X37523013Y52456259D01*
X37419118Y52206054D01*
X37419032Y52107453D01*
X37254580Y51943000D01*
X35380126Y51943000D01*
X35311259Y52011987D01*
X35061054Y52115882D01*
X34790135Y52116118D01*
X34539748Y52012661D01*
X34348013Y51821259D01*
X34244118Y51571054D01*
X34243882Y51300135D01*
X25273000Y51300135D01*
X25273000Y51614874D01*
X25341987Y51683741D01*
X25445882Y51933946D01*
X25446118Y52204865D01*
X25342661Y52455252D01*
X25151259Y52646987D01*
X24901054Y52750882D01*
X24630135Y52751118D01*
X24379748Y52647661D01*
X24188013Y52456259D01*
X24084118Y52206054D01*
X24083882Y51935135D01*
X456000Y51935135D01*
X456000Y55110135D01*
X39983580Y55110135D01*
X40087037Y54859748D01*
X40232939Y54713592D01*
X40232939Y53795126D01*
X40163952Y53726259D01*
X40060057Y53476054D01*
X40059821Y53205135D01*
X40163278Y52954748D01*
X40354680Y52763013D01*
X40604885Y52659118D01*
X40875804Y52658882D01*
X41126191Y52762339D01*
X41317926Y52953741D01*
X41421821Y53203946D01*
X41421822Y53205135D01*
X45038882Y53205135D01*
X45142339Y52954748D01*
X45212000Y52884966D01*
X45212000Y51255126D01*
X45143013Y51186259D01*
X45039118Y50936054D01*
X45038882Y50665135D01*
X45142339Y50414748D01*
X45333741Y50223013D01*
X45583946Y50119118D01*
X45854865Y50118882D01*
X46105252Y50222339D01*
X46296987Y50413741D01*
X46400882Y50663946D01*
X46401118Y50934865D01*
X46297661Y51185252D01*
X46228000Y51255034D01*
X46228000Y52884874D01*
X46296987Y52953741D01*
X46400882Y53203946D01*
X46401118Y53474865D01*
X46297661Y53725252D01*
X46106259Y53916987D01*
X45856054Y54020882D01*
X45585135Y54021118D01*
X45334748Y53917661D01*
X45143013Y53726259D01*
X45039118Y53476054D01*
X45038882Y53205135D01*
X41421822Y53205135D01*
X41422057Y53474865D01*
X41318600Y53725252D01*
X41248939Y53795034D01*
X41248939Y54876210D01*
X41345580Y55108946D01*
X41345816Y55379865D01*
X41242359Y55630252D01*
X41050957Y55821987D01*
X40800752Y55925882D01*
X40529833Y55926118D01*
X40279446Y55822661D01*
X40087711Y55631259D01*
X39983816Y55381054D01*
X39983580Y55110135D01*
X456000Y55110135D01*
X456000Y57778254D01*
X20145763Y57778254D01*
X20249220Y57527867D01*
X20440622Y57336132D01*
X20574096Y57280708D01*
X20574096Y56841012D01*
X20505109Y56772145D01*
X20401214Y56521940D01*
X20400978Y56251021D01*
X20504435Y56000634D01*
X20695837Y55808899D01*
X20946042Y55705004D01*
X21216961Y55704768D01*
X21467348Y55808225D01*
X21659083Y55999627D01*
X21762978Y56249832D01*
X21763214Y56520751D01*
X21659757Y56771138D01*
X21590096Y56840920D01*
X21590096Y57657904D01*
X21551427Y57852307D01*
X21510794Y57913119D01*
X21507885Y57917472D01*
X21507999Y58047984D01*
X21404542Y58298371D01*
X21213140Y58490106D01*
X20962935Y58594001D01*
X20692016Y58594237D01*
X20441629Y58490780D01*
X20249894Y58299378D01*
X20145999Y58049173D01*
X20145763Y57778254D01*
X456000Y57778254D01*
X456000Y59555135D01*
X27893882Y59555135D01*
X27997339Y59304748D01*
X28188741Y59113013D01*
X28438946Y59009118D01*
X28709865Y59008882D01*
X28960252Y59112339D01*
X29151987Y59303741D01*
X29255882Y59553946D01*
X29255968Y59652548D01*
X29882387Y60278967D01*
X29979865Y60278882D01*
X30230252Y60382339D01*
X30421987Y60573741D01*
X30525882Y60823946D01*
X30526118Y61094865D01*
X30422661Y61345252D01*
X30231259Y61536987D01*
X29981054Y61640882D01*
X29710135Y61641118D01*
X29459748Y61537661D01*
X29268013Y61346259D01*
X29164118Y61096054D01*
X29164032Y60997452D01*
X28537613Y60371033D01*
X28440135Y60371118D01*
X28189748Y60267661D01*
X27998013Y60076259D01*
X27894118Y59826054D01*
X27893882Y59555135D01*
X456000Y59555135D01*
X456000Y62730135D01*
X34243882Y62730135D01*
X34347339Y62479748D01*
X34417000Y62409966D01*
X34417000Y62050126D01*
X34348013Y61981259D01*
X34244118Y61731054D01*
X34243882Y61460135D01*
X34347339Y61209748D01*
X34538741Y61018013D01*
X34788946Y60914118D01*
X35059865Y60913882D01*
X35310252Y61017339D01*
X35501987Y61208741D01*
X35605882Y61458946D01*
X35605883Y61460135D01*
X37184076Y61460135D01*
X37287533Y61209748D01*
X37478935Y61018013D01*
X37729140Y60914118D01*
X38000059Y60913882D01*
X38241682Y61013718D01*
X38481543Y60914118D01*
X38752462Y60913882D01*
X38994085Y61013718D01*
X39233946Y60914118D01*
X39504865Y60913882D01*
X39746488Y61013718D01*
X39986349Y60914118D01*
X40257268Y60913882D01*
X40498891Y61013718D01*
X40738752Y60914118D01*
X41009671Y60913882D01*
X41260058Y61017339D01*
X41343487Y61100623D01*
X41469403Y61125669D01*
X41634210Y61235790D01*
X42493555Y62095135D01*
X44403882Y62095135D01*
X44507339Y61844748D01*
X44577000Y61774966D01*
X44577000Y60145126D01*
X44508013Y60076259D01*
X44404118Y59826054D01*
X44403882Y59555135D01*
X44507339Y59304748D01*
X44698741Y59113013D01*
X44948946Y59009118D01*
X45219865Y59008882D01*
X45470252Y59112339D01*
X45661987Y59303741D01*
X45765882Y59553946D01*
X45766118Y59824865D01*
X45662661Y60075252D01*
X45593000Y60145034D01*
X45593000Y61774874D01*
X45661987Y61843741D01*
X45765882Y62093946D01*
X45766118Y62364865D01*
X45662661Y62615252D01*
X45471259Y62806987D01*
X45221054Y62910882D01*
X44950135Y62911118D01*
X44699748Y62807661D01*
X44508013Y62616259D01*
X44404118Y62366054D01*
X44403882Y62095135D01*
X42493555Y62095135D01*
X42582387Y62183967D01*
X42679865Y62183882D01*
X42930252Y62287339D01*
X43121987Y62478741D01*
X43225882Y62728946D01*
X43226118Y62999865D01*
X43122661Y63250252D01*
X42931259Y63441987D01*
X42681054Y63545882D01*
X42410135Y63546118D01*
X42159748Y63442661D01*
X41968013Y63251259D01*
X41909986Y63111515D01*
X41852661Y63250252D01*
X41661259Y63441987D01*
X41411054Y63545882D01*
X41140135Y63546118D01*
X40889748Y63442661D01*
X40698013Y63251259D01*
X40639986Y63111515D01*
X40582661Y63250252D01*
X40391259Y63441987D01*
X40141054Y63545882D01*
X40051041Y63545960D01*
X40051118Y63634865D01*
X39947661Y63885252D01*
X39756259Y64076987D01*
X39506054Y64180882D01*
X39235135Y64181118D01*
X38984748Y64077661D01*
X38914966Y64008000D01*
X38512486Y64008000D01*
X38318082Y63969331D01*
X38153276Y63859210D01*
X37505984Y63211918D01*
X37395863Y63047111D01*
X37357194Y62852708D01*
X37357194Y62050126D01*
X37288207Y61981259D01*
X37184312Y61731054D01*
X37184076Y61460135D01*
X35605883Y61460135D01*
X35606118Y61729865D01*
X35502661Y61980252D01*
X35433000Y62050034D01*
X35433000Y62409874D01*
X35501987Y62478741D01*
X35605882Y62728946D01*
X35606118Y62999865D01*
X35502661Y63250252D01*
X35311259Y63441987D01*
X35061054Y63545882D01*
X34790135Y63546118D01*
X34539748Y63442661D01*
X34348013Y63251259D01*
X34244118Y63001054D01*
X34243882Y62730135D01*
X456000Y62730135D01*
X456000Y66555000D01*
X3541536Y66555000D01*
X3541536Y64255000D01*
X3568103Y64113810D01*
X3651546Y63984135D01*
X3778866Y63897141D01*
X3930000Y63866536D01*
X6230000Y63866536D01*
X6371190Y63893103D01*
X6500865Y63976546D01*
X6587859Y64103866D01*
X6618464Y64255000D01*
X6618464Y65270135D01*
X48726682Y65270135D01*
X48830139Y65019748D01*
X49021541Y64828013D01*
X49161285Y64769986D01*
X49022548Y64712661D01*
X48830813Y64521259D01*
X48726918Y64271054D01*
X48726682Y64000135D01*
X48830139Y63749748D01*
X49021541Y63558013D01*
X49161285Y63499986D01*
X49022548Y63442661D01*
X48830813Y63251259D01*
X48726918Y63001054D01*
X48726682Y62730135D01*
X48830139Y62479748D01*
X49021541Y62288013D01*
X49271746Y62184118D01*
X49542665Y62183882D01*
X49793052Y62287339D01*
X49862834Y62357000D01*
X50467074Y62357000D01*
X50535941Y62288013D01*
X50786146Y62184118D01*
X51057065Y62183882D01*
X51307452Y62287339D01*
X51499187Y62478741D01*
X51603082Y62728946D01*
X51603318Y62999865D01*
X51499861Y63250252D01*
X51308459Y63441987D01*
X51168715Y63500014D01*
X51307452Y63557339D01*
X51499187Y63748741D01*
X51603082Y63998946D01*
X51603318Y64269865D01*
X51499861Y64520252D01*
X51308459Y64711987D01*
X51168715Y64770014D01*
X51307452Y64827339D01*
X51499187Y65018741D01*
X51603082Y65268946D01*
X51603318Y65539865D01*
X51499861Y65790252D01*
X51308459Y65981987D01*
X51058254Y66085882D01*
X50787335Y66086118D01*
X50536948Y65982661D01*
X50467166Y65913000D01*
X49862926Y65913000D01*
X49794059Y65981987D01*
X49543854Y66085882D01*
X49272935Y66086118D01*
X49022548Y65982661D01*
X48830813Y65791259D01*
X48726918Y65541054D01*
X48726682Y65270135D01*
X6618464Y65270135D01*
X6618464Y66555000D01*
X6591897Y66696190D01*
X6508454Y66825865D01*
X6381134Y66912859D01*
X6230000Y66943464D01*
X3930000Y66943464D01*
X3788810Y66916897D01*
X3659135Y66833454D01*
X3572141Y66706134D01*
X3541536Y66555000D01*
X456000Y66555000D01*
X456000Y68160000D01*
X32416536Y68160000D01*
X32416536Y66460000D01*
X32443103Y66318810D01*
X32526546Y66189135D01*
X32653866Y66102141D01*
X32805000Y66071536D01*
X34505000Y66071536D01*
X34646190Y66098103D01*
X34775865Y66181546D01*
X34862859Y66308866D01*
X34893464Y66460000D01*
X34893464Y67334117D01*
X34964000Y67334117D01*
X34964000Y67285883D01*
X35057704Y66814800D01*
X35324552Y66415435D01*
X35723917Y66148587D01*
X36195000Y66054883D01*
X36666083Y66148587D01*
X37065448Y66415435D01*
X37332296Y66814800D01*
X37426000Y67285883D01*
X37426000Y67334117D01*
X40044000Y67334117D01*
X40044000Y67285883D01*
X40137704Y66814800D01*
X40404552Y66415435D01*
X40803917Y66148587D01*
X41275000Y66054883D01*
X41746083Y66148587D01*
X42145448Y66415435D01*
X42412296Y66814800D01*
X42506000Y67285883D01*
X42506000Y67334117D01*
X42584000Y67334117D01*
X42584000Y67285883D01*
X42677704Y66814800D01*
X42944552Y66415435D01*
X43343917Y66148587D01*
X43815000Y66054883D01*
X44286083Y66148587D01*
X44685448Y66415435D01*
X44952296Y66814800D01*
X45046000Y67285883D01*
X45046000Y67334117D01*
X45124000Y67334117D01*
X45124000Y67285883D01*
X45217704Y66814800D01*
X45484552Y66415435D01*
X45883917Y66148587D01*
X46355000Y66054883D01*
X46826083Y66148587D01*
X47225448Y66415435D01*
X47492296Y66814800D01*
X47586000Y67285883D01*
X47586000Y67334117D01*
X47492296Y67805200D01*
X47225448Y68204565D01*
X46826083Y68471413D01*
X46355000Y68565117D01*
X45883917Y68471413D01*
X45484552Y68204565D01*
X45217704Y67805200D01*
X45124000Y67334117D01*
X45046000Y67334117D01*
X44952296Y67805200D01*
X44685448Y68204565D01*
X44286083Y68471413D01*
X43815000Y68565117D01*
X43343917Y68471413D01*
X42944552Y68204565D01*
X42677704Y67805200D01*
X42584000Y67334117D01*
X42506000Y67334117D01*
X42412296Y67805200D01*
X42145448Y68204565D01*
X41746083Y68471413D01*
X41275000Y68565117D01*
X40803917Y68471413D01*
X40404552Y68204565D01*
X40137704Y67805200D01*
X40044000Y67334117D01*
X37426000Y67334117D01*
X37332296Y67805200D01*
X37065448Y68204565D01*
X36666083Y68471413D01*
X36195000Y68565117D01*
X35723917Y68471413D01*
X35324552Y68204565D01*
X35057704Y67805200D01*
X34964000Y67334117D01*
X34893464Y67334117D01*
X34893464Y68160000D01*
X34866897Y68301190D01*
X34783454Y68430865D01*
X34656134Y68517859D01*
X34505000Y68548464D01*
X32805000Y68548464D01*
X32663810Y68521897D01*
X32534135Y68438454D01*
X32447141Y68311134D01*
X32416536Y68160000D01*
X456000Y68160000D01*
X456000Y71544000D01*
X79544000Y71544000D01*
X79544000Y456000D01*
G36*
X79544000Y456000D02*
X456000Y456000D01*
X456000Y7500000D01*
X21956536Y7500000D01*
X21956536Y5200000D01*
X21983103Y5058810D01*
X22066546Y4929135D01*
X22193866Y4842141D01*
X22345000Y4811536D01*
X24645000Y4811536D01*
X24786190Y4838103D01*
X24915865Y4921546D01*
X25002859Y5048866D01*
X25031146Y5188555D01*
X25166626Y5052838D01*
X25729129Y4819266D01*
X26338199Y4818735D01*
X26901109Y5051325D01*
X27215446Y5365114D01*
X27634592Y4945236D01*
X28243757Y4692289D01*
X28903350Y4691713D01*
X29512955Y4943597D01*
X29935051Y5364957D01*
X30246626Y5052838D01*
X30368466Y5002245D01*
X30411004Y4788395D01*
X30475605Y4691713D01*
X30576185Y4541185D01*
X31846184Y3271185D01*
X32093395Y3106004D01*
X32385000Y3048000D01*
X40005000Y3048000D01*
X40296605Y3106004D01*
X40543815Y3271185D01*
X41275000Y4002369D01*
X42006184Y3271185D01*
X42253395Y3106004D01*
X42545000Y3048000D01*
X51435000Y3048000D01*
X51726605Y3106004D01*
X51973815Y3271185D01*
X52705000Y4002369D01*
X53436184Y3271185D01*
X53683395Y3106004D01*
X53975000Y3048000D01*
X61595000Y3048000D01*
X61886605Y3106004D01*
X62133815Y3271185D01*
X62865000Y4002369D01*
X63596184Y3271185D01*
X63843395Y3106004D01*
X64135000Y3048000D01*
X68580000Y3048000D01*
X68871605Y3106004D01*
X69118815Y3271185D01*
X70388815Y4541184D01*
X70553996Y4788395D01*
X70558599Y4811536D01*
X71000000Y4811536D01*
X71141190Y4838103D01*
X71270865Y4921546D01*
X71357859Y5048866D01*
X71386146Y5188555D01*
X71521626Y5052838D01*
X72084129Y4819266D01*
X72693199Y4818735D01*
X73256109Y5051325D01*
X73687162Y5481626D01*
X73920734Y6044129D01*
X73921265Y6653199D01*
X73688675Y7216109D01*
X73258374Y7647162D01*
X72695871Y7880734D01*
X72086801Y7881265D01*
X71523891Y7648675D01*
X71386328Y7511352D01*
X71361897Y7641190D01*
X71278454Y7770865D01*
X71151134Y7857859D01*
X71000000Y7888464D01*
X68700000Y7888464D01*
X68558810Y7861897D01*
X68429135Y7778454D01*
X68342141Y7651134D01*
X68311536Y7500000D01*
X68311536Y5200000D01*
X68338103Y5058810D01*
X68421546Y4929135D01*
X68540338Y4847968D01*
X68264370Y4572000D01*
X64450631Y4572000D01*
X63851312Y5171318D01*
X64162162Y5481626D01*
X64395734Y6044129D01*
X64396265Y6653199D01*
X64163675Y7216109D01*
X63733374Y7647162D01*
X63170871Y7880734D01*
X62561801Y7881265D01*
X61998891Y7648675D01*
X61684554Y7334886D01*
X61265408Y7754764D01*
X60656243Y8007711D01*
X59996650Y8008287D01*
X59387045Y7756403D01*
X58964949Y7335043D01*
X58653374Y7647162D01*
X58090871Y7880734D01*
X57481801Y7881265D01*
X56918891Y7648675D01*
X56514673Y7245162D01*
X56113374Y7647162D01*
X55550871Y7880734D01*
X54941801Y7881265D01*
X54378891Y7648675D01*
X53974673Y7245162D01*
X53573374Y7647162D01*
X53010871Y7880734D01*
X52401801Y7881265D01*
X51838891Y7648675D01*
X51524554Y7334886D01*
X51105408Y7754764D01*
X50496243Y8007711D01*
X49836650Y8008287D01*
X49227045Y7756403D01*
X48804949Y7335043D01*
X48493374Y7647162D01*
X47930871Y7880734D01*
X47321801Y7881265D01*
X46758891Y7648675D01*
X46621328Y7511352D01*
X46596897Y7641190D01*
X46513454Y7770865D01*
X46386134Y7857859D01*
X46235000Y7888464D01*
X43935000Y7888464D01*
X43793810Y7861897D01*
X43664135Y7778454D01*
X43577141Y7651134D01*
X43546536Y7500000D01*
X43546536Y5200000D01*
X43573103Y5058810D01*
X43656546Y4929135D01*
X43783866Y4842141D01*
X43935000Y4811536D01*
X46235000Y4811536D01*
X46376190Y4838103D01*
X46505865Y4921546D01*
X46592859Y5048866D01*
X46621146Y5188555D01*
X46756626Y5052838D01*
X47319129Y4819266D01*
X47928199Y4818735D01*
X48491109Y5051325D01*
X48805446Y5365114D01*
X49224592Y4945236D01*
X49833757Y4692289D01*
X50493350Y4691713D01*
X51102955Y4943597D01*
X51525051Y5364957D01*
X51718520Y5171151D01*
X51119370Y4572000D01*
X42860631Y4572000D01*
X42261312Y5171318D01*
X42572162Y5481626D01*
X42805734Y6044129D01*
X42806265Y6653199D01*
X42573675Y7216109D01*
X42143374Y7647162D01*
X41580871Y7880734D01*
X40971801Y7881265D01*
X40408891Y7648675D01*
X40094554Y7334886D01*
X39675408Y7754764D01*
X39066243Y8007711D01*
X38406650Y8008287D01*
X37797045Y7756403D01*
X37374949Y7335043D01*
X37063374Y7647162D01*
X36500871Y7880734D01*
X35891801Y7881265D01*
X35328891Y7648675D01*
X34924673Y7245162D01*
X34523374Y7647162D01*
X33960871Y7880734D01*
X33351801Y7881265D01*
X32788891Y7648675D01*
X32384673Y7245162D01*
X31983374Y7647162D01*
X31420871Y7880734D01*
X30811801Y7881265D01*
X30248891Y7648675D01*
X29934554Y7334886D01*
X29515408Y7754764D01*
X28906243Y8007711D01*
X28246650Y8008287D01*
X27637045Y7756403D01*
X27214949Y7335043D01*
X26903374Y7647162D01*
X26340871Y7880734D01*
X25731801Y7881265D01*
X25168891Y7648675D01*
X25031328Y7511352D01*
X25006897Y7641190D01*
X24923454Y7770865D01*
X24796134Y7857859D01*
X24645000Y7888464D01*
X22345000Y7888464D01*
X22203810Y7861897D01*
X22074135Y7778454D01*
X21987141Y7651134D01*
X21956536Y7500000D01*
X456000Y7500000D01*
X456000Y13122296D01*
X4348691Y13122296D01*
X4619261Y12467467D01*
X5119827Y11966027D01*
X5774183Y11694315D01*
X6482709Y11693696D01*
X7137538Y11964266D01*
X7638978Y12464832D01*
X7910690Y13119188D01*
X7910692Y13122296D01*
X17488691Y13122296D01*
X17759261Y12467467D01*
X18259827Y11966027D01*
X18914183Y11694315D01*
X19622709Y11693696D01*
X20277538Y11964266D01*
X20778978Y12464832D01*
X21050690Y13119188D01*
X21051309Y13827714D01*
X20780739Y14482543D01*
X20280173Y14983983D01*
X19625817Y15255695D01*
X18917291Y15256314D01*
X18262462Y14985744D01*
X17761022Y14485178D01*
X17489310Y13830822D01*
X17488691Y13122296D01*
X7910692Y13122296D01*
X7911309Y13827714D01*
X7640739Y14482543D01*
X7140173Y14983983D01*
X6485817Y15255695D01*
X5777291Y15256314D01*
X5122462Y14985744D01*
X4621022Y14485178D01*
X4349310Y13830822D01*
X4348691Y13122296D01*
X456000Y13122296D01*
X456000Y15968944D01*
X8108811Y15968944D01*
X8274556Y15567810D01*
X8581191Y15260639D01*
X8982035Y15094195D01*
X9416061Y15093816D01*
X9817195Y15259561D01*
X10124366Y15566196D01*
X10290810Y15967040D01*
X10290811Y15968944D01*
X10608811Y15968944D01*
X10774556Y15567810D01*
X11081191Y15260639D01*
X11482035Y15094195D01*
X11916061Y15093816D01*
X12317195Y15259561D01*
X12624366Y15566196D01*
X12699980Y15748297D01*
X12774556Y15567810D01*
X13081191Y15260639D01*
X13482035Y15094195D01*
X13916061Y15093816D01*
X14317195Y15259561D01*
X14624366Y15566196D01*
X14781157Y15943793D01*
X14981789Y15943793D01*
X15166828Y15495965D01*
X15509158Y15153037D01*
X15956662Y14967217D01*
X16441212Y14966794D01*
X16889040Y15151833D01*
X17231968Y15494163D01*
X17417788Y15941667D01*
X17418211Y16426217D01*
X17233172Y16874045D01*
X16890842Y17216973D01*
X16443338Y17402793D01*
X15958788Y17403216D01*
X15510960Y17218177D01*
X15168032Y16875847D01*
X14982212Y16428343D01*
X14981789Y15943793D01*
X14781157Y15943793D01*
X14790810Y15967040D01*
X14791189Y16401066D01*
X14625444Y16802200D01*
X14318809Y17109371D01*
X13917965Y17275815D01*
X13483939Y17276194D01*
X13082805Y17110449D01*
X12775634Y16803814D01*
X12700020Y16621713D01*
X12625444Y16802200D01*
X12318809Y17109371D01*
X11917965Y17275815D01*
X11483939Y17276194D01*
X11082805Y17110449D01*
X10775634Y16803814D01*
X10609190Y16402970D01*
X10608811Y15968944D01*
X10290811Y15968944D01*
X10291189Y16401066D01*
X10125444Y16802200D01*
X9818809Y17109371D01*
X9417965Y17275815D01*
X8983939Y17276194D01*
X8582805Y17110449D01*
X8275634Y16803814D01*
X8109190Y16402970D01*
X8108811Y15968944D01*
X456000Y15968944D01*
X456000Y18802296D01*
X4348691Y18802296D01*
X4619261Y18147467D01*
X5119827Y17646027D01*
X5774183Y17374315D01*
X6482709Y17373696D01*
X7137538Y17644266D01*
X7638978Y18144832D01*
X7823389Y18588944D01*
X8108811Y18588944D01*
X8274556Y18187810D01*
X8581191Y17880639D01*
X8982035Y17714195D01*
X9416061Y17713816D01*
X9817195Y17879561D01*
X10124366Y18186196D01*
X10290810Y18587040D01*
X10290811Y18588944D01*
X10608811Y18588944D01*
X10774556Y18187810D01*
X11081191Y17880639D01*
X11482035Y17714195D01*
X11916061Y17713816D01*
X12317195Y17879561D01*
X12624366Y18186196D01*
X12699980Y18368297D01*
X12774556Y18187810D01*
X13081191Y17880639D01*
X13482035Y17714195D01*
X13916061Y17713816D01*
X14317195Y17879561D01*
X14624366Y18186196D01*
X14781157Y18563793D01*
X14981789Y18563793D01*
X15166828Y18115965D01*
X15509158Y17773037D01*
X15956662Y17587217D01*
X16441212Y17586794D01*
X16889040Y17771833D01*
X17231968Y18114163D01*
X17417788Y18561667D01*
X17417998Y18802296D01*
X17488691Y18802296D01*
X17759261Y18147467D01*
X18259827Y17646027D01*
X18914183Y17374315D01*
X19622709Y17373696D01*
X20277538Y17644266D01*
X20778978Y18144832D01*
X21050690Y18799188D01*
X21051309Y19507714D01*
X20780739Y20162543D01*
X20280173Y20663983D01*
X19625817Y20935695D01*
X18917291Y20936314D01*
X18262462Y20665744D01*
X17761022Y20165178D01*
X17489310Y19510822D01*
X17488691Y18802296D01*
X17417998Y18802296D01*
X17418211Y19046217D01*
X17233172Y19494045D01*
X16890842Y19836973D01*
X16443338Y20022793D01*
X15958788Y20023216D01*
X15510960Y19838177D01*
X15168032Y19495847D01*
X14982212Y19048343D01*
X14981789Y18563793D01*
X14781157Y18563793D01*
X14790810Y18587040D01*
X14791189Y19021066D01*
X14625444Y19422200D01*
X14318809Y19729371D01*
X13917965Y19895815D01*
X13483939Y19896194D01*
X13082805Y19730449D01*
X12775634Y19423814D01*
X12700020Y19241713D01*
X12625444Y19422200D01*
X12318809Y19729371D01*
X11917965Y19895815D01*
X11483939Y19896194D01*
X11082805Y19730449D01*
X10775634Y19423814D01*
X10609190Y19022970D01*
X10608811Y18588944D01*
X10290811Y18588944D01*
X10291189Y19021066D01*
X10125444Y19422200D01*
X9818809Y19729371D01*
X9417965Y19895815D01*
X8983939Y19896194D01*
X8582805Y19730449D01*
X8275634Y19423814D01*
X8109190Y19022970D01*
X8108811Y18588944D01*
X7823389Y18588944D01*
X7910690Y18799188D01*
X7911309Y19507714D01*
X7640739Y20162543D01*
X7140173Y20663983D01*
X6485817Y20935695D01*
X5777291Y20936314D01*
X5122462Y20665744D01*
X4621022Y20165178D01*
X4349310Y19510822D01*
X4348691Y18802296D01*
X456000Y18802296D01*
X456000Y46220135D01*
X40593882Y46220135D01*
X40697339Y45969748D01*
X40767000Y45899966D01*
X40767000Y44270126D01*
X40698013Y44201259D01*
X40594118Y43951054D01*
X40593882Y43680135D01*
X40697339Y43429748D01*
X40888741Y43238013D01*
X41138946Y43134118D01*
X41409865Y43133882D01*
X41660252Y43237339D01*
X41851987Y43428741D01*
X41955882Y43678946D01*
X41956118Y43949865D01*
X41852661Y44200252D01*
X41783000Y44270034D01*
X41783000Y45899874D01*
X41851987Y45968741D01*
X41955882Y46218946D01*
X41956118Y46489865D01*
X41852661Y46740252D01*
X41661259Y46931987D01*
X41411054Y47035882D01*
X41140135Y47036118D01*
X40889748Y46932661D01*
X40698013Y46741259D01*
X40594118Y46491054D01*
X40593882Y46220135D01*
X456000Y46220135D01*
X456000Y48760135D01*
X38053882Y48760135D01*
X38157339Y48509748D01*
X38348741Y48318013D01*
X38598946Y48214118D01*
X38869865Y48213882D01*
X39120252Y48317339D01*
X39311987Y48508741D01*
X39415882Y48758946D01*
X39415968Y48857548D01*
X40042387Y49483967D01*
X40139865Y49483882D01*
X40390252Y49587339D01*
X40581987Y49778741D01*
X40685882Y50028946D01*
X40686118Y50299865D01*
X40582661Y50550252D01*
X40391259Y50741987D01*
X40141054Y50845882D01*
X39870135Y50846118D01*
X39619748Y50742661D01*
X39428013Y50551259D01*
X39324118Y50301054D01*
X39324032Y50202452D01*
X38697613Y49576033D01*
X38600135Y49576118D01*
X38349748Y49472661D01*
X38158013Y49281259D01*
X38054118Y49031054D01*
X38053882Y48760135D01*
X456000Y48760135D01*
X456000Y51935135D01*
X24083882Y51935135D01*
X24187339Y51684748D01*
X24257000Y51614966D01*
X24257000Y50944926D01*
X24188013Y50876059D01*
X24084118Y50625854D01*
X24083882Y50354935D01*
X24187339Y50104548D01*
X24378741Y49912813D01*
X24628946Y49808918D01*
X24899865Y49808682D01*
X25150252Y49912139D01*
X25341987Y50103541D01*
X25445882Y50353746D01*
X25446118Y50624665D01*
X25342661Y50875052D01*
X25273000Y50944834D01*
X25273000Y51300135D01*
X34243882Y51300135D01*
X34347339Y51049748D01*
X34538741Y50858013D01*
X34788946Y50754118D01*
X35059865Y50753882D01*
X35310252Y50857339D01*
X35380034Y50927000D01*
X37465000Y50927000D01*
X37659403Y50965669D01*
X37824210Y51075790D01*
X38137387Y51388967D01*
X38234865Y51388882D01*
X38485252Y51492339D01*
X38676987Y51683741D01*
X38780882Y51933946D01*
X38781118Y52204865D01*
X38677661Y52455252D01*
X38486259Y52646987D01*
X38236054Y52750882D01*
X37965135Y52751118D01*
X37714748Y52647661D01*
X37523013Y52456259D01*
X37419118Y52206054D01*
X37419032Y52107453D01*
X37254580Y51943000D01*
X35380126Y51943000D01*
X35311259Y52011987D01*
X35061054Y52115882D01*
X34790135Y52116118D01*
X34539748Y52012661D01*
X34348013Y51821259D01*
X34244118Y51571054D01*
X34243882Y51300135D01*
X25273000Y51300135D01*
X25273000Y51614874D01*
X25341987Y51683741D01*
X25445882Y51933946D01*
X25446118Y52204865D01*
X25342661Y52455252D01*
X25151259Y52646987D01*
X24901054Y52750882D01*
X24630135Y52751118D01*
X24379748Y52647661D01*
X24188013Y52456259D01*
X24084118Y52206054D01*
X24083882Y51935135D01*
X456000Y51935135D01*
X456000Y55110135D01*
X39983580Y55110135D01*
X40087037Y54859748D01*
X40232939Y54713592D01*
X40232939Y53795126D01*
X40163952Y53726259D01*
X40060057Y53476054D01*
X40059821Y53205135D01*
X40163278Y52954748D01*
X40354680Y52763013D01*
X40604885Y52659118D01*
X40875804Y52658882D01*
X41126191Y52762339D01*
X41317926Y52953741D01*
X41421821Y53203946D01*
X41421822Y53205135D01*
X45038882Y53205135D01*
X45142339Y52954748D01*
X45212000Y52884966D01*
X45212000Y51255126D01*
X45143013Y51186259D01*
X45039118Y50936054D01*
X45038882Y50665135D01*
X45142339Y50414748D01*
X45333741Y50223013D01*
X45583946Y50119118D01*
X45854865Y50118882D01*
X46105252Y50222339D01*
X46296987Y50413741D01*
X46400882Y50663946D01*
X46401118Y50934865D01*
X46297661Y51185252D01*
X46228000Y51255034D01*
X46228000Y52884874D01*
X46296987Y52953741D01*
X46400882Y53203946D01*
X46401118Y53474865D01*
X46297661Y53725252D01*
X46106259Y53916987D01*
X45856054Y54020882D01*
X45585135Y54021118D01*
X45334748Y53917661D01*
X45143013Y53726259D01*
X45039118Y53476054D01*
X45038882Y53205135D01*
X41421822Y53205135D01*
X41422057Y53474865D01*
X41318600Y53725252D01*
X41248939Y53795034D01*
X41248939Y54876210D01*
X41345580Y55108946D01*
X41345816Y55379865D01*
X41242359Y55630252D01*
X41050957Y55821987D01*
X40800752Y55925882D01*
X40529833Y55926118D01*
X40279446Y55822661D01*
X40087711Y55631259D01*
X39983816Y55381054D01*
X39983580Y55110135D01*
X456000Y55110135D01*
X456000Y57778254D01*
X20145763Y57778254D01*
X20249220Y57527867D01*
X20440622Y57336132D01*
X20574096Y57280708D01*
X20574096Y56841012D01*
X20505109Y56772145D01*
X20401214Y56521940D01*
X20400978Y56251021D01*
X20504435Y56000634D01*
X20695837Y55808899D01*
X20946042Y55705004D01*
X21216961Y55704768D01*
X21467348Y55808225D01*
X21659083Y55999627D01*
X21762978Y56249832D01*
X21763214Y56520751D01*
X21659757Y56771138D01*
X21590096Y56840920D01*
X21590096Y57657904D01*
X21551427Y57852307D01*
X21510794Y57913119D01*
X21507885Y57917472D01*
X21507999Y58047984D01*
X21404542Y58298371D01*
X21213140Y58490106D01*
X20962935Y58594001D01*
X20692016Y58594237D01*
X20441629Y58490780D01*
X20249894Y58299378D01*
X20145999Y58049173D01*
X20145763Y57778254D01*
X456000Y57778254D01*
X456000Y59555135D01*
X27893882Y59555135D01*
X27997339Y59304748D01*
X28188741Y59113013D01*
X28438946Y59009118D01*
X28709865Y59008882D01*
X28960252Y59112339D01*
X29151987Y59303741D01*
X29255882Y59553946D01*
X29255968Y59652548D01*
X29882387Y60278967D01*
X29979865Y60278882D01*
X30230252Y60382339D01*
X30421987Y60573741D01*
X30525882Y60823946D01*
X30526118Y61094865D01*
X30422661Y61345252D01*
X30231259Y61536987D01*
X29981054Y61640882D01*
X29710135Y61641118D01*
X29459748Y61537661D01*
X29268013Y61346259D01*
X29164118Y61096054D01*
X29164032Y60997452D01*
X28537613Y60371033D01*
X28440135Y60371118D01*
X28189748Y60267661D01*
X27998013Y60076259D01*
X27894118Y59826054D01*
X27893882Y59555135D01*
X456000Y59555135D01*
X456000Y62730135D01*
X34243882Y62730135D01*
X34347339Y62479748D01*
X34417000Y62409966D01*
X34417000Y62050126D01*
X34348013Y61981259D01*
X34244118Y61731054D01*
X34243882Y61460135D01*
X34347339Y61209748D01*
X34538741Y61018013D01*
X34788946Y60914118D01*
X35059865Y60913882D01*
X35310252Y61017339D01*
X35501987Y61208741D01*
X35605882Y61458946D01*
X35605883Y61460135D01*
X37184076Y61460135D01*
X37287533Y61209748D01*
X37478935Y61018013D01*
X37729140Y60914118D01*
X38000059Y60913882D01*
X38241682Y61013718D01*
X38481543Y60914118D01*
X38752462Y60913882D01*
X38994085Y61013718D01*
X39233946Y60914118D01*
X39504865Y60913882D01*
X39746488Y61013718D01*
X39986349Y60914118D01*
X40257268Y60913882D01*
X40498891Y61013718D01*
X40738752Y60914118D01*
X41009671Y60913882D01*
X41260058Y61017339D01*
X41343487Y61100623D01*
X41469403Y61125669D01*
X41634210Y61235790D01*
X42493555Y62095135D01*
X44403882Y62095135D01*
X44507339Y61844748D01*
X44577000Y61774966D01*
X44577000Y60145126D01*
X44508013Y60076259D01*
X44404118Y59826054D01*
X44403882Y59555135D01*
X44507339Y59304748D01*
X44698741Y59113013D01*
X44948946Y59009118D01*
X45219865Y59008882D01*
X45470252Y59112339D01*
X45661987Y59303741D01*
X45765882Y59553946D01*
X45766118Y59824865D01*
X45662661Y60075252D01*
X45593000Y60145034D01*
X45593000Y61774874D01*
X45661987Y61843741D01*
X45765882Y62093946D01*
X45766118Y62364865D01*
X45662661Y62615252D01*
X45471259Y62806987D01*
X45221054Y62910882D01*
X44950135Y62911118D01*
X44699748Y62807661D01*
X44508013Y62616259D01*
X44404118Y62366054D01*
X44403882Y62095135D01*
X42493555Y62095135D01*
X42582387Y62183967D01*
X42679865Y62183882D01*
X42930252Y62287339D01*
X43121987Y62478741D01*
X43225882Y62728946D01*
X43226118Y62999865D01*
X43122661Y63250252D01*
X42931259Y63441987D01*
X42681054Y63545882D01*
X42410135Y63546118D01*
X42159748Y63442661D01*
X41968013Y63251259D01*
X41909986Y63111515D01*
X41852661Y63250252D01*
X41661259Y63441987D01*
X41411054Y63545882D01*
X41140135Y63546118D01*
X40889748Y63442661D01*
X40698013Y63251259D01*
X40639986Y63111515D01*
X40582661Y63250252D01*
X40391259Y63441987D01*
X40141054Y63545882D01*
X40051041Y63545960D01*
X40051118Y63634865D01*
X39947661Y63885252D01*
X39756259Y64076987D01*
X39506054Y64180882D01*
X39235135Y64181118D01*
X38984748Y64077661D01*
X38914966Y64008000D01*
X38512486Y64008000D01*
X38318082Y63969331D01*
X38153276Y63859210D01*
X37505984Y63211918D01*
X37395863Y63047111D01*
X37357194Y62852708D01*
X37357194Y62050126D01*
X37288207Y61981259D01*
X37184312Y61731054D01*
X37184076Y61460135D01*
X35605883Y61460135D01*
X35606118Y61729865D01*
X35502661Y61980252D01*
X35433000Y62050034D01*
X35433000Y62409874D01*
X35501987Y62478741D01*
X35605882Y62728946D01*
X35606118Y62999865D01*
X35502661Y63250252D01*
X35311259Y63441987D01*
X35061054Y63545882D01*
X34790135Y63546118D01*
X34539748Y63442661D01*
X34348013Y63251259D01*
X34244118Y63001054D01*
X34243882Y62730135D01*
X456000Y62730135D01*
X456000Y66555000D01*
X3541536Y66555000D01*
X3541536Y64255000D01*
X3568103Y64113810D01*
X3651546Y63984135D01*
X3778866Y63897141D01*
X3930000Y63866536D01*
X6230000Y63866536D01*
X6371190Y63893103D01*
X6500865Y63976546D01*
X6583098Y64096898D01*
X6679592Y64000236D01*
X7288757Y63747289D01*
X7948350Y63746713D01*
X8557955Y63998597D01*
X9024764Y64464592D01*
X9277711Y65073757D01*
X9277882Y65270135D01*
X48726682Y65270135D01*
X48830139Y65019748D01*
X49021541Y64828013D01*
X49161285Y64769986D01*
X49022548Y64712661D01*
X48830813Y64521259D01*
X48726918Y64271054D01*
X48726682Y64000135D01*
X48830139Y63749748D01*
X49021541Y63558013D01*
X49161285Y63499986D01*
X49022548Y63442661D01*
X48830813Y63251259D01*
X48726918Y63001054D01*
X48726682Y62730135D01*
X48830139Y62479748D01*
X49021541Y62288013D01*
X49271746Y62184118D01*
X49542665Y62183882D01*
X49793052Y62287339D01*
X49862834Y62357000D01*
X50467074Y62357000D01*
X50535941Y62288013D01*
X50786146Y62184118D01*
X51057065Y62183882D01*
X51307452Y62287339D01*
X51499187Y62478741D01*
X51603082Y62728946D01*
X51603318Y62999865D01*
X51499861Y63250252D01*
X51308459Y63441987D01*
X51168715Y63500014D01*
X51307452Y63557339D01*
X51499187Y63748741D01*
X51603082Y63998946D01*
X51603318Y64269865D01*
X51499861Y64520252D01*
X51308459Y64711987D01*
X51168715Y64770014D01*
X51307452Y64827339D01*
X51499187Y65018741D01*
X51603082Y65268946D01*
X51603318Y65539865D01*
X51499861Y65790252D01*
X51308459Y65981987D01*
X51058254Y66085882D01*
X50787335Y66086118D01*
X50536948Y65982661D01*
X50467166Y65913000D01*
X49862926Y65913000D01*
X49794059Y65981987D01*
X49543854Y66085882D01*
X49272935Y66086118D01*
X49022548Y65982661D01*
X48830813Y65791259D01*
X48726918Y65541054D01*
X48726682Y65270135D01*
X9277882Y65270135D01*
X9278287Y65733350D01*
X9026403Y66342955D01*
X8560408Y66809764D01*
X7951243Y67062711D01*
X7291650Y67063287D01*
X6682045Y66811403D01*
X6582015Y66711547D01*
X6508454Y66825865D01*
X6381134Y66912859D01*
X6230000Y66943464D01*
X3930000Y66943464D01*
X3788810Y66916897D01*
X3659135Y66833454D01*
X3572141Y66706134D01*
X3541536Y66555000D01*
X456000Y66555000D01*
X456000Y68160000D01*
X32416536Y68160000D01*
X32416536Y66460000D01*
X32443103Y66318810D01*
X32526546Y66189135D01*
X32653866Y66102141D01*
X32805000Y66071536D01*
X34505000Y66071536D01*
X34646190Y66098103D01*
X34775865Y66181546D01*
X34862859Y66308866D01*
X34893464Y66460000D01*
X34893464Y67334117D01*
X34964000Y67334117D01*
X34964000Y67285883D01*
X35057704Y66814800D01*
X35324552Y66415435D01*
X35723917Y66148587D01*
X36195000Y66054883D01*
X36666083Y66148587D01*
X37065448Y66415435D01*
X37332296Y66814800D01*
X37401253Y67161469D01*
X37480372Y66763711D01*
X37774749Y66323144D01*
X38215316Y66028767D01*
X38735000Y65925395D01*
X39254684Y66028767D01*
X39695251Y66323144D01*
X39989628Y66763711D01*
X40068747Y67161469D01*
X40137704Y66814800D01*
X40404552Y66415435D01*
X40803917Y66148587D01*
X41275000Y66054883D01*
X41746083Y66148587D01*
X42145448Y66415435D01*
X42412296Y66814800D01*
X42506000Y67285883D01*
X42506000Y67334117D01*
X42584000Y67334117D01*
X42584000Y67285883D01*
X42677704Y66814800D01*
X42944552Y66415435D01*
X43343917Y66148587D01*
X43815000Y66054883D01*
X44286083Y66148587D01*
X44685448Y66415435D01*
X44952296Y66814800D01*
X45046000Y67285883D01*
X45046000Y67334117D01*
X45124000Y67334117D01*
X45124000Y67285883D01*
X45217704Y66814800D01*
X45484552Y66415435D01*
X45883917Y66148587D01*
X46355000Y66054883D01*
X46826083Y66148587D01*
X47225448Y66415435D01*
X47492296Y66814800D01*
X47586000Y67285883D01*
X47586000Y67334117D01*
X47492296Y67805200D01*
X47225448Y68204565D01*
X46826083Y68471413D01*
X46355000Y68565117D01*
X45883917Y68471413D01*
X45484552Y68204565D01*
X45217704Y67805200D01*
X45124000Y67334117D01*
X45046000Y67334117D01*
X44952296Y67805200D01*
X44685448Y68204565D01*
X44286083Y68471413D01*
X43815000Y68565117D01*
X43343917Y68471413D01*
X42944552Y68204565D01*
X42677704Y67805200D01*
X42584000Y67334117D01*
X42506000Y67334117D01*
X42412296Y67805200D01*
X42145448Y68204565D01*
X41746083Y68471413D01*
X41275000Y68565117D01*
X40803917Y68471413D01*
X40404552Y68204565D01*
X40137704Y67805200D01*
X40068747Y67458531D01*
X39989628Y67856289D01*
X39695251Y68296856D01*
X39254684Y68591233D01*
X38735000Y68694605D01*
X38215316Y68591233D01*
X37774749Y68296856D01*
X37480372Y67856289D01*
X37401253Y67458531D01*
X37332296Y67805200D01*
X37065448Y68204565D01*
X36666083Y68471413D01*
X36195000Y68565117D01*
X35723917Y68471413D01*
X35324552Y68204565D01*
X35057704Y67805200D01*
X34964000Y67334117D01*
X34893464Y67334117D01*
X34893464Y68160000D01*
X34866897Y68301190D01*
X34783454Y68430865D01*
X34656134Y68517859D01*
X34505000Y68548464D01*
X32805000Y68548464D01*
X32663810Y68521897D01*
X32534135Y68438454D01*
X32447141Y68311134D01*
X32416536Y68160000D01*
X456000Y68160000D01*
X456000Y71544000D01*
X79544000Y71544000D01*
X79544000Y456000D01*
X79544000Y456000D01*
G37*
X79544000Y456000D02*
X456000Y456000D01*
X456000Y7500000D01*
X21956536Y7500000D01*
X21956536Y5200000D01*
X21983103Y5058810D01*
X22066546Y4929135D01*
X22193866Y4842141D01*
X22345000Y4811536D01*
X24645000Y4811536D01*
X24786190Y4838103D01*
X24915865Y4921546D01*
X25002859Y5048866D01*
X25031146Y5188555D01*
X25166626Y5052838D01*
X25729129Y4819266D01*
X26338199Y4818735D01*
X26901109Y5051325D01*
X27215446Y5365114D01*
X27634592Y4945236D01*
X28243757Y4692289D01*
X28903350Y4691713D01*
X29512955Y4943597D01*
X29935051Y5364957D01*
X30246626Y5052838D01*
X30368466Y5002245D01*
X30411004Y4788395D01*
X30475605Y4691713D01*
X30576185Y4541185D01*
X31846184Y3271185D01*
X32093395Y3106004D01*
X32385000Y3048000D01*
X40005000Y3048000D01*
X40296605Y3106004D01*
X40543815Y3271185D01*
X41275000Y4002369D01*
X42006184Y3271185D01*
X42253395Y3106004D01*
X42545000Y3048000D01*
X51435000Y3048000D01*
X51726605Y3106004D01*
X51973815Y3271185D01*
X52705000Y4002369D01*
X53436184Y3271185D01*
X53683395Y3106004D01*
X53975000Y3048000D01*
X61595000Y3048000D01*
X61886605Y3106004D01*
X62133815Y3271185D01*
X62865000Y4002369D01*
X63596184Y3271185D01*
X63843395Y3106004D01*
X64135000Y3048000D01*
X68580000Y3048000D01*
X68871605Y3106004D01*
X69118815Y3271185D01*
X70388815Y4541184D01*
X70553996Y4788395D01*
X70558599Y4811536D01*
X71000000Y4811536D01*
X71141190Y4838103D01*
X71270865Y4921546D01*
X71357859Y5048866D01*
X71386146Y5188555D01*
X71521626Y5052838D01*
X72084129Y4819266D01*
X72693199Y4818735D01*
X73256109Y5051325D01*
X73687162Y5481626D01*
X73920734Y6044129D01*
X73921265Y6653199D01*
X73688675Y7216109D01*
X73258374Y7647162D01*
X72695871Y7880734D01*
X72086801Y7881265D01*
X71523891Y7648675D01*
X71386328Y7511352D01*
X71361897Y7641190D01*
X71278454Y7770865D01*
X71151134Y7857859D01*
X71000000Y7888464D01*
X68700000Y7888464D01*
X68558810Y7861897D01*
X68429135Y7778454D01*
X68342141Y7651134D01*
X68311536Y7500000D01*
X68311536Y5200000D01*
X68338103Y5058810D01*
X68421546Y4929135D01*
X68540338Y4847968D01*
X68264370Y4572000D01*
X64450631Y4572000D01*
X63851312Y5171318D01*
X64162162Y5481626D01*
X64395734Y6044129D01*
X64396265Y6653199D01*
X64163675Y7216109D01*
X63733374Y7647162D01*
X63170871Y7880734D01*
X62561801Y7881265D01*
X61998891Y7648675D01*
X61684554Y7334886D01*
X61265408Y7754764D01*
X60656243Y8007711D01*
X59996650Y8008287D01*
X59387045Y7756403D01*
X58964949Y7335043D01*
X58653374Y7647162D01*
X58090871Y7880734D01*
X57481801Y7881265D01*
X56918891Y7648675D01*
X56514673Y7245162D01*
X56113374Y7647162D01*
X55550871Y7880734D01*
X54941801Y7881265D01*
X54378891Y7648675D01*
X53974673Y7245162D01*
X53573374Y7647162D01*
X53010871Y7880734D01*
X52401801Y7881265D01*
X51838891Y7648675D01*
X51524554Y7334886D01*
X51105408Y7754764D01*
X50496243Y8007711D01*
X49836650Y8008287D01*
X49227045Y7756403D01*
X48804949Y7335043D01*
X48493374Y7647162D01*
X47930871Y7880734D01*
X47321801Y7881265D01*
X46758891Y7648675D01*
X46621328Y7511352D01*
X46596897Y7641190D01*
X46513454Y7770865D01*
X46386134Y7857859D01*
X46235000Y7888464D01*
X43935000Y7888464D01*
X43793810Y7861897D01*
X43664135Y7778454D01*
X43577141Y7651134D01*
X43546536Y7500000D01*
X43546536Y5200000D01*
X43573103Y5058810D01*
X43656546Y4929135D01*
X43783866Y4842141D01*
X43935000Y4811536D01*
X46235000Y4811536D01*
X46376190Y4838103D01*
X46505865Y4921546D01*
X46592859Y5048866D01*
X46621146Y5188555D01*
X46756626Y5052838D01*
X47319129Y4819266D01*
X47928199Y4818735D01*
X48491109Y5051325D01*
X48805446Y5365114D01*
X49224592Y4945236D01*
X49833757Y4692289D01*
X50493350Y4691713D01*
X51102955Y4943597D01*
X51525051Y5364957D01*
X51718520Y5171151D01*
X51119370Y4572000D01*
X42860631Y4572000D01*
X42261312Y5171318D01*
X42572162Y5481626D01*
X42805734Y6044129D01*
X42806265Y6653199D01*
X42573675Y7216109D01*
X42143374Y7647162D01*
X41580871Y7880734D01*
X40971801Y7881265D01*
X40408891Y7648675D01*
X40094554Y7334886D01*
X39675408Y7754764D01*
X39066243Y8007711D01*
X38406650Y8008287D01*
X37797045Y7756403D01*
X37374949Y7335043D01*
X37063374Y7647162D01*
X36500871Y7880734D01*
X35891801Y7881265D01*
X35328891Y7648675D01*
X34924673Y7245162D01*
X34523374Y7647162D01*
X33960871Y7880734D01*
X33351801Y7881265D01*
X32788891Y7648675D01*
X32384673Y7245162D01*
X31983374Y7647162D01*
X31420871Y7880734D01*
X30811801Y7881265D01*
X30248891Y7648675D01*
X29934554Y7334886D01*
X29515408Y7754764D01*
X28906243Y8007711D01*
X28246650Y8008287D01*
X27637045Y7756403D01*
X27214949Y7335043D01*
X26903374Y7647162D01*
X26340871Y7880734D01*
X25731801Y7881265D01*
X25168891Y7648675D01*
X25031328Y7511352D01*
X25006897Y7641190D01*
X24923454Y7770865D01*
X24796134Y7857859D01*
X24645000Y7888464D01*
X22345000Y7888464D01*
X22203810Y7861897D01*
X22074135Y7778454D01*
X21987141Y7651134D01*
X21956536Y7500000D01*
X456000Y7500000D01*
X456000Y13122296D01*
X4348691Y13122296D01*
X4619261Y12467467D01*
X5119827Y11966027D01*
X5774183Y11694315D01*
X6482709Y11693696D01*
X7137538Y11964266D01*
X7638978Y12464832D01*
X7910690Y13119188D01*
X7910692Y13122296D01*
X17488691Y13122296D01*
X17759261Y12467467D01*
X18259827Y11966027D01*
X18914183Y11694315D01*
X19622709Y11693696D01*
X20277538Y11964266D01*
X20778978Y12464832D01*
X21050690Y13119188D01*
X21051309Y13827714D01*
X20780739Y14482543D01*
X20280173Y14983983D01*
X19625817Y15255695D01*
X18917291Y15256314D01*
X18262462Y14985744D01*
X17761022Y14485178D01*
X17489310Y13830822D01*
X17488691Y13122296D01*
X7910692Y13122296D01*
X7911309Y13827714D01*
X7640739Y14482543D01*
X7140173Y14983983D01*
X6485817Y15255695D01*
X5777291Y15256314D01*
X5122462Y14985744D01*
X4621022Y14485178D01*
X4349310Y13830822D01*
X4348691Y13122296D01*
X456000Y13122296D01*
X456000Y15968944D01*
X8108811Y15968944D01*
X8274556Y15567810D01*
X8581191Y15260639D01*
X8982035Y15094195D01*
X9416061Y15093816D01*
X9817195Y15259561D01*
X10124366Y15566196D01*
X10290810Y15967040D01*
X10290811Y15968944D01*
X10608811Y15968944D01*
X10774556Y15567810D01*
X11081191Y15260639D01*
X11482035Y15094195D01*
X11916061Y15093816D01*
X12317195Y15259561D01*
X12624366Y15566196D01*
X12699980Y15748297D01*
X12774556Y15567810D01*
X13081191Y15260639D01*
X13482035Y15094195D01*
X13916061Y15093816D01*
X14317195Y15259561D01*
X14624366Y15566196D01*
X14781157Y15943793D01*
X14981789Y15943793D01*
X15166828Y15495965D01*
X15509158Y15153037D01*
X15956662Y14967217D01*
X16441212Y14966794D01*
X16889040Y15151833D01*
X17231968Y15494163D01*
X17417788Y15941667D01*
X17418211Y16426217D01*
X17233172Y16874045D01*
X16890842Y17216973D01*
X16443338Y17402793D01*
X15958788Y17403216D01*
X15510960Y17218177D01*
X15168032Y16875847D01*
X14982212Y16428343D01*
X14981789Y15943793D01*
X14781157Y15943793D01*
X14790810Y15967040D01*
X14791189Y16401066D01*
X14625444Y16802200D01*
X14318809Y17109371D01*
X13917965Y17275815D01*
X13483939Y17276194D01*
X13082805Y17110449D01*
X12775634Y16803814D01*
X12700020Y16621713D01*
X12625444Y16802200D01*
X12318809Y17109371D01*
X11917965Y17275815D01*
X11483939Y17276194D01*
X11082805Y17110449D01*
X10775634Y16803814D01*
X10609190Y16402970D01*
X10608811Y15968944D01*
X10290811Y15968944D01*
X10291189Y16401066D01*
X10125444Y16802200D01*
X9818809Y17109371D01*
X9417965Y17275815D01*
X8983939Y17276194D01*
X8582805Y17110449D01*
X8275634Y16803814D01*
X8109190Y16402970D01*
X8108811Y15968944D01*
X456000Y15968944D01*
X456000Y18802296D01*
X4348691Y18802296D01*
X4619261Y18147467D01*
X5119827Y17646027D01*
X5774183Y17374315D01*
X6482709Y17373696D01*
X7137538Y17644266D01*
X7638978Y18144832D01*
X7823389Y18588944D01*
X8108811Y18588944D01*
X8274556Y18187810D01*
X8581191Y17880639D01*
X8982035Y17714195D01*
X9416061Y17713816D01*
X9817195Y17879561D01*
X10124366Y18186196D01*
X10290810Y18587040D01*
X10290811Y18588944D01*
X10608811Y18588944D01*
X10774556Y18187810D01*
X11081191Y17880639D01*
X11482035Y17714195D01*
X11916061Y17713816D01*
X12317195Y17879561D01*
X12624366Y18186196D01*
X12699980Y18368297D01*
X12774556Y18187810D01*
X13081191Y17880639D01*
X13482035Y17714195D01*
X13916061Y17713816D01*
X14317195Y17879561D01*
X14624366Y18186196D01*
X14781157Y18563793D01*
X14981789Y18563793D01*
X15166828Y18115965D01*
X15509158Y17773037D01*
X15956662Y17587217D01*
X16441212Y17586794D01*
X16889040Y17771833D01*
X17231968Y18114163D01*
X17417788Y18561667D01*
X17417998Y18802296D01*
X17488691Y18802296D01*
X17759261Y18147467D01*
X18259827Y17646027D01*
X18914183Y17374315D01*
X19622709Y17373696D01*
X20277538Y17644266D01*
X20778978Y18144832D01*
X21050690Y18799188D01*
X21051309Y19507714D01*
X20780739Y20162543D01*
X20280173Y20663983D01*
X19625817Y20935695D01*
X18917291Y20936314D01*
X18262462Y20665744D01*
X17761022Y20165178D01*
X17489310Y19510822D01*
X17488691Y18802296D01*
X17417998Y18802296D01*
X17418211Y19046217D01*
X17233172Y19494045D01*
X16890842Y19836973D01*
X16443338Y20022793D01*
X15958788Y20023216D01*
X15510960Y19838177D01*
X15168032Y19495847D01*
X14982212Y19048343D01*
X14981789Y18563793D01*
X14781157Y18563793D01*
X14790810Y18587040D01*
X14791189Y19021066D01*
X14625444Y19422200D01*
X14318809Y19729371D01*
X13917965Y19895815D01*
X13483939Y19896194D01*
X13082805Y19730449D01*
X12775634Y19423814D01*
X12700020Y19241713D01*
X12625444Y19422200D01*
X12318809Y19729371D01*
X11917965Y19895815D01*
X11483939Y19896194D01*
X11082805Y19730449D01*
X10775634Y19423814D01*
X10609190Y19022970D01*
X10608811Y18588944D01*
X10290811Y18588944D01*
X10291189Y19021066D01*
X10125444Y19422200D01*
X9818809Y19729371D01*
X9417965Y19895815D01*
X8983939Y19896194D01*
X8582805Y19730449D01*
X8275634Y19423814D01*
X8109190Y19022970D01*
X8108811Y18588944D01*
X7823389Y18588944D01*
X7910690Y18799188D01*
X7911309Y19507714D01*
X7640739Y20162543D01*
X7140173Y20663983D01*
X6485817Y20935695D01*
X5777291Y20936314D01*
X5122462Y20665744D01*
X4621022Y20165178D01*
X4349310Y19510822D01*
X4348691Y18802296D01*
X456000Y18802296D01*
X456000Y46220135D01*
X40593882Y46220135D01*
X40697339Y45969748D01*
X40767000Y45899966D01*
X40767000Y44270126D01*
X40698013Y44201259D01*
X40594118Y43951054D01*
X40593882Y43680135D01*
X40697339Y43429748D01*
X40888741Y43238013D01*
X41138946Y43134118D01*
X41409865Y43133882D01*
X41660252Y43237339D01*
X41851987Y43428741D01*
X41955882Y43678946D01*
X41956118Y43949865D01*
X41852661Y44200252D01*
X41783000Y44270034D01*
X41783000Y45899874D01*
X41851987Y45968741D01*
X41955882Y46218946D01*
X41956118Y46489865D01*
X41852661Y46740252D01*
X41661259Y46931987D01*
X41411054Y47035882D01*
X41140135Y47036118D01*
X40889748Y46932661D01*
X40698013Y46741259D01*
X40594118Y46491054D01*
X40593882Y46220135D01*
X456000Y46220135D01*
X456000Y48760135D01*
X38053882Y48760135D01*
X38157339Y48509748D01*
X38348741Y48318013D01*
X38598946Y48214118D01*
X38869865Y48213882D01*
X39120252Y48317339D01*
X39311987Y48508741D01*
X39415882Y48758946D01*
X39415968Y48857548D01*
X40042387Y49483967D01*
X40139865Y49483882D01*
X40390252Y49587339D01*
X40581987Y49778741D01*
X40685882Y50028946D01*
X40686118Y50299865D01*
X40582661Y50550252D01*
X40391259Y50741987D01*
X40141054Y50845882D01*
X39870135Y50846118D01*
X39619748Y50742661D01*
X39428013Y50551259D01*
X39324118Y50301054D01*
X39324032Y50202452D01*
X38697613Y49576033D01*
X38600135Y49576118D01*
X38349748Y49472661D01*
X38158013Y49281259D01*
X38054118Y49031054D01*
X38053882Y48760135D01*
X456000Y48760135D01*
X456000Y51935135D01*
X24083882Y51935135D01*
X24187339Y51684748D01*
X24257000Y51614966D01*
X24257000Y50944926D01*
X24188013Y50876059D01*
X24084118Y50625854D01*
X24083882Y50354935D01*
X24187339Y50104548D01*
X24378741Y49912813D01*
X24628946Y49808918D01*
X24899865Y49808682D01*
X25150252Y49912139D01*
X25341987Y50103541D01*
X25445882Y50353746D01*
X25446118Y50624665D01*
X25342661Y50875052D01*
X25273000Y50944834D01*
X25273000Y51300135D01*
X34243882Y51300135D01*
X34347339Y51049748D01*
X34538741Y50858013D01*
X34788946Y50754118D01*
X35059865Y50753882D01*
X35310252Y50857339D01*
X35380034Y50927000D01*
X37465000Y50927000D01*
X37659403Y50965669D01*
X37824210Y51075790D01*
X38137387Y51388967D01*
X38234865Y51388882D01*
X38485252Y51492339D01*
X38676987Y51683741D01*
X38780882Y51933946D01*
X38781118Y52204865D01*
X38677661Y52455252D01*
X38486259Y52646987D01*
X38236054Y52750882D01*
X37965135Y52751118D01*
X37714748Y52647661D01*
X37523013Y52456259D01*
X37419118Y52206054D01*
X37419032Y52107453D01*
X37254580Y51943000D01*
X35380126Y51943000D01*
X35311259Y52011987D01*
X35061054Y52115882D01*
X34790135Y52116118D01*
X34539748Y52012661D01*
X34348013Y51821259D01*
X34244118Y51571054D01*
X34243882Y51300135D01*
X25273000Y51300135D01*
X25273000Y51614874D01*
X25341987Y51683741D01*
X25445882Y51933946D01*
X25446118Y52204865D01*
X25342661Y52455252D01*
X25151259Y52646987D01*
X24901054Y52750882D01*
X24630135Y52751118D01*
X24379748Y52647661D01*
X24188013Y52456259D01*
X24084118Y52206054D01*
X24083882Y51935135D01*
X456000Y51935135D01*
X456000Y55110135D01*
X39983580Y55110135D01*
X40087037Y54859748D01*
X40232939Y54713592D01*
X40232939Y53795126D01*
X40163952Y53726259D01*
X40060057Y53476054D01*
X40059821Y53205135D01*
X40163278Y52954748D01*
X40354680Y52763013D01*
X40604885Y52659118D01*
X40875804Y52658882D01*
X41126191Y52762339D01*
X41317926Y52953741D01*
X41421821Y53203946D01*
X41421822Y53205135D01*
X45038882Y53205135D01*
X45142339Y52954748D01*
X45212000Y52884966D01*
X45212000Y51255126D01*
X45143013Y51186259D01*
X45039118Y50936054D01*
X45038882Y50665135D01*
X45142339Y50414748D01*
X45333741Y50223013D01*
X45583946Y50119118D01*
X45854865Y50118882D01*
X46105252Y50222339D01*
X46296987Y50413741D01*
X46400882Y50663946D01*
X46401118Y50934865D01*
X46297661Y51185252D01*
X46228000Y51255034D01*
X46228000Y52884874D01*
X46296987Y52953741D01*
X46400882Y53203946D01*
X46401118Y53474865D01*
X46297661Y53725252D01*
X46106259Y53916987D01*
X45856054Y54020882D01*
X45585135Y54021118D01*
X45334748Y53917661D01*
X45143013Y53726259D01*
X45039118Y53476054D01*
X45038882Y53205135D01*
X41421822Y53205135D01*
X41422057Y53474865D01*
X41318600Y53725252D01*
X41248939Y53795034D01*
X41248939Y54876210D01*
X41345580Y55108946D01*
X41345816Y55379865D01*
X41242359Y55630252D01*
X41050957Y55821987D01*
X40800752Y55925882D01*
X40529833Y55926118D01*
X40279446Y55822661D01*
X40087711Y55631259D01*
X39983816Y55381054D01*
X39983580Y55110135D01*
X456000Y55110135D01*
X456000Y57778254D01*
X20145763Y57778254D01*
X20249220Y57527867D01*
X20440622Y57336132D01*
X20574096Y57280708D01*
X20574096Y56841012D01*
X20505109Y56772145D01*
X20401214Y56521940D01*
X20400978Y56251021D01*
X20504435Y56000634D01*
X20695837Y55808899D01*
X20946042Y55705004D01*
X21216961Y55704768D01*
X21467348Y55808225D01*
X21659083Y55999627D01*
X21762978Y56249832D01*
X21763214Y56520751D01*
X21659757Y56771138D01*
X21590096Y56840920D01*
X21590096Y57657904D01*
X21551427Y57852307D01*
X21510794Y57913119D01*
X21507885Y57917472D01*
X21507999Y58047984D01*
X21404542Y58298371D01*
X21213140Y58490106D01*
X20962935Y58594001D01*
X20692016Y58594237D01*
X20441629Y58490780D01*
X20249894Y58299378D01*
X20145999Y58049173D01*
X20145763Y57778254D01*
X456000Y57778254D01*
X456000Y59555135D01*
X27893882Y59555135D01*
X27997339Y59304748D01*
X28188741Y59113013D01*
X28438946Y59009118D01*
X28709865Y59008882D01*
X28960252Y59112339D01*
X29151987Y59303741D01*
X29255882Y59553946D01*
X29255968Y59652548D01*
X29882387Y60278967D01*
X29979865Y60278882D01*
X30230252Y60382339D01*
X30421987Y60573741D01*
X30525882Y60823946D01*
X30526118Y61094865D01*
X30422661Y61345252D01*
X30231259Y61536987D01*
X29981054Y61640882D01*
X29710135Y61641118D01*
X29459748Y61537661D01*
X29268013Y61346259D01*
X29164118Y61096054D01*
X29164032Y60997452D01*
X28537613Y60371033D01*
X28440135Y60371118D01*
X28189748Y60267661D01*
X27998013Y60076259D01*
X27894118Y59826054D01*
X27893882Y59555135D01*
X456000Y59555135D01*
X456000Y62730135D01*
X34243882Y62730135D01*
X34347339Y62479748D01*
X34417000Y62409966D01*
X34417000Y62050126D01*
X34348013Y61981259D01*
X34244118Y61731054D01*
X34243882Y61460135D01*
X34347339Y61209748D01*
X34538741Y61018013D01*
X34788946Y60914118D01*
X35059865Y60913882D01*
X35310252Y61017339D01*
X35501987Y61208741D01*
X35605882Y61458946D01*
X35605883Y61460135D01*
X37184076Y61460135D01*
X37287533Y61209748D01*
X37478935Y61018013D01*
X37729140Y60914118D01*
X38000059Y60913882D01*
X38241682Y61013718D01*
X38481543Y60914118D01*
X38752462Y60913882D01*
X38994085Y61013718D01*
X39233946Y60914118D01*
X39504865Y60913882D01*
X39746488Y61013718D01*
X39986349Y60914118D01*
X40257268Y60913882D01*
X40498891Y61013718D01*
X40738752Y60914118D01*
X41009671Y60913882D01*
X41260058Y61017339D01*
X41343487Y61100623D01*
X41469403Y61125669D01*
X41634210Y61235790D01*
X42493555Y62095135D01*
X44403882Y62095135D01*
X44507339Y61844748D01*
X44577000Y61774966D01*
X44577000Y60145126D01*
X44508013Y60076259D01*
X44404118Y59826054D01*
X44403882Y59555135D01*
X44507339Y59304748D01*
X44698741Y59113013D01*
X44948946Y59009118D01*
X45219865Y59008882D01*
X45470252Y59112339D01*
X45661987Y59303741D01*
X45765882Y59553946D01*
X45766118Y59824865D01*
X45662661Y60075252D01*
X45593000Y60145034D01*
X45593000Y61774874D01*
X45661987Y61843741D01*
X45765882Y62093946D01*
X45766118Y62364865D01*
X45662661Y62615252D01*
X45471259Y62806987D01*
X45221054Y62910882D01*
X44950135Y62911118D01*
X44699748Y62807661D01*
X44508013Y62616259D01*
X44404118Y62366054D01*
X44403882Y62095135D01*
X42493555Y62095135D01*
X42582387Y62183967D01*
X42679865Y62183882D01*
X42930252Y62287339D01*
X43121987Y62478741D01*
X43225882Y62728946D01*
X43226118Y62999865D01*
X43122661Y63250252D01*
X42931259Y63441987D01*
X42681054Y63545882D01*
X42410135Y63546118D01*
X42159748Y63442661D01*
X41968013Y63251259D01*
X41909986Y63111515D01*
X41852661Y63250252D01*
X41661259Y63441987D01*
X41411054Y63545882D01*
X41140135Y63546118D01*
X40889748Y63442661D01*
X40698013Y63251259D01*
X40639986Y63111515D01*
X40582661Y63250252D01*
X40391259Y63441987D01*
X40141054Y63545882D01*
X40051041Y63545960D01*
X40051118Y63634865D01*
X39947661Y63885252D01*
X39756259Y64076987D01*
X39506054Y64180882D01*
X39235135Y64181118D01*
X38984748Y64077661D01*
X38914966Y64008000D01*
X38512486Y64008000D01*
X38318082Y63969331D01*
X38153276Y63859210D01*
X37505984Y63211918D01*
X37395863Y63047111D01*
X37357194Y62852708D01*
X37357194Y62050126D01*
X37288207Y61981259D01*
X37184312Y61731054D01*
X37184076Y61460135D01*
X35605883Y61460135D01*
X35606118Y61729865D01*
X35502661Y61980252D01*
X35433000Y62050034D01*
X35433000Y62409874D01*
X35501987Y62478741D01*
X35605882Y62728946D01*
X35606118Y62999865D01*
X35502661Y63250252D01*
X35311259Y63441987D01*
X35061054Y63545882D01*
X34790135Y63546118D01*
X34539748Y63442661D01*
X34348013Y63251259D01*
X34244118Y63001054D01*
X34243882Y62730135D01*
X456000Y62730135D01*
X456000Y66555000D01*
X3541536Y66555000D01*
X3541536Y64255000D01*
X3568103Y64113810D01*
X3651546Y63984135D01*
X3778866Y63897141D01*
X3930000Y63866536D01*
X6230000Y63866536D01*
X6371190Y63893103D01*
X6500865Y63976546D01*
X6583098Y64096898D01*
X6679592Y64000236D01*
X7288757Y63747289D01*
X7948350Y63746713D01*
X8557955Y63998597D01*
X9024764Y64464592D01*
X9277711Y65073757D01*
X9277882Y65270135D01*
X48726682Y65270135D01*
X48830139Y65019748D01*
X49021541Y64828013D01*
X49161285Y64769986D01*
X49022548Y64712661D01*
X48830813Y64521259D01*
X48726918Y64271054D01*
X48726682Y64000135D01*
X48830139Y63749748D01*
X49021541Y63558013D01*
X49161285Y63499986D01*
X49022548Y63442661D01*
X48830813Y63251259D01*
X48726918Y63001054D01*
X48726682Y62730135D01*
X48830139Y62479748D01*
X49021541Y62288013D01*
X49271746Y62184118D01*
X49542665Y62183882D01*
X49793052Y62287339D01*
X49862834Y62357000D01*
X50467074Y62357000D01*
X50535941Y62288013D01*
X50786146Y62184118D01*
X51057065Y62183882D01*
X51307452Y62287339D01*
X51499187Y62478741D01*
X51603082Y62728946D01*
X51603318Y62999865D01*
X51499861Y63250252D01*
X51308459Y63441987D01*
X51168715Y63500014D01*
X51307452Y63557339D01*
X51499187Y63748741D01*
X51603082Y63998946D01*
X51603318Y64269865D01*
X51499861Y64520252D01*
X51308459Y64711987D01*
X51168715Y64770014D01*
X51307452Y64827339D01*
X51499187Y65018741D01*
X51603082Y65268946D01*
X51603318Y65539865D01*
X51499861Y65790252D01*
X51308459Y65981987D01*
X51058254Y66085882D01*
X50787335Y66086118D01*
X50536948Y65982661D01*
X50467166Y65913000D01*
X49862926Y65913000D01*
X49794059Y65981987D01*
X49543854Y66085882D01*
X49272935Y66086118D01*
X49022548Y65982661D01*
X48830813Y65791259D01*
X48726918Y65541054D01*
X48726682Y65270135D01*
X9277882Y65270135D01*
X9278287Y65733350D01*
X9026403Y66342955D01*
X8560408Y66809764D01*
X7951243Y67062711D01*
X7291650Y67063287D01*
X6682045Y66811403D01*
X6582015Y66711547D01*
X6508454Y66825865D01*
X6381134Y66912859D01*
X6230000Y66943464D01*
X3930000Y66943464D01*
X3788810Y66916897D01*
X3659135Y66833454D01*
X3572141Y66706134D01*
X3541536Y66555000D01*
X456000Y66555000D01*
X456000Y68160000D01*
X32416536Y68160000D01*
X32416536Y66460000D01*
X32443103Y66318810D01*
X32526546Y66189135D01*
X32653866Y66102141D01*
X32805000Y66071536D01*
X34505000Y66071536D01*
X34646190Y66098103D01*
X34775865Y66181546D01*
X34862859Y66308866D01*
X34893464Y66460000D01*
X34893464Y67334117D01*
X34964000Y67334117D01*
X34964000Y67285883D01*
X35057704Y66814800D01*
X35324552Y66415435D01*
X35723917Y66148587D01*
X36195000Y66054883D01*
X36666083Y66148587D01*
X37065448Y66415435D01*
X37332296Y66814800D01*
X37401253Y67161469D01*
X37480372Y66763711D01*
X37774749Y66323144D01*
X38215316Y66028767D01*
X38735000Y65925395D01*
X39254684Y66028767D01*
X39695251Y66323144D01*
X39989628Y66763711D01*
X40068747Y67161469D01*
X40137704Y66814800D01*
X40404552Y66415435D01*
X40803917Y66148587D01*
X41275000Y66054883D01*
X41746083Y66148587D01*
X42145448Y66415435D01*
X42412296Y66814800D01*
X42506000Y67285883D01*
X42506000Y67334117D01*
X42584000Y67334117D01*
X42584000Y67285883D01*
X42677704Y66814800D01*
X42944552Y66415435D01*
X43343917Y66148587D01*
X43815000Y66054883D01*
X44286083Y66148587D01*
X44685448Y66415435D01*
X44952296Y66814800D01*
X45046000Y67285883D01*
X45046000Y67334117D01*
X45124000Y67334117D01*
X45124000Y67285883D01*
X45217704Y66814800D01*
X45484552Y66415435D01*
X45883917Y66148587D01*
X46355000Y66054883D01*
X46826083Y66148587D01*
X47225448Y66415435D01*
X47492296Y66814800D01*
X47586000Y67285883D01*
X47586000Y67334117D01*
X47492296Y67805200D01*
X47225448Y68204565D01*
X46826083Y68471413D01*
X46355000Y68565117D01*
X45883917Y68471413D01*
X45484552Y68204565D01*
X45217704Y67805200D01*
X45124000Y67334117D01*
X45046000Y67334117D01*
X44952296Y67805200D01*
X44685448Y68204565D01*
X44286083Y68471413D01*
X43815000Y68565117D01*
X43343917Y68471413D01*
X42944552Y68204565D01*
X42677704Y67805200D01*
X42584000Y67334117D01*
X42506000Y67334117D01*
X42412296Y67805200D01*
X42145448Y68204565D01*
X41746083Y68471413D01*
X41275000Y68565117D01*
X40803917Y68471413D01*
X40404552Y68204565D01*
X40137704Y67805200D01*
X40068747Y67458531D01*
X39989628Y67856289D01*
X39695251Y68296856D01*
X39254684Y68591233D01*
X38735000Y68694605D01*
X38215316Y68591233D01*
X37774749Y68296856D01*
X37480372Y67856289D01*
X37401253Y67458531D01*
X37332296Y67805200D01*
X37065448Y68204565D01*
X36666083Y68471413D01*
X36195000Y68565117D01*
X35723917Y68471413D01*
X35324552Y68204565D01*
X35057704Y67805200D01*
X34964000Y67334117D01*
X34893464Y67334117D01*
X34893464Y68160000D01*
X34866897Y68301190D01*
X34783454Y68430865D01*
X34656134Y68517859D01*
X34505000Y68548464D01*
X32805000Y68548464D01*
X32663810Y68521897D01*
X32534135Y68438454D01*
X32447141Y68311134D01*
X32416536Y68160000D01*
X456000Y68160000D01*
X456000Y71544000D01*
X79544000Y71544000D01*
X79544000Y456000D01*
M02*
