G04 #@! TF.FileFunction,Legend,Top*
%FSLAX46Y46*%
G04 Gerber Fmt 4.6, Leading zero omitted, Abs format (unit mm)*
G04 Created by KiCad (PCBNEW 4.0.2+dfsg1-stable) date Tue 14 Aug 2018 06:50:16 PM EDT*
%MOMM*%
G01*
G04 APERTURE LIST*
%ADD10C,0.127000*%
%ADD11C,0.203200*%
%ADD12C,0.200000*%
%ADD13C,0.304800*%
%ADD14C,0.300000*%
%ADD15C,0.152400*%
%ADD16C,0.120000*%
%ADD17C,0.150000*%
%ADD18C,0.100000*%
%ADD19C,0.010000*%
G04 APERTURE END LIST*
D10*
D11*
X44220191Y64310381D02*
X44220191Y65326381D01*
X44655620Y64358762D02*
X44800763Y64310381D01*
X45042667Y64310381D01*
X45139429Y64358762D01*
X45187810Y64407143D01*
X45236191Y64503905D01*
X45236191Y64600667D01*
X45187810Y64697429D01*
X45139429Y64745810D01*
X45042667Y64794190D01*
X44849144Y64842571D01*
X44752382Y64890952D01*
X44704001Y64939333D01*
X44655620Y65036095D01*
X44655620Y65132857D01*
X44704001Y65229619D01*
X44752382Y65278000D01*
X44849144Y65326381D01*
X45091048Y65326381D01*
X45236191Y65278000D01*
X46252191Y64407143D02*
X46203810Y64358762D01*
X46058667Y64310381D01*
X45961905Y64310381D01*
X45816763Y64358762D01*
X45720001Y64455524D01*
X45671620Y64552286D01*
X45623239Y64745810D01*
X45623239Y64890952D01*
X45671620Y65084476D01*
X45720001Y65181238D01*
X45816763Y65278000D01*
X45961905Y65326381D01*
X46058667Y65326381D01*
X46203810Y65278000D01*
X46252191Y65229619D01*
X46687620Y64310381D02*
X46687620Y65326381D01*
X47074667Y65326381D01*
X47171429Y65278000D01*
X47219810Y65229619D01*
X47268191Y65132857D01*
X47268191Y64987714D01*
X47219810Y64890952D01*
X47171429Y64842571D01*
X47074667Y64794190D01*
X46687620Y64794190D01*
D12*
X39586026Y61245500D02*
G75*
G03X39586026Y61245500I-898026J0D01*
G01*
X42427026Y47244000D02*
G75*
G03X42427026Y47244000I-898026J0D01*
G01*
X43180000Y3556000D02*
X43180000Y20320000D01*
X53975000Y10160000D02*
X53975000Y20320000D01*
X32385000Y10160000D02*
X32385000Y20320000D01*
D13*
X55245000Y17217571D02*
X55245000Y18741571D01*
X55970714Y18233571D02*
X55970714Y17217571D01*
X55970714Y18088429D02*
X56043286Y18161000D01*
X56188428Y18233571D01*
X56406143Y18233571D01*
X56551286Y18161000D01*
X56623857Y18015857D01*
X56623857Y17217571D01*
X57349571Y18233571D02*
X57349571Y16709571D01*
X57349571Y18161000D02*
X57494714Y18233571D01*
X57785000Y18233571D01*
X57930143Y18161000D01*
X58002714Y18088429D01*
X58075285Y17943286D01*
X58075285Y17507857D01*
X58002714Y17362714D01*
X57930143Y17290143D01*
X57785000Y17217571D01*
X57494714Y17217571D01*
X57349571Y17290143D01*
X59381571Y18233571D02*
X59381571Y17217571D01*
X58728428Y18233571D02*
X58728428Y17435286D01*
X58801000Y17290143D01*
X58946142Y17217571D01*
X59163857Y17217571D01*
X59309000Y17290143D01*
X59381571Y17362714D01*
X59889571Y18233571D02*
X60470142Y18233571D01*
X60107285Y18741571D02*
X60107285Y17435286D01*
X60179857Y17290143D01*
X60324999Y17217571D01*
X60470142Y17217571D01*
X62792428Y18233571D02*
X62792428Y17217571D01*
X62429571Y18814143D02*
X62066714Y17725571D01*
X63010142Y17725571D01*
X45085000Y17217571D02*
X45085000Y18741571D01*
X45810714Y18233571D02*
X45810714Y17217571D01*
X45810714Y18088429D02*
X45883286Y18161000D01*
X46028428Y18233571D01*
X46246143Y18233571D01*
X46391286Y18161000D01*
X46463857Y18015857D01*
X46463857Y17217571D01*
X47189571Y18233571D02*
X47189571Y16709571D01*
X47189571Y18161000D02*
X47334714Y18233571D01*
X47625000Y18233571D01*
X47770143Y18161000D01*
X47842714Y18088429D01*
X47915285Y17943286D01*
X47915285Y17507857D01*
X47842714Y17362714D01*
X47770143Y17290143D01*
X47625000Y17217571D01*
X47334714Y17217571D01*
X47189571Y17290143D01*
X49221571Y18233571D02*
X49221571Y17217571D01*
X48568428Y18233571D02*
X48568428Y17435286D01*
X48641000Y17290143D01*
X48786142Y17217571D01*
X49003857Y17217571D01*
X49149000Y17290143D01*
X49221571Y17362714D01*
X49729571Y18233571D02*
X50310142Y18233571D01*
X49947285Y18741571D02*
X49947285Y17435286D01*
X50019857Y17290143D01*
X50164999Y17217571D01*
X50310142Y17217571D01*
X51834142Y18741571D02*
X52777571Y18741571D01*
X52269571Y18161000D01*
X52487285Y18161000D01*
X52632428Y18088429D01*
X52704999Y18015857D01*
X52777571Y17870714D01*
X52777571Y17507857D01*
X52704999Y17362714D01*
X52632428Y17290143D01*
X52487285Y17217571D01*
X52051857Y17217571D01*
X51906714Y17290143D01*
X51834142Y17362714D01*
X33655000Y17217571D02*
X33655000Y18741571D01*
X34380714Y18233571D02*
X34380714Y17217571D01*
X34380714Y18088429D02*
X34453286Y18161000D01*
X34598428Y18233571D01*
X34816143Y18233571D01*
X34961286Y18161000D01*
X35033857Y18015857D01*
X35033857Y17217571D01*
X35759571Y18233571D02*
X35759571Y16709571D01*
X35759571Y18161000D02*
X35904714Y18233571D01*
X36195000Y18233571D01*
X36340143Y18161000D01*
X36412714Y18088429D01*
X36485285Y17943286D01*
X36485285Y17507857D01*
X36412714Y17362714D01*
X36340143Y17290143D01*
X36195000Y17217571D01*
X35904714Y17217571D01*
X35759571Y17290143D01*
X37791571Y18233571D02*
X37791571Y17217571D01*
X37138428Y18233571D02*
X37138428Y17435286D01*
X37211000Y17290143D01*
X37356142Y17217571D01*
X37573857Y17217571D01*
X37719000Y17290143D01*
X37791571Y17362714D01*
X38299571Y18233571D02*
X38880142Y18233571D01*
X38517285Y18741571D02*
X38517285Y17435286D01*
X38589857Y17290143D01*
X38734999Y17217571D01*
X38880142Y17217571D01*
X40476714Y18596429D02*
X40549285Y18669000D01*
X40694428Y18741571D01*
X41057285Y18741571D01*
X41202428Y18669000D01*
X41274999Y18596429D01*
X41347571Y18451286D01*
X41347571Y18306143D01*
X41274999Y18088429D01*
X40404142Y17217571D01*
X41347571Y17217571D01*
X23495000Y17217571D02*
X23495000Y18741571D01*
X24220714Y18233571D02*
X24220714Y17217571D01*
X24220714Y18088429D02*
X24293286Y18161000D01*
X24438428Y18233571D01*
X24656143Y18233571D01*
X24801286Y18161000D01*
X24873857Y18015857D01*
X24873857Y17217571D01*
X25599571Y18233571D02*
X25599571Y16709571D01*
X25599571Y18161000D02*
X25744714Y18233571D01*
X26035000Y18233571D01*
X26180143Y18161000D01*
X26252714Y18088429D01*
X26325285Y17943286D01*
X26325285Y17507857D01*
X26252714Y17362714D01*
X26180143Y17290143D01*
X26035000Y17217571D01*
X25744714Y17217571D01*
X25599571Y17290143D01*
X27631571Y18233571D02*
X27631571Y17217571D01*
X26978428Y18233571D02*
X26978428Y17435286D01*
X27051000Y17290143D01*
X27196142Y17217571D01*
X27413857Y17217571D01*
X27559000Y17290143D01*
X27631571Y17362714D01*
X28139571Y18233571D02*
X28720142Y18233571D01*
X28357285Y18741571D02*
X28357285Y17435286D01*
X28429857Y17290143D01*
X28574999Y17217571D01*
X28720142Y17217571D01*
X31187571Y17217571D02*
X30316714Y17217571D01*
X30752142Y17217571D02*
X30752142Y18741571D01*
X30606999Y18523857D01*
X30461857Y18378714D01*
X30316714Y18306143D01*
D11*
X55335714Y10583334D02*
X55335714Y11550953D01*
X55819524Y11067143D02*
X54851905Y11067143D01*
X54549524Y12760477D02*
X54549524Y12155715D01*
X55154286Y12095239D01*
X55093810Y12155715D01*
X55033333Y12276667D01*
X55033333Y12579048D01*
X55093810Y12700001D01*
X55154286Y12760477D01*
X55275238Y12820953D01*
X55577619Y12820953D01*
X55698571Y12760477D01*
X55759048Y12700001D01*
X55819524Y12579048D01*
X55819524Y12276667D01*
X55759048Y12155715D01*
X55698571Y12095239D01*
X54549524Y13183810D02*
X55819524Y13607144D01*
X54549524Y14030477D01*
X55819524Y14998096D02*
X54549524Y14998096D01*
X55759048Y14998096D02*
X55819524Y14877143D01*
X55819524Y14635239D01*
X55759048Y14514286D01*
X55698571Y14453810D01*
X55577619Y14393334D01*
X55214762Y14393334D01*
X55093810Y14453810D01*
X55033333Y14514286D01*
X54972857Y14635239D01*
X54972857Y14877143D01*
X55033333Y14998096D01*
X55759048Y16147144D02*
X55819524Y16026191D01*
X55819524Y15784287D01*
X55759048Y15663334D01*
X55698571Y15602858D01*
X55577619Y15542382D01*
X55214762Y15542382D01*
X55093810Y15602858D01*
X55033333Y15663334D01*
X54972857Y15784287D01*
X54972857Y16026191D01*
X55033333Y16147144D01*
X45175714Y10583334D02*
X45175714Y11550953D01*
X45659524Y11067143D02*
X44691905Y11067143D01*
X44389524Y12760477D02*
X44389524Y12155715D01*
X44994286Y12095239D01*
X44933810Y12155715D01*
X44873333Y12276667D01*
X44873333Y12579048D01*
X44933810Y12700001D01*
X44994286Y12760477D01*
X45115238Y12820953D01*
X45417619Y12820953D01*
X45538571Y12760477D01*
X45599048Y12700001D01*
X45659524Y12579048D01*
X45659524Y12276667D01*
X45599048Y12155715D01*
X45538571Y12095239D01*
X44389524Y13183810D02*
X45659524Y13607144D01*
X44389524Y14030477D01*
X45659524Y14998096D02*
X44389524Y14998096D01*
X45599048Y14998096D02*
X45659524Y14877143D01*
X45659524Y14635239D01*
X45599048Y14514286D01*
X45538571Y14453810D01*
X45417619Y14393334D01*
X45054762Y14393334D01*
X44933810Y14453810D01*
X44873333Y14514286D01*
X44812857Y14635239D01*
X44812857Y14877143D01*
X44873333Y14998096D01*
X45599048Y16147144D02*
X45659524Y16026191D01*
X45659524Y15784287D01*
X45599048Y15663334D01*
X45538571Y15602858D01*
X45417619Y15542382D01*
X45054762Y15542382D01*
X44933810Y15602858D01*
X44873333Y15663334D01*
X44812857Y15784287D01*
X44812857Y16026191D01*
X44873333Y16147144D01*
X33745714Y10583334D02*
X33745714Y11550953D01*
X34229524Y11067143D02*
X33261905Y11067143D01*
X32959524Y12760477D02*
X32959524Y12155715D01*
X33564286Y12095239D01*
X33503810Y12155715D01*
X33443333Y12276667D01*
X33443333Y12579048D01*
X33503810Y12700001D01*
X33564286Y12760477D01*
X33685238Y12820953D01*
X33987619Y12820953D01*
X34108571Y12760477D01*
X34169048Y12700001D01*
X34229524Y12579048D01*
X34229524Y12276667D01*
X34169048Y12155715D01*
X34108571Y12095239D01*
X32959524Y13183810D02*
X34229524Y13607144D01*
X32959524Y14030477D01*
X34229524Y14998096D02*
X32959524Y14998096D01*
X34169048Y14998096D02*
X34229524Y14877143D01*
X34229524Y14635239D01*
X34169048Y14514286D01*
X34108571Y14453810D01*
X33987619Y14393334D01*
X33624762Y14393334D01*
X33503810Y14453810D01*
X33443333Y14514286D01*
X33382857Y14635239D01*
X33382857Y14877143D01*
X33443333Y14998096D01*
X34169048Y16147144D02*
X34229524Y16026191D01*
X34229524Y15784287D01*
X34169048Y15663334D01*
X34108571Y15602858D01*
X33987619Y15542382D01*
X33624762Y15542382D01*
X33503810Y15602858D01*
X33443333Y15663334D01*
X33382857Y15784287D01*
X33382857Y16026191D01*
X33443333Y16147144D01*
X27940000Y11248571D02*
X27879524Y11127619D01*
X27879524Y10946190D01*
X27940000Y10764762D01*
X28060952Y10643809D01*
X28181905Y10583333D01*
X28423810Y10522857D01*
X28605238Y10522857D01*
X28847143Y10583333D01*
X28968095Y10643809D01*
X29089048Y10764762D01*
X29149524Y10946190D01*
X29149524Y11067142D01*
X29089048Y11248571D01*
X29028571Y11309047D01*
X28605238Y11309047D01*
X28605238Y11067142D01*
X28302857Y11853333D02*
X29149524Y11853333D01*
X28423810Y11853333D02*
X28363333Y11913809D01*
X28302857Y12034762D01*
X28302857Y12216190D01*
X28363333Y12337142D01*
X28484286Y12397619D01*
X29149524Y12397619D01*
X29149524Y13546667D02*
X27879524Y13546667D01*
X29089048Y13546667D02*
X29149524Y13425714D01*
X29149524Y13183810D01*
X29089048Y13062857D01*
X29028571Y13002381D01*
X28907619Y12941905D01*
X28544762Y12941905D01*
X28423810Y13002381D01*
X28363333Y13062857D01*
X28302857Y13183810D01*
X28302857Y13425714D01*
X28363333Y13546667D01*
X38100000Y11248571D02*
X38039524Y11127619D01*
X38039524Y10946190D01*
X38100000Y10764762D01*
X38220952Y10643809D01*
X38341905Y10583333D01*
X38583810Y10522857D01*
X38765238Y10522857D01*
X39007143Y10583333D01*
X39128095Y10643809D01*
X39249048Y10764762D01*
X39309524Y10946190D01*
X39309524Y11067142D01*
X39249048Y11248571D01*
X39188571Y11309047D01*
X38765238Y11309047D01*
X38765238Y11067142D01*
X38462857Y11853333D02*
X39309524Y11853333D01*
X38583810Y11853333D02*
X38523333Y11913809D01*
X38462857Y12034762D01*
X38462857Y12216190D01*
X38523333Y12337142D01*
X38644286Y12397619D01*
X39309524Y12397619D01*
X39309524Y13546667D02*
X38039524Y13546667D01*
X39249048Y13546667D02*
X39309524Y13425714D01*
X39309524Y13183810D01*
X39249048Y13062857D01*
X39188571Y13002381D01*
X39067619Y12941905D01*
X38704762Y12941905D01*
X38583810Y13002381D01*
X38523333Y13062857D01*
X38462857Y13183810D01*
X38462857Y13425714D01*
X38523333Y13546667D01*
X49530000Y11248571D02*
X49469524Y11127619D01*
X49469524Y10946190D01*
X49530000Y10764762D01*
X49650952Y10643809D01*
X49771905Y10583333D01*
X50013810Y10522857D01*
X50195238Y10522857D01*
X50437143Y10583333D01*
X50558095Y10643809D01*
X50679048Y10764762D01*
X50739524Y10946190D01*
X50739524Y11067142D01*
X50679048Y11248571D01*
X50618571Y11309047D01*
X50195238Y11309047D01*
X50195238Y11067142D01*
X49892857Y11853333D02*
X50739524Y11853333D01*
X50013810Y11853333D02*
X49953333Y11913809D01*
X49892857Y12034762D01*
X49892857Y12216190D01*
X49953333Y12337142D01*
X50074286Y12397619D01*
X50739524Y12397619D01*
X50739524Y13546667D02*
X49469524Y13546667D01*
X50679048Y13546667D02*
X50739524Y13425714D01*
X50739524Y13183810D01*
X50679048Y13062857D01*
X50618571Y13002381D01*
X50497619Y12941905D01*
X50134762Y12941905D01*
X50013810Y13002381D01*
X49953333Y13062857D01*
X49892857Y13183810D01*
X49892857Y13425714D01*
X49953333Y13546667D01*
X58299048Y10613571D02*
X58359524Y10794999D01*
X58359524Y11097380D01*
X58299048Y11218333D01*
X58238571Y11278809D01*
X58117619Y11339285D01*
X57996667Y11339285D01*
X57875714Y11278809D01*
X57815238Y11218333D01*
X57754762Y11097380D01*
X57694286Y10855476D01*
X57633810Y10734523D01*
X57573333Y10674047D01*
X57452381Y10613571D01*
X57331429Y10613571D01*
X57210476Y10674047D01*
X57150000Y10734523D01*
X57089524Y10855476D01*
X57089524Y11157856D01*
X57150000Y11339285D01*
X58359524Y11883571D02*
X57512857Y11883571D01*
X57089524Y11883571D02*
X57150000Y11823095D01*
X57210476Y11883571D01*
X57150000Y11944047D01*
X57089524Y11883571D01*
X57210476Y11883571D01*
X57512857Y13032619D02*
X58540952Y13032619D01*
X58661905Y12972142D01*
X58722381Y12911666D01*
X58782857Y12790714D01*
X58782857Y12609285D01*
X58722381Y12488333D01*
X58299048Y13032619D02*
X58359524Y12911666D01*
X58359524Y12669762D01*
X58299048Y12548809D01*
X58238571Y12488333D01*
X58117619Y12427857D01*
X57754762Y12427857D01*
X57633810Y12488333D01*
X57573333Y12548809D01*
X57512857Y12669762D01*
X57512857Y12911666D01*
X57573333Y13032619D01*
X57512857Y13637381D02*
X58359524Y13637381D01*
X57633810Y13637381D02*
X57573333Y13697857D01*
X57512857Y13818810D01*
X57512857Y14000238D01*
X57573333Y14121190D01*
X57694286Y14181667D01*
X58359524Y14181667D01*
X58359524Y15330715D02*
X57694286Y15330715D01*
X57573333Y15270238D01*
X57512857Y15149286D01*
X57512857Y14907381D01*
X57573333Y14786429D01*
X58299048Y15330715D02*
X58359524Y15209762D01*
X58359524Y14907381D01*
X58299048Y14786429D01*
X58178095Y14725953D01*
X58057143Y14725953D01*
X57936190Y14786429D01*
X57875714Y14907381D01*
X57875714Y15209762D01*
X57815238Y15330715D01*
X58359524Y16116906D02*
X58299048Y15995953D01*
X58178095Y15935477D01*
X57089524Y15935477D01*
X48139048Y10613571D02*
X48199524Y10794999D01*
X48199524Y11097380D01*
X48139048Y11218333D01*
X48078571Y11278809D01*
X47957619Y11339285D01*
X47836667Y11339285D01*
X47715714Y11278809D01*
X47655238Y11218333D01*
X47594762Y11097380D01*
X47534286Y10855476D01*
X47473810Y10734523D01*
X47413333Y10674047D01*
X47292381Y10613571D01*
X47171429Y10613571D01*
X47050476Y10674047D01*
X46990000Y10734523D01*
X46929524Y10855476D01*
X46929524Y11157856D01*
X46990000Y11339285D01*
X48199524Y11883571D02*
X47352857Y11883571D01*
X46929524Y11883571D02*
X46990000Y11823095D01*
X47050476Y11883571D01*
X46990000Y11944047D01*
X46929524Y11883571D01*
X47050476Y11883571D01*
X47352857Y13032619D02*
X48380952Y13032619D01*
X48501905Y12972142D01*
X48562381Y12911666D01*
X48622857Y12790714D01*
X48622857Y12609285D01*
X48562381Y12488333D01*
X48139048Y13032619D02*
X48199524Y12911666D01*
X48199524Y12669762D01*
X48139048Y12548809D01*
X48078571Y12488333D01*
X47957619Y12427857D01*
X47594762Y12427857D01*
X47473810Y12488333D01*
X47413333Y12548809D01*
X47352857Y12669762D01*
X47352857Y12911666D01*
X47413333Y13032619D01*
X47352857Y13637381D02*
X48199524Y13637381D01*
X47473810Y13637381D02*
X47413333Y13697857D01*
X47352857Y13818810D01*
X47352857Y14000238D01*
X47413333Y14121190D01*
X47534286Y14181667D01*
X48199524Y14181667D01*
X48199524Y15330715D02*
X47534286Y15330715D01*
X47413333Y15270238D01*
X47352857Y15149286D01*
X47352857Y14907381D01*
X47413333Y14786429D01*
X48139048Y15330715D02*
X48199524Y15209762D01*
X48199524Y14907381D01*
X48139048Y14786429D01*
X48018095Y14725953D01*
X47897143Y14725953D01*
X47776190Y14786429D01*
X47715714Y14907381D01*
X47715714Y15209762D01*
X47655238Y15330715D01*
X48199524Y16116906D02*
X48139048Y15995953D01*
X48018095Y15935477D01*
X46929524Y15935477D01*
X36709048Y10613571D02*
X36769524Y10794999D01*
X36769524Y11097380D01*
X36709048Y11218333D01*
X36648571Y11278809D01*
X36527619Y11339285D01*
X36406667Y11339285D01*
X36285714Y11278809D01*
X36225238Y11218333D01*
X36164762Y11097380D01*
X36104286Y10855476D01*
X36043810Y10734523D01*
X35983333Y10674047D01*
X35862381Y10613571D01*
X35741429Y10613571D01*
X35620476Y10674047D01*
X35560000Y10734523D01*
X35499524Y10855476D01*
X35499524Y11157856D01*
X35560000Y11339285D01*
X36769524Y11883571D02*
X35922857Y11883571D01*
X35499524Y11883571D02*
X35560000Y11823095D01*
X35620476Y11883571D01*
X35560000Y11944047D01*
X35499524Y11883571D01*
X35620476Y11883571D01*
X35922857Y13032619D02*
X36950952Y13032619D01*
X37071905Y12972142D01*
X37132381Y12911666D01*
X37192857Y12790714D01*
X37192857Y12609285D01*
X37132381Y12488333D01*
X36709048Y13032619D02*
X36769524Y12911666D01*
X36769524Y12669762D01*
X36709048Y12548809D01*
X36648571Y12488333D01*
X36527619Y12427857D01*
X36164762Y12427857D01*
X36043810Y12488333D01*
X35983333Y12548809D01*
X35922857Y12669762D01*
X35922857Y12911666D01*
X35983333Y13032619D01*
X35922857Y13637381D02*
X36769524Y13637381D01*
X36043810Y13637381D02*
X35983333Y13697857D01*
X35922857Y13818810D01*
X35922857Y14000238D01*
X35983333Y14121190D01*
X36104286Y14181667D01*
X36769524Y14181667D01*
X36769524Y15330715D02*
X36104286Y15330715D01*
X35983333Y15270238D01*
X35922857Y15149286D01*
X35922857Y14907381D01*
X35983333Y14786429D01*
X36709048Y15330715D02*
X36769524Y15209762D01*
X36769524Y14907381D01*
X36709048Y14786429D01*
X36588095Y14725953D01*
X36467143Y14725953D01*
X36346190Y14786429D01*
X36285714Y14907381D01*
X36285714Y15209762D01*
X36225238Y15330715D01*
X36769524Y16116906D02*
X36709048Y15995953D01*
X36588095Y15935477D01*
X35499524Y15935477D01*
X63379048Y10643810D02*
X63439524Y10825238D01*
X63439524Y11127619D01*
X63379048Y11248572D01*
X63318571Y11309048D01*
X63197619Y11369524D01*
X63076667Y11369524D01*
X62955714Y11309048D01*
X62895238Y11248572D01*
X62834762Y11127619D01*
X62774286Y10885715D01*
X62713810Y10764762D01*
X62653333Y10704286D01*
X62532381Y10643810D01*
X62411429Y10643810D01*
X62290476Y10704286D01*
X62230000Y10764762D01*
X62169524Y10885715D01*
X62169524Y11188095D01*
X62230000Y11369524D01*
X63439524Y11913810D02*
X62169524Y11913810D01*
X63439524Y12458096D02*
X62774286Y12458096D01*
X62653333Y12397619D01*
X62592857Y12276667D01*
X62592857Y12095239D01*
X62653333Y11974286D01*
X62713810Y11913810D01*
X63439524Y13062858D02*
X62592857Y13062858D01*
X62169524Y13062858D02*
X62230000Y13002382D01*
X62290476Y13062858D01*
X62230000Y13123334D01*
X62169524Y13062858D01*
X62290476Y13062858D01*
X63379048Y14151429D02*
X63439524Y14030477D01*
X63439524Y13788572D01*
X63379048Y13667620D01*
X63258095Y13607144D01*
X62774286Y13607144D01*
X62653333Y13667620D01*
X62592857Y13788572D01*
X62592857Y14030477D01*
X62653333Y14151429D01*
X62774286Y14211906D01*
X62895238Y14211906D01*
X63016190Y13607144D01*
X63439524Y14937620D02*
X63379048Y14816667D01*
X63258095Y14756191D01*
X62169524Y14756191D01*
X63439524Y15965715D02*
X62169524Y15965715D01*
X63379048Y15965715D02*
X63439524Y15844762D01*
X63439524Y15602858D01*
X63379048Y15481905D01*
X63318571Y15421429D01*
X63197619Y15360953D01*
X62834762Y15360953D01*
X62713810Y15421429D01*
X62653333Y15481905D01*
X62592857Y15602858D01*
X62592857Y15844762D01*
X62653333Y15965715D01*
X53219048Y10643810D02*
X53279524Y10825238D01*
X53279524Y11127619D01*
X53219048Y11248572D01*
X53158571Y11309048D01*
X53037619Y11369524D01*
X52916667Y11369524D01*
X52795714Y11309048D01*
X52735238Y11248572D01*
X52674762Y11127619D01*
X52614286Y10885715D01*
X52553810Y10764762D01*
X52493333Y10704286D01*
X52372381Y10643810D01*
X52251429Y10643810D01*
X52130476Y10704286D01*
X52070000Y10764762D01*
X52009524Y10885715D01*
X52009524Y11188095D01*
X52070000Y11369524D01*
X53279524Y11913810D02*
X52009524Y11913810D01*
X53279524Y12458096D02*
X52614286Y12458096D01*
X52493333Y12397619D01*
X52432857Y12276667D01*
X52432857Y12095239D01*
X52493333Y11974286D01*
X52553810Y11913810D01*
X53279524Y13062858D02*
X52432857Y13062858D01*
X52009524Y13062858D02*
X52070000Y13002382D01*
X52130476Y13062858D01*
X52070000Y13123334D01*
X52009524Y13062858D01*
X52130476Y13062858D01*
X53219048Y14151429D02*
X53279524Y14030477D01*
X53279524Y13788572D01*
X53219048Y13667620D01*
X53098095Y13607144D01*
X52614286Y13607144D01*
X52493333Y13667620D01*
X52432857Y13788572D01*
X52432857Y14030477D01*
X52493333Y14151429D01*
X52614286Y14211906D01*
X52735238Y14211906D01*
X52856190Y13607144D01*
X53279524Y14937620D02*
X53219048Y14816667D01*
X53098095Y14756191D01*
X52009524Y14756191D01*
X53279524Y15965715D02*
X52009524Y15965715D01*
X53219048Y15965715D02*
X53279524Y15844762D01*
X53279524Y15602858D01*
X53219048Y15481905D01*
X53158571Y15421429D01*
X53037619Y15360953D01*
X52674762Y15360953D01*
X52553810Y15421429D01*
X52493333Y15481905D01*
X52432857Y15602858D01*
X52432857Y15844762D01*
X52493333Y15965715D01*
X41789048Y10643810D02*
X41849524Y10825238D01*
X41849524Y11127619D01*
X41789048Y11248572D01*
X41728571Y11309048D01*
X41607619Y11369524D01*
X41486667Y11369524D01*
X41365714Y11309048D01*
X41305238Y11248572D01*
X41244762Y11127619D01*
X41184286Y10885715D01*
X41123810Y10764762D01*
X41063333Y10704286D01*
X40942381Y10643810D01*
X40821429Y10643810D01*
X40700476Y10704286D01*
X40640000Y10764762D01*
X40579524Y10885715D01*
X40579524Y11188095D01*
X40640000Y11369524D01*
X41849524Y11913810D02*
X40579524Y11913810D01*
X41849524Y12458096D02*
X41184286Y12458096D01*
X41063333Y12397619D01*
X41002857Y12276667D01*
X41002857Y12095239D01*
X41063333Y11974286D01*
X41123810Y11913810D01*
X41849524Y13062858D02*
X41002857Y13062858D01*
X40579524Y13062858D02*
X40640000Y13002382D01*
X40700476Y13062858D01*
X40640000Y13123334D01*
X40579524Y13062858D01*
X40700476Y13062858D01*
X41789048Y14151429D02*
X41849524Y14030477D01*
X41849524Y13788572D01*
X41789048Y13667620D01*
X41668095Y13607144D01*
X41184286Y13607144D01*
X41063333Y13667620D01*
X41002857Y13788572D01*
X41002857Y14030477D01*
X41063333Y14151429D01*
X41184286Y14211906D01*
X41305238Y14211906D01*
X41426190Y13607144D01*
X41849524Y14937620D02*
X41789048Y14816667D01*
X41668095Y14756191D01*
X40579524Y14756191D01*
X41849524Y15965715D02*
X40579524Y15965715D01*
X41789048Y15965715D02*
X41849524Y15844762D01*
X41849524Y15602858D01*
X41789048Y15481905D01*
X41728571Y15421429D01*
X41607619Y15360953D01*
X41244762Y15360953D01*
X41123810Y15421429D01*
X41063333Y15481905D01*
X41002857Y15602858D01*
X41002857Y15844762D01*
X41063333Y15965715D01*
X31629048Y10643810D02*
X31689524Y10825238D01*
X31689524Y11127619D01*
X31629048Y11248572D01*
X31568571Y11309048D01*
X31447619Y11369524D01*
X31326667Y11369524D01*
X31205714Y11309048D01*
X31145238Y11248572D01*
X31084762Y11127619D01*
X31024286Y10885715D01*
X30963810Y10764762D01*
X30903333Y10704286D01*
X30782381Y10643810D01*
X30661429Y10643810D01*
X30540476Y10704286D01*
X30480000Y10764762D01*
X30419524Y10885715D01*
X30419524Y11188095D01*
X30480000Y11369524D01*
X31689524Y11913810D02*
X30419524Y11913810D01*
X31689524Y12458096D02*
X31024286Y12458096D01*
X30903333Y12397619D01*
X30842857Y12276667D01*
X30842857Y12095239D01*
X30903333Y11974286D01*
X30963810Y11913810D01*
X31689524Y13062858D02*
X30842857Y13062858D01*
X30419524Y13062858D02*
X30480000Y13002382D01*
X30540476Y13062858D01*
X30480000Y13123334D01*
X30419524Y13062858D01*
X30540476Y13062858D01*
X31629048Y14151429D02*
X31689524Y14030477D01*
X31689524Y13788572D01*
X31629048Y13667620D01*
X31508095Y13607144D01*
X31024286Y13607144D01*
X30903333Y13667620D01*
X30842857Y13788572D01*
X30842857Y14030477D01*
X30903333Y14151429D01*
X31024286Y14211906D01*
X31145238Y14211906D01*
X31266190Y13607144D01*
X31689524Y14937620D02*
X31629048Y14816667D01*
X31508095Y14756191D01*
X30419524Y14756191D01*
X31689524Y15965715D02*
X30419524Y15965715D01*
X31629048Y15965715D02*
X31689524Y15844762D01*
X31689524Y15602858D01*
X31629048Y15481905D01*
X31568571Y15421429D01*
X31447619Y15360953D01*
X31084762Y15360953D01*
X30963810Y15421429D01*
X30903333Y15481905D01*
X30842857Y15602858D01*
X30842857Y15844762D01*
X30903333Y15965715D01*
X59690000Y11248571D02*
X59629524Y11127619D01*
X59629524Y10946190D01*
X59690000Y10764762D01*
X59810952Y10643809D01*
X59931905Y10583333D01*
X60173810Y10522857D01*
X60355238Y10522857D01*
X60597143Y10583333D01*
X60718095Y10643809D01*
X60839048Y10764762D01*
X60899524Y10946190D01*
X60899524Y11067142D01*
X60839048Y11248571D01*
X60778571Y11309047D01*
X60355238Y11309047D01*
X60355238Y11067142D01*
X60052857Y11853333D02*
X60899524Y11853333D01*
X60173810Y11853333D02*
X60113333Y11913809D01*
X60052857Y12034762D01*
X60052857Y12216190D01*
X60113333Y12337142D01*
X60234286Y12397619D01*
X60899524Y12397619D01*
X60899524Y13546667D02*
X59629524Y13546667D01*
X60839048Y13546667D02*
X60899524Y13425714D01*
X60899524Y13183810D01*
X60839048Y13062857D01*
X60778571Y13002381D01*
X60657619Y12941905D01*
X60294762Y12941905D01*
X60173810Y13002381D01*
X60113333Y13062857D01*
X60052857Y13183810D01*
X60052857Y13425714D01*
X60113333Y13546667D01*
X26549048Y10613571D02*
X26609524Y10794999D01*
X26609524Y11097380D01*
X26549048Y11218333D01*
X26488571Y11278809D01*
X26367619Y11339285D01*
X26246667Y11339285D01*
X26125714Y11278809D01*
X26065238Y11218333D01*
X26004762Y11097380D01*
X25944286Y10855476D01*
X25883810Y10734523D01*
X25823333Y10674047D01*
X25702381Y10613571D01*
X25581429Y10613571D01*
X25460476Y10674047D01*
X25400000Y10734523D01*
X25339524Y10855476D01*
X25339524Y11157856D01*
X25400000Y11339285D01*
X26609524Y11883571D02*
X25762857Y11883571D01*
X25339524Y11883571D02*
X25400000Y11823095D01*
X25460476Y11883571D01*
X25400000Y11944047D01*
X25339524Y11883571D01*
X25460476Y11883571D01*
X25762857Y13032619D02*
X26790952Y13032619D01*
X26911905Y12972142D01*
X26972381Y12911666D01*
X27032857Y12790714D01*
X27032857Y12609285D01*
X26972381Y12488333D01*
X26549048Y13032619D02*
X26609524Y12911666D01*
X26609524Y12669762D01*
X26549048Y12548809D01*
X26488571Y12488333D01*
X26367619Y12427857D01*
X26004762Y12427857D01*
X25883810Y12488333D01*
X25823333Y12548809D01*
X25762857Y12669762D01*
X25762857Y12911666D01*
X25823333Y13032619D01*
X25762857Y13637381D02*
X26609524Y13637381D01*
X25883810Y13637381D02*
X25823333Y13697857D01*
X25762857Y13818810D01*
X25762857Y14000238D01*
X25823333Y14121190D01*
X25944286Y14181667D01*
X26609524Y14181667D01*
X26609524Y15330715D02*
X25944286Y15330715D01*
X25823333Y15270238D01*
X25762857Y15149286D01*
X25762857Y14907381D01*
X25823333Y14786429D01*
X26549048Y15330715D02*
X26609524Y15209762D01*
X26609524Y14907381D01*
X26549048Y14786429D01*
X26428095Y14725953D01*
X26307143Y14725953D01*
X26186190Y14786429D01*
X26125714Y14907381D01*
X26125714Y15209762D01*
X26065238Y15330715D01*
X26609524Y16116906D02*
X26549048Y15995953D01*
X26428095Y15935477D01*
X25339524Y15935477D01*
X23585714Y10583334D02*
X23585714Y11550953D01*
X24069524Y11067143D02*
X23101905Y11067143D01*
X22799524Y12760477D02*
X22799524Y12155715D01*
X23404286Y12095239D01*
X23343810Y12155715D01*
X23283333Y12276667D01*
X23283333Y12579048D01*
X23343810Y12700001D01*
X23404286Y12760477D01*
X23525238Y12820953D01*
X23827619Y12820953D01*
X23948571Y12760477D01*
X24009048Y12700001D01*
X24069524Y12579048D01*
X24069524Y12276667D01*
X24009048Y12155715D01*
X23948571Y12095239D01*
X22799524Y13183810D02*
X24069524Y13607144D01*
X22799524Y14030477D01*
X24069524Y14998096D02*
X22799524Y14998096D01*
X24009048Y14998096D02*
X24069524Y14877143D01*
X24069524Y14635239D01*
X24009048Y14514286D01*
X23948571Y14453810D01*
X23827619Y14393334D01*
X23464762Y14393334D01*
X23343810Y14453810D01*
X23283333Y14514286D01*
X23222857Y14635239D01*
X23222857Y14877143D01*
X23283333Y14998096D01*
X24009048Y16147144D02*
X24069524Y16026191D01*
X24069524Y15784287D01*
X24009048Y15663334D01*
X23948571Y15602858D01*
X23827619Y15542382D01*
X23464762Y15542382D01*
X23343810Y15602858D01*
X23283333Y15663334D01*
X23222857Y15784287D01*
X23222857Y16026191D01*
X23283333Y16147144D01*
D12*
X33782000Y65278000D02*
X33655000Y65405000D01*
X33528000Y65278000D02*
X33782000Y65278000D01*
X33401000Y65151000D02*
X33528000Y65278000D01*
X33909000Y65151000D02*
X33401000Y65151000D01*
X34036000Y65024000D02*
X33909000Y65151000D01*
X33274000Y65024000D02*
X34036000Y65024000D01*
X33147000Y64897000D02*
X34163000Y64897000D01*
X33020000Y64770000D02*
X34290000Y64770000D01*
X32893000Y64643000D02*
X34417000Y64643000D01*
X32766000Y64516000D02*
X34544000Y64516000D01*
X32639000Y64389000D02*
X34671000Y64389000D01*
X32512000Y64262000D02*
X34798000Y64262000D01*
X32385000Y64135000D02*
X34925000Y64135000D01*
X35179000Y64008000D02*
X32131000Y64008000D01*
X33655000Y65532000D02*
X35179000Y64008000D01*
X33655000Y65532000D02*
X32131000Y64008000D01*
X33655000Y65024000D02*
X33655000Y65151000D01*
D14*
X7048572Y60217857D02*
X8191429Y60217857D01*
X4508572Y60217857D02*
X5651429Y60217857D01*
X5080000Y59646429D02*
X5080000Y60789286D01*
D15*
X71458668Y64612762D02*
X71603811Y64564381D01*
X71845715Y64564381D01*
X71942477Y64612762D01*
X71990858Y64661143D01*
X72039239Y64757905D01*
X72039239Y64854667D01*
X71990858Y64951429D01*
X71942477Y64999810D01*
X71845715Y65048190D01*
X71652192Y65096571D01*
X71555430Y65144952D01*
X71507049Y65193333D01*
X71458668Y65290095D01*
X71458668Y65386857D01*
X71507049Y65483619D01*
X71555430Y65532000D01*
X71652192Y65580381D01*
X71894096Y65580381D01*
X72039239Y65532000D01*
X72329525Y65241714D02*
X72716573Y65241714D01*
X72474668Y65580381D02*
X72474668Y64709524D01*
X72523049Y64612762D01*
X72619811Y64564381D01*
X72716573Y64564381D01*
X73490667Y64564381D02*
X73490667Y65096571D01*
X73442286Y65193333D01*
X73345524Y65241714D01*
X73152001Y65241714D01*
X73055239Y65193333D01*
X73490667Y64612762D02*
X73393905Y64564381D01*
X73152001Y64564381D01*
X73055239Y64612762D01*
X73006858Y64709524D01*
X73006858Y64806286D01*
X73055239Y64903048D01*
X73152001Y64951429D01*
X73393905Y64951429D01*
X73490667Y64999810D01*
X73829334Y65241714D02*
X74216382Y65241714D01*
X73974477Y65580381D02*
X73974477Y64709524D01*
X74022858Y64612762D01*
X74119620Y64564381D01*
X74216382Y64564381D01*
X74990476Y65241714D02*
X74990476Y64564381D01*
X74555048Y65241714D02*
X74555048Y64709524D01*
X74603429Y64612762D01*
X74700191Y64564381D01*
X74845333Y64564381D01*
X74942095Y64612762D01*
X74990476Y64661143D01*
X75425905Y64612762D02*
X75522667Y64564381D01*
X75716191Y64564381D01*
X75812952Y64612762D01*
X75861333Y64709524D01*
X75861333Y64757905D01*
X75812952Y64854667D01*
X75716191Y64903048D01*
X75571048Y64903048D01*
X75474286Y64951429D01*
X75425905Y65048190D01*
X75425905Y65096571D01*
X75474286Y65193333D01*
X75571048Y65241714D01*
X75716191Y65241714D01*
X75812952Y65193333D01*
X70321715Y60817881D02*
X70321715Y61833881D01*
X70708762Y61833881D01*
X70805524Y61785500D01*
X70853905Y61737119D01*
X70902286Y61640357D01*
X70902286Y61495214D01*
X70853905Y61398452D01*
X70805524Y61350071D01*
X70708762Y61301690D01*
X70321715Y61301690D01*
X71482858Y60817881D02*
X71386096Y60866262D01*
X71337715Y60914643D01*
X71289334Y61011405D01*
X71289334Y61301690D01*
X71337715Y61398452D01*
X71386096Y61446833D01*
X71482858Y61495214D01*
X71628000Y61495214D01*
X71724762Y61446833D01*
X71773143Y61398452D01*
X71821524Y61301690D01*
X71821524Y61011405D01*
X71773143Y60914643D01*
X71724762Y60866262D01*
X71628000Y60817881D01*
X71482858Y60817881D01*
X72160191Y61495214D02*
X72353715Y60817881D01*
X72547238Y61301690D01*
X72740762Y60817881D01*
X72934286Y61495214D01*
X73708381Y60866262D02*
X73611619Y60817881D01*
X73418096Y60817881D01*
X73321334Y60866262D01*
X73272953Y60963024D01*
X73272953Y61350071D01*
X73321334Y61446833D01*
X73418096Y61495214D01*
X73611619Y61495214D01*
X73708381Y61446833D01*
X73756762Y61350071D01*
X73756762Y61253310D01*
X73272953Y61156548D01*
X74192191Y60817881D02*
X74192191Y61495214D01*
X74192191Y61301690D02*
X74240572Y61398452D01*
X74288953Y61446833D01*
X74385715Y61495214D01*
X74482476Y61495214D01*
X75788762Y61833881D02*
X75982285Y61833881D01*
X76079047Y61785500D01*
X76175809Y61688738D01*
X76224190Y61495214D01*
X76224190Y61156548D01*
X76175809Y60963024D01*
X76079047Y60866262D01*
X75982285Y60817881D01*
X75788762Y60817881D01*
X75692000Y60866262D01*
X75595238Y60963024D01*
X75546857Y61156548D01*
X75546857Y61495214D01*
X75595238Y61688738D01*
X75692000Y61785500D01*
X75788762Y61833881D01*
X76659619Y60817881D02*
X76659619Y61833881D01*
X76756381Y61204929D02*
X77046666Y60817881D01*
X77046666Y61495214D02*
X76659619Y61108167D01*
D16*
X47840000Y55380000D02*
X47840000Y56380000D01*
X46140000Y56380000D02*
X46140000Y55380000D01*
D17*
X12700000Y14745005D02*
X12700000Y13475005D01*
X12065000Y14110005D02*
X13335000Y14110005D01*
X6150000Y14110005D02*
X6150000Y3810005D01*
X6150000Y3810005D02*
X19250000Y3810005D01*
X19250000Y3810005D02*
X19250000Y14110005D01*
X6150000Y14110005D02*
X6150000Y20810005D01*
X6150000Y20810005D02*
X19250000Y20810005D01*
X19250000Y20810005D02*
X19250000Y14110005D01*
D16*
X47025000Y51045000D02*
X48225000Y51045000D01*
X48225000Y49285000D02*
X47025000Y49285000D01*
D18*
G36*
X72347667Y10837333D02*
X71139406Y10813831D01*
X70653756Y10806904D01*
X70311828Y10809567D01*
X70088176Y10823963D01*
X69957351Y10852231D01*
X69893908Y10896513D01*
X69881514Y10919664D01*
X69865399Y11112781D01*
X69881514Y11178335D01*
X69924782Y11229763D01*
X70025052Y11264304D01*
X70207772Y11284099D01*
X70498389Y11291289D01*
X70922350Y11288015D01*
X71139406Y11284169D01*
X72347667Y11260666D01*
X72347667Y11049000D01*
X72347667Y10837333D01*
X72347667Y10837333D01*
X72347667Y10837333D01*
G37*
X72347667Y10837333D02*
X71139406Y10813831D01*
X70653756Y10806904D01*
X70311828Y10809567D01*
X70088176Y10823963D01*
X69957351Y10852231D01*
X69893908Y10896513D01*
X69881514Y10919664D01*
X69865399Y11112781D01*
X69881514Y11178335D01*
X69924782Y11229763D01*
X70025052Y11264304D01*
X70207772Y11284099D01*
X70498389Y11291289D01*
X70922350Y11288015D01*
X71139406Y11284169D01*
X72347667Y11260666D01*
X72347667Y11049000D01*
X72347667Y10837333D01*
X72347667Y10837333D01*
G36*
X72944190Y11915954D02*
X72928618Y11853333D01*
X72889440Y11810045D01*
X72795833Y11777571D01*
X72627073Y11754460D01*
X72362435Y11739259D01*
X71981196Y11730516D01*
X71462630Y11726780D01*
X71115939Y11726333D01*
X70489382Y11730406D01*
X69980966Y11742207D01*
X69604060Y11761105D01*
X69372033Y11786474D01*
X69299199Y11811757D01*
X69278982Y11955564D01*
X69299907Y12065757D01*
X69325409Y12122087D01*
X69375927Y12164250D01*
X69473507Y12194291D01*
X69640198Y12214257D01*
X69898047Y12226194D01*
X70269102Y12232147D01*
X70775408Y12234162D01*
X71116647Y12234333D01*
X71718383Y12232707D01*
X72171536Y12226862D01*
X72496835Y12215343D01*
X72715008Y12196699D01*
X72846785Y12169477D01*
X72912893Y12132223D01*
X72928618Y12107333D01*
X72944190Y11915954D01*
X72944190Y11915954D01*
X72944190Y11915954D01*
G37*
X72944190Y11915954D02*
X72928618Y11853333D01*
X72889440Y11810045D01*
X72795833Y11777571D01*
X72627073Y11754460D01*
X72362435Y11739259D01*
X71981196Y11730516D01*
X71462630Y11726780D01*
X71115939Y11726333D01*
X70489382Y11730406D01*
X69980966Y11742207D01*
X69604060Y11761105D01*
X69372033Y11786474D01*
X69299199Y11811757D01*
X69278982Y11955564D01*
X69299907Y12065757D01*
X69325409Y12122087D01*
X69375927Y12164250D01*
X69473507Y12194291D01*
X69640198Y12214257D01*
X69898047Y12226194D01*
X70269102Y12232147D01*
X70775408Y12234162D01*
X71116647Y12234333D01*
X71718383Y12232707D01*
X72171536Y12226862D01*
X72496835Y12215343D01*
X72715008Y12196699D01*
X72846785Y12169477D01*
X72912893Y12132223D01*
X72928618Y12107333D01*
X72944190Y11915954D01*
X72944190Y11915954D01*
G36*
X73617667Y12700000D02*
X71139002Y12677551D01*
X70416434Y12671953D01*
X69845463Y12670222D01*
X69408377Y12673099D01*
X69087470Y12681326D01*
X68865030Y12695643D01*
X68723351Y12716793D01*
X68644721Y12745517D01*
X68611434Y12782557D01*
X68611110Y12783384D01*
X68571450Y12927059D01*
X68593986Y13029865D01*
X68699517Y13098463D01*
X68908840Y13139511D01*
X69242751Y13159668D01*
X69722048Y13165593D01*
X69805010Y13165666D01*
X70950667Y13165666D01*
X70950667Y14308666D01*
X70952008Y14767953D01*
X70958649Y15084402D01*
X70974513Y15284507D01*
X71003526Y15394757D01*
X71049612Y15441643D01*
X71116695Y15451658D01*
X71120000Y15451666D01*
X71188102Y15442597D01*
X71235004Y15397709D01*
X71264640Y15290485D01*
X71280949Y15094406D01*
X71287868Y14782954D01*
X71289333Y14329610D01*
X71289334Y14311056D01*
X71289334Y13170445D01*
X72453500Y13146889D01*
X73617667Y13123333D01*
X73617667Y12911666D01*
X73617667Y12700000D01*
X73617667Y12700000D01*
X73617667Y12700000D01*
G37*
X73617667Y12700000D02*
X71139002Y12677551D01*
X70416434Y12671953D01*
X69845463Y12670222D01*
X69408377Y12673099D01*
X69087470Y12681326D01*
X68865030Y12695643D01*
X68723351Y12716793D01*
X68644721Y12745517D01*
X68611434Y12782557D01*
X68611110Y12783384D01*
X68571450Y12927059D01*
X68593986Y13029865D01*
X68699517Y13098463D01*
X68908840Y13139511D01*
X69242751Y13159668D01*
X69722048Y13165593D01*
X69805010Y13165666D01*
X70950667Y13165666D01*
X70950667Y14308666D01*
X70952008Y14767953D01*
X70958649Y15084402D01*
X70974513Y15284507D01*
X71003526Y15394757D01*
X71049612Y15441643D01*
X71116695Y15451658D01*
X71120000Y15451666D01*
X71188102Y15442597D01*
X71235004Y15397709D01*
X71264640Y15290485D01*
X71280949Y15094406D01*
X71287868Y14782954D01*
X71289333Y14329610D01*
X71289334Y14311056D01*
X71289334Y13170445D01*
X72453500Y13146889D01*
X73617667Y13123333D01*
X73617667Y12911666D01*
X73617667Y12700000D01*
X73617667Y12700000D01*
D16*
X35695000Y43600000D02*
X36695000Y43600000D01*
X36695000Y45300000D02*
X35695000Y45300000D01*
X28995000Y39235000D02*
X28995000Y38235000D01*
X30695000Y38235000D02*
X30695000Y39235000D01*
X39155000Y39235000D02*
X39155000Y38235000D01*
X40855000Y38235000D02*
X40855000Y39235000D01*
X50585000Y39235000D02*
X50585000Y38235000D01*
X52285000Y38235000D02*
X52285000Y39235000D01*
X60745000Y39235000D02*
X60745000Y38235000D01*
X62445000Y38235000D02*
X62445000Y39235000D01*
X25160000Y37155000D02*
X25160000Y38085000D01*
X25160000Y40315000D02*
X25160000Y39385000D01*
X25160000Y40315000D02*
X23000000Y40315000D01*
X25160000Y37155000D02*
X23700000Y37155000D01*
X23755000Y23740000D02*
X23755000Y19440000D01*
X23755000Y19440000D02*
X29455000Y19440000D01*
X23755000Y23740000D02*
X29455000Y23740000D01*
X35320000Y37155000D02*
X35320000Y38085000D01*
X35320000Y40315000D02*
X35320000Y39385000D01*
X35320000Y40315000D02*
X33160000Y40315000D01*
X35320000Y37155000D02*
X33860000Y37155000D01*
X33915000Y23740000D02*
X33915000Y19440000D01*
X33915000Y19440000D02*
X39615000Y19440000D01*
X33915000Y23740000D02*
X39615000Y23740000D01*
X46734000Y37155000D02*
X46734000Y38085000D01*
X46734000Y40315000D02*
X46734000Y39385000D01*
X46734000Y40315000D02*
X44574000Y40315000D01*
X46734000Y37155000D02*
X45274000Y37155000D01*
X45345000Y23740000D02*
X45345000Y19440000D01*
X45345000Y19440000D02*
X51045000Y19440000D01*
X45345000Y23740000D02*
X51045000Y23740000D01*
X57148000Y37028000D02*
X57148000Y37958000D01*
X57148000Y40188000D02*
X57148000Y39258000D01*
X57148000Y40188000D02*
X54988000Y40188000D01*
X57148000Y37028000D02*
X55688000Y37028000D01*
X55505000Y23740000D02*
X55505000Y19440000D01*
X55505000Y19440000D02*
X61205000Y19440000D01*
X55505000Y23740000D02*
X61205000Y23740000D01*
D17*
X64335000Y10285000D02*
X64335000Y3685000D01*
X43615000Y10285000D02*
X64335000Y10285000D01*
X43615000Y3685000D02*
X43615000Y10285000D01*
X64335000Y3685000D02*
X43615000Y3685000D01*
X42745000Y3685000D02*
X22025000Y3685000D01*
X22025000Y3685000D02*
X22025000Y10285000D01*
X22025000Y10285000D02*
X42745000Y10285000D01*
X42745000Y10285000D02*
X42745000Y3685000D01*
X73860000Y3685000D02*
X68380000Y3685000D01*
X68380000Y3685000D02*
X68380000Y10285000D01*
X68380000Y10285000D02*
X73860000Y10285000D01*
X73860000Y10285000D02*
X73860000Y3685000D01*
D16*
X47685000Y65980000D02*
X47685000Y68640000D01*
X34925000Y65980000D02*
X47685000Y65980000D01*
X34925000Y68640000D02*
X47685000Y68640000D01*
X34925000Y65980000D02*
X34925000Y68640000D01*
X33655000Y65980000D02*
X32325000Y65980000D01*
X32325000Y65980000D02*
X32325000Y67310000D01*
X39405000Y51045000D02*
X40605000Y51045000D01*
X40605000Y49285000D02*
X39405000Y49285000D01*
X28610000Y35805000D02*
X29810000Y35805000D01*
X29810000Y34045000D02*
X28610000Y34045000D01*
X26000000Y34045000D02*
X24800000Y34045000D01*
X24800000Y35805000D02*
X26000000Y35805000D01*
X38770000Y35805000D02*
X39970000Y35805000D01*
X39970000Y34045000D02*
X38770000Y34045000D01*
X36160000Y34045000D02*
X34960000Y34045000D01*
X34960000Y35805000D02*
X36160000Y35805000D01*
X50200000Y35805000D02*
X51400000Y35805000D01*
X51400000Y34045000D02*
X50200000Y34045000D01*
X47590000Y34045000D02*
X46390000Y34045000D01*
X46390000Y35805000D02*
X47590000Y35805000D01*
X60360000Y35805000D02*
X61560000Y35805000D01*
X61560000Y34045000D02*
X60360000Y34045000D01*
X57750000Y34045000D02*
X56550000Y34045000D01*
X56550000Y35805000D02*
X57750000Y35805000D01*
D17*
X24765000Y31115000D02*
X25273000Y29845000D01*
X25737420Y30480000D02*
G75*
G03X25737420Y30480000I-718420J0D01*
G01*
X24130000Y31369000D02*
X30480000Y31369000D01*
X30480000Y31369000D02*
X30480000Y27051000D01*
X30480000Y27051000D02*
X24130000Y27051000D01*
X24130000Y27051000D02*
X24130000Y31369000D01*
X34925000Y31115000D02*
X35433000Y29845000D01*
X35897420Y30480000D02*
G75*
G03X35897420Y30480000I-718420J0D01*
G01*
X34290000Y31369000D02*
X40640000Y31369000D01*
X40640000Y31369000D02*
X40640000Y27051000D01*
X40640000Y27051000D02*
X34290000Y27051000D01*
X34290000Y27051000D02*
X34290000Y31369000D01*
X46355000Y31115000D02*
X46863000Y29845000D01*
X47327420Y30480000D02*
G75*
G03X47327420Y30480000I-718420J0D01*
G01*
X45720000Y31369000D02*
X52070000Y31369000D01*
X52070000Y31369000D02*
X52070000Y27051000D01*
X52070000Y27051000D02*
X45720000Y27051000D01*
X45720000Y27051000D02*
X45720000Y31369000D01*
X56515000Y31115000D02*
X57023000Y29845000D01*
X57487420Y30480000D02*
G75*
G03X57487420Y30480000I-718420J0D01*
G01*
X55880000Y31369000D02*
X62230000Y31369000D01*
X62230000Y31369000D02*
X62230000Y27051000D01*
X62230000Y27051000D02*
X55880000Y27051000D01*
X55880000Y27051000D02*
X55880000Y31369000D01*
X40220000Y48345000D02*
X40220000Y48220000D01*
X44870000Y48345000D02*
X44870000Y48120000D01*
X44870000Y43095000D02*
X44870000Y43320000D01*
X40220000Y43095000D02*
X40220000Y43320000D01*
X40220000Y48345000D02*
X44870000Y48345000D01*
X40220000Y43095000D02*
X44870000Y43095000D01*
X40220000Y48220000D02*
X38870000Y48220000D01*
D16*
X32805000Y54475000D02*
X32805000Y53475000D01*
X34505000Y53475000D02*
X34505000Y54475000D01*
D17*
X37130000Y62475000D02*
X37130000Y61900000D01*
X42880000Y62475000D02*
X42880000Y61825000D01*
X42880000Y51825000D02*
X42880000Y52475000D01*
X37130000Y51825000D02*
X37130000Y52475000D01*
X37130000Y62475000D02*
X42880000Y62475000D01*
X37130000Y51825000D02*
X42880000Y51825000D01*
X37130000Y61900000D02*
X35530000Y61900000D01*
D16*
X47840000Y59841000D02*
X47840000Y60841000D01*
X46140000Y60841000D02*
X46140000Y59841000D01*
X3575000Y42540000D02*
X4835000Y42540000D01*
X10395000Y42540000D02*
X9135000Y42540000D01*
X3575000Y46300000D02*
X3575000Y42540000D01*
X10395000Y48550000D02*
X10395000Y42540000D01*
D17*
X3595000Y51935000D02*
X3595000Y50935000D01*
X5295000Y50935000D02*
X5295000Y51935000D01*
X6135000Y51935000D02*
X6135000Y50935000D01*
X7835000Y50935000D02*
X7835000Y51935000D01*
X19900000Y23630000D02*
X19900000Y24630000D01*
X18200000Y24630000D02*
X18200000Y23630000D01*
X75692000Y58674000D02*
X75692000Y60325000D01*
X75057000Y58674000D02*
X74168000Y58674000D01*
X75057000Y58674000D02*
X75692000Y58674000D01*
X73406000Y59944000D02*
X73406000Y59436000D01*
X72644000Y59055000D02*
X74676000Y59055000D01*
X74676000Y60325000D02*
X72644000Y60325000D01*
X72644000Y59055000D02*
X72644000Y60325000D01*
X74676000Y60325000D02*
X74676000Y59055000D01*
X73406000Y59690000D02*
X73660000Y59690000D01*
X73660000Y59690000D02*
X73914000Y59944000D01*
X73914000Y59690000D02*
X73660000Y59690000D01*
X73660000Y59690000D02*
X73914000Y59436000D01*
X73914000Y59436000D02*
X73660000Y59690000D01*
X73914000Y59944000D02*
X73914000Y59436000D01*
X73914000Y59436000D02*
X73406000Y59690000D01*
X73406000Y59690000D02*
X73914000Y59944000D01*
X64170000Y65645000D02*
X65370000Y65645000D01*
X65370000Y63895000D02*
X64170000Y63895000D01*
X64170000Y63105000D02*
X65370000Y63105000D01*
X65370000Y61355000D02*
X64170000Y61355000D01*
X64170000Y68185000D02*
X65370000Y68185000D01*
X65370000Y66435000D02*
X64170000Y66435000D01*
X13370000Y54215000D02*
X14570000Y54215000D01*
X14570000Y52465000D02*
X13370000Y52465000D01*
X13370000Y51675000D02*
X14570000Y51675000D01*
X14570000Y49925000D02*
X13370000Y49925000D01*
X14570000Y47385000D02*
X13370000Y47385000D01*
X13370000Y49135000D02*
X14570000Y49135000D01*
X14570000Y44210000D02*
X13370000Y44210000D01*
X13370000Y45960000D02*
X14570000Y45960000D01*
X14570000Y41670000D02*
X13370000Y41670000D01*
X13370000Y43420000D02*
X14570000Y43420000D01*
X14570000Y35320000D02*
X13370000Y35320000D01*
X13370000Y37070000D02*
X14570000Y37070000D01*
X65370000Y58815000D02*
X64170000Y58815000D01*
X64170000Y60565000D02*
X65370000Y60565000D01*
X19445000Y31780000D02*
G75*
G03X19445000Y31780000I-500000J0D01*
G01*
X19720000Y32555000D02*
X19575000Y32555000D01*
X19720000Y28405000D02*
X19575000Y28405000D01*
X14570000Y28405000D02*
X14715000Y28405000D01*
X14570000Y32555000D02*
X14715000Y32555000D01*
X19720000Y32555000D02*
X19720000Y28405000D01*
X14570000Y32555000D02*
X14570000Y28405000D01*
X19575000Y32555000D02*
X19575000Y33955000D01*
X70910000Y67310000D02*
X70910000Y69310000D01*
X70910000Y69310000D02*
X72910000Y69310000D01*
X72060000Y68110000D02*
X72660000Y68710000D01*
X72060000Y67710000D02*
X73060000Y68710000D01*
X72060000Y67310000D02*
X73460000Y68710000D01*
X74860000Y67310000D02*
G75*
G03X74860000Y67310000I-1200000J0D01*
G01*
X75260000Y65910000D02*
X75260000Y68710000D01*
X75260000Y68710000D02*
X72060000Y68710000D01*
X72060000Y68710000D02*
X72060000Y65910000D01*
X72060000Y65910000D02*
X75260000Y65910000D01*
X9090000Y61470000D02*
X3610000Y61470000D01*
X3610000Y61470000D02*
X3610000Y68070000D01*
X3610000Y68070000D02*
X9090000Y68070000D01*
X9090000Y68070000D02*
X9090000Y61470000D01*
D16*
X19175000Y47950000D02*
X19175000Y48880000D01*
X19175000Y51110000D02*
X19175000Y50180000D01*
X19175000Y51110000D02*
X17015000Y51110000D01*
X19175000Y47950000D02*
X17715000Y47950000D01*
X19175000Y42235000D02*
X19175000Y43165000D01*
X19175000Y45395000D02*
X19175000Y44465000D01*
X19175000Y45395000D02*
X17015000Y45395000D01*
X19175000Y42235000D02*
X17715000Y42235000D01*
X19175000Y35885000D02*
X19175000Y36815000D01*
X19175000Y39045000D02*
X19175000Y38115000D01*
X19175000Y39045000D02*
X17015000Y39045000D01*
X19175000Y35885000D02*
X17715000Y35885000D01*
X6660000Y56640000D02*
X5730000Y56640000D01*
X3500000Y56640000D02*
X4430000Y56640000D01*
X3500000Y56640000D02*
X3500000Y54480000D01*
X6660000Y56640000D02*
X6660000Y55180000D01*
X14570000Y37728000D02*
X13370000Y37728000D01*
X13370000Y39488000D02*
X14570000Y39488000D01*
D19*
G36*
X5775686Y24385380D02*
X5828153Y24413969D01*
X5910847Y24457253D01*
X6019881Y24513302D01*
X6151368Y24580188D01*
X6301421Y24655981D01*
X6466152Y24738752D01*
X6641674Y24826570D01*
X6824100Y24917507D01*
X7009543Y25009633D01*
X7194116Y25101019D01*
X7373931Y25189734D01*
X7545102Y25273850D01*
X7703741Y25351437D01*
X7845961Y25420565D01*
X7967875Y25479306D01*
X8065596Y25525729D01*
X8135236Y25557905D01*
X8172908Y25573905D01*
X8178540Y25575237D01*
X8184751Y25549238D01*
X8189337Y25492328D01*
X8191448Y25415924D01*
X8191500Y25401557D01*
X8191500Y25240837D01*
X7323673Y24807336D01*
X6455846Y24373836D01*
X7318381Y23939710D01*
X8180916Y23505583D01*
X8187020Y23345882D01*
X8188248Y23267432D01*
X8185903Y23206349D01*
X8180493Y23174139D01*
X8179352Y23172408D01*
X8159009Y23179526D01*
X8104756Y23203780D01*
X8020482Y23243242D01*
X7910074Y23295984D01*
X7777421Y23360077D01*
X7626412Y23433594D01*
X7460934Y23514607D01*
X7284876Y23601187D01*
X7102125Y23691407D01*
X6916570Y23783338D01*
X6732100Y23875053D01*
X6552602Y23964623D01*
X6381965Y24050120D01*
X6224077Y24129616D01*
X6082826Y24201184D01*
X5962100Y24262895D01*
X5865788Y24312821D01*
X5797777Y24349034D01*
X5761957Y24369606D01*
X5757333Y24373416D01*
X5775686Y24385380D01*
X5775686Y24385380D01*
G37*
X5775686Y24385380D02*
X5828153Y24413969D01*
X5910847Y24457253D01*
X6019881Y24513302D01*
X6151368Y24580188D01*
X6301421Y24655981D01*
X6466152Y24738752D01*
X6641674Y24826570D01*
X6824100Y24917507D01*
X7009543Y25009633D01*
X7194116Y25101019D01*
X7373931Y25189734D01*
X7545102Y25273850D01*
X7703741Y25351437D01*
X7845961Y25420565D01*
X7967875Y25479306D01*
X8065596Y25525729D01*
X8135236Y25557905D01*
X8172908Y25573905D01*
X8178540Y25575237D01*
X8184751Y25549238D01*
X8189337Y25492328D01*
X8191448Y25415924D01*
X8191500Y25401557D01*
X8191500Y25240837D01*
X7323673Y24807336D01*
X6455846Y24373836D01*
X7318381Y23939710D01*
X8180916Y23505583D01*
X8187020Y23345882D01*
X8188248Y23267432D01*
X8185903Y23206349D01*
X8180493Y23174139D01*
X8179352Y23172408D01*
X8159009Y23179526D01*
X8104756Y23203780D01*
X8020482Y23243242D01*
X7910074Y23295984D01*
X7777421Y23360077D01*
X7626412Y23433594D01*
X7460934Y23514607D01*
X7284876Y23601187D01*
X7102125Y23691407D01*
X6916570Y23783338D01*
X6732100Y23875053D01*
X6552602Y23964623D01*
X6381965Y24050120D01*
X6224077Y24129616D01*
X6082826Y24201184D01*
X5962100Y24262895D01*
X5865788Y24312821D01*
X5797777Y24349034D01*
X5761957Y24369606D01*
X5757333Y24373416D01*
X5775686Y24385380D01*
G36*
X5775898Y27285783D02*
X5833263Y27492278D01*
X5926303Y27686833D01*
X6052830Y27864525D01*
X6210656Y28020432D01*
X6334551Y28111369D01*
X6521701Y28207841D01*
X6723748Y28267716D01*
X6934232Y28290949D01*
X7146697Y28277496D01*
X7354684Y28227313D01*
X7551733Y28140354D01*
X7586836Y28120013D01*
X7712423Y28044251D01*
X7959079Y28288333D01*
X8179999Y28067413D01*
X7935917Y27820757D01*
X8011679Y27695170D01*
X8104473Y27500844D01*
X8159889Y27289323D01*
X8177072Y27064825D01*
X8168489Y26924000D01*
X8125363Y26720903D01*
X8045517Y26530758D01*
X7933551Y26357312D01*
X7794067Y26204311D01*
X7631663Y26075501D01*
X7450940Y25974627D01*
X7256499Y25905438D01*
X7052939Y25871679D01*
X6938483Y25872825D01*
X6938483Y26194671D01*
X7118425Y26205642D01*
X7289947Y26252527D01*
X7448374Y26333310D01*
X7589036Y26445978D01*
X7707259Y26588513D01*
X7798369Y26758900D01*
X7824324Y26828750D01*
X7839567Y26905609D01*
X7846700Y27014703D01*
X7846216Y27114500D01*
X7840720Y27222185D01*
X7829828Y27303389D01*
X7810408Y27373902D01*
X7780072Y27447875D01*
X7748446Y27513887D01*
X7722531Y27561300D01*
X7707792Y27580147D01*
X7707565Y27580167D01*
X7688206Y27566180D01*
X7646102Y27528503D01*
X7588260Y27473559D01*
X7545802Y27431887D01*
X7396527Y27283607D01*
X7175597Y27507315D01*
X7323715Y27654298D01*
X7386591Y27717982D01*
X7436216Y27770699D01*
X7466086Y27805399D01*
X7471833Y27814833D01*
X7454048Y27829676D01*
X7407464Y27855456D01*
X7343464Y27885994D01*
X7159891Y27947109D01*
X6976649Y27968538D01*
X6798336Y27952712D01*
X6629549Y27902061D01*
X6474886Y27819017D01*
X6338945Y27706011D01*
X6226322Y27565474D01*
X6141616Y27399837D01*
X6091670Y27224048D01*
X6079697Y27048240D01*
X6106081Y26872939D01*
X6167320Y26704967D01*
X6259912Y26551146D01*
X6380353Y26418296D01*
X6525142Y26313239D01*
X6572025Y26288538D01*
X6754792Y26221631D01*
X6938483Y26194671D01*
X6938483Y25872825D01*
X6878426Y25873427D01*
X6659938Y25913806D01*
X6455556Y25990808D01*
X6269428Y26100731D01*
X6105701Y26239873D01*
X5968522Y26404532D01*
X5862038Y26591006D01*
X5790397Y26795594D01*
X5776944Y26856667D01*
X5756396Y27072272D01*
X5775898Y27285783D01*
X5775898Y27285783D01*
G37*
X5775898Y27285783D02*
X5833263Y27492278D01*
X5926303Y27686833D01*
X6052830Y27864525D01*
X6210656Y28020432D01*
X6334551Y28111369D01*
X6521701Y28207841D01*
X6723748Y28267716D01*
X6934232Y28290949D01*
X7146697Y28277496D01*
X7354684Y28227313D01*
X7551733Y28140354D01*
X7586836Y28120013D01*
X7712423Y28044251D01*
X7959079Y28288333D01*
X8179999Y28067413D01*
X7935917Y27820757D01*
X8011679Y27695170D01*
X8104473Y27500844D01*
X8159889Y27289323D01*
X8177072Y27064825D01*
X8168489Y26924000D01*
X8125363Y26720903D01*
X8045517Y26530758D01*
X7933551Y26357312D01*
X7794067Y26204311D01*
X7631663Y26075501D01*
X7450940Y25974627D01*
X7256499Y25905438D01*
X7052939Y25871679D01*
X6938483Y25872825D01*
X6938483Y26194671D01*
X7118425Y26205642D01*
X7289947Y26252527D01*
X7448374Y26333310D01*
X7589036Y26445978D01*
X7707259Y26588513D01*
X7798369Y26758900D01*
X7824324Y26828750D01*
X7839567Y26905609D01*
X7846700Y27014703D01*
X7846216Y27114500D01*
X7840720Y27222185D01*
X7829828Y27303389D01*
X7810408Y27373902D01*
X7780072Y27447875D01*
X7748446Y27513887D01*
X7722531Y27561300D01*
X7707792Y27580147D01*
X7707565Y27580167D01*
X7688206Y27566180D01*
X7646102Y27528503D01*
X7588260Y27473559D01*
X7545802Y27431887D01*
X7396527Y27283607D01*
X7175597Y27507315D01*
X7323715Y27654298D01*
X7386591Y27717982D01*
X7436216Y27770699D01*
X7466086Y27805399D01*
X7471833Y27814833D01*
X7454048Y27829676D01*
X7407464Y27855456D01*
X7343464Y27885994D01*
X7159891Y27947109D01*
X6976649Y27968538D01*
X6798336Y27952712D01*
X6629549Y27902061D01*
X6474886Y27819017D01*
X6338945Y27706011D01*
X6226322Y27565474D01*
X6141616Y27399837D01*
X6091670Y27224048D01*
X6079697Y27048240D01*
X6106081Y26872939D01*
X6167320Y26704967D01*
X6259912Y26551146D01*
X6380353Y26418296D01*
X6525142Y26313239D01*
X6572025Y26288538D01*
X6754792Y26221631D01*
X6938483Y26194671D01*
X6938483Y25872825D01*
X6878426Y25873427D01*
X6659938Y25913806D01*
X6455556Y25990808D01*
X6269428Y26100731D01*
X6105701Y26239873D01*
X5968522Y26404532D01*
X5862038Y26591006D01*
X5790397Y26795594D01*
X5776944Y26856667D01*
X5756396Y27072272D01*
X5775898Y27285783D01*
G36*
X6588125Y28896999D02*
X6807524Y28898822D01*
X6988993Y28900823D01*
X7136930Y28903654D01*
X7255735Y28907969D01*
X7349807Y28914421D01*
X7423548Y28923663D01*
X7481354Y28936348D01*
X7527628Y28953129D01*
X7566767Y28974660D01*
X7603172Y29001593D01*
X7641243Y29034582D01*
X7666126Y29057023D01*
X7765793Y29173463D01*
X7827494Y29308500D01*
X7850841Y29461232D01*
X7851016Y29485167D01*
X7846374Y29569399D01*
X7835784Y29646671D01*
X7824764Y29690146D01*
X7757122Y29817851D01*
X7658701Y29929345D01*
X7555215Y30003750D01*
X7440083Y30067250D01*
X6598708Y30073453D01*
X5757333Y30079657D01*
X5757333Y30397100D01*
X7503583Y30384750D01*
X7646962Y30316834D01*
X7812130Y30216438D01*
X7950286Y30087238D01*
X8058531Y29934690D01*
X8133964Y29764250D01*
X8173688Y29581375D01*
X8174802Y29391519D01*
X8167663Y29337000D01*
X8119005Y29164302D01*
X8034064Y29003586D01*
X7918437Y28860647D01*
X7777722Y28741283D01*
X7617514Y28651289D01*
X7454916Y28598818D01*
X7398306Y28591777D01*
X7301435Y28585893D01*
X7166360Y28581219D01*
X6995140Y28577809D01*
X6789831Y28575718D01*
X6552491Y28575000D01*
X5757333Y28575000D01*
X5757333Y28890238D01*
X6588125Y28896999D01*
X6588125Y28896999D01*
G37*
X6588125Y28896999D02*
X6807524Y28898822D01*
X6988993Y28900823D01*
X7136930Y28903654D01*
X7255735Y28907969D01*
X7349807Y28914421D01*
X7423548Y28923663D01*
X7481354Y28936348D01*
X7527628Y28953129D01*
X7566767Y28974660D01*
X7603172Y29001593D01*
X7641243Y29034582D01*
X7666126Y29057023D01*
X7765793Y29173463D01*
X7827494Y29308500D01*
X7850841Y29461232D01*
X7851016Y29485167D01*
X7846374Y29569399D01*
X7835784Y29646671D01*
X7824764Y29690146D01*
X7757122Y29817851D01*
X7658701Y29929345D01*
X7555215Y30003750D01*
X7440083Y30067250D01*
X6598708Y30073453D01*
X5757333Y30079657D01*
X5757333Y30397100D01*
X7503583Y30384750D01*
X7646962Y30316834D01*
X7812130Y30216438D01*
X7950286Y30087238D01*
X8058531Y29934690D01*
X8133964Y29764250D01*
X8173688Y29581375D01*
X8174802Y29391519D01*
X8167663Y29337000D01*
X8119005Y29164302D01*
X8034064Y29003586D01*
X7918437Y28860647D01*
X7777722Y28741283D01*
X7617514Y28651289D01*
X7454916Y28598818D01*
X7398306Y28591777D01*
X7301435Y28585893D01*
X7166360Y28581219D01*
X6995140Y28577809D01*
X6789831Y28575718D01*
X6552491Y28575000D01*
X5757333Y28575000D01*
X5757333Y28890238D01*
X6588125Y28896999D01*
G36*
X6958542Y32498771D02*
X7169209Y32604036D01*
X7368578Y32703499D01*
X7553447Y32795572D01*
X7720611Y32878666D01*
X7866867Y32951195D01*
X7989012Y33011569D01*
X8083842Y33058201D01*
X8148153Y33089503D01*
X8178741Y33103886D01*
X8180843Y33104667D01*
X8185792Y33085171D01*
X8189518Y33033364D01*
X8191392Y32959260D01*
X8191500Y32935299D01*
X8191500Y32765931D01*
X7334250Y32337462D01*
X7158070Y32249173D01*
X6994088Y32166549D01*
X6846077Y32091525D01*
X6717810Y32026033D01*
X6613062Y31972008D01*
X6535606Y31931383D01*
X6489214Y31906093D01*
X6477000Y31898167D01*
X6495325Y31886782D01*
X6547787Y31858490D01*
X6630611Y31815223D01*
X6740024Y31758917D01*
X6872252Y31691504D01*
X7023523Y31614918D01*
X7190062Y31531093D01*
X7334250Y31458871D01*
X8191500Y31030402D01*
X8191500Y30861034D01*
X8189298Y30769304D01*
X8182205Y30715045D01*
X8169488Y30693597D01*
X8165041Y30692826D01*
X8141946Y30702284D01*
X8084318Y30729172D01*
X7995433Y30771877D01*
X7878568Y30828791D01*
X7737000Y30898303D01*
X7574007Y30978803D01*
X7392865Y31068681D01*
X7196852Y31166326D01*
X6989243Y31270129D01*
X6942740Y31293430D01*
X5746898Y31892875D01*
X6958542Y32498771D01*
X6958542Y32498771D01*
G37*
X6958542Y32498771D02*
X7169209Y32604036D01*
X7368578Y32703499D01*
X7553447Y32795572D01*
X7720611Y32878666D01*
X7866867Y32951195D01*
X7989012Y33011569D01*
X8083842Y33058201D01*
X8148153Y33089503D01*
X8178741Y33103886D01*
X8180843Y33104667D01*
X8185792Y33085171D01*
X8189518Y33033364D01*
X8191392Y32959260D01*
X8191500Y32935299D01*
X8191500Y32765931D01*
X7334250Y32337462D01*
X7158070Y32249173D01*
X6994088Y32166549D01*
X6846077Y32091525D01*
X6717810Y32026033D01*
X6613062Y31972008D01*
X6535606Y31931383D01*
X6489214Y31906093D01*
X6477000Y31898167D01*
X6495325Y31886782D01*
X6547787Y31858490D01*
X6630611Y31815223D01*
X6740024Y31758917D01*
X6872252Y31691504D01*
X7023523Y31614918D01*
X7190062Y31531093D01*
X7334250Y31458871D01*
X8191500Y31030402D01*
X8191500Y30861034D01*
X8189298Y30769304D01*
X8182205Y30715045D01*
X8169488Y30693597D01*
X8165041Y30692826D01*
X8141946Y30702284D01*
X8084318Y30729172D01*
X7995433Y30771877D01*
X7878568Y30828791D01*
X7737000Y30898303D01*
X7574007Y30978803D01*
X7392865Y31068681D01*
X7196852Y31166326D01*
X6989243Y31270129D01*
X6942740Y31293430D01*
X5746898Y31892875D01*
X6958542Y32498771D01*
G36*
X5757707Y34091474D02*
X5759405Y34261047D01*
X5763288Y34398099D01*
X5770220Y34507535D01*
X5781063Y34594259D01*
X5796679Y34663177D01*
X5817931Y34719193D01*
X5845683Y34767213D01*
X5880795Y34812141D01*
X5924131Y34858881D01*
X5929693Y34864608D01*
X6056660Y34967608D01*
X6195882Y35032326D01*
X6341732Y35058747D01*
X6488583Y35046854D01*
X6630808Y34996631D01*
X6762782Y34908062D01*
X6806387Y34867106D01*
X6853957Y34816174D01*
X6891453Y34767788D01*
X6920183Y34716062D01*
X6941454Y34655111D01*
X6956572Y34579052D01*
X6966847Y34481999D01*
X6973583Y34358067D01*
X6978090Y34201371D01*
X6980359Y34083951D01*
X6989333Y33570985D01*
X7585124Y33565367D01*
X8180916Y33559750D01*
X8187047Y33410658D01*
X8188106Y33334717D01*
X8185089Y33276159D01*
X8178647Y33247097D01*
X8178228Y33246617D01*
X8154297Y33243148D01*
X8092929Y33239963D01*
X7999019Y33237160D01*
X7877461Y33234833D01*
X7733151Y33233078D01*
X7570984Y33231993D01*
X7415388Y33231667D01*
X6667500Y33231667D01*
X6667500Y33812708D01*
X6666852Y34015262D01*
X6664521Y34180138D01*
X6659929Y34311975D01*
X6652494Y34415412D01*
X6641636Y34495091D01*
X6626776Y34555652D01*
X6607334Y34601733D01*
X6582729Y34637976D01*
X6561517Y34660559D01*
X6479746Y34711797D01*
X6381552Y34733106D01*
X6281885Y34722978D01*
X6217404Y34695249D01*
X6182391Y34672426D01*
X6154172Y34648672D01*
X6131926Y34619338D01*
X6114833Y34579775D01*
X6102070Y34525336D01*
X6092818Y34451370D01*
X6086256Y34353229D01*
X6081562Y34226265D01*
X6077916Y34065827D01*
X6074833Y33887833D01*
X6064250Y33242250D01*
X5910791Y33236031D01*
X5757333Y33229812D01*
X5757333Y33884475D01*
X5757707Y34091474D01*
X5757707Y34091474D01*
G37*
X5757707Y34091474D02*
X5759405Y34261047D01*
X5763288Y34398099D01*
X5770220Y34507535D01*
X5781063Y34594259D01*
X5796679Y34663177D01*
X5817931Y34719193D01*
X5845683Y34767213D01*
X5880795Y34812141D01*
X5924131Y34858881D01*
X5929693Y34864608D01*
X6056660Y34967608D01*
X6195882Y35032326D01*
X6341732Y35058747D01*
X6488583Y35046854D01*
X6630808Y34996631D01*
X6762782Y34908062D01*
X6806387Y34867106D01*
X6853957Y34816174D01*
X6891453Y34767788D01*
X6920183Y34716062D01*
X6941454Y34655111D01*
X6956572Y34579052D01*
X6966847Y34481999D01*
X6973583Y34358067D01*
X6978090Y34201371D01*
X6980359Y34083951D01*
X6989333Y33570985D01*
X7585124Y33565367D01*
X8180916Y33559750D01*
X8187047Y33410658D01*
X8188106Y33334717D01*
X8185089Y33276159D01*
X8178647Y33247097D01*
X8178228Y33246617D01*
X8154297Y33243148D01*
X8092929Y33239963D01*
X7999019Y33237160D01*
X7877461Y33234833D01*
X7733151Y33233078D01*
X7570984Y33231993D01*
X7415388Y33231667D01*
X6667500Y33231667D01*
X6667500Y33812708D01*
X6666852Y34015262D01*
X6664521Y34180138D01*
X6659929Y34311975D01*
X6652494Y34415412D01*
X6641636Y34495091D01*
X6626776Y34555652D01*
X6607334Y34601733D01*
X6582729Y34637976D01*
X6561517Y34660559D01*
X6479746Y34711797D01*
X6381552Y34733106D01*
X6281885Y34722978D01*
X6217404Y34695249D01*
X6182391Y34672426D01*
X6154172Y34648672D01*
X6131926Y34619338D01*
X6114833Y34579775D01*
X6102070Y34525336D01*
X6092818Y34451370D01*
X6086256Y34353229D01*
X6081562Y34226265D01*
X6077916Y34065827D01*
X6074833Y33887833D01*
X6064250Y33242250D01*
X5910791Y33236031D01*
X5757333Y33229812D01*
X5757333Y33884475D01*
X5757707Y34091474D01*
G36*
X8191500Y35665833D02*
X8191500Y35348333D01*
X5757333Y35348333D01*
X5757333Y35665833D01*
X8191500Y35665833D01*
X8191500Y35665833D01*
G37*
X8191500Y35665833D02*
X8191500Y35348333D01*
X5757333Y35348333D01*
X5757333Y35665833D01*
X8191500Y35665833D01*
G36*
X5921375Y37778135D02*
X6074833Y37784354D01*
X6074833Y37428041D01*
X6078386Y37229592D01*
X6090297Y37066109D01*
X6112443Y36930721D01*
X6146701Y36816560D01*
X6194947Y36716757D01*
X6259059Y36624441D01*
X6310790Y36564479D01*
X6451658Y36437325D01*
X6605754Y36348892D01*
X6776874Y36297662D01*
X6968814Y36282116D01*
X7013649Y36283309D01*
X7119896Y36290423D01*
X7201208Y36303422D01*
X7274934Y36326192D01*
X7349929Y36358618D01*
X7511619Y36457283D01*
X7648093Y36589027D01*
X7756438Y36750945D01*
X7769868Y36777219D01*
X7842250Y36924133D01*
X7863416Y37771917D01*
X8180916Y37771917D01*
X8183787Y37454417D01*
X8183659Y37330303D01*
X8181321Y37209705D01*
X8177148Y37104397D01*
X8171515Y37026153D01*
X8169623Y37009917D01*
X8119948Y36793671D01*
X8033058Y36592429D01*
X7912713Y36410551D01*
X7762673Y36252394D01*
X7586695Y36122319D01*
X7388540Y36024683D01*
X7291916Y35992137D01*
X7162222Y35966651D01*
X7011014Y35955875D01*
X6855936Y35959806D01*
X6714628Y35978438D01*
X6658023Y35992264D01*
X6445846Y36075587D01*
X6254306Y36192907D01*
X6087577Y36340297D01*
X5949834Y36513829D01*
X5845252Y36709575D01*
X5816900Y36783635D01*
X5799972Y36835885D01*
X5787449Y36885559D01*
X5778676Y36940229D01*
X5772998Y37007468D01*
X5769757Y37094847D01*
X5768300Y37209937D01*
X5767969Y37348583D01*
X5767916Y37771917D01*
X5921375Y37778135D01*
X5921375Y37778135D01*
G37*
X5921375Y37778135D02*
X6074833Y37784354D01*
X6074833Y37428041D01*
X6078386Y37229592D01*
X6090297Y37066109D01*
X6112443Y36930721D01*
X6146701Y36816560D01*
X6194947Y36716757D01*
X6259059Y36624441D01*
X6310790Y36564479D01*
X6451658Y36437325D01*
X6605754Y36348892D01*
X6776874Y36297662D01*
X6968814Y36282116D01*
X7013649Y36283309D01*
X7119896Y36290423D01*
X7201208Y36303422D01*
X7274934Y36326192D01*
X7349929Y36358618D01*
X7511619Y36457283D01*
X7648093Y36589027D01*
X7756438Y36750945D01*
X7769868Y36777219D01*
X7842250Y36924133D01*
X7863416Y37771917D01*
X8180916Y37771917D01*
X8183787Y37454417D01*
X8183659Y37330303D01*
X8181321Y37209705D01*
X8177148Y37104397D01*
X8171515Y37026153D01*
X8169623Y37009917D01*
X8119948Y36793671D01*
X8033058Y36592429D01*
X7912713Y36410551D01*
X7762673Y36252394D01*
X7586695Y36122319D01*
X7388540Y36024683D01*
X7291916Y35992137D01*
X7162222Y35966651D01*
X7011014Y35955875D01*
X6855936Y35959806D01*
X6714628Y35978438D01*
X6658023Y35992264D01*
X6445846Y36075587D01*
X6254306Y36192907D01*
X6087577Y36340297D01*
X5949834Y36513829D01*
X5845252Y36709575D01*
X5816900Y36783635D01*
X5799972Y36835885D01*
X5787449Y36885559D01*
X5778676Y36940229D01*
X5772998Y37007468D01*
X5769757Y37094847D01*
X5768300Y37209937D01*
X5767969Y37348583D01*
X5767916Y37771917D01*
X5921375Y37778135D01*
D17*
X46823334Y52982857D02*
X46775715Y52935238D01*
X46632858Y52887619D01*
X46537620Y52887619D01*
X46394762Y52935238D01*
X46299524Y53030476D01*
X46251905Y53125714D01*
X46204286Y53316190D01*
X46204286Y53459048D01*
X46251905Y53649524D01*
X46299524Y53744762D01*
X46394762Y53840000D01*
X46537620Y53887619D01*
X46632858Y53887619D01*
X46775715Y53840000D01*
X46823334Y53792381D01*
X47394762Y53459048D02*
X47299524Y53506667D01*
X47251905Y53554286D01*
X47204286Y53649524D01*
X47204286Y53697143D01*
X47251905Y53792381D01*
X47299524Y53840000D01*
X47394762Y53887619D01*
X47585239Y53887619D01*
X47680477Y53840000D01*
X47728096Y53792381D01*
X47775715Y53697143D01*
X47775715Y53649524D01*
X47728096Y53554286D01*
X47680477Y53506667D01*
X47585239Y53459048D01*
X47394762Y53459048D01*
X47299524Y53411429D01*
X47251905Y53363810D01*
X47204286Y53268571D01*
X47204286Y53078095D01*
X47251905Y52982857D01*
X47299524Y52935238D01*
X47394762Y52887619D01*
X47585239Y52887619D01*
X47680477Y52935238D01*
X47728096Y52982857D01*
X47775715Y53078095D01*
X47775715Y53268571D01*
X47728096Y53363810D01*
X47680477Y53411429D01*
X47585239Y53459048D01*
X47458334Y51363619D02*
X47125000Y51839810D01*
X46886905Y51363619D02*
X46886905Y52363619D01*
X47267858Y52363619D01*
X47363096Y52316000D01*
X47410715Y52268381D01*
X47458334Y52173143D01*
X47458334Y52030286D01*
X47410715Y51935048D01*
X47363096Y51887429D01*
X47267858Y51839810D01*
X46886905Y51839810D01*
X48363096Y52363619D02*
X47886905Y52363619D01*
X47839286Y51887429D01*
X47886905Y51935048D01*
X47982143Y51982667D01*
X48220239Y51982667D01*
X48315477Y51935048D01*
X48363096Y51887429D01*
X48410715Y51792190D01*
X48410715Y51554095D01*
X48363096Y51458857D01*
X48315477Y51411238D01*
X48220239Y51363619D01*
X47982143Y51363619D01*
X47886905Y51411238D01*
X47839286Y51458857D01*
X36028334Y45743857D02*
X35980715Y45696238D01*
X35837858Y45648619D01*
X35742620Y45648619D01*
X35599762Y45696238D01*
X35504524Y45791476D01*
X35456905Y45886714D01*
X35409286Y46077190D01*
X35409286Y46220048D01*
X35456905Y46410524D01*
X35504524Y46505762D01*
X35599762Y46601000D01*
X35742620Y46648619D01*
X35837858Y46648619D01*
X35980715Y46601000D01*
X36028334Y46553381D01*
X36361667Y46648619D02*
X36980715Y46648619D01*
X36647381Y46267667D01*
X36790239Y46267667D01*
X36885477Y46220048D01*
X36933096Y46172429D01*
X36980715Y46077190D01*
X36980715Y45839095D01*
X36933096Y45743857D01*
X36885477Y45696238D01*
X36790239Y45648619D01*
X36504524Y45648619D01*
X36409286Y45696238D01*
X36361667Y45743857D01*
X29678334Y40806857D02*
X29630715Y40759238D01*
X29487858Y40711619D01*
X29392620Y40711619D01*
X29249762Y40759238D01*
X29154524Y40854476D01*
X29106905Y40949714D01*
X29059286Y41140190D01*
X29059286Y41283048D01*
X29106905Y41473524D01*
X29154524Y41568762D01*
X29249762Y41664000D01*
X29392620Y41711619D01*
X29487858Y41711619D01*
X29630715Y41664000D01*
X29678334Y41616381D01*
X30535477Y41378286D02*
X30535477Y40711619D01*
X30297381Y41759238D02*
X30059286Y41044952D01*
X30678334Y41044952D01*
X39838334Y40806857D02*
X39790715Y40759238D01*
X39647858Y40711619D01*
X39552620Y40711619D01*
X39409762Y40759238D01*
X39314524Y40854476D01*
X39266905Y40949714D01*
X39219286Y41140190D01*
X39219286Y41283048D01*
X39266905Y41473524D01*
X39314524Y41568762D01*
X39409762Y41664000D01*
X39552620Y41711619D01*
X39647858Y41711619D01*
X39790715Y41664000D01*
X39838334Y41616381D01*
X40743096Y41711619D02*
X40266905Y41711619D01*
X40219286Y41235429D01*
X40266905Y41283048D01*
X40362143Y41330667D01*
X40600239Y41330667D01*
X40695477Y41283048D01*
X40743096Y41235429D01*
X40790715Y41140190D01*
X40790715Y40902095D01*
X40743096Y40806857D01*
X40695477Y40759238D01*
X40600239Y40711619D01*
X40362143Y40711619D01*
X40266905Y40759238D01*
X40219286Y40806857D01*
X51268334Y40854357D02*
X51220715Y40806738D01*
X51077858Y40759119D01*
X50982620Y40759119D01*
X50839762Y40806738D01*
X50744524Y40901976D01*
X50696905Y40997214D01*
X50649286Y41187690D01*
X50649286Y41330548D01*
X50696905Y41521024D01*
X50744524Y41616262D01*
X50839762Y41711500D01*
X50982620Y41759119D01*
X51077858Y41759119D01*
X51220715Y41711500D01*
X51268334Y41663881D01*
X52125477Y41759119D02*
X51935000Y41759119D01*
X51839762Y41711500D01*
X51792143Y41663881D01*
X51696905Y41521024D01*
X51649286Y41330548D01*
X51649286Y40949595D01*
X51696905Y40854357D01*
X51744524Y40806738D01*
X51839762Y40759119D01*
X52030239Y40759119D01*
X52125477Y40806738D01*
X52173096Y40854357D01*
X52220715Y40949595D01*
X52220715Y41187690D01*
X52173096Y41282929D01*
X52125477Y41330548D01*
X52030239Y41378167D01*
X51839762Y41378167D01*
X51744524Y41330548D01*
X51696905Y41282929D01*
X51649286Y41187690D01*
X61428334Y40854357D02*
X61380715Y40806738D01*
X61237858Y40759119D01*
X61142620Y40759119D01*
X60999762Y40806738D01*
X60904524Y40901976D01*
X60856905Y40997214D01*
X60809286Y41187690D01*
X60809286Y41330548D01*
X60856905Y41521024D01*
X60904524Y41616262D01*
X60999762Y41711500D01*
X61142620Y41759119D01*
X61237858Y41759119D01*
X61380715Y41711500D01*
X61428334Y41663881D01*
X61761667Y41759119D02*
X62428334Y41759119D01*
X61999762Y40759119D01*
X23645905Y40695619D02*
X23645905Y41695619D01*
X23884000Y41695619D01*
X24026858Y41648000D01*
X24122096Y41552762D01*
X24169715Y41457524D01*
X24217334Y41267048D01*
X24217334Y41124190D01*
X24169715Y40933714D01*
X24122096Y40838476D01*
X24026858Y40743238D01*
X23884000Y40695619D01*
X23645905Y40695619D01*
X24550667Y41695619D02*
X25169715Y41695619D01*
X24836381Y41314667D01*
X24979239Y41314667D01*
X25074477Y41267048D01*
X25122096Y41219429D01*
X25169715Y41124190D01*
X25169715Y40886095D01*
X25122096Y40790857D01*
X25074477Y40743238D01*
X24979239Y40695619D01*
X24693524Y40695619D01*
X24598286Y40743238D01*
X24550667Y40790857D01*
X26566905Y24137619D02*
X26566905Y25137619D01*
X26805000Y25137619D01*
X26947858Y25090000D01*
X27043096Y24994762D01*
X27090715Y24899524D01*
X27138334Y24709048D01*
X27138334Y24566190D01*
X27090715Y24375714D01*
X27043096Y24280476D01*
X26947858Y24185238D01*
X26805000Y24137619D01*
X26566905Y24137619D01*
X27995477Y24804286D02*
X27995477Y24137619D01*
X27757381Y25185238D02*
X27519286Y24470952D01*
X28138334Y24470952D01*
X33821905Y40695619D02*
X33821905Y41695619D01*
X34060000Y41695619D01*
X34202858Y41648000D01*
X34298096Y41552762D01*
X34345715Y41457524D01*
X34393334Y41267048D01*
X34393334Y41124190D01*
X34345715Y40933714D01*
X34298096Y40838476D01*
X34202858Y40743238D01*
X34060000Y40695619D01*
X33821905Y40695619D01*
X35298096Y41695619D02*
X34821905Y41695619D01*
X34774286Y41219429D01*
X34821905Y41267048D01*
X34917143Y41314667D01*
X35155239Y41314667D01*
X35250477Y41267048D01*
X35298096Y41219429D01*
X35345715Y41124190D01*
X35345715Y40886095D01*
X35298096Y40790857D01*
X35250477Y40743238D01*
X35155239Y40695619D01*
X34917143Y40695619D01*
X34821905Y40743238D01*
X34774286Y40790857D01*
X36726905Y24137619D02*
X36726905Y25137619D01*
X36965000Y25137619D01*
X37107858Y25090000D01*
X37203096Y24994762D01*
X37250715Y24899524D01*
X37298334Y24709048D01*
X37298334Y24566190D01*
X37250715Y24375714D01*
X37203096Y24280476D01*
X37107858Y24185238D01*
X36965000Y24137619D01*
X36726905Y24137619D01*
X38155477Y25137619D02*
X37965000Y25137619D01*
X37869762Y25090000D01*
X37822143Y25042381D01*
X37726905Y24899524D01*
X37679286Y24709048D01*
X37679286Y24328095D01*
X37726905Y24232857D01*
X37774524Y24185238D01*
X37869762Y24137619D01*
X38060239Y24137619D01*
X38155477Y24185238D01*
X38203096Y24232857D01*
X38250715Y24328095D01*
X38250715Y24566190D01*
X38203096Y24661429D01*
X38155477Y24709048D01*
X38060239Y24756667D01*
X37869762Y24756667D01*
X37774524Y24709048D01*
X37726905Y24661429D01*
X37679286Y24566190D01*
X45235905Y40782619D02*
X45235905Y41782619D01*
X45474000Y41782619D01*
X45616858Y41735000D01*
X45712096Y41639762D01*
X45759715Y41544524D01*
X45807334Y41354048D01*
X45807334Y41211190D01*
X45759715Y41020714D01*
X45712096Y40925476D01*
X45616858Y40830238D01*
X45474000Y40782619D01*
X45235905Y40782619D01*
X46140667Y41782619D02*
X46807334Y41782619D01*
X46378762Y40782619D01*
X48156905Y24137619D02*
X48156905Y25137619D01*
X48395000Y25137619D01*
X48537858Y25090000D01*
X48633096Y24994762D01*
X48680715Y24899524D01*
X48728334Y24709048D01*
X48728334Y24566190D01*
X48680715Y24375714D01*
X48633096Y24280476D01*
X48537858Y24185238D01*
X48395000Y24137619D01*
X48156905Y24137619D01*
X49299762Y24709048D02*
X49204524Y24756667D01*
X49156905Y24804286D01*
X49109286Y24899524D01*
X49109286Y24947143D01*
X49156905Y25042381D01*
X49204524Y25090000D01*
X49299762Y25137619D01*
X49490239Y25137619D01*
X49585477Y25090000D01*
X49633096Y25042381D01*
X49680715Y24947143D01*
X49680715Y24899524D01*
X49633096Y24804286D01*
X49585477Y24756667D01*
X49490239Y24709048D01*
X49299762Y24709048D01*
X49204524Y24661429D01*
X49156905Y24613810D01*
X49109286Y24518571D01*
X49109286Y24328095D01*
X49156905Y24232857D01*
X49204524Y24185238D01*
X49299762Y24137619D01*
X49490239Y24137619D01*
X49585477Y24185238D01*
X49633096Y24232857D01*
X49680715Y24328095D01*
X49680715Y24518571D01*
X49633096Y24613810D01*
X49585477Y24661429D01*
X49490239Y24709048D01*
X55649905Y40655619D02*
X55649905Y41655619D01*
X55888000Y41655619D01*
X56030858Y41608000D01*
X56126096Y41512762D01*
X56173715Y41417524D01*
X56221334Y41227048D01*
X56221334Y41084190D01*
X56173715Y40893714D01*
X56126096Y40798476D01*
X56030858Y40703238D01*
X55888000Y40655619D01*
X55649905Y40655619D01*
X56697524Y40655619D02*
X56888000Y40655619D01*
X56983239Y40703238D01*
X57030858Y40750857D01*
X57126096Y40893714D01*
X57173715Y41084190D01*
X57173715Y41465143D01*
X57126096Y41560381D01*
X57078477Y41608000D01*
X56983239Y41655619D01*
X56792762Y41655619D01*
X56697524Y41608000D01*
X56649905Y41560381D01*
X56602286Y41465143D01*
X56602286Y41227048D01*
X56649905Y41131810D01*
X56697524Y41084190D01*
X56792762Y41036571D01*
X56983239Y41036571D01*
X57078477Y41084190D01*
X57126096Y41131810D01*
X57173715Y41227048D01*
X57840714Y24137619D02*
X57840714Y25137619D01*
X58078809Y25137619D01*
X58221667Y25090000D01*
X58316905Y24994762D01*
X58364524Y24899524D01*
X58412143Y24709048D01*
X58412143Y24566190D01*
X58364524Y24375714D01*
X58316905Y24280476D01*
X58221667Y24185238D01*
X58078809Y24137619D01*
X57840714Y24137619D01*
X59364524Y24137619D02*
X58793095Y24137619D01*
X59078809Y24137619D02*
X59078809Y25137619D01*
X58983571Y24994762D01*
X58888333Y24899524D01*
X58793095Y24851905D01*
X59983571Y25137619D02*
X60078810Y25137619D01*
X60174048Y25090000D01*
X60221667Y25042381D01*
X60269286Y24947143D01*
X60316905Y24756667D01*
X60316905Y24518571D01*
X60269286Y24328095D01*
X60221667Y24232857D01*
X60174048Y24185238D01*
X60078810Y24137619D01*
X59983571Y24137619D01*
X59888333Y24185238D01*
X59840714Y24232857D01*
X59793095Y24328095D01*
X59745476Y24518571D01*
X59745476Y24756667D01*
X59793095Y24947143D01*
X59840714Y25042381D01*
X59888333Y25090000D01*
X59983571Y25137619D01*
X37232334Y49712619D02*
X36899000Y50188810D01*
X36660905Y49712619D02*
X36660905Y50712619D01*
X37041858Y50712619D01*
X37137096Y50665000D01*
X37184715Y50617381D01*
X37232334Y50522143D01*
X37232334Y50379286D01*
X37184715Y50284048D01*
X37137096Y50236429D01*
X37041858Y50188810D01*
X36660905Y50188810D01*
X38089477Y50712619D02*
X37899000Y50712619D01*
X37803762Y50665000D01*
X37756143Y50617381D01*
X37660905Y50474524D01*
X37613286Y50284048D01*
X37613286Y49903095D01*
X37660905Y49807857D01*
X37708524Y49760238D01*
X37803762Y49712619D01*
X37994239Y49712619D01*
X38089477Y49760238D01*
X38137096Y49807857D01*
X38184715Y49903095D01*
X38184715Y50141190D01*
X38137096Y50236429D01*
X38089477Y50284048D01*
X37994239Y50331667D01*
X37803762Y50331667D01*
X37708524Y50284048D01*
X37660905Y50236429D01*
X37613286Y50141190D01*
X29678334Y32567619D02*
X29345000Y33043810D01*
X29106905Y32567619D02*
X29106905Y33567619D01*
X29487858Y33567619D01*
X29583096Y33520000D01*
X29630715Y33472381D01*
X29678334Y33377143D01*
X29678334Y33234286D01*
X29630715Y33139048D01*
X29583096Y33091429D01*
X29487858Y33043810D01*
X29106905Y33043810D01*
X30011667Y33567619D02*
X30678334Y33567619D01*
X30249762Y32567619D01*
X24410334Y32694619D02*
X24077000Y33170810D01*
X23838905Y32694619D02*
X23838905Y33694619D01*
X24219858Y33694619D01*
X24315096Y33647000D01*
X24362715Y33599381D01*
X24410334Y33504143D01*
X24410334Y33361286D01*
X24362715Y33266048D01*
X24315096Y33218429D01*
X24219858Y33170810D01*
X23838905Y33170810D01*
X24981762Y33266048D02*
X24886524Y33313667D01*
X24838905Y33361286D01*
X24791286Y33456524D01*
X24791286Y33504143D01*
X24838905Y33599381D01*
X24886524Y33647000D01*
X24981762Y33694619D01*
X25172239Y33694619D01*
X25267477Y33647000D01*
X25315096Y33599381D01*
X25362715Y33504143D01*
X25362715Y33456524D01*
X25315096Y33361286D01*
X25267477Y33313667D01*
X25172239Y33266048D01*
X24981762Y33266048D01*
X24886524Y33218429D01*
X24838905Y33170810D01*
X24791286Y33075571D01*
X24791286Y32885095D01*
X24838905Y32789857D01*
X24886524Y32742238D01*
X24981762Y32694619D01*
X25172239Y32694619D01*
X25267477Y32742238D01*
X25315096Y32789857D01*
X25362715Y32885095D01*
X25362715Y33075571D01*
X25315096Y33170810D01*
X25267477Y33218429D01*
X25172239Y33266048D01*
X39901834Y32758119D02*
X39568500Y33234310D01*
X39330405Y32758119D02*
X39330405Y33758119D01*
X39711358Y33758119D01*
X39806596Y33710500D01*
X39854215Y33662881D01*
X39901834Y33567643D01*
X39901834Y33424786D01*
X39854215Y33329548D01*
X39806596Y33281929D01*
X39711358Y33234310D01*
X39330405Y33234310D01*
X40378024Y32758119D02*
X40568500Y32758119D01*
X40663739Y32805738D01*
X40711358Y32853357D01*
X40806596Y32996214D01*
X40854215Y33186690D01*
X40854215Y33567643D01*
X40806596Y33662881D01*
X40758977Y33710500D01*
X40663739Y33758119D01*
X40473262Y33758119D01*
X40378024Y33710500D01*
X40330405Y33662881D01*
X40282786Y33567643D01*
X40282786Y33329548D01*
X40330405Y33234310D01*
X40378024Y33186690D01*
X40473262Y33139071D01*
X40663739Y33139071D01*
X40758977Y33186690D01*
X40806596Y33234310D01*
X40854215Y33329548D01*
X34599643Y32758119D02*
X34266309Y33234310D01*
X34028214Y32758119D02*
X34028214Y33758119D01*
X34409167Y33758119D01*
X34504405Y33710500D01*
X34552024Y33662881D01*
X34599643Y33567643D01*
X34599643Y33424786D01*
X34552024Y33329548D01*
X34504405Y33281929D01*
X34409167Y33234310D01*
X34028214Y33234310D01*
X35552024Y32758119D02*
X34980595Y32758119D01*
X35266309Y32758119D02*
X35266309Y33758119D01*
X35171071Y33615262D01*
X35075833Y33520024D01*
X34980595Y33472405D01*
X36171071Y33758119D02*
X36266310Y33758119D01*
X36361548Y33710500D01*
X36409167Y33662881D01*
X36456786Y33567643D01*
X36504405Y33377167D01*
X36504405Y33139071D01*
X36456786Y32948595D01*
X36409167Y32853357D01*
X36361548Y32805738D01*
X36266310Y32758119D01*
X36171071Y32758119D01*
X36075833Y32805738D01*
X36028214Y32853357D01*
X35980595Y32948595D01*
X35932976Y33139071D01*
X35932976Y33377167D01*
X35980595Y33567643D01*
X36028214Y33662881D01*
X36075833Y33710500D01*
X36171071Y33758119D01*
X50601643Y32821619D02*
X50268309Y33297810D01*
X50030214Y32821619D02*
X50030214Y33821619D01*
X50411167Y33821619D01*
X50506405Y33774000D01*
X50554024Y33726381D01*
X50601643Y33631143D01*
X50601643Y33488286D01*
X50554024Y33393048D01*
X50506405Y33345429D01*
X50411167Y33297810D01*
X50030214Y33297810D01*
X51554024Y32821619D02*
X50982595Y32821619D01*
X51268309Y32821619D02*
X51268309Y33821619D01*
X51173071Y33678762D01*
X51077833Y33583524D01*
X50982595Y33535905D01*
X52506405Y32821619D02*
X51934976Y32821619D01*
X52220690Y32821619D02*
X52220690Y33821619D01*
X52125452Y33678762D01*
X52030214Y33583524D01*
X51934976Y33535905D01*
X46029643Y32821619D02*
X45696309Y33297810D01*
X45458214Y32821619D02*
X45458214Y33821619D01*
X45839167Y33821619D01*
X45934405Y33774000D01*
X45982024Y33726381D01*
X46029643Y33631143D01*
X46029643Y33488286D01*
X45982024Y33393048D01*
X45934405Y33345429D01*
X45839167Y33297810D01*
X45458214Y33297810D01*
X46982024Y32821619D02*
X46410595Y32821619D01*
X46696309Y32821619D02*
X46696309Y33821619D01*
X46601071Y33678762D01*
X46505833Y33583524D01*
X46410595Y33535905D01*
X47362976Y33726381D02*
X47410595Y33774000D01*
X47505833Y33821619D01*
X47743929Y33821619D01*
X47839167Y33774000D01*
X47886786Y33726381D01*
X47934405Y33631143D01*
X47934405Y33535905D01*
X47886786Y33393048D01*
X47315357Y32821619D01*
X47934405Y32821619D01*
X60571143Y32758119D02*
X60237809Y33234310D01*
X59999714Y32758119D02*
X59999714Y33758119D01*
X60380667Y33758119D01*
X60475905Y33710500D01*
X60523524Y33662881D01*
X60571143Y33567643D01*
X60571143Y33424786D01*
X60523524Y33329548D01*
X60475905Y33281929D01*
X60380667Y33234310D01*
X59999714Y33234310D01*
X61523524Y32758119D02*
X60952095Y32758119D01*
X61237809Y32758119D02*
X61237809Y33758119D01*
X61142571Y33615262D01*
X61047333Y33520024D01*
X60952095Y33472405D01*
X61856857Y33758119D02*
X62475905Y33758119D01*
X62142571Y33377167D01*
X62285429Y33377167D01*
X62380667Y33329548D01*
X62428286Y33281929D01*
X62475905Y33186690D01*
X62475905Y32948595D01*
X62428286Y32853357D01*
X62380667Y32805738D01*
X62285429Y32758119D01*
X61999714Y32758119D01*
X61904476Y32805738D01*
X61856857Y32853357D01*
X56189643Y32821619D02*
X55856309Y33297810D01*
X55618214Y32821619D02*
X55618214Y33821619D01*
X55999167Y33821619D01*
X56094405Y33774000D01*
X56142024Y33726381D01*
X56189643Y33631143D01*
X56189643Y33488286D01*
X56142024Y33393048D01*
X56094405Y33345429D01*
X55999167Y33297810D01*
X55618214Y33297810D01*
X57142024Y32821619D02*
X56570595Y32821619D01*
X56856309Y32821619D02*
X56856309Y33821619D01*
X56761071Y33678762D01*
X56665833Y33583524D01*
X56570595Y33535905D01*
X57999167Y33488286D02*
X57999167Y32821619D01*
X57761071Y33869238D02*
X57522976Y33154952D01*
X58142024Y33154952D01*
D11*
X23879024Y28454048D02*
X23274262Y28030715D01*
X23879024Y27728334D02*
X22609024Y27728334D01*
X22609024Y28212143D01*
X22669500Y28333096D01*
X22729976Y28393572D01*
X22850929Y28454048D01*
X23032357Y28454048D01*
X23153310Y28393572D01*
X23213786Y28333096D01*
X23274262Y28212143D01*
X23274262Y27728334D01*
X22609024Y28816905D02*
X23879024Y29240239D01*
X22609024Y29663572D01*
X23879024Y30752143D02*
X23879024Y30026429D01*
X23879024Y30389286D02*
X22609024Y30389286D01*
X22790452Y30268334D01*
X22911405Y30147381D01*
X22971881Y30026429D01*
X34039024Y28454048D02*
X33434262Y28030715D01*
X34039024Y27728334D02*
X32769024Y27728334D01*
X32769024Y28212143D01*
X32829500Y28333096D01*
X32889976Y28393572D01*
X33010929Y28454048D01*
X33192357Y28454048D01*
X33313310Y28393572D01*
X33373786Y28333096D01*
X33434262Y28212143D01*
X33434262Y27728334D01*
X32769024Y28816905D02*
X34039024Y29240239D01*
X32769024Y29663572D01*
X32889976Y30026429D02*
X32829500Y30086905D01*
X32769024Y30207857D01*
X32769024Y30510238D01*
X32829500Y30631191D01*
X32889976Y30691667D01*
X33010929Y30752143D01*
X33131881Y30752143D01*
X33313310Y30691667D01*
X34039024Y29965953D01*
X34039024Y30752143D01*
X45532524Y28454048D02*
X44927762Y28030715D01*
X45532524Y27728334D02*
X44262524Y27728334D01*
X44262524Y28212143D01*
X44323000Y28333096D01*
X44383476Y28393572D01*
X44504429Y28454048D01*
X44685857Y28454048D01*
X44806810Y28393572D01*
X44867286Y28333096D01*
X44927762Y28212143D01*
X44927762Y27728334D01*
X44262524Y28816905D02*
X45532524Y29240239D01*
X44262524Y29663572D01*
X44262524Y29965953D02*
X44262524Y30752143D01*
X44746333Y30328810D01*
X44746333Y30510238D01*
X44806810Y30631191D01*
X44867286Y30691667D01*
X44988238Y30752143D01*
X45290619Y30752143D01*
X45411571Y30691667D01*
X45472048Y30631191D01*
X45532524Y30510238D01*
X45532524Y30147381D01*
X45472048Y30026429D01*
X45411571Y29965953D01*
X55692524Y28454048D02*
X55087762Y28030715D01*
X55692524Y27728334D02*
X54422524Y27728334D01*
X54422524Y28212143D01*
X54483000Y28333096D01*
X54543476Y28393572D01*
X54664429Y28454048D01*
X54845857Y28454048D01*
X54966810Y28393572D01*
X55027286Y28333096D01*
X55087762Y28212143D01*
X55087762Y27728334D01*
X54422524Y28816905D02*
X55692524Y29240239D01*
X54422524Y29663572D01*
X54845857Y30631191D02*
X55692524Y30631191D01*
X54362048Y30328810D02*
X55269190Y30026429D01*
X55269190Y30812619D01*
D17*
X41783095Y49817619D02*
X41783095Y49008095D01*
X41830714Y48912857D01*
X41878333Y48865238D01*
X41973571Y48817619D01*
X42164048Y48817619D01*
X42259286Y48865238D01*
X42306905Y48912857D01*
X42354524Y49008095D01*
X42354524Y49817619D01*
X42783095Y49722381D02*
X42830714Y49770000D01*
X42925952Y49817619D01*
X43164048Y49817619D01*
X43259286Y49770000D01*
X43306905Y49722381D01*
X43354524Y49627143D01*
X43354524Y49531905D01*
X43306905Y49389048D01*
X42735476Y48817619D01*
X43354524Y48817619D01*
X32210476Y62523619D02*
X32877143Y61523619D01*
X32877143Y62523619D02*
X32210476Y61523619D01*
X33781905Y61523619D02*
X33210476Y61523619D01*
X33496190Y61523619D02*
X33496190Y62523619D01*
X33400952Y62380762D01*
X33305714Y62285524D01*
X33210476Y62237905D01*
X33488334Y56030857D02*
X33440715Y55983238D01*
X33297858Y55935619D01*
X33202620Y55935619D01*
X33059762Y55983238D01*
X32964524Y56078476D01*
X32916905Y56173714D01*
X32869286Y56364190D01*
X32869286Y56507048D01*
X32916905Y56697524D01*
X32964524Y56792762D01*
X33059762Y56888000D01*
X33202620Y56935619D01*
X33297858Y56935619D01*
X33440715Y56888000D01*
X33488334Y56840381D01*
X34440715Y55935619D02*
X33869286Y55935619D01*
X34155000Y55935619D02*
X34155000Y56935619D01*
X34059762Y56792762D01*
X33964524Y56697524D01*
X33869286Y56649905D01*
X39028810Y62947619D02*
X39028810Y63947619D01*
X40076429Y63042857D02*
X40028810Y62995238D01*
X39885953Y62947619D01*
X39790715Y62947619D01*
X39647857Y62995238D01*
X39552619Y63090476D01*
X39505000Y63185714D01*
X39457381Y63376190D01*
X39457381Y63519048D01*
X39505000Y63709524D01*
X39552619Y63804762D01*
X39647857Y63900000D01*
X39790715Y63947619D01*
X39885953Y63947619D01*
X40028810Y63900000D01*
X40076429Y63852381D01*
X41028810Y62947619D02*
X40457381Y62947619D01*
X40743095Y62947619D02*
X40743095Y63947619D01*
X40647857Y63804762D01*
X40552619Y63709524D01*
X40457381Y63661905D01*
X46347143Y62507857D02*
X46299524Y62460238D01*
X46156667Y62412619D01*
X46061429Y62412619D01*
X45918571Y62460238D01*
X45823333Y62555476D01*
X45775714Y62650714D01*
X45728095Y62841190D01*
X45728095Y62984048D01*
X45775714Y63174524D01*
X45823333Y63269762D01*
X45918571Y63365000D01*
X46061429Y63412619D01*
X46156667Y63412619D01*
X46299524Y63365000D01*
X46347143Y63317381D01*
X47299524Y62412619D02*
X46728095Y62412619D01*
X47013809Y62412619D02*
X47013809Y63412619D01*
X46918571Y63269762D01*
X46823333Y63174524D01*
X46728095Y63126905D01*
X48251905Y62412619D02*
X47680476Y62412619D01*
X47966190Y62412619D02*
X47966190Y63412619D01*
X47870952Y63269762D01*
X47775714Y63174524D01*
X47680476Y63126905D01*
X2984595Y42013119D02*
X2984595Y41203595D01*
X3032214Y41108357D01*
X3079833Y41060738D01*
X3175071Y41013119D01*
X3365548Y41013119D01*
X3460786Y41060738D01*
X3508405Y41108357D01*
X3556024Y41203595D01*
X3556024Y42013119D01*
X3936976Y42013119D02*
X4556024Y42013119D01*
X4222690Y41632167D01*
X4365548Y41632167D01*
X4460786Y41584548D01*
X4508405Y41536929D01*
X4556024Y41441690D01*
X4556024Y41203595D01*
X4508405Y41108357D01*
X4460786Y41060738D01*
X4365548Y41013119D01*
X4079833Y41013119D01*
X3984595Y41060738D01*
X3936976Y41108357D01*
X2897143Y51268334D02*
X2944762Y51220715D01*
X2992381Y51077858D01*
X2992381Y50982620D01*
X2944762Y50839762D01*
X2849524Y50744524D01*
X2754286Y50696905D01*
X2563810Y50649286D01*
X2420952Y50649286D01*
X2230476Y50696905D01*
X2135238Y50744524D01*
X2040000Y50839762D01*
X1992381Y50982620D01*
X1992381Y51077858D01*
X2040000Y51220715D01*
X2087619Y51268334D01*
X2992381Y51744524D02*
X2992381Y51935000D01*
X2944762Y52030239D01*
X2897143Y52077858D01*
X2754286Y52173096D01*
X2563810Y52220715D01*
X2182857Y52220715D01*
X2087619Y52173096D01*
X2040000Y52125477D01*
X1992381Y52030239D01*
X1992381Y51839762D01*
X2040000Y51744524D01*
X2087619Y51696905D01*
X2182857Y51649286D01*
X2420952Y51649286D01*
X2516190Y51696905D01*
X2563810Y51744524D01*
X2611429Y51839762D01*
X2611429Y52030239D01*
X2563810Y52125477D01*
X2516190Y52173096D01*
X2420952Y52220715D01*
X9247143Y50792143D02*
X9294762Y50744524D01*
X9342381Y50601667D01*
X9342381Y50506429D01*
X9294762Y50363571D01*
X9199524Y50268333D01*
X9104286Y50220714D01*
X8913810Y50173095D01*
X8770952Y50173095D01*
X8580476Y50220714D01*
X8485238Y50268333D01*
X8390000Y50363571D01*
X8342381Y50506429D01*
X8342381Y50601667D01*
X8390000Y50744524D01*
X8437619Y50792143D01*
X9342381Y51744524D02*
X9342381Y51173095D01*
X9342381Y51458809D02*
X8342381Y51458809D01*
X8485238Y51363571D01*
X8580476Y51268333D01*
X8628095Y51173095D01*
X8342381Y52363571D02*
X8342381Y52458810D01*
X8390000Y52554048D01*
X8437619Y52601667D01*
X8532857Y52649286D01*
X8723333Y52696905D01*
X8961429Y52696905D01*
X9151905Y52649286D01*
X9247143Y52601667D01*
X9294762Y52554048D01*
X9342381Y52458810D01*
X9342381Y52363571D01*
X9294762Y52268333D01*
X9247143Y52220714D01*
X9151905Y52173095D01*
X8961429Y52125476D01*
X8723333Y52125476D01*
X8532857Y52173095D01*
X8437619Y52220714D01*
X8390000Y52268333D01*
X8342381Y52363571D01*
X16851334Y23772857D02*
X16803715Y23725238D01*
X16660858Y23677619D01*
X16565620Y23677619D01*
X16422762Y23725238D01*
X16327524Y23820476D01*
X16279905Y23915714D01*
X16232286Y24106190D01*
X16232286Y24249048D01*
X16279905Y24439524D01*
X16327524Y24534762D01*
X16422762Y24630000D01*
X16565620Y24677619D01*
X16660858Y24677619D01*
X16803715Y24630000D01*
X16851334Y24582381D01*
X17232286Y24582381D02*
X17279905Y24630000D01*
X17375143Y24677619D01*
X17613239Y24677619D01*
X17708477Y24630000D01*
X17756096Y24582381D01*
X17803715Y24487143D01*
X17803715Y24391905D01*
X17756096Y24249048D01*
X17184667Y23677619D01*
X17803715Y23677619D01*
X70064405Y59237619D02*
X70064405Y60237619D01*
X70302500Y60237619D01*
X70445358Y60190000D01*
X70540596Y60094762D01*
X70588215Y59999524D01*
X70635834Y59809048D01*
X70635834Y59666190D01*
X70588215Y59475714D01*
X70540596Y59380476D01*
X70445358Y59285238D01*
X70302500Y59237619D01*
X70064405Y59237619D01*
X71016786Y60142381D02*
X71064405Y60190000D01*
X71159643Y60237619D01*
X71397739Y60237619D01*
X71492977Y60190000D01*
X71540596Y60142381D01*
X71588215Y60047143D01*
X71588215Y59951905D01*
X71540596Y59809048D01*
X70969167Y59237619D01*
X71588215Y59237619D01*
X62063334Y64317619D02*
X61730000Y64793810D01*
X61491905Y64317619D02*
X61491905Y65317619D01*
X61872858Y65317619D01*
X61968096Y65270000D01*
X62015715Y65222381D01*
X62063334Y65127143D01*
X62063334Y64984286D01*
X62015715Y64889048D01*
X61968096Y64841429D01*
X61872858Y64793810D01*
X61491905Y64793810D01*
X63015715Y64317619D02*
X62444286Y64317619D01*
X62730000Y64317619D02*
X62730000Y65317619D01*
X62634762Y65174762D01*
X62539524Y65079524D01*
X62444286Y65031905D01*
X62063334Y61777619D02*
X61730000Y62253810D01*
X61491905Y61777619D02*
X61491905Y62777619D01*
X61872858Y62777619D01*
X61968096Y62730000D01*
X62015715Y62682381D01*
X62063334Y62587143D01*
X62063334Y62444286D01*
X62015715Y62349048D01*
X61968096Y62301429D01*
X61872858Y62253810D01*
X61491905Y62253810D01*
X62444286Y62682381D02*
X62491905Y62730000D01*
X62587143Y62777619D01*
X62825239Y62777619D01*
X62920477Y62730000D01*
X62968096Y62682381D01*
X63015715Y62587143D01*
X63015715Y62491905D01*
X62968096Y62349048D01*
X62396667Y61777619D01*
X63015715Y61777619D01*
X62063334Y66857619D02*
X61730000Y67333810D01*
X61491905Y66857619D02*
X61491905Y67857619D01*
X61872858Y67857619D01*
X61968096Y67810000D01*
X62015715Y67762381D01*
X62063334Y67667143D01*
X62063334Y67524286D01*
X62015715Y67429048D01*
X61968096Y67381429D01*
X61872858Y67333810D01*
X61491905Y67333810D01*
X62396667Y67857619D02*
X63015715Y67857619D01*
X62682381Y67476667D01*
X62825239Y67476667D01*
X62920477Y67429048D01*
X62968096Y67381429D01*
X63015715Y67286190D01*
X63015715Y67048095D01*
X62968096Y66952857D01*
X62920477Y66905238D01*
X62825239Y66857619D01*
X62539524Y66857619D01*
X62444286Y66905238D01*
X62396667Y66952857D01*
X10279143Y52887619D02*
X9945809Y53363810D01*
X9707714Y52887619D02*
X9707714Y53887619D01*
X10088667Y53887619D01*
X10183905Y53840000D01*
X10231524Y53792381D01*
X10279143Y53697143D01*
X10279143Y53554286D01*
X10231524Y53459048D01*
X10183905Y53411429D01*
X10088667Y53363810D01*
X9707714Y53363810D01*
X11231524Y52887619D02*
X10660095Y52887619D01*
X10945809Y52887619D02*
X10945809Y53887619D01*
X10850571Y53744762D01*
X10755333Y53649524D01*
X10660095Y53601905D01*
X11707714Y52887619D02*
X11898190Y52887619D01*
X11993429Y52935238D01*
X12041048Y52982857D01*
X12136286Y53125714D01*
X12183905Y53316190D01*
X12183905Y53697143D01*
X12136286Y53792381D01*
X12088667Y53840000D01*
X11993429Y53887619D01*
X11802952Y53887619D01*
X11707714Y53840000D01*
X11660095Y53792381D01*
X11612476Y53697143D01*
X11612476Y53459048D01*
X11660095Y53363810D01*
X11707714Y53316190D01*
X11802952Y53268571D01*
X11993429Y53268571D01*
X12088667Y53316190D01*
X12136286Y53363810D01*
X12183905Y53459048D01*
X10279143Y50347619D02*
X9945809Y50823810D01*
X9707714Y50347619D02*
X9707714Y51347619D01*
X10088667Y51347619D01*
X10183905Y51300000D01*
X10231524Y51252381D01*
X10279143Y51157143D01*
X10279143Y51014286D01*
X10231524Y50919048D01*
X10183905Y50871429D01*
X10088667Y50823810D01*
X9707714Y50823810D01*
X10660095Y51252381D02*
X10707714Y51300000D01*
X10802952Y51347619D01*
X11041048Y51347619D01*
X11136286Y51300000D01*
X11183905Y51252381D01*
X11231524Y51157143D01*
X11231524Y51061905D01*
X11183905Y50919048D01*
X10612476Y50347619D01*
X11231524Y50347619D01*
X11850571Y51347619D02*
X11945810Y51347619D01*
X12041048Y51300000D01*
X12088667Y51252381D01*
X12136286Y51157143D01*
X12183905Y50966667D01*
X12183905Y50728571D01*
X12136286Y50538095D01*
X12088667Y50442857D01*
X12041048Y50395238D01*
X11945810Y50347619D01*
X11850571Y50347619D01*
X11755333Y50395238D01*
X11707714Y50442857D01*
X11660095Y50538095D01*
X11612476Y50728571D01*
X11612476Y50966667D01*
X11660095Y51157143D01*
X11707714Y51252381D01*
X11755333Y51300000D01*
X11850571Y51347619D01*
X12136381Y47871143D02*
X11660190Y47537809D01*
X12136381Y47299714D02*
X11136381Y47299714D01*
X11136381Y47680667D01*
X11184000Y47775905D01*
X11231619Y47823524D01*
X11326857Y47871143D01*
X11469714Y47871143D01*
X11564952Y47823524D01*
X11612571Y47775905D01*
X11660190Y47680667D01*
X11660190Y47299714D01*
X11231619Y48252095D02*
X11184000Y48299714D01*
X11136381Y48394952D01*
X11136381Y48633048D01*
X11184000Y48728286D01*
X11231619Y48775905D01*
X11326857Y48823524D01*
X11422095Y48823524D01*
X11564952Y48775905D01*
X12136381Y48204476D01*
X12136381Y48823524D01*
X12136381Y49775905D02*
X12136381Y49204476D01*
X12136381Y49490190D02*
X11136381Y49490190D01*
X11279238Y49394952D01*
X11374476Y49299714D01*
X11422095Y49204476D01*
X12136381Y44696143D02*
X11660190Y44362809D01*
X12136381Y44124714D02*
X11136381Y44124714D01*
X11136381Y44505667D01*
X11184000Y44600905D01*
X11231619Y44648524D01*
X11326857Y44696143D01*
X11469714Y44696143D01*
X11564952Y44648524D01*
X11612571Y44600905D01*
X11660190Y44505667D01*
X11660190Y44124714D01*
X12136381Y45648524D02*
X12136381Y45077095D01*
X12136381Y45362809D02*
X11136381Y45362809D01*
X11279238Y45267571D01*
X11374476Y45172333D01*
X11422095Y45077095D01*
X11136381Y46553286D02*
X11136381Y46077095D01*
X11612571Y46029476D01*
X11564952Y46077095D01*
X11517333Y46172333D01*
X11517333Y46410429D01*
X11564952Y46505667D01*
X11612571Y46553286D01*
X11707810Y46600905D01*
X11945905Y46600905D01*
X12041143Y46553286D01*
X12088762Y46505667D01*
X12136381Y46410429D01*
X12136381Y46172333D01*
X12088762Y46077095D01*
X12041143Y46029476D01*
X12136381Y41648143D02*
X11660190Y41314809D01*
X12136381Y41076714D02*
X11136381Y41076714D01*
X11136381Y41457667D01*
X11184000Y41552905D01*
X11231619Y41600524D01*
X11326857Y41648143D01*
X11469714Y41648143D01*
X11564952Y41600524D01*
X11612571Y41552905D01*
X11660190Y41457667D01*
X11660190Y41076714D01*
X12136381Y42600524D02*
X12136381Y42029095D01*
X12136381Y42314809D02*
X11136381Y42314809D01*
X11279238Y42219571D01*
X11374476Y42124333D01*
X11422095Y42029095D01*
X11136381Y43457667D02*
X11136381Y43267190D01*
X11184000Y43171952D01*
X11231619Y43124333D01*
X11374476Y43029095D01*
X11564952Y42981476D01*
X11945905Y42981476D01*
X12041143Y43029095D01*
X12088762Y43076714D01*
X12136381Y43171952D01*
X12136381Y43362429D01*
X12088762Y43457667D01*
X12041143Y43505286D01*
X11945905Y43552905D01*
X11707810Y43552905D01*
X11612571Y43505286D01*
X11564952Y43457667D01*
X11517333Y43362429D01*
X11517333Y43171952D01*
X11564952Y43076714D01*
X11612571Y43029095D01*
X11707810Y42981476D01*
X10152143Y35742619D02*
X9818809Y36218810D01*
X9580714Y35742619D02*
X9580714Y36742619D01*
X9961667Y36742619D01*
X10056905Y36695000D01*
X10104524Y36647381D01*
X10152143Y36552143D01*
X10152143Y36409286D01*
X10104524Y36314048D01*
X10056905Y36266429D01*
X9961667Y36218810D01*
X9580714Y36218810D01*
X11104524Y35742619D02*
X10533095Y35742619D01*
X10818809Y35742619D02*
X10818809Y36742619D01*
X10723571Y36599762D01*
X10628333Y36504524D01*
X10533095Y36456905D01*
X11675952Y36314048D02*
X11580714Y36361667D01*
X11533095Y36409286D01*
X11485476Y36504524D01*
X11485476Y36552143D01*
X11533095Y36647381D01*
X11580714Y36695000D01*
X11675952Y36742619D01*
X11866429Y36742619D01*
X11961667Y36695000D01*
X12009286Y36647381D01*
X12056905Y36552143D01*
X12056905Y36504524D01*
X12009286Y36409286D01*
X11961667Y36361667D01*
X11866429Y36314048D01*
X11675952Y36314048D01*
X11580714Y36266429D01*
X11533095Y36218810D01*
X11485476Y36123571D01*
X11485476Y35933095D01*
X11533095Y35837857D01*
X11580714Y35790238D01*
X11675952Y35742619D01*
X11866429Y35742619D01*
X11961667Y35790238D01*
X12009286Y35837857D01*
X12056905Y35933095D01*
X12056905Y36123571D01*
X12009286Y36218810D01*
X11961667Y36266429D01*
X11866429Y36314048D01*
X62063334Y59237619D02*
X61730000Y59713810D01*
X61491905Y59237619D02*
X61491905Y60237619D01*
X61872858Y60237619D01*
X61968096Y60190000D01*
X62015715Y60142381D01*
X62063334Y60047143D01*
X62063334Y59904286D01*
X62015715Y59809048D01*
X61968096Y59761429D01*
X61872858Y59713810D01*
X61491905Y59713810D01*
X62920477Y59904286D02*
X62920477Y59237619D01*
X62682381Y60285238D02*
X62444286Y59570952D01*
X63063334Y59570952D01*
X20066095Y31027619D02*
X20066095Y30218095D01*
X20113714Y30122857D01*
X20161333Y30075238D01*
X20256571Y30027619D01*
X20447048Y30027619D01*
X20542286Y30075238D01*
X20589905Y30122857D01*
X20637524Y30218095D01*
X20637524Y31027619D01*
X21637524Y30027619D02*
X21066095Y30027619D01*
X21351809Y30027619D02*
X21351809Y31027619D01*
X21256571Y30884762D01*
X21161333Y30789524D01*
X21066095Y30741905D01*
X69175405Y66857619D02*
X69175405Y67857619D01*
X69413500Y67857619D01*
X69556358Y67810000D01*
X69651596Y67714762D01*
X69699215Y67619524D01*
X69746834Y67429048D01*
X69746834Y67286190D01*
X69699215Y67095714D01*
X69651596Y67000476D01*
X69556358Y66905238D01*
X69413500Y66857619D01*
X69175405Y66857619D01*
X70699215Y66857619D02*
X70127786Y66857619D01*
X70413500Y66857619D02*
X70413500Y67857619D01*
X70318262Y67714762D01*
X70223024Y67619524D01*
X70127786Y67571905D01*
D15*
X5261429Y58976381D02*
X4777620Y58976381D01*
X4729239Y58492571D01*
X4777620Y58540952D01*
X4874382Y58589333D01*
X5116286Y58589333D01*
X5213048Y58540952D01*
X5261429Y58492571D01*
X5309810Y58395810D01*
X5309810Y58153905D01*
X5261429Y58057143D01*
X5213048Y58008762D01*
X5116286Y57960381D01*
X4874382Y57960381D01*
X4777620Y58008762D01*
X4729239Y58057143D01*
X5600096Y58976381D02*
X5938763Y57960381D01*
X6277429Y58976381D01*
X7051524Y57960381D02*
X7051524Y58976381D01*
X7051524Y58008762D02*
X6954762Y57960381D01*
X6761239Y57960381D01*
X6664477Y58008762D01*
X6616096Y58057143D01*
X6567715Y58153905D01*
X6567715Y58444190D01*
X6616096Y58540952D01*
X6664477Y58589333D01*
X6761239Y58637714D01*
X6954762Y58637714D01*
X7051524Y58589333D01*
X7970762Y58008762D02*
X7874000Y57960381D01*
X7680477Y57960381D01*
X7583715Y58008762D01*
X7535334Y58057143D01*
X7486953Y58153905D01*
X7486953Y58444190D01*
X7535334Y58540952D01*
X7583715Y58589333D01*
X7680477Y58637714D01*
X7874000Y58637714D01*
X7970762Y58589333D01*
D17*
X18319762Y51482381D02*
X18224524Y51530000D01*
X18129286Y51625238D01*
X17986429Y51768095D01*
X17891190Y51815714D01*
X17795952Y51815714D01*
X17843571Y51577619D02*
X17748333Y51625238D01*
X17653095Y51720476D01*
X17605476Y51910952D01*
X17605476Y52244286D01*
X17653095Y52434762D01*
X17748333Y52530000D01*
X17843571Y52577619D01*
X18034048Y52577619D01*
X18129286Y52530000D01*
X18224524Y52434762D01*
X18272143Y52244286D01*
X18272143Y51910952D01*
X18224524Y51720476D01*
X18129286Y51625238D01*
X18034048Y51577619D01*
X17843571Y51577619D01*
X19129286Y52244286D02*
X19129286Y51577619D01*
X18891190Y52625238D02*
X18653095Y51910952D01*
X19272143Y51910952D01*
X18319762Y45767381D02*
X18224524Y45815000D01*
X18129286Y45910238D01*
X17986429Y46053095D01*
X17891190Y46100714D01*
X17795952Y46100714D01*
X17843571Y45862619D02*
X17748333Y45910238D01*
X17653095Y46005476D01*
X17605476Y46195952D01*
X17605476Y46529286D01*
X17653095Y46719762D01*
X17748333Y46815000D01*
X17843571Y46862619D01*
X18034048Y46862619D01*
X18129286Y46815000D01*
X18224524Y46719762D01*
X18272143Y46529286D01*
X18272143Y46195952D01*
X18224524Y46005476D01*
X18129286Y45910238D01*
X18034048Y45862619D01*
X17843571Y45862619D01*
X18653095Y46767381D02*
X18700714Y46815000D01*
X18795952Y46862619D01*
X19034048Y46862619D01*
X19129286Y46815000D01*
X19176905Y46767381D01*
X19224524Y46672143D01*
X19224524Y46576905D01*
X19176905Y46434048D01*
X18605476Y45862619D01*
X19224524Y45862619D01*
X18319762Y39417381D02*
X18224524Y39465000D01*
X18129286Y39560238D01*
X17986429Y39703095D01*
X17891190Y39750714D01*
X17795952Y39750714D01*
X17843571Y39512619D02*
X17748333Y39560238D01*
X17653095Y39655476D01*
X17605476Y39845952D01*
X17605476Y40179286D01*
X17653095Y40369762D01*
X17748333Y40465000D01*
X17843571Y40512619D01*
X18034048Y40512619D01*
X18129286Y40465000D01*
X18224524Y40369762D01*
X18272143Y40179286D01*
X18272143Y39845952D01*
X18224524Y39655476D01*
X18129286Y39560238D01*
X18034048Y39512619D01*
X17843571Y39512619D01*
X18605476Y40512619D02*
X19224524Y40512619D01*
X18891190Y40131667D01*
X19034048Y40131667D01*
X19129286Y40084048D01*
X19176905Y40036429D01*
X19224524Y39941190D01*
X19224524Y39703095D01*
X19176905Y39607857D01*
X19129286Y39560238D01*
X19034048Y39512619D01*
X18748333Y39512619D01*
X18653095Y39560238D01*
X18605476Y39607857D01*
X3087619Y55784762D02*
X3040000Y55689524D01*
X2944762Y55594286D01*
X2801905Y55451429D01*
X2754286Y55356190D01*
X2754286Y55260952D01*
X2992381Y55308571D02*
X2944762Y55213333D01*
X2849524Y55118095D01*
X2659048Y55070476D01*
X2325714Y55070476D01*
X2135238Y55118095D01*
X2040000Y55213333D01*
X1992381Y55308571D01*
X1992381Y55499048D01*
X2040000Y55594286D01*
X2135238Y55689524D01*
X2325714Y55737143D01*
X2659048Y55737143D01*
X2849524Y55689524D01*
X2944762Y55594286D01*
X2992381Y55499048D01*
X2992381Y55308571D01*
X2992381Y56689524D02*
X2992381Y56118095D01*
X2992381Y56403809D02*
X1992381Y56403809D01*
X2135238Y56308571D01*
X2230476Y56213333D01*
X2278095Y56118095D01*
X10215643Y38155619D02*
X9882309Y38631810D01*
X9644214Y38155619D02*
X9644214Y39155619D01*
X10025167Y39155619D01*
X10120405Y39108000D01*
X10168024Y39060381D01*
X10215643Y38965143D01*
X10215643Y38822286D01*
X10168024Y38727048D01*
X10120405Y38679429D01*
X10025167Y38631810D01*
X9644214Y38631810D01*
X11168024Y38155619D02*
X10596595Y38155619D01*
X10882309Y38155619D02*
X10882309Y39155619D01*
X10787071Y39012762D01*
X10691833Y38917524D01*
X10596595Y38869905D01*
X11501357Y39155619D02*
X12168024Y39155619D01*
X11739452Y38155619D01*
M02*
