M48
;DRILL file {KiCad 4.0.4-stable} date 11/14/16 12:13:27
;FORMAT={-:-/ absolute / inch / decimal}
FMAT,2
INCH,TZ
T1C0.013
T2C0.036
T3C0.040
T4C0.043
T5C0.051
T6C0.091
%
G90
G05
M72
T1
X0.95Y3.35
X0.95Y3.2
X0.95Y2.55
X0.95Y2.4
X0.95Y1.75
X0.95Y1.6
X0.95Y0.95
X0.95Y0.8
X1.125Y0.375
X1.125Y0.3
X1.125Y0.175
X1.125Y0.075
X1.2Y0.75
X1.225Y3.35
X1.225Y3.2
X1.225Y2.55
X1.225Y2.4
X1.225Y1.75
X1.225Y1.6
X1.225Y0.95
X1.3Y0.375
X1.35Y0.15
X1.375Y0.775
X1.4Y0.375
X1.4Y0.1
X1.425Y0.9
X1.425Y0.775
X1.425Y0.725
X1.45Y3.425
X1.45Y2.625
X1.45Y1.825
X1.45Y1.025
X1.475Y3.175
X1.475Y2.375
X1.475Y1.575
X1.5Y0.375
X1.525Y3.85
X1.525Y1.1
X1.575Y3.675
X1.575Y3.175
X1.575Y2.875
X1.575Y2.375
X1.575Y2.075
X1.575Y1.575
X1.575Y1.25
X1.6Y3.15
X1.6Y2.35
X1.6Y1.55
X1.6Y0.9
X1.625Y0.375
X1.675Y3.775
X1.675Y3.675
X1.675Y3.175
X1.675Y2.875
X1.675Y2.375
X1.675Y2.075
X1.675Y1.575
X1.675Y1.175
X1.675Y0.75
X1.7Y1.25
X1.7Y0.95
X1.75Y1.725
X1.75Y1.25
X1.75Y0.675
X1.775Y3.525
X1.775Y2.725
X1.775Y1.925
X1.775Y1.1
X1.8Y1.05
X1.85Y1.175
X1.875Y1.225
X1.875Y0.95
X1.875Y0.775
X1.9Y1.55
X1.9Y1.475
X1.9Y1.075
X1.9Y0.925
X1.925Y3.725
X1.925Y3.1
X1.925Y2.925
X1.925Y2.3
X1.925Y1.575
X1.925Y1.5
X1.925Y1.4
X1.925Y1.15
X1.95Y2.425
X1.95Y2.325
X1.95Y1.425
X1.975Y3.25
X1.975Y2.175
X1.975Y1.1
X2.Y1.475
X2.Y1.225
X2.Y1.175
X2.Y0.925
X2.Y0.875
X2.025Y1.75
X2.025Y1.25
X2.05Y3.65
X2.05Y2.85
X2.05Y2.05
X2.05Y1.825
X2.05Y1.225
X2.075Y0.95
X2.125Y1.4
X2.125Y1.15
X2.125Y1.
X2.15Y3.875
X2.15Y3.075
X2.15Y2.275
X2.15Y1.5
X2.15Y1.325
X2.175Y3.4
X2.175Y2.6
X2.175Y1.8
X2.175Y1.275
X2.2Y1.25
X2.2Y1.075
X2.225Y3.125
X2.225Y2.325
X2.225Y1.45
X2.225Y0.925
X2.225Y0.825
X2.275Y3.9
X2.275Y3.55
X2.275Y3.1
X2.275Y2.75
X2.275Y2.3
X2.275Y1.95
X2.275Y1.25
X2.275Y1.2
X2.275Y1.075
X2.3Y1.7
X2.325Y1.2
X2.325Y1.075
X2.325Y0.725
X2.35Y3.1
X2.35Y2.3
X2.375Y3.9
X2.375Y3.55
X2.375Y3.125
X2.375Y2.75
X2.375Y2.325
X2.375Y1.95
X2.375Y1.525
X2.375Y1.5
X2.375Y0.575
X2.375Y0.35
X2.425Y0.2
X2.45Y0.45
X2.475Y3.9
X2.475Y3.1
X2.475Y2.3
X2.475Y1.5
X2.475Y0.225
X2.5Y3.65
X2.5Y2.85
X2.5Y2.05
X2.5Y1.25
X2.525Y1.55
X2.525Y0.75
X2.525Y0.575
X2.525Y0.35
X2.575Y1.5
X2.6Y0.475
X2.675Y0.25
X2.725Y3.875
X2.725Y3.725
X2.725Y3.075
X2.725Y2.925
X2.725Y2.275
X2.725Y2.125
X2.725Y1.5
X2.725Y1.325
X2.775Y0.25
X2.825Y0.375
X2.825Y0.275
X2.825Y0.175
X3.Y3.875
X3.Y3.725
X3.Y3.075
X3.Y2.925
X3.Y2.275
X3.Y2.125
X3.Y1.475
X3.Y1.325
T2
X1.8307Y0.5697
X1.8307Y0.4665
X1.9291Y0.5697
X1.9291Y0.4665
X2.0079Y0.5697
X2.0079Y0.4665
X2.1063Y0.5697
X2.1063Y0.4665
T3
X0.65Y3.325
X0.65Y3.225
X0.65Y2.525
X0.65Y2.425
X0.65Y1.725
X0.65Y1.625
X0.65Y0.925
X0.65Y0.825
X1.025Y0.575
X1.125Y0.575
X1.225Y0.575
X1.325Y0.575
X1.425Y0.575
X1.525Y0.575
X3.3Y3.85
X3.3Y3.75
X3.3Y3.05
X3.3Y2.95
X3.3Y2.25
X3.3Y2.15
X3.3Y1.45
X3.3Y1.35
T4
X0.0935Y3.675
X0.0935Y2.875
X0.0935Y2.075
X0.0935Y1.275
X0.4872Y3.675
X0.4872Y2.875
X0.4872Y2.075
X0.4872Y1.275
X0.9596Y3.675
X0.9596Y2.875
X0.9596Y2.075
X0.9596Y1.275
X1.1565Y3.675
X1.1565Y2.875
X1.1565Y2.075
X1.1565Y1.275
X2.7935Y3.4
X2.7935Y2.6
X2.7935Y1.8
X2.7935Y1.
X2.9904Y3.4
X2.9904Y2.6
X2.9904Y1.8
X2.9904Y1.
X3.4628Y3.4
X3.4628Y2.6
X3.4628Y1.8
X3.4628Y1.
X3.8565Y3.4
X3.8565Y2.6
X3.8565Y1.8
X3.8565Y1.
T5
X0.175Y0.525
X0.175Y0.325
X0.275Y3.525
X0.275Y2.725
X0.275Y1.925
X0.275Y1.125
X0.475Y3.25
X0.475Y2.45
X0.475Y1.65
X0.475Y0.85
X0.575Y3.525
X0.575Y2.725
X0.575Y1.925
X0.575Y1.125
X0.975Y3.825
X0.975Y3.525
X0.975Y3.025
X0.975Y2.725
X0.975Y2.225
X0.975Y1.925
X0.975Y1.425
X0.975Y1.125
X2.975Y3.55
X2.975Y3.25
X2.975Y2.75
X2.975Y2.45
X2.975Y1.95
X2.975Y1.65
X2.975Y1.15
X2.975Y0.85
X3.375Y3.55
X3.375Y2.75
X3.375Y1.95
X3.375Y1.15
X3.475Y3.825
X3.475Y3.025
X3.475Y2.225
X3.475Y1.425
X3.675Y3.55
X3.675Y2.75
X3.675Y1.95
X3.675Y1.15
X3.775Y0.525
X3.775Y0.325
T6
X1.7098Y0.5835
X1.7098Y0.3598
X2.2272Y0.5835
X2.2272Y0.3598
T0
M30
