G04 #@! TF.FileFunction,Legend,Bot*
%FSLAX46Y46*%
G04 Gerber Fmt 4.6, Leading zero omitted, Abs format (unit mm)*
G04 Created by KiCad (PCBNEW 4.0.4-stable) date 11/14/16 12:13:18*
%MOMM*%
%LPD*%
G01*
G04 APERTURE LIST*
%ADD10C,0.150000*%
%ADD11C,0.300000*%
%ADD12C,0.010000*%
G04 APERTURE END LIST*
D10*
D11*
X54142857Y30575000D02*
X53428571Y30575000D01*
X54285714Y30146429D02*
X53785714Y31646429D01*
X53285714Y30146429D01*
X52142857Y31146429D02*
X52142857Y29646429D01*
X52142857Y30217857D02*
X52285714Y30146429D01*
X52571428Y30146429D01*
X52714286Y30217857D01*
X52785714Y30289286D01*
X52857143Y30432143D01*
X52857143Y30860714D01*
X52785714Y31003571D01*
X52714286Y31075000D01*
X52571428Y31146429D01*
X52285714Y31146429D01*
X52142857Y31075000D01*
X50785714Y31146429D02*
X50785714Y30146429D01*
X51428571Y31146429D02*
X51428571Y30360714D01*
X51357143Y30217857D01*
X51214285Y30146429D01*
X51000000Y30146429D01*
X50857143Y30217857D01*
X50785714Y30289286D01*
X49428571Y30146429D02*
X49428571Y30932143D01*
X49500000Y31075000D01*
X49642857Y31146429D01*
X49928571Y31146429D01*
X50071428Y31075000D01*
X49428571Y30217857D02*
X49571428Y30146429D01*
X49928571Y30146429D01*
X50071428Y30217857D01*
X50142857Y30360714D01*
X50142857Y30503571D01*
X50071428Y30646429D01*
X49928571Y30717857D01*
X49571428Y30717857D01*
X49428571Y30789286D01*
X48714285Y30146429D02*
X48714285Y31646429D01*
X48142857Y31646429D01*
X47999999Y31575000D01*
X47928571Y31503571D01*
X47857142Y31360714D01*
X47857142Y31146429D01*
X47928571Y31003571D01*
X47999999Y30932143D01*
X48142857Y30860714D01*
X48714285Y30860714D01*
X47214285Y30146429D02*
X47214285Y31146429D01*
X47214285Y31646429D02*
X47285714Y31575000D01*
X47214285Y31503571D01*
X47142857Y31575000D01*
X47214285Y31646429D01*
X47214285Y31503571D01*
X45857142Y30217857D02*
X45999999Y30146429D01*
X46285713Y30146429D01*
X46428571Y30217857D01*
X46499999Y30289286D01*
X46571428Y30432143D01*
X46571428Y30860714D01*
X46499999Y31003571D01*
X46428571Y31075000D01*
X46285713Y31146429D01*
X45999999Y31146429D01*
X45857142Y31075000D01*
X52964285Y27596429D02*
X52964285Y29096429D01*
X52392857Y29096429D01*
X52249999Y29025000D01*
X52178571Y28953571D01*
X52107142Y28810714D01*
X52107142Y28596429D01*
X52178571Y28453571D01*
X52249999Y28382143D01*
X52392857Y28310714D01*
X52964285Y28310714D01*
X51249999Y27596429D02*
X51392857Y27667857D01*
X51464285Y27739286D01*
X51535714Y27882143D01*
X51535714Y28310714D01*
X51464285Y28453571D01*
X51392857Y28525000D01*
X51249999Y28596429D01*
X51035714Y28596429D01*
X50892857Y28525000D01*
X50821428Y28453571D01*
X50749999Y28310714D01*
X50749999Y27882143D01*
X50821428Y27739286D01*
X50892857Y27667857D01*
X51035714Y27596429D01*
X51249999Y27596429D01*
X50249999Y28596429D02*
X49964285Y27596429D01*
X49678571Y28310714D01*
X49392856Y27596429D01*
X49107142Y28596429D01*
X47964285Y27667857D02*
X48107142Y27596429D01*
X48392856Y27596429D01*
X48535713Y27667857D01*
X48607142Y27810714D01*
X48607142Y28382143D01*
X48535713Y28525000D01*
X48392856Y28596429D01*
X48107142Y28596429D01*
X47964285Y28525000D01*
X47892856Y28382143D01*
X47892856Y28239286D01*
X48607142Y28096429D01*
X47249999Y27596429D02*
X47249999Y28596429D01*
X47249999Y28310714D02*
X47178571Y28453571D01*
X47107142Y28525000D01*
X46964285Y28596429D01*
X46821428Y28596429D01*
X52035713Y25046429D02*
X52535713Y25760714D01*
X52892856Y25046429D02*
X52892856Y26546429D01*
X52321428Y26546429D01*
X52178570Y26475000D01*
X52107142Y26403571D01*
X52035713Y26260714D01*
X52035713Y26046429D01*
X52107142Y25903571D01*
X52178570Y25832143D01*
X52321428Y25760714D01*
X52892856Y25760714D01*
X50821428Y25117857D02*
X50964285Y25046429D01*
X51249999Y25046429D01*
X51392856Y25117857D01*
X51464285Y25260714D01*
X51464285Y25832143D01*
X51392856Y25975000D01*
X51249999Y26046429D01*
X50964285Y26046429D01*
X50821428Y25975000D01*
X50749999Y25832143D01*
X50749999Y25689286D01*
X51464285Y25546429D01*
X50249999Y26046429D02*
X49892856Y25046429D01*
X49535714Y26046429D01*
X47035714Y25046429D02*
X47892857Y25046429D01*
X47464285Y25046429D02*
X47464285Y26546429D01*
X47607142Y26332143D01*
X47750000Y26189286D01*
X47892857Y26117857D01*
X57357142Y22567857D02*
X57142856Y22496429D01*
X56785713Y22496429D01*
X56642856Y22567857D01*
X56571427Y22639286D01*
X56499999Y22782143D01*
X56499999Y22925000D01*
X56571427Y23067857D01*
X56642856Y23139286D01*
X56785713Y23210714D01*
X57071427Y23282143D01*
X57214285Y23353571D01*
X57285713Y23425000D01*
X57357142Y23567857D01*
X57357142Y23710714D01*
X57285713Y23853571D01*
X57214285Y23925000D01*
X57071427Y23996429D01*
X56714285Y23996429D01*
X56499999Y23925000D01*
X55857142Y22496429D02*
X55857142Y23996429D01*
X55714285Y23067857D02*
X55285714Y22496429D01*
X55285714Y23496429D02*
X55857142Y22925000D01*
X54785713Y23496429D02*
X54428570Y22496429D01*
X54071428Y23496429D02*
X54428570Y22496429D01*
X54571428Y22139286D01*
X54642856Y22067857D01*
X54785713Y21996429D01*
X53285713Y22496429D02*
X53428571Y22567857D01*
X53499999Y22710714D01*
X53499999Y23996429D01*
X52142857Y22567857D02*
X52285714Y22496429D01*
X52571428Y22496429D01*
X52714285Y22567857D01*
X52785714Y22710714D01*
X52785714Y23282143D01*
X52714285Y23425000D01*
X52571428Y23496429D01*
X52285714Y23496429D01*
X52142857Y23425000D01*
X52071428Y23282143D01*
X52071428Y23139286D01*
X52785714Y22996429D01*
X51428571Y22496429D02*
X51428571Y23496429D01*
X51428571Y23210714D02*
X51357143Y23353571D01*
X51285714Y23425000D01*
X51142857Y23496429D01*
X51000000Y23496429D01*
X48857143Y23282143D02*
X48642857Y23210714D01*
X48571429Y23139286D01*
X48500000Y22996429D01*
X48500000Y22782143D01*
X48571429Y22639286D01*
X48642857Y22567857D01*
X48785715Y22496429D01*
X49357143Y22496429D01*
X49357143Y23996429D01*
X48857143Y23996429D01*
X48714286Y23925000D01*
X48642857Y23853571D01*
X48571429Y23710714D01*
X48571429Y23567857D01*
X48642857Y23425000D01*
X48714286Y23353571D01*
X48857143Y23282143D01*
X49357143Y23282143D01*
X47857143Y22496429D02*
X47857143Y23496429D01*
X47857143Y23210714D02*
X47785715Y23353571D01*
X47714286Y23425000D01*
X47571429Y23496429D01*
X47428572Y23496429D01*
X46285715Y22496429D02*
X46285715Y23282143D01*
X46357144Y23425000D01*
X46500001Y23496429D01*
X46785715Y23496429D01*
X46928572Y23425000D01*
X46285715Y22567857D02*
X46428572Y22496429D01*
X46785715Y22496429D01*
X46928572Y22567857D01*
X47000001Y22710714D01*
X47000001Y22853571D01*
X46928572Y22996429D01*
X46785715Y23067857D01*
X46428572Y23067857D01*
X46285715Y23139286D01*
X45571429Y23496429D02*
X45571429Y22496429D01*
X45571429Y23353571D02*
X45500001Y23425000D01*
X45357143Y23496429D01*
X45142858Y23496429D01*
X45000001Y23425000D01*
X44928572Y23282143D01*
X44928572Y22496429D01*
X43571429Y22496429D02*
X43571429Y23996429D01*
X43571429Y22567857D02*
X43714286Y22496429D01*
X44000000Y22496429D01*
X44142858Y22567857D01*
X44214286Y22639286D01*
X44285715Y22782143D01*
X44285715Y23210714D01*
X44214286Y23353571D01*
X44142858Y23425000D01*
X44000000Y23496429D01*
X43714286Y23496429D01*
X43571429Y23425000D01*
X43071429Y23496429D02*
X42500000Y23496429D01*
X42857143Y23996429D02*
X42857143Y22710714D01*
X42785715Y22567857D01*
X42642857Y22496429D01*
X42500000Y22496429D01*
D12*
G36*
X54828100Y39138097D02*
X54716550Y39082478D01*
X54618092Y38980069D01*
X54590977Y38942136D01*
X54561438Y38892500D01*
X54542272Y38838588D01*
X54531307Y38766636D01*
X54526371Y38662878D01*
X54525287Y38525899D01*
X54530182Y38338185D01*
X54547196Y38197242D01*
X54579823Y38092092D01*
X54631558Y38011757D01*
X54705896Y37945259D01*
X54711358Y37941322D01*
X54784620Y37901047D01*
X54872840Y37881120D01*
X54985038Y37876207D01*
X55167433Y37876207D01*
X55167509Y37699143D01*
X55169207Y37600530D01*
X55179550Y37542686D01*
X55206578Y37507994D01*
X55258332Y37478836D01*
X55270761Y37472879D01*
X55328923Y37444961D01*
X55373956Y37427328D01*
X55407441Y37425806D01*
X55430962Y37446219D01*
X55446100Y37494393D01*
X55454437Y37576154D01*
X55457556Y37697328D01*
X55457040Y37863740D01*
X55454471Y38081215D01*
X55453668Y38146264D01*
X55450778Y38370498D01*
X55448188Y38517179D01*
X55167586Y38517179D01*
X55166009Y38392674D01*
X55159000Y38311213D01*
X55143142Y38257485D01*
X55115019Y38216177D01*
X55095925Y38196029D01*
X55017865Y38137079D01*
X54948753Y38132280D01*
X54877440Y38180962D01*
X54875632Y38182759D01*
X54846617Y38220382D01*
X54828967Y38271516D01*
X54820064Y38350262D01*
X54817291Y38470724D01*
X54817241Y38497412D01*
X54823942Y38663417D01*
X54845752Y38778495D01*
X54885235Y38848746D01*
X54944956Y38880271D01*
X54979472Y38883448D01*
X55061389Y38868540D01*
X55117579Y38819452D01*
X55151402Y38729638D01*
X55166220Y38592555D01*
X55167586Y38517179D01*
X55448188Y38517179D01*
X55447713Y38544048D01*
X55443753Y38674618D01*
X55438174Y38769913D01*
X55430254Y38837636D01*
X55419269Y38885493D01*
X55404499Y38921187D01*
X55385218Y38952422D01*
X55376951Y38964176D01*
X55267288Y39075203D01*
X55128635Y39138153D01*
X54968246Y39155703D01*
X54828100Y39138097D01*
X54828100Y39138097D01*
G37*
X54828100Y39138097D02*
X54716550Y39082478D01*
X54618092Y38980069D01*
X54590977Y38942136D01*
X54561438Y38892500D01*
X54542272Y38838588D01*
X54531307Y38766636D01*
X54526371Y38662878D01*
X54525287Y38525899D01*
X54530182Y38338185D01*
X54547196Y38197242D01*
X54579823Y38092092D01*
X54631558Y38011757D01*
X54705896Y37945259D01*
X54711358Y37941322D01*
X54784620Y37901047D01*
X54872840Y37881120D01*
X54985038Y37876207D01*
X55167433Y37876207D01*
X55167509Y37699143D01*
X55169207Y37600530D01*
X55179550Y37542686D01*
X55206578Y37507994D01*
X55258332Y37478836D01*
X55270761Y37472879D01*
X55328923Y37444961D01*
X55373956Y37427328D01*
X55407441Y37425806D01*
X55430962Y37446219D01*
X55446100Y37494393D01*
X55454437Y37576154D01*
X55457556Y37697328D01*
X55457040Y37863740D01*
X55454471Y38081215D01*
X55453668Y38146264D01*
X55450778Y38370498D01*
X55448188Y38517179D01*
X55167586Y38517179D01*
X55166009Y38392674D01*
X55159000Y38311213D01*
X55143142Y38257485D01*
X55115019Y38216177D01*
X55095925Y38196029D01*
X55017865Y38137079D01*
X54948753Y38132280D01*
X54877440Y38180962D01*
X54875632Y38182759D01*
X54846617Y38220382D01*
X54828967Y38271516D01*
X54820064Y38350262D01*
X54817291Y38470724D01*
X54817241Y38497412D01*
X54823942Y38663417D01*
X54845752Y38778495D01*
X54885235Y38848746D01*
X54944956Y38880271D01*
X54979472Y38883448D01*
X55061389Y38868540D01*
X55117579Y38819452D01*
X55151402Y38729638D01*
X55166220Y38592555D01*
X55167586Y38517179D01*
X55448188Y38517179D01*
X55447713Y38544048D01*
X55443753Y38674618D01*
X55438174Y38769913D01*
X55430254Y38837636D01*
X55419269Y38885493D01*
X55404499Y38921187D01*
X55385218Y38952422D01*
X55376951Y38964176D01*
X55267288Y39075203D01*
X55128635Y39138153D01*
X54968246Y39155703D01*
X54828100Y39138097D01*
G36*
X52582571Y39122281D02*
X52488877Y39068086D01*
X52423736Y39014293D01*
X52376093Y38957934D01*
X52343272Y38889013D01*
X52322594Y38797532D01*
X52311380Y38673494D01*
X52306951Y38506902D01*
X52306437Y38387149D01*
X52306437Y37946341D01*
X52430517Y37890717D01*
X52554598Y37835093D01*
X52569195Y38317905D01*
X52575227Y38498221D01*
X52581555Y38629099D01*
X52589394Y38719489D01*
X52599963Y38778336D01*
X52614477Y38814587D01*
X52634152Y38837190D01*
X52640465Y38842083D01*
X52736112Y38880294D01*
X52832793Y38865173D01*
X52890345Y38825057D01*
X52913755Y38796630D01*
X52929961Y38759328D01*
X52940259Y38702777D01*
X52945951Y38616606D01*
X52948336Y38490442D01*
X52948736Y38358958D01*
X52948814Y38194001D01*
X52951639Y38077239D01*
X52961093Y37998490D01*
X52981060Y37947569D01*
X53015424Y37914294D01*
X53068068Y37888480D01*
X53138383Y37861656D01*
X53215180Y37832458D01*
X53206038Y38350654D01*
X53202357Y38537461D01*
X53198050Y38675510D01*
X53191877Y38774432D01*
X53182598Y38843855D01*
X53168973Y38893410D01*
X53149761Y38932727D01*
X53126598Y38967416D01*
X53014848Y39078230D01*
X52878487Y39142311D01*
X52730175Y39157661D01*
X52582571Y39122281D01*
X52582571Y39122281D01*
G37*
X52582571Y39122281D02*
X52488877Y39068086D01*
X52423736Y39014293D01*
X52376093Y38957934D01*
X52343272Y38889013D01*
X52322594Y38797532D01*
X52311380Y38673494D01*
X52306951Y38506902D01*
X52306437Y38387149D01*
X52306437Y37946341D01*
X52430517Y37890717D01*
X52554598Y37835093D01*
X52569195Y38317905D01*
X52575227Y38498221D01*
X52581555Y38629099D01*
X52589394Y38719489D01*
X52599963Y38778336D01*
X52614477Y38814587D01*
X52634152Y38837190D01*
X52640465Y38842083D01*
X52736112Y38880294D01*
X52832793Y38865173D01*
X52890345Y38825057D01*
X52913755Y38796630D01*
X52929961Y38759328D01*
X52940259Y38702777D01*
X52945951Y38616606D01*
X52948336Y38490442D01*
X52948736Y38358958D01*
X52948814Y38194001D01*
X52951639Y38077239D01*
X52961093Y37998490D01*
X52981060Y37947569D01*
X53015424Y37914294D01*
X53068068Y37888480D01*
X53138383Y37861656D01*
X53215180Y37832458D01*
X53206038Y38350654D01*
X53202357Y38537461D01*
X53198050Y38675510D01*
X53191877Y38774432D01*
X53182598Y38843855D01*
X53168973Y38893410D01*
X53149761Y38932727D01*
X53126598Y38967416D01*
X53014848Y39078230D01*
X52878487Y39142311D01*
X52730175Y39157661D01*
X52582571Y39122281D01*
G36*
X55951779Y39133985D02*
X55814939Y39062032D01*
X55713949Y38946234D01*
X55678075Y38871787D01*
X55650161Y38760008D01*
X55635871Y38618773D01*
X55634516Y38464629D01*
X55645405Y38314121D01*
X55667847Y38183795D01*
X55701150Y38090197D01*
X55711385Y38074078D01*
X55832618Y37953751D01*
X55976613Y37881683D01*
X56132861Y37860592D01*
X56290852Y37893198D01*
X56334820Y37912747D01*
X56420444Y37972988D01*
X56495592Y38052865D01*
X56502694Y38062996D01*
X56531561Y38111819D01*
X56550643Y38164010D01*
X56561916Y38232715D01*
X56567355Y38331082D01*
X56568938Y38472256D01*
X56568965Y38503908D01*
X56568893Y38513981D01*
X56277011Y38513981D01*
X56275313Y38380744D01*
X56268628Y38292326D01*
X56254575Y38235215D01*
X56230771Y38195898D01*
X56218621Y38182759D01*
X56148764Y38132828D01*
X56080941Y38135105D01*
X56012365Y38178416D01*
X55971465Y38224654D01*
X55947242Y38292143D01*
X55933639Y38398567D01*
X55932706Y38410980D01*
X55930384Y38603853D01*
X55954650Y38747100D01*
X56005176Y38839840D01*
X56081632Y38881193D01*
X56108924Y38883448D01*
X56180589Y38872107D01*
X56229610Y38832816D01*
X56259582Y38757674D01*
X56274101Y38638778D01*
X56277011Y38513981D01*
X56568893Y38513981D01*
X56567878Y38654341D01*
X56563312Y38759451D01*
X56553312Y38832286D01*
X56535921Y38885892D01*
X56509184Y38933319D01*
X56503276Y38942136D01*
X56403968Y39060993D01*
X56295758Y39129992D01*
X56164019Y39157381D01*
X56119283Y39158719D01*
X55951779Y39133985D01*
X55951779Y39133985D01*
G37*
X55951779Y39133985D02*
X55814939Y39062032D01*
X55713949Y38946234D01*
X55678075Y38871787D01*
X55650161Y38760008D01*
X55635871Y38618773D01*
X55634516Y38464629D01*
X55645405Y38314121D01*
X55667847Y38183795D01*
X55701150Y38090197D01*
X55711385Y38074078D01*
X55832618Y37953751D01*
X55976613Y37881683D01*
X56132861Y37860592D01*
X56290852Y37893198D01*
X56334820Y37912747D01*
X56420444Y37972988D01*
X56495592Y38052865D01*
X56502694Y38062996D01*
X56531561Y38111819D01*
X56550643Y38164010D01*
X56561916Y38232715D01*
X56567355Y38331082D01*
X56568938Y38472256D01*
X56568965Y38503908D01*
X56568893Y38513981D01*
X56277011Y38513981D01*
X56275313Y38380744D01*
X56268628Y38292326D01*
X56254575Y38235215D01*
X56230771Y38195898D01*
X56218621Y38182759D01*
X56148764Y38132828D01*
X56080941Y38135105D01*
X56012365Y38178416D01*
X55971465Y38224654D01*
X55947242Y38292143D01*
X55933639Y38398567D01*
X55932706Y38410980D01*
X55930384Y38603853D01*
X55954650Y38747100D01*
X56005176Y38839840D01*
X56081632Y38881193D01*
X56108924Y38883448D01*
X56180589Y38872107D01*
X56229610Y38832816D01*
X56259582Y38757674D01*
X56274101Y38638778D01*
X56277011Y38513981D01*
X56568893Y38513981D01*
X56567878Y38654341D01*
X56563312Y38759451D01*
X56553312Y38832286D01*
X56535921Y38885892D01*
X56509184Y38933319D01*
X56503276Y38942136D01*
X56403968Y39060993D01*
X56295758Y39129992D01*
X56164019Y39157381D01*
X56119283Y39158719D01*
X55951779Y39133985D01*
G36*
X53684448Y39115324D02*
X53569342Y39037889D01*
X53480389Y38926051D01*
X53427251Y38783735D01*
X53416503Y38678985D01*
X53417724Y38635274D01*
X53427944Y38601806D01*
X53456039Y38571821D01*
X53510884Y38538560D01*
X53601355Y38495262D01*
X53736328Y38435167D01*
X53737011Y38434866D01*
X53861249Y38377963D01*
X53963127Y38327435D01*
X54032233Y38288720D01*
X54058154Y38267260D01*
X54058161Y38267087D01*
X54035315Y38220356D01*
X53981891Y38168846D01*
X53920558Y38131739D01*
X53889485Y38124368D01*
X53804711Y38149862D01*
X53731707Y38213709D01*
X53696087Y38283906D01*
X53661820Y38335657D01*
X53594697Y38394591D01*
X53515792Y38445504D01*
X53446179Y38473191D01*
X53431623Y38474713D01*
X53415237Y38449679D01*
X53414250Y38385689D01*
X53426292Y38299407D01*
X53448993Y38207499D01*
X53479986Y38126631D01*
X53481552Y38123491D01*
X53574819Y37993266D01*
X53695696Y37904689D01*
X53832973Y37861214D01*
X53975440Y37866294D01*
X54111888Y37923384D01*
X54117955Y37927398D01*
X54225290Y38024674D01*
X54295868Y38151591D01*
X54334926Y38318474D01*
X54340168Y38365361D01*
X54349452Y38586671D01*
X54338322Y38689876D01*
X54058161Y38689876D01*
X54054521Y38625497D01*
X54034611Y38606709D01*
X53984974Y38620765D01*
X53906733Y38653991D01*
X53819274Y38695641D01*
X53817101Y38696744D01*
X53742970Y38735735D01*
X53713219Y38761756D01*
X53720555Y38789035D01*
X53751447Y38824879D01*
X53830040Y38876749D01*
X53914677Y38880561D01*
X53990597Y38842811D01*
X54043035Y38769999D01*
X54058161Y38689876D01*
X54338322Y38689876D01*
X54330356Y38763739D01*
X54281366Y38904171D01*
X54213164Y39002553D01*
X54090065Y39101970D01*
X53954472Y39151289D01*
X53816045Y39154432D01*
X53684448Y39115324D01*
X53684448Y39115324D01*
G37*
X53684448Y39115324D02*
X53569342Y39037889D01*
X53480389Y38926051D01*
X53427251Y38783735D01*
X53416503Y38678985D01*
X53417724Y38635274D01*
X53427944Y38601806D01*
X53456039Y38571821D01*
X53510884Y38538560D01*
X53601355Y38495262D01*
X53736328Y38435167D01*
X53737011Y38434866D01*
X53861249Y38377963D01*
X53963127Y38327435D01*
X54032233Y38288720D01*
X54058154Y38267260D01*
X54058161Y38267087D01*
X54035315Y38220356D01*
X53981891Y38168846D01*
X53920558Y38131739D01*
X53889485Y38124368D01*
X53804711Y38149862D01*
X53731707Y38213709D01*
X53696087Y38283906D01*
X53661820Y38335657D01*
X53594697Y38394591D01*
X53515792Y38445504D01*
X53446179Y38473191D01*
X53431623Y38474713D01*
X53415237Y38449679D01*
X53414250Y38385689D01*
X53426292Y38299407D01*
X53448993Y38207499D01*
X53479986Y38126631D01*
X53481552Y38123491D01*
X53574819Y37993266D01*
X53695696Y37904689D01*
X53832973Y37861214D01*
X53975440Y37866294D01*
X54111888Y37923384D01*
X54117955Y37927398D01*
X54225290Y38024674D01*
X54295868Y38151591D01*
X54334926Y38318474D01*
X54340168Y38365361D01*
X54349452Y38586671D01*
X54338322Y38689876D01*
X54058161Y38689876D01*
X54054521Y38625497D01*
X54034611Y38606709D01*
X53984974Y38620765D01*
X53906733Y38653991D01*
X53819274Y38695641D01*
X53817101Y38696744D01*
X53742970Y38735735D01*
X53713219Y38761756D01*
X53720555Y38789035D01*
X53751447Y38824879D01*
X53830040Y38876749D01*
X53914677Y38880561D01*
X53990597Y38842811D01*
X54043035Y38769999D01*
X54058161Y38689876D01*
X54338322Y38689876D01*
X54330356Y38763739D01*
X54281366Y38904171D01*
X54213164Y39002553D01*
X54090065Y39101970D01*
X53954472Y39151289D01*
X53816045Y39154432D01*
X53684448Y39115324D01*
G36*
X51255402Y39276143D02*
X51246846Y39156812D01*
X51237019Y39086494D01*
X51223401Y39055821D01*
X51203473Y39055429D01*
X51197011Y39059090D01*
X51111060Y39085602D01*
X50999255Y39084054D01*
X50885586Y39056801D01*
X50814490Y39021545D01*
X50741595Y38965222D01*
X50688307Y38901481D01*
X50651725Y38820490D01*
X50628950Y38712414D01*
X50617081Y38567420D01*
X50613218Y38375674D01*
X50613149Y38338891D01*
X50613103Y37925712D01*
X50705046Y37893661D01*
X50770348Y37871856D01*
X50806176Y37861703D01*
X50807230Y37861609D01*
X50810758Y37889140D01*
X50813761Y37965077D01*
X50816010Y38079435D01*
X50817276Y38222231D01*
X50817471Y38309049D01*
X50817877Y38480227D01*
X50819968Y38602912D01*
X50825053Y38687000D01*
X50834440Y38742386D01*
X50849439Y38778968D01*
X50871358Y38806641D01*
X50885043Y38819968D01*
X50979051Y38873672D01*
X51081636Y38877693D01*
X51174710Y38832275D01*
X51191922Y38815877D01*
X51217168Y38785043D01*
X51234680Y38748469D01*
X51245858Y38695585D01*
X51252104Y38615823D01*
X51254818Y38498615D01*
X51255402Y38337009D01*
X51255402Y37925712D01*
X51347345Y37893661D01*
X51412647Y37871856D01*
X51448475Y37861703D01*
X51449529Y37861609D01*
X51452225Y37889552D01*
X51454655Y37968370D01*
X51456722Y38090547D01*
X51458329Y38248568D01*
X51459377Y38434917D01*
X51459769Y38642080D01*
X51459770Y38651294D01*
X51459770Y39440980D01*
X51364885Y39481003D01*
X51270000Y39521027D01*
X51255402Y39276143D01*
X51255402Y39276143D01*
G37*
X51255402Y39276143D02*
X51246846Y39156812D01*
X51237019Y39086494D01*
X51223401Y39055821D01*
X51203473Y39055429D01*
X51197011Y39059090D01*
X51111060Y39085602D01*
X50999255Y39084054D01*
X50885586Y39056801D01*
X50814490Y39021545D01*
X50741595Y38965222D01*
X50688307Y38901481D01*
X50651725Y38820490D01*
X50628950Y38712414D01*
X50617081Y38567420D01*
X50613218Y38375674D01*
X50613149Y38338891D01*
X50613103Y37925712D01*
X50705046Y37893661D01*
X50770348Y37871856D01*
X50806176Y37861703D01*
X50807230Y37861609D01*
X50810758Y37889140D01*
X50813761Y37965077D01*
X50816010Y38079435D01*
X50817276Y38222231D01*
X50817471Y38309049D01*
X50817877Y38480227D01*
X50819968Y38602912D01*
X50825053Y38687000D01*
X50834440Y38742386D01*
X50849439Y38778968D01*
X50871358Y38806641D01*
X50885043Y38819968D01*
X50979051Y38873672D01*
X51081636Y38877693D01*
X51174710Y38832275D01*
X51191922Y38815877D01*
X51217168Y38785043D01*
X51234680Y38748469D01*
X51245858Y38695585D01*
X51252104Y38615823D01*
X51254818Y38498615D01*
X51255402Y38337009D01*
X51255402Y37925712D01*
X51347345Y37893661D01*
X51412647Y37871856D01*
X51448475Y37861703D01*
X51449529Y37861609D01*
X51452225Y37889552D01*
X51454655Y37968370D01*
X51456722Y38090547D01*
X51458329Y38248568D01*
X51459377Y38434917D01*
X51459769Y38642080D01*
X51459770Y38651294D01*
X51459770Y39440980D01*
X51364885Y39481003D01*
X51270000Y39521027D01*
X51255402Y39276143D01*
G36*
X49920056Y39075640D02*
X49805657Y39033158D01*
X49804348Y39032342D01*
X49733597Y38980270D01*
X49681364Y38919416D01*
X49644629Y38840113D01*
X49620366Y38732691D01*
X49605555Y38587483D01*
X49597171Y38394821D01*
X49596436Y38367372D01*
X49585880Y37953479D01*
X49674709Y37907544D01*
X49738982Y37876502D01*
X49777790Y37861794D01*
X49779585Y37861609D01*
X49786300Y37888750D01*
X49791635Y37961959D01*
X49794917Y38068919D01*
X49795632Y38155531D01*
X49795649Y38295838D01*
X49802063Y38383949D01*
X49824420Y38425975D01*
X49872268Y38428025D01*
X49955151Y38396210D01*
X50080287Y38337728D01*
X50172303Y38289155D01*
X50219629Y38247014D01*
X50233542Y38201084D01*
X50233563Y38198811D01*
X50210605Y38119689D01*
X50142630Y38076945D01*
X50038602Y38070754D01*
X49963670Y38071828D01*
X49924161Y38050247D01*
X49899522Y37998409D01*
X49885341Y37932368D01*
X49905777Y37894896D01*
X49913472Y37889533D01*
X49985917Y37867994D01*
X50087367Y37864945D01*
X50191843Y37879222D01*
X50265875Y37905312D01*
X50368228Y37992215D01*
X50426409Y38113184D01*
X50437931Y38207692D01*
X50429138Y38292938D01*
X50397320Y38362524D01*
X50334316Y38424328D01*
X50231969Y38486228D01*
X50082118Y38556103D01*
X50072988Y38560052D01*
X49938003Y38622412D01*
X49854706Y38673554D01*
X49819003Y38719512D01*
X49826797Y38766317D01*
X49873993Y38820002D01*
X49888106Y38832356D01*
X49982641Y38880259D01*
X50080594Y38878242D01*
X50165903Y38831276D01*
X50222504Y38744331D01*
X50227763Y38727266D01*
X50278977Y38644496D01*
X50343963Y38604628D01*
X50437931Y38565118D01*
X50437931Y38667342D01*
X50409347Y38815928D01*
X50324505Y38952216D01*
X50280355Y38997809D01*
X50179995Y39056326D01*
X50052365Y39082816D01*
X49920056Y39075640D01*
X49920056Y39075640D01*
G37*
X49920056Y39075640D02*
X49805657Y39033158D01*
X49804348Y39032342D01*
X49733597Y38980270D01*
X49681364Y38919416D01*
X49644629Y38840113D01*
X49620366Y38732691D01*
X49605555Y38587483D01*
X49597171Y38394821D01*
X49596436Y38367372D01*
X49585880Y37953479D01*
X49674709Y37907544D01*
X49738982Y37876502D01*
X49777790Y37861794D01*
X49779585Y37861609D01*
X49786300Y37888750D01*
X49791635Y37961959D01*
X49794917Y38068919D01*
X49795632Y38155531D01*
X49795649Y38295838D01*
X49802063Y38383949D01*
X49824420Y38425975D01*
X49872268Y38428025D01*
X49955151Y38396210D01*
X50080287Y38337728D01*
X50172303Y38289155D01*
X50219629Y38247014D01*
X50233542Y38201084D01*
X50233563Y38198811D01*
X50210605Y38119689D01*
X50142630Y38076945D01*
X50038602Y38070754D01*
X49963670Y38071828D01*
X49924161Y38050247D01*
X49899522Y37998409D01*
X49885341Y37932368D01*
X49905777Y37894896D01*
X49913472Y37889533D01*
X49985917Y37867994D01*
X50087367Y37864945D01*
X50191843Y37879222D01*
X50265875Y37905312D01*
X50368228Y37992215D01*
X50426409Y38113184D01*
X50437931Y38207692D01*
X50429138Y38292938D01*
X50397320Y38362524D01*
X50334316Y38424328D01*
X50231969Y38486228D01*
X50082118Y38556103D01*
X50072988Y38560052D01*
X49938003Y38622412D01*
X49854706Y38673554D01*
X49819003Y38719512D01*
X49826797Y38766317D01*
X49873993Y38820002D01*
X49888106Y38832356D01*
X49982641Y38880259D01*
X50080594Y38878242D01*
X50165903Y38831276D01*
X50222504Y38744331D01*
X50227763Y38727266D01*
X50278977Y38644496D01*
X50343963Y38604628D01*
X50437931Y38565118D01*
X50437931Y38667342D01*
X50409347Y38815928D01*
X50324505Y38952216D01*
X50280355Y38997809D01*
X50179995Y39056326D01*
X50052365Y39082816D01*
X49920056Y39075640D01*
G36*
X48934057Y39078080D02*
X48801435Y39029141D01*
X48693990Y38942581D01*
X48651968Y38881648D01*
X48606157Y38769839D01*
X48607109Y38688994D01*
X48655192Y38634622D01*
X48672983Y38625376D01*
X48749796Y38596550D01*
X48789024Y38603935D01*
X48802311Y38652342D01*
X48802988Y38679080D01*
X48827314Y38777452D01*
X48890719Y38846266D01*
X48978846Y38879502D01*
X49077337Y38871139D01*
X49157398Y38827704D01*
X49184439Y38802928D01*
X49203606Y38772871D01*
X49216554Y38727435D01*
X49224936Y38656524D01*
X49230407Y38550040D01*
X49234622Y38397888D01*
X49235713Y38349713D01*
X49239693Y38184905D01*
X49244219Y38068912D01*
X49251005Y37992167D01*
X49261769Y37945107D01*
X49278227Y37918165D01*
X49302094Y37901777D01*
X49317374Y37894537D01*
X49382267Y37869780D01*
X49420466Y37861609D01*
X49433088Y37888897D01*
X49440792Y37971397D01*
X49443620Y38110059D01*
X49441614Y38305838D01*
X49440989Y38336035D01*
X49436579Y38514651D01*
X49431365Y38645077D01*
X49423945Y38737508D01*
X49412918Y38802142D01*
X49396883Y38849175D01*
X49374439Y38888804D01*
X49362698Y38905785D01*
X49295381Y38980920D01*
X49220090Y39039362D01*
X49210872Y39044464D01*
X49075867Y39084740D01*
X48934057Y39078080D01*
X48934057Y39078080D01*
G37*
X48934057Y39078080D02*
X48801435Y39029141D01*
X48693990Y38942581D01*
X48651968Y38881648D01*
X48606157Y38769839D01*
X48607109Y38688994D01*
X48655192Y38634622D01*
X48672983Y38625376D01*
X48749796Y38596550D01*
X48789024Y38603935D01*
X48802311Y38652342D01*
X48802988Y38679080D01*
X48827314Y38777452D01*
X48890719Y38846266D01*
X48978846Y38879502D01*
X49077337Y38871139D01*
X49157398Y38827704D01*
X49184439Y38802928D01*
X49203606Y38772871D01*
X49216554Y38727435D01*
X49224936Y38656524D01*
X49230407Y38550040D01*
X49234622Y38397888D01*
X49235713Y38349713D01*
X49239693Y38184905D01*
X49244219Y38068912D01*
X49251005Y37992167D01*
X49261769Y37945107D01*
X49278227Y37918165D01*
X49302094Y37901777D01*
X49317374Y37894537D01*
X49382267Y37869780D01*
X49420466Y37861609D01*
X49433088Y37888897D01*
X49440792Y37971397D01*
X49443620Y38110059D01*
X49441614Y38305838D01*
X49440989Y38336035D01*
X49436579Y38514651D01*
X49431365Y38645077D01*
X49423945Y38737508D01*
X49412918Y38802142D01*
X49396883Y38849175D01*
X49374439Y38888804D01*
X49362698Y38905785D01*
X49295381Y38980920D01*
X49220090Y39039362D01*
X49210872Y39044464D01*
X49075867Y39084740D01*
X48934057Y39078080D01*
G36*
X47606086Y38845545D02*
X47606457Y38627339D01*
X47607892Y38459481D01*
X47610998Y38333930D01*
X47616378Y38242645D01*
X47624638Y38177585D01*
X47636384Y38130709D01*
X47652219Y38093976D01*
X47664210Y38073009D01*
X47763510Y37959306D01*
X47889412Y37888035D01*
X48028709Y37862462D01*
X48168195Y37885850D01*
X48251257Y37927881D01*
X48338455Y38000589D01*
X48397883Y38089388D01*
X48433739Y38205680D01*
X48450219Y38360865D01*
X48452553Y38474713D01*
X48452239Y38482894D01*
X48248276Y38482894D01*
X48247030Y38352343D01*
X48241322Y38265920D01*
X48228196Y38209382D01*
X48204694Y38168486D01*
X48176614Y38137638D01*
X48082312Y38078095D01*
X47981060Y38073008D01*
X47885364Y38122721D01*
X47877916Y38129457D01*
X47846126Y38164498D01*
X47826192Y38206189D01*
X47815400Y38268238D01*
X47811035Y38364356D01*
X47810345Y38470621D01*
X47811841Y38604120D01*
X47818036Y38693178D01*
X47831486Y38751707D01*
X47854749Y38793618D01*
X47873825Y38815877D01*
X47962437Y38872015D01*
X48064492Y38878765D01*
X48161905Y38835886D01*
X48180704Y38819968D01*
X48212707Y38784618D01*
X48232682Y38742498D01*
X48243407Y38679749D01*
X48247661Y38582513D01*
X48248276Y38482894D01*
X48452239Y38482894D01*
X48445496Y38658053D01*
X48421528Y38795805D01*
X48376452Y38899368D01*
X48306072Y38980144D01*
X48251257Y39021545D01*
X48151624Y39066272D01*
X48036145Y39087033D01*
X47928801Y39081475D01*
X47868736Y39059057D01*
X47845165Y39052677D01*
X47829523Y39076465D01*
X47818605Y39140212D01*
X47810345Y39237313D01*
X47801301Y39345459D01*
X47788739Y39410525D01*
X47765881Y39447732D01*
X47725949Y39472301D01*
X47700862Y39483181D01*
X47605977Y39522928D01*
X47606086Y38845545D01*
X47606086Y38845545D01*
G37*
X47606086Y38845545D02*
X47606457Y38627339D01*
X47607892Y38459481D01*
X47610998Y38333930D01*
X47616378Y38242645D01*
X47624638Y38177585D01*
X47636384Y38130709D01*
X47652219Y38093976D01*
X47664210Y38073009D01*
X47763510Y37959306D01*
X47889412Y37888035D01*
X48028709Y37862462D01*
X48168195Y37885850D01*
X48251257Y37927881D01*
X48338455Y38000589D01*
X48397883Y38089388D01*
X48433739Y38205680D01*
X48450219Y38360865D01*
X48452553Y38474713D01*
X48452239Y38482894D01*
X48248276Y38482894D01*
X48247030Y38352343D01*
X48241322Y38265920D01*
X48228196Y38209382D01*
X48204694Y38168486D01*
X48176614Y38137638D01*
X48082312Y38078095D01*
X47981060Y38073008D01*
X47885364Y38122721D01*
X47877916Y38129457D01*
X47846126Y38164498D01*
X47826192Y38206189D01*
X47815400Y38268238D01*
X47811035Y38364356D01*
X47810345Y38470621D01*
X47811841Y38604120D01*
X47818036Y38693178D01*
X47831486Y38751707D01*
X47854749Y38793618D01*
X47873825Y38815877D01*
X47962437Y38872015D01*
X48064492Y38878765D01*
X48161905Y38835886D01*
X48180704Y38819968D01*
X48212707Y38784618D01*
X48232682Y38742498D01*
X48243407Y38679749D01*
X48247661Y38582513D01*
X48248276Y38482894D01*
X48452239Y38482894D01*
X48445496Y38658053D01*
X48421528Y38795805D01*
X48376452Y38899368D01*
X48306072Y38980144D01*
X48251257Y39021545D01*
X48151624Y39066272D01*
X48036145Y39087033D01*
X47928801Y39081475D01*
X47868736Y39059057D01*
X47845165Y39052677D01*
X47829523Y39076465D01*
X47818605Y39140212D01*
X47810345Y39237313D01*
X47801301Y39345459D01*
X47788739Y39410525D01*
X47765881Y39447732D01*
X47725949Y39472301D01*
X47700862Y39483181D01*
X47605977Y39522928D01*
X47606086Y38845545D01*
G36*
X46419876Y39060160D02*
X46415421Y38983347D01*
X46411929Y38866609D01*
X46409685Y38719179D01*
X46408965Y38564545D01*
X46408965Y38041273D01*
X46501355Y37948883D01*
X46565022Y37891953D01*
X46620911Y37868893D01*
X46697298Y37870353D01*
X46727620Y37874066D01*
X46822390Y37884874D01*
X46900778Y37891067D01*
X46919885Y37891639D01*
X46984301Y37887898D01*
X47076429Y37878506D01*
X47112150Y37874066D01*
X47199886Y37867199D01*
X47258847Y37882115D01*
X47317310Y37928165D01*
X47338415Y37948883D01*
X47430805Y38041273D01*
X47430805Y39020053D01*
X47356442Y39053934D01*
X47292410Y39079030D01*
X47254948Y39087816D01*
X47245343Y39060050D01*
X47236365Y38982470D01*
X47228614Y38863652D01*
X47222686Y38712172D01*
X47219827Y38584195D01*
X47211839Y38080575D01*
X47142152Y38070722D01*
X47078771Y38077611D01*
X47047714Y38099917D01*
X47039033Y38141621D01*
X47031622Y38230456D01*
X47026069Y38355166D01*
X47022964Y38504493D01*
X47022516Y38581339D01*
X47022069Y39023713D01*
X46930126Y39055765D01*
X46865051Y39077557D01*
X46829653Y39087719D01*
X46828632Y39087816D01*
X46825080Y39060191D01*
X46821177Y38983589D01*
X46817249Y38867421D01*
X46813624Y38721096D01*
X46811092Y38584195D01*
X46803103Y38080575D01*
X46627931Y38080575D01*
X46619893Y38540035D01*
X46611854Y38999495D01*
X46526457Y39043656D01*
X46463407Y39073981D01*
X46426090Y39087742D01*
X46425013Y39087816D01*
X46419876Y39060160D01*
X46419876Y39060160D01*
G37*
X46419876Y39060160D02*
X46415421Y38983347D01*
X46411929Y38866609D01*
X46409685Y38719179D01*
X46408965Y38564545D01*
X46408965Y38041273D01*
X46501355Y37948883D01*
X46565022Y37891953D01*
X46620911Y37868893D01*
X46697298Y37870353D01*
X46727620Y37874066D01*
X46822390Y37884874D01*
X46900778Y37891067D01*
X46919885Y37891639D01*
X46984301Y37887898D01*
X47076429Y37878506D01*
X47112150Y37874066D01*
X47199886Y37867199D01*
X47258847Y37882115D01*
X47317310Y37928165D01*
X47338415Y37948883D01*
X47430805Y38041273D01*
X47430805Y39020053D01*
X47356442Y39053934D01*
X47292410Y39079030D01*
X47254948Y39087816D01*
X47245343Y39060050D01*
X47236365Y38982470D01*
X47228614Y38863652D01*
X47222686Y38712172D01*
X47219827Y38584195D01*
X47211839Y38080575D01*
X47142152Y38070722D01*
X47078771Y38077611D01*
X47047714Y38099917D01*
X47039033Y38141621D01*
X47031622Y38230456D01*
X47026069Y38355166D01*
X47022964Y38504493D01*
X47022516Y38581339D01*
X47022069Y39023713D01*
X46930126Y39055765D01*
X46865051Y39077557D01*
X46829653Y39087719D01*
X46828632Y39087816D01*
X46825080Y39060191D01*
X46821177Y38983589D01*
X46817249Y38867421D01*
X46813624Y38721096D01*
X46811092Y38584195D01*
X46803103Y38080575D01*
X46627931Y38080575D01*
X46619893Y38540035D01*
X46611854Y38999495D01*
X46526457Y39043656D01*
X46463407Y39073981D01*
X46426090Y39087742D01*
X46425013Y39087816D01*
X46419876Y39060160D01*
G36*
X45685594Y39064844D02*
X45601531Y39026607D01*
X45535550Y38980274D01*
X45487206Y38928468D01*
X45453828Y38861637D01*
X45432747Y38770231D01*
X45421293Y38644699D01*
X45416797Y38475492D01*
X45416322Y38364067D01*
X45416322Y37929373D01*
X45490684Y37895491D01*
X45549254Y37870728D01*
X45578270Y37861609D01*
X45583821Y37888743D01*
X45588225Y37961906D01*
X45590922Y38068737D01*
X45591494Y38153563D01*
X45593954Y38276113D01*
X45600588Y38373332D01*
X45610274Y38432866D01*
X45617968Y38445517D01*
X45669689Y38432598D01*
X45750883Y38399461D01*
X45844898Y38354539D01*
X45935083Y38306265D01*
X46004785Y38263072D01*
X46037352Y38233392D01*
X46037481Y38233071D01*
X46034680Y38178143D01*
X46009561Y38125708D01*
X45965459Y38083119D01*
X45901091Y38068874D01*
X45846079Y38070534D01*
X45768165Y38071755D01*
X45727268Y38053502D01*
X45702705Y38005274D01*
X45699608Y37996180D01*
X45688960Y37927402D01*
X45717435Y37885640D01*
X45791656Y37865737D01*
X45871832Y37862056D01*
X46016110Y37889342D01*
X46090797Y37928310D01*
X46183037Y38019852D01*
X46231957Y38132218D01*
X46236346Y38250949D01*
X46194999Y38361589D01*
X46132803Y38430920D01*
X46070706Y38469735D01*
X45973105Y38518875D01*
X45859368Y38568708D01*
X45840410Y38576323D01*
X45715479Y38631455D01*
X45643461Y38680046D01*
X45620300Y38728353D01*
X45641936Y38782630D01*
X45679080Y38825057D01*
X45766873Y38877298D01*
X45863470Y38881216D01*
X45952056Y38840959D01*
X46015814Y38760674D01*
X46024183Y38739960D01*
X46072904Y38663775D01*
X46144035Y38607215D01*
X46233793Y38560799D01*
X46233793Y38692416D01*
X46228510Y38772832D01*
X46205858Y38836214D01*
X46155633Y38903837D01*
X46107418Y38955924D01*
X46032446Y39029678D01*
X45974194Y39069298D01*
X45911628Y39085190D01*
X45840807Y39087816D01*
X45685594Y39064844D01*
X45685594Y39064844D01*
G37*
X45685594Y39064844D02*
X45601531Y39026607D01*
X45535550Y38980274D01*
X45487206Y38928468D01*
X45453828Y38861637D01*
X45432747Y38770231D01*
X45421293Y38644699D01*
X45416797Y38475492D01*
X45416322Y38364067D01*
X45416322Y37929373D01*
X45490684Y37895491D01*
X45549254Y37870728D01*
X45578270Y37861609D01*
X45583821Y37888743D01*
X45588225Y37961906D01*
X45590922Y38068737D01*
X45591494Y38153563D01*
X45593954Y38276113D01*
X45600588Y38373332D01*
X45610274Y38432866D01*
X45617968Y38445517D01*
X45669689Y38432598D01*
X45750883Y38399461D01*
X45844898Y38354539D01*
X45935083Y38306265D01*
X46004785Y38263072D01*
X46037352Y38233392D01*
X46037481Y38233071D01*
X46034680Y38178143D01*
X46009561Y38125708D01*
X45965459Y38083119D01*
X45901091Y38068874D01*
X45846079Y38070534D01*
X45768165Y38071755D01*
X45727268Y38053502D01*
X45702705Y38005274D01*
X45699608Y37996180D01*
X45688960Y37927402D01*
X45717435Y37885640D01*
X45791656Y37865737D01*
X45871832Y37862056D01*
X46016110Y37889342D01*
X46090797Y37928310D01*
X46183037Y38019852D01*
X46231957Y38132218D01*
X46236346Y38250949D01*
X46194999Y38361589D01*
X46132803Y38430920D01*
X46070706Y38469735D01*
X45973105Y38518875D01*
X45859368Y38568708D01*
X45840410Y38576323D01*
X45715479Y38631455D01*
X45643461Y38680046D01*
X45620300Y38728353D01*
X45641936Y38782630D01*
X45679080Y38825057D01*
X45766873Y38877298D01*
X45863470Y38881216D01*
X45952056Y38840959D01*
X46015814Y38760674D01*
X46024183Y38739960D01*
X46072904Y38663775D01*
X46144035Y38607215D01*
X46233793Y38560799D01*
X46233793Y38692416D01*
X46228510Y38772832D01*
X46205858Y38836214D01*
X46155633Y38903837D01*
X46107418Y38955924D01*
X46032446Y39029678D01*
X45974194Y39069298D01*
X45911628Y39085190D01*
X45840807Y39087816D01*
X45685594Y39064844D01*
G36*
X44664310Y39059982D02*
X44629415Y39044731D01*
X44546123Y38978765D01*
X44474897Y38883382D01*
X44430847Y38781594D01*
X44423678Y38731413D01*
X44447715Y38661353D01*
X44500439Y38624283D01*
X44556969Y38601836D01*
X44582854Y38597700D01*
X44595458Y38627717D01*
X44620346Y38693039D01*
X44631265Y38722555D01*
X44692492Y38824652D01*
X44781139Y38875577D01*
X44894807Y38874011D01*
X44903226Y38872006D01*
X44963912Y38843233D01*
X45008526Y38787141D01*
X45038998Y38696837D01*
X45057256Y38565429D01*
X45065229Y38386026D01*
X45065977Y38290567D01*
X45066348Y38140087D01*
X45068777Y38037505D01*
X45075240Y37972328D01*
X45087712Y37934062D01*
X45108167Y37912215D01*
X45138581Y37896293D01*
X45140339Y37895491D01*
X45198909Y37870728D01*
X45227925Y37861609D01*
X45232384Y37889178D01*
X45236201Y37965380D01*
X45239101Y38080459D01*
X45240809Y38224659D01*
X45241149Y38330186D01*
X45239412Y38534387D01*
X45232618Y38689303D01*
X45218393Y38803976D01*
X45194362Y38887449D01*
X45158152Y38948764D01*
X45107388Y38996966D01*
X45057261Y39030607D01*
X44936725Y39075381D01*
X44796443Y39085479D01*
X44664310Y39059982D01*
X44664310Y39059982D01*
G37*
X44664310Y39059982D02*
X44629415Y39044731D01*
X44546123Y38978765D01*
X44474897Y38883382D01*
X44430847Y38781594D01*
X44423678Y38731413D01*
X44447715Y38661353D01*
X44500439Y38624283D01*
X44556969Y38601836D01*
X44582854Y38597700D01*
X44595458Y38627717D01*
X44620346Y38693039D01*
X44631265Y38722555D01*
X44692492Y38824652D01*
X44781139Y38875577D01*
X44894807Y38874011D01*
X44903226Y38872006D01*
X44963912Y38843233D01*
X45008526Y38787141D01*
X45038998Y38696837D01*
X45057256Y38565429D01*
X45065229Y38386026D01*
X45065977Y38290567D01*
X45066348Y38140087D01*
X45068777Y38037505D01*
X45075240Y37972328D01*
X45087712Y37934062D01*
X45108167Y37912215D01*
X45138581Y37896293D01*
X45140339Y37895491D01*
X45198909Y37870728D01*
X45227925Y37861609D01*
X45232384Y37889178D01*
X45236201Y37965380D01*
X45239101Y38080459D01*
X45240809Y38224659D01*
X45241149Y38330186D01*
X45239412Y38534387D01*
X45232618Y38689303D01*
X45218393Y38803976D01*
X45194362Y38887449D01*
X45158152Y38948764D01*
X45107388Y38996966D01*
X45057261Y39030607D01*
X44936725Y39075381D01*
X44796443Y39085479D01*
X44664310Y39059982D01*
G36*
X43656561Y39043460D02*
X43541050Y38967966D01*
X43485336Y38900383D01*
X43441196Y38777745D01*
X43437691Y38680702D01*
X43445632Y38550944D01*
X43744885Y38419961D01*
X43890389Y38353042D01*
X43985463Y38299210D01*
X44034899Y38252584D01*
X44043489Y38207280D01*
X44016028Y38157418D01*
X43985747Y38124368D01*
X43897637Y38071367D01*
X43801804Y38067653D01*
X43713788Y38108959D01*
X43649131Y38191017D01*
X43637567Y38219992D01*
X43582175Y38310491D01*
X43518447Y38349060D01*
X43431034Y38382054D01*
X43431034Y38256966D01*
X43438762Y38171844D01*
X43469034Y38100062D01*
X43532482Y38017644D01*
X43541912Y38006934D01*
X43612487Y37933609D01*
X43673153Y37894258D01*
X43749050Y37876155D01*
X43811970Y37870226D01*
X43924513Y37868749D01*
X44004630Y37887465D01*
X44054610Y37915253D01*
X44133162Y37976359D01*
X44187537Y38042446D01*
X44221948Y38125559D01*
X44240612Y38237746D01*
X44247744Y38391054D01*
X44248313Y38468864D01*
X44246378Y38562147D01*
X44070101Y38562147D01*
X44068056Y38512104D01*
X44062961Y38503908D01*
X44029334Y38515042D01*
X43956970Y38544507D01*
X43860253Y38586399D01*
X43840027Y38595403D01*
X43717797Y38657558D01*
X43650453Y38712185D01*
X43635652Y38763351D01*
X43671053Y38815124D01*
X43700289Y38838000D01*
X43805784Y38883750D01*
X43904524Y38876192D01*
X43987188Y38820349D01*
X44044452Y38721247D01*
X44062812Y38642586D01*
X44070101Y38562147D01*
X44246378Y38562147D01*
X44244541Y38650649D01*
X44230641Y38785147D01*
X44203106Y38883084D01*
X44158428Y38955189D01*
X44093099Y39012187D01*
X44064617Y39030607D01*
X43935237Y39078578D01*
X43793588Y39081597D01*
X43656561Y39043460D01*
X43656561Y39043460D01*
G37*
X43656561Y39043460D02*
X43541050Y38967966D01*
X43485336Y38900383D01*
X43441196Y38777745D01*
X43437691Y38680702D01*
X43445632Y38550944D01*
X43744885Y38419961D01*
X43890389Y38353042D01*
X43985463Y38299210D01*
X44034899Y38252584D01*
X44043489Y38207280D01*
X44016028Y38157418D01*
X43985747Y38124368D01*
X43897637Y38071367D01*
X43801804Y38067653D01*
X43713788Y38108959D01*
X43649131Y38191017D01*
X43637567Y38219992D01*
X43582175Y38310491D01*
X43518447Y38349060D01*
X43431034Y38382054D01*
X43431034Y38256966D01*
X43438762Y38171844D01*
X43469034Y38100062D01*
X43532482Y38017644D01*
X43541912Y38006934D01*
X43612487Y37933609D01*
X43673153Y37894258D01*
X43749050Y37876155D01*
X43811970Y37870226D01*
X43924513Y37868749D01*
X44004630Y37887465D01*
X44054610Y37915253D01*
X44133162Y37976359D01*
X44187537Y38042446D01*
X44221948Y38125559D01*
X44240612Y38237746D01*
X44247744Y38391054D01*
X44248313Y38468864D01*
X44246378Y38562147D01*
X44070101Y38562147D01*
X44068056Y38512104D01*
X44062961Y38503908D01*
X44029334Y38515042D01*
X43956970Y38544507D01*
X43860253Y38586399D01*
X43840027Y38595403D01*
X43717797Y38657558D01*
X43650453Y38712185D01*
X43635652Y38763351D01*
X43671053Y38815124D01*
X43700289Y38838000D01*
X43805784Y38883750D01*
X43904524Y38876192D01*
X43987188Y38820349D01*
X44044452Y38721247D01*
X44062812Y38642586D01*
X44070101Y38562147D01*
X44246378Y38562147D01*
X44244541Y38650649D01*
X44230641Y38785147D01*
X44203106Y38883084D01*
X44158428Y38955189D01*
X44093099Y39012187D01*
X44064617Y39030607D01*
X43935237Y39078578D01*
X43793588Y39081597D01*
X43656561Y39043460D01*
G36*
X49790986Y48547002D02*
X49632994Y48546137D01*
X49518653Y48543795D01*
X49440593Y48539238D01*
X49391446Y48531730D01*
X49363841Y48520534D01*
X49350408Y48504912D01*
X49343779Y48484127D01*
X49343135Y48481437D01*
X49333065Y48432887D01*
X49314425Y48337095D01*
X49289155Y48204257D01*
X49259193Y48044569D01*
X49226478Y47868226D01*
X49225336Y47862033D01*
X49192567Y47689218D01*
X49161907Y47536531D01*
X49135336Y47413129D01*
X49114833Y47328169D01*
X49102374Y47290810D01*
X49101780Y47290148D01*
X49065081Y47271905D01*
X48989414Y47241503D01*
X48891122Y47205507D01*
X48890575Y47205315D01*
X48766767Y47158778D01*
X48620804Y47099496D01*
X48483219Y47039891D01*
X48476707Y47036944D01*
X48252610Y46935235D01*
X47756381Y47274103D01*
X47604154Y47377408D01*
X47466259Y47469763D01*
X47350685Y47545916D01*
X47265421Y47600615D01*
X47218456Y47628607D01*
X47213996Y47630683D01*
X47179866Y47621440D01*
X47116119Y47576844D01*
X47020269Y47494791D01*
X46889831Y47373179D01*
X46756672Y47243795D01*
X46628306Y47116298D01*
X46513419Y46999954D01*
X46418927Y46901948D01*
X46351747Y46829464D01*
X46318794Y46789687D01*
X46317568Y46787639D01*
X46313926Y46760344D01*
X46327650Y46715766D01*
X46362131Y46647888D01*
X46420761Y46550689D01*
X46506930Y46418149D01*
X46621800Y46247524D01*
X46723746Y46097345D01*
X46814877Y45962650D01*
X46889927Y45851260D01*
X46943631Y45770995D01*
X46970720Y45729675D01*
X46972426Y45726870D01*
X46969118Y45687279D01*
X46944047Y45610331D01*
X46902202Y45510568D01*
X46887288Y45478709D01*
X46822214Y45336774D01*
X46752788Y45175727D01*
X46696391Y45036379D01*
X46655753Y44932956D01*
X46623474Y44854358D01*
X46604822Y44813280D01*
X46602503Y44810115D01*
X46568197Y44804872D01*
X46487331Y44790506D01*
X46370657Y44769063D01*
X46228925Y44742587D01*
X46072890Y44713123D01*
X45913302Y44682717D01*
X45760915Y44653412D01*
X45626479Y44627255D01*
X45520748Y44606290D01*
X45454474Y44592561D01*
X45438218Y44588680D01*
X45421427Y44579100D01*
X45408751Y44557464D01*
X45399622Y44516469D01*
X45393469Y44448811D01*
X45389720Y44347188D01*
X45387808Y44204297D01*
X45387160Y44012835D01*
X45387126Y43934355D01*
X45387126Y43296094D01*
X45540402Y43265840D01*
X45625678Y43249436D01*
X45752930Y43225491D01*
X45906685Y43196893D01*
X46071466Y43166533D01*
X46117011Y43158194D01*
X46269068Y43128630D01*
X46401532Y43099558D01*
X46503286Y43073671D01*
X46563212Y43053663D01*
X46573195Y43047699D01*
X46597707Y43005466D01*
X46632852Y42923630D01*
X46671827Y42818317D01*
X46679558Y42795632D01*
X46730640Y42654982D01*
X46794046Y42496286D01*
X46856096Y42353775D01*
X46856402Y42353114D01*
X46959733Y42129560D01*
X46280039Y41129768D01*
X46716379Y40692700D01*
X46848351Y40562619D01*
X46968721Y40447952D01*
X47070727Y40354819D01*
X47147609Y40289342D01*
X47192607Y40257643D01*
X47199062Y40255632D01*
X47236960Y40271471D01*
X47314292Y40315504D01*
X47422611Y40382510D01*
X47553468Y40467266D01*
X47694948Y40562184D01*
X47838539Y40659002D01*
X47966565Y40743249D01*
X48070895Y40809742D01*
X48143400Y40853298D01*
X48175842Y40868736D01*
X48215424Y40855672D01*
X48290481Y40821250D01*
X48385532Y40772620D01*
X48395608Y40767215D01*
X48523609Y40703020D01*
X48611382Y40671537D01*
X48665972Y40671202D01*
X48694425Y40700452D01*
X48694590Y40700862D01*
X48708812Y40735502D01*
X48742731Y40817731D01*
X48793716Y40941186D01*
X48859138Y41099502D01*
X48936366Y41286314D01*
X49022771Y41495258D01*
X49106449Y41697554D01*
X49198412Y41920800D01*
X49282850Y42127608D01*
X49357231Y42311638D01*
X49419026Y42466549D01*
X49465703Y42586004D01*
X49494732Y42663661D01*
X49503678Y42692644D01*
X49481244Y42725890D01*
X49422561Y42778877D01*
X49344311Y42837296D01*
X49121466Y43022048D01*
X48947282Y43233818D01*
X48823846Y43468144D01*
X48753246Y43720566D01*
X48737569Y43986623D01*
X48748964Y44109425D01*
X48811050Y44364207D01*
X48917977Y44589199D01*
X49063111Y44782183D01*
X49239822Y44940939D01*
X49441478Y45063250D01*
X49661446Y45146895D01*
X49893094Y45189656D01*
X50129791Y45189313D01*
X50364905Y45143648D01*
X50591804Y45050441D01*
X50803856Y44907473D01*
X50892364Y44826617D01*
X51062111Y44618993D01*
X51180301Y44392105D01*
X51247722Y44152567D01*
X51265160Y43906993D01*
X51233402Y43661997D01*
X51153235Y43424192D01*
X51025445Y43200193D01*
X50850820Y42996613D01*
X50655688Y42837296D01*
X50574409Y42776398D01*
X50516991Y42723985D01*
X50496322Y42692594D01*
X50507144Y42658361D01*
X50537923Y42576581D01*
X50586126Y42453593D01*
X50649222Y42295737D01*
X50724678Y42109351D01*
X50809962Y41900774D01*
X50893781Y41697504D01*
X50986255Y41474067D01*
X51071911Y41267016D01*
X51148118Y41082714D01*
X51212247Y40927525D01*
X51261668Y40807812D01*
X51293752Y40729939D01*
X51305641Y40700862D01*
X51333726Y40671323D01*
X51388051Y40671409D01*
X51475605Y40702674D01*
X51603381Y40766671D01*
X51604392Y40767215D01*
X51700598Y40816879D01*
X51778369Y40853055D01*
X51822223Y40868592D01*
X51824158Y40868736D01*
X51857171Y40852976D01*
X51930054Y40809150D01*
X52034678Y40742443D01*
X52162910Y40658036D01*
X52305052Y40562184D01*
X52449767Y40465133D01*
X52580196Y40380730D01*
X52687890Y40314199D01*
X52764402Y40270762D01*
X52800938Y40255632D01*
X52834582Y40275518D01*
X52902224Y40331097D01*
X52997107Y40416246D01*
X53112470Y40524847D01*
X53241555Y40650779D01*
X53283771Y40692851D01*
X53720261Y41130069D01*
X53388023Y41617660D01*
X53287054Y41767395D01*
X53198438Y41901780D01*
X53127146Y42013031D01*
X53078150Y42093361D01*
X53056422Y42134986D01*
X53055785Y42137947D01*
X53067240Y42177182D01*
X53098051Y42256105D01*
X53142884Y42361491D01*
X53174353Y42432046D01*
X53233192Y42567124D01*
X53288604Y42703591D01*
X53331564Y42818897D01*
X53343234Y42854023D01*
X53376389Y42947826D01*
X53408799Y43020306D01*
X53426601Y43047699D01*
X53465886Y43064464D01*
X53551626Y43088230D01*
X53672697Y43116303D01*
X53817973Y43145991D01*
X53882988Y43158194D01*
X54048087Y43188532D01*
X54206448Y43217907D01*
X54342596Y43243431D01*
X54441057Y43262215D01*
X54459598Y43265840D01*
X54612873Y43296094D01*
X54612873Y43934355D01*
X54612529Y44144230D01*
X54611116Y44303020D01*
X54608064Y44418027D01*
X54602803Y44496554D01*
X54594763Y44545904D01*
X54583373Y44573381D01*
X54568063Y44586287D01*
X54561782Y44588680D01*
X54523896Y44597167D01*
X54440195Y44614100D01*
X54321433Y44637434D01*
X54178361Y44665125D01*
X54021732Y44695127D01*
X53862297Y44725396D01*
X53710809Y44753885D01*
X53578019Y44778551D01*
X53474681Y44797349D01*
X53411545Y44808233D01*
X53397497Y44810115D01*
X53384770Y44835296D01*
X53356600Y44902378D01*
X53318252Y44998667D01*
X53303609Y45036379D01*
X53244548Y45182079D01*
X53175000Y45343049D01*
X53112712Y45478709D01*
X53066879Y45582439D01*
X53036387Y45667674D01*
X53026208Y45719874D01*
X53027831Y45726870D01*
X53049343Y45759898D01*
X53098465Y45833357D01*
X53169923Y45939423D01*
X53258445Y46070274D01*
X53358759Y46218088D01*
X53378594Y46247266D01*
X53494988Y46420137D01*
X53580548Y46551774D01*
X53638684Y46648239D01*
X53672808Y46715592D01*
X53686331Y46759894D01*
X53682664Y46787206D01*
X53682570Y46787380D01*
X53653707Y46823254D01*
X53589867Y46892609D01*
X53497969Y46988255D01*
X53384933Y47103001D01*
X53257679Y47229659D01*
X53243328Y47243795D01*
X53082957Y47399097D01*
X52959195Y47513130D01*
X52869555Y47587998D01*
X52811552Y47625804D01*
X52786004Y47630683D01*
X52748718Y47609397D01*
X52671343Y47560227D01*
X52561867Y47488425D01*
X52428280Y47399245D01*
X52278570Y47297937D01*
X52243618Y47274103D01*
X51747390Y46935235D01*
X51523293Y47036944D01*
X51387011Y47096217D01*
X51240724Y47155830D01*
X51114965Y47203360D01*
X51109425Y47205315D01*
X51011057Y47241323D01*
X50935229Y47271771D01*
X50898282Y47290095D01*
X50898220Y47290148D01*
X50886496Y47323271D01*
X50866568Y47404733D01*
X50840413Y47525375D01*
X50810010Y47676041D01*
X50777337Y47847572D01*
X50774664Y47862033D01*
X50741890Y48038765D01*
X50711802Y48199190D01*
X50686339Y48333112D01*
X50667441Y48430337D01*
X50657047Y48480668D01*
X50656865Y48481437D01*
X50650539Y48502847D01*
X50638239Y48519012D01*
X50612594Y48530669D01*
X50566235Y48538555D01*
X50491792Y48543407D01*
X50381895Y48545961D01*
X50229175Y48546955D01*
X50026262Y48547126D01*
X50000000Y48547126D01*
X49790986Y48547002D01*
X49790986Y48547002D01*
G37*
X49790986Y48547002D02*
X49632994Y48546137D01*
X49518653Y48543795D01*
X49440593Y48539238D01*
X49391446Y48531730D01*
X49363841Y48520534D01*
X49350408Y48504912D01*
X49343779Y48484127D01*
X49343135Y48481437D01*
X49333065Y48432887D01*
X49314425Y48337095D01*
X49289155Y48204257D01*
X49259193Y48044569D01*
X49226478Y47868226D01*
X49225336Y47862033D01*
X49192567Y47689218D01*
X49161907Y47536531D01*
X49135336Y47413129D01*
X49114833Y47328169D01*
X49102374Y47290810D01*
X49101780Y47290148D01*
X49065081Y47271905D01*
X48989414Y47241503D01*
X48891122Y47205507D01*
X48890575Y47205315D01*
X48766767Y47158778D01*
X48620804Y47099496D01*
X48483219Y47039891D01*
X48476707Y47036944D01*
X48252610Y46935235D01*
X47756381Y47274103D01*
X47604154Y47377408D01*
X47466259Y47469763D01*
X47350685Y47545916D01*
X47265421Y47600615D01*
X47218456Y47628607D01*
X47213996Y47630683D01*
X47179866Y47621440D01*
X47116119Y47576844D01*
X47020269Y47494791D01*
X46889831Y47373179D01*
X46756672Y47243795D01*
X46628306Y47116298D01*
X46513419Y46999954D01*
X46418927Y46901948D01*
X46351747Y46829464D01*
X46318794Y46789687D01*
X46317568Y46787639D01*
X46313926Y46760344D01*
X46327650Y46715766D01*
X46362131Y46647888D01*
X46420761Y46550689D01*
X46506930Y46418149D01*
X46621800Y46247524D01*
X46723746Y46097345D01*
X46814877Y45962650D01*
X46889927Y45851260D01*
X46943631Y45770995D01*
X46970720Y45729675D01*
X46972426Y45726870D01*
X46969118Y45687279D01*
X46944047Y45610331D01*
X46902202Y45510568D01*
X46887288Y45478709D01*
X46822214Y45336774D01*
X46752788Y45175727D01*
X46696391Y45036379D01*
X46655753Y44932956D01*
X46623474Y44854358D01*
X46604822Y44813280D01*
X46602503Y44810115D01*
X46568197Y44804872D01*
X46487331Y44790506D01*
X46370657Y44769063D01*
X46228925Y44742587D01*
X46072890Y44713123D01*
X45913302Y44682717D01*
X45760915Y44653412D01*
X45626479Y44627255D01*
X45520748Y44606290D01*
X45454474Y44592561D01*
X45438218Y44588680D01*
X45421427Y44579100D01*
X45408751Y44557464D01*
X45399622Y44516469D01*
X45393469Y44448811D01*
X45389720Y44347188D01*
X45387808Y44204297D01*
X45387160Y44012835D01*
X45387126Y43934355D01*
X45387126Y43296094D01*
X45540402Y43265840D01*
X45625678Y43249436D01*
X45752930Y43225491D01*
X45906685Y43196893D01*
X46071466Y43166533D01*
X46117011Y43158194D01*
X46269068Y43128630D01*
X46401532Y43099558D01*
X46503286Y43073671D01*
X46563212Y43053663D01*
X46573195Y43047699D01*
X46597707Y43005466D01*
X46632852Y42923630D01*
X46671827Y42818317D01*
X46679558Y42795632D01*
X46730640Y42654982D01*
X46794046Y42496286D01*
X46856096Y42353775D01*
X46856402Y42353114D01*
X46959733Y42129560D01*
X46280039Y41129768D01*
X46716379Y40692700D01*
X46848351Y40562619D01*
X46968721Y40447952D01*
X47070727Y40354819D01*
X47147609Y40289342D01*
X47192607Y40257643D01*
X47199062Y40255632D01*
X47236960Y40271471D01*
X47314292Y40315504D01*
X47422611Y40382510D01*
X47553468Y40467266D01*
X47694948Y40562184D01*
X47838539Y40659002D01*
X47966565Y40743249D01*
X48070895Y40809742D01*
X48143400Y40853298D01*
X48175842Y40868736D01*
X48215424Y40855672D01*
X48290481Y40821250D01*
X48385532Y40772620D01*
X48395608Y40767215D01*
X48523609Y40703020D01*
X48611382Y40671537D01*
X48665972Y40671202D01*
X48694425Y40700452D01*
X48694590Y40700862D01*
X48708812Y40735502D01*
X48742731Y40817731D01*
X48793716Y40941186D01*
X48859138Y41099502D01*
X48936366Y41286314D01*
X49022771Y41495258D01*
X49106449Y41697554D01*
X49198412Y41920800D01*
X49282850Y42127608D01*
X49357231Y42311638D01*
X49419026Y42466549D01*
X49465703Y42586004D01*
X49494732Y42663661D01*
X49503678Y42692644D01*
X49481244Y42725890D01*
X49422561Y42778877D01*
X49344311Y42837296D01*
X49121466Y43022048D01*
X48947282Y43233818D01*
X48823846Y43468144D01*
X48753246Y43720566D01*
X48737569Y43986623D01*
X48748964Y44109425D01*
X48811050Y44364207D01*
X48917977Y44589199D01*
X49063111Y44782183D01*
X49239822Y44940939D01*
X49441478Y45063250D01*
X49661446Y45146895D01*
X49893094Y45189656D01*
X50129791Y45189313D01*
X50364905Y45143648D01*
X50591804Y45050441D01*
X50803856Y44907473D01*
X50892364Y44826617D01*
X51062111Y44618993D01*
X51180301Y44392105D01*
X51247722Y44152567D01*
X51265160Y43906993D01*
X51233402Y43661997D01*
X51153235Y43424192D01*
X51025445Y43200193D01*
X50850820Y42996613D01*
X50655688Y42837296D01*
X50574409Y42776398D01*
X50516991Y42723985D01*
X50496322Y42692594D01*
X50507144Y42658361D01*
X50537923Y42576581D01*
X50586126Y42453593D01*
X50649222Y42295737D01*
X50724678Y42109351D01*
X50809962Y41900774D01*
X50893781Y41697504D01*
X50986255Y41474067D01*
X51071911Y41267016D01*
X51148118Y41082714D01*
X51212247Y40927525D01*
X51261668Y40807812D01*
X51293752Y40729939D01*
X51305641Y40700862D01*
X51333726Y40671323D01*
X51388051Y40671409D01*
X51475605Y40702674D01*
X51603381Y40766671D01*
X51604392Y40767215D01*
X51700598Y40816879D01*
X51778369Y40853055D01*
X51822223Y40868592D01*
X51824158Y40868736D01*
X51857171Y40852976D01*
X51930054Y40809150D01*
X52034678Y40742443D01*
X52162910Y40658036D01*
X52305052Y40562184D01*
X52449767Y40465133D01*
X52580196Y40380730D01*
X52687890Y40314199D01*
X52764402Y40270762D01*
X52800938Y40255632D01*
X52834582Y40275518D01*
X52902224Y40331097D01*
X52997107Y40416246D01*
X53112470Y40524847D01*
X53241555Y40650779D01*
X53283771Y40692851D01*
X53720261Y41130069D01*
X53388023Y41617660D01*
X53287054Y41767395D01*
X53198438Y41901780D01*
X53127146Y42013031D01*
X53078150Y42093361D01*
X53056422Y42134986D01*
X53055785Y42137947D01*
X53067240Y42177182D01*
X53098051Y42256105D01*
X53142884Y42361491D01*
X53174353Y42432046D01*
X53233192Y42567124D01*
X53288604Y42703591D01*
X53331564Y42818897D01*
X53343234Y42854023D01*
X53376389Y42947826D01*
X53408799Y43020306D01*
X53426601Y43047699D01*
X53465886Y43064464D01*
X53551626Y43088230D01*
X53672697Y43116303D01*
X53817973Y43145991D01*
X53882988Y43158194D01*
X54048087Y43188532D01*
X54206448Y43217907D01*
X54342596Y43243431D01*
X54441057Y43262215D01*
X54459598Y43265840D01*
X54612873Y43296094D01*
X54612873Y43934355D01*
X54612529Y44144230D01*
X54611116Y44303020D01*
X54608064Y44418027D01*
X54602803Y44496554D01*
X54594763Y44545904D01*
X54583373Y44573381D01*
X54568063Y44586287D01*
X54561782Y44588680D01*
X54523896Y44597167D01*
X54440195Y44614100D01*
X54321433Y44637434D01*
X54178361Y44665125D01*
X54021732Y44695127D01*
X53862297Y44725396D01*
X53710809Y44753885D01*
X53578019Y44778551D01*
X53474681Y44797349D01*
X53411545Y44808233D01*
X53397497Y44810115D01*
X53384770Y44835296D01*
X53356600Y44902378D01*
X53318252Y44998667D01*
X53303609Y45036379D01*
X53244548Y45182079D01*
X53175000Y45343049D01*
X53112712Y45478709D01*
X53066879Y45582439D01*
X53036387Y45667674D01*
X53026208Y45719874D01*
X53027831Y45726870D01*
X53049343Y45759898D01*
X53098465Y45833357D01*
X53169923Y45939423D01*
X53258445Y46070274D01*
X53358759Y46218088D01*
X53378594Y46247266D01*
X53494988Y46420137D01*
X53580548Y46551774D01*
X53638684Y46648239D01*
X53672808Y46715592D01*
X53686331Y46759894D01*
X53682664Y46787206D01*
X53682570Y46787380D01*
X53653707Y46823254D01*
X53589867Y46892609D01*
X53497969Y46988255D01*
X53384933Y47103001D01*
X53257679Y47229659D01*
X53243328Y47243795D01*
X53082957Y47399097D01*
X52959195Y47513130D01*
X52869555Y47587998D01*
X52811552Y47625804D01*
X52786004Y47630683D01*
X52748718Y47609397D01*
X52671343Y47560227D01*
X52561867Y47488425D01*
X52428280Y47399245D01*
X52278570Y47297937D01*
X52243618Y47274103D01*
X51747390Y46935235D01*
X51523293Y47036944D01*
X51387011Y47096217D01*
X51240724Y47155830D01*
X51114965Y47203360D01*
X51109425Y47205315D01*
X51011057Y47241323D01*
X50935229Y47271771D01*
X50898282Y47290095D01*
X50898220Y47290148D01*
X50886496Y47323271D01*
X50866568Y47404733D01*
X50840413Y47525375D01*
X50810010Y47676041D01*
X50777337Y47847572D01*
X50774664Y47862033D01*
X50741890Y48038765D01*
X50711802Y48199190D01*
X50686339Y48333112D01*
X50667441Y48430337D01*
X50657047Y48480668D01*
X50656865Y48481437D01*
X50650539Y48502847D01*
X50638239Y48519012D01*
X50612594Y48530669D01*
X50566235Y48538555D01*
X50491792Y48543407D01*
X50381895Y48545961D01*
X50229175Y48546955D01*
X50026262Y48547126D01*
X50000000Y48547126D01*
X49790986Y48547002D01*
M02*
