G04 #@! TF.FileFunction,Legend,Top*
%FSLAX46Y46*%
G04 Gerber Fmt 4.6, Leading zero omitted, Abs format (unit mm)*
G04 Created by KiCad (PCBNEW 4.0.2+dfsg1-stable) date Tue 31 Jul 2018 02:10:04 PM EDT*
%MOMM*%
G01*
G04 APERTURE LIST*
%ADD10C,0.127000*%
%ADD11C,0.200000*%
%ADD12C,0.300000*%
%ADD13C,0.203200*%
%ADD14C,0.152400*%
%ADD15C,0.120000*%
%ADD16C,0.150000*%
%ADD17C,0.010000*%
G04 APERTURE END LIST*
D10*
D11*
X36449000Y56134000D02*
G75*
G03X36449000Y56134000I-635000J0D01*
G01*
X75946000Y56007000D02*
X75946000Y57912000D01*
X74041000Y56007000D02*
X75946000Y56007000D01*
X75946000Y58547000D02*
X75946000Y60452000D01*
X75819000Y58547000D02*
X75946000Y58547000D01*
X74041000Y58547000D02*
X75819000Y58547000D01*
X62611000Y31496000D02*
G75*
G03X62611000Y31496000I-381000J0D01*
G01*
X36469609Y31496000D02*
G75*
G03X36469609Y31496000I-401609J0D01*
G01*
X19558000Y31496000D02*
G75*
G03X19558000Y31496000I-508000J0D01*
G01*
X31750000Y22098000D02*
G75*
G03X31750000Y22098000I-381000J0D01*
G01*
X41910000Y22098000D02*
G75*
G03X41910000Y22098000I-381000J0D01*
G01*
X57785000Y22098000D02*
G75*
G03X57785000Y22098000I-381000J0D01*
G01*
X67945000Y22098000D02*
G75*
G03X67945000Y22098000I-381000J0D01*
G01*
D12*
X48323572Y11322857D02*
X49466429Y11322857D01*
X43243572Y11322857D02*
X44386429Y11322857D01*
X38163572Y11322857D02*
X39306429Y11322857D01*
X33083572Y11322857D02*
X34226429Y11322857D01*
X45783572Y11322857D02*
X46926429Y11322857D01*
X46355000Y10751429D02*
X46355000Y11894286D01*
X40703572Y11322857D02*
X41846429Y11322857D01*
X41275000Y10751429D02*
X41275000Y11894286D01*
X35623572Y11322857D02*
X36766429Y11322857D01*
X36195000Y10751429D02*
X36195000Y11894286D01*
X30543572Y11322857D02*
X31686429Y11322857D01*
X31115000Y10751429D02*
X31115000Y11894286D01*
D11*
X34925000Y10287000D02*
X34925000Y14605000D01*
X45085000Y10287000D02*
X45085000Y14605000D01*
X40005000Y10287000D02*
X40005000Y14605000D01*
D13*
X46367095Y12972143D02*
X46318714Y12923762D01*
X46173571Y12875381D01*
X46076809Y12875381D01*
X45931667Y12923762D01*
X45834905Y13020524D01*
X45786524Y13117286D01*
X45738143Y13310810D01*
X45738143Y13455952D01*
X45786524Y13649476D01*
X45834905Y13746238D01*
X45931667Y13843000D01*
X46076809Y13891381D01*
X46173571Y13891381D01*
X46318714Y13843000D01*
X46367095Y13794619D01*
X46802524Y12875381D02*
X46802524Y13891381D01*
X47237952Y12875381D02*
X47237952Y13407571D01*
X47189571Y13504333D01*
X47092809Y13552714D01*
X46947667Y13552714D01*
X46850905Y13504333D01*
X46802524Y13455952D01*
X47721762Y12972143D02*
X47770143Y12923762D01*
X47721762Y12875381D01*
X47673381Y12923762D01*
X47721762Y12972143D01*
X47721762Y12875381D01*
X49415095Y13552714D02*
X49415095Y12875381D01*
X49173191Y13939762D02*
X48931286Y13214048D01*
X49560238Y13214048D01*
X41287095Y12972143D02*
X41238714Y12923762D01*
X41093571Y12875381D01*
X40996809Y12875381D01*
X40851667Y12923762D01*
X40754905Y13020524D01*
X40706524Y13117286D01*
X40658143Y13310810D01*
X40658143Y13455952D01*
X40706524Y13649476D01*
X40754905Y13746238D01*
X40851667Y13843000D01*
X40996809Y13891381D01*
X41093571Y13891381D01*
X41238714Y13843000D01*
X41287095Y13794619D01*
X41722524Y12875381D02*
X41722524Y13891381D01*
X42157952Y12875381D02*
X42157952Y13407571D01*
X42109571Y13504333D01*
X42012809Y13552714D01*
X41867667Y13552714D01*
X41770905Y13504333D01*
X41722524Y13455952D01*
X42641762Y12972143D02*
X42690143Y12923762D01*
X42641762Y12875381D01*
X42593381Y12923762D01*
X42641762Y12972143D01*
X42641762Y12875381D01*
X43802905Y13891381D02*
X44431857Y13891381D01*
X44093191Y13504333D01*
X44238333Y13504333D01*
X44335095Y13455952D01*
X44383476Y13407571D01*
X44431857Y13310810D01*
X44431857Y13068905D01*
X44383476Y12972143D01*
X44335095Y12923762D01*
X44238333Y12875381D01*
X43948048Y12875381D01*
X43851286Y12923762D01*
X43802905Y12972143D01*
X36207095Y12972143D02*
X36158714Y12923762D01*
X36013571Y12875381D01*
X35916809Y12875381D01*
X35771667Y12923762D01*
X35674905Y13020524D01*
X35626524Y13117286D01*
X35578143Y13310810D01*
X35578143Y13455952D01*
X35626524Y13649476D01*
X35674905Y13746238D01*
X35771667Y13843000D01*
X35916809Y13891381D01*
X36013571Y13891381D01*
X36158714Y13843000D01*
X36207095Y13794619D01*
X36642524Y12875381D02*
X36642524Y13891381D01*
X37077952Y12875381D02*
X37077952Y13407571D01*
X37029571Y13504333D01*
X36932809Y13552714D01*
X36787667Y13552714D01*
X36690905Y13504333D01*
X36642524Y13455952D01*
X37561762Y12972143D02*
X37610143Y12923762D01*
X37561762Y12875381D01*
X37513381Y12923762D01*
X37561762Y12972143D01*
X37561762Y12875381D01*
X38771286Y13794619D02*
X38819667Y13843000D01*
X38916429Y13891381D01*
X39158333Y13891381D01*
X39255095Y13843000D01*
X39303476Y13794619D01*
X39351857Y13697857D01*
X39351857Y13601095D01*
X39303476Y13455952D01*
X38722905Y12875381D01*
X39351857Y12875381D01*
X31254095Y12972143D02*
X31205714Y12923762D01*
X31060571Y12875381D01*
X30963809Y12875381D01*
X30818667Y12923762D01*
X30721905Y13020524D01*
X30673524Y13117286D01*
X30625143Y13310810D01*
X30625143Y13455952D01*
X30673524Y13649476D01*
X30721905Y13746238D01*
X30818667Y13843000D01*
X30963809Y13891381D01*
X31060571Y13891381D01*
X31205714Y13843000D01*
X31254095Y13794619D01*
X31689524Y12875381D02*
X31689524Y13891381D01*
X32124952Y12875381D02*
X32124952Y13407571D01*
X32076571Y13504333D01*
X31979809Y13552714D01*
X31834667Y13552714D01*
X31737905Y13504333D01*
X31689524Y13455952D01*
X32608762Y12972143D02*
X32657143Y12923762D01*
X32608762Y12875381D01*
X32560381Y12923762D01*
X32608762Y12972143D01*
X32608762Y12875381D01*
X34398857Y12875381D02*
X33818286Y12875381D01*
X34108572Y12875381D02*
X34108572Y13891381D01*
X34011810Y13746238D01*
X33915048Y13649476D01*
X33818286Y13601095D01*
D14*
X9906000Y58595381D02*
X9325429Y58595381D01*
X9615715Y58595381D02*
X9615715Y59611381D01*
X9518953Y59466238D01*
X9422191Y59369476D01*
X9325429Y59321095D01*
X10293048Y59514619D02*
X10341429Y59563000D01*
X10438191Y59611381D01*
X10680095Y59611381D01*
X10776857Y59563000D01*
X10825238Y59514619D01*
X10873619Y59417857D01*
X10873619Y59321095D01*
X10825238Y59175952D01*
X10244667Y58595381D01*
X10873619Y58595381D01*
X11163905Y59611381D02*
X11502572Y58595381D01*
X11841238Y59611381D01*
X12615333Y58595381D02*
X12615333Y59611381D01*
X12615333Y58643762D02*
X12518571Y58595381D01*
X12325048Y58595381D01*
X12228286Y58643762D01*
X12179905Y58692143D01*
X12131524Y58788905D01*
X12131524Y59079190D01*
X12179905Y59175952D01*
X12228286Y59224333D01*
X12325048Y59272714D01*
X12518571Y59272714D01*
X12615333Y59224333D01*
X13534571Y58643762D02*
X13437809Y58595381D01*
X13244286Y58595381D01*
X13147524Y58643762D01*
X13099143Y58692143D01*
X13050762Y58788905D01*
X13050762Y59079190D01*
X13099143Y59175952D01*
X13147524Y59224333D01*
X13244286Y59272714D01*
X13437809Y59272714D01*
X13534571Y59224333D01*
X5261429Y59611381D02*
X4777620Y59611381D01*
X4729239Y59127571D01*
X4777620Y59175952D01*
X4874382Y59224333D01*
X5116286Y59224333D01*
X5213048Y59175952D01*
X5261429Y59127571D01*
X5309810Y59030810D01*
X5309810Y58788905D01*
X5261429Y58692143D01*
X5213048Y58643762D01*
X5116286Y58595381D01*
X4874382Y58595381D01*
X4777620Y58643762D01*
X4729239Y58692143D01*
X5600096Y59611381D02*
X5938763Y58595381D01*
X6277429Y59611381D01*
X7051524Y58595381D02*
X7051524Y59611381D01*
X7051524Y58643762D02*
X6954762Y58595381D01*
X6761239Y58595381D01*
X6664477Y58643762D01*
X6616096Y58692143D01*
X6567715Y58788905D01*
X6567715Y59079190D01*
X6616096Y59175952D01*
X6664477Y59224333D01*
X6761239Y59272714D01*
X6954762Y59272714D01*
X7051524Y59224333D01*
X7970762Y58643762D02*
X7874000Y58595381D01*
X7680477Y58595381D01*
X7583715Y58643762D01*
X7535334Y58692143D01*
X7486953Y58788905D01*
X7486953Y59079190D01*
X7535334Y59175952D01*
X7583715Y59224333D01*
X7680477Y59272714D01*
X7874000Y59272714D01*
X7970762Y59224333D01*
X72160191Y62024381D02*
X72789143Y62024381D01*
X72450477Y61637333D01*
X72595619Y61637333D01*
X72692381Y61588952D01*
X72740762Y61540571D01*
X72789143Y61443810D01*
X72789143Y61201905D01*
X72740762Y61105143D01*
X72692381Y61056762D01*
X72595619Y61008381D01*
X72305334Y61008381D01*
X72208572Y61056762D01*
X72160191Y61105143D01*
X73224572Y61105143D02*
X73272953Y61056762D01*
X73224572Y61008381D01*
X73176191Y61056762D01*
X73224572Y61105143D01*
X73224572Y61008381D01*
X73611620Y62024381D02*
X74240572Y62024381D01*
X73901906Y61637333D01*
X74047048Y61637333D01*
X74143810Y61588952D01*
X74192191Y61540571D01*
X74240572Y61443810D01*
X74240572Y61201905D01*
X74192191Y61105143D01*
X74143810Y61056762D01*
X74047048Y61008381D01*
X73756763Y61008381D01*
X73660001Y61056762D01*
X73611620Y61105143D01*
X74530858Y62024381D02*
X74869525Y61008381D01*
X75208191Y62024381D01*
D12*
X9588572Y60852857D02*
X10731429Y60852857D01*
X10160000Y60281429D02*
X10160000Y61424286D01*
X12128572Y60852857D02*
X13271429Y60852857D01*
D11*
X34544000Y64135000D02*
X34671000Y64262000D01*
X34290000Y64135000D02*
X34544000Y64389000D01*
X34036000Y64135000D02*
X34417000Y64516000D01*
X34798000Y64135000D02*
X32385000Y64135000D01*
X35179000Y64008000D02*
X32131000Y64008000D01*
X32766000Y64135000D02*
X33782000Y65151000D01*
X33655000Y65532000D02*
X32131000Y64008000D01*
X32512000Y64135000D02*
X33655000Y65278000D01*
X33655000Y65278000D02*
X33655000Y65405000D01*
X33528000Y64135000D02*
X34163000Y64770000D01*
X33274000Y64135000D02*
X34036000Y64897000D01*
X33020000Y64135000D02*
X33909000Y65024000D01*
D12*
X7048572Y60852857D02*
X8191429Y60852857D01*
X4508572Y60852857D02*
X5651429Y60852857D01*
X5080000Y60281429D02*
X5080000Y61424286D01*
D14*
X71458668Y64612762D02*
X71603811Y64564381D01*
X71845715Y64564381D01*
X71942477Y64612762D01*
X71990858Y64661143D01*
X72039239Y64757905D01*
X72039239Y64854667D01*
X71990858Y64951429D01*
X71942477Y64999810D01*
X71845715Y65048190D01*
X71652192Y65096571D01*
X71555430Y65144952D01*
X71507049Y65193333D01*
X71458668Y65290095D01*
X71458668Y65386857D01*
X71507049Y65483619D01*
X71555430Y65532000D01*
X71652192Y65580381D01*
X71894096Y65580381D01*
X72039239Y65532000D01*
X72329525Y65241714D02*
X72716573Y65241714D01*
X72474668Y65580381D02*
X72474668Y64709524D01*
X72523049Y64612762D01*
X72619811Y64564381D01*
X72716573Y64564381D01*
X73490667Y64564381D02*
X73490667Y65096571D01*
X73442286Y65193333D01*
X73345524Y65241714D01*
X73152001Y65241714D01*
X73055239Y65193333D01*
X73490667Y64612762D02*
X73393905Y64564381D01*
X73152001Y64564381D01*
X73055239Y64612762D01*
X73006858Y64709524D01*
X73006858Y64806286D01*
X73055239Y64903048D01*
X73152001Y64951429D01*
X73393905Y64951429D01*
X73490667Y64999810D01*
X73829334Y65241714D02*
X74216382Y65241714D01*
X73974477Y65580381D02*
X73974477Y64709524D01*
X74022858Y64612762D01*
X74119620Y64564381D01*
X74216382Y64564381D01*
X74990476Y65241714D02*
X74990476Y64564381D01*
X74555048Y65241714D02*
X74555048Y64709524D01*
X74603429Y64612762D01*
X74700191Y64564381D01*
X74845333Y64564381D01*
X74942095Y64612762D01*
X74990476Y64661143D01*
X75425905Y64612762D02*
X75522667Y64564381D01*
X75716191Y64564381D01*
X75812952Y64612762D01*
X75861333Y64709524D01*
X75861333Y64757905D01*
X75812952Y64854667D01*
X75716191Y64903048D01*
X75571048Y64903048D01*
X75474286Y64951429D01*
X75425905Y65048190D01*
X75425905Y65096571D01*
X75474286Y65193333D01*
X75571048Y65241714D01*
X75716191Y65241714D01*
X75812952Y65193333D01*
X73031048Y54404381D02*
X72450477Y54404381D01*
X72740763Y54404381D02*
X72740763Y55420381D01*
X72644001Y55275238D01*
X72547239Y55178476D01*
X72450477Y55130095D01*
X73418096Y55323619D02*
X73466477Y55372000D01*
X73563239Y55420381D01*
X73805143Y55420381D01*
X73901905Y55372000D01*
X73950286Y55323619D01*
X73998667Y55226857D01*
X73998667Y55130095D01*
X73950286Y54984952D01*
X73369715Y54404381D01*
X73998667Y54404381D01*
X74288953Y55420381D02*
X74627620Y54404381D01*
X74966286Y55420381D01*
D11*
X34798000Y64135000D02*
X33655000Y65278000D01*
X33782000Y64135000D02*
X34290000Y64643000D01*
X33655000Y65532000D02*
X35179000Y64008000D01*
D15*
X30090000Y30445000D02*
X30090000Y29245000D01*
X28330000Y29245000D02*
X28330000Y30445000D01*
X19175000Y48585000D02*
X19175000Y49515000D01*
X19175000Y51745000D02*
X19175000Y50815000D01*
X19175000Y51745000D02*
X17015000Y51745000D01*
X19175000Y48585000D02*
X17715000Y48585000D01*
D16*
X34680000Y54910000D02*
X35255000Y54910000D01*
X34680000Y60660000D02*
X35330000Y60660000D01*
X45330000Y60660000D02*
X44680000Y60660000D01*
X45330000Y54910000D02*
X44680000Y54910000D01*
X34680000Y54910000D02*
X34680000Y60660000D01*
X45330000Y54910000D02*
X45330000Y60660000D01*
X35255000Y54910000D02*
X35255000Y53310000D01*
D15*
X60360000Y45965000D02*
X61560000Y45965000D01*
X61560000Y44205000D02*
X60360000Y44205000D01*
X14570000Y48015000D02*
X13370000Y48015000D01*
X13370000Y49775000D02*
X14570000Y49775000D01*
X13370000Y52315000D02*
X14570000Y52315000D01*
X14570000Y50555000D02*
X13370000Y50555000D01*
X14570000Y53095000D02*
X13370000Y53095000D01*
X13370000Y54855000D02*
X14570000Y54855000D01*
D17*
G36*
X5140686Y24385380D02*
X5193153Y24413969D01*
X5275847Y24457253D01*
X5384881Y24513302D01*
X5516368Y24580188D01*
X5666421Y24655981D01*
X5831152Y24738752D01*
X6006674Y24826570D01*
X6189100Y24917507D01*
X6374543Y25009633D01*
X6559116Y25101019D01*
X6738931Y25189734D01*
X6910102Y25273850D01*
X7068741Y25351437D01*
X7210961Y25420565D01*
X7332875Y25479306D01*
X7430596Y25525729D01*
X7500236Y25557905D01*
X7537908Y25573905D01*
X7543540Y25575237D01*
X7549751Y25549238D01*
X7554337Y25492328D01*
X7556448Y25415924D01*
X7556500Y25401557D01*
X7556500Y25240837D01*
X6688673Y24807336D01*
X5820846Y24373836D01*
X6683381Y23939710D01*
X7545916Y23505583D01*
X7552020Y23345882D01*
X7553248Y23267432D01*
X7550903Y23206349D01*
X7545493Y23174139D01*
X7544352Y23172408D01*
X7524009Y23179526D01*
X7469756Y23203780D01*
X7385482Y23243242D01*
X7275074Y23295984D01*
X7142421Y23360077D01*
X6991412Y23433594D01*
X6825934Y23514607D01*
X6649876Y23601187D01*
X6467125Y23691407D01*
X6281570Y23783338D01*
X6097100Y23875053D01*
X5917602Y23964623D01*
X5746965Y24050120D01*
X5589077Y24129616D01*
X5447826Y24201184D01*
X5327100Y24262895D01*
X5230788Y24312821D01*
X5162777Y24349034D01*
X5126957Y24369606D01*
X5122333Y24373416D01*
X5140686Y24385380D01*
X5140686Y24385380D01*
G37*
X5140686Y24385380D02*
X5193153Y24413969D01*
X5275847Y24457253D01*
X5384881Y24513302D01*
X5516368Y24580188D01*
X5666421Y24655981D01*
X5831152Y24738752D01*
X6006674Y24826570D01*
X6189100Y24917507D01*
X6374543Y25009633D01*
X6559116Y25101019D01*
X6738931Y25189734D01*
X6910102Y25273850D01*
X7068741Y25351437D01*
X7210961Y25420565D01*
X7332875Y25479306D01*
X7430596Y25525729D01*
X7500236Y25557905D01*
X7537908Y25573905D01*
X7543540Y25575237D01*
X7549751Y25549238D01*
X7554337Y25492328D01*
X7556448Y25415924D01*
X7556500Y25401557D01*
X7556500Y25240837D01*
X6688673Y24807336D01*
X5820846Y24373836D01*
X6683381Y23939710D01*
X7545916Y23505583D01*
X7552020Y23345882D01*
X7553248Y23267432D01*
X7550903Y23206349D01*
X7545493Y23174139D01*
X7544352Y23172408D01*
X7524009Y23179526D01*
X7469756Y23203780D01*
X7385482Y23243242D01*
X7275074Y23295984D01*
X7142421Y23360077D01*
X6991412Y23433594D01*
X6825934Y23514607D01*
X6649876Y23601187D01*
X6467125Y23691407D01*
X6281570Y23783338D01*
X6097100Y23875053D01*
X5917602Y23964623D01*
X5746965Y24050120D01*
X5589077Y24129616D01*
X5447826Y24201184D01*
X5327100Y24262895D01*
X5230788Y24312821D01*
X5162777Y24349034D01*
X5126957Y24369606D01*
X5122333Y24373416D01*
X5140686Y24385380D01*
G36*
X5140898Y27285783D02*
X5198263Y27492278D01*
X5291303Y27686833D01*
X5417830Y27864525D01*
X5575656Y28020432D01*
X5699551Y28111369D01*
X5886701Y28207841D01*
X6088748Y28267716D01*
X6299232Y28290949D01*
X6511697Y28277496D01*
X6719684Y28227313D01*
X6916733Y28140354D01*
X6951836Y28120013D01*
X7077423Y28044251D01*
X7324079Y28288333D01*
X7544999Y28067413D01*
X7300917Y27820757D01*
X7376679Y27695170D01*
X7469473Y27500844D01*
X7524889Y27289323D01*
X7542072Y27064825D01*
X7533489Y26924000D01*
X7490363Y26720903D01*
X7410517Y26530758D01*
X7298551Y26357312D01*
X7159067Y26204311D01*
X6996663Y26075501D01*
X6815940Y25974627D01*
X6621499Y25905438D01*
X6417939Y25871679D01*
X6303483Y25872825D01*
X6303483Y26194671D01*
X6483425Y26205642D01*
X6654947Y26252527D01*
X6813374Y26333310D01*
X6954036Y26445978D01*
X7072259Y26588513D01*
X7163369Y26758900D01*
X7189324Y26828750D01*
X7204567Y26905609D01*
X7211700Y27014703D01*
X7211216Y27114500D01*
X7205720Y27222185D01*
X7194828Y27303389D01*
X7175408Y27373902D01*
X7145072Y27447875D01*
X7113446Y27513887D01*
X7087531Y27561300D01*
X7072792Y27580147D01*
X7072565Y27580167D01*
X7053206Y27566180D01*
X7011102Y27528503D01*
X6953260Y27473559D01*
X6910802Y27431887D01*
X6761527Y27283607D01*
X6540597Y27507315D01*
X6688715Y27654298D01*
X6751591Y27717982D01*
X6801216Y27770699D01*
X6831086Y27805399D01*
X6836833Y27814833D01*
X6819048Y27829676D01*
X6772464Y27855456D01*
X6708464Y27885994D01*
X6524891Y27947109D01*
X6341649Y27968538D01*
X6163336Y27952712D01*
X5994549Y27902061D01*
X5839886Y27819017D01*
X5703945Y27706011D01*
X5591322Y27565474D01*
X5506616Y27399837D01*
X5456670Y27224048D01*
X5444697Y27048240D01*
X5471081Y26872939D01*
X5532320Y26704967D01*
X5624912Y26551146D01*
X5745353Y26418296D01*
X5890142Y26313239D01*
X5937025Y26288538D01*
X6119792Y26221631D01*
X6303483Y26194671D01*
X6303483Y25872825D01*
X6243426Y25873427D01*
X6024938Y25913806D01*
X5820556Y25990808D01*
X5634428Y26100731D01*
X5470701Y26239873D01*
X5333522Y26404532D01*
X5227038Y26591006D01*
X5155397Y26795594D01*
X5141944Y26856667D01*
X5121396Y27072272D01*
X5140898Y27285783D01*
X5140898Y27285783D01*
G37*
X5140898Y27285783D02*
X5198263Y27492278D01*
X5291303Y27686833D01*
X5417830Y27864525D01*
X5575656Y28020432D01*
X5699551Y28111369D01*
X5886701Y28207841D01*
X6088748Y28267716D01*
X6299232Y28290949D01*
X6511697Y28277496D01*
X6719684Y28227313D01*
X6916733Y28140354D01*
X6951836Y28120013D01*
X7077423Y28044251D01*
X7324079Y28288333D01*
X7544999Y28067413D01*
X7300917Y27820757D01*
X7376679Y27695170D01*
X7469473Y27500844D01*
X7524889Y27289323D01*
X7542072Y27064825D01*
X7533489Y26924000D01*
X7490363Y26720903D01*
X7410517Y26530758D01*
X7298551Y26357312D01*
X7159067Y26204311D01*
X6996663Y26075501D01*
X6815940Y25974627D01*
X6621499Y25905438D01*
X6417939Y25871679D01*
X6303483Y25872825D01*
X6303483Y26194671D01*
X6483425Y26205642D01*
X6654947Y26252527D01*
X6813374Y26333310D01*
X6954036Y26445978D01*
X7072259Y26588513D01*
X7163369Y26758900D01*
X7189324Y26828750D01*
X7204567Y26905609D01*
X7211700Y27014703D01*
X7211216Y27114500D01*
X7205720Y27222185D01*
X7194828Y27303389D01*
X7175408Y27373902D01*
X7145072Y27447875D01*
X7113446Y27513887D01*
X7087531Y27561300D01*
X7072792Y27580147D01*
X7072565Y27580167D01*
X7053206Y27566180D01*
X7011102Y27528503D01*
X6953260Y27473559D01*
X6910802Y27431887D01*
X6761527Y27283607D01*
X6540597Y27507315D01*
X6688715Y27654298D01*
X6751591Y27717982D01*
X6801216Y27770699D01*
X6831086Y27805399D01*
X6836833Y27814833D01*
X6819048Y27829676D01*
X6772464Y27855456D01*
X6708464Y27885994D01*
X6524891Y27947109D01*
X6341649Y27968538D01*
X6163336Y27952712D01*
X5994549Y27902061D01*
X5839886Y27819017D01*
X5703945Y27706011D01*
X5591322Y27565474D01*
X5506616Y27399837D01*
X5456670Y27224048D01*
X5444697Y27048240D01*
X5471081Y26872939D01*
X5532320Y26704967D01*
X5624912Y26551146D01*
X5745353Y26418296D01*
X5890142Y26313239D01*
X5937025Y26288538D01*
X6119792Y26221631D01*
X6303483Y26194671D01*
X6303483Y25872825D01*
X6243426Y25873427D01*
X6024938Y25913806D01*
X5820556Y25990808D01*
X5634428Y26100731D01*
X5470701Y26239873D01*
X5333522Y26404532D01*
X5227038Y26591006D01*
X5155397Y26795594D01*
X5141944Y26856667D01*
X5121396Y27072272D01*
X5140898Y27285783D01*
G36*
X5953125Y28896999D02*
X6172524Y28898822D01*
X6353993Y28900823D01*
X6501930Y28903654D01*
X6620735Y28907969D01*
X6714807Y28914421D01*
X6788548Y28923663D01*
X6846354Y28936348D01*
X6892628Y28953129D01*
X6931767Y28974660D01*
X6968172Y29001593D01*
X7006243Y29034582D01*
X7031126Y29057023D01*
X7130793Y29173463D01*
X7192494Y29308500D01*
X7215841Y29461232D01*
X7216016Y29485167D01*
X7211374Y29569399D01*
X7200784Y29646671D01*
X7189764Y29690146D01*
X7122122Y29817851D01*
X7023701Y29929345D01*
X6920215Y30003750D01*
X6805083Y30067250D01*
X5963708Y30073453D01*
X5122333Y30079657D01*
X5122333Y30397100D01*
X6868583Y30384750D01*
X7011962Y30316834D01*
X7177130Y30216438D01*
X7315286Y30087238D01*
X7423531Y29934690D01*
X7498964Y29764250D01*
X7538688Y29581375D01*
X7539802Y29391519D01*
X7532663Y29337000D01*
X7484005Y29164302D01*
X7399064Y29003586D01*
X7283437Y28860647D01*
X7142722Y28741283D01*
X6982514Y28651289D01*
X6819916Y28598818D01*
X6763306Y28591777D01*
X6666435Y28585893D01*
X6531360Y28581219D01*
X6360140Y28577809D01*
X6154831Y28575718D01*
X5917491Y28575000D01*
X5122333Y28575000D01*
X5122333Y28890238D01*
X5953125Y28896999D01*
X5953125Y28896999D01*
G37*
X5953125Y28896999D02*
X6172524Y28898822D01*
X6353993Y28900823D01*
X6501930Y28903654D01*
X6620735Y28907969D01*
X6714807Y28914421D01*
X6788548Y28923663D01*
X6846354Y28936348D01*
X6892628Y28953129D01*
X6931767Y28974660D01*
X6968172Y29001593D01*
X7006243Y29034582D01*
X7031126Y29057023D01*
X7130793Y29173463D01*
X7192494Y29308500D01*
X7215841Y29461232D01*
X7216016Y29485167D01*
X7211374Y29569399D01*
X7200784Y29646671D01*
X7189764Y29690146D01*
X7122122Y29817851D01*
X7023701Y29929345D01*
X6920215Y30003750D01*
X6805083Y30067250D01*
X5963708Y30073453D01*
X5122333Y30079657D01*
X5122333Y30397100D01*
X6868583Y30384750D01*
X7011962Y30316834D01*
X7177130Y30216438D01*
X7315286Y30087238D01*
X7423531Y29934690D01*
X7498964Y29764250D01*
X7538688Y29581375D01*
X7539802Y29391519D01*
X7532663Y29337000D01*
X7484005Y29164302D01*
X7399064Y29003586D01*
X7283437Y28860647D01*
X7142722Y28741283D01*
X6982514Y28651289D01*
X6819916Y28598818D01*
X6763306Y28591777D01*
X6666435Y28585893D01*
X6531360Y28581219D01*
X6360140Y28577809D01*
X6154831Y28575718D01*
X5917491Y28575000D01*
X5122333Y28575000D01*
X5122333Y28890238D01*
X5953125Y28896999D01*
G36*
X6323542Y32498771D02*
X6534209Y32604036D01*
X6733578Y32703499D01*
X6918447Y32795572D01*
X7085611Y32878666D01*
X7231867Y32951195D01*
X7354012Y33011569D01*
X7448842Y33058201D01*
X7513153Y33089503D01*
X7543741Y33103886D01*
X7545843Y33104667D01*
X7550792Y33085171D01*
X7554518Y33033364D01*
X7556392Y32959260D01*
X7556500Y32935299D01*
X7556500Y32765931D01*
X6699250Y32337462D01*
X6523070Y32249173D01*
X6359088Y32166549D01*
X6211077Y32091525D01*
X6082810Y32026033D01*
X5978062Y31972008D01*
X5900606Y31931383D01*
X5854214Y31906093D01*
X5842000Y31898167D01*
X5860325Y31886782D01*
X5912787Y31858490D01*
X5995611Y31815223D01*
X6105024Y31758917D01*
X6237252Y31691504D01*
X6388523Y31614918D01*
X6555062Y31531093D01*
X6699250Y31458871D01*
X7556500Y31030402D01*
X7556500Y30861034D01*
X7554298Y30769304D01*
X7547205Y30715045D01*
X7534488Y30693597D01*
X7530041Y30692826D01*
X7506946Y30702284D01*
X7449318Y30729172D01*
X7360433Y30771877D01*
X7243568Y30828791D01*
X7102000Y30898303D01*
X6939007Y30978803D01*
X6757865Y31068681D01*
X6561852Y31166326D01*
X6354243Y31270129D01*
X6307740Y31293430D01*
X5111898Y31892875D01*
X6323542Y32498771D01*
X6323542Y32498771D01*
G37*
X6323542Y32498771D02*
X6534209Y32604036D01*
X6733578Y32703499D01*
X6918447Y32795572D01*
X7085611Y32878666D01*
X7231867Y32951195D01*
X7354012Y33011569D01*
X7448842Y33058201D01*
X7513153Y33089503D01*
X7543741Y33103886D01*
X7545843Y33104667D01*
X7550792Y33085171D01*
X7554518Y33033364D01*
X7556392Y32959260D01*
X7556500Y32935299D01*
X7556500Y32765931D01*
X6699250Y32337462D01*
X6523070Y32249173D01*
X6359088Y32166549D01*
X6211077Y32091525D01*
X6082810Y32026033D01*
X5978062Y31972008D01*
X5900606Y31931383D01*
X5854214Y31906093D01*
X5842000Y31898167D01*
X5860325Y31886782D01*
X5912787Y31858490D01*
X5995611Y31815223D01*
X6105024Y31758917D01*
X6237252Y31691504D01*
X6388523Y31614918D01*
X6555062Y31531093D01*
X6699250Y31458871D01*
X7556500Y31030402D01*
X7556500Y30861034D01*
X7554298Y30769304D01*
X7547205Y30715045D01*
X7534488Y30693597D01*
X7530041Y30692826D01*
X7506946Y30702284D01*
X7449318Y30729172D01*
X7360433Y30771877D01*
X7243568Y30828791D01*
X7102000Y30898303D01*
X6939007Y30978803D01*
X6757865Y31068681D01*
X6561852Y31166326D01*
X6354243Y31270129D01*
X6307740Y31293430D01*
X5111898Y31892875D01*
X6323542Y32498771D01*
G36*
X5122707Y34091474D02*
X5124405Y34261047D01*
X5128288Y34398099D01*
X5135220Y34507535D01*
X5146063Y34594259D01*
X5161679Y34663177D01*
X5182931Y34719193D01*
X5210683Y34767213D01*
X5245795Y34812141D01*
X5289131Y34858881D01*
X5294693Y34864608D01*
X5421660Y34967608D01*
X5560882Y35032326D01*
X5706732Y35058747D01*
X5853583Y35046854D01*
X5995808Y34996631D01*
X6127782Y34908062D01*
X6171387Y34867106D01*
X6218957Y34816174D01*
X6256453Y34767788D01*
X6285183Y34716062D01*
X6306454Y34655111D01*
X6321572Y34579052D01*
X6331847Y34481999D01*
X6338583Y34358067D01*
X6343090Y34201371D01*
X6345359Y34083951D01*
X6354333Y33570985D01*
X6950124Y33565367D01*
X7545916Y33559750D01*
X7552047Y33410658D01*
X7553106Y33334717D01*
X7550089Y33276159D01*
X7543647Y33247097D01*
X7543228Y33246617D01*
X7519297Y33243148D01*
X7457929Y33239963D01*
X7364019Y33237160D01*
X7242461Y33234833D01*
X7098151Y33233078D01*
X6935984Y33231993D01*
X6780388Y33231667D01*
X6032500Y33231667D01*
X6032500Y33812708D01*
X6031852Y34015262D01*
X6029521Y34180138D01*
X6024929Y34311975D01*
X6017494Y34415412D01*
X6006636Y34495091D01*
X5991776Y34555652D01*
X5972334Y34601733D01*
X5947729Y34637976D01*
X5926517Y34660559D01*
X5844746Y34711797D01*
X5746552Y34733106D01*
X5646885Y34722978D01*
X5582404Y34695249D01*
X5547391Y34672426D01*
X5519172Y34648672D01*
X5496926Y34619338D01*
X5479833Y34579775D01*
X5467070Y34525336D01*
X5457818Y34451370D01*
X5451256Y34353229D01*
X5446562Y34226265D01*
X5442916Y34065827D01*
X5439833Y33887833D01*
X5429250Y33242250D01*
X5275791Y33236031D01*
X5122333Y33229812D01*
X5122333Y33884475D01*
X5122707Y34091474D01*
X5122707Y34091474D01*
G37*
X5122707Y34091474D02*
X5124405Y34261047D01*
X5128288Y34398099D01*
X5135220Y34507535D01*
X5146063Y34594259D01*
X5161679Y34663177D01*
X5182931Y34719193D01*
X5210683Y34767213D01*
X5245795Y34812141D01*
X5289131Y34858881D01*
X5294693Y34864608D01*
X5421660Y34967608D01*
X5560882Y35032326D01*
X5706732Y35058747D01*
X5853583Y35046854D01*
X5995808Y34996631D01*
X6127782Y34908062D01*
X6171387Y34867106D01*
X6218957Y34816174D01*
X6256453Y34767788D01*
X6285183Y34716062D01*
X6306454Y34655111D01*
X6321572Y34579052D01*
X6331847Y34481999D01*
X6338583Y34358067D01*
X6343090Y34201371D01*
X6345359Y34083951D01*
X6354333Y33570985D01*
X6950124Y33565367D01*
X7545916Y33559750D01*
X7552047Y33410658D01*
X7553106Y33334717D01*
X7550089Y33276159D01*
X7543647Y33247097D01*
X7543228Y33246617D01*
X7519297Y33243148D01*
X7457929Y33239963D01*
X7364019Y33237160D01*
X7242461Y33234833D01*
X7098151Y33233078D01*
X6935984Y33231993D01*
X6780388Y33231667D01*
X6032500Y33231667D01*
X6032500Y33812708D01*
X6031852Y34015262D01*
X6029521Y34180138D01*
X6024929Y34311975D01*
X6017494Y34415412D01*
X6006636Y34495091D01*
X5991776Y34555652D01*
X5972334Y34601733D01*
X5947729Y34637976D01*
X5926517Y34660559D01*
X5844746Y34711797D01*
X5746552Y34733106D01*
X5646885Y34722978D01*
X5582404Y34695249D01*
X5547391Y34672426D01*
X5519172Y34648672D01*
X5496926Y34619338D01*
X5479833Y34579775D01*
X5467070Y34525336D01*
X5457818Y34451370D01*
X5451256Y34353229D01*
X5446562Y34226265D01*
X5442916Y34065827D01*
X5439833Y33887833D01*
X5429250Y33242250D01*
X5275791Y33236031D01*
X5122333Y33229812D01*
X5122333Y33884475D01*
X5122707Y34091474D01*
G36*
X7556500Y35665833D02*
X7556500Y35348333D01*
X5122333Y35348333D01*
X5122333Y35665833D01*
X7556500Y35665833D01*
X7556500Y35665833D01*
G37*
X7556500Y35665833D02*
X7556500Y35348333D01*
X5122333Y35348333D01*
X5122333Y35665833D01*
X7556500Y35665833D01*
G36*
X5286375Y37778135D02*
X5439833Y37784354D01*
X5439833Y37428041D01*
X5443386Y37229592D01*
X5455297Y37066109D01*
X5477443Y36930721D01*
X5511701Y36816560D01*
X5559947Y36716757D01*
X5624059Y36624441D01*
X5675790Y36564479D01*
X5816658Y36437325D01*
X5970754Y36348892D01*
X6141874Y36297662D01*
X6333814Y36282116D01*
X6378649Y36283309D01*
X6484896Y36290423D01*
X6566208Y36303422D01*
X6639934Y36326192D01*
X6714929Y36358618D01*
X6876619Y36457283D01*
X7013093Y36589027D01*
X7121438Y36750945D01*
X7134868Y36777219D01*
X7207250Y36924133D01*
X7228416Y37771917D01*
X7545916Y37771917D01*
X7548787Y37454417D01*
X7548659Y37330303D01*
X7546321Y37209705D01*
X7542148Y37104397D01*
X7536515Y37026153D01*
X7534623Y37009917D01*
X7484948Y36793671D01*
X7398058Y36592429D01*
X7277713Y36410551D01*
X7127673Y36252394D01*
X6951695Y36122319D01*
X6753540Y36024683D01*
X6656916Y35992137D01*
X6527222Y35966651D01*
X6376014Y35955875D01*
X6220936Y35959806D01*
X6079628Y35978438D01*
X6023023Y35992264D01*
X5810846Y36075587D01*
X5619306Y36192907D01*
X5452577Y36340297D01*
X5314834Y36513829D01*
X5210252Y36709575D01*
X5181900Y36783635D01*
X5164972Y36835885D01*
X5152449Y36885559D01*
X5143676Y36940229D01*
X5137998Y37007468D01*
X5134757Y37094847D01*
X5133300Y37209937D01*
X5132969Y37348583D01*
X5132916Y37771917D01*
X5286375Y37778135D01*
X5286375Y37778135D01*
G37*
X5286375Y37778135D02*
X5439833Y37784354D01*
X5439833Y37428041D01*
X5443386Y37229592D01*
X5455297Y37066109D01*
X5477443Y36930721D01*
X5511701Y36816560D01*
X5559947Y36716757D01*
X5624059Y36624441D01*
X5675790Y36564479D01*
X5816658Y36437325D01*
X5970754Y36348892D01*
X6141874Y36297662D01*
X6333814Y36282116D01*
X6378649Y36283309D01*
X6484896Y36290423D01*
X6566208Y36303422D01*
X6639934Y36326192D01*
X6714929Y36358618D01*
X6876619Y36457283D01*
X7013093Y36589027D01*
X7121438Y36750945D01*
X7134868Y36777219D01*
X7207250Y36924133D01*
X7228416Y37771917D01*
X7545916Y37771917D01*
X7548787Y37454417D01*
X7548659Y37330303D01*
X7546321Y37209705D01*
X7542148Y37104397D01*
X7536515Y37026153D01*
X7534623Y37009917D01*
X7484948Y36793671D01*
X7398058Y36592429D01*
X7277713Y36410551D01*
X7127673Y36252394D01*
X6951695Y36122319D01*
X6753540Y36024683D01*
X6656916Y35992137D01*
X6527222Y35966651D01*
X6376014Y35955875D01*
X6220936Y35959806D01*
X6079628Y35978438D01*
X6023023Y35992264D01*
X5810846Y36075587D01*
X5619306Y36192907D01*
X5452577Y36340297D01*
X5314834Y36513829D01*
X5210252Y36709575D01*
X5181900Y36783635D01*
X5164972Y36835885D01*
X5152449Y36885559D01*
X5143676Y36940229D01*
X5137998Y37007468D01*
X5134757Y37094847D01*
X5133300Y37209937D01*
X5132969Y37348583D01*
X5132916Y37771917D01*
X5286375Y37778135D01*
D15*
X47840000Y54745000D02*
X47840000Y55745000D01*
X46140000Y55745000D02*
X46140000Y54745000D01*
X31885000Y60745000D02*
X32885000Y60745000D01*
X32885000Y62445000D02*
X31885000Y62445000D01*
X36965000Y32805000D02*
X37965000Y32805000D01*
X37965000Y34505000D02*
X36965000Y34505000D01*
X43045000Y64985000D02*
X42045000Y64985000D01*
X42045000Y63285000D02*
X43045000Y63285000D01*
X27520000Y33790000D02*
X27520000Y34790000D01*
X25820000Y34790000D02*
X25820000Y33790000D01*
X49110000Y33790000D02*
X49110000Y34790000D01*
X47410000Y34790000D02*
X47410000Y33790000D01*
X25820000Y30345000D02*
X25820000Y29345000D01*
X27520000Y29345000D02*
X27520000Y30345000D01*
X47410000Y30345000D02*
X47410000Y29345000D01*
X49110000Y29345000D02*
X49110000Y30345000D01*
X63000000Y32805000D02*
X64000000Y32805000D01*
X64000000Y34505000D02*
X63000000Y34505000D01*
X3595000Y51935000D02*
X3595000Y50935000D01*
X5295000Y50935000D02*
X5295000Y51935000D01*
X53555000Y33790000D02*
X53555000Y34790000D01*
X51855000Y34790000D02*
X51855000Y33790000D01*
X75145000Y33790000D02*
X75145000Y34790000D01*
X73445000Y34790000D02*
X73445000Y33790000D01*
X51855000Y30345000D02*
X51855000Y29345000D01*
X53555000Y29345000D02*
X53555000Y30345000D01*
X73445000Y30345000D02*
X73445000Y29345000D01*
X75145000Y29345000D02*
X75145000Y30345000D01*
X35345000Y23360000D02*
X35345000Y22360000D01*
X37045000Y22360000D02*
X37045000Y23360000D01*
X45505000Y23360000D02*
X45505000Y22360000D01*
X47205000Y22360000D02*
X47205000Y23360000D01*
X61380000Y23360000D02*
X61380000Y22360000D01*
X63080000Y22360000D02*
X63080000Y23360000D01*
X71540000Y23360000D02*
X71540000Y22360000D01*
X73240000Y22360000D02*
X73240000Y23360000D01*
X6135000Y51935000D02*
X6135000Y50935000D01*
X7835000Y50935000D02*
X7835000Y51935000D01*
X19900000Y23630000D02*
X19900000Y24630000D01*
X18200000Y24630000D02*
X18200000Y23630000D01*
X75460000Y58990000D02*
X75460000Y60390000D01*
X75460000Y60390000D02*
X72660000Y60390000D01*
X75460000Y58990000D02*
X72660000Y58990000D01*
X75460000Y56450000D02*
X75460000Y57850000D01*
X75460000Y57850000D02*
X72660000Y57850000D01*
X75460000Y56450000D02*
X72660000Y56450000D01*
D16*
X50365000Y3685000D02*
X29645000Y3685000D01*
X29645000Y3685000D02*
X29645000Y10285000D01*
X29645000Y10285000D02*
X50365000Y10285000D01*
X50365000Y10285000D02*
X50365000Y3685000D01*
X14170000Y68705000D02*
X14170000Y62105000D01*
X14170000Y62105000D02*
X3610000Y62105000D01*
X3610000Y62105000D02*
X3610000Y68705000D01*
X3610000Y68705000D02*
X14170000Y68705000D01*
D15*
X6660000Y56640000D02*
X5730000Y56640000D01*
X3500000Y56640000D02*
X4430000Y56640000D01*
X3500000Y56640000D02*
X3500000Y54480000D01*
X6660000Y56640000D02*
X6660000Y55180000D01*
X11740000Y56640000D02*
X10810000Y56640000D01*
X8580000Y56640000D02*
X9510000Y56640000D01*
X8580000Y56640000D02*
X8580000Y54480000D01*
X11740000Y56640000D02*
X11740000Y55180000D01*
X33345000Y41150000D02*
X34275000Y41150000D01*
X36505000Y41150000D02*
X35575000Y41150000D01*
X36505000Y41150000D02*
X36505000Y43310000D01*
X33345000Y41150000D02*
X33345000Y42610000D01*
X59380000Y41150000D02*
X60310000Y41150000D01*
X62540000Y41150000D02*
X61610000Y41150000D01*
X62540000Y41150000D02*
X62540000Y43310000D01*
X59380000Y41150000D02*
X59380000Y42610000D01*
X38425000Y41150000D02*
X39355000Y41150000D01*
X41585000Y41150000D02*
X40655000Y41150000D01*
X41585000Y41150000D02*
X41585000Y43310000D01*
X38425000Y41150000D02*
X38425000Y42610000D01*
X64460000Y41150000D02*
X65390000Y41150000D01*
X67620000Y41150000D02*
X66690000Y41150000D01*
X67620000Y41150000D02*
X67620000Y43310000D01*
X64460000Y41150000D02*
X64460000Y42610000D01*
X19175000Y42235000D02*
X19175000Y43165000D01*
X19175000Y45395000D02*
X19175000Y44465000D01*
X19175000Y45395000D02*
X17015000Y45395000D01*
X19175000Y42235000D02*
X17715000Y42235000D01*
X19175000Y35885000D02*
X19175000Y36815000D01*
X19175000Y39045000D02*
X19175000Y38115000D01*
X19175000Y39045000D02*
X17015000Y39045000D01*
X19175000Y35885000D02*
X17715000Y35885000D01*
X32630000Y30445000D02*
X32630000Y29245000D01*
X30870000Y29245000D02*
X30870000Y30445000D01*
X44060000Y30445000D02*
X44060000Y29245000D01*
X42300000Y29245000D02*
X42300000Y30445000D01*
X46600000Y30445000D02*
X46600000Y29245000D01*
X44840000Y29245000D02*
X44840000Y30445000D01*
X30870000Y33690000D02*
X30870000Y34890000D01*
X32630000Y34890000D02*
X32630000Y33690000D01*
X30090000Y34890000D02*
X30090000Y33690000D01*
X28330000Y33690000D02*
X28330000Y34890000D01*
X42300000Y33690000D02*
X42300000Y34890000D01*
X44060000Y34890000D02*
X44060000Y33690000D01*
X46600000Y34890000D02*
X46600000Y33690000D01*
X44840000Y33690000D02*
X44840000Y34890000D01*
X58665000Y30445000D02*
X58665000Y29245000D01*
X56905000Y29245000D02*
X56905000Y30445000D01*
X56125000Y30445000D02*
X56125000Y29245000D01*
X54365000Y29245000D02*
X54365000Y30445000D01*
X70095000Y30445000D02*
X70095000Y29245000D01*
X68335000Y29245000D02*
X68335000Y30445000D01*
X72635000Y30445000D02*
X72635000Y29245000D01*
X70875000Y29245000D02*
X70875000Y30445000D01*
X56905000Y33690000D02*
X56905000Y34890000D01*
X58665000Y34890000D02*
X58665000Y33690000D01*
X56125000Y34890000D02*
X56125000Y33690000D01*
X54365000Y33690000D02*
X54365000Y34890000D01*
X68335000Y33690000D02*
X68335000Y34890000D01*
X70095000Y34890000D02*
X70095000Y33690000D01*
X72635000Y34890000D02*
X72635000Y33690000D01*
X70875000Y33690000D02*
X70875000Y34890000D01*
X64170000Y65650000D02*
X65370000Y65650000D01*
X65370000Y63890000D02*
X64170000Y63890000D01*
X64170000Y63110000D02*
X65370000Y63110000D01*
X65370000Y61350000D02*
X64170000Y61350000D01*
X64170000Y68190000D02*
X65370000Y68190000D01*
X65370000Y66430000D02*
X64170000Y66430000D01*
X65370000Y58810000D02*
X64170000Y58810000D01*
X64170000Y60570000D02*
X65370000Y60570000D01*
X65370000Y56270000D02*
X64170000Y56270000D01*
X64170000Y58030000D02*
X65370000Y58030000D01*
X34325000Y45965000D02*
X35525000Y45965000D01*
X35525000Y44205000D02*
X34325000Y44205000D01*
X34325000Y39615000D02*
X35525000Y39615000D01*
X35525000Y37855000D02*
X34325000Y37855000D01*
X60360000Y39615000D02*
X61560000Y39615000D01*
X61560000Y37855000D02*
X60360000Y37855000D01*
X39405000Y45965000D02*
X40605000Y45965000D01*
X40605000Y44205000D02*
X39405000Y44205000D01*
X65440000Y45965000D02*
X66640000Y45965000D01*
X66640000Y44205000D02*
X65440000Y44205000D01*
X14570000Y44205000D02*
X13370000Y44205000D01*
X13370000Y45965000D02*
X14570000Y45965000D01*
X14570000Y37855000D02*
X13370000Y37855000D01*
X13370000Y39615000D02*
X14570000Y39615000D01*
X40605000Y37855000D02*
X39405000Y37855000D01*
X39405000Y39615000D02*
X40605000Y39615000D01*
X66640000Y37855000D02*
X65440000Y37855000D01*
X65440000Y39615000D02*
X66640000Y39615000D01*
X14570000Y41665000D02*
X13370000Y41665000D01*
X13370000Y43425000D02*
X14570000Y43425000D01*
X14570000Y35315000D02*
X13370000Y35315000D01*
X13370000Y37075000D02*
X14570000Y37075000D01*
D16*
X35140000Y32105000D02*
X35140000Y32005000D01*
X39790000Y32105000D02*
X39790000Y31905000D01*
X39790000Y28855000D02*
X39790000Y29055000D01*
X35140000Y28855000D02*
X35140000Y29055000D01*
X35140000Y32105000D02*
X39790000Y32105000D01*
X35140000Y28855000D02*
X39790000Y28855000D01*
X35140000Y32005000D02*
X33790000Y32005000D01*
X61175000Y32105000D02*
X61175000Y32005000D01*
X65825000Y32105000D02*
X65825000Y31905000D01*
X65825000Y28855000D02*
X65825000Y29055000D01*
X61175000Y28855000D02*
X61175000Y29055000D01*
X61175000Y32105000D02*
X65825000Y32105000D01*
X61175000Y28855000D02*
X65825000Y28855000D01*
X61175000Y32005000D02*
X59825000Y32005000D01*
X30760000Y21235000D02*
X30885000Y21235000D01*
X30760000Y24485000D02*
X30985000Y24485000D01*
X34010000Y24485000D02*
X33785000Y24485000D01*
X34010000Y21235000D02*
X33785000Y21235000D01*
X30760000Y21235000D02*
X30760000Y24485000D01*
X34010000Y21235000D02*
X34010000Y24485000D01*
X30885000Y21235000D02*
X30885000Y20160000D01*
X56795000Y21235000D02*
X56920000Y21235000D01*
X56795000Y24485000D02*
X57020000Y24485000D01*
X60045000Y24485000D02*
X59820000Y24485000D01*
X60045000Y21235000D02*
X59820000Y21235000D01*
X56795000Y21235000D02*
X56795000Y24485000D01*
X60045000Y21235000D02*
X60045000Y24485000D01*
X56920000Y21235000D02*
X56920000Y20160000D01*
X40920000Y21235000D02*
X41045000Y21235000D01*
X40920000Y24485000D02*
X41145000Y24485000D01*
X44170000Y24485000D02*
X43945000Y24485000D01*
X44170000Y21235000D02*
X43945000Y21235000D01*
X40920000Y21235000D02*
X40920000Y24485000D01*
X44170000Y21235000D02*
X44170000Y24485000D01*
X41045000Y21235000D02*
X41045000Y20160000D01*
X66955000Y21235000D02*
X67080000Y21235000D01*
X66955000Y24485000D02*
X67180000Y24485000D01*
X70205000Y24485000D02*
X69980000Y24485000D01*
X70205000Y21235000D02*
X69980000Y21235000D01*
X66955000Y21235000D02*
X66955000Y24485000D01*
X70205000Y21235000D02*
X70205000Y24485000D01*
X67080000Y21235000D02*
X67080000Y20160000D01*
X70910000Y67310000D02*
X70910000Y69310000D01*
X70910000Y69310000D02*
X72910000Y69310000D01*
X72060000Y68110000D02*
X72660000Y68710000D01*
X72060000Y67710000D02*
X73060000Y68710000D01*
X72060000Y67310000D02*
X73460000Y68710000D01*
X74860000Y67310000D02*
G75*
G03X74860000Y67310000I-1200000J0D01*
G01*
X75260000Y65910000D02*
X75260000Y68710000D01*
X75260000Y68710000D02*
X72060000Y68710000D01*
X72060000Y68710000D02*
X72060000Y65910000D01*
X72060000Y65910000D02*
X75260000Y65910000D01*
X12700000Y14745005D02*
X12700000Y13475005D01*
X12065000Y14110005D02*
X13335000Y14110005D01*
X6150000Y14110005D02*
X6150000Y3810005D01*
X6150000Y3810005D02*
X19250000Y3810005D01*
X19250000Y3810005D02*
X19250000Y14110005D01*
X6150000Y14110005D02*
X6150000Y20810005D01*
X6150000Y20810005D02*
X19250000Y20810005D01*
X19250000Y20810005D02*
X19250000Y14110005D01*
X19720000Y32555000D02*
X19670000Y32555000D01*
X19720000Y28405000D02*
X19575000Y28405000D01*
X14570000Y28405000D02*
X14715000Y28405000D01*
X14570000Y32555000D02*
X14715000Y32555000D01*
X19720000Y32555000D02*
X19720000Y28405000D01*
X14570000Y32555000D02*
X14570000Y28405000D01*
X19670000Y32555000D02*
X19670000Y33955000D01*
D15*
X3575000Y42540000D02*
X4835000Y42540000D01*
X10395000Y42540000D02*
X9135000Y42540000D01*
X3575000Y46300000D02*
X3575000Y42540000D01*
X10395000Y48550000D02*
X10395000Y42540000D01*
D16*
X34925000Y68580000D02*
X47625000Y68580000D01*
X47625000Y68580000D02*
X47625000Y66040000D01*
X47625000Y66040000D02*
X34925000Y66040000D01*
X32105000Y68860000D02*
X33655000Y68860000D01*
X34925000Y68580000D02*
X34925000Y66040000D01*
X33655000Y65760000D02*
X32105000Y65760000D01*
X32105000Y65760000D02*
X32105000Y68860000D01*
X29043334Y27106619D02*
X28710000Y27582810D01*
X28471905Y27106619D02*
X28471905Y28106619D01*
X28852858Y28106619D01*
X28948096Y28059000D01*
X28995715Y28011381D01*
X29043334Y27916143D01*
X29043334Y27773286D01*
X28995715Y27678048D01*
X28948096Y27630429D01*
X28852858Y27582810D01*
X28471905Y27582810D01*
X29424286Y28011381D02*
X29471905Y28059000D01*
X29567143Y28106619D01*
X29805239Y28106619D01*
X29900477Y28059000D01*
X29948096Y28011381D01*
X29995715Y27916143D01*
X29995715Y27820905D01*
X29948096Y27678048D01*
X29376667Y27106619D01*
X29995715Y27106619D01*
X18319762Y52117381D02*
X18224524Y52165000D01*
X18129286Y52260238D01*
X17986429Y52403095D01*
X17891190Y52450714D01*
X17795952Y52450714D01*
X17843571Y52212619D02*
X17748333Y52260238D01*
X17653095Y52355476D01*
X17605476Y52545952D01*
X17605476Y52879286D01*
X17653095Y53069762D01*
X17748333Y53165000D01*
X17843571Y53212619D01*
X18034048Y53212619D01*
X18129286Y53165000D01*
X18224524Y53069762D01*
X18272143Y52879286D01*
X18272143Y52545952D01*
X18224524Y52355476D01*
X18129286Y52260238D01*
X18034048Y52212619D01*
X17843571Y52212619D01*
X18605476Y53212619D02*
X19272143Y53212619D01*
X18843571Y52212619D01*
X34710810Y51744619D02*
X34710810Y52744619D01*
X35758429Y51839857D02*
X35710810Y51792238D01*
X35567953Y51744619D01*
X35472715Y51744619D01*
X35329857Y51792238D01*
X35234619Y51887476D01*
X35187000Y51982714D01*
X35139381Y52173190D01*
X35139381Y52316048D01*
X35187000Y52506524D01*
X35234619Y52601762D01*
X35329857Y52697000D01*
X35472715Y52744619D01*
X35567953Y52744619D01*
X35710810Y52697000D01*
X35758429Y52649381D01*
X36710810Y51744619D02*
X36139381Y51744619D01*
X36425095Y51744619D02*
X36425095Y52744619D01*
X36329857Y52601762D01*
X36234619Y52506524D01*
X36139381Y52458905D01*
X60317143Y46283619D02*
X59983809Y46759810D01*
X59745714Y46283619D02*
X59745714Y47283619D01*
X60126667Y47283619D01*
X60221905Y47236000D01*
X60269524Y47188381D01*
X60317143Y47093143D01*
X60317143Y46950286D01*
X60269524Y46855048D01*
X60221905Y46807429D01*
X60126667Y46759810D01*
X59745714Y46759810D01*
X60698095Y47188381D02*
X60745714Y47236000D01*
X60840952Y47283619D01*
X61079048Y47283619D01*
X61174286Y47236000D01*
X61221905Y47188381D01*
X61269524Y47093143D01*
X61269524Y46997905D01*
X61221905Y46855048D01*
X60650476Y46283619D01*
X61269524Y46283619D01*
X61602857Y47283619D02*
X62221905Y47283619D01*
X61888571Y46902667D01*
X62031429Y46902667D01*
X62126667Y46855048D01*
X62174286Y46807429D01*
X62221905Y46712190D01*
X62221905Y46474095D01*
X62174286Y46378857D01*
X62126667Y46331238D01*
X62031429Y46283619D01*
X61745714Y46283619D01*
X61650476Y46331238D01*
X61602857Y46378857D01*
X12136381Y51300143D02*
X11660190Y50966809D01*
X12136381Y50728714D02*
X11136381Y50728714D01*
X11136381Y51109667D01*
X11184000Y51204905D01*
X11231619Y51252524D01*
X11326857Y51300143D01*
X11469714Y51300143D01*
X11564952Y51252524D01*
X11612571Y51204905D01*
X11660190Y51109667D01*
X11660190Y50728714D01*
X11231619Y51681095D02*
X11184000Y51728714D01*
X11136381Y51823952D01*
X11136381Y52062048D01*
X11184000Y52157286D01*
X11231619Y52204905D01*
X11326857Y52252524D01*
X11422095Y52252524D01*
X11564952Y52204905D01*
X12136381Y51633476D01*
X12136381Y52252524D01*
X11564952Y52823952D02*
X11517333Y52728714D01*
X11469714Y52681095D01*
X11374476Y52633476D01*
X11326857Y52633476D01*
X11231619Y52681095D01*
X11184000Y52728714D01*
X11136381Y52823952D01*
X11136381Y53014429D01*
X11184000Y53109667D01*
X11231619Y53157286D01*
X11326857Y53204905D01*
X11374476Y53204905D01*
X11469714Y53157286D01*
X11517333Y53109667D01*
X11564952Y53014429D01*
X11564952Y52823952D01*
X11612571Y52728714D01*
X11660190Y52681095D01*
X11755429Y52633476D01*
X11945905Y52633476D01*
X12041143Y52681095D01*
X12088762Y52728714D01*
X12136381Y52823952D01*
X12136381Y53014429D01*
X12088762Y53109667D01*
X12041143Y53157286D01*
X11945905Y53204905D01*
X11755429Y53204905D01*
X11660190Y53157286D01*
X11612571Y53109667D01*
X11564952Y53014429D01*
X12136381Y47871143D02*
X11660190Y47537809D01*
X12136381Y47299714D02*
X11136381Y47299714D01*
X11136381Y47680667D01*
X11184000Y47775905D01*
X11231619Y47823524D01*
X11326857Y47871143D01*
X11469714Y47871143D01*
X11564952Y47823524D01*
X11612571Y47775905D01*
X11660190Y47680667D01*
X11660190Y47299714D01*
X11231619Y48252095D02*
X11184000Y48299714D01*
X11136381Y48394952D01*
X11136381Y48633048D01*
X11184000Y48728286D01*
X11231619Y48775905D01*
X11326857Y48823524D01*
X11422095Y48823524D01*
X11564952Y48775905D01*
X12136381Y48204476D01*
X12136381Y48823524D01*
X11136381Y49728286D02*
X11136381Y49252095D01*
X11612571Y49204476D01*
X11564952Y49252095D01*
X11517333Y49347333D01*
X11517333Y49585429D01*
X11564952Y49680667D01*
X11612571Y49728286D01*
X11707810Y49775905D01*
X11945905Y49775905D01*
X12041143Y49728286D01*
X12088762Y49680667D01*
X12136381Y49585429D01*
X12136381Y49347333D01*
X12088762Y49252095D01*
X12041143Y49204476D01*
X13327143Y55172619D02*
X12993809Y55648810D01*
X12755714Y55172619D02*
X12755714Y56172619D01*
X13136667Y56172619D01*
X13231905Y56125000D01*
X13279524Y56077381D01*
X13327143Y55982143D01*
X13327143Y55839286D01*
X13279524Y55744048D01*
X13231905Y55696429D01*
X13136667Y55648810D01*
X12755714Y55648810D01*
X13708095Y56077381D02*
X13755714Y56125000D01*
X13850952Y56172619D01*
X14089048Y56172619D01*
X14184286Y56125000D01*
X14231905Y56077381D01*
X14279524Y55982143D01*
X14279524Y55886905D01*
X14231905Y55744048D01*
X13660476Y55172619D01*
X14279524Y55172619D01*
X15136667Y55839286D02*
X15136667Y55172619D01*
X14898571Y56220238D02*
X14660476Y55505952D01*
X15279524Y55505952D01*
X46823334Y57300857D02*
X46775715Y57253238D01*
X46632858Y57205619D01*
X46537620Y57205619D01*
X46394762Y57253238D01*
X46299524Y57348476D01*
X46251905Y57443714D01*
X46204286Y57634190D01*
X46204286Y57777048D01*
X46251905Y57967524D01*
X46299524Y58062762D01*
X46394762Y58158000D01*
X46537620Y58205619D01*
X46632858Y58205619D01*
X46775715Y58158000D01*
X46823334Y58110381D01*
X47775715Y57205619D02*
X47204286Y57205619D01*
X47490000Y57205619D02*
X47490000Y58205619D01*
X47394762Y58062762D01*
X47299524Y57967524D01*
X47204286Y57919905D01*
X32218334Y62761857D02*
X32170715Y62714238D01*
X32027858Y62666619D01*
X31932620Y62666619D01*
X31789762Y62714238D01*
X31694524Y62809476D01*
X31646905Y62904714D01*
X31599286Y63095190D01*
X31599286Y63238048D01*
X31646905Y63428524D01*
X31694524Y63523762D01*
X31789762Y63619000D01*
X31932620Y63666619D01*
X32027858Y63666619D01*
X32170715Y63619000D01*
X32218334Y63571381D01*
X32599286Y63571381D02*
X32646905Y63619000D01*
X32742143Y63666619D01*
X32980239Y63666619D01*
X33075477Y63619000D01*
X33123096Y63571381D01*
X33170715Y63476143D01*
X33170715Y63380905D01*
X33123096Y63238048D01*
X32551667Y62666619D01*
X33170715Y62666619D01*
X37298334Y34821857D02*
X37250715Y34774238D01*
X37107858Y34726619D01*
X37012620Y34726619D01*
X36869762Y34774238D01*
X36774524Y34869476D01*
X36726905Y34964714D01*
X36679286Y35155190D01*
X36679286Y35298048D01*
X36726905Y35488524D01*
X36774524Y35583762D01*
X36869762Y35679000D01*
X37012620Y35726619D01*
X37107858Y35726619D01*
X37250715Y35679000D01*
X37298334Y35631381D01*
X37631667Y35726619D02*
X38250715Y35726619D01*
X37917381Y35345667D01*
X38060239Y35345667D01*
X38155477Y35298048D01*
X38203096Y35250429D01*
X38250715Y35155190D01*
X38250715Y34917095D01*
X38203096Y34821857D01*
X38155477Y34774238D01*
X38060239Y34726619D01*
X37774524Y34726619D01*
X37679286Y34774238D01*
X37631667Y34821857D01*
X39584334Y63777857D02*
X39536715Y63730238D01*
X39393858Y63682619D01*
X39298620Y63682619D01*
X39155762Y63730238D01*
X39060524Y63825476D01*
X39012905Y63920714D01*
X38965286Y64111190D01*
X38965286Y64254048D01*
X39012905Y64444524D01*
X39060524Y64539762D01*
X39155762Y64635000D01*
X39298620Y64682619D01*
X39393858Y64682619D01*
X39536715Y64635000D01*
X39584334Y64587381D01*
X40441477Y64349286D02*
X40441477Y63682619D01*
X40203381Y64730238D02*
X39965286Y64015952D01*
X40584334Y64015952D01*
X26503334Y36345857D02*
X26455715Y36298238D01*
X26312858Y36250619D01*
X26217620Y36250619D01*
X26074762Y36298238D01*
X25979524Y36393476D01*
X25931905Y36488714D01*
X25884286Y36679190D01*
X25884286Y36822048D01*
X25931905Y37012524D01*
X25979524Y37107762D01*
X26074762Y37203000D01*
X26217620Y37250619D01*
X26312858Y37250619D01*
X26455715Y37203000D01*
X26503334Y37155381D01*
X27408096Y37250619D02*
X26931905Y37250619D01*
X26884286Y36774429D01*
X26931905Y36822048D01*
X27027143Y36869667D01*
X27265239Y36869667D01*
X27360477Y36822048D01*
X27408096Y36774429D01*
X27455715Y36679190D01*
X27455715Y36441095D01*
X27408096Y36345857D01*
X27360477Y36298238D01*
X27265239Y36250619D01*
X27027143Y36250619D01*
X26931905Y36298238D01*
X26884286Y36345857D01*
X48093334Y36345857D02*
X48045715Y36298238D01*
X47902858Y36250619D01*
X47807620Y36250619D01*
X47664762Y36298238D01*
X47569524Y36393476D01*
X47521905Y36488714D01*
X47474286Y36679190D01*
X47474286Y36822048D01*
X47521905Y37012524D01*
X47569524Y37107762D01*
X47664762Y37203000D01*
X47807620Y37250619D01*
X47902858Y37250619D01*
X48045715Y37203000D01*
X48093334Y37155381D01*
X48950477Y37250619D02*
X48760000Y37250619D01*
X48664762Y37203000D01*
X48617143Y37155381D01*
X48521905Y37012524D01*
X48474286Y36822048D01*
X48474286Y36441095D01*
X48521905Y36345857D01*
X48569524Y36298238D01*
X48664762Y36250619D01*
X48855239Y36250619D01*
X48950477Y36298238D01*
X48998096Y36345857D01*
X49045715Y36441095D01*
X49045715Y36679190D01*
X48998096Y36774429D01*
X48950477Y36822048D01*
X48855239Y36869667D01*
X48664762Y36869667D01*
X48569524Y36822048D01*
X48521905Y36774429D01*
X48474286Y36679190D01*
X26503334Y26947857D02*
X26455715Y26900238D01*
X26312858Y26852619D01*
X26217620Y26852619D01*
X26074762Y26900238D01*
X25979524Y26995476D01*
X25931905Y27090714D01*
X25884286Y27281190D01*
X25884286Y27424048D01*
X25931905Y27614524D01*
X25979524Y27709762D01*
X26074762Y27805000D01*
X26217620Y27852619D01*
X26312858Y27852619D01*
X26455715Y27805000D01*
X26503334Y27757381D01*
X26836667Y27852619D02*
X27503334Y27852619D01*
X27074762Y26852619D01*
X48093334Y26947857D02*
X48045715Y26900238D01*
X47902858Y26852619D01*
X47807620Y26852619D01*
X47664762Y26900238D01*
X47569524Y26995476D01*
X47521905Y27090714D01*
X47474286Y27281190D01*
X47474286Y27424048D01*
X47521905Y27614524D01*
X47569524Y27709762D01*
X47664762Y27805000D01*
X47807620Y27852619D01*
X47902858Y27852619D01*
X48045715Y27805000D01*
X48093334Y27757381D01*
X48664762Y27424048D02*
X48569524Y27471667D01*
X48521905Y27519286D01*
X48474286Y27614524D01*
X48474286Y27662143D01*
X48521905Y27757381D01*
X48569524Y27805000D01*
X48664762Y27852619D01*
X48855239Y27852619D01*
X48950477Y27805000D01*
X48998096Y27757381D01*
X49045715Y27662143D01*
X49045715Y27614524D01*
X48998096Y27519286D01*
X48950477Y27471667D01*
X48855239Y27424048D01*
X48664762Y27424048D01*
X48569524Y27376429D01*
X48521905Y27328810D01*
X48474286Y27233571D01*
X48474286Y27043095D01*
X48521905Y26947857D01*
X48569524Y26900238D01*
X48664762Y26852619D01*
X48855239Y26852619D01*
X48950477Y26900238D01*
X48998096Y26947857D01*
X49045715Y27043095D01*
X49045715Y27233571D01*
X48998096Y27328810D01*
X48950477Y27376429D01*
X48855239Y27424048D01*
X63333334Y34821857D02*
X63285715Y34774238D01*
X63142858Y34726619D01*
X63047620Y34726619D01*
X62904762Y34774238D01*
X62809524Y34869476D01*
X62761905Y34964714D01*
X62714286Y35155190D01*
X62714286Y35298048D01*
X62761905Y35488524D01*
X62809524Y35583762D01*
X62904762Y35679000D01*
X63047620Y35726619D01*
X63142858Y35726619D01*
X63285715Y35679000D01*
X63333334Y35631381D01*
X63809524Y34726619D02*
X64000000Y34726619D01*
X64095239Y34774238D01*
X64142858Y34821857D01*
X64238096Y34964714D01*
X64285715Y35155190D01*
X64285715Y35536143D01*
X64238096Y35631381D01*
X64190477Y35679000D01*
X64095239Y35726619D01*
X63904762Y35726619D01*
X63809524Y35679000D01*
X63761905Y35631381D01*
X63714286Y35536143D01*
X63714286Y35298048D01*
X63761905Y35202810D01*
X63809524Y35155190D01*
X63904762Y35107571D01*
X64095239Y35107571D01*
X64190477Y35155190D01*
X64238096Y35202810D01*
X64285715Y35298048D01*
X3302143Y50792143D02*
X3349762Y50744524D01*
X3397381Y50601667D01*
X3397381Y50506429D01*
X3349762Y50363571D01*
X3254524Y50268333D01*
X3159286Y50220714D01*
X2968810Y50173095D01*
X2825952Y50173095D01*
X2635476Y50220714D01*
X2540238Y50268333D01*
X2445000Y50363571D01*
X2397381Y50506429D01*
X2397381Y50601667D01*
X2445000Y50744524D01*
X2492619Y50792143D01*
X3397381Y51744524D02*
X3397381Y51173095D01*
X3397381Y51458809D02*
X2397381Y51458809D01*
X2540238Y51363571D01*
X2635476Y51268333D01*
X2683095Y51173095D01*
X2397381Y52363571D02*
X2397381Y52458810D01*
X2445000Y52554048D01*
X2492619Y52601667D01*
X2587857Y52649286D01*
X2778333Y52696905D01*
X3016429Y52696905D01*
X3206905Y52649286D01*
X3302143Y52601667D01*
X3349762Y52554048D01*
X3397381Y52458810D01*
X3397381Y52363571D01*
X3349762Y52268333D01*
X3302143Y52220714D01*
X3206905Y52173095D01*
X3016429Y52125476D01*
X2778333Y52125476D01*
X2587857Y52173095D01*
X2492619Y52220714D01*
X2445000Y52268333D01*
X2397381Y52363571D01*
X51681143Y36345857D02*
X51633524Y36298238D01*
X51490667Y36250619D01*
X51395429Y36250619D01*
X51252571Y36298238D01*
X51157333Y36393476D01*
X51109714Y36488714D01*
X51062095Y36679190D01*
X51062095Y36822048D01*
X51109714Y37012524D01*
X51157333Y37107762D01*
X51252571Y37203000D01*
X51395429Y37250619D01*
X51490667Y37250619D01*
X51633524Y37203000D01*
X51681143Y37155381D01*
X52633524Y36250619D02*
X52062095Y36250619D01*
X52347809Y36250619D02*
X52347809Y37250619D01*
X52252571Y37107762D01*
X52157333Y37012524D01*
X52062095Y36964905D01*
X53585905Y36250619D02*
X53014476Y36250619D01*
X53300190Y36250619D02*
X53300190Y37250619D01*
X53204952Y37107762D01*
X53109714Y37012524D01*
X53014476Y36964905D01*
X74033143Y36345857D02*
X73985524Y36298238D01*
X73842667Y36250619D01*
X73747429Y36250619D01*
X73604571Y36298238D01*
X73509333Y36393476D01*
X73461714Y36488714D01*
X73414095Y36679190D01*
X73414095Y36822048D01*
X73461714Y37012524D01*
X73509333Y37107762D01*
X73604571Y37203000D01*
X73747429Y37250619D01*
X73842667Y37250619D01*
X73985524Y37203000D01*
X74033143Y37155381D01*
X74985524Y36250619D02*
X74414095Y36250619D01*
X74699809Y36250619D02*
X74699809Y37250619D01*
X74604571Y37107762D01*
X74509333Y37012524D01*
X74414095Y36964905D01*
X75366476Y37155381D02*
X75414095Y37203000D01*
X75509333Y37250619D01*
X75747429Y37250619D01*
X75842667Y37203000D01*
X75890286Y37155381D01*
X75937905Y37060143D01*
X75937905Y36964905D01*
X75890286Y36822048D01*
X75318857Y36250619D01*
X75937905Y36250619D01*
X51554143Y26947857D02*
X51506524Y26900238D01*
X51363667Y26852619D01*
X51268429Y26852619D01*
X51125571Y26900238D01*
X51030333Y26995476D01*
X50982714Y27090714D01*
X50935095Y27281190D01*
X50935095Y27424048D01*
X50982714Y27614524D01*
X51030333Y27709762D01*
X51125571Y27805000D01*
X51268429Y27852619D01*
X51363667Y27852619D01*
X51506524Y27805000D01*
X51554143Y27757381D01*
X52506524Y26852619D02*
X51935095Y26852619D01*
X52220809Y26852619D02*
X52220809Y27852619D01*
X52125571Y27709762D01*
X52030333Y27614524D01*
X51935095Y27566905D01*
X52839857Y27852619D02*
X53458905Y27852619D01*
X53125571Y27471667D01*
X53268429Y27471667D01*
X53363667Y27424048D01*
X53411286Y27376429D01*
X53458905Y27281190D01*
X53458905Y27043095D01*
X53411286Y26947857D01*
X53363667Y26900238D01*
X53268429Y26852619D01*
X52982714Y26852619D01*
X52887476Y26900238D01*
X52839857Y26947857D01*
X74033143Y26947857D02*
X73985524Y26900238D01*
X73842667Y26852619D01*
X73747429Y26852619D01*
X73604571Y26900238D01*
X73509333Y26995476D01*
X73461714Y27090714D01*
X73414095Y27281190D01*
X73414095Y27424048D01*
X73461714Y27614524D01*
X73509333Y27709762D01*
X73604571Y27805000D01*
X73747429Y27852619D01*
X73842667Y27852619D01*
X73985524Y27805000D01*
X74033143Y27757381D01*
X74985524Y26852619D02*
X74414095Y26852619D01*
X74699809Y26852619D02*
X74699809Y27852619D01*
X74604571Y27709762D01*
X74509333Y27614524D01*
X74414095Y27566905D01*
X75842667Y27519286D02*
X75842667Y26852619D01*
X75604571Y27900238D02*
X75366476Y27185952D01*
X75985524Y27185952D01*
X35552143Y24915857D02*
X35504524Y24868238D01*
X35361667Y24820619D01*
X35266429Y24820619D01*
X35123571Y24868238D01*
X35028333Y24963476D01*
X34980714Y25058714D01*
X34933095Y25249190D01*
X34933095Y25392048D01*
X34980714Y25582524D01*
X35028333Y25677762D01*
X35123571Y25773000D01*
X35266429Y25820619D01*
X35361667Y25820619D01*
X35504524Y25773000D01*
X35552143Y25725381D01*
X36504524Y24820619D02*
X35933095Y24820619D01*
X36218809Y24820619D02*
X36218809Y25820619D01*
X36123571Y25677762D01*
X36028333Y25582524D01*
X35933095Y25534905D01*
X37409286Y25820619D02*
X36933095Y25820619D01*
X36885476Y25344429D01*
X36933095Y25392048D01*
X37028333Y25439667D01*
X37266429Y25439667D01*
X37361667Y25392048D01*
X37409286Y25344429D01*
X37456905Y25249190D01*
X37456905Y25011095D01*
X37409286Y24915857D01*
X37361667Y24868238D01*
X37266429Y24820619D01*
X37028333Y24820619D01*
X36933095Y24868238D01*
X36885476Y24915857D01*
X45585143Y24915857D02*
X45537524Y24868238D01*
X45394667Y24820619D01*
X45299429Y24820619D01*
X45156571Y24868238D01*
X45061333Y24963476D01*
X45013714Y25058714D01*
X44966095Y25249190D01*
X44966095Y25392048D01*
X45013714Y25582524D01*
X45061333Y25677762D01*
X45156571Y25773000D01*
X45299429Y25820619D01*
X45394667Y25820619D01*
X45537524Y25773000D01*
X45585143Y25725381D01*
X46537524Y24820619D02*
X45966095Y24820619D01*
X46251809Y24820619D02*
X46251809Y25820619D01*
X46156571Y25677762D01*
X46061333Y25582524D01*
X45966095Y25534905D01*
X47394667Y25820619D02*
X47204190Y25820619D01*
X47108952Y25773000D01*
X47061333Y25725381D01*
X46966095Y25582524D01*
X46918476Y25392048D01*
X46918476Y25011095D01*
X46966095Y24915857D01*
X47013714Y24868238D01*
X47108952Y24820619D01*
X47299429Y24820619D01*
X47394667Y24868238D01*
X47442286Y24915857D01*
X47489905Y25011095D01*
X47489905Y25249190D01*
X47442286Y25344429D01*
X47394667Y25392048D01*
X47299429Y25439667D01*
X47108952Y25439667D01*
X47013714Y25392048D01*
X46966095Y25344429D01*
X46918476Y25249190D01*
X61587143Y24915857D02*
X61539524Y24868238D01*
X61396667Y24820619D01*
X61301429Y24820619D01*
X61158571Y24868238D01*
X61063333Y24963476D01*
X61015714Y25058714D01*
X60968095Y25249190D01*
X60968095Y25392048D01*
X61015714Y25582524D01*
X61063333Y25677762D01*
X61158571Y25773000D01*
X61301429Y25820619D01*
X61396667Y25820619D01*
X61539524Y25773000D01*
X61587143Y25725381D01*
X62539524Y24820619D02*
X61968095Y24820619D01*
X62253809Y24820619D02*
X62253809Y25820619D01*
X62158571Y25677762D01*
X62063333Y25582524D01*
X61968095Y25534905D01*
X62872857Y25820619D02*
X63539524Y25820619D01*
X63110952Y24820619D01*
X71747143Y24915857D02*
X71699524Y24868238D01*
X71556667Y24820619D01*
X71461429Y24820619D01*
X71318571Y24868238D01*
X71223333Y24963476D01*
X71175714Y25058714D01*
X71128095Y25249190D01*
X71128095Y25392048D01*
X71175714Y25582524D01*
X71223333Y25677762D01*
X71318571Y25773000D01*
X71461429Y25820619D01*
X71556667Y25820619D01*
X71699524Y25773000D01*
X71747143Y25725381D01*
X72699524Y24820619D02*
X72128095Y24820619D01*
X72413809Y24820619D02*
X72413809Y25820619D01*
X72318571Y25677762D01*
X72223333Y25582524D01*
X72128095Y25534905D01*
X73270952Y25392048D02*
X73175714Y25439667D01*
X73128095Y25487286D01*
X73080476Y25582524D01*
X73080476Y25630143D01*
X73128095Y25725381D01*
X73175714Y25773000D01*
X73270952Y25820619D01*
X73461429Y25820619D01*
X73556667Y25773000D01*
X73604286Y25725381D01*
X73651905Y25630143D01*
X73651905Y25582524D01*
X73604286Y25487286D01*
X73556667Y25439667D01*
X73461429Y25392048D01*
X73270952Y25392048D01*
X73175714Y25344429D01*
X73128095Y25296810D01*
X73080476Y25201571D01*
X73080476Y25011095D01*
X73128095Y24915857D01*
X73175714Y24868238D01*
X73270952Y24820619D01*
X73461429Y24820619D01*
X73556667Y24868238D01*
X73604286Y24915857D01*
X73651905Y25011095D01*
X73651905Y25201571D01*
X73604286Y25296810D01*
X73556667Y25344429D01*
X73461429Y25392048D01*
X8993143Y50792143D02*
X9040762Y50744524D01*
X9088381Y50601667D01*
X9088381Y50506429D01*
X9040762Y50363571D01*
X8945524Y50268333D01*
X8850286Y50220714D01*
X8659810Y50173095D01*
X8516952Y50173095D01*
X8326476Y50220714D01*
X8231238Y50268333D01*
X8136000Y50363571D01*
X8088381Y50506429D01*
X8088381Y50601667D01*
X8136000Y50744524D01*
X8183619Y50792143D01*
X9088381Y51744524D02*
X9088381Y51173095D01*
X9088381Y51458809D02*
X8088381Y51458809D01*
X8231238Y51363571D01*
X8326476Y51268333D01*
X8374095Y51173095D01*
X9088381Y52220714D02*
X9088381Y52411190D01*
X9040762Y52506429D01*
X8993143Y52554048D01*
X8850286Y52649286D01*
X8659810Y52696905D01*
X8278857Y52696905D01*
X8183619Y52649286D01*
X8136000Y52601667D01*
X8088381Y52506429D01*
X8088381Y52315952D01*
X8136000Y52220714D01*
X8183619Y52173095D01*
X8278857Y52125476D01*
X8516952Y52125476D01*
X8612190Y52173095D01*
X8659810Y52220714D01*
X8707429Y52315952D01*
X8707429Y52506429D01*
X8659810Y52601667D01*
X8612190Y52649286D01*
X8516952Y52696905D01*
X20820143Y23772857D02*
X20772524Y23725238D01*
X20629667Y23677619D01*
X20534429Y23677619D01*
X20391571Y23725238D01*
X20296333Y23820476D01*
X20248714Y23915714D01*
X20201095Y24106190D01*
X20201095Y24249048D01*
X20248714Y24439524D01*
X20296333Y24534762D01*
X20391571Y24630000D01*
X20534429Y24677619D01*
X20629667Y24677619D01*
X20772524Y24630000D01*
X20820143Y24582381D01*
X21201095Y24582381D02*
X21248714Y24630000D01*
X21343952Y24677619D01*
X21582048Y24677619D01*
X21677286Y24630000D01*
X21724905Y24582381D01*
X21772524Y24487143D01*
X21772524Y24391905D01*
X21724905Y24249048D01*
X21153476Y23677619D01*
X21772524Y23677619D01*
X22391571Y24677619D02*
X22486810Y24677619D01*
X22582048Y24630000D01*
X22629667Y24582381D01*
X22677286Y24487143D01*
X22724905Y24296667D01*
X22724905Y24058571D01*
X22677286Y23868095D01*
X22629667Y23772857D01*
X22582048Y23725238D01*
X22486810Y23677619D01*
X22391571Y23677619D01*
X22296333Y23725238D01*
X22248714Y23772857D01*
X22201095Y23868095D01*
X22153476Y24058571D01*
X22153476Y24296667D01*
X22201095Y24487143D01*
X22248714Y24582381D01*
X22296333Y24630000D01*
X22391571Y24677619D01*
X69746905Y59237619D02*
X69746905Y60237619D01*
X69985000Y60237619D01*
X70127858Y60190000D01*
X70223096Y60094762D01*
X70270715Y59999524D01*
X70318334Y59809048D01*
X70318334Y59666190D01*
X70270715Y59475714D01*
X70223096Y59380476D01*
X70127858Y59285238D01*
X69985000Y59237619D01*
X69746905Y59237619D01*
X70699286Y60142381D02*
X70746905Y60190000D01*
X70842143Y60237619D01*
X71080239Y60237619D01*
X71175477Y60190000D01*
X71223096Y60142381D01*
X71270715Y60047143D01*
X71270715Y59951905D01*
X71223096Y59809048D01*
X70651667Y59237619D01*
X71270715Y59237619D01*
X69746905Y56697619D02*
X69746905Y57697619D01*
X69985000Y57697619D01*
X70127858Y57650000D01*
X70223096Y57554762D01*
X70270715Y57459524D01*
X70318334Y57269048D01*
X70318334Y57126190D01*
X70270715Y56935714D01*
X70223096Y56840476D01*
X70127858Y56745238D01*
X69985000Y56697619D01*
X69746905Y56697619D01*
X70651667Y57697619D02*
X71270715Y57697619D01*
X70937381Y57316667D01*
X71080239Y57316667D01*
X71175477Y57269048D01*
X71223096Y57221429D01*
X71270715Y57126190D01*
X71270715Y56888095D01*
X71223096Y56792857D01*
X71175477Y56745238D01*
X71080239Y56697619D01*
X70794524Y56697619D01*
X70699286Y56745238D01*
X70651667Y56792857D01*
X6635762Y56856381D02*
X6540524Y56904000D01*
X6445286Y56999238D01*
X6302429Y57142095D01*
X6207190Y57189714D01*
X6111952Y57189714D01*
X6159571Y56951619D02*
X6064333Y56999238D01*
X5969095Y57094476D01*
X5921476Y57284952D01*
X5921476Y57618286D01*
X5969095Y57808762D01*
X6064333Y57904000D01*
X6159571Y57951619D01*
X6350048Y57951619D01*
X6445286Y57904000D01*
X6540524Y57808762D01*
X6588143Y57618286D01*
X6588143Y57284952D01*
X6540524Y57094476D01*
X6445286Y56999238D01*
X6350048Y56951619D01*
X6159571Y56951619D01*
X7540524Y56951619D02*
X6969095Y56951619D01*
X7254809Y56951619D02*
X7254809Y57951619D01*
X7159571Y57808762D01*
X7064333Y57713524D01*
X6969095Y57665905D01*
X11842762Y56856381D02*
X11747524Y56904000D01*
X11652286Y56999238D01*
X11509429Y57142095D01*
X11414190Y57189714D01*
X11318952Y57189714D01*
X11366571Y56951619D02*
X11271333Y56999238D01*
X11176095Y57094476D01*
X11128476Y57284952D01*
X11128476Y57618286D01*
X11176095Y57808762D01*
X11271333Y57904000D01*
X11366571Y57951619D01*
X11557048Y57951619D01*
X11652286Y57904000D01*
X11747524Y57808762D01*
X11795143Y57618286D01*
X11795143Y57284952D01*
X11747524Y57094476D01*
X11652286Y56999238D01*
X11557048Y56951619D01*
X11366571Y56951619D01*
X12176095Y57856381D02*
X12223714Y57904000D01*
X12318952Y57951619D01*
X12557048Y57951619D01*
X12652286Y57904000D01*
X12699905Y57856381D01*
X12747524Y57761143D01*
X12747524Y57665905D01*
X12699905Y57523048D01*
X12128476Y56951619D01*
X12747524Y56951619D01*
X32035762Y41362381D02*
X31940524Y41410000D01*
X31845286Y41505238D01*
X31702429Y41648095D01*
X31607190Y41695714D01*
X31511952Y41695714D01*
X31559571Y41457619D02*
X31464333Y41505238D01*
X31369095Y41600476D01*
X31321476Y41790952D01*
X31321476Y42124286D01*
X31369095Y42314762D01*
X31464333Y42410000D01*
X31559571Y42457619D01*
X31750048Y42457619D01*
X31845286Y42410000D01*
X31940524Y42314762D01*
X31988143Y42124286D01*
X31988143Y41790952D01*
X31940524Y41600476D01*
X31845286Y41505238D01*
X31750048Y41457619D01*
X31559571Y41457619D01*
X32321476Y42457619D02*
X32940524Y42457619D01*
X32607190Y42076667D01*
X32750048Y42076667D01*
X32845286Y42029048D01*
X32892905Y41981429D01*
X32940524Y41886190D01*
X32940524Y41648095D01*
X32892905Y41552857D01*
X32845286Y41505238D01*
X32750048Y41457619D01*
X32464333Y41457619D01*
X32369095Y41505238D01*
X32321476Y41552857D01*
X58070762Y41362381D02*
X57975524Y41410000D01*
X57880286Y41505238D01*
X57737429Y41648095D01*
X57642190Y41695714D01*
X57546952Y41695714D01*
X57594571Y41457619D02*
X57499333Y41505238D01*
X57404095Y41600476D01*
X57356476Y41790952D01*
X57356476Y42124286D01*
X57404095Y42314762D01*
X57499333Y42410000D01*
X57594571Y42457619D01*
X57785048Y42457619D01*
X57880286Y42410000D01*
X57975524Y42314762D01*
X58023143Y42124286D01*
X58023143Y41790952D01*
X57975524Y41600476D01*
X57880286Y41505238D01*
X57785048Y41457619D01*
X57594571Y41457619D01*
X58927905Y42457619D02*
X58451714Y42457619D01*
X58404095Y41981429D01*
X58451714Y42029048D01*
X58546952Y42076667D01*
X58785048Y42076667D01*
X58880286Y42029048D01*
X58927905Y41981429D01*
X58975524Y41886190D01*
X58975524Y41648095D01*
X58927905Y41552857D01*
X58880286Y41505238D01*
X58785048Y41457619D01*
X58546952Y41457619D01*
X58451714Y41505238D01*
X58404095Y41552857D01*
X42703762Y41362381D02*
X42608524Y41410000D01*
X42513286Y41505238D01*
X42370429Y41648095D01*
X42275190Y41695714D01*
X42179952Y41695714D01*
X42227571Y41457619D02*
X42132333Y41505238D01*
X42037095Y41600476D01*
X41989476Y41790952D01*
X41989476Y42124286D01*
X42037095Y42314762D01*
X42132333Y42410000D01*
X42227571Y42457619D01*
X42418048Y42457619D01*
X42513286Y42410000D01*
X42608524Y42314762D01*
X42656143Y42124286D01*
X42656143Y41790952D01*
X42608524Y41600476D01*
X42513286Y41505238D01*
X42418048Y41457619D01*
X42227571Y41457619D01*
X43513286Y42124286D02*
X43513286Y41457619D01*
X43275190Y42505238D02*
X43037095Y41790952D01*
X43656143Y41790952D01*
X68738762Y41362381D02*
X68643524Y41410000D01*
X68548286Y41505238D01*
X68405429Y41648095D01*
X68310190Y41695714D01*
X68214952Y41695714D01*
X68262571Y41457619D02*
X68167333Y41505238D01*
X68072095Y41600476D01*
X68024476Y41790952D01*
X68024476Y42124286D01*
X68072095Y42314762D01*
X68167333Y42410000D01*
X68262571Y42457619D01*
X68453048Y42457619D01*
X68548286Y42410000D01*
X68643524Y42314762D01*
X68691143Y42124286D01*
X68691143Y41790952D01*
X68643524Y41600476D01*
X68548286Y41505238D01*
X68453048Y41457619D01*
X68262571Y41457619D01*
X69548286Y42457619D02*
X69357809Y42457619D01*
X69262571Y42410000D01*
X69214952Y42362381D01*
X69119714Y42219524D01*
X69072095Y42029048D01*
X69072095Y41648095D01*
X69119714Y41552857D01*
X69167333Y41505238D01*
X69262571Y41457619D01*
X69453048Y41457619D01*
X69548286Y41505238D01*
X69595905Y41552857D01*
X69643524Y41648095D01*
X69643524Y41886190D01*
X69595905Y41981429D01*
X69548286Y42029048D01*
X69453048Y42076667D01*
X69262571Y42076667D01*
X69167333Y42029048D01*
X69119714Y41981429D01*
X69072095Y41886190D01*
X18319762Y45767381D02*
X18224524Y45815000D01*
X18129286Y45910238D01*
X17986429Y46053095D01*
X17891190Y46100714D01*
X17795952Y46100714D01*
X17843571Y45862619D02*
X17748333Y45910238D01*
X17653095Y46005476D01*
X17605476Y46195952D01*
X17605476Y46529286D01*
X17653095Y46719762D01*
X17748333Y46815000D01*
X17843571Y46862619D01*
X18034048Y46862619D01*
X18129286Y46815000D01*
X18224524Y46719762D01*
X18272143Y46529286D01*
X18272143Y46195952D01*
X18224524Y46005476D01*
X18129286Y45910238D01*
X18034048Y45862619D01*
X17843571Y45862619D01*
X18843571Y46434048D02*
X18748333Y46481667D01*
X18700714Y46529286D01*
X18653095Y46624524D01*
X18653095Y46672143D01*
X18700714Y46767381D01*
X18748333Y46815000D01*
X18843571Y46862619D01*
X19034048Y46862619D01*
X19129286Y46815000D01*
X19176905Y46767381D01*
X19224524Y46672143D01*
X19224524Y46624524D01*
X19176905Y46529286D01*
X19129286Y46481667D01*
X19034048Y46434048D01*
X18843571Y46434048D01*
X18748333Y46386429D01*
X18700714Y46338810D01*
X18653095Y46243571D01*
X18653095Y46053095D01*
X18700714Y45957857D01*
X18748333Y45910238D01*
X18843571Y45862619D01*
X19034048Y45862619D01*
X19129286Y45910238D01*
X19176905Y45957857D01*
X19224524Y46053095D01*
X19224524Y46243571D01*
X19176905Y46338810D01*
X19129286Y46386429D01*
X19034048Y46434048D01*
X18319762Y39417381D02*
X18224524Y39465000D01*
X18129286Y39560238D01*
X17986429Y39703095D01*
X17891190Y39750714D01*
X17795952Y39750714D01*
X17843571Y39512619D02*
X17748333Y39560238D01*
X17653095Y39655476D01*
X17605476Y39845952D01*
X17605476Y40179286D01*
X17653095Y40369762D01*
X17748333Y40465000D01*
X17843571Y40512619D01*
X18034048Y40512619D01*
X18129286Y40465000D01*
X18224524Y40369762D01*
X18272143Y40179286D01*
X18272143Y39845952D01*
X18224524Y39655476D01*
X18129286Y39560238D01*
X18034048Y39512619D01*
X17843571Y39512619D01*
X18748333Y39512619D02*
X18938809Y39512619D01*
X19034048Y39560238D01*
X19081667Y39607857D01*
X19176905Y39750714D01*
X19224524Y39941190D01*
X19224524Y40322143D01*
X19176905Y40417381D01*
X19129286Y40465000D01*
X19034048Y40512619D01*
X18843571Y40512619D01*
X18748333Y40465000D01*
X18700714Y40417381D01*
X18653095Y40322143D01*
X18653095Y40084048D01*
X18700714Y39988810D01*
X18748333Y39941190D01*
X18843571Y39893571D01*
X19034048Y39893571D01*
X19129286Y39941190D01*
X19176905Y39988810D01*
X19224524Y40084048D01*
X31583334Y27106619D02*
X31250000Y27582810D01*
X31011905Y27106619D02*
X31011905Y28106619D01*
X31392858Y28106619D01*
X31488096Y28059000D01*
X31535715Y28011381D01*
X31583334Y27916143D01*
X31583334Y27773286D01*
X31535715Y27678048D01*
X31488096Y27630429D01*
X31392858Y27582810D01*
X31011905Y27582810D01*
X32535715Y27106619D02*
X31964286Y27106619D01*
X32250000Y27106619D02*
X32250000Y28106619D01*
X32154762Y27963762D01*
X32059524Y27868524D01*
X31964286Y27820905D01*
X43013334Y27106619D02*
X42680000Y27582810D01*
X42441905Y27106619D02*
X42441905Y28106619D01*
X42822858Y28106619D01*
X42918096Y28059000D01*
X42965715Y28011381D01*
X43013334Y27916143D01*
X43013334Y27773286D01*
X42965715Y27678048D01*
X42918096Y27630429D01*
X42822858Y27582810D01*
X42441905Y27582810D01*
X43346667Y28106619D02*
X43965715Y28106619D01*
X43632381Y27725667D01*
X43775239Y27725667D01*
X43870477Y27678048D01*
X43918096Y27630429D01*
X43965715Y27535190D01*
X43965715Y27297095D01*
X43918096Y27201857D01*
X43870477Y27154238D01*
X43775239Y27106619D01*
X43489524Y27106619D01*
X43394286Y27154238D01*
X43346667Y27201857D01*
X45553334Y27106619D02*
X45220000Y27582810D01*
X44981905Y27106619D02*
X44981905Y28106619D01*
X45362858Y28106619D01*
X45458096Y28059000D01*
X45505715Y28011381D01*
X45553334Y27916143D01*
X45553334Y27773286D01*
X45505715Y27678048D01*
X45458096Y27630429D01*
X45362858Y27582810D01*
X44981905Y27582810D01*
X46410477Y27773286D02*
X46410477Y27106619D01*
X46172381Y28154238D02*
X45934286Y27439952D01*
X46553334Y27439952D01*
X31583334Y35996619D02*
X31250000Y36472810D01*
X31011905Y35996619D02*
X31011905Y36996619D01*
X31392858Y36996619D01*
X31488096Y36949000D01*
X31535715Y36901381D01*
X31583334Y36806143D01*
X31583334Y36663286D01*
X31535715Y36568048D01*
X31488096Y36520429D01*
X31392858Y36472810D01*
X31011905Y36472810D01*
X32488096Y36996619D02*
X32011905Y36996619D01*
X31964286Y36520429D01*
X32011905Y36568048D01*
X32107143Y36615667D01*
X32345239Y36615667D01*
X32440477Y36568048D01*
X32488096Y36520429D01*
X32535715Y36425190D01*
X32535715Y36187095D01*
X32488096Y36091857D01*
X32440477Y36044238D01*
X32345239Y35996619D01*
X32107143Y35996619D01*
X32011905Y36044238D01*
X31964286Y36091857D01*
X29043334Y35996619D02*
X28710000Y36472810D01*
X28471905Y35996619D02*
X28471905Y36996619D01*
X28852858Y36996619D01*
X28948096Y36949000D01*
X28995715Y36901381D01*
X29043334Y36806143D01*
X29043334Y36663286D01*
X28995715Y36568048D01*
X28948096Y36520429D01*
X28852858Y36472810D01*
X28471905Y36472810D01*
X29900477Y36996619D02*
X29710000Y36996619D01*
X29614762Y36949000D01*
X29567143Y36901381D01*
X29471905Y36758524D01*
X29424286Y36568048D01*
X29424286Y36187095D01*
X29471905Y36091857D01*
X29519524Y36044238D01*
X29614762Y35996619D01*
X29805239Y35996619D01*
X29900477Y36044238D01*
X29948096Y36091857D01*
X29995715Y36187095D01*
X29995715Y36425190D01*
X29948096Y36520429D01*
X29900477Y36568048D01*
X29805239Y36615667D01*
X29614762Y36615667D01*
X29519524Y36568048D01*
X29471905Y36520429D01*
X29424286Y36425190D01*
X43013334Y35996619D02*
X42680000Y36472810D01*
X42441905Y35996619D02*
X42441905Y36996619D01*
X42822858Y36996619D01*
X42918096Y36949000D01*
X42965715Y36901381D01*
X43013334Y36806143D01*
X43013334Y36663286D01*
X42965715Y36568048D01*
X42918096Y36520429D01*
X42822858Y36472810D01*
X42441905Y36472810D01*
X43346667Y36996619D02*
X44013334Y36996619D01*
X43584762Y35996619D01*
X45553334Y35996619D02*
X45220000Y36472810D01*
X44981905Y35996619D02*
X44981905Y36996619D01*
X45362858Y36996619D01*
X45458096Y36949000D01*
X45505715Y36901381D01*
X45553334Y36806143D01*
X45553334Y36663286D01*
X45505715Y36568048D01*
X45458096Y36520429D01*
X45362858Y36472810D01*
X44981905Y36472810D01*
X46124762Y36568048D02*
X46029524Y36615667D01*
X45981905Y36663286D01*
X45934286Y36758524D01*
X45934286Y36806143D01*
X45981905Y36901381D01*
X46029524Y36949000D01*
X46124762Y36996619D01*
X46315239Y36996619D01*
X46410477Y36949000D01*
X46458096Y36901381D01*
X46505715Y36806143D01*
X46505715Y36758524D01*
X46458096Y36663286D01*
X46410477Y36615667D01*
X46315239Y36568048D01*
X46124762Y36568048D01*
X46029524Y36520429D01*
X45981905Y36472810D01*
X45934286Y36377571D01*
X45934286Y36187095D01*
X45981905Y36091857D01*
X46029524Y36044238D01*
X46124762Y35996619D01*
X46315239Y35996619D01*
X46410477Y36044238D01*
X46458096Y36091857D01*
X46505715Y36187095D01*
X46505715Y36377571D01*
X46458096Y36472810D01*
X46410477Y36520429D01*
X46315239Y36568048D01*
X57618334Y27106619D02*
X57285000Y27582810D01*
X57046905Y27106619D02*
X57046905Y28106619D01*
X57427858Y28106619D01*
X57523096Y28059000D01*
X57570715Y28011381D01*
X57618334Y27916143D01*
X57618334Y27773286D01*
X57570715Y27678048D01*
X57523096Y27630429D01*
X57427858Y27582810D01*
X57046905Y27582810D01*
X58094524Y27106619D02*
X58285000Y27106619D01*
X58380239Y27154238D01*
X58427858Y27201857D01*
X58523096Y27344714D01*
X58570715Y27535190D01*
X58570715Y27916143D01*
X58523096Y28011381D01*
X58475477Y28059000D01*
X58380239Y28106619D01*
X58189762Y28106619D01*
X58094524Y28059000D01*
X58046905Y28011381D01*
X57999286Y27916143D01*
X57999286Y27678048D01*
X58046905Y27582810D01*
X58094524Y27535190D01*
X58189762Y27487571D01*
X58380239Y27487571D01*
X58475477Y27535190D01*
X58523096Y27582810D01*
X58570715Y27678048D01*
X54602143Y27106619D02*
X54268809Y27582810D01*
X54030714Y27106619D02*
X54030714Y28106619D01*
X54411667Y28106619D01*
X54506905Y28059000D01*
X54554524Y28011381D01*
X54602143Y27916143D01*
X54602143Y27773286D01*
X54554524Y27678048D01*
X54506905Y27630429D01*
X54411667Y27582810D01*
X54030714Y27582810D01*
X55554524Y27106619D02*
X54983095Y27106619D01*
X55268809Y27106619D02*
X55268809Y28106619D01*
X55173571Y27963762D01*
X55078333Y27868524D01*
X54983095Y27820905D01*
X56173571Y28106619D02*
X56268810Y28106619D01*
X56364048Y28059000D01*
X56411667Y28011381D01*
X56459286Y27916143D01*
X56506905Y27725667D01*
X56506905Y27487571D01*
X56459286Y27297095D01*
X56411667Y27201857D01*
X56364048Y27154238D01*
X56268810Y27106619D01*
X56173571Y27106619D01*
X56078333Y27154238D01*
X56030714Y27201857D01*
X55983095Y27297095D01*
X55935476Y27487571D01*
X55935476Y27725667D01*
X55983095Y27916143D01*
X56030714Y28011381D01*
X56078333Y28059000D01*
X56173571Y28106619D01*
X68318143Y27106619D02*
X67984809Y27582810D01*
X67746714Y27106619D02*
X67746714Y28106619D01*
X68127667Y28106619D01*
X68222905Y28059000D01*
X68270524Y28011381D01*
X68318143Y27916143D01*
X68318143Y27773286D01*
X68270524Y27678048D01*
X68222905Y27630429D01*
X68127667Y27582810D01*
X67746714Y27582810D01*
X69270524Y27106619D02*
X68699095Y27106619D01*
X68984809Y27106619D02*
X68984809Y28106619D01*
X68889571Y27963762D01*
X68794333Y27868524D01*
X68699095Y27820905D01*
X70222905Y27106619D02*
X69651476Y27106619D01*
X69937190Y27106619D02*
X69937190Y28106619D01*
X69841952Y27963762D01*
X69746714Y27868524D01*
X69651476Y27820905D01*
X71112143Y27106619D02*
X70778809Y27582810D01*
X70540714Y27106619D02*
X70540714Y28106619D01*
X70921667Y28106619D01*
X71016905Y28059000D01*
X71064524Y28011381D01*
X71112143Y27916143D01*
X71112143Y27773286D01*
X71064524Y27678048D01*
X71016905Y27630429D01*
X70921667Y27582810D01*
X70540714Y27582810D01*
X72064524Y27106619D02*
X71493095Y27106619D01*
X71778809Y27106619D02*
X71778809Y28106619D01*
X71683571Y27963762D01*
X71588333Y27868524D01*
X71493095Y27820905D01*
X72445476Y28011381D02*
X72493095Y28059000D01*
X72588333Y28106619D01*
X72826429Y28106619D01*
X72921667Y28059000D01*
X72969286Y28011381D01*
X73016905Y27916143D01*
X73016905Y27820905D01*
X72969286Y27678048D01*
X72397857Y27106619D01*
X73016905Y27106619D01*
X57650143Y35996619D02*
X57316809Y36472810D01*
X57078714Y35996619D02*
X57078714Y36996619D01*
X57459667Y36996619D01*
X57554905Y36949000D01*
X57602524Y36901381D01*
X57650143Y36806143D01*
X57650143Y36663286D01*
X57602524Y36568048D01*
X57554905Y36520429D01*
X57459667Y36472810D01*
X57078714Y36472810D01*
X58602524Y35996619D02*
X58031095Y35996619D01*
X58316809Y35996619D02*
X58316809Y36996619D01*
X58221571Y36853762D01*
X58126333Y36758524D01*
X58031095Y36710905D01*
X58935857Y36996619D02*
X59554905Y36996619D01*
X59221571Y36615667D01*
X59364429Y36615667D01*
X59459667Y36568048D01*
X59507286Y36520429D01*
X59554905Y36425190D01*
X59554905Y36187095D01*
X59507286Y36091857D01*
X59459667Y36044238D01*
X59364429Y35996619D01*
X59078714Y35996619D01*
X58983476Y36044238D01*
X58935857Y36091857D01*
X54602143Y35996619D02*
X54268809Y36472810D01*
X54030714Y35996619D02*
X54030714Y36996619D01*
X54411667Y36996619D01*
X54506905Y36949000D01*
X54554524Y36901381D01*
X54602143Y36806143D01*
X54602143Y36663286D01*
X54554524Y36568048D01*
X54506905Y36520429D01*
X54411667Y36472810D01*
X54030714Y36472810D01*
X55554524Y35996619D02*
X54983095Y35996619D01*
X55268809Y35996619D02*
X55268809Y36996619D01*
X55173571Y36853762D01*
X55078333Y36758524D01*
X54983095Y36710905D01*
X56411667Y36663286D02*
X56411667Y35996619D01*
X56173571Y37044238D02*
X55935476Y36329952D01*
X56554524Y36329952D01*
X68064143Y35996619D02*
X67730809Y36472810D01*
X67492714Y35996619D02*
X67492714Y36996619D01*
X67873667Y36996619D01*
X67968905Y36949000D01*
X68016524Y36901381D01*
X68064143Y36806143D01*
X68064143Y36663286D01*
X68016524Y36568048D01*
X67968905Y36520429D01*
X67873667Y36472810D01*
X67492714Y36472810D01*
X69016524Y35996619D02*
X68445095Y35996619D01*
X68730809Y35996619D02*
X68730809Y36996619D01*
X68635571Y36853762D01*
X68540333Y36758524D01*
X68445095Y36710905D01*
X69921286Y36996619D02*
X69445095Y36996619D01*
X69397476Y36520429D01*
X69445095Y36568048D01*
X69540333Y36615667D01*
X69778429Y36615667D01*
X69873667Y36568048D01*
X69921286Y36520429D01*
X69968905Y36425190D01*
X69968905Y36187095D01*
X69921286Y36091857D01*
X69873667Y36044238D01*
X69778429Y35996619D01*
X69540333Y35996619D01*
X69445095Y36044238D01*
X69397476Y36091857D01*
X71112143Y35996619D02*
X70778809Y36472810D01*
X70540714Y35996619D02*
X70540714Y36996619D01*
X70921667Y36996619D01*
X71016905Y36949000D01*
X71064524Y36901381D01*
X71112143Y36806143D01*
X71112143Y36663286D01*
X71064524Y36568048D01*
X71016905Y36520429D01*
X70921667Y36472810D01*
X70540714Y36472810D01*
X72064524Y35996619D02*
X71493095Y35996619D01*
X71778809Y35996619D02*
X71778809Y36996619D01*
X71683571Y36853762D01*
X71588333Y36758524D01*
X71493095Y36710905D01*
X72921667Y36996619D02*
X72731190Y36996619D01*
X72635952Y36949000D01*
X72588333Y36901381D01*
X72493095Y36758524D01*
X72445476Y36568048D01*
X72445476Y36187095D01*
X72493095Y36091857D01*
X72540714Y36044238D01*
X72635952Y35996619D01*
X72826429Y35996619D01*
X72921667Y36044238D01*
X72969286Y36091857D01*
X73016905Y36187095D01*
X73016905Y36425190D01*
X72969286Y36520429D01*
X72921667Y36568048D01*
X72826429Y36615667D01*
X72635952Y36615667D01*
X72540714Y36568048D01*
X72493095Y36520429D01*
X72445476Y36425190D01*
X60952143Y64317619D02*
X60618809Y64793810D01*
X60380714Y64317619D02*
X60380714Y65317619D01*
X60761667Y65317619D01*
X60856905Y65270000D01*
X60904524Y65222381D01*
X60952143Y65127143D01*
X60952143Y64984286D01*
X60904524Y64889048D01*
X60856905Y64841429D01*
X60761667Y64793810D01*
X60380714Y64793810D01*
X61904524Y64317619D02*
X61333095Y64317619D01*
X61618809Y64317619D02*
X61618809Y65317619D01*
X61523571Y65174762D01*
X61428333Y65079524D01*
X61333095Y65031905D01*
X62475952Y64889048D02*
X62380714Y64936667D01*
X62333095Y64984286D01*
X62285476Y65079524D01*
X62285476Y65127143D01*
X62333095Y65222381D01*
X62380714Y65270000D01*
X62475952Y65317619D01*
X62666429Y65317619D01*
X62761667Y65270000D01*
X62809286Y65222381D01*
X62856905Y65127143D01*
X62856905Y65079524D01*
X62809286Y64984286D01*
X62761667Y64936667D01*
X62666429Y64889048D01*
X62475952Y64889048D01*
X62380714Y64841429D01*
X62333095Y64793810D01*
X62285476Y64698571D01*
X62285476Y64508095D01*
X62333095Y64412857D01*
X62380714Y64365238D01*
X62475952Y64317619D01*
X62666429Y64317619D01*
X62761667Y64365238D01*
X62809286Y64412857D01*
X62856905Y64508095D01*
X62856905Y64698571D01*
X62809286Y64793810D01*
X62761667Y64841429D01*
X62666429Y64889048D01*
X60952143Y61777619D02*
X60618809Y62253810D01*
X60380714Y61777619D02*
X60380714Y62777619D01*
X60761667Y62777619D01*
X60856905Y62730000D01*
X60904524Y62682381D01*
X60952143Y62587143D01*
X60952143Y62444286D01*
X60904524Y62349048D01*
X60856905Y62301429D01*
X60761667Y62253810D01*
X60380714Y62253810D01*
X61904524Y61777619D02*
X61333095Y61777619D01*
X61618809Y61777619D02*
X61618809Y62777619D01*
X61523571Y62634762D01*
X61428333Y62539524D01*
X61333095Y62491905D01*
X62380714Y61777619D02*
X62571190Y61777619D01*
X62666429Y61825238D01*
X62714048Y61872857D01*
X62809286Y62015714D01*
X62856905Y62206190D01*
X62856905Y62587143D01*
X62809286Y62682381D01*
X62761667Y62730000D01*
X62666429Y62777619D01*
X62475952Y62777619D01*
X62380714Y62730000D01*
X62333095Y62682381D01*
X62285476Y62587143D01*
X62285476Y62349048D01*
X62333095Y62253810D01*
X62380714Y62206190D01*
X62475952Y62158571D01*
X62666429Y62158571D01*
X62761667Y62206190D01*
X62809286Y62253810D01*
X62856905Y62349048D01*
X60952143Y66857619D02*
X60618809Y67333810D01*
X60380714Y66857619D02*
X60380714Y67857619D01*
X60761667Y67857619D01*
X60856905Y67810000D01*
X60904524Y67762381D01*
X60952143Y67667143D01*
X60952143Y67524286D01*
X60904524Y67429048D01*
X60856905Y67381429D01*
X60761667Y67333810D01*
X60380714Y67333810D01*
X61904524Y66857619D02*
X61333095Y66857619D01*
X61618809Y66857619D02*
X61618809Y67857619D01*
X61523571Y67714762D01*
X61428333Y67619524D01*
X61333095Y67571905D01*
X62237857Y67857619D02*
X62904524Y67857619D01*
X62475952Y66857619D01*
X60952143Y59237619D02*
X60618809Y59713810D01*
X60380714Y59237619D02*
X60380714Y60237619D01*
X60761667Y60237619D01*
X60856905Y60190000D01*
X60904524Y60142381D01*
X60952143Y60047143D01*
X60952143Y59904286D01*
X60904524Y59809048D01*
X60856905Y59761429D01*
X60761667Y59713810D01*
X60380714Y59713810D01*
X61333095Y60142381D02*
X61380714Y60190000D01*
X61475952Y60237619D01*
X61714048Y60237619D01*
X61809286Y60190000D01*
X61856905Y60142381D01*
X61904524Y60047143D01*
X61904524Y59951905D01*
X61856905Y59809048D01*
X61285476Y59237619D01*
X61904524Y59237619D01*
X62523571Y60237619D02*
X62618810Y60237619D01*
X62714048Y60190000D01*
X62761667Y60142381D01*
X62809286Y60047143D01*
X62856905Y59856667D01*
X62856905Y59618571D01*
X62809286Y59428095D01*
X62761667Y59332857D01*
X62714048Y59285238D01*
X62618810Y59237619D01*
X62523571Y59237619D01*
X62428333Y59285238D01*
X62380714Y59332857D01*
X62333095Y59428095D01*
X62285476Y59618571D01*
X62285476Y59856667D01*
X62333095Y60047143D01*
X62380714Y60142381D01*
X62428333Y60190000D01*
X62523571Y60237619D01*
X60952143Y56697619D02*
X60618809Y57173810D01*
X60380714Y56697619D02*
X60380714Y57697619D01*
X60761667Y57697619D01*
X60856905Y57650000D01*
X60904524Y57602381D01*
X60952143Y57507143D01*
X60952143Y57364286D01*
X60904524Y57269048D01*
X60856905Y57221429D01*
X60761667Y57173810D01*
X60380714Y57173810D01*
X61333095Y57602381D02*
X61380714Y57650000D01*
X61475952Y57697619D01*
X61714048Y57697619D01*
X61809286Y57650000D01*
X61856905Y57602381D01*
X61904524Y57507143D01*
X61904524Y57411905D01*
X61856905Y57269048D01*
X61285476Y56697619D01*
X61904524Y56697619D01*
X62856905Y56697619D02*
X62285476Y56697619D01*
X62571190Y56697619D02*
X62571190Y57697619D01*
X62475952Y57554762D01*
X62380714Y57459524D01*
X62285476Y57411905D01*
X34282143Y46283619D02*
X33948809Y46759810D01*
X33710714Y46283619D02*
X33710714Y47283619D01*
X34091667Y47283619D01*
X34186905Y47236000D01*
X34234524Y47188381D01*
X34282143Y47093143D01*
X34282143Y46950286D01*
X34234524Y46855048D01*
X34186905Y46807429D01*
X34091667Y46759810D01*
X33710714Y46759810D01*
X34663095Y47188381D02*
X34710714Y47236000D01*
X34805952Y47283619D01*
X35044048Y47283619D01*
X35139286Y47236000D01*
X35186905Y47188381D01*
X35234524Y47093143D01*
X35234524Y46997905D01*
X35186905Y46855048D01*
X34615476Y46283619D01*
X35234524Y46283619D01*
X35615476Y47188381D02*
X35663095Y47236000D01*
X35758333Y47283619D01*
X35996429Y47283619D01*
X36091667Y47236000D01*
X36139286Y47188381D01*
X36186905Y47093143D01*
X36186905Y46997905D01*
X36139286Y46855048D01*
X35567857Y46283619D01*
X36186905Y46283619D01*
X31234143Y38282619D02*
X30900809Y38758810D01*
X30662714Y38282619D02*
X30662714Y39282619D01*
X31043667Y39282619D01*
X31138905Y39235000D01*
X31186524Y39187381D01*
X31234143Y39092143D01*
X31234143Y38949286D01*
X31186524Y38854048D01*
X31138905Y38806429D01*
X31043667Y38758810D01*
X30662714Y38758810D01*
X31615095Y39187381D02*
X31662714Y39235000D01*
X31757952Y39282619D01*
X31996048Y39282619D01*
X32091286Y39235000D01*
X32138905Y39187381D01*
X32186524Y39092143D01*
X32186524Y38996905D01*
X32138905Y38854048D01*
X31567476Y38282619D01*
X32186524Y38282619D01*
X33043667Y39282619D02*
X32853190Y39282619D01*
X32757952Y39235000D01*
X32710333Y39187381D01*
X32615095Y39044524D01*
X32567476Y38854048D01*
X32567476Y38473095D01*
X32615095Y38377857D01*
X32662714Y38330238D01*
X32757952Y38282619D01*
X32948429Y38282619D01*
X33043667Y38330238D01*
X33091286Y38377857D01*
X33138905Y38473095D01*
X33138905Y38711190D01*
X33091286Y38806429D01*
X33043667Y38854048D01*
X32948429Y38901667D01*
X32757952Y38901667D01*
X32662714Y38854048D01*
X32615095Y38806429D01*
X32567476Y38711190D01*
X57142143Y38282619D02*
X56808809Y38758810D01*
X56570714Y38282619D02*
X56570714Y39282619D01*
X56951667Y39282619D01*
X57046905Y39235000D01*
X57094524Y39187381D01*
X57142143Y39092143D01*
X57142143Y38949286D01*
X57094524Y38854048D01*
X57046905Y38806429D01*
X56951667Y38758810D01*
X56570714Y38758810D01*
X57523095Y39187381D02*
X57570714Y39235000D01*
X57665952Y39282619D01*
X57904048Y39282619D01*
X57999286Y39235000D01*
X58046905Y39187381D01*
X58094524Y39092143D01*
X58094524Y38996905D01*
X58046905Y38854048D01*
X57475476Y38282619D01*
X58094524Y38282619D01*
X58427857Y39282619D02*
X59094524Y39282619D01*
X58665952Y38282619D01*
X39362143Y46283619D02*
X39028809Y46759810D01*
X38790714Y46283619D02*
X38790714Y47283619D01*
X39171667Y47283619D01*
X39266905Y47236000D01*
X39314524Y47188381D01*
X39362143Y47093143D01*
X39362143Y46950286D01*
X39314524Y46855048D01*
X39266905Y46807429D01*
X39171667Y46759810D01*
X38790714Y46759810D01*
X39743095Y47188381D02*
X39790714Y47236000D01*
X39885952Y47283619D01*
X40124048Y47283619D01*
X40219286Y47236000D01*
X40266905Y47188381D01*
X40314524Y47093143D01*
X40314524Y46997905D01*
X40266905Y46855048D01*
X39695476Y46283619D01*
X40314524Y46283619D01*
X40790714Y46283619D02*
X40981190Y46283619D01*
X41076429Y46331238D01*
X41124048Y46378857D01*
X41219286Y46521714D01*
X41266905Y46712190D01*
X41266905Y47093143D01*
X41219286Y47188381D01*
X41171667Y47236000D01*
X41076429Y47283619D01*
X40885952Y47283619D01*
X40790714Y47236000D01*
X40743095Y47188381D01*
X40695476Y47093143D01*
X40695476Y46855048D01*
X40743095Y46759810D01*
X40790714Y46712190D01*
X40885952Y46664571D01*
X41076429Y46664571D01*
X41171667Y46712190D01*
X41219286Y46759810D01*
X41266905Y46855048D01*
X65397143Y46283619D02*
X65063809Y46759810D01*
X64825714Y46283619D02*
X64825714Y47283619D01*
X65206667Y47283619D01*
X65301905Y47236000D01*
X65349524Y47188381D01*
X65397143Y47093143D01*
X65397143Y46950286D01*
X65349524Y46855048D01*
X65301905Y46807429D01*
X65206667Y46759810D01*
X64825714Y46759810D01*
X65730476Y47283619D02*
X66349524Y47283619D01*
X66016190Y46902667D01*
X66159048Y46902667D01*
X66254286Y46855048D01*
X66301905Y46807429D01*
X66349524Y46712190D01*
X66349524Y46474095D01*
X66301905Y46378857D01*
X66254286Y46331238D01*
X66159048Y46283619D01*
X65873333Y46283619D01*
X65778095Y46331238D01*
X65730476Y46378857D01*
X66968571Y47283619D02*
X67063810Y47283619D01*
X67159048Y47236000D01*
X67206667Y47188381D01*
X67254286Y47093143D01*
X67301905Y46902667D01*
X67301905Y46664571D01*
X67254286Y46474095D01*
X67206667Y46378857D01*
X67159048Y46331238D01*
X67063810Y46283619D01*
X66968571Y46283619D01*
X66873333Y46331238D01*
X66825714Y46378857D01*
X66778095Y46474095D01*
X66730476Y46664571D01*
X66730476Y46902667D01*
X66778095Y47093143D01*
X66825714Y47188381D01*
X66873333Y47236000D01*
X66968571Y47283619D01*
X12263381Y44823143D02*
X11787190Y44489809D01*
X12263381Y44251714D02*
X11263381Y44251714D01*
X11263381Y44632667D01*
X11311000Y44727905D01*
X11358619Y44775524D01*
X11453857Y44823143D01*
X11596714Y44823143D01*
X11691952Y44775524D01*
X11739571Y44727905D01*
X11787190Y44632667D01*
X11787190Y44251714D01*
X11263381Y45156476D02*
X11263381Y45775524D01*
X11644333Y45442190D01*
X11644333Y45585048D01*
X11691952Y45680286D01*
X11739571Y45727905D01*
X11834810Y45775524D01*
X12072905Y45775524D01*
X12168143Y45727905D01*
X12215762Y45680286D01*
X12263381Y45585048D01*
X12263381Y45299333D01*
X12215762Y45204095D01*
X12168143Y45156476D01*
X12263381Y46727905D02*
X12263381Y46156476D01*
X12263381Y46442190D02*
X11263381Y46442190D01*
X11406238Y46346952D01*
X11501476Y46251714D01*
X11549095Y46156476D01*
X10152143Y38282619D02*
X9818809Y38758810D01*
X9580714Y38282619D02*
X9580714Y39282619D01*
X9961667Y39282619D01*
X10056905Y39235000D01*
X10104524Y39187381D01*
X10152143Y39092143D01*
X10152143Y38949286D01*
X10104524Y38854048D01*
X10056905Y38806429D01*
X9961667Y38758810D01*
X9580714Y38758810D01*
X10485476Y39282619D02*
X11104524Y39282619D01*
X10771190Y38901667D01*
X10914048Y38901667D01*
X11009286Y38854048D01*
X11056905Y38806429D01*
X11104524Y38711190D01*
X11104524Y38473095D01*
X11056905Y38377857D01*
X11009286Y38330238D01*
X10914048Y38282619D01*
X10628333Y38282619D01*
X10533095Y38330238D01*
X10485476Y38377857D01*
X11485476Y39187381D02*
X11533095Y39235000D01*
X11628333Y39282619D01*
X11866429Y39282619D01*
X11961667Y39235000D01*
X12009286Y39187381D01*
X12056905Y39092143D01*
X12056905Y38996905D01*
X12009286Y38854048D01*
X11437857Y38282619D01*
X12056905Y38282619D01*
X42410143Y38282619D02*
X42076809Y38758810D01*
X41838714Y38282619D02*
X41838714Y39282619D01*
X42219667Y39282619D01*
X42314905Y39235000D01*
X42362524Y39187381D01*
X42410143Y39092143D01*
X42410143Y38949286D01*
X42362524Y38854048D01*
X42314905Y38806429D01*
X42219667Y38758810D01*
X41838714Y38758810D01*
X42743476Y39282619D02*
X43362524Y39282619D01*
X43029190Y38901667D01*
X43172048Y38901667D01*
X43267286Y38854048D01*
X43314905Y38806429D01*
X43362524Y38711190D01*
X43362524Y38473095D01*
X43314905Y38377857D01*
X43267286Y38330238D01*
X43172048Y38282619D01*
X42886333Y38282619D01*
X42791095Y38330238D01*
X42743476Y38377857D01*
X43695857Y39282619D02*
X44314905Y39282619D01*
X43981571Y38901667D01*
X44124429Y38901667D01*
X44219667Y38854048D01*
X44267286Y38806429D01*
X44314905Y38711190D01*
X44314905Y38473095D01*
X44267286Y38377857D01*
X44219667Y38330238D01*
X44124429Y38282619D01*
X43838714Y38282619D01*
X43743476Y38330238D01*
X43695857Y38377857D01*
X68445143Y38282619D02*
X68111809Y38758810D01*
X67873714Y38282619D02*
X67873714Y39282619D01*
X68254667Y39282619D01*
X68349905Y39235000D01*
X68397524Y39187381D01*
X68445143Y39092143D01*
X68445143Y38949286D01*
X68397524Y38854048D01*
X68349905Y38806429D01*
X68254667Y38758810D01*
X67873714Y38758810D01*
X68778476Y39282619D02*
X69397524Y39282619D01*
X69064190Y38901667D01*
X69207048Y38901667D01*
X69302286Y38854048D01*
X69349905Y38806429D01*
X69397524Y38711190D01*
X69397524Y38473095D01*
X69349905Y38377857D01*
X69302286Y38330238D01*
X69207048Y38282619D01*
X68921333Y38282619D01*
X68826095Y38330238D01*
X68778476Y38377857D01*
X70254667Y38949286D02*
X70254667Y38282619D01*
X70016571Y39330238D02*
X69778476Y38615952D01*
X70397524Y38615952D01*
X12263381Y41521143D02*
X11787190Y41187809D01*
X12263381Y40949714D02*
X11263381Y40949714D01*
X11263381Y41330667D01*
X11311000Y41425905D01*
X11358619Y41473524D01*
X11453857Y41521143D01*
X11596714Y41521143D01*
X11691952Y41473524D01*
X11739571Y41425905D01*
X11787190Y41330667D01*
X11787190Y40949714D01*
X11263381Y41854476D02*
X11263381Y42473524D01*
X11644333Y42140190D01*
X11644333Y42283048D01*
X11691952Y42378286D01*
X11739571Y42425905D01*
X11834810Y42473524D01*
X12072905Y42473524D01*
X12168143Y42425905D01*
X12215762Y42378286D01*
X12263381Y42283048D01*
X12263381Y41997333D01*
X12215762Y41902095D01*
X12168143Y41854476D01*
X11263381Y43378286D02*
X11263381Y42902095D01*
X11739571Y42854476D01*
X11691952Y42902095D01*
X11644333Y42997333D01*
X11644333Y43235429D01*
X11691952Y43330667D01*
X11739571Y43378286D01*
X11834810Y43425905D01*
X12072905Y43425905D01*
X12168143Y43378286D01*
X12215762Y43330667D01*
X12263381Y43235429D01*
X12263381Y42997333D01*
X12215762Y42902095D01*
X12168143Y42854476D01*
X10152143Y35742619D02*
X9818809Y36218810D01*
X9580714Y35742619D02*
X9580714Y36742619D01*
X9961667Y36742619D01*
X10056905Y36695000D01*
X10104524Y36647381D01*
X10152143Y36552143D01*
X10152143Y36409286D01*
X10104524Y36314048D01*
X10056905Y36266429D01*
X9961667Y36218810D01*
X9580714Y36218810D01*
X10485476Y36742619D02*
X11104524Y36742619D01*
X10771190Y36361667D01*
X10914048Y36361667D01*
X11009286Y36314048D01*
X11056905Y36266429D01*
X11104524Y36171190D01*
X11104524Y35933095D01*
X11056905Y35837857D01*
X11009286Y35790238D01*
X10914048Y35742619D01*
X10628333Y35742619D01*
X10533095Y35790238D01*
X10485476Y35837857D01*
X11961667Y36742619D02*
X11771190Y36742619D01*
X11675952Y36695000D01*
X11628333Y36647381D01*
X11533095Y36504524D01*
X11485476Y36314048D01*
X11485476Y35933095D01*
X11533095Y35837857D01*
X11580714Y35790238D01*
X11675952Y35742619D01*
X11866429Y35742619D01*
X11961667Y35790238D01*
X12009286Y35837857D01*
X12056905Y35933095D01*
X12056905Y36171190D01*
X12009286Y36266429D01*
X11961667Y36314048D01*
X11866429Y36361667D01*
X11675952Y36361667D01*
X11580714Y36314048D01*
X11533095Y36266429D01*
X11485476Y36171190D01*
X33782095Y33440619D02*
X33782095Y32631095D01*
X33829714Y32535857D01*
X33877333Y32488238D01*
X33972571Y32440619D01*
X34163048Y32440619D01*
X34258286Y32488238D01*
X34305905Y32535857D01*
X34353524Y32631095D01*
X34353524Y33440619D01*
X35353524Y32440619D02*
X34782095Y32440619D01*
X35067809Y32440619D02*
X35067809Y33440619D01*
X34972571Y33297762D01*
X34877333Y33202524D01*
X34782095Y33154905D01*
X59690095Y33440619D02*
X59690095Y32631095D01*
X59737714Y32535857D01*
X59785333Y32488238D01*
X59880571Y32440619D01*
X60071048Y32440619D01*
X60166286Y32488238D01*
X60213905Y32535857D01*
X60261524Y32631095D01*
X60261524Y33440619D01*
X60690095Y33345381D02*
X60737714Y33393000D01*
X60832952Y33440619D01*
X61071048Y33440619D01*
X61166286Y33393000D01*
X61213905Y33345381D01*
X61261524Y33250143D01*
X61261524Y33154905D01*
X61213905Y33012048D01*
X60642476Y32440619D01*
X61261524Y32440619D01*
X28702095Y21121619D02*
X28702095Y20312095D01*
X28749714Y20216857D01*
X28797333Y20169238D01*
X28892571Y20121619D01*
X29083048Y20121619D01*
X29178286Y20169238D01*
X29225905Y20216857D01*
X29273524Y20312095D01*
X29273524Y21121619D01*
X30178286Y20788286D02*
X30178286Y20121619D01*
X29940190Y21169238D02*
X29702095Y20454952D01*
X30321143Y20454952D01*
X54737095Y21248619D02*
X54737095Y20439095D01*
X54784714Y20343857D01*
X54832333Y20296238D01*
X54927571Y20248619D01*
X55118048Y20248619D01*
X55213286Y20296238D01*
X55260905Y20343857D01*
X55308524Y20439095D01*
X55308524Y21248619D01*
X56213286Y21248619D02*
X56022809Y21248619D01*
X55927571Y21201000D01*
X55879952Y21153381D01*
X55784714Y21010524D01*
X55737095Y20820048D01*
X55737095Y20439095D01*
X55784714Y20343857D01*
X55832333Y20296238D01*
X55927571Y20248619D01*
X56118048Y20248619D01*
X56213286Y20296238D01*
X56260905Y20343857D01*
X56308524Y20439095D01*
X56308524Y20677190D01*
X56260905Y20772429D01*
X56213286Y20820048D01*
X56118048Y20867667D01*
X55927571Y20867667D01*
X55832333Y20820048D01*
X55784714Y20772429D01*
X55737095Y20677190D01*
X38862095Y21121619D02*
X38862095Y20312095D01*
X38909714Y20216857D01*
X38957333Y20169238D01*
X39052571Y20121619D01*
X39243048Y20121619D01*
X39338286Y20169238D01*
X39385905Y20216857D01*
X39433524Y20312095D01*
X39433524Y21121619D01*
X40385905Y21121619D02*
X39909714Y21121619D01*
X39862095Y20645429D01*
X39909714Y20693048D01*
X40004952Y20740667D01*
X40243048Y20740667D01*
X40338286Y20693048D01*
X40385905Y20645429D01*
X40433524Y20550190D01*
X40433524Y20312095D01*
X40385905Y20216857D01*
X40338286Y20169238D01*
X40243048Y20121619D01*
X40004952Y20121619D01*
X39909714Y20169238D01*
X39862095Y20216857D01*
X64897095Y21248619D02*
X64897095Y20439095D01*
X64944714Y20343857D01*
X64992333Y20296238D01*
X65087571Y20248619D01*
X65278048Y20248619D01*
X65373286Y20296238D01*
X65420905Y20343857D01*
X65468524Y20439095D01*
X65468524Y21248619D01*
X65849476Y21248619D02*
X66516143Y21248619D01*
X66087571Y20248619D01*
X69111905Y66857619D02*
X69111905Y67857619D01*
X69350000Y67857619D01*
X69492858Y67810000D01*
X69588096Y67714762D01*
X69635715Y67619524D01*
X69683334Y67429048D01*
X69683334Y67286190D01*
X69635715Y67095714D01*
X69588096Y67000476D01*
X69492858Y66905238D01*
X69350000Y66857619D01*
X69111905Y66857619D01*
X70635715Y66857619D02*
X70064286Y66857619D01*
X70350000Y66857619D02*
X70350000Y67857619D01*
X70254762Y67714762D01*
X70159524Y67619524D01*
X70064286Y67571905D01*
X20066095Y33821619D02*
X20066095Y33012095D01*
X20113714Y32916857D01*
X20161333Y32869238D01*
X20256571Y32821619D01*
X20447048Y32821619D01*
X20542286Y32869238D01*
X20589905Y32916857D01*
X20637524Y33012095D01*
X20637524Y33821619D01*
X21018476Y33821619D02*
X21637524Y33821619D01*
X21304190Y33440667D01*
X21447048Y33440667D01*
X21542286Y33393048D01*
X21589905Y33345429D01*
X21637524Y33250190D01*
X21637524Y33012095D01*
X21589905Y32916857D01*
X21542286Y32869238D01*
X21447048Y32821619D01*
X21161333Y32821619D01*
X21066095Y32869238D01*
X21018476Y32916857D01*
X2413095Y41822619D02*
X2413095Y41013095D01*
X2460714Y40917857D01*
X2508333Y40870238D01*
X2603571Y40822619D01*
X2794048Y40822619D01*
X2889286Y40870238D01*
X2936905Y40917857D01*
X2984524Y41013095D01*
X2984524Y41822619D01*
X3603571Y41394048D02*
X3508333Y41441667D01*
X3460714Y41489286D01*
X3413095Y41584524D01*
X3413095Y41632143D01*
X3460714Y41727381D01*
X3508333Y41775000D01*
X3603571Y41822619D01*
X3794048Y41822619D01*
X3889286Y41775000D01*
X3936905Y41727381D01*
X3984524Y41632143D01*
X3984524Y41584524D01*
X3936905Y41489286D01*
X3889286Y41441667D01*
X3794048Y41394048D01*
X3603571Y41394048D01*
X3508333Y41346429D01*
X3460714Y41298810D01*
X3413095Y41203571D01*
X3413095Y41013095D01*
X3460714Y40917857D01*
X3508333Y40870238D01*
X3603571Y40822619D01*
X3794048Y40822619D01*
X3889286Y40870238D01*
X3936905Y40917857D01*
X3984524Y41013095D01*
X3984524Y41203571D01*
X3936905Y41298810D01*
X3889286Y41346429D01*
X3794048Y41394048D01*
X44624810Y64825619D02*
X44624810Y65825619D01*
X45672429Y64920857D02*
X45624810Y64873238D01*
X45481953Y64825619D01*
X45386715Y64825619D01*
X45243857Y64873238D01*
X45148619Y64968476D01*
X45101000Y65063714D01*
X45053381Y65254190D01*
X45053381Y65397048D01*
X45101000Y65587524D01*
X45148619Y65682762D01*
X45243857Y65778000D01*
X45386715Y65825619D01*
X45481953Y65825619D01*
X45624810Y65778000D01*
X45672429Y65730381D01*
X46053381Y64873238D02*
X46196238Y64825619D01*
X46434334Y64825619D01*
X46529572Y64873238D01*
X46577191Y64920857D01*
X46624810Y65016095D01*
X46624810Y65111333D01*
X46577191Y65206571D01*
X46529572Y65254190D01*
X46434334Y65301810D01*
X46243857Y65349429D01*
X46148619Y65397048D01*
X46101000Y65444667D01*
X46053381Y65539905D01*
X46053381Y65635143D01*
X46101000Y65730381D01*
X46148619Y65778000D01*
X46243857Y65825619D01*
X46481953Y65825619D01*
X46624810Y65778000D01*
X47053381Y64825619D02*
X47053381Y65825619D01*
X47434334Y65825619D01*
X47529572Y65778000D01*
X47577191Y65730381D01*
X47624810Y65635143D01*
X47624810Y65492286D01*
X47577191Y65397048D01*
X47529572Y65349429D01*
X47434334Y65301810D01*
X47053381Y65301810D01*
M02*
