M48
;DRILL file {KiCad 4.0.2+dfsg1-stable} date Tue 31 Jul 2018 02:08:21 PM EDT
;FORMAT={-:-/ absolute / inch / decimal}
FMAT,2
INCH,TZ
T1C0.016
T2C0.016
T3C0.036
T4C0.040
T5C0.051
T6C0.091
%
G90
G05
M72
T1
X0.175Y2.125
X1.15Y1.1
X1.1704Y1.
X1.2Y1.
X1.25Y1.1
X1.2514Y0.9466
X1.275Y0.775
X1.4Y1.15
X1.475Y1.1
X1.475Y1.
X1.5407Y1.1991
X1.575Y1.275
X1.6514Y0.9466
X1.675Y0.775
X1.725Y2.5
X1.75Y1.
X1.85Y1.1
X2.175Y1.1
X2.1954Y1.
X2.225Y1.
X2.275Y1.1
X2.2764Y0.9466
X2.3Y0.775
X2.425Y1.15
X2.5Y1.1
X2.5Y1.
X2.5706Y1.1986
X2.6Y1.275
X2.6764Y0.9466
X2.7Y0.775
X2.775Y1.
X2.875Y1.1
T2
X0.125Y2.075
X0.3Y2.125
X0.325Y2.05
X0.325Y1.95
X0.35Y1.95
X0.375Y2.125
X0.375Y2.
X0.375Y1.95
X0.3964Y1.9464
X0.425Y1.9
X0.425Y1.7
X0.45Y1.875
X0.55Y2.025
X0.6Y1.025
X0.675Y1.75
X0.675Y1.625
X0.75Y1.925
X0.75Y0.95
X1.025Y2.25
X1.05Y2.
X1.05Y1.875
X1.05Y1.35
X1.075Y2.025
X1.075Y1.9
X1.1Y2.325
X1.15Y1.175
X1.175Y0.675
X1.2Y0.85
X1.225Y1.5
X1.275Y2.425
X1.275Y0.9
X1.275Y0.7
X1.325Y2.525
X1.35Y2.35
X1.375Y1.5
X1.3796Y1.3296
X1.3803Y2.2947
X1.425Y0.9
X1.4486Y2.3647
X1.45Y2.275
X1.4567Y2.3228
X1.4733Y2.5
X1.4961Y2.2772
X1.4971Y2.5279
X1.55Y2.35
X1.575Y1.5
X1.6Y2.2
X1.675Y1.925
X1.675Y1.5
X1.8Y1.175
X1.825Y0.9
X1.85Y2.175
X1.9Y1.35
X2.075Y1.35
X2.175Y1.175
X2.25Y1.5
X2.325Y0.9
X2.4Y1.5
X2.4Y1.35
X2.425Y0.9
X2.45Y1.
X2.55Y0.775
X2.625Y0.75
X2.7236Y0.9467
X2.8Y0.75
X2.825Y0.9768
X2.825Y1.175
X2.85Y0.9
X2.9Y2.35
X2.9Y2.25
X2.925Y1.35
X2.925Y0.75
X2.95Y0.925
X3.025Y0.925
T3
X0.3622Y0.7654
X0.3622Y0.6622
X0.4606Y0.7654
X0.4606Y0.6622
X0.5394Y0.7654
X0.5394Y0.6622
X0.6378Y0.7654
X0.6378Y0.6622
T4
X1.325Y2.65
X1.425Y2.65
X1.525Y2.65
X1.625Y2.65
X1.725Y2.65
X1.825Y2.65
T5
X0.2Y2.575
X0.3Y2.575
X0.4Y2.575
X0.5Y2.575
X1.225Y0.275
X1.325Y0.275
X1.425Y0.275
X1.525Y0.275
X1.625Y0.275
X1.725Y0.275
X1.825Y0.275
X1.925Y0.275
T6
X0.2413Y0.7791
X0.2413Y0.5555
X0.7587Y0.7791
X0.7587Y0.5555
T0
M30
