G04 #@! TF.FileFunction,Copper,L2,Bot,Signal*
%FSLAX46Y46*%
G04 Gerber Fmt 4.6, Leading zero omitted, Abs format (unit mm)*
G04 Created by KiCad (PCBNEW 4.0.7) date Sat Dec  2 17:24:25 2017*
%MOMM*%
%LPD*%
G01*
G04 APERTURE LIST*
%ADD10C,0.127000*%
%ADD11R,2.300000X2.300000*%
%ADD12C,2.300000*%
%ADD13C,1.420000*%
%ADD14C,2.800000*%
%ADD15R,1.000000X1.000000*%
%ADD16O,1.000000X1.000000*%
%ADD17C,0.596900*%
%ADD18C,0.600000*%
%ADD19C,0.254000*%
G04 APERTURE END LIST*
D10*
D11*
X31115000Y6985000D03*
D12*
X33655000Y6985000D03*
X36195000Y6985000D03*
X38735000Y6985000D03*
X41275000Y6985000D03*
X43815000Y6985000D03*
X46355000Y6985000D03*
X48895000Y6985000D03*
D11*
X5080000Y65405000D03*
D12*
X7620000Y65405000D03*
X10160000Y65405000D03*
X12700000Y65405000D03*
D13*
X9200000Y19440005D03*
X11700000Y19440005D03*
X13700000Y19440005D03*
X16200000Y19440005D03*
X9200000Y16820005D03*
X11700000Y16820005D03*
X13700000Y16820005D03*
X16200000Y16820005D03*
D14*
X19270000Y14110005D03*
X19270000Y19790005D03*
X6130000Y19790005D03*
X6130000Y14110005D03*
D15*
X32385000Y56515000D03*
D16*
X31115000Y56515000D03*
X32385000Y57785000D03*
X31115000Y57785000D03*
X32385000Y59055000D03*
X31115000Y59055000D03*
D17*
X9525000Y50800000D03*
X8255000Y52070000D03*
X31115000Y38100000D03*
X35560000Y38100000D03*
X61595000Y38100000D03*
X57150000Y38100000D03*
X42545000Y38100000D03*
X39370000Y38100000D03*
X7620000Y53340000D03*
X3810000Y52705000D03*
X31750000Y60960000D03*
X75565000Y56515000D03*
X75565000Y59055000D03*
X55880000Y30480000D03*
X36794623Y60063209D03*
X9525000Y53975000D03*
X12700000Y52070000D03*
D18*
X38865106Y60139849D03*
X43815000Y63500000D03*
X47625000Y53975000D03*
X74930000Y33020000D03*
X72390000Y30480000D03*
X61595000Y29210000D03*
X35560000Y29210000D03*
X62230000Y34290000D03*
X53340000Y33020000D03*
X27305000Y33020000D03*
X29845000Y30480000D03*
X46355000Y30480000D03*
X48895000Y33020000D03*
X36195000Y34290000D03*
X32385000Y19685000D03*
X57821685Y24043527D03*
X58420000Y19685000D03*
X67981685Y24043527D03*
X68580000Y19685000D03*
X73025000Y24130000D03*
X62865000Y24130000D03*
X36830000Y24130000D03*
X46990000Y24130000D03*
X31786685Y24043527D03*
X41946685Y24043527D03*
X42545000Y19685000D03*
X10160000Y48260000D03*
X10160000Y47625000D03*
X10160000Y46990000D03*
X10160000Y46355000D03*
X9525000Y46355000D03*
X8890000Y46355000D03*
X8890000Y48895000D03*
X10160000Y48895000D03*
X9525000Y48895000D03*
X40516162Y55444218D03*
X42545000Y49530000D03*
X17780000Y48895000D03*
X4445000Y53975000D03*
X18415000Y22860000D03*
X15240000Y26670000D03*
D17*
X33749166Y55150834D03*
X36830000Y57785000D03*
X32385000Y53340000D03*
X30480000Y55245000D03*
X17145000Y44450000D03*
X17145000Y41275000D03*
X26035000Y57150000D03*
X27940000Y59055000D03*
X34290000Y59690000D03*
X38735000Y59055000D03*
X26670000Y47625000D03*
X26670000Y50800000D03*
X27305000Y48260000D03*
X27305000Y51435000D03*
X11430000Y47625000D03*
X10795000Y43180000D03*
D18*
X39133026Y30457974D03*
X40005000Y32385000D03*
X29210000Y27940000D03*
X29727597Y25400000D03*
X46990000Y27940000D03*
X44450000Y25400000D03*
X66040000Y32385000D03*
X65293192Y30445060D03*
X55245000Y27940000D03*
X55762597Y25400000D03*
X73025000Y27940000D03*
X70485000Y25400000D03*
D17*
X30480000Y21590000D03*
X32385000Y22860000D03*
X29845000Y17145000D03*
X32385000Y17780000D03*
X59055000Y22860000D03*
X61595000Y22860000D03*
X64770000Y19685000D03*
X66675000Y19050000D03*
X71120000Y19050000D03*
X74295000Y19050000D03*
X76835000Y23495000D03*
X69178920Y24044953D03*
X71753872Y24810715D03*
X74930000Y23495000D03*
D18*
X31750000Y27940000D03*
X30480000Y25400000D03*
X57785000Y27940000D03*
X56515000Y25400000D03*
X37465000Y27940000D03*
X37465000Y25400000D03*
X63500000Y27940000D03*
X63500000Y25400000D03*
D19*
X8255000Y52070000D02*
X9525000Y50800000D01*
X35560000Y38100000D02*
X31115000Y38100000D01*
X57150000Y38100000D02*
X61595000Y38100000D01*
X39370000Y38100000D02*
X42545000Y38100000D01*
X33655000Y55245000D02*
X33749166Y55150834D01*
X33020000Y55880000D02*
X33655000Y55245000D01*
X32385000Y56515000D02*
X33020000Y55880000D01*
X36830000Y57785000D02*
X35620250Y57785000D01*
X35620250Y57785000D02*
X34350250Y59055000D01*
X34350250Y59055000D02*
X33875220Y59055000D01*
X32385000Y59055000D02*
X33875220Y59055000D01*
X30480000Y55245000D02*
X32385000Y53340000D01*
X17145000Y41275000D02*
X17145000Y44450000D01*
X27940000Y59055000D02*
X26035000Y57150000D01*
X38735000Y59055000D02*
X34925000Y59055000D01*
X34925000Y59055000D02*
X34290000Y59690000D01*
X26670000Y50800000D02*
X26670000Y47625000D01*
X27305000Y51435000D02*
X27305000Y48260000D01*
X10795000Y43180000D02*
X10795000Y46990000D01*
X10795000Y46990000D02*
X11430000Y47625000D01*
X39133026Y30457974D02*
X39133026Y31513026D01*
X39133026Y31513026D02*
X40005000Y32385000D01*
X29727597Y27187597D02*
X29727597Y27422403D01*
X29727597Y27422403D02*
X29210000Y27940000D01*
X29727597Y25400000D02*
X29727597Y27187597D01*
X44450000Y25400000D02*
X46990000Y27940000D01*
X65293192Y31638192D02*
X66040000Y32385000D01*
X65293192Y30445060D02*
X65293192Y31638192D01*
X55762597Y25400000D02*
X55762597Y27422403D01*
X55762597Y27422403D02*
X55245000Y27940000D01*
X70485000Y25400000D02*
X73025000Y27940000D01*
X30480000Y21590000D02*
X30480000Y22225000D01*
X30480000Y22225000D02*
X31115000Y22860000D01*
X31115000Y22860000D02*
X32385000Y22860000D01*
X32385000Y17780000D02*
X30480000Y17780000D01*
X30480000Y17780000D02*
X29845000Y17145000D01*
X61595000Y22860000D02*
X59055000Y22860000D01*
X66675000Y19050000D02*
X65405000Y19050000D01*
X65405000Y19050000D02*
X64770000Y19685000D01*
X74295000Y19050000D02*
X71120000Y19050000D01*
X76835000Y23495000D02*
X74930000Y23495000D01*
X71753872Y24810715D02*
X69944682Y24810715D01*
X69944682Y24810715D02*
X69178920Y24044953D01*
X74930002Y23495002D02*
X74930000Y23495000D01*
X31115000Y27503400D02*
X31551600Y27940000D01*
X31551600Y27940000D02*
X31750000Y27940000D01*
X30480000Y25400000D02*
X30480000Y26868400D01*
X30480000Y26868400D02*
X31115000Y27503400D01*
X56515000Y25400000D02*
X56515000Y26670000D01*
X56515000Y26670000D02*
X57785000Y27940000D01*
X37465000Y25400000D02*
X37465000Y27940000D01*
X63500000Y25400000D02*
X63500000Y27940000D01*
G36*
X79544000Y456000D02*
X456000Y456000D01*
X456000Y8135000D01*
X29576536Y8135000D01*
X29576536Y5835000D01*
X29603103Y5693810D01*
X29686546Y5564135D01*
X29813866Y5477141D01*
X29965000Y5446536D01*
X32265000Y5446536D01*
X32406190Y5473103D01*
X32535865Y5556546D01*
X32622859Y5683866D01*
X32653464Y5835000D01*
X32653464Y6681801D01*
X34663735Y6681801D01*
X34896325Y6118891D01*
X35326626Y5687838D01*
X35889129Y5454266D01*
X36498199Y5453735D01*
X37061109Y5686325D01*
X37492162Y6116626D01*
X37725734Y6679129D01*
X37725736Y6681801D01*
X39743735Y6681801D01*
X39976325Y6118891D01*
X40406626Y5687838D01*
X40969129Y5454266D01*
X41578199Y5453735D01*
X42141109Y5686325D01*
X42572162Y6116626D01*
X42805734Y6679129D01*
X42805736Y6681801D01*
X44823735Y6681801D01*
X45056325Y6118891D01*
X45486626Y5687838D01*
X46049129Y5454266D01*
X46658199Y5453735D01*
X47221109Y5686325D01*
X47652162Y6116626D01*
X47885734Y6679129D01*
X47886265Y7288199D01*
X47653675Y7851109D01*
X47223374Y8282162D01*
X46660871Y8515734D01*
X46051801Y8516265D01*
X45488891Y8283675D01*
X45057838Y7853374D01*
X44824266Y7290871D01*
X44823735Y6681801D01*
X42805736Y6681801D01*
X42806265Y7288199D01*
X42573675Y7851109D01*
X42143374Y8282162D01*
X41580871Y8515734D01*
X40971801Y8516265D01*
X40408891Y8283675D01*
X39977838Y7853374D01*
X39744266Y7290871D01*
X39743735Y6681801D01*
X37725736Y6681801D01*
X37726265Y7288199D01*
X37493675Y7851109D01*
X37063374Y8282162D01*
X36500871Y8515734D01*
X35891801Y8516265D01*
X35328891Y8283675D01*
X34897838Y7853374D01*
X34664266Y7290871D01*
X34663735Y6681801D01*
X32653464Y6681801D01*
X32653464Y8135000D01*
X32626897Y8276190D01*
X32543454Y8405865D01*
X32416134Y8492859D01*
X32265000Y8523464D01*
X29965000Y8523464D01*
X29823810Y8496897D01*
X29694135Y8413454D01*
X29607141Y8286134D01*
X29576536Y8135000D01*
X456000Y8135000D01*
X456000Y13757296D01*
X4348691Y13757296D01*
X4619261Y13102467D01*
X5119827Y12601027D01*
X5774183Y12329315D01*
X6482709Y12328696D01*
X7137538Y12599266D01*
X7638978Y13099832D01*
X7910690Y13754188D01*
X7910692Y13757296D01*
X17488691Y13757296D01*
X17759261Y13102467D01*
X18259827Y12601027D01*
X18914183Y12329315D01*
X19622709Y12328696D01*
X20277538Y12599266D01*
X20778978Y13099832D01*
X21050690Y13754188D01*
X21051309Y14462714D01*
X20780739Y15117543D01*
X20280173Y15618983D01*
X19625817Y15890695D01*
X18917291Y15891314D01*
X18262462Y15620744D01*
X17761022Y15120178D01*
X17489310Y14465822D01*
X17488691Y13757296D01*
X7910692Y13757296D01*
X7911309Y14462714D01*
X7640739Y15117543D01*
X7140173Y15618983D01*
X6485817Y15890695D01*
X5777291Y15891314D01*
X5122462Y15620744D01*
X4621022Y15120178D01*
X4349310Y14465822D01*
X4348691Y13757296D01*
X456000Y13757296D01*
X456000Y16603944D01*
X8108811Y16603944D01*
X8274556Y16202810D01*
X8581191Y15895639D01*
X8982035Y15729195D01*
X9416061Y15728816D01*
X9817195Y15894561D01*
X10124366Y16201196D01*
X10290810Y16602040D01*
X10290811Y16603944D01*
X10608811Y16603944D01*
X10774556Y16202810D01*
X11081191Y15895639D01*
X11482035Y15729195D01*
X11916061Y15728816D01*
X12317195Y15894561D01*
X12624366Y16201196D01*
X12699980Y16383297D01*
X12774556Y16202810D01*
X13081191Y15895639D01*
X13482035Y15729195D01*
X13916061Y15728816D01*
X14317195Y15894561D01*
X14624366Y16201196D01*
X14790810Y16602040D01*
X14791166Y17010442D01*
X29165433Y17010442D01*
X29268655Y16760625D01*
X29459620Y16569326D01*
X29709256Y16465668D01*
X29979558Y16465433D01*
X30229375Y16568655D01*
X30420674Y16759620D01*
X30524332Y17009256D01*
X30524416Y17105996D01*
X30690421Y17272000D01*
X31932064Y17272000D01*
X31999620Y17204326D01*
X32249256Y17100668D01*
X32519558Y17100433D01*
X32769375Y17203655D01*
X32960674Y17394620D01*
X33064332Y17644256D01*
X33064567Y17914558D01*
X32961345Y18164375D01*
X32770380Y18355674D01*
X32520744Y18459332D01*
X32250442Y18459567D01*
X32000625Y18356345D01*
X31932160Y18288000D01*
X30480000Y18288000D01*
X30285597Y18249331D01*
X30120790Y18139211D01*
X29806063Y17824484D01*
X29710442Y17824567D01*
X29460625Y17721345D01*
X29269326Y17530380D01*
X29165668Y17280744D01*
X29165433Y17010442D01*
X14791166Y17010442D01*
X14791189Y17036066D01*
X14625444Y17437200D01*
X14318809Y17744371D01*
X13917965Y17910815D01*
X13483939Y17911194D01*
X13082805Y17745449D01*
X12775634Y17438814D01*
X12700020Y17256713D01*
X12625444Y17437200D01*
X12318809Y17744371D01*
X11917965Y17910815D01*
X11483939Y17911194D01*
X11082805Y17745449D01*
X10775634Y17438814D01*
X10609190Y17037970D01*
X10608811Y16603944D01*
X10290811Y16603944D01*
X10291189Y17036066D01*
X10125444Y17437200D01*
X9818809Y17744371D01*
X9417965Y17910815D01*
X8983939Y17911194D01*
X8582805Y17745449D01*
X8275634Y17438814D01*
X8109190Y17037970D01*
X8108811Y16603944D01*
X456000Y16603944D01*
X456000Y19437296D01*
X4348691Y19437296D01*
X4619261Y18782467D01*
X5119827Y18281027D01*
X5774183Y18009315D01*
X6482709Y18008696D01*
X7137538Y18279266D01*
X7638978Y18779832D01*
X7823389Y19223944D01*
X8108811Y19223944D01*
X8274556Y18822810D01*
X8581191Y18515639D01*
X8982035Y18349195D01*
X9416061Y18348816D01*
X9817195Y18514561D01*
X10124366Y18821196D01*
X10290810Y19222040D01*
X10290811Y19223944D01*
X10608811Y19223944D01*
X10774556Y18822810D01*
X11081191Y18515639D01*
X11482035Y18349195D01*
X11916061Y18348816D01*
X12317195Y18514561D01*
X12624366Y18821196D01*
X12699980Y19003297D01*
X12774556Y18822810D01*
X13081191Y18515639D01*
X13482035Y18349195D01*
X13916061Y18348816D01*
X14317195Y18514561D01*
X14624366Y18821196D01*
X14790810Y19222040D01*
X14790997Y19437296D01*
X17488691Y19437296D01*
X17759261Y18782467D01*
X18259827Y18281027D01*
X18914183Y18009315D01*
X19622709Y18008696D01*
X20277538Y18279266D01*
X20778978Y18779832D01*
X21050690Y19434188D01*
X21050791Y19550442D01*
X64090433Y19550442D01*
X64193655Y19300625D01*
X64384620Y19109326D01*
X64634256Y19005668D01*
X64730996Y19005584D01*
X65045790Y18690789D01*
X65210597Y18580669D01*
X65405000Y18542000D01*
X66222064Y18542000D01*
X66289620Y18474326D01*
X66539256Y18370668D01*
X66809558Y18370433D01*
X67059375Y18473655D01*
X67250674Y18664620D01*
X67354332Y18914256D01*
X67354333Y18915442D01*
X70440433Y18915442D01*
X70543655Y18665625D01*
X70734620Y18474326D01*
X70984256Y18370668D01*
X71254558Y18370433D01*
X71504375Y18473655D01*
X71572840Y18542000D01*
X73842064Y18542000D01*
X73909620Y18474326D01*
X74159256Y18370668D01*
X74429558Y18370433D01*
X74679375Y18473655D01*
X74870674Y18664620D01*
X74974332Y18914256D01*
X74974567Y19184558D01*
X74871345Y19434375D01*
X74680380Y19625674D01*
X74430744Y19729332D01*
X74160442Y19729567D01*
X73910625Y19626345D01*
X73842160Y19558000D01*
X71572936Y19558000D01*
X71505380Y19625674D01*
X71255744Y19729332D01*
X70985442Y19729567D01*
X70735625Y19626345D01*
X70544326Y19435380D01*
X70440668Y19185744D01*
X70440433Y18915442D01*
X67354333Y18915442D01*
X67354567Y19184558D01*
X67251345Y19434375D01*
X67060380Y19625674D01*
X66810744Y19729332D01*
X66540442Y19729567D01*
X66290625Y19626345D01*
X66222160Y19558000D01*
X65615421Y19558000D01*
X65449484Y19723937D01*
X65449567Y19819558D01*
X65346345Y20069375D01*
X65155380Y20260674D01*
X64905744Y20364332D01*
X64635442Y20364567D01*
X64385625Y20261345D01*
X64194326Y20070380D01*
X64090668Y19820744D01*
X64090433Y19550442D01*
X21050791Y19550442D01*
X21051309Y20142714D01*
X20780739Y20797543D01*
X20280173Y21298983D01*
X19903378Y21455442D01*
X29800433Y21455442D01*
X29903655Y21205625D01*
X30094620Y21014326D01*
X30344256Y20910668D01*
X30614558Y20910433D01*
X30864375Y21013655D01*
X31055674Y21204620D01*
X31159332Y21454256D01*
X31159567Y21724558D01*
X31056345Y21974375D01*
X31002118Y22028697D01*
X31325421Y22352000D01*
X31932064Y22352000D01*
X31999620Y22284326D01*
X32249256Y22180668D01*
X32519558Y22180433D01*
X32769375Y22283655D01*
X32960674Y22474620D01*
X33064332Y22724256D01*
X33064333Y22725442D01*
X58375433Y22725442D01*
X58478655Y22475625D01*
X58669620Y22284326D01*
X58919256Y22180668D01*
X59189558Y22180433D01*
X59439375Y22283655D01*
X59507840Y22352000D01*
X61142064Y22352000D01*
X61209620Y22284326D01*
X61459256Y22180668D01*
X61729558Y22180433D01*
X61979375Y22283655D01*
X62170674Y22474620D01*
X62274332Y22724256D01*
X62274567Y22994558D01*
X62171345Y23244375D01*
X62055481Y23360442D01*
X74250433Y23360442D01*
X74353655Y23110625D01*
X74544620Y22919326D01*
X74794256Y22815668D01*
X75064558Y22815433D01*
X75314375Y22918655D01*
X75382840Y22987000D01*
X76382064Y22987000D01*
X76449620Y22919326D01*
X76699256Y22815668D01*
X76969558Y22815433D01*
X77219375Y22918655D01*
X77410674Y23109620D01*
X77514332Y23359256D01*
X77514567Y23629558D01*
X77411345Y23879375D01*
X77220380Y24070674D01*
X76970744Y24174332D01*
X76700442Y24174567D01*
X76450625Y24071345D01*
X76382160Y24003000D01*
X75382936Y24003000D01*
X75315380Y24070674D01*
X75065744Y24174332D01*
X74795442Y24174567D01*
X74545625Y24071345D01*
X74354326Y23880380D01*
X74250668Y23630744D01*
X74250433Y23360442D01*
X62055481Y23360442D01*
X61980380Y23435674D01*
X61730744Y23539332D01*
X61460442Y23539567D01*
X61210625Y23436345D01*
X61142160Y23368000D01*
X59507936Y23368000D01*
X59440380Y23435674D01*
X59190744Y23539332D01*
X58920442Y23539567D01*
X58670625Y23436345D01*
X58479326Y23245380D01*
X58375668Y22995744D01*
X58375433Y22725442D01*
X33064333Y22725442D01*
X33064567Y22994558D01*
X32961345Y23244375D01*
X32770380Y23435674D01*
X32520744Y23539332D01*
X32250442Y23539567D01*
X32000625Y23436345D01*
X31932160Y23368000D01*
X31115000Y23368000D01*
X30920597Y23329331D01*
X30755790Y23219211D01*
X30120790Y22584210D01*
X30010669Y22419403D01*
X29972000Y22225000D01*
X29972000Y22042936D01*
X29904326Y21975380D01*
X29800668Y21725744D01*
X29800433Y21455442D01*
X19903378Y21455442D01*
X19625817Y21570695D01*
X18917291Y21571314D01*
X18262462Y21300744D01*
X17761022Y20800178D01*
X17489310Y20145822D01*
X17488691Y19437296D01*
X14790997Y19437296D01*
X14791189Y19656066D01*
X14625444Y20057200D01*
X14318809Y20364371D01*
X13917965Y20530815D01*
X13483939Y20531194D01*
X13082805Y20365449D01*
X12775634Y20058814D01*
X12700020Y19876713D01*
X12625444Y20057200D01*
X12318809Y20364371D01*
X11917965Y20530815D01*
X11483939Y20531194D01*
X11082805Y20365449D01*
X10775634Y20058814D01*
X10609190Y19657970D01*
X10608811Y19223944D01*
X10290811Y19223944D01*
X10291189Y19656066D01*
X10125444Y20057200D01*
X9818809Y20364371D01*
X9417965Y20530815D01*
X8983939Y20531194D01*
X8582805Y20365449D01*
X8275634Y20058814D01*
X8109190Y19657970D01*
X8108811Y19223944D01*
X7823389Y19223944D01*
X7910690Y19434188D01*
X7911309Y20142714D01*
X7640739Y20797543D01*
X7140173Y21298983D01*
X6485817Y21570695D01*
X5777291Y21571314D01*
X5122462Y21300744D01*
X4621022Y20800178D01*
X4349310Y20145822D01*
X4348691Y19437296D01*
X456000Y19437296D01*
X456000Y23910395D01*
X68499353Y23910395D01*
X68602575Y23660578D01*
X68793540Y23469279D01*
X69043176Y23365621D01*
X69313478Y23365386D01*
X69563295Y23468608D01*
X69754594Y23659573D01*
X69858252Y23909209D01*
X69858336Y24005949D01*
X70155102Y24302715D01*
X71300936Y24302715D01*
X71368492Y24235041D01*
X71618128Y24131383D01*
X71888430Y24131148D01*
X72138247Y24234370D01*
X72329546Y24425335D01*
X72433204Y24674971D01*
X72433439Y24945273D01*
X72330217Y25195090D01*
X72139252Y25386389D01*
X71889616Y25490047D01*
X71619314Y25490282D01*
X71369497Y25387060D01*
X71301032Y25318715D01*
X71165930Y25318715D01*
X71165968Y25362548D01*
X73062388Y27258967D01*
X73159865Y27258882D01*
X73410252Y27362339D01*
X73601987Y27553741D01*
X73705882Y27803946D01*
X73706118Y28074865D01*
X73602661Y28325252D01*
X73411259Y28516987D01*
X73161054Y28620882D01*
X72890135Y28621118D01*
X72639748Y28517661D01*
X72448013Y28326259D01*
X72344118Y28076054D01*
X72344032Y27977453D01*
X70447613Y26081033D01*
X70350135Y26081118D01*
X70099748Y25977661D01*
X69908013Y25786259D01*
X69804118Y25536054D01*
X69803904Y25290713D01*
X69750279Y25280046D01*
X69585472Y25169925D01*
X69139984Y24724437D01*
X69044362Y24724520D01*
X68794545Y24621298D01*
X68603246Y24430333D01*
X68499588Y24180697D01*
X68499353Y23910395D01*
X456000Y23910395D01*
X456000Y27805135D01*
X28528882Y27805135D01*
X28632339Y27554748D01*
X28823741Y27363013D01*
X29073946Y27259118D01*
X29172548Y27259032D01*
X29219597Y27211983D01*
X29219597Y25855126D01*
X29150610Y25786259D01*
X29046715Y25536054D01*
X29046479Y25265135D01*
X29149936Y25014748D01*
X29341338Y24823013D01*
X29591543Y24719118D01*
X29862462Y24718882D01*
X30104085Y24818718D01*
X30343946Y24719118D01*
X30614865Y24718882D01*
X30865252Y24822339D01*
X31056987Y25013741D01*
X31160882Y25263946D01*
X31161118Y25534865D01*
X31057661Y25785252D01*
X30988000Y25855034D01*
X30988000Y26657980D01*
X31474211Y27144190D01*
X31474213Y27144193D01*
X31596417Y27266397D01*
X31613946Y27259118D01*
X31884865Y27258882D01*
X32135252Y27362339D01*
X32326987Y27553741D01*
X32430882Y27803946D01*
X32430883Y27805135D01*
X36783882Y27805135D01*
X36887339Y27554748D01*
X36957000Y27484966D01*
X36957000Y25855126D01*
X36888013Y25786259D01*
X36784118Y25536054D01*
X36783882Y25265135D01*
X36887339Y25014748D01*
X37078741Y24823013D01*
X37328946Y24719118D01*
X37599865Y24718882D01*
X37850252Y24822339D01*
X38041987Y25013741D01*
X38145882Y25263946D01*
X38145883Y25265135D01*
X43768882Y25265135D01*
X43872339Y25014748D01*
X44063741Y24823013D01*
X44313946Y24719118D01*
X44584865Y24718882D01*
X44835252Y24822339D01*
X45026987Y25013741D01*
X45130882Y25263946D01*
X45130968Y25362548D01*
X47027388Y27258967D01*
X47124865Y27258882D01*
X47375252Y27362339D01*
X47566987Y27553741D01*
X47670882Y27803946D01*
X47670883Y27805135D01*
X54563882Y27805135D01*
X54667339Y27554748D01*
X54858741Y27363013D01*
X55108946Y27259118D01*
X55207548Y27259032D01*
X55254597Y27211983D01*
X55254597Y25855126D01*
X55185610Y25786259D01*
X55081715Y25536054D01*
X55081479Y25265135D01*
X55184936Y25014748D01*
X55376338Y24823013D01*
X55626543Y24719118D01*
X55897462Y24718882D01*
X56139085Y24818718D01*
X56378946Y24719118D01*
X56649865Y24718882D01*
X56900252Y24822339D01*
X57091987Y25013741D01*
X57195882Y25263946D01*
X57196118Y25534865D01*
X57092661Y25785252D01*
X57023000Y25855034D01*
X57023000Y26459580D01*
X57822387Y27258967D01*
X57919865Y27258882D01*
X58170252Y27362339D01*
X58361987Y27553741D01*
X58465882Y27803946D01*
X58465883Y27805135D01*
X62818882Y27805135D01*
X62922339Y27554748D01*
X62992000Y27484966D01*
X62992000Y25855126D01*
X62923013Y25786259D01*
X62819118Y25536054D01*
X62818882Y25265135D01*
X62922339Y25014748D01*
X63113741Y24823013D01*
X63363946Y24719118D01*
X63634865Y24718882D01*
X63885252Y24822339D01*
X64076987Y25013741D01*
X64180882Y25263946D01*
X64181118Y25534865D01*
X64077661Y25785252D01*
X64008000Y25855034D01*
X64008000Y27484874D01*
X64076987Y27553741D01*
X64180882Y27803946D01*
X64181118Y28074865D01*
X64077661Y28325252D01*
X63886259Y28516987D01*
X63636054Y28620882D01*
X63365135Y28621118D01*
X63114748Y28517661D01*
X62923013Y28326259D01*
X62819118Y28076054D01*
X62818882Y27805135D01*
X58465883Y27805135D01*
X58466118Y28074865D01*
X58362661Y28325252D01*
X58171259Y28516987D01*
X57921054Y28620882D01*
X57650135Y28621118D01*
X57399748Y28517661D01*
X57208013Y28326259D01*
X57104118Y28076054D01*
X57104032Y27977452D01*
X56270597Y27144017D01*
X56270597Y27422403D01*
X56231928Y27616806D01*
X56121807Y27781613D01*
X55926033Y27977387D01*
X55926118Y28074865D01*
X55822661Y28325252D01*
X55631259Y28516987D01*
X55381054Y28620882D01*
X55110135Y28621118D01*
X54859748Y28517661D01*
X54668013Y28326259D01*
X54564118Y28076054D01*
X54563882Y27805135D01*
X47670883Y27805135D01*
X47671118Y28074865D01*
X47567661Y28325252D01*
X47376259Y28516987D01*
X47126054Y28620882D01*
X46855135Y28621118D01*
X46604748Y28517661D01*
X46413013Y28326259D01*
X46309118Y28076054D01*
X46309032Y27977453D01*
X44412613Y26081033D01*
X44315135Y26081118D01*
X44064748Y25977661D01*
X43873013Y25786259D01*
X43769118Y25536054D01*
X43768882Y25265135D01*
X38145883Y25265135D01*
X38146118Y25534865D01*
X38042661Y25785252D01*
X37973000Y25855034D01*
X37973000Y27484874D01*
X38041987Y27553741D01*
X38145882Y27803946D01*
X38146118Y28074865D01*
X38042661Y28325252D01*
X37851259Y28516987D01*
X37601054Y28620882D01*
X37330135Y28621118D01*
X37079748Y28517661D01*
X36888013Y28326259D01*
X36784118Y28076054D01*
X36783882Y27805135D01*
X32430883Y27805135D01*
X32431118Y28074865D01*
X32327661Y28325252D01*
X32136259Y28516987D01*
X31886054Y28620882D01*
X31615135Y28621118D01*
X31364748Y28517661D01*
X31173013Y28326259D01*
X31140046Y28246866D01*
X30755793Y27862613D01*
X30755790Y27862611D01*
X30235597Y27342417D01*
X30235597Y27422403D01*
X30196928Y27616806D01*
X30086807Y27781613D01*
X29891033Y27977387D01*
X29891118Y28074865D01*
X29787661Y28325252D01*
X29596259Y28516987D01*
X29346054Y28620882D01*
X29075135Y28621118D01*
X28824748Y28517661D01*
X28633013Y28326259D01*
X28529118Y28076054D01*
X28528882Y27805135D01*
X456000Y27805135D01*
X456000Y30323109D01*
X38451908Y30323109D01*
X38555365Y30072722D01*
X38746767Y29880987D01*
X38996972Y29777092D01*
X39267891Y29776856D01*
X39518278Y29880313D01*
X39710013Y30071715D01*
X39809039Y30310195D01*
X64612074Y30310195D01*
X64715531Y30059808D01*
X64906933Y29868073D01*
X65157138Y29764178D01*
X65428057Y29763942D01*
X65678444Y29867399D01*
X65870179Y30058801D01*
X65974074Y30309006D01*
X65974310Y30579925D01*
X65870853Y30830312D01*
X65801192Y30900094D01*
X65801192Y31427772D01*
X66077387Y31703967D01*
X66174865Y31703882D01*
X66425252Y31807339D01*
X66616987Y31998741D01*
X66720882Y32248946D01*
X66721118Y32519865D01*
X66617661Y32770252D01*
X66426259Y32961987D01*
X66176054Y33065882D01*
X65905135Y33066118D01*
X65654748Y32962661D01*
X65463013Y32771259D01*
X65359118Y32521054D01*
X65359032Y32422452D01*
X64933982Y31997402D01*
X64823861Y31832595D01*
X64785192Y31638192D01*
X64785192Y30900186D01*
X64716205Y30831319D01*
X64612310Y30581114D01*
X64612074Y30310195D01*
X39809039Y30310195D01*
X39813908Y30321920D01*
X39814144Y30592839D01*
X39710687Y30843226D01*
X39641026Y30913008D01*
X39641026Y31302606D01*
X40042388Y31703967D01*
X40139865Y31703882D01*
X40390252Y31807339D01*
X40581987Y31998741D01*
X40685882Y32248946D01*
X40686118Y32519865D01*
X40582661Y32770252D01*
X40391259Y32961987D01*
X40141054Y33065882D01*
X39870135Y33066118D01*
X39619748Y32962661D01*
X39428013Y32771259D01*
X39324118Y32521054D01*
X39324032Y32422453D01*
X38773816Y31872236D01*
X38663695Y31707429D01*
X38625026Y31513026D01*
X38625026Y30913100D01*
X38556039Y30844233D01*
X38452144Y30594028D01*
X38451908Y30323109D01*
X456000Y30323109D01*
X456000Y37965442D01*
X30435433Y37965442D01*
X30538655Y37715625D01*
X30729620Y37524326D01*
X30979256Y37420668D01*
X31249558Y37420433D01*
X31499375Y37523655D01*
X31567840Y37592000D01*
X35107064Y37592000D01*
X35174620Y37524326D01*
X35424256Y37420668D01*
X35694558Y37420433D01*
X35944375Y37523655D01*
X36135674Y37714620D01*
X36239332Y37964256D01*
X36239333Y37965442D01*
X38690433Y37965442D01*
X38793655Y37715625D01*
X38984620Y37524326D01*
X39234256Y37420668D01*
X39504558Y37420433D01*
X39754375Y37523655D01*
X39822840Y37592000D01*
X42092064Y37592000D01*
X42159620Y37524326D01*
X42409256Y37420668D01*
X42679558Y37420433D01*
X42929375Y37523655D01*
X43120674Y37714620D01*
X43224332Y37964256D01*
X43224333Y37965442D01*
X56470433Y37965442D01*
X56573655Y37715625D01*
X56764620Y37524326D01*
X57014256Y37420668D01*
X57284558Y37420433D01*
X57534375Y37523655D01*
X57602840Y37592000D01*
X61142064Y37592000D01*
X61209620Y37524326D01*
X61459256Y37420668D01*
X61729558Y37420433D01*
X61979375Y37523655D01*
X62170674Y37714620D01*
X62274332Y37964256D01*
X62274567Y38234558D01*
X62171345Y38484375D01*
X61980380Y38675674D01*
X61730744Y38779332D01*
X61460442Y38779567D01*
X61210625Y38676345D01*
X61142160Y38608000D01*
X57602936Y38608000D01*
X57535380Y38675674D01*
X57285744Y38779332D01*
X57015442Y38779567D01*
X56765625Y38676345D01*
X56574326Y38485380D01*
X56470668Y38235744D01*
X56470433Y37965442D01*
X43224333Y37965442D01*
X43224567Y38234558D01*
X43121345Y38484375D01*
X42930380Y38675674D01*
X42680744Y38779332D01*
X42410442Y38779567D01*
X42160625Y38676345D01*
X42092160Y38608000D01*
X39822936Y38608000D01*
X39755380Y38675674D01*
X39505744Y38779332D01*
X39235442Y38779567D01*
X38985625Y38676345D01*
X38794326Y38485380D01*
X38690668Y38235744D01*
X38690433Y37965442D01*
X36239333Y37965442D01*
X36239567Y38234558D01*
X36136345Y38484375D01*
X35945380Y38675674D01*
X35695744Y38779332D01*
X35425442Y38779567D01*
X35175625Y38676345D01*
X35107160Y38608000D01*
X31567936Y38608000D01*
X31500380Y38675674D01*
X31250744Y38779332D01*
X30980442Y38779567D01*
X30730625Y38676345D01*
X30539326Y38485380D01*
X30435668Y38235744D01*
X30435433Y37965442D01*
X456000Y37965442D01*
X456000Y43045442D01*
X10115433Y43045442D01*
X10218655Y42795625D01*
X10409620Y42604326D01*
X10659256Y42500668D01*
X10929558Y42500433D01*
X11179375Y42603655D01*
X11370674Y42794620D01*
X11474332Y43044256D01*
X11474567Y43314558D01*
X11371345Y43564375D01*
X11303000Y43632840D01*
X11303000Y44315442D01*
X16465433Y44315442D01*
X16568655Y44065625D01*
X16637000Y43997160D01*
X16637000Y41727936D01*
X16569326Y41660380D01*
X16465668Y41410744D01*
X16465433Y41140442D01*
X16568655Y40890625D01*
X16759620Y40699326D01*
X17009256Y40595668D01*
X17279558Y40595433D01*
X17529375Y40698655D01*
X17720674Y40889620D01*
X17824332Y41139256D01*
X17824567Y41409558D01*
X17721345Y41659375D01*
X17653000Y41727840D01*
X17653000Y43997064D01*
X17720674Y44064620D01*
X17824332Y44314256D01*
X17824567Y44584558D01*
X17721345Y44834375D01*
X17530380Y45025674D01*
X17280744Y45129332D01*
X17010442Y45129567D01*
X16760625Y45026345D01*
X16569326Y44835380D01*
X16465668Y44585744D01*
X16465433Y44315442D01*
X11303000Y44315442D01*
X11303000Y46779580D01*
X11468937Y46945516D01*
X11564558Y46945433D01*
X11814375Y47048655D01*
X12005674Y47239620D01*
X12109332Y47489256D01*
X12109567Y47759558D01*
X12006345Y48009375D01*
X11815380Y48200674D01*
X11565744Y48304332D01*
X11295442Y48304567D01*
X11045625Y48201345D01*
X10854326Y48010380D01*
X10750668Y47760744D01*
X10750584Y47664004D01*
X10435790Y47349210D01*
X10325669Y47184403D01*
X10287000Y46990000D01*
X10287000Y43632936D01*
X10219326Y43565380D01*
X10115668Y43315744D01*
X10115433Y43045442D01*
X456000Y43045442D01*
X456000Y51935442D01*
X7575433Y51935442D01*
X7678655Y51685625D01*
X7869620Y51494326D01*
X8119256Y51390668D01*
X8215996Y51390584D01*
X8845516Y50761064D01*
X8845433Y50665442D01*
X8948655Y50415625D01*
X9139620Y50224326D01*
X9389256Y50120668D01*
X9659558Y50120433D01*
X9909375Y50223655D01*
X10100674Y50414620D01*
X10204332Y50664256D01*
X10204333Y50665442D01*
X25990433Y50665442D01*
X26093655Y50415625D01*
X26162000Y50347160D01*
X26162000Y48077936D01*
X26094326Y48010380D01*
X25990668Y47760744D01*
X25990433Y47490442D01*
X26093655Y47240625D01*
X26284620Y47049326D01*
X26534256Y46945668D01*
X26804558Y46945433D01*
X27054375Y47048655D01*
X27245674Y47239620D01*
X27349332Y47489256D01*
X27349411Y47580511D01*
X27439558Y47580433D01*
X27689375Y47683655D01*
X27880674Y47874620D01*
X27984332Y48124256D01*
X27984567Y48394558D01*
X27881345Y48644375D01*
X27813000Y48712840D01*
X27813000Y50982064D01*
X27880674Y51049620D01*
X27984332Y51299256D01*
X27984567Y51569558D01*
X27881345Y51819375D01*
X27690380Y52010674D01*
X27440744Y52114332D01*
X27170442Y52114567D01*
X26920625Y52011345D01*
X26729326Y51820380D01*
X26625668Y51570744D01*
X26625589Y51479489D01*
X26535442Y51479567D01*
X26285625Y51376345D01*
X26094326Y51185380D01*
X25990668Y50935744D01*
X25990433Y50665442D01*
X10204333Y50665442D01*
X10204567Y50934558D01*
X10101345Y51184375D01*
X9910380Y51375674D01*
X9660744Y51479332D01*
X9564004Y51479416D01*
X8934484Y52108936D01*
X8934567Y52204558D01*
X8831345Y52454375D01*
X8640380Y52645674D01*
X8390744Y52749332D01*
X8120442Y52749567D01*
X7870625Y52646345D01*
X7679326Y52455380D01*
X7575668Y52205744D01*
X7575433Y51935442D01*
X456000Y51935442D01*
X456000Y55110442D01*
X29800433Y55110442D01*
X29903655Y54860625D01*
X30094620Y54669326D01*
X30344256Y54565668D01*
X30440996Y54565584D01*
X31705516Y53301064D01*
X31705433Y53205442D01*
X31808655Y52955625D01*
X31999620Y52764326D01*
X32249256Y52660668D01*
X32519558Y52660433D01*
X32769375Y52763655D01*
X32960674Y52954620D01*
X33064332Y53204256D01*
X33064567Y53474558D01*
X32961345Y53724375D01*
X32770380Y53915674D01*
X32520744Y54019332D01*
X32424004Y54019416D01*
X31159484Y55283936D01*
X31159567Y55379558D01*
X31056345Y55629375D01*
X31040328Y55645420D01*
X31097740Y55634000D01*
X31132260Y55634000D01*
X31469404Y55701062D01*
X31584693Y55778096D01*
X31606546Y55744135D01*
X31733866Y55657141D01*
X31885000Y55626536D01*
X32555043Y55626536D01*
X32660790Y55520789D01*
X32660793Y55520787D01*
X33069682Y55111897D01*
X33069599Y55016276D01*
X33172821Y54766459D01*
X33363786Y54575160D01*
X33613422Y54471502D01*
X33883724Y54471267D01*
X34133541Y54574489D01*
X34324840Y54765454D01*
X34428498Y55015090D01*
X34428733Y55285392D01*
X34325511Y55535209D01*
X34134546Y55726508D01*
X33884910Y55830166D01*
X33788171Y55830250D01*
X33379213Y56239207D01*
X33379211Y56239210D01*
X33273464Y56344957D01*
X33273464Y57015000D01*
X33246897Y57156190D01*
X33163454Y57285865D01*
X33036134Y57372859D01*
X32885000Y57403464D01*
X31916536Y57403464D01*
X31946198Y57447856D01*
X32013260Y57785000D01*
X31946198Y58122144D01*
X31755221Y58407961D01*
X31737203Y58420000D01*
X31750000Y58428550D01*
X32030596Y58241062D01*
X32367740Y58174000D01*
X32402260Y58174000D01*
X32739404Y58241062D01*
X33025221Y58432039D01*
X33102036Y58547000D01*
X34139830Y58547000D01*
X35261040Y57425790D01*
X35425846Y57315669D01*
X35458100Y57309254D01*
X35620250Y57277000D01*
X36377064Y57277000D01*
X36444620Y57209326D01*
X36694256Y57105668D01*
X36964558Y57105433D01*
X37214375Y57208655D01*
X37405674Y57399620D01*
X37509332Y57649256D01*
X37509567Y57919558D01*
X37406345Y58169375D01*
X37215380Y58360674D01*
X36965744Y58464332D01*
X36695442Y58464567D01*
X36445625Y58361345D01*
X36377160Y58293000D01*
X35830670Y58293000D01*
X35576670Y58547000D01*
X38282064Y58547000D01*
X38349620Y58479326D01*
X38599256Y58375668D01*
X38869558Y58375433D01*
X39119375Y58478655D01*
X39310674Y58669620D01*
X39414332Y58919256D01*
X39414567Y59189558D01*
X39311345Y59439375D01*
X39120380Y59630674D01*
X38870744Y59734332D01*
X38600442Y59734567D01*
X38350625Y59631345D01*
X38282160Y59563000D01*
X35135421Y59563000D01*
X34969484Y59728937D01*
X34969567Y59824558D01*
X34866345Y60074375D01*
X34675380Y60265674D01*
X34425744Y60369332D01*
X34155442Y60369567D01*
X33905625Y60266345D01*
X33714326Y60075380D01*
X33610668Y59825744D01*
X33610440Y59563000D01*
X33102036Y59563000D01*
X33025221Y59677961D01*
X32739404Y59868938D01*
X32402260Y59936000D01*
X32367740Y59936000D01*
X32030596Y59868938D01*
X31750000Y59681450D01*
X31469404Y59868938D01*
X31132260Y59936000D01*
X31097740Y59936000D01*
X30760596Y59868938D01*
X30474779Y59677961D01*
X30283802Y59392144D01*
X30216740Y59055000D01*
X30283802Y58717856D01*
X30474779Y58432039D01*
X30492797Y58420000D01*
X30474779Y58407961D01*
X30283802Y58122144D01*
X30216740Y57785000D01*
X30283802Y57447856D01*
X30474779Y57162039D01*
X30492797Y57150000D01*
X30474779Y57137961D01*
X30283802Y56852144D01*
X30216740Y56515000D01*
X30283802Y56177856D01*
X30453107Y55924473D01*
X30345442Y55924567D01*
X30095625Y55821345D01*
X29904326Y55630380D01*
X29800668Y55380744D01*
X29800433Y55110442D01*
X456000Y55110442D01*
X456000Y57015442D01*
X25355433Y57015442D01*
X25458655Y56765625D01*
X25649620Y56574326D01*
X25899256Y56470668D01*
X26169558Y56470433D01*
X26419375Y56573655D01*
X26610674Y56764620D01*
X26714332Y57014256D01*
X26714416Y57110996D01*
X27978936Y58375516D01*
X28074558Y58375433D01*
X28324375Y58478655D01*
X28515674Y58669620D01*
X28619332Y58919256D01*
X28619567Y59189558D01*
X28516345Y59439375D01*
X28325380Y59630674D01*
X28075744Y59734332D01*
X27805442Y59734567D01*
X27555625Y59631345D01*
X27364326Y59440380D01*
X27260668Y59190744D01*
X27260584Y59094004D01*
X25996064Y57829484D01*
X25900442Y57829567D01*
X25650625Y57726345D01*
X25459326Y57535380D01*
X25355668Y57285744D01*
X25355433Y57015442D01*
X456000Y57015442D01*
X456000Y66555000D01*
X3541536Y66555000D01*
X3541536Y64255000D01*
X3568103Y64113810D01*
X3651546Y63984135D01*
X3778866Y63897141D01*
X3930000Y63866536D01*
X6230000Y63866536D01*
X6371190Y63893103D01*
X6500865Y63976546D01*
X6587859Y64103866D01*
X6618464Y64255000D01*
X6618464Y65101801D01*
X8628735Y65101801D01*
X8861325Y64538891D01*
X9291626Y64107838D01*
X9854129Y63874266D01*
X10463199Y63873735D01*
X11026109Y64106325D01*
X11457162Y64536626D01*
X11690734Y65099129D01*
X11691265Y65708199D01*
X11458675Y66271109D01*
X11028374Y66702162D01*
X10465871Y66935734D01*
X9856801Y66936265D01*
X9293891Y66703675D01*
X8862838Y66273374D01*
X8629266Y65710871D01*
X8628735Y65101801D01*
X6618464Y65101801D01*
X6618464Y66555000D01*
X6591897Y66696190D01*
X6508454Y66825865D01*
X6381134Y66912859D01*
X6230000Y66943464D01*
X3930000Y66943464D01*
X3788810Y66916897D01*
X3659135Y66833454D01*
X3572141Y66706134D01*
X3541536Y66555000D01*
X456000Y66555000D01*
X456000Y71544000D01*
X79544000Y71544000D01*
X79544000Y456000D01*
X79544000Y456000D01*
G37*
X79544000Y456000D02*
X456000Y456000D01*
X456000Y8135000D01*
X29576536Y8135000D01*
X29576536Y5835000D01*
X29603103Y5693810D01*
X29686546Y5564135D01*
X29813866Y5477141D01*
X29965000Y5446536D01*
X32265000Y5446536D01*
X32406190Y5473103D01*
X32535865Y5556546D01*
X32622859Y5683866D01*
X32653464Y5835000D01*
X32653464Y6681801D01*
X34663735Y6681801D01*
X34896325Y6118891D01*
X35326626Y5687838D01*
X35889129Y5454266D01*
X36498199Y5453735D01*
X37061109Y5686325D01*
X37492162Y6116626D01*
X37725734Y6679129D01*
X37725736Y6681801D01*
X39743735Y6681801D01*
X39976325Y6118891D01*
X40406626Y5687838D01*
X40969129Y5454266D01*
X41578199Y5453735D01*
X42141109Y5686325D01*
X42572162Y6116626D01*
X42805734Y6679129D01*
X42805736Y6681801D01*
X44823735Y6681801D01*
X45056325Y6118891D01*
X45486626Y5687838D01*
X46049129Y5454266D01*
X46658199Y5453735D01*
X47221109Y5686325D01*
X47652162Y6116626D01*
X47885734Y6679129D01*
X47886265Y7288199D01*
X47653675Y7851109D01*
X47223374Y8282162D01*
X46660871Y8515734D01*
X46051801Y8516265D01*
X45488891Y8283675D01*
X45057838Y7853374D01*
X44824266Y7290871D01*
X44823735Y6681801D01*
X42805736Y6681801D01*
X42806265Y7288199D01*
X42573675Y7851109D01*
X42143374Y8282162D01*
X41580871Y8515734D01*
X40971801Y8516265D01*
X40408891Y8283675D01*
X39977838Y7853374D01*
X39744266Y7290871D01*
X39743735Y6681801D01*
X37725736Y6681801D01*
X37726265Y7288199D01*
X37493675Y7851109D01*
X37063374Y8282162D01*
X36500871Y8515734D01*
X35891801Y8516265D01*
X35328891Y8283675D01*
X34897838Y7853374D01*
X34664266Y7290871D01*
X34663735Y6681801D01*
X32653464Y6681801D01*
X32653464Y8135000D01*
X32626897Y8276190D01*
X32543454Y8405865D01*
X32416134Y8492859D01*
X32265000Y8523464D01*
X29965000Y8523464D01*
X29823810Y8496897D01*
X29694135Y8413454D01*
X29607141Y8286134D01*
X29576536Y8135000D01*
X456000Y8135000D01*
X456000Y13757296D01*
X4348691Y13757296D01*
X4619261Y13102467D01*
X5119827Y12601027D01*
X5774183Y12329315D01*
X6482709Y12328696D01*
X7137538Y12599266D01*
X7638978Y13099832D01*
X7910690Y13754188D01*
X7910692Y13757296D01*
X17488691Y13757296D01*
X17759261Y13102467D01*
X18259827Y12601027D01*
X18914183Y12329315D01*
X19622709Y12328696D01*
X20277538Y12599266D01*
X20778978Y13099832D01*
X21050690Y13754188D01*
X21051309Y14462714D01*
X20780739Y15117543D01*
X20280173Y15618983D01*
X19625817Y15890695D01*
X18917291Y15891314D01*
X18262462Y15620744D01*
X17761022Y15120178D01*
X17489310Y14465822D01*
X17488691Y13757296D01*
X7910692Y13757296D01*
X7911309Y14462714D01*
X7640739Y15117543D01*
X7140173Y15618983D01*
X6485817Y15890695D01*
X5777291Y15891314D01*
X5122462Y15620744D01*
X4621022Y15120178D01*
X4349310Y14465822D01*
X4348691Y13757296D01*
X456000Y13757296D01*
X456000Y16603944D01*
X8108811Y16603944D01*
X8274556Y16202810D01*
X8581191Y15895639D01*
X8982035Y15729195D01*
X9416061Y15728816D01*
X9817195Y15894561D01*
X10124366Y16201196D01*
X10290810Y16602040D01*
X10290811Y16603944D01*
X10608811Y16603944D01*
X10774556Y16202810D01*
X11081191Y15895639D01*
X11482035Y15729195D01*
X11916061Y15728816D01*
X12317195Y15894561D01*
X12624366Y16201196D01*
X12699980Y16383297D01*
X12774556Y16202810D01*
X13081191Y15895639D01*
X13482035Y15729195D01*
X13916061Y15728816D01*
X14317195Y15894561D01*
X14624366Y16201196D01*
X14790810Y16602040D01*
X14791166Y17010442D01*
X29165433Y17010442D01*
X29268655Y16760625D01*
X29459620Y16569326D01*
X29709256Y16465668D01*
X29979558Y16465433D01*
X30229375Y16568655D01*
X30420674Y16759620D01*
X30524332Y17009256D01*
X30524416Y17105996D01*
X30690421Y17272000D01*
X31932064Y17272000D01*
X31999620Y17204326D01*
X32249256Y17100668D01*
X32519558Y17100433D01*
X32769375Y17203655D01*
X32960674Y17394620D01*
X33064332Y17644256D01*
X33064567Y17914558D01*
X32961345Y18164375D01*
X32770380Y18355674D01*
X32520744Y18459332D01*
X32250442Y18459567D01*
X32000625Y18356345D01*
X31932160Y18288000D01*
X30480000Y18288000D01*
X30285597Y18249331D01*
X30120790Y18139211D01*
X29806063Y17824484D01*
X29710442Y17824567D01*
X29460625Y17721345D01*
X29269326Y17530380D01*
X29165668Y17280744D01*
X29165433Y17010442D01*
X14791166Y17010442D01*
X14791189Y17036066D01*
X14625444Y17437200D01*
X14318809Y17744371D01*
X13917965Y17910815D01*
X13483939Y17911194D01*
X13082805Y17745449D01*
X12775634Y17438814D01*
X12700020Y17256713D01*
X12625444Y17437200D01*
X12318809Y17744371D01*
X11917965Y17910815D01*
X11483939Y17911194D01*
X11082805Y17745449D01*
X10775634Y17438814D01*
X10609190Y17037970D01*
X10608811Y16603944D01*
X10290811Y16603944D01*
X10291189Y17036066D01*
X10125444Y17437200D01*
X9818809Y17744371D01*
X9417965Y17910815D01*
X8983939Y17911194D01*
X8582805Y17745449D01*
X8275634Y17438814D01*
X8109190Y17037970D01*
X8108811Y16603944D01*
X456000Y16603944D01*
X456000Y19437296D01*
X4348691Y19437296D01*
X4619261Y18782467D01*
X5119827Y18281027D01*
X5774183Y18009315D01*
X6482709Y18008696D01*
X7137538Y18279266D01*
X7638978Y18779832D01*
X7823389Y19223944D01*
X8108811Y19223944D01*
X8274556Y18822810D01*
X8581191Y18515639D01*
X8982035Y18349195D01*
X9416061Y18348816D01*
X9817195Y18514561D01*
X10124366Y18821196D01*
X10290810Y19222040D01*
X10290811Y19223944D01*
X10608811Y19223944D01*
X10774556Y18822810D01*
X11081191Y18515639D01*
X11482035Y18349195D01*
X11916061Y18348816D01*
X12317195Y18514561D01*
X12624366Y18821196D01*
X12699980Y19003297D01*
X12774556Y18822810D01*
X13081191Y18515639D01*
X13482035Y18349195D01*
X13916061Y18348816D01*
X14317195Y18514561D01*
X14624366Y18821196D01*
X14790810Y19222040D01*
X14790997Y19437296D01*
X17488691Y19437296D01*
X17759261Y18782467D01*
X18259827Y18281027D01*
X18914183Y18009315D01*
X19622709Y18008696D01*
X20277538Y18279266D01*
X20778978Y18779832D01*
X21050690Y19434188D01*
X21050791Y19550442D01*
X64090433Y19550442D01*
X64193655Y19300625D01*
X64384620Y19109326D01*
X64634256Y19005668D01*
X64730996Y19005584D01*
X65045790Y18690789D01*
X65210597Y18580669D01*
X65405000Y18542000D01*
X66222064Y18542000D01*
X66289620Y18474326D01*
X66539256Y18370668D01*
X66809558Y18370433D01*
X67059375Y18473655D01*
X67250674Y18664620D01*
X67354332Y18914256D01*
X67354333Y18915442D01*
X70440433Y18915442D01*
X70543655Y18665625D01*
X70734620Y18474326D01*
X70984256Y18370668D01*
X71254558Y18370433D01*
X71504375Y18473655D01*
X71572840Y18542000D01*
X73842064Y18542000D01*
X73909620Y18474326D01*
X74159256Y18370668D01*
X74429558Y18370433D01*
X74679375Y18473655D01*
X74870674Y18664620D01*
X74974332Y18914256D01*
X74974567Y19184558D01*
X74871345Y19434375D01*
X74680380Y19625674D01*
X74430744Y19729332D01*
X74160442Y19729567D01*
X73910625Y19626345D01*
X73842160Y19558000D01*
X71572936Y19558000D01*
X71505380Y19625674D01*
X71255744Y19729332D01*
X70985442Y19729567D01*
X70735625Y19626345D01*
X70544326Y19435380D01*
X70440668Y19185744D01*
X70440433Y18915442D01*
X67354333Y18915442D01*
X67354567Y19184558D01*
X67251345Y19434375D01*
X67060380Y19625674D01*
X66810744Y19729332D01*
X66540442Y19729567D01*
X66290625Y19626345D01*
X66222160Y19558000D01*
X65615421Y19558000D01*
X65449484Y19723937D01*
X65449567Y19819558D01*
X65346345Y20069375D01*
X65155380Y20260674D01*
X64905744Y20364332D01*
X64635442Y20364567D01*
X64385625Y20261345D01*
X64194326Y20070380D01*
X64090668Y19820744D01*
X64090433Y19550442D01*
X21050791Y19550442D01*
X21051309Y20142714D01*
X20780739Y20797543D01*
X20280173Y21298983D01*
X19903378Y21455442D01*
X29800433Y21455442D01*
X29903655Y21205625D01*
X30094620Y21014326D01*
X30344256Y20910668D01*
X30614558Y20910433D01*
X30864375Y21013655D01*
X31055674Y21204620D01*
X31159332Y21454256D01*
X31159567Y21724558D01*
X31056345Y21974375D01*
X31002118Y22028697D01*
X31325421Y22352000D01*
X31932064Y22352000D01*
X31999620Y22284326D01*
X32249256Y22180668D01*
X32519558Y22180433D01*
X32769375Y22283655D01*
X32960674Y22474620D01*
X33064332Y22724256D01*
X33064333Y22725442D01*
X58375433Y22725442D01*
X58478655Y22475625D01*
X58669620Y22284326D01*
X58919256Y22180668D01*
X59189558Y22180433D01*
X59439375Y22283655D01*
X59507840Y22352000D01*
X61142064Y22352000D01*
X61209620Y22284326D01*
X61459256Y22180668D01*
X61729558Y22180433D01*
X61979375Y22283655D01*
X62170674Y22474620D01*
X62274332Y22724256D01*
X62274567Y22994558D01*
X62171345Y23244375D01*
X62055481Y23360442D01*
X74250433Y23360442D01*
X74353655Y23110625D01*
X74544620Y22919326D01*
X74794256Y22815668D01*
X75064558Y22815433D01*
X75314375Y22918655D01*
X75382840Y22987000D01*
X76382064Y22987000D01*
X76449620Y22919326D01*
X76699256Y22815668D01*
X76969558Y22815433D01*
X77219375Y22918655D01*
X77410674Y23109620D01*
X77514332Y23359256D01*
X77514567Y23629558D01*
X77411345Y23879375D01*
X77220380Y24070674D01*
X76970744Y24174332D01*
X76700442Y24174567D01*
X76450625Y24071345D01*
X76382160Y24003000D01*
X75382936Y24003000D01*
X75315380Y24070674D01*
X75065744Y24174332D01*
X74795442Y24174567D01*
X74545625Y24071345D01*
X74354326Y23880380D01*
X74250668Y23630744D01*
X74250433Y23360442D01*
X62055481Y23360442D01*
X61980380Y23435674D01*
X61730744Y23539332D01*
X61460442Y23539567D01*
X61210625Y23436345D01*
X61142160Y23368000D01*
X59507936Y23368000D01*
X59440380Y23435674D01*
X59190744Y23539332D01*
X58920442Y23539567D01*
X58670625Y23436345D01*
X58479326Y23245380D01*
X58375668Y22995744D01*
X58375433Y22725442D01*
X33064333Y22725442D01*
X33064567Y22994558D01*
X32961345Y23244375D01*
X32770380Y23435674D01*
X32520744Y23539332D01*
X32250442Y23539567D01*
X32000625Y23436345D01*
X31932160Y23368000D01*
X31115000Y23368000D01*
X30920597Y23329331D01*
X30755790Y23219211D01*
X30120790Y22584210D01*
X30010669Y22419403D01*
X29972000Y22225000D01*
X29972000Y22042936D01*
X29904326Y21975380D01*
X29800668Y21725744D01*
X29800433Y21455442D01*
X19903378Y21455442D01*
X19625817Y21570695D01*
X18917291Y21571314D01*
X18262462Y21300744D01*
X17761022Y20800178D01*
X17489310Y20145822D01*
X17488691Y19437296D01*
X14790997Y19437296D01*
X14791189Y19656066D01*
X14625444Y20057200D01*
X14318809Y20364371D01*
X13917965Y20530815D01*
X13483939Y20531194D01*
X13082805Y20365449D01*
X12775634Y20058814D01*
X12700020Y19876713D01*
X12625444Y20057200D01*
X12318809Y20364371D01*
X11917965Y20530815D01*
X11483939Y20531194D01*
X11082805Y20365449D01*
X10775634Y20058814D01*
X10609190Y19657970D01*
X10608811Y19223944D01*
X10290811Y19223944D01*
X10291189Y19656066D01*
X10125444Y20057200D01*
X9818809Y20364371D01*
X9417965Y20530815D01*
X8983939Y20531194D01*
X8582805Y20365449D01*
X8275634Y20058814D01*
X8109190Y19657970D01*
X8108811Y19223944D01*
X7823389Y19223944D01*
X7910690Y19434188D01*
X7911309Y20142714D01*
X7640739Y20797543D01*
X7140173Y21298983D01*
X6485817Y21570695D01*
X5777291Y21571314D01*
X5122462Y21300744D01*
X4621022Y20800178D01*
X4349310Y20145822D01*
X4348691Y19437296D01*
X456000Y19437296D01*
X456000Y23910395D01*
X68499353Y23910395D01*
X68602575Y23660578D01*
X68793540Y23469279D01*
X69043176Y23365621D01*
X69313478Y23365386D01*
X69563295Y23468608D01*
X69754594Y23659573D01*
X69858252Y23909209D01*
X69858336Y24005949D01*
X70155102Y24302715D01*
X71300936Y24302715D01*
X71368492Y24235041D01*
X71618128Y24131383D01*
X71888430Y24131148D01*
X72138247Y24234370D01*
X72329546Y24425335D01*
X72433204Y24674971D01*
X72433439Y24945273D01*
X72330217Y25195090D01*
X72139252Y25386389D01*
X71889616Y25490047D01*
X71619314Y25490282D01*
X71369497Y25387060D01*
X71301032Y25318715D01*
X71165930Y25318715D01*
X71165968Y25362548D01*
X73062388Y27258967D01*
X73159865Y27258882D01*
X73410252Y27362339D01*
X73601987Y27553741D01*
X73705882Y27803946D01*
X73706118Y28074865D01*
X73602661Y28325252D01*
X73411259Y28516987D01*
X73161054Y28620882D01*
X72890135Y28621118D01*
X72639748Y28517661D01*
X72448013Y28326259D01*
X72344118Y28076054D01*
X72344032Y27977453D01*
X70447613Y26081033D01*
X70350135Y26081118D01*
X70099748Y25977661D01*
X69908013Y25786259D01*
X69804118Y25536054D01*
X69803904Y25290713D01*
X69750279Y25280046D01*
X69585472Y25169925D01*
X69139984Y24724437D01*
X69044362Y24724520D01*
X68794545Y24621298D01*
X68603246Y24430333D01*
X68499588Y24180697D01*
X68499353Y23910395D01*
X456000Y23910395D01*
X456000Y27805135D01*
X28528882Y27805135D01*
X28632339Y27554748D01*
X28823741Y27363013D01*
X29073946Y27259118D01*
X29172548Y27259032D01*
X29219597Y27211983D01*
X29219597Y25855126D01*
X29150610Y25786259D01*
X29046715Y25536054D01*
X29046479Y25265135D01*
X29149936Y25014748D01*
X29341338Y24823013D01*
X29591543Y24719118D01*
X29862462Y24718882D01*
X30104085Y24818718D01*
X30343946Y24719118D01*
X30614865Y24718882D01*
X30865252Y24822339D01*
X31056987Y25013741D01*
X31160882Y25263946D01*
X31161118Y25534865D01*
X31057661Y25785252D01*
X30988000Y25855034D01*
X30988000Y26657980D01*
X31474211Y27144190D01*
X31474213Y27144193D01*
X31596417Y27266397D01*
X31613946Y27259118D01*
X31884865Y27258882D01*
X32135252Y27362339D01*
X32326987Y27553741D01*
X32430882Y27803946D01*
X32430883Y27805135D01*
X36783882Y27805135D01*
X36887339Y27554748D01*
X36957000Y27484966D01*
X36957000Y25855126D01*
X36888013Y25786259D01*
X36784118Y25536054D01*
X36783882Y25265135D01*
X36887339Y25014748D01*
X37078741Y24823013D01*
X37328946Y24719118D01*
X37599865Y24718882D01*
X37850252Y24822339D01*
X38041987Y25013741D01*
X38145882Y25263946D01*
X38145883Y25265135D01*
X43768882Y25265135D01*
X43872339Y25014748D01*
X44063741Y24823013D01*
X44313946Y24719118D01*
X44584865Y24718882D01*
X44835252Y24822339D01*
X45026987Y25013741D01*
X45130882Y25263946D01*
X45130968Y25362548D01*
X47027388Y27258967D01*
X47124865Y27258882D01*
X47375252Y27362339D01*
X47566987Y27553741D01*
X47670882Y27803946D01*
X47670883Y27805135D01*
X54563882Y27805135D01*
X54667339Y27554748D01*
X54858741Y27363013D01*
X55108946Y27259118D01*
X55207548Y27259032D01*
X55254597Y27211983D01*
X55254597Y25855126D01*
X55185610Y25786259D01*
X55081715Y25536054D01*
X55081479Y25265135D01*
X55184936Y25014748D01*
X55376338Y24823013D01*
X55626543Y24719118D01*
X55897462Y24718882D01*
X56139085Y24818718D01*
X56378946Y24719118D01*
X56649865Y24718882D01*
X56900252Y24822339D01*
X57091987Y25013741D01*
X57195882Y25263946D01*
X57196118Y25534865D01*
X57092661Y25785252D01*
X57023000Y25855034D01*
X57023000Y26459580D01*
X57822387Y27258967D01*
X57919865Y27258882D01*
X58170252Y27362339D01*
X58361987Y27553741D01*
X58465882Y27803946D01*
X58465883Y27805135D01*
X62818882Y27805135D01*
X62922339Y27554748D01*
X62992000Y27484966D01*
X62992000Y25855126D01*
X62923013Y25786259D01*
X62819118Y25536054D01*
X62818882Y25265135D01*
X62922339Y25014748D01*
X63113741Y24823013D01*
X63363946Y24719118D01*
X63634865Y24718882D01*
X63885252Y24822339D01*
X64076987Y25013741D01*
X64180882Y25263946D01*
X64181118Y25534865D01*
X64077661Y25785252D01*
X64008000Y25855034D01*
X64008000Y27484874D01*
X64076987Y27553741D01*
X64180882Y27803946D01*
X64181118Y28074865D01*
X64077661Y28325252D01*
X63886259Y28516987D01*
X63636054Y28620882D01*
X63365135Y28621118D01*
X63114748Y28517661D01*
X62923013Y28326259D01*
X62819118Y28076054D01*
X62818882Y27805135D01*
X58465883Y27805135D01*
X58466118Y28074865D01*
X58362661Y28325252D01*
X58171259Y28516987D01*
X57921054Y28620882D01*
X57650135Y28621118D01*
X57399748Y28517661D01*
X57208013Y28326259D01*
X57104118Y28076054D01*
X57104032Y27977452D01*
X56270597Y27144017D01*
X56270597Y27422403D01*
X56231928Y27616806D01*
X56121807Y27781613D01*
X55926033Y27977387D01*
X55926118Y28074865D01*
X55822661Y28325252D01*
X55631259Y28516987D01*
X55381054Y28620882D01*
X55110135Y28621118D01*
X54859748Y28517661D01*
X54668013Y28326259D01*
X54564118Y28076054D01*
X54563882Y27805135D01*
X47670883Y27805135D01*
X47671118Y28074865D01*
X47567661Y28325252D01*
X47376259Y28516987D01*
X47126054Y28620882D01*
X46855135Y28621118D01*
X46604748Y28517661D01*
X46413013Y28326259D01*
X46309118Y28076054D01*
X46309032Y27977453D01*
X44412613Y26081033D01*
X44315135Y26081118D01*
X44064748Y25977661D01*
X43873013Y25786259D01*
X43769118Y25536054D01*
X43768882Y25265135D01*
X38145883Y25265135D01*
X38146118Y25534865D01*
X38042661Y25785252D01*
X37973000Y25855034D01*
X37973000Y27484874D01*
X38041987Y27553741D01*
X38145882Y27803946D01*
X38146118Y28074865D01*
X38042661Y28325252D01*
X37851259Y28516987D01*
X37601054Y28620882D01*
X37330135Y28621118D01*
X37079748Y28517661D01*
X36888013Y28326259D01*
X36784118Y28076054D01*
X36783882Y27805135D01*
X32430883Y27805135D01*
X32431118Y28074865D01*
X32327661Y28325252D01*
X32136259Y28516987D01*
X31886054Y28620882D01*
X31615135Y28621118D01*
X31364748Y28517661D01*
X31173013Y28326259D01*
X31140046Y28246866D01*
X30755793Y27862613D01*
X30755790Y27862611D01*
X30235597Y27342417D01*
X30235597Y27422403D01*
X30196928Y27616806D01*
X30086807Y27781613D01*
X29891033Y27977387D01*
X29891118Y28074865D01*
X29787661Y28325252D01*
X29596259Y28516987D01*
X29346054Y28620882D01*
X29075135Y28621118D01*
X28824748Y28517661D01*
X28633013Y28326259D01*
X28529118Y28076054D01*
X28528882Y27805135D01*
X456000Y27805135D01*
X456000Y30323109D01*
X38451908Y30323109D01*
X38555365Y30072722D01*
X38746767Y29880987D01*
X38996972Y29777092D01*
X39267891Y29776856D01*
X39518278Y29880313D01*
X39710013Y30071715D01*
X39809039Y30310195D01*
X64612074Y30310195D01*
X64715531Y30059808D01*
X64906933Y29868073D01*
X65157138Y29764178D01*
X65428057Y29763942D01*
X65678444Y29867399D01*
X65870179Y30058801D01*
X65974074Y30309006D01*
X65974310Y30579925D01*
X65870853Y30830312D01*
X65801192Y30900094D01*
X65801192Y31427772D01*
X66077387Y31703967D01*
X66174865Y31703882D01*
X66425252Y31807339D01*
X66616987Y31998741D01*
X66720882Y32248946D01*
X66721118Y32519865D01*
X66617661Y32770252D01*
X66426259Y32961987D01*
X66176054Y33065882D01*
X65905135Y33066118D01*
X65654748Y32962661D01*
X65463013Y32771259D01*
X65359118Y32521054D01*
X65359032Y32422452D01*
X64933982Y31997402D01*
X64823861Y31832595D01*
X64785192Y31638192D01*
X64785192Y30900186D01*
X64716205Y30831319D01*
X64612310Y30581114D01*
X64612074Y30310195D01*
X39809039Y30310195D01*
X39813908Y30321920D01*
X39814144Y30592839D01*
X39710687Y30843226D01*
X39641026Y30913008D01*
X39641026Y31302606D01*
X40042388Y31703967D01*
X40139865Y31703882D01*
X40390252Y31807339D01*
X40581987Y31998741D01*
X40685882Y32248946D01*
X40686118Y32519865D01*
X40582661Y32770252D01*
X40391259Y32961987D01*
X40141054Y33065882D01*
X39870135Y33066118D01*
X39619748Y32962661D01*
X39428013Y32771259D01*
X39324118Y32521054D01*
X39324032Y32422453D01*
X38773816Y31872236D01*
X38663695Y31707429D01*
X38625026Y31513026D01*
X38625026Y30913100D01*
X38556039Y30844233D01*
X38452144Y30594028D01*
X38451908Y30323109D01*
X456000Y30323109D01*
X456000Y37965442D01*
X30435433Y37965442D01*
X30538655Y37715625D01*
X30729620Y37524326D01*
X30979256Y37420668D01*
X31249558Y37420433D01*
X31499375Y37523655D01*
X31567840Y37592000D01*
X35107064Y37592000D01*
X35174620Y37524326D01*
X35424256Y37420668D01*
X35694558Y37420433D01*
X35944375Y37523655D01*
X36135674Y37714620D01*
X36239332Y37964256D01*
X36239333Y37965442D01*
X38690433Y37965442D01*
X38793655Y37715625D01*
X38984620Y37524326D01*
X39234256Y37420668D01*
X39504558Y37420433D01*
X39754375Y37523655D01*
X39822840Y37592000D01*
X42092064Y37592000D01*
X42159620Y37524326D01*
X42409256Y37420668D01*
X42679558Y37420433D01*
X42929375Y37523655D01*
X43120674Y37714620D01*
X43224332Y37964256D01*
X43224333Y37965442D01*
X56470433Y37965442D01*
X56573655Y37715625D01*
X56764620Y37524326D01*
X57014256Y37420668D01*
X57284558Y37420433D01*
X57534375Y37523655D01*
X57602840Y37592000D01*
X61142064Y37592000D01*
X61209620Y37524326D01*
X61459256Y37420668D01*
X61729558Y37420433D01*
X61979375Y37523655D01*
X62170674Y37714620D01*
X62274332Y37964256D01*
X62274567Y38234558D01*
X62171345Y38484375D01*
X61980380Y38675674D01*
X61730744Y38779332D01*
X61460442Y38779567D01*
X61210625Y38676345D01*
X61142160Y38608000D01*
X57602936Y38608000D01*
X57535380Y38675674D01*
X57285744Y38779332D01*
X57015442Y38779567D01*
X56765625Y38676345D01*
X56574326Y38485380D01*
X56470668Y38235744D01*
X56470433Y37965442D01*
X43224333Y37965442D01*
X43224567Y38234558D01*
X43121345Y38484375D01*
X42930380Y38675674D01*
X42680744Y38779332D01*
X42410442Y38779567D01*
X42160625Y38676345D01*
X42092160Y38608000D01*
X39822936Y38608000D01*
X39755380Y38675674D01*
X39505744Y38779332D01*
X39235442Y38779567D01*
X38985625Y38676345D01*
X38794326Y38485380D01*
X38690668Y38235744D01*
X38690433Y37965442D01*
X36239333Y37965442D01*
X36239567Y38234558D01*
X36136345Y38484375D01*
X35945380Y38675674D01*
X35695744Y38779332D01*
X35425442Y38779567D01*
X35175625Y38676345D01*
X35107160Y38608000D01*
X31567936Y38608000D01*
X31500380Y38675674D01*
X31250744Y38779332D01*
X30980442Y38779567D01*
X30730625Y38676345D01*
X30539326Y38485380D01*
X30435668Y38235744D01*
X30435433Y37965442D01*
X456000Y37965442D01*
X456000Y43045442D01*
X10115433Y43045442D01*
X10218655Y42795625D01*
X10409620Y42604326D01*
X10659256Y42500668D01*
X10929558Y42500433D01*
X11179375Y42603655D01*
X11370674Y42794620D01*
X11474332Y43044256D01*
X11474567Y43314558D01*
X11371345Y43564375D01*
X11303000Y43632840D01*
X11303000Y44315442D01*
X16465433Y44315442D01*
X16568655Y44065625D01*
X16637000Y43997160D01*
X16637000Y41727936D01*
X16569326Y41660380D01*
X16465668Y41410744D01*
X16465433Y41140442D01*
X16568655Y40890625D01*
X16759620Y40699326D01*
X17009256Y40595668D01*
X17279558Y40595433D01*
X17529375Y40698655D01*
X17720674Y40889620D01*
X17824332Y41139256D01*
X17824567Y41409558D01*
X17721345Y41659375D01*
X17653000Y41727840D01*
X17653000Y43997064D01*
X17720674Y44064620D01*
X17824332Y44314256D01*
X17824567Y44584558D01*
X17721345Y44834375D01*
X17530380Y45025674D01*
X17280744Y45129332D01*
X17010442Y45129567D01*
X16760625Y45026345D01*
X16569326Y44835380D01*
X16465668Y44585744D01*
X16465433Y44315442D01*
X11303000Y44315442D01*
X11303000Y46779580D01*
X11468937Y46945516D01*
X11564558Y46945433D01*
X11814375Y47048655D01*
X12005674Y47239620D01*
X12109332Y47489256D01*
X12109567Y47759558D01*
X12006345Y48009375D01*
X11815380Y48200674D01*
X11565744Y48304332D01*
X11295442Y48304567D01*
X11045625Y48201345D01*
X10854326Y48010380D01*
X10750668Y47760744D01*
X10750584Y47664004D01*
X10435790Y47349210D01*
X10325669Y47184403D01*
X10287000Y46990000D01*
X10287000Y43632936D01*
X10219326Y43565380D01*
X10115668Y43315744D01*
X10115433Y43045442D01*
X456000Y43045442D01*
X456000Y51935442D01*
X7575433Y51935442D01*
X7678655Y51685625D01*
X7869620Y51494326D01*
X8119256Y51390668D01*
X8215996Y51390584D01*
X8845516Y50761064D01*
X8845433Y50665442D01*
X8948655Y50415625D01*
X9139620Y50224326D01*
X9389256Y50120668D01*
X9659558Y50120433D01*
X9909375Y50223655D01*
X10100674Y50414620D01*
X10204332Y50664256D01*
X10204333Y50665442D01*
X25990433Y50665442D01*
X26093655Y50415625D01*
X26162000Y50347160D01*
X26162000Y48077936D01*
X26094326Y48010380D01*
X25990668Y47760744D01*
X25990433Y47490442D01*
X26093655Y47240625D01*
X26284620Y47049326D01*
X26534256Y46945668D01*
X26804558Y46945433D01*
X27054375Y47048655D01*
X27245674Y47239620D01*
X27349332Y47489256D01*
X27349411Y47580511D01*
X27439558Y47580433D01*
X27689375Y47683655D01*
X27880674Y47874620D01*
X27984332Y48124256D01*
X27984567Y48394558D01*
X27881345Y48644375D01*
X27813000Y48712840D01*
X27813000Y50982064D01*
X27880674Y51049620D01*
X27984332Y51299256D01*
X27984567Y51569558D01*
X27881345Y51819375D01*
X27690380Y52010674D01*
X27440744Y52114332D01*
X27170442Y52114567D01*
X26920625Y52011345D01*
X26729326Y51820380D01*
X26625668Y51570744D01*
X26625589Y51479489D01*
X26535442Y51479567D01*
X26285625Y51376345D01*
X26094326Y51185380D01*
X25990668Y50935744D01*
X25990433Y50665442D01*
X10204333Y50665442D01*
X10204567Y50934558D01*
X10101345Y51184375D01*
X9910380Y51375674D01*
X9660744Y51479332D01*
X9564004Y51479416D01*
X8934484Y52108936D01*
X8934567Y52204558D01*
X8831345Y52454375D01*
X8640380Y52645674D01*
X8390744Y52749332D01*
X8120442Y52749567D01*
X7870625Y52646345D01*
X7679326Y52455380D01*
X7575668Y52205744D01*
X7575433Y51935442D01*
X456000Y51935442D01*
X456000Y55110442D01*
X29800433Y55110442D01*
X29903655Y54860625D01*
X30094620Y54669326D01*
X30344256Y54565668D01*
X30440996Y54565584D01*
X31705516Y53301064D01*
X31705433Y53205442D01*
X31808655Y52955625D01*
X31999620Y52764326D01*
X32249256Y52660668D01*
X32519558Y52660433D01*
X32769375Y52763655D01*
X32960674Y52954620D01*
X33064332Y53204256D01*
X33064567Y53474558D01*
X32961345Y53724375D01*
X32770380Y53915674D01*
X32520744Y54019332D01*
X32424004Y54019416D01*
X31159484Y55283936D01*
X31159567Y55379558D01*
X31056345Y55629375D01*
X31040328Y55645420D01*
X31097740Y55634000D01*
X31132260Y55634000D01*
X31469404Y55701062D01*
X31584693Y55778096D01*
X31606546Y55744135D01*
X31733866Y55657141D01*
X31885000Y55626536D01*
X32555043Y55626536D01*
X32660790Y55520789D01*
X32660793Y55520787D01*
X33069682Y55111897D01*
X33069599Y55016276D01*
X33172821Y54766459D01*
X33363786Y54575160D01*
X33613422Y54471502D01*
X33883724Y54471267D01*
X34133541Y54574489D01*
X34324840Y54765454D01*
X34428498Y55015090D01*
X34428733Y55285392D01*
X34325511Y55535209D01*
X34134546Y55726508D01*
X33884910Y55830166D01*
X33788171Y55830250D01*
X33379213Y56239207D01*
X33379211Y56239210D01*
X33273464Y56344957D01*
X33273464Y57015000D01*
X33246897Y57156190D01*
X33163454Y57285865D01*
X33036134Y57372859D01*
X32885000Y57403464D01*
X31916536Y57403464D01*
X31946198Y57447856D01*
X32013260Y57785000D01*
X31946198Y58122144D01*
X31755221Y58407961D01*
X31737203Y58420000D01*
X31750000Y58428550D01*
X32030596Y58241062D01*
X32367740Y58174000D01*
X32402260Y58174000D01*
X32739404Y58241062D01*
X33025221Y58432039D01*
X33102036Y58547000D01*
X34139830Y58547000D01*
X35261040Y57425790D01*
X35425846Y57315669D01*
X35458100Y57309254D01*
X35620250Y57277000D01*
X36377064Y57277000D01*
X36444620Y57209326D01*
X36694256Y57105668D01*
X36964558Y57105433D01*
X37214375Y57208655D01*
X37405674Y57399620D01*
X37509332Y57649256D01*
X37509567Y57919558D01*
X37406345Y58169375D01*
X37215380Y58360674D01*
X36965744Y58464332D01*
X36695442Y58464567D01*
X36445625Y58361345D01*
X36377160Y58293000D01*
X35830670Y58293000D01*
X35576670Y58547000D01*
X38282064Y58547000D01*
X38349620Y58479326D01*
X38599256Y58375668D01*
X38869558Y58375433D01*
X39119375Y58478655D01*
X39310674Y58669620D01*
X39414332Y58919256D01*
X39414567Y59189558D01*
X39311345Y59439375D01*
X39120380Y59630674D01*
X38870744Y59734332D01*
X38600442Y59734567D01*
X38350625Y59631345D01*
X38282160Y59563000D01*
X35135421Y59563000D01*
X34969484Y59728937D01*
X34969567Y59824558D01*
X34866345Y60074375D01*
X34675380Y60265674D01*
X34425744Y60369332D01*
X34155442Y60369567D01*
X33905625Y60266345D01*
X33714326Y60075380D01*
X33610668Y59825744D01*
X33610440Y59563000D01*
X33102036Y59563000D01*
X33025221Y59677961D01*
X32739404Y59868938D01*
X32402260Y59936000D01*
X32367740Y59936000D01*
X32030596Y59868938D01*
X31750000Y59681450D01*
X31469404Y59868938D01*
X31132260Y59936000D01*
X31097740Y59936000D01*
X30760596Y59868938D01*
X30474779Y59677961D01*
X30283802Y59392144D01*
X30216740Y59055000D01*
X30283802Y58717856D01*
X30474779Y58432039D01*
X30492797Y58420000D01*
X30474779Y58407961D01*
X30283802Y58122144D01*
X30216740Y57785000D01*
X30283802Y57447856D01*
X30474779Y57162039D01*
X30492797Y57150000D01*
X30474779Y57137961D01*
X30283802Y56852144D01*
X30216740Y56515000D01*
X30283802Y56177856D01*
X30453107Y55924473D01*
X30345442Y55924567D01*
X30095625Y55821345D01*
X29904326Y55630380D01*
X29800668Y55380744D01*
X29800433Y55110442D01*
X456000Y55110442D01*
X456000Y57015442D01*
X25355433Y57015442D01*
X25458655Y56765625D01*
X25649620Y56574326D01*
X25899256Y56470668D01*
X26169558Y56470433D01*
X26419375Y56573655D01*
X26610674Y56764620D01*
X26714332Y57014256D01*
X26714416Y57110996D01*
X27978936Y58375516D01*
X28074558Y58375433D01*
X28324375Y58478655D01*
X28515674Y58669620D01*
X28619332Y58919256D01*
X28619567Y59189558D01*
X28516345Y59439375D01*
X28325380Y59630674D01*
X28075744Y59734332D01*
X27805442Y59734567D01*
X27555625Y59631345D01*
X27364326Y59440380D01*
X27260668Y59190744D01*
X27260584Y59094004D01*
X25996064Y57829484D01*
X25900442Y57829567D01*
X25650625Y57726345D01*
X25459326Y57535380D01*
X25355668Y57285744D01*
X25355433Y57015442D01*
X456000Y57015442D01*
X456000Y66555000D01*
X3541536Y66555000D01*
X3541536Y64255000D01*
X3568103Y64113810D01*
X3651546Y63984135D01*
X3778866Y63897141D01*
X3930000Y63866536D01*
X6230000Y63866536D01*
X6371190Y63893103D01*
X6500865Y63976546D01*
X6587859Y64103866D01*
X6618464Y64255000D01*
X6618464Y65101801D01*
X8628735Y65101801D01*
X8861325Y64538891D01*
X9291626Y64107838D01*
X9854129Y63874266D01*
X10463199Y63873735D01*
X11026109Y64106325D01*
X11457162Y64536626D01*
X11690734Y65099129D01*
X11691265Y65708199D01*
X11458675Y66271109D01*
X11028374Y66702162D01*
X10465871Y66935734D01*
X9856801Y66936265D01*
X9293891Y66703675D01*
X8862838Y66273374D01*
X8629266Y65710871D01*
X8628735Y65101801D01*
X6618464Y65101801D01*
X6618464Y66555000D01*
X6591897Y66696190D01*
X6508454Y66825865D01*
X6381134Y66912859D01*
X6230000Y66943464D01*
X3930000Y66943464D01*
X3788810Y66916897D01*
X3659135Y66833454D01*
X3572141Y66706134D01*
X3541536Y66555000D01*
X456000Y66555000D01*
X456000Y71544000D01*
X79544000Y71544000D01*
X79544000Y456000D01*
M02*
