G04 #@! TF.FileFunction,Copper,L1,Top,Signal*
%FSLAX46Y46*%
G04 Gerber Fmt 4.6, Leading zero omitted, Abs format (unit mm)*
G04 Created by KiCad (PCBNEW (2015-01-16 BZR 5376)-product) date 11/18/2015 9:54:18 PM*
%MOMM*%
G01*
G04 APERTURE LIST*
%ADD10C,0.100000*%
%ADD11R,2.000000X0.400000*%
%ADD12R,1.550000X0.600000*%
%ADD13R,1.450000X0.450000*%
%ADD14R,0.800100X0.800100*%
%ADD15R,1.727200X2.032000*%
%ADD16O,1.727200X2.032000*%
%ADD17C,1.420000*%
%ADD18C,2.800000*%
%ADD19R,2.032000X1.727200*%
%ADD20O,2.032000X1.727200*%
%ADD21R,2.000000X0.600000*%
%ADD22R,1.198880X1.198880*%
%ADD23R,1.500000X0.900000*%
%ADD24R,0.850000X0.400000*%
%ADD25R,1.250000X1.000000*%
%ADD26R,1.000000X1.250000*%
%ADD27R,1.300000X0.700000*%
%ADD28R,0.700000X1.300000*%
%ADD29R,2.300000X2.300000*%
%ADD30C,2.300000*%
%ADD31C,0.889000*%
%ADD32C,0.508000*%
%ADD33C,0.762000*%
%ADD34C,0.254000*%
G04 APERTURE END LIST*
D10*
D11*
X26670000Y50800000D03*
X26670000Y52000000D03*
X26670000Y49600000D03*
D12*
X21750000Y45085000D03*
X21750000Y46355000D03*
X21750000Y47625000D03*
X21750000Y48895000D03*
X16350000Y48895000D03*
X16350000Y47625000D03*
X16350000Y46355000D03*
X16350000Y45085000D03*
D13*
X54200000Y32725000D03*
X54200000Y32075000D03*
X54200000Y31425000D03*
X54200000Y30775000D03*
X60100000Y30775000D03*
X60100000Y31425000D03*
X60100000Y32075000D03*
X60100000Y32725000D03*
X28800000Y32725000D03*
X28800000Y32075000D03*
X28800000Y31425000D03*
X28800000Y30775000D03*
X34700000Y30775000D03*
X34700000Y31425000D03*
X34700000Y32075000D03*
X34700000Y32725000D03*
D14*
X9210000Y54879240D03*
X11110000Y54879240D03*
X10160000Y56878220D03*
X4130000Y54879240D03*
X6030000Y54879240D03*
X5080000Y56878220D03*
D15*
X29210000Y67310000D03*
D16*
X31750000Y67310000D03*
X34290000Y67310000D03*
X36830000Y67310000D03*
X39370000Y67310000D03*
X41910000Y67310000D03*
D17*
X9200000Y18805005D03*
X11700000Y18805005D03*
X13700000Y18805005D03*
X16200000Y18805005D03*
X9200000Y16185005D03*
X11700000Y16185005D03*
X13700000Y16185005D03*
X16200000Y16185005D03*
D18*
X19270000Y13475005D03*
X19270000Y19155005D03*
X6130000Y19155005D03*
X6130000Y13475005D03*
D19*
X5080000Y49530000D03*
D20*
X5080000Y46990000D03*
X5080000Y44450000D03*
D21*
X30860000Y61595000D03*
X30860000Y60325000D03*
X30860000Y59055000D03*
X30860000Y57785000D03*
X30860000Y56515000D03*
X30860000Y55245000D03*
X30860000Y53975000D03*
X30860000Y52705000D03*
X30860000Y51435000D03*
X30860000Y50165000D03*
X30860000Y48895000D03*
X30860000Y47625000D03*
X30860000Y46355000D03*
X30860000Y45085000D03*
X40260000Y45085000D03*
X40260000Y46355000D03*
X40260000Y47625000D03*
X40260000Y48895000D03*
X40260000Y50165000D03*
X40260000Y51435000D03*
X40260000Y52705000D03*
X40260000Y53975000D03*
X40260000Y55245000D03*
X40260000Y56515000D03*
X40260000Y57785000D03*
X40260000Y59055000D03*
X40260000Y60325000D03*
X40260000Y61595000D03*
D22*
X67089020Y57150000D03*
X64990980Y57150000D03*
X67089020Y59690000D03*
X64990980Y59690000D03*
D23*
X67590000Y66560000D03*
X67590000Y68060000D03*
X64490000Y68060000D03*
X64490000Y66560000D03*
D24*
X26500000Y37450000D03*
X26500000Y38100000D03*
X26500000Y38750000D03*
X24300000Y38750000D03*
X24300000Y38100000D03*
X24300000Y37450000D03*
X51900000Y37450000D03*
X51900000Y38100000D03*
X51900000Y38750000D03*
X49700000Y38750000D03*
X49700000Y38100000D03*
X49700000Y37450000D03*
X39200000Y37450000D03*
X39200000Y38100000D03*
X39200000Y38750000D03*
X37000000Y38750000D03*
X37000000Y38100000D03*
X37000000Y37450000D03*
X64600000Y37450000D03*
X64600000Y38100000D03*
X64600000Y38750000D03*
X62400000Y38750000D03*
X62400000Y38100000D03*
X62400000Y37450000D03*
D25*
X46355000Y51165000D03*
X46355000Y49165000D03*
X43815000Y51165000D03*
X43815000Y49165000D03*
D26*
X59960000Y34925000D03*
X61960000Y34925000D03*
D25*
X26670000Y54880000D03*
X26670000Y56880000D03*
X25400000Y30750000D03*
X25400000Y32750000D03*
X38100000Y30750000D03*
X38100000Y32750000D03*
X25400000Y24400000D03*
X25400000Y26400000D03*
X38100000Y24400000D03*
X38100000Y26400000D03*
D26*
X34560000Y34925000D03*
X36560000Y34925000D03*
D25*
X15875000Y42910000D03*
X15875000Y40910000D03*
X50800000Y30750000D03*
X50800000Y32750000D03*
X63500000Y30750000D03*
X63500000Y32750000D03*
X50800000Y24400000D03*
X50800000Y26400000D03*
X63500000Y24400000D03*
X63500000Y26400000D03*
D26*
X28940000Y40640000D03*
X26940000Y40640000D03*
X40370000Y40640000D03*
X38370000Y40640000D03*
X54340000Y40640000D03*
X52340000Y40640000D03*
X65770000Y40640000D03*
X63770000Y40640000D03*
D27*
X29210000Y21270000D03*
X29210000Y19370000D03*
X29210000Y24450000D03*
X29210000Y26350000D03*
X34290000Y21270000D03*
X34290000Y19370000D03*
X34290000Y24450000D03*
X34290000Y26350000D03*
X21590000Y32700000D03*
X21590000Y30800000D03*
X21590000Y24450000D03*
X21590000Y26350000D03*
X41910000Y32700000D03*
X41910000Y30800000D03*
X41910000Y24450000D03*
X41910000Y26350000D03*
X50800000Y21270000D03*
X50800000Y19370000D03*
X54610000Y24450000D03*
X54610000Y26350000D03*
X59690000Y21270000D03*
X59690000Y19370000D03*
X59690000Y24450000D03*
X59690000Y26350000D03*
X46990000Y32700000D03*
X46990000Y30800000D03*
X46990000Y24450000D03*
X46990000Y26350000D03*
X67310000Y32700000D03*
X67310000Y30800000D03*
X67310000Y24450000D03*
X67310000Y26350000D03*
D28*
X58100000Y64770000D03*
X56200000Y64770000D03*
X58100000Y62230000D03*
X56200000Y62230000D03*
X58100000Y67310000D03*
X56200000Y67310000D03*
X56200000Y59690000D03*
X58100000Y59690000D03*
X56200000Y57150000D03*
X58100000Y57150000D03*
D29*
X26670000Y6350000D03*
D30*
X29210000Y6350000D03*
X31750000Y6350000D03*
X34290000Y6350000D03*
X36830000Y6350000D03*
X39370000Y6350000D03*
X41910000Y6350000D03*
X44450000Y6350000D03*
D29*
X5080000Y65405000D03*
D30*
X7620000Y65405000D03*
X10160000Y65405000D03*
X12700000Y65405000D03*
D31*
X18415000Y40640000D03*
X54610000Y38735000D03*
X67310000Y40640000D03*
X40640000Y38735000D03*
X29210000Y38735000D03*
X46990000Y47625000D03*
X43180000Y47625000D03*
X15875000Y50165000D03*
X24765000Y50800000D03*
X69215000Y59690000D03*
X69215000Y57150000D03*
X15875000Y39370000D03*
X32385000Y52705000D03*
X29210000Y52705000D03*
X41910000Y50165000D03*
X38735000Y50165000D03*
X26670000Y58420000D03*
X63500000Y42545000D03*
X52070000Y42545000D03*
X38100000Y42545000D03*
X26670000Y42545000D03*
X50800000Y34290000D03*
X38100000Y34925000D03*
X25400000Y34290000D03*
X63500000Y34925000D03*
X8255000Y53340000D03*
X3175000Y53340000D03*
X28575000Y29845000D03*
X53975000Y29845000D03*
X34290000Y28575000D03*
X59690000Y28575000D03*
X58420000Y34925000D03*
X33020000Y34925000D03*
X15240000Y54610000D03*
X17145000Y52705000D03*
X20320000Y36830000D03*
X29210000Y62865000D03*
X34925000Y60325000D03*
X43180000Y63500000D03*
X35560000Y59055000D03*
X43180000Y62230000D03*
X42545000Y60325000D03*
X36830000Y58420000D03*
X38100000Y46355000D03*
X27940000Y46355000D03*
X38100000Y47625000D03*
X28575000Y48260000D03*
X36830000Y45085000D03*
X26035000Y45085000D03*
X31115000Y42545000D03*
X33655000Y42545000D03*
X36830000Y53975000D03*
X42545000Y53975000D03*
X45085000Y47625000D03*
X45085000Y53975000D03*
X49530000Y52070000D03*
X52070000Y46355000D03*
X43815000Y57785000D03*
X46990000Y57785000D03*
X50800000Y50165000D03*
X50800000Y46990000D03*
D32*
X16350000Y45085000D02*
X15875000Y44610000D01*
X15875000Y44610000D02*
X15875000Y42910000D01*
X16350000Y45085000D02*
X17145000Y45085000D01*
X18415000Y46355000D02*
X18415000Y49530000D01*
X17145000Y45085000D02*
X18415000Y46355000D01*
X18415000Y49530000D02*
X16510000Y51435000D01*
X16510000Y51435000D02*
X13970000Y51435000D01*
X13970000Y51435000D02*
X9525000Y46990000D01*
X9525000Y46990000D02*
X5080000Y46990000D01*
X56200000Y59690000D02*
X57470000Y60960000D01*
X68465000Y68060000D02*
X67590000Y68060000D01*
X69215000Y67310000D02*
X68465000Y68060000D01*
X69215000Y65405000D02*
X69215000Y67310000D01*
X64770000Y60960000D02*
X69215000Y65405000D01*
X57470000Y60960000D02*
X64770000Y60960000D01*
X26670000Y64135000D02*
X26670000Y68580000D01*
X65800000Y69850000D02*
X67590000Y68060000D01*
X27940000Y69850000D02*
X65800000Y69850000D01*
X26670000Y68580000D02*
X27940000Y69850000D01*
D33*
X40260000Y51435000D02*
X43545000Y51435000D01*
X43545000Y51435000D02*
X43815000Y51165000D01*
X43815000Y51165000D02*
X46355000Y51165000D01*
X40260000Y51435000D02*
X38735000Y51435000D01*
X33020000Y64135000D02*
X31750000Y64135000D01*
X38100000Y59055000D02*
X33020000Y64135000D01*
X38100000Y52070000D02*
X38100000Y59055000D01*
X38735000Y51435000D02*
X38100000Y52070000D01*
X9525000Y46990000D02*
X13970000Y51435000D01*
X13970000Y51435000D02*
X16510000Y51435000D01*
X16510000Y51435000D02*
X18415000Y49530000D01*
X5080000Y46990000D02*
X9525000Y46990000D01*
X13970000Y51435000D02*
X26670000Y64135000D01*
X26670000Y64135000D02*
X31750000Y64135000D01*
X31750000Y67310000D02*
X31750000Y64135000D01*
X18415000Y49530000D02*
X18415000Y40640000D01*
D34*
X54610000Y38735000D02*
X54340000Y39005000D01*
X54340000Y39005000D02*
X54340000Y40640000D01*
X53975000Y38100000D02*
X54610000Y38735000D01*
X51900000Y38100000D02*
X53975000Y38100000D01*
X65405000Y38100000D02*
X64600000Y38100000D01*
X65770000Y38465000D02*
X65405000Y38100000D01*
X65770000Y40640000D02*
X65770000Y38465000D01*
D33*
X67310000Y40640000D02*
X65770000Y40640000D01*
D34*
X40640000Y38735000D02*
X40370000Y39005000D01*
X40370000Y39005000D02*
X40370000Y40640000D01*
X40005000Y38100000D02*
X40640000Y38735000D01*
X39200000Y38100000D02*
X40005000Y38100000D01*
X29210000Y38735000D02*
X28940000Y39005000D01*
X28940000Y39005000D02*
X28940000Y40640000D01*
X28575000Y38100000D02*
X29210000Y38735000D01*
X26500000Y38100000D02*
X28575000Y38100000D01*
D32*
X46355000Y49165000D02*
X46355000Y48260000D01*
X46355000Y48260000D02*
X46990000Y47625000D01*
X43815000Y49165000D02*
X43815000Y48260000D01*
X43815000Y48260000D02*
X43180000Y47625000D01*
D34*
X16350000Y49690000D02*
X15875000Y50165000D01*
X16350000Y48895000D02*
X16350000Y49690000D01*
X26670000Y50800000D02*
X24765000Y50800000D01*
X67089020Y59690000D02*
X69215000Y59690000D01*
X67089020Y57150000D02*
X69215000Y57150000D01*
D32*
X15875000Y40910000D02*
X15875000Y39370000D01*
D34*
X30860000Y52705000D02*
X32385000Y52705000D01*
D32*
X30860000Y52705000D02*
X32385000Y52705000D01*
D34*
X30860000Y52705000D02*
X29210000Y52705000D01*
D32*
X30860000Y52705000D02*
X29210000Y52705000D01*
D34*
X40260000Y50165000D02*
X41910000Y50165000D01*
D32*
X40260000Y50165000D02*
X41910000Y50165000D01*
D34*
X40260000Y50165000D02*
X38735000Y50165000D01*
D32*
X40260000Y50165000D02*
X38735000Y50165000D01*
D34*
X26670000Y56880000D02*
X26670000Y58420000D01*
X51900000Y40200000D02*
X52340000Y40640000D01*
X51900000Y38750000D02*
X51900000Y40200000D01*
X63770000Y39580000D02*
X63770000Y40640000D01*
X64600000Y38750000D02*
X63770000Y39580000D01*
D33*
X63500000Y40910000D02*
X63500000Y42545000D01*
X63770000Y40640000D02*
X63500000Y40910000D01*
X52070000Y40910000D02*
X52070000Y42545000D01*
X52340000Y40640000D02*
X52070000Y40910000D01*
X38100000Y40910000D02*
X38100000Y42545000D01*
X38370000Y40640000D02*
X38100000Y40910000D01*
X26670000Y40910000D02*
X26670000Y42545000D01*
X26940000Y40640000D02*
X26670000Y40910000D01*
D34*
X26940000Y39190000D02*
X26940000Y40640000D01*
X26500000Y38750000D02*
X26940000Y39190000D01*
X38370000Y39580000D02*
X38370000Y40640000D01*
X39200000Y38750000D02*
X38370000Y39580000D01*
X50800000Y32750000D02*
X50800000Y34290000D01*
D33*
X38100000Y34925000D02*
X36560000Y34925000D01*
D34*
X38100000Y32750000D02*
X38100000Y34925000D01*
X25400000Y32750000D02*
X25400000Y34290000D01*
D33*
X63500000Y34925000D02*
X61960000Y34925000D01*
D34*
X63500000Y32750000D02*
X63500000Y34925000D01*
D33*
X9210000Y54295000D02*
X8255000Y53340000D01*
X9210000Y54879240D02*
X9210000Y54295000D01*
X4130000Y54295000D02*
X3175000Y53340000D01*
X4130000Y54879240D02*
X4130000Y54295000D01*
D34*
X29210000Y29210000D02*
X28575000Y29845000D01*
X28800000Y30070000D02*
X28800000Y30775000D01*
X28800000Y30070000D02*
X28575000Y29845000D01*
X29210000Y26350000D02*
X29210000Y29210000D01*
X54610000Y29210000D02*
X53975000Y29845000D01*
X54200000Y30070000D02*
X54200000Y30775000D01*
X54200000Y30070000D02*
X53975000Y29845000D01*
X54610000Y26350000D02*
X54610000Y29210000D01*
X34290000Y27940000D02*
X34290000Y26350000D01*
X34290000Y28575000D02*
X34290000Y27940000D01*
X59690000Y26350000D02*
X59690000Y28575000D01*
D33*
X58420000Y34925000D02*
X59960000Y34925000D01*
X34560000Y34925000D02*
X33020000Y34925000D01*
D34*
X59960000Y32865000D02*
X59960000Y34925000D01*
X60100000Y32725000D02*
X59960000Y32865000D01*
X34560000Y32865000D02*
X34560000Y34925000D01*
X34700000Y32725000D02*
X34560000Y32865000D01*
D33*
X14970760Y54879240D02*
X15240000Y54610000D01*
X19685000Y50165000D02*
X19685000Y37465000D01*
X19685000Y50165000D02*
X17145000Y52705000D01*
X19685000Y37465000D02*
X20320000Y36830000D01*
X11110000Y54879240D02*
X14970760Y54879240D01*
D32*
X27350760Y71120000D02*
X66675000Y71120000D01*
X58105000Y55245000D02*
X56200000Y57150000D01*
X70485000Y67310000D02*
X66675000Y71120000D01*
X70485000Y56515000D02*
X70485000Y67310000D01*
X69215000Y55245000D02*
X70485000Y56515000D01*
X58105000Y55245000D02*
X69215000Y55245000D01*
X11110000Y54879240D02*
X27350760Y71120000D01*
D34*
X27575000Y53975000D02*
X30860000Y53975000D01*
X26670000Y54880000D02*
X27575000Y53975000D01*
X26075000Y31425000D02*
X28800000Y31425000D01*
X25400000Y30750000D02*
X26075000Y31425000D01*
X21590000Y26940000D02*
X25400000Y30750000D01*
X21590000Y26350000D02*
X21590000Y26940000D01*
X41910000Y26940000D02*
X38100000Y30750000D01*
X41910000Y26350000D02*
X41910000Y26940000D01*
X34725000Y30750000D02*
X34700000Y30775000D01*
X38100000Y30750000D02*
X34725000Y30750000D01*
X21590000Y28575000D02*
X20320000Y27305000D01*
X20320000Y27305000D02*
X20320000Y25720000D01*
X20320000Y25720000D02*
X21590000Y24450000D01*
X21590000Y30800000D02*
X21590000Y28575000D01*
X25350000Y24450000D02*
X25400000Y24400000D01*
X21590000Y24450000D02*
X25350000Y24450000D01*
X30775000Y32725000D02*
X31115000Y32385000D01*
X31115000Y26670000D02*
X31115000Y26355000D01*
X31115000Y27940000D02*
X31115000Y26670000D01*
X31115000Y32385000D02*
X31115000Y27940000D01*
X28800000Y32725000D02*
X30775000Y32725000D01*
X24780000Y37450000D02*
X27940000Y34290000D01*
X27940000Y34290000D02*
X29210000Y34290000D01*
X29210000Y34290000D02*
X31115000Y32385000D01*
X24300000Y37450000D02*
X24780000Y37450000D01*
X31115000Y13970000D02*
X26670000Y9525000D01*
X26670000Y9525000D02*
X26670000Y6350000D01*
X31115000Y20955000D02*
X31115000Y13970000D01*
X31115000Y26670000D02*
X31115000Y20955000D01*
X25450000Y26350000D02*
X25400000Y26400000D01*
X27305000Y24765000D02*
X27305000Y21275000D01*
X27305000Y21275000D02*
X29210000Y19370000D01*
X25670000Y26400000D02*
X27305000Y24765000D01*
X25400000Y26400000D02*
X25670000Y26400000D01*
X29530000Y19370000D02*
X31115000Y20955000D01*
X29210000Y19370000D02*
X29530000Y19370000D01*
X41910000Y28575000D02*
X43180000Y27305000D01*
X43180000Y27305000D02*
X43180000Y25720000D01*
X43180000Y25720000D02*
X41910000Y24450000D01*
X41910000Y30800000D02*
X41910000Y28575000D01*
X38150000Y24450000D02*
X38100000Y24400000D01*
X41910000Y24450000D02*
X38150000Y24450000D01*
X32710000Y32075000D02*
X32385000Y31750000D01*
X32385000Y26670000D02*
X32385000Y26355000D01*
X32385000Y27940000D02*
X32385000Y26670000D01*
X32385000Y31750000D02*
X32385000Y27940000D01*
X34700000Y32075000D02*
X32710000Y32075000D01*
X31750000Y9525000D02*
X32385000Y10160000D01*
X32385000Y20955000D02*
X32385000Y26670000D01*
X32385000Y10160000D02*
X32385000Y20955000D01*
X31750000Y6350000D02*
X31750000Y9525000D01*
X34275000Y37450000D02*
X31750000Y34925000D01*
X31750000Y34925000D02*
X31750000Y32385000D01*
X31750000Y32385000D02*
X32385000Y31750000D01*
X37000000Y37450000D02*
X34275000Y37450000D01*
X38050000Y26350000D02*
X38100000Y26400000D01*
X33970000Y19370000D02*
X32385000Y20955000D01*
X34290000Y19370000D02*
X33970000Y19370000D01*
X36195000Y24765000D02*
X36195000Y21275000D01*
X36195000Y21275000D02*
X34290000Y19370000D01*
X37830000Y26400000D02*
X36195000Y24765000D01*
X38100000Y26400000D02*
X37830000Y26400000D01*
X46990000Y26350000D02*
X46990000Y26940000D01*
X46990000Y26940000D02*
X50800000Y30750000D01*
X50800000Y30750000D02*
X51475000Y31425000D01*
X51475000Y31425000D02*
X54200000Y31425000D01*
X63475000Y30775000D02*
X60100000Y30775000D01*
X67310000Y26940000D02*
X63475000Y30775000D01*
X67310000Y26350000D02*
X67310000Y26940000D01*
X46990000Y28575000D02*
X45720000Y27305000D01*
X45720000Y27305000D02*
X45720000Y25720000D01*
X45720000Y25720000D02*
X46990000Y24450000D01*
X46990000Y30800000D02*
X46990000Y28575000D01*
X50750000Y24450000D02*
X50800000Y24400000D01*
X46990000Y24450000D02*
X50750000Y24450000D01*
X56175000Y32725000D02*
X56515000Y32385000D01*
X56515000Y26670000D02*
X56515000Y26355000D01*
X56515000Y27940000D02*
X56515000Y26670000D01*
X56515000Y32385000D02*
X56515000Y27940000D01*
X54200000Y32725000D02*
X56175000Y32725000D01*
X50180000Y37450000D02*
X53340000Y34290000D01*
X53340000Y34290000D02*
X54610000Y34290000D01*
X54610000Y34290000D02*
X56515000Y32385000D01*
X49700000Y37450000D02*
X50180000Y37450000D01*
X55880000Y19685000D02*
X50165000Y13970000D01*
X56515000Y20320000D02*
X55880000Y19685000D01*
X50165000Y13970000D02*
X41275000Y13970000D01*
X41275000Y13970000D02*
X36830000Y9525000D01*
X36830000Y9525000D02*
X36830000Y6350000D01*
X56515000Y26670000D02*
X56515000Y20320000D01*
X50850000Y26350000D02*
X50800000Y26400000D01*
X55565000Y19370000D02*
X55880000Y19685000D01*
X50800000Y19370000D02*
X55565000Y19370000D01*
X49530000Y20320000D02*
X49530000Y21590000D01*
X49530000Y21590000D02*
X50800000Y22860000D01*
X50800000Y22860000D02*
X51435000Y22860000D01*
X51435000Y22860000D02*
X52070000Y23495000D01*
X52070000Y23495000D02*
X52070000Y25130000D01*
X52070000Y25130000D02*
X50800000Y26400000D01*
X50480000Y19370000D02*
X49530000Y20320000D01*
X50800000Y19370000D02*
X50480000Y19370000D01*
X67260000Y24400000D02*
X63500000Y24400000D01*
X68580000Y25720000D02*
X67310000Y24450000D01*
X67310000Y30800000D02*
X67310000Y28575000D01*
X67310000Y28575000D02*
X68580000Y27305000D01*
X68580000Y27305000D02*
X68580000Y25720000D01*
X58110000Y32075000D02*
X57785000Y31750000D01*
X60100000Y32075000D02*
X58110000Y32075000D01*
X63230000Y26400000D02*
X63500000Y26400000D01*
X50165000Y12700000D02*
X45085000Y12700000D01*
X45085000Y12700000D02*
X41910000Y9525000D01*
X41910000Y9525000D02*
X41910000Y6350000D01*
X57785000Y20320000D02*
X50165000Y12700000D01*
X57785000Y27940000D02*
X57785000Y26670000D01*
X57785000Y31750000D02*
X57785000Y27940000D01*
X57785000Y21590000D02*
X57785000Y20955000D01*
X57785000Y20955000D02*
X57785000Y20320000D01*
X57785000Y26670000D02*
X57785000Y21590000D01*
X59675000Y37450000D02*
X57150000Y34925000D01*
X57150000Y34925000D02*
X57150000Y32385000D01*
X57150000Y32385000D02*
X57785000Y31750000D01*
X62400000Y37450000D02*
X59675000Y37450000D01*
X63450000Y26350000D02*
X63500000Y26400000D01*
X61595000Y24495000D02*
X61595000Y21275000D01*
X61595000Y21275000D02*
X59690000Y19370000D01*
X63500000Y26400000D02*
X61595000Y24495000D01*
X59370000Y19370000D02*
X59690000Y19370000D01*
X58735000Y19370000D02*
X57785000Y20320000D01*
X59690000Y19370000D02*
X58735000Y19370000D01*
X63260000Y62230000D02*
X67590000Y66560000D01*
X58100000Y62230000D02*
X63260000Y62230000D01*
X58850000Y68060000D02*
X64490000Y68060000D01*
X58100000Y67310000D02*
X58850000Y68060000D01*
X59890000Y66560000D02*
X64490000Y66560000D01*
X58100000Y64770000D02*
X59890000Y66560000D01*
X58100000Y59690000D02*
X64990980Y59690000D01*
X58100000Y57150000D02*
X64990980Y57150000D01*
X30480000Y61595000D02*
X29210000Y62865000D01*
X30860000Y61595000D02*
X30480000Y61595000D01*
X30860000Y60325000D02*
X34925000Y60325000D01*
X46990000Y67310000D02*
X56200000Y67310000D01*
X43180000Y63500000D02*
X46990000Y67310000D01*
X30860000Y59055000D02*
X35560000Y59055000D01*
X45720000Y64770000D02*
X56200000Y64770000D01*
X43180000Y62230000D02*
X45720000Y64770000D01*
X30860000Y57785000D02*
X36195000Y57785000D01*
X44450000Y62230000D02*
X56200000Y62230000D01*
X42545000Y60325000D02*
X44450000Y62230000D01*
X36195000Y57785000D02*
X36830000Y58420000D01*
X28645000Y52000000D02*
X29210000Y51435000D01*
X29210000Y51435000D02*
X30860000Y51435000D01*
X26670000Y52000000D02*
X28645000Y52000000D01*
X28645000Y49600000D02*
X29210000Y50165000D01*
X29210000Y50165000D02*
X30860000Y50165000D01*
X26670000Y49600000D02*
X28645000Y49600000D01*
X31750000Y47625000D02*
X30860000Y47625000D01*
X36195000Y38100000D02*
X32385000Y41910000D01*
X32385000Y41910000D02*
X32385000Y46990000D01*
X32385000Y46990000D02*
X31750000Y47625000D01*
X37000000Y38100000D02*
X36195000Y38100000D01*
X25400000Y38100000D02*
X25400000Y40005000D01*
X25400000Y40005000D02*
X25400000Y42545000D01*
X25400000Y42545000D02*
X29210000Y46355000D01*
X29210000Y46355000D02*
X30860000Y46355000D01*
X24300000Y38100000D02*
X25400000Y38100000D01*
X21750000Y46355000D02*
X21750000Y47625000D01*
X27940000Y46355000D02*
X21750000Y46355000D01*
X40260000Y46355000D02*
X38100000Y46355000D01*
X38735000Y47625000D02*
X40260000Y47625000D01*
X21750000Y48895000D02*
X24130000Y48895000D01*
X24765000Y48260000D02*
X24130000Y48895000D01*
X28575000Y48260000D02*
X24765000Y48260000D01*
X38735000Y47625000D02*
X38100000Y47625000D01*
X38100000Y48895000D02*
X40260000Y48895000D01*
X21750000Y45085000D02*
X26035000Y45085000D01*
X38100000Y48895000D02*
X36830000Y47625000D01*
X36830000Y47625000D02*
X36830000Y45085000D01*
X46990000Y52705000D02*
X40260000Y52705000D01*
X62400000Y38100000D02*
X61595000Y38100000D01*
X60960000Y38735000D02*
X61595000Y38100000D01*
X60960000Y38735000D02*
X46990000Y52705000D01*
X29195000Y37450000D02*
X30480000Y38735000D01*
X30480000Y38735000D02*
X30480000Y41910000D01*
X30480000Y41910000D02*
X31115000Y42545000D01*
X35560000Y52705000D02*
X36830000Y53975000D01*
X35560000Y51435000D02*
X35560000Y52705000D01*
X35560000Y51435000D02*
X35560000Y44450000D01*
X35560000Y44450000D02*
X33655000Y42545000D01*
X42545000Y53975000D02*
X40260000Y53975000D01*
X26500000Y37450000D02*
X29195000Y37450000D01*
X39215000Y37465000D02*
X39200000Y37450000D01*
X39215000Y37465000D02*
X39200000Y37450000D01*
X40640000Y37465000D02*
X39215000Y37465000D01*
X43815000Y46355000D02*
X45085000Y47625000D01*
X45085000Y53975000D02*
X43815000Y55245000D01*
X40260000Y55245000D02*
X43815000Y55245000D01*
X43815000Y41275000D02*
X43815000Y40640000D01*
X43815000Y41275000D02*
X43815000Y46355000D01*
X43815000Y40640000D02*
X40640000Y37465000D01*
X55880000Y42545000D02*
X55880000Y38735000D01*
X55880000Y38735000D02*
X54595000Y37450000D01*
X54595000Y37450000D02*
X51900000Y37450000D01*
X40260000Y56515000D02*
X45085000Y56515000D01*
X49530000Y52070000D02*
X45085000Y56515000D01*
X54610000Y43815000D02*
X52070000Y46355000D01*
X54610000Y43815000D02*
X55880000Y42545000D01*
X66025000Y37450000D02*
X68580000Y40005000D01*
X68580000Y40005000D02*
X68580000Y41275000D01*
X68580000Y41275000D02*
X52070000Y57785000D01*
X52070000Y57785000D02*
X49530000Y57785000D01*
X43815000Y57785000D02*
X40260000Y57785000D01*
X49530000Y57785000D02*
X46990000Y57785000D01*
X64600000Y37450000D02*
X66025000Y37450000D01*
X40260000Y59055000D02*
X41275000Y59055000D01*
X44450000Y59055000D02*
X50800000Y52705000D01*
X50800000Y52705000D02*
X50800000Y50165000D01*
X50800000Y46990000D02*
X50800000Y40005000D01*
X50800000Y38100000D02*
X49700000Y38100000D01*
X50800000Y40005000D02*
X50800000Y38100000D01*
X40260000Y59055000D02*
X44450000Y59055000D01*
X41275000Y60325000D02*
X41910000Y60960000D01*
X41910000Y60960000D02*
X41910000Y64770000D01*
X41910000Y64770000D02*
X39370000Y67310000D01*
X40260000Y60325000D02*
X41275000Y60325000D01*
X38735000Y61595000D02*
X36830000Y63500000D01*
X36830000Y63500000D02*
X36830000Y67310000D01*
X40260000Y61595000D02*
X38735000Y61595000D01*
D33*
X6030000Y50480000D02*
X5080000Y49530000D01*
X6030000Y54879240D02*
X6030000Y50480000D01*
X5080000Y24130000D02*
X5080000Y44450000D01*
X9200000Y20010000D02*
X5080000Y24130000D01*
X9200000Y18805005D02*
X9200000Y20010000D01*
X9200000Y16185005D02*
X9200000Y18805005D01*
D34*
X15240000Y47625000D02*
X16350000Y47625000D01*
X12065000Y44450000D02*
X15240000Y47625000D01*
X11700000Y44085000D02*
X12065000Y44450000D01*
D33*
X11700000Y16185005D02*
X11700000Y18805005D01*
D34*
X11700000Y44085000D02*
X12065000Y44450000D01*
X11700000Y18805005D02*
X11700000Y44085000D01*
X15240000Y46355000D02*
X16350000Y46355000D01*
X13970000Y45085000D02*
X15240000Y46355000D01*
X13700000Y44815000D02*
X13970000Y45085000D01*
D33*
X13700000Y16185005D02*
X13700000Y18805005D01*
D34*
X13700000Y44815000D02*
X13970000Y45085000D01*
X13700000Y18805005D02*
X13700000Y44815000D01*
D33*
X5080000Y65405000D02*
X5080000Y56878220D01*
X10160000Y56878220D02*
X10160000Y65405000D01*
D34*
X29210000Y21270000D02*
X29210000Y24450000D01*
X29520000Y32075000D02*
X28800000Y32075000D01*
X30480000Y25400000D02*
X30480000Y31115000D01*
X30480000Y31115000D02*
X29520000Y32075000D01*
X29530000Y24450000D02*
X30480000Y25400000D01*
X29210000Y24450000D02*
X29530000Y24450000D01*
X34290000Y21270000D02*
X34290000Y24450000D01*
X33020000Y25400000D02*
X33020000Y30480000D01*
X33020000Y30480000D02*
X33965000Y31425000D01*
X33965000Y31425000D02*
X34700000Y31425000D01*
X33970000Y24450000D02*
X33020000Y25400000D01*
X34290000Y24450000D02*
X33970000Y24450000D01*
X21590000Y36830000D02*
X23510000Y38750000D01*
X23510000Y38750000D02*
X24300000Y38750000D01*
X21590000Y32700000D02*
X21590000Y36830000D01*
X38085000Y38750000D02*
X38100000Y38735000D01*
X38100000Y38735000D02*
X38100000Y36510000D01*
X38100000Y36510000D02*
X41910000Y32700000D01*
X37000000Y38750000D02*
X38085000Y38750000D01*
X59690000Y24450000D02*
X59690000Y21270000D01*
X58420000Y25720000D02*
X58420000Y30480000D01*
X58420000Y30480000D02*
X59365000Y31425000D01*
X59365000Y31425000D02*
X60100000Y31425000D01*
X59690000Y24450000D02*
X58420000Y25720000D01*
X48275000Y38750000D02*
X46990000Y37465000D01*
X46990000Y37465000D02*
X46990000Y32700000D01*
X49700000Y38750000D02*
X48275000Y38750000D01*
X63485000Y38750000D02*
X63500000Y38735000D01*
X63500000Y38735000D02*
X63500000Y36510000D01*
X63500000Y36510000D02*
X67310000Y32700000D01*
X62400000Y38750000D02*
X63485000Y38750000D01*
X51430000Y21270000D02*
X54610000Y24450000D01*
X50800000Y21270000D02*
X51430000Y21270000D01*
X55880000Y25720000D02*
X54610000Y24450000D01*
X55880000Y26670000D02*
X55880000Y25720000D01*
X55880000Y31115000D02*
X55880000Y26670000D01*
X54920000Y32075000D02*
X55880000Y31115000D01*
X54200000Y32075000D02*
X54920000Y32075000D01*
M02*
