M48
;DRILL file {pcbnew (2015-01-16 BZR 5376)-product} date 11/18/2015 9:54:25 PM
;FORMAT={-:-/ absolute / inch / decimal}
FMAT,2
INCH,TZ
T1C0.025
T2C0.036
T3C0.040
T4C0.051
T5C0.091
%
G90
G05
M72
T1
X0.125Y2.1
X0.325Y2.1
X0.6Y2.15
X0.625Y1.975
X0.625Y1.55
X0.675Y2.075
X0.725Y1.6
X0.8Y1.45
X0.975Y2.
X1.Y1.35
X1.025Y1.775
X1.05Y2.3
X1.05Y1.675
X1.1Y1.825
X1.125Y1.9
X1.125Y1.175
X1.15Y2.475
X1.15Y2.075
X1.15Y1.525
X1.225Y1.675
X1.275Y2.075
X1.3Y1.375
X1.325Y1.675
X1.35Y1.125
X1.375Y2.375
X1.4Y2.325
X1.45Y2.3
X1.45Y2.125
X1.45Y1.775
X1.5Y1.875
X1.5Y1.825
X1.5Y1.675
X1.5Y1.375
X1.525Y1.975
X1.6Y1.525
X1.65Y1.975
X1.675Y2.375
X1.675Y2.125
X1.7Y2.5
X1.7Y2.45
X1.7Y1.875
X1.725Y2.275
X1.775Y2.125
X1.775Y1.875
X1.85Y2.275
X1.85Y1.875
X1.95Y2.05
X2.Y1.975
X2.Y1.85
X2.Y1.35
X2.05Y1.825
X2.05Y1.675
X2.125Y1.175
X2.15Y1.525
X2.3Y1.375
X2.35Y1.125
X2.5Y1.675
X2.5Y1.375
X2.65Y1.6
X2.725Y2.35
X2.725Y2.25
T2
X0.3622Y0.7404
X0.3622Y0.6372
X0.4606Y0.7404
X0.4606Y0.6372
X0.5394Y0.7404
X0.5394Y0.6372
X0.6378Y0.7404
X0.6378Y0.6372
T3
X0.2Y1.95
X0.2Y1.85
X0.2Y1.75
X1.15Y2.65
X1.25Y2.65
X1.35Y2.65
X1.45Y2.65
X1.55Y2.65
X1.65Y2.65
T4
X0.2Y2.575
X0.3Y2.575
X0.4Y2.575
X0.5Y2.575
X1.05Y0.25
X1.15Y0.25
X1.25Y0.25
X1.35Y0.25
X1.45Y0.25
X1.55Y0.25
X1.65Y0.25
X1.75Y0.25
T5
X0.2413Y0.7541
X0.2413Y0.5305
X0.7587Y0.7541
X0.7587Y0.5305
T0
M30
