G04 #@! TF.FileFunction,Copper,L4,Bot,Mixed*
%FSLAX46Y46*%
G04 Gerber Fmt 4.6, Leading zero omitted, Abs format (unit mm)*
G04 Created by KiCad (PCBNEW 4.0.4-stable) date 11/14/16 12:13:18*
%MOMM*%
%LPD*%
G01*
G04 APERTURE LIST*
%ADD10C,0.150000*%
%ADD11R,4.000000X4.000000*%
%ADD12C,4.000000*%
%ADD13R,1.727200X2.032000*%
%ADD14O,1.727200X2.032000*%
%ADD15R,2.032000X2.032000*%
%ADD16O,2.032000X2.032000*%
%ADD17C,1.420000*%
%ADD18C,2.800000*%
%ADD19C,2.500000*%
%ADD20C,0.685800*%
%ADD21C,0.254000*%
G04 APERTURE END LIST*
D10*
D11*
X95885000Y13335000D03*
D12*
X95885000Y8255000D03*
D13*
X26035000Y14605000D03*
D14*
X28575000Y14605000D03*
X31115000Y14605000D03*
X33655000Y14605000D03*
X36195000Y14605000D03*
X38735000Y14605000D03*
D11*
X88265000Y97155000D03*
X12065000Y82550000D03*
X88265000Y76835000D03*
X12065000Y62230000D03*
X88265000Y56515000D03*
X12065000Y41910000D03*
X88265000Y36195000D03*
X12065000Y21590000D03*
D15*
X83820000Y95250000D03*
D16*
X83820000Y97790000D03*
D15*
X16510000Y84455000D03*
D16*
X16510000Y81915000D03*
D15*
X83820000Y74930000D03*
D16*
X83820000Y77470000D03*
D15*
X16510000Y64135000D03*
D16*
X16510000Y61595000D03*
D15*
X83820000Y54610000D03*
D16*
X83820000Y57150000D03*
D15*
X16510000Y43815000D03*
D16*
X16510000Y41275000D03*
D15*
X83820000Y34290000D03*
D16*
X83820000Y36830000D03*
D15*
X16510000Y23495000D03*
D16*
X16510000Y20955000D03*
D17*
X46500000Y14470005D03*
X49000000Y14470005D03*
X51000000Y14470005D03*
X53500000Y14470005D03*
X46500000Y11850005D03*
X49000000Y11850005D03*
X51000000Y11850005D03*
X53500000Y11850005D03*
D18*
X56570000Y9140005D03*
X56570000Y14820005D03*
X43430000Y14820005D03*
X43430000Y9140005D03*
D19*
X75565000Y90170000D03*
X75565000Y82550000D03*
X85725000Y90170000D03*
X93345000Y90170000D03*
X97955000Y86360000D03*
X87955000Y86360000D03*
X75955000Y86360000D03*
X70955000Y86360000D03*
X24765000Y89535000D03*
X24765000Y97155000D03*
X14605000Y89535000D03*
X6985000Y89535000D03*
X2375000Y93345000D03*
X12375000Y93345000D03*
X24375000Y93345000D03*
X29375000Y93345000D03*
X75565000Y69850000D03*
X75565000Y62230000D03*
X85725000Y69850000D03*
X93345000Y69850000D03*
X97955000Y66040000D03*
X87955000Y66040000D03*
X75955000Y66040000D03*
X70955000Y66040000D03*
X24765000Y69215000D03*
X24765000Y76835000D03*
X14605000Y69215000D03*
X6985000Y69215000D03*
X2375000Y73025000D03*
X12375000Y73025000D03*
X24375000Y73025000D03*
X29375000Y73025000D03*
X75565000Y49530000D03*
X75565000Y41910000D03*
X85725000Y49530000D03*
X93345000Y49530000D03*
X97955000Y45720000D03*
X87955000Y45720000D03*
X75955000Y45720000D03*
X70955000Y45720000D03*
X24765000Y48895000D03*
X24765000Y56515000D03*
X14605000Y48895000D03*
X6985000Y48895000D03*
X2375000Y52705000D03*
X12375000Y52705000D03*
X24375000Y52705000D03*
X29375000Y52705000D03*
X75565000Y29210000D03*
X75565000Y21590000D03*
X85725000Y29210000D03*
X93345000Y29210000D03*
X97955000Y25400000D03*
X87955000Y25400000D03*
X75955000Y25400000D03*
X70955000Y25400000D03*
X24765000Y28575000D03*
X24765000Y36195000D03*
X14605000Y28575000D03*
X6985000Y28575000D03*
X2375000Y32385000D03*
X12375000Y32385000D03*
X24375000Y32385000D03*
X29375000Y32385000D03*
D11*
X4445000Y13335000D03*
D12*
X4445000Y8255000D03*
D20*
X54610000Y33655000D03*
X36830000Y66675000D03*
X50165000Y55245000D03*
X36830000Y26035000D03*
X36195000Y19685000D03*
X24130000Y24130000D03*
X48260000Y39370000D03*
X47625000Y24130000D03*
X63500000Y31750000D03*
X76200000Y33655000D03*
X62865000Y38100000D03*
X64135000Y8890000D03*
X67945000Y6350000D03*
X70485000Y6350000D03*
X35560000Y2540000D03*
X28575000Y9525000D03*
X33020000Y9525000D03*
X36830000Y46355000D03*
X40005000Y40005000D03*
X24130000Y44450000D03*
X59690000Y78740000D03*
X59690000Y58420000D03*
X76200000Y53975000D03*
X63500000Y52070000D03*
X24130000Y64770000D03*
X40005000Y60325000D03*
X48895000Y74295000D03*
X76200000Y74295000D03*
X63500000Y72390000D03*
X24130000Y85090000D03*
X36830000Y86995000D03*
X40005000Y80645000D03*
X76200000Y94615000D03*
X48895000Y94615000D03*
X60325000Y99060000D03*
X63500000Y92710000D03*
X59055000Y30480000D03*
X59055000Y27305000D03*
X59055000Y18415000D03*
X31115000Y81280000D03*
X31115000Y85090000D03*
X31115000Y60960000D03*
X31115000Y64770000D03*
X42545000Y73025000D03*
X40005000Y73025000D03*
X57785000Y31750000D03*
X55245000Y32385000D03*
X40640000Y39370000D03*
X42545000Y19050000D03*
X44450000Y17145000D03*
X48260000Y23495000D03*
X52070000Y52070000D03*
X40005000Y93345000D03*
X42545000Y93345000D03*
X40005000Y31750000D03*
X38735000Y27940000D03*
X40640000Y22860000D03*
X37465000Y40005000D03*
X36195000Y18415000D03*
X34925000Y19685000D03*
X31115000Y24130000D03*
X30480000Y19050000D03*
X24130000Y20320000D03*
X51435000Y44450000D03*
X52070000Y46355000D03*
X64135000Y19050000D03*
X76200000Y37465000D03*
X69215000Y33655000D03*
X69215000Y38100000D03*
X60325000Y38100000D03*
X65405000Y38100000D03*
X60325000Y38735000D03*
X64135000Y39370000D03*
X71755000Y4445000D03*
X71755000Y9525000D03*
X66040000Y12065000D03*
X60325000Y8890000D03*
X34290000Y3810000D03*
X28575000Y1905000D03*
X24130000Y40640000D03*
X31115000Y44450000D03*
X31115000Y40640000D03*
X42545000Y40005000D03*
X42545000Y52705000D03*
X40005000Y52705000D03*
X40640000Y59690000D03*
X40640000Y80010000D03*
X54610000Y57785000D03*
X57785000Y58420000D03*
X62865000Y58420000D03*
X69215000Y53975000D03*
X69215000Y57785000D03*
X76200000Y57785000D03*
X57785000Y49530000D03*
X60325000Y49530000D03*
X24130000Y60960000D03*
X37465000Y60325000D03*
X42545000Y60325000D03*
X37465000Y80645000D03*
X57785000Y69850000D03*
X60325000Y69850000D03*
X54610000Y78105000D03*
X52070000Y72390000D03*
X60325000Y59055000D03*
X69215000Y78105000D03*
X69215000Y74295000D03*
X76200000Y78105000D03*
X57785000Y78740000D03*
X62865000Y78740000D03*
X76200000Y98425000D03*
X24130000Y81280000D03*
X42545000Y80645000D03*
X38735000Y97790000D03*
X60325000Y79375000D03*
X52070000Y92710000D03*
X54610000Y98425000D03*
X57785000Y99060000D03*
X62865000Y99060000D03*
X69215000Y98425000D03*
X69215000Y94615000D03*
X60325000Y90170000D03*
X57785000Y90170000D03*
X44450000Y31750000D03*
X55245000Y86360000D03*
X43180000Y31750000D03*
X45085000Y89535000D03*
X45085000Y27940000D03*
X55245000Y66040000D03*
X42545000Y29845000D03*
X45085000Y69215000D03*
X55245000Y45720000D03*
X45720000Y26670000D03*
X45085000Y48895000D03*
X43180000Y24130000D03*
X52070000Y31115000D03*
X71755000Y6985000D03*
X57785000Y27305000D03*
X64135000Y14605000D03*
X57785000Y30480000D03*
X58420000Y43180000D03*
X48895000Y58420000D03*
X50800000Y31115000D03*
X49530000Y36195000D03*
X48895000Y40005000D03*
X53975000Y29210000D03*
X56515000Y20955000D03*
X55880000Y31750000D03*
X53975000Y35560000D03*
X48260000Y37465000D03*
X50800000Y37465000D03*
X51435000Y31750000D03*
X28575000Y7620000D03*
X28575000Y4445000D03*
X47625000Y31115000D03*
X46990000Y29845000D03*
X48260000Y27305000D03*
X47625000Y19685000D03*
X38100000Y9525000D03*
X50800000Y22225000D03*
X41275000Y9525000D03*
X50800000Y23495000D03*
X35560000Y9525000D03*
X52705000Y24130000D03*
X56515000Y79375000D03*
X48895000Y29210000D03*
X42545000Y95885000D03*
X50165000Y82550000D03*
X50165000Y27940000D03*
X53975000Y25400000D03*
X56515000Y59055000D03*
X48895000Y38100000D03*
X49530000Y59055000D03*
X49530000Y61595000D03*
X48895000Y78740000D03*
X48895000Y35560000D03*
X50800000Y29845000D03*
X62230000Y11430000D03*
X55880000Y27305000D03*
X60325000Y14605000D03*
X56515000Y23495000D03*
X61595000Y5080000D03*
X62865000Y5715000D03*
X54610000Y38100000D03*
X56515000Y36830000D03*
X44450000Y43815000D03*
X36195000Y22860000D03*
D21*
X44450000Y33020000D02*
X44450000Y33655000D01*
X44450000Y31750000D02*
X44450000Y33020000D01*
X44450000Y33655000D02*
X46990000Y36195000D01*
X46990000Y78105000D02*
X50800000Y81915000D01*
X46990000Y36195000D02*
X46990000Y78105000D01*
X55245000Y86360000D02*
X50800000Y81915000D01*
X50800000Y81915000D02*
X50165000Y81280000D01*
X43180000Y32385000D02*
X43180000Y33020000D01*
X43180000Y31750000D02*
X43180000Y32385000D01*
X43180000Y33020000D02*
X46355000Y36195000D01*
X46355000Y88265000D02*
X45085000Y89535000D01*
X46355000Y36195000D02*
X46355000Y88265000D01*
X45085000Y33020000D02*
X45085000Y33655000D01*
X45085000Y33655000D02*
X47625000Y36195000D01*
X45085000Y31115000D02*
X45085000Y33020000D01*
X45085000Y30480000D02*
X45085000Y27940000D01*
X45085000Y30480000D02*
X45085000Y31115000D01*
X47625000Y58420000D02*
X51435000Y62230000D01*
X47625000Y36195000D02*
X47625000Y58420000D01*
X55245000Y66040000D02*
X51435000Y62230000D01*
X51435000Y62230000D02*
X50800000Y61595000D01*
X42545000Y32385000D02*
X42545000Y33020000D01*
X42545000Y32385000D02*
X42545000Y29845000D01*
X42545000Y33020000D02*
X45720000Y36195000D01*
X45720000Y36195000D02*
X45720000Y68580000D01*
X45085000Y69215000D02*
X45720000Y68580000D01*
X50800000Y36830000D02*
X51435000Y36830000D01*
X52070000Y40005000D02*
X52070000Y42545000D01*
X52070000Y42545000D02*
X55245000Y45720000D01*
X48895000Y36830000D02*
X50800000Y36830000D01*
X52070000Y38100000D02*
X52070000Y40005000D01*
X45720000Y30480000D02*
X45720000Y26670000D01*
X45720000Y30480000D02*
X45720000Y32385000D01*
X45720000Y32385000D02*
X45720000Y33655000D01*
X45720000Y33655000D02*
X48895000Y36830000D01*
X52070000Y37465000D02*
X52070000Y38100000D01*
X51435000Y36830000D02*
X52070000Y37465000D01*
X45085000Y36195000D02*
X41910000Y33020000D01*
X41910000Y26035000D02*
X41910000Y25400000D01*
X45085000Y48895000D02*
X45085000Y36195000D01*
X41910000Y33020000D02*
X41910000Y29210000D01*
X41910000Y29210000D02*
X41910000Y26035000D01*
X41910000Y25400000D02*
X43180000Y24130000D01*
X52070000Y17780000D02*
X52070000Y31115000D01*
X54610000Y15240000D02*
X52070000Y17780000D01*
X54610000Y13970000D02*
X54610000Y15240000D01*
X58420000Y10160000D02*
X54610000Y13970000D01*
X68580000Y10160000D02*
X58420000Y10160000D01*
X71755000Y6985000D02*
X68580000Y10160000D01*
X57785000Y24765000D02*
X57785000Y27305000D01*
X62865000Y19685000D02*
X57785000Y24765000D01*
X62865000Y15875000D02*
X62865000Y19685000D01*
X64135000Y14605000D02*
X62865000Y15875000D01*
X57785000Y30480000D02*
X58420000Y31115000D01*
X58420000Y31115000D02*
X58420000Y43180000D01*
X48895000Y58420000D02*
X48895000Y55245000D01*
X50800000Y31115000D02*
X49530000Y32385000D01*
X49530000Y32385000D02*
X49530000Y36195000D01*
X48895000Y40005000D02*
X48895000Y55245000D01*
X54610000Y24130000D02*
X54610000Y22860000D01*
X54610000Y28575000D02*
X53975000Y29210000D01*
X54610000Y24130000D02*
X54610000Y28575000D01*
X54610000Y22860000D02*
X56515000Y20955000D01*
X55880000Y31750000D02*
X55880000Y33655000D01*
X55880000Y33655000D02*
X53975000Y35560000D01*
X50800000Y37465000D02*
X48260000Y37465000D01*
X40005000Y17780000D02*
X40005000Y13970000D01*
X51435000Y27940000D02*
X49530000Y26035000D01*
X49530000Y26035000D02*
X48260000Y26035000D01*
X48260000Y26035000D02*
X40005000Y17780000D01*
X51435000Y31750000D02*
X51435000Y27940000D01*
X31750000Y10795000D02*
X28575000Y7620000D01*
X36830000Y10795000D02*
X31750000Y10795000D01*
X40005000Y13970000D02*
X36830000Y10795000D01*
X47625000Y16510000D02*
X51435000Y20320000D01*
X47625000Y9525000D02*
X47625000Y16510000D01*
X43180000Y5080000D02*
X47625000Y9525000D01*
X29210000Y5080000D02*
X43180000Y5080000D01*
X28575000Y4445000D02*
X29210000Y5080000D01*
X36195000Y14605000D02*
X36195000Y15240000D01*
X36195000Y15240000D02*
X47625000Y26670000D01*
X47625000Y26670000D02*
X47625000Y27305000D01*
X47625000Y27305000D02*
X47625000Y31115000D01*
X43180000Y22860000D02*
X36830000Y16510000D01*
X43180000Y22860000D02*
X46990000Y26670000D01*
X46990000Y26670000D02*
X46990000Y28575000D01*
X33655000Y14605000D02*
X35560000Y16510000D01*
X46990000Y28575000D02*
X46990000Y29845000D01*
X36830000Y16510000D02*
X35560000Y16510000D01*
X37465000Y15240000D02*
X37465000Y15875000D01*
X36195000Y12700000D02*
X37465000Y13970000D01*
X37465000Y13970000D02*
X37465000Y15240000D01*
X26035000Y14605000D02*
X27940000Y12700000D01*
X27940000Y12700000D02*
X36195000Y12700000D01*
X48260000Y26670000D02*
X48260000Y27305000D01*
X37465000Y15875000D02*
X48260000Y26670000D01*
X41275000Y12700000D02*
X41275000Y15240000D01*
X45720000Y19685000D02*
X47625000Y19685000D01*
X38100000Y9525000D02*
X41275000Y12700000D01*
X43180000Y17145000D02*
X45720000Y19685000D01*
X41275000Y15240000D02*
X43180000Y17145000D01*
X50165000Y20320000D02*
X50165000Y21590000D01*
X50165000Y20066000D02*
X50165000Y20320000D01*
X44450000Y12700000D02*
X45339000Y13589000D01*
X44450000Y12700000D02*
X41275000Y9525000D01*
X45339000Y13589000D02*
X45339000Y15240000D01*
X45339000Y15240000D02*
X50165000Y20066000D01*
X50165000Y21590000D02*
X50800000Y22225000D01*
X35560000Y9525000D02*
X36830000Y9525000D01*
X50165000Y22860000D02*
X50800000Y23495000D01*
X40640000Y15240000D02*
X40640000Y15875000D01*
X48260000Y22860000D02*
X48895000Y22860000D01*
X40640000Y14605000D02*
X40640000Y15240000D01*
X47625000Y22860000D02*
X48260000Y22860000D01*
X40640000Y15875000D02*
X47625000Y22860000D01*
X48895000Y22860000D02*
X50165000Y22860000D01*
X40640000Y13335000D02*
X40640000Y14605000D01*
X36830000Y9525000D02*
X40640000Y13335000D01*
X52705000Y41910000D02*
X52705000Y24130000D01*
X55880000Y45085000D02*
X52705000Y41910000D01*
X55880000Y78740000D02*
X55880000Y45085000D01*
X56515000Y79375000D02*
X55880000Y78740000D01*
X50165000Y27940000D02*
X48895000Y29210000D01*
X49530000Y88900000D02*
X50165000Y88265000D01*
X42545000Y95885000D02*
X44450000Y93980000D01*
X44450000Y93980000D02*
X49530000Y88900000D01*
X50165000Y88265000D02*
X50165000Y82550000D01*
X53340000Y26035000D02*
X53975000Y25400000D01*
X53340000Y41275000D02*
X53340000Y26035000D01*
X56515000Y44450000D02*
X53340000Y41275000D01*
X56515000Y59055000D02*
X56515000Y44450000D01*
X49530000Y61595000D02*
X49530000Y78105000D01*
X49530000Y78105000D02*
X48895000Y78740000D01*
X48895000Y31750000D02*
X48895000Y35560000D01*
X50800000Y29845000D02*
X49530000Y31115000D01*
X49530000Y31115000D02*
X48895000Y31750000D01*
X49530000Y39370000D02*
X49530000Y59055000D01*
X48895000Y38735000D02*
X49530000Y39370000D01*
X48895000Y38100000D02*
X48895000Y38735000D01*
X62230000Y19050000D02*
X55880000Y25400000D01*
X62230000Y11430000D02*
X62230000Y19050000D01*
X55880000Y25400000D02*
X55880000Y27305000D01*
X57150000Y22860000D02*
X56515000Y23495000D01*
X60325000Y14605000D02*
X60325000Y19685000D01*
X60325000Y19685000D02*
X57150000Y22860000D01*
X49000000Y11850005D02*
X55770005Y5080000D01*
X55880000Y5080000D02*
X61595000Y5080000D01*
X55770005Y5080000D02*
X55880000Y5080000D01*
X49165000Y11740005D02*
X49219995Y11740005D01*
X51000000Y11850005D02*
X57135005Y5715000D01*
X57135005Y5715000D02*
X57150000Y5715000D01*
X57150000Y5715000D02*
X62865000Y5715000D01*
X55245000Y38100000D02*
X54610000Y38100000D01*
X56515000Y36830000D02*
X55245000Y38100000D01*
X44480130Y36164870D02*
X44450000Y36195000D01*
X36195000Y22860000D02*
X41275000Y27940000D01*
X41275000Y27940000D02*
X41275000Y33020000D01*
X41275000Y33020000D02*
X41910000Y33655000D01*
X41910000Y33655000D02*
X41970260Y33655000D01*
X41970260Y33655000D02*
X41970260Y33715260D01*
X41970260Y33715260D02*
X42030520Y33715260D01*
X42030520Y33715260D02*
X44480130Y36164870D01*
X44450000Y36195000D02*
X44450000Y43815000D01*
G36*
X99544000Y11627000D02*
X91627000Y11627000D01*
X91627000Y99544000D01*
X99544000Y99544000D01*
X99544000Y11627000D01*
X99544000Y11627000D01*
G37*
X99544000Y11627000D02*
X91627000Y11627000D01*
X91627000Y99544000D01*
X99544000Y99544000D01*
X99544000Y11627000D01*
G36*
X8373000Y11627000D02*
X456000Y11627000D01*
X456000Y99544000D01*
X8373000Y99544000D01*
X8373000Y11627000D01*
X8373000Y11627000D01*
G37*
X8373000Y11627000D02*
X456000Y11627000D01*
X456000Y99544000D01*
X8373000Y99544000D01*
X8373000Y11627000D01*
M02*
