G04 #@! TF.FileFunction,Copper,L4,Bot,Mixed*
%FSLAX46Y46*%
G04 Gerber Fmt 4.6, Leading zero omitted, Abs format (unit mm)*
G04 Created by KiCad (PCBNEW 4.0.2+dfsg1-stable) date Tue 05 Jun 2018 02:18:01 AM EDT*
%MOMM*%
G01*
G04 APERTURE LIST*
%ADD10C,0.150000*%
%ADD11C,2.500000*%
%ADD12R,1.200000X1.200000*%
%ADD13R,1.500000X0.900000*%
%ADD14O,3.810000X2.540000*%
%ADD15O,1.727200X2.032000*%
%ADD16R,1.700000X1.700000*%
%ADD17O,1.700000X1.700000*%
%ADD18C,1.420000*%
%ADD19C,2.800000*%
%ADD20R,2.300000X2.300000*%
%ADD21C,2.300000*%
%ADD22C,0.685800*%
%ADD23C,0.750000*%
%ADD24C,0.254000*%
G04 APERTURE END LIST*
D10*
D11*
X72110000Y44310000D03*
X72110000Y36690000D03*
X82270000Y44310000D03*
X89890000Y44310000D03*
X94500000Y40500000D03*
X84500000Y40500000D03*
X72500000Y40500000D03*
X67500000Y40500000D03*
D12*
X31000000Y83900000D03*
X31000000Y86100000D03*
D13*
X48615000Y3060000D03*
X48615000Y4560000D03*
X51715000Y4560000D03*
X51715000Y3060000D03*
D12*
X44280000Y3810000D03*
X42080000Y3810000D03*
D11*
X27890000Y89690000D03*
X27890000Y97310000D03*
X17730000Y89690000D03*
X10110000Y89690000D03*
X5500000Y93500000D03*
X15500000Y93500000D03*
X27500000Y93500000D03*
X32500000Y93500000D03*
X72110000Y88310000D03*
X72110000Y80690000D03*
X82270000Y88310000D03*
X89890000Y88310000D03*
X94500000Y84500000D03*
X84500000Y84500000D03*
X72500000Y84500000D03*
X67500000Y84500000D03*
X72110000Y66310000D03*
X72110000Y58690000D03*
X82270000Y66310000D03*
X89890000Y66310000D03*
X94500000Y62500000D03*
X84500000Y62500000D03*
X72500000Y62500000D03*
X67500000Y62500000D03*
X72110000Y22310000D03*
X72110000Y14690000D03*
X82270000Y22310000D03*
X89890000Y22310000D03*
X94500000Y18500000D03*
X84500000Y18500000D03*
X72500000Y18500000D03*
X67500000Y18500000D03*
X27890000Y23690000D03*
X27890000Y31310000D03*
X17730000Y23690000D03*
X10110000Y23690000D03*
X5500000Y27500000D03*
X15500000Y27500000D03*
X27500000Y27500000D03*
X32500000Y27500000D03*
X27890000Y45690000D03*
X27890000Y53310000D03*
X17730000Y45690000D03*
X10110000Y45690000D03*
X5500000Y49500000D03*
X15500000Y49500000D03*
X27500000Y49500000D03*
X32500000Y49500000D03*
X27890000Y67690000D03*
X27890000Y75310000D03*
X17730000Y67690000D03*
X10110000Y67690000D03*
X5500000Y71500000D03*
X15500000Y71500000D03*
X27500000Y71500000D03*
X32500000Y71500000D03*
D14*
X16050000Y83500000D03*
X21130000Y83500000D03*
D15*
X35100000Y84074800D03*
X37640000Y84074800D03*
X40180000Y84074800D03*
D14*
X83950000Y94500000D03*
X78870000Y94500000D03*
D15*
X64900000Y93925200D03*
X62360000Y93925200D03*
X59820000Y93925200D03*
D14*
X83950000Y72500000D03*
X78870000Y72500000D03*
D15*
X64900000Y71925200D03*
X62360000Y71925200D03*
X59820000Y71925200D03*
D14*
X83950000Y50500000D03*
X78870000Y50500000D03*
D15*
X64900000Y49925200D03*
X62360000Y49925200D03*
X59820000Y49925200D03*
D14*
X83950000Y28500000D03*
X78870000Y28500000D03*
D15*
X64900000Y27925200D03*
X62360000Y27925200D03*
X59820000Y27925200D03*
D14*
X16050000Y17500000D03*
X21130000Y17500000D03*
D15*
X35100000Y18074800D03*
X37640000Y18074800D03*
X40180000Y18074800D03*
D14*
X16050000Y39500000D03*
X21130000Y39500000D03*
D15*
X35100000Y40074800D03*
X37640000Y40074800D03*
X40180000Y40074800D03*
D14*
X16000000Y61500000D03*
X21080000Y61500000D03*
D15*
X35050000Y62074800D03*
X37590000Y62074800D03*
X40130000Y62074800D03*
D16*
X50165000Y66040000D03*
D17*
X50165000Y68580000D03*
X50165000Y71120000D03*
X50165000Y73660000D03*
X50165000Y76200000D03*
X50165000Y78740000D03*
D18*
X46500000Y13725005D03*
X49000000Y13725005D03*
X51000000Y13725005D03*
X53500000Y13725005D03*
X46500000Y11105005D03*
X49000000Y11105005D03*
X51000000Y11105005D03*
X53500000Y11105005D03*
D19*
X56570000Y8395005D03*
X56570000Y14075005D03*
X43430000Y14075005D03*
X43430000Y8395005D03*
D20*
X95500000Y8040000D03*
D21*
X95500000Y2960000D03*
D20*
X4445000Y8040000D03*
D21*
X4445000Y2960000D03*
D12*
X69750000Y83900000D03*
X69750000Y86100000D03*
X75000000Y77900000D03*
X75000000Y80100000D03*
X75000000Y39900000D03*
X75000000Y42100000D03*
X69000000Y33900000D03*
X69000000Y36100000D03*
X31000000Y33900000D03*
X31000000Y36100000D03*
X25400000Y40175000D03*
X25400000Y42375000D03*
X25000000Y77900000D03*
X25000000Y80100000D03*
X57615000Y3810000D03*
X55415000Y3810000D03*
D22*
X49530000Y41275000D03*
X45720000Y62230000D03*
X45085000Y30480000D03*
X45085000Y29845000D03*
X46990000Y5080000D03*
X46304758Y51786205D03*
X54610000Y59690000D03*
X53975000Y40005000D03*
X53975000Y29845000D03*
X47625000Y31115000D03*
X40005000Y10795000D03*
X40894000Y10414000D03*
X53481820Y57150000D03*
X55895057Y53958904D03*
X53738495Y51899979D03*
X40640000Y26670000D03*
X40640000Y31750000D03*
X47625000Y33655000D03*
X48268143Y53352040D03*
X55245000Y51435000D03*
X40640000Y53340000D03*
X40640000Y45720000D03*
X59690000Y13970000D03*
X40640000Y71120000D03*
X40640000Y76200000D03*
X59690000Y80010000D03*
X59690000Y88265000D03*
X40640000Y97155000D03*
X40640000Y93345000D03*
X29210000Y1905000D03*
X48260000Y21590000D03*
X37465000Y12700000D03*
X34925000Y12700000D03*
X43180000Y3810000D03*
X40005000Y6985000D03*
X70485000Y9525000D03*
X70485000Y4445000D03*
X45720000Y60325000D03*
X42545000Y60960000D03*
X43815000Y62865000D03*
X55245000Y60960000D03*
X45085000Y51435000D03*
X54610000Y20955000D03*
X59055000Y17145000D03*
X59690000Y44450000D03*
X59690000Y66675000D03*
X59690000Y36195000D03*
X59690000Y58420000D03*
X53975000Y34925000D03*
D23*
X49530000Y34925000D03*
D22*
X40640000Y37465000D03*
X40640000Y34925000D03*
X49530000Y38735000D03*
X40640000Y81915000D03*
X40640000Y79375000D03*
X49530000Y27305000D03*
X35560000Y6985000D03*
X53340000Y19955000D03*
X59690000Y33020000D03*
X59690000Y30480000D03*
X59690000Y74295000D03*
X59690000Y76835000D03*
X32385000Y82550000D03*
X46990000Y43815000D03*
X51989401Y41990599D03*
X53340000Y43815000D03*
X45085000Y2540000D03*
X47625000Y36195000D03*
X45671125Y38148875D03*
X50165000Y55245000D03*
X43815000Y50800000D03*
X45144049Y53280951D03*
X52070000Y47625000D03*
X49530000Y54610000D03*
X49530000Y47625000D03*
X48895000Y53975000D03*
X51435000Y43815000D03*
X51367091Y32385000D03*
X52237209Y58252791D03*
X41910000Y88265000D03*
X44861369Y58432690D03*
X58420000Y83185000D03*
X55545561Y58440938D03*
X58420000Y61595000D03*
X56404702Y58420000D03*
X58420000Y41910000D03*
X53340000Y50165000D03*
X58420000Y24130000D03*
X54176017Y47813903D03*
X41910000Y24765000D03*
X48463203Y49530000D03*
X47625000Y49530000D03*
X40640000Y49530000D03*
X41910000Y66040000D03*
X43937540Y57662460D03*
X52070000Y53340000D03*
X43815000Y38735000D03*
X53319062Y49305859D03*
X55880000Y2540000D03*
X69850000Y32385000D03*
X69202658Y82537658D03*
X73660000Y77470000D03*
X74930000Y38100000D03*
X67310000Y33020000D03*
X32385000Y34290000D03*
X26670000Y38735000D03*
X26670000Y78105000D03*
X59055000Y3810000D03*
D24*
X48615000Y4560000D02*
X47510000Y4560000D01*
X47510000Y4560000D02*
X46990000Y5080000D01*
X42080000Y3810000D02*
X43180000Y3810000D01*
X49530000Y34290000D02*
X49530000Y34925000D01*
X49530000Y34925000D02*
X49530000Y38735000D01*
X49530000Y27305000D02*
X49530000Y34290000D01*
X32385000Y82550000D02*
X32350000Y82550000D01*
X32350000Y82550000D02*
X31000000Y83900000D01*
X31000000Y86100000D02*
X31000000Y92000000D01*
X31000000Y92000000D02*
X32500000Y93500000D01*
X44450000Y41275000D02*
X46990000Y43815000D01*
X44450000Y15875000D02*
X44450000Y41275000D01*
X45109401Y15215599D02*
X44450000Y15875000D01*
X45109401Y7588892D02*
X45109401Y15215599D01*
X48615000Y3060000D02*
X48088994Y3060000D01*
X48088994Y3060000D02*
X45109401Y6039593D01*
X45109401Y6039593D02*
X45109401Y7588892D01*
X51715000Y4560000D02*
X51715000Y5264000D01*
X51715000Y5264000D02*
X51989401Y5538401D01*
X51989401Y5538401D02*
X51989401Y41990599D01*
X54890599Y16790599D02*
X54890599Y5935599D01*
X54890599Y5935599D02*
X52015000Y3060000D01*
X52015000Y3060000D02*
X51715000Y3060000D01*
X55245000Y41910000D02*
X53340000Y43815000D01*
X55245000Y17145000D02*
X55245000Y41910000D01*
X54890599Y16790599D02*
X55245000Y17145000D01*
X44280000Y3810000D02*
X44280000Y3345000D01*
X44280000Y3345000D02*
X45085000Y2540000D01*
X45671125Y38148875D02*
X47625000Y36195000D01*
X50165000Y73660000D02*
X49035599Y72530599D01*
X49035599Y72530599D02*
X49035599Y56374401D01*
X49035599Y56374401D02*
X50165000Y55245000D01*
X45144049Y53280951D02*
X43815000Y51951902D01*
X43815000Y51951902D02*
X43815000Y50800000D01*
X49936410Y53508340D02*
X49936410Y49758590D01*
X49936410Y49758590D02*
X52070000Y47625000D01*
X49530000Y54610000D02*
X49936410Y54203590D01*
X49936410Y54203590D02*
X49936410Y53508340D01*
X48895000Y53975000D02*
X49530000Y53340000D01*
X49530000Y53340000D02*
X49530000Y47625000D01*
X51367091Y32385000D02*
X51367091Y43747091D01*
X51367091Y43747091D02*
X51435000Y43815000D01*
X52237209Y58252791D02*
X51602209Y58252791D01*
X51602209Y58252791D02*
X50165000Y59690000D01*
X50165000Y59690000D02*
X50165000Y66040000D01*
X43180000Y60114059D02*
X43180000Y86995000D01*
X43180000Y86995000D02*
X41910000Y88265000D01*
X44861369Y58432690D02*
X43180000Y60114059D01*
X55888460Y58783837D02*
X55888460Y59984466D01*
X55545561Y58440938D02*
X55888460Y58783837D01*
X55888460Y59984466D02*
X58420000Y62516006D01*
X58420000Y62516006D02*
X58420000Y63500000D01*
X58420000Y63500000D02*
X58420000Y83185000D01*
X56404702Y58420000D02*
X58420000Y60435298D01*
X58420000Y60435298D02*
X58420000Y61595000D01*
X58420000Y45085000D02*
X58420000Y41910000D01*
X53340000Y50165000D02*
X58420000Y45085000D01*
X57785000Y41623994D02*
X57785000Y24765000D01*
X57785000Y24765000D02*
X58420000Y24130000D01*
X57785000Y45085000D02*
X57785000Y41623994D01*
X55056097Y47813903D02*
X57785000Y45085000D01*
X54176017Y47813903D02*
X55056097Y47813903D01*
X48463203Y49530000D02*
X48463203Y49045067D01*
X48463203Y49045067D02*
X41910000Y42491864D01*
X41910000Y42491864D02*
X41910000Y24765000D01*
X46355000Y49530000D02*
X47625000Y49530000D01*
X40640000Y49530000D02*
X46355000Y49530000D01*
X43937540Y57662460D02*
X41910000Y59690000D01*
X41910000Y59690000D02*
X41910000Y66040000D01*
X51435000Y60325000D02*
X51435000Y74930000D01*
X52859510Y58900490D02*
X51435000Y60325000D01*
X52070000Y53340000D02*
X52859510Y54129510D01*
X52859510Y54129510D02*
X52859510Y58900490D01*
X51435000Y74930000D02*
X50165000Y76200000D01*
X52070000Y46355000D02*
X53319062Y47604062D01*
X53319062Y47604062D02*
X53319062Y49305859D01*
X43815000Y42831006D02*
X47338994Y46355000D01*
X47338994Y46355000D02*
X52070000Y46355000D01*
X43815000Y42831006D02*
X43815000Y38735000D01*
X55415000Y3810000D02*
X55415000Y3005000D01*
X55415000Y3005000D02*
X55880000Y2540000D01*
X69750000Y86100000D02*
X68896000Y86100000D01*
X68896000Y86100000D02*
X67500000Y84704000D01*
X67500000Y84704000D02*
X67500000Y84500000D01*
X75000000Y80100000D02*
X74146000Y80100000D01*
X74146000Y80100000D02*
X67500000Y73454000D01*
X67500000Y73454000D02*
X67500000Y64267766D01*
X67500000Y64267766D02*
X67500000Y62500000D01*
X67500000Y40500000D02*
X69545000Y42545000D01*
X69545000Y42545000D02*
X74555000Y42545000D01*
X74555000Y42545000D02*
X75000000Y42100000D01*
X69310000Y36100000D02*
X69879401Y35530599D01*
X69879401Y35530599D02*
X69879401Y32414401D01*
X69879401Y32414401D02*
X69850000Y32385000D01*
X69000000Y36100000D02*
X69310000Y36100000D01*
X27890000Y31310000D02*
X29139999Y32559999D01*
X29139999Y32559999D02*
X29139999Y35093999D01*
X29139999Y35093999D02*
X30146000Y36100000D01*
X30146000Y36100000D02*
X31000000Y36100000D01*
X25970599Y43180000D02*
X25970599Y51390599D01*
X25400000Y42375000D02*
X25400000Y42609401D01*
X25400000Y42609401D02*
X25970599Y43180000D01*
X25970599Y51390599D02*
X26640001Y52060001D01*
X26640001Y52060001D02*
X27890000Y53310000D01*
X27890000Y75310000D02*
X27890000Y78064000D01*
X27890000Y78064000D02*
X25854000Y80100000D01*
X25854000Y80100000D02*
X25000000Y80100000D01*
X69750000Y83900000D02*
X69750000Y83085000D01*
X69750000Y83085000D02*
X69202658Y82537658D01*
X73660000Y77470000D02*
X74570000Y77470000D01*
X74570000Y77470000D02*
X75000000Y77900000D01*
X74930000Y38100000D02*
X74930000Y39830000D01*
X74930000Y39830000D02*
X75000000Y39900000D01*
X67945000Y33655000D02*
X67945000Y33699000D01*
X67945000Y33699000D02*
X68146000Y33900000D01*
X68146000Y33900000D02*
X69000000Y33900000D01*
X67310000Y33020000D02*
X67945000Y33655000D01*
X32385000Y34290000D02*
X31390000Y34290000D01*
X31390000Y34290000D02*
X31000000Y33900000D01*
X26670000Y38735000D02*
X25400000Y40005000D01*
X25400000Y40005000D02*
X25400000Y40175000D01*
X26670000Y78105000D02*
X25205000Y78105000D01*
X25205000Y78105000D02*
X25000000Y77900000D01*
X59055000Y3810000D02*
X57615000Y3810000D01*
G36*
X11373000Y6627000D02*
X456000Y6627000D01*
X456000Y99544000D01*
X11373000Y99544000D01*
X11373000Y6627000D01*
X11373000Y6627000D01*
G37*
X11373000Y6627000D02*
X456000Y6627000D01*
X456000Y99544000D01*
X11373000Y99544000D01*
X11373000Y6627000D01*
G36*
X99544000Y6627000D02*
X88627000Y6627000D01*
X88627000Y90873000D01*
X99544000Y90873000D01*
X99544000Y6627000D01*
X99544000Y6627000D01*
G37*
X99544000Y6627000D02*
X88627000Y6627000D01*
X88627000Y90873000D01*
X99544000Y90873000D01*
X99544000Y6627000D01*
G36*
X22873000Y40975541D02*
X22873000Y38127000D01*
X14127000Y38127000D01*
X14127000Y50873000D01*
X18914016Y50873000D01*
X22873000Y40975541D01*
X22873000Y40975541D01*
G37*
X22873000Y40975541D02*
X22873000Y38127000D01*
X14127000Y38127000D01*
X14127000Y50873000D01*
X18914016Y50873000D01*
X22873000Y40975541D01*
G36*
X22873000Y18975541D02*
X22873000Y16127000D01*
X14127000Y16127000D01*
X14127000Y28873000D01*
X18914016Y28873000D01*
X22873000Y18975541D01*
X22873000Y18975541D01*
G37*
X22873000Y18975541D02*
X22873000Y16127000D01*
X14127000Y16127000D01*
X14127000Y28873000D01*
X18914016Y28873000D01*
X22873000Y18975541D01*
G36*
X22873000Y84975541D02*
X22873000Y82127000D01*
X14127000Y82127000D01*
X14127000Y94873000D01*
X18914016Y94873000D01*
X22873000Y84975541D01*
X22873000Y84975541D01*
G37*
X22873000Y84975541D02*
X22873000Y82127000D01*
X14127000Y82127000D01*
X14127000Y94873000D01*
X18914016Y94873000D01*
X22873000Y84975541D01*
G36*
X22873000Y62975541D02*
X22873000Y60127000D01*
X14127000Y60127000D01*
X14127000Y72873000D01*
X18914016Y72873000D01*
X22873000Y62975541D01*
X22873000Y62975541D01*
G37*
X22873000Y62975541D02*
X22873000Y60127000D01*
X14127000Y60127000D01*
X14127000Y72873000D01*
X18914016Y72873000D01*
X22873000Y62975541D01*
G36*
X85873000Y83127000D02*
X81085984Y83127000D01*
X77127000Y93024460D01*
X77127000Y95873000D01*
X85873000Y95873000D01*
X85873000Y83127000D01*
X85873000Y83127000D01*
G37*
X85873000Y83127000D02*
X81085984Y83127000D01*
X77127000Y93024460D01*
X77127000Y95873000D01*
X85873000Y95873000D01*
X85873000Y83127000D01*
G36*
X85873000Y61127000D02*
X81085984Y61127000D01*
X77127000Y71024460D01*
X77127000Y73873000D01*
X85873000Y73873000D01*
X85873000Y61127000D01*
X85873000Y61127000D01*
G37*
X85873000Y61127000D02*
X81085984Y61127000D01*
X77127000Y71024460D01*
X77127000Y73873000D01*
X85873000Y73873000D01*
X85873000Y61127000D01*
G36*
X85873000Y39127000D02*
X81085984Y39127000D01*
X77127000Y49024460D01*
X77127000Y51873000D01*
X85873000Y51873000D01*
X85873000Y39127000D01*
X85873000Y39127000D01*
G37*
X85873000Y39127000D02*
X81085984Y39127000D01*
X77127000Y49024460D01*
X77127000Y51873000D01*
X85873000Y51873000D01*
X85873000Y39127000D01*
G36*
X85873000Y17127000D02*
X81085984Y17127000D01*
X77127000Y27024460D01*
X77127000Y29873000D01*
X85873000Y29873000D01*
X85873000Y17127000D01*
X85873000Y17127000D01*
G37*
X85873000Y17127000D02*
X81085984Y17127000D01*
X77127000Y27024460D01*
X77127000Y29873000D01*
X85873000Y29873000D01*
X85873000Y17127000D01*
M02*
