G04 #@! TF.FileFunction,Copper,L3,Inr,Plane*
%FSLAX46Y46*%
G04 Gerber Fmt 4.6, Leading zero omitted, Abs format (unit mm)*
G04 Created by KiCad (PCBNEW 4.0.4-stable) date 11/14/16 12:13:18*
%MOMM*%
%LPD*%
G01*
G04 APERTURE LIST*
%ADD10C,0.150000*%
%ADD11R,4.000000X4.000000*%
%ADD12C,4.000000*%
%ADD13R,1.727200X2.032000*%
%ADD14O,1.727200X2.032000*%
%ADD15R,2.032000X2.032000*%
%ADD16O,2.032000X2.032000*%
%ADD17C,1.420000*%
%ADD18C,2.800000*%
%ADD19C,2.500000*%
%ADD20C,0.685800*%
%ADD21C,0.254000*%
G04 APERTURE END LIST*
D10*
D11*
X95885000Y13335000D03*
D12*
X95885000Y8255000D03*
D13*
X26035000Y14605000D03*
D14*
X28575000Y14605000D03*
X31115000Y14605000D03*
X33655000Y14605000D03*
X36195000Y14605000D03*
X38735000Y14605000D03*
D11*
X88265000Y97155000D03*
X12065000Y82550000D03*
X88265000Y76835000D03*
X12065000Y62230000D03*
X88265000Y56515000D03*
X12065000Y41910000D03*
X88265000Y36195000D03*
X12065000Y21590000D03*
D15*
X83820000Y95250000D03*
D16*
X83820000Y97790000D03*
D15*
X16510000Y84455000D03*
D16*
X16510000Y81915000D03*
D15*
X83820000Y74930000D03*
D16*
X83820000Y77470000D03*
D15*
X16510000Y64135000D03*
D16*
X16510000Y61595000D03*
D15*
X83820000Y54610000D03*
D16*
X83820000Y57150000D03*
D15*
X16510000Y43815000D03*
D16*
X16510000Y41275000D03*
D15*
X83820000Y34290000D03*
D16*
X83820000Y36830000D03*
D15*
X16510000Y23495000D03*
D16*
X16510000Y20955000D03*
D17*
X46500000Y14470005D03*
X49000000Y14470005D03*
X51000000Y14470005D03*
X53500000Y14470005D03*
X46500000Y11850005D03*
X49000000Y11850005D03*
X51000000Y11850005D03*
X53500000Y11850005D03*
D18*
X56570000Y9140005D03*
X56570000Y14820005D03*
X43430000Y14820005D03*
X43430000Y9140005D03*
D19*
X75565000Y90170000D03*
X75565000Y82550000D03*
X85725000Y90170000D03*
X93345000Y90170000D03*
X97955000Y86360000D03*
X87955000Y86360000D03*
X75955000Y86360000D03*
X70955000Y86360000D03*
X24765000Y89535000D03*
X24765000Y97155000D03*
X14605000Y89535000D03*
X6985000Y89535000D03*
X2375000Y93345000D03*
X12375000Y93345000D03*
X24375000Y93345000D03*
X29375000Y93345000D03*
X75565000Y69850000D03*
X75565000Y62230000D03*
X85725000Y69850000D03*
X93345000Y69850000D03*
X97955000Y66040000D03*
X87955000Y66040000D03*
X75955000Y66040000D03*
X70955000Y66040000D03*
X24765000Y69215000D03*
X24765000Y76835000D03*
X14605000Y69215000D03*
X6985000Y69215000D03*
X2375000Y73025000D03*
X12375000Y73025000D03*
X24375000Y73025000D03*
X29375000Y73025000D03*
X75565000Y49530000D03*
X75565000Y41910000D03*
X85725000Y49530000D03*
X93345000Y49530000D03*
X97955000Y45720000D03*
X87955000Y45720000D03*
X75955000Y45720000D03*
X70955000Y45720000D03*
X24765000Y48895000D03*
X24765000Y56515000D03*
X14605000Y48895000D03*
X6985000Y48895000D03*
X2375000Y52705000D03*
X12375000Y52705000D03*
X24375000Y52705000D03*
X29375000Y52705000D03*
X75565000Y29210000D03*
X75565000Y21590000D03*
X85725000Y29210000D03*
X93345000Y29210000D03*
X97955000Y25400000D03*
X87955000Y25400000D03*
X75955000Y25400000D03*
X70955000Y25400000D03*
X24765000Y28575000D03*
X24765000Y36195000D03*
X14605000Y28575000D03*
X6985000Y28575000D03*
X2375000Y32385000D03*
X12375000Y32385000D03*
X24375000Y32385000D03*
X29375000Y32385000D03*
D11*
X4445000Y13335000D03*
D12*
X4445000Y8255000D03*
D20*
X54610000Y33655000D03*
X36830000Y66675000D03*
X50165000Y55245000D03*
X36830000Y26035000D03*
X36195000Y19685000D03*
X24130000Y24130000D03*
X48260000Y39370000D03*
X47625000Y24130000D03*
X63500000Y31750000D03*
X76200000Y33655000D03*
X62865000Y38100000D03*
X64135000Y8890000D03*
X67945000Y6350000D03*
X70485000Y6350000D03*
X35560000Y2540000D03*
X28575000Y9525000D03*
X33020000Y9525000D03*
X36830000Y46355000D03*
X40005000Y40005000D03*
X24130000Y44450000D03*
X59690000Y78740000D03*
X59690000Y58420000D03*
X76200000Y53975000D03*
X63500000Y52070000D03*
X24130000Y64770000D03*
X40005000Y60325000D03*
X48895000Y74295000D03*
X76200000Y74295000D03*
X63500000Y72390000D03*
X24130000Y85090000D03*
X36830000Y86995000D03*
X40005000Y80645000D03*
X76200000Y94615000D03*
X48895000Y94615000D03*
X60325000Y99060000D03*
X63500000Y92710000D03*
X59055000Y30480000D03*
X59055000Y27305000D03*
X59055000Y18415000D03*
X31115000Y81280000D03*
X31115000Y85090000D03*
X31115000Y60960000D03*
X31115000Y64770000D03*
X42545000Y73025000D03*
X40005000Y73025000D03*
X57785000Y31750000D03*
X55245000Y32385000D03*
X40640000Y39370000D03*
X42545000Y19050000D03*
X44450000Y17145000D03*
X48260000Y23495000D03*
X52070000Y52070000D03*
X40005000Y93345000D03*
X42545000Y93345000D03*
X40005000Y31750000D03*
X38735000Y27940000D03*
X40640000Y22860000D03*
X37465000Y40005000D03*
X36195000Y18415000D03*
X34925000Y19685000D03*
X31115000Y24130000D03*
X30480000Y19050000D03*
X24130000Y20320000D03*
X51435000Y44450000D03*
X52070000Y46355000D03*
X64135000Y19050000D03*
X76200000Y37465000D03*
X69215000Y33655000D03*
X69215000Y38100000D03*
X60325000Y38100000D03*
X65405000Y38100000D03*
X60325000Y38735000D03*
X64135000Y39370000D03*
X71755000Y4445000D03*
X71755000Y9525000D03*
X66040000Y12065000D03*
X60325000Y8890000D03*
X34290000Y3810000D03*
X28575000Y1905000D03*
X24130000Y40640000D03*
X31115000Y44450000D03*
X31115000Y40640000D03*
X42545000Y40005000D03*
X42545000Y52705000D03*
X40005000Y52705000D03*
X40640000Y59690000D03*
X40640000Y80010000D03*
X54610000Y57785000D03*
X57785000Y58420000D03*
X62865000Y58420000D03*
X69215000Y53975000D03*
X69215000Y57785000D03*
X76200000Y57785000D03*
X57785000Y49530000D03*
X60325000Y49530000D03*
X24130000Y60960000D03*
X37465000Y60325000D03*
X42545000Y60325000D03*
X37465000Y80645000D03*
X57785000Y69850000D03*
X60325000Y69850000D03*
X54610000Y78105000D03*
X52070000Y72390000D03*
X60325000Y59055000D03*
X69215000Y78105000D03*
X69215000Y74295000D03*
X76200000Y78105000D03*
X57785000Y78740000D03*
X62865000Y78740000D03*
X76200000Y98425000D03*
X24130000Y81280000D03*
X42545000Y80645000D03*
X38735000Y97790000D03*
X60325000Y79375000D03*
X52070000Y92710000D03*
X54610000Y98425000D03*
X57785000Y99060000D03*
X62865000Y99060000D03*
X69215000Y98425000D03*
X69215000Y94615000D03*
X60325000Y90170000D03*
X57785000Y90170000D03*
X44450000Y31750000D03*
X55245000Y86360000D03*
X43180000Y31750000D03*
X45085000Y89535000D03*
X45085000Y27940000D03*
X55245000Y66040000D03*
X42545000Y29845000D03*
X45085000Y69215000D03*
X55245000Y45720000D03*
X45720000Y26670000D03*
X45085000Y48895000D03*
X43180000Y24130000D03*
X52070000Y31115000D03*
X71755000Y6985000D03*
X57785000Y27305000D03*
X64135000Y14605000D03*
X57785000Y30480000D03*
X58420000Y43180000D03*
X48895000Y58420000D03*
X50800000Y31115000D03*
X49530000Y36195000D03*
X48895000Y40005000D03*
X53975000Y29210000D03*
X56515000Y20955000D03*
X55880000Y31750000D03*
X53975000Y35560000D03*
X48260000Y37465000D03*
X50800000Y37465000D03*
X51435000Y31750000D03*
X28575000Y7620000D03*
X28575000Y4445000D03*
X47625000Y31115000D03*
X46990000Y29845000D03*
X48260000Y27305000D03*
X47625000Y19685000D03*
X38100000Y9525000D03*
X50800000Y22225000D03*
X41275000Y9525000D03*
X50800000Y23495000D03*
X35560000Y9525000D03*
X52705000Y24130000D03*
X56515000Y79375000D03*
X48895000Y29210000D03*
X42545000Y95885000D03*
X50165000Y82550000D03*
X50165000Y27940000D03*
X53975000Y25400000D03*
X56515000Y59055000D03*
X48895000Y38100000D03*
X49530000Y59055000D03*
X49530000Y61595000D03*
X48895000Y78740000D03*
X48895000Y35560000D03*
X50800000Y29845000D03*
X62230000Y11430000D03*
X55880000Y27305000D03*
X60325000Y14605000D03*
X56515000Y23495000D03*
X61595000Y5080000D03*
X62865000Y5715000D03*
X54610000Y38100000D03*
X56515000Y36830000D03*
X44450000Y43815000D03*
X36195000Y22860000D03*
D21*
G36*
X57171665Y99470592D02*
X57061226Y99204624D01*
X57060975Y98916639D01*
X57170950Y98650479D01*
X57374408Y98446665D01*
X57640376Y98336226D01*
X57928361Y98335975D01*
X58194521Y98445950D01*
X58398335Y98649408D01*
X58508774Y98915376D01*
X58509025Y99203361D01*
X58399050Y99469521D01*
X58324701Y99544000D01*
X62325201Y99544000D01*
X62251665Y99470592D01*
X62141226Y99204624D01*
X62140975Y98916639D01*
X62250950Y98650479D01*
X62454408Y98446665D01*
X62720376Y98336226D01*
X63008361Y98335975D01*
X63274521Y98445950D01*
X63478335Y98649408D01*
X63588774Y98915376D01*
X63589025Y99203361D01*
X63479050Y99469521D01*
X63404701Y99544000D01*
X77373000Y99544000D01*
X77373000Y456000D01*
X23127000Y456000D01*
X23127000Y1761639D01*
X27850975Y1761639D01*
X27960950Y1495479D01*
X28164408Y1291665D01*
X28430376Y1181226D01*
X28718361Y1180975D01*
X28984521Y1290950D01*
X29188335Y1494408D01*
X29298774Y1760376D01*
X29299025Y2048361D01*
X29189050Y2314521D01*
X28985592Y2518335D01*
X28719624Y2628774D01*
X28431639Y2629025D01*
X28165479Y2519050D01*
X27961665Y2315592D01*
X27851226Y2049624D01*
X27850975Y1761639D01*
X23127000Y1761639D01*
X23127000Y3666639D01*
X33565975Y3666639D01*
X33675950Y3400479D01*
X33879408Y3196665D01*
X34145376Y3086226D01*
X34433361Y3085975D01*
X34699521Y3195950D01*
X34903335Y3399408D01*
X35013774Y3665376D01*
X35014025Y3953361D01*
X34904050Y4219521D01*
X34822076Y4301639D01*
X71030975Y4301639D01*
X71140950Y4035479D01*
X71344408Y3831665D01*
X71610376Y3721226D01*
X71898361Y3720975D01*
X72164521Y3830950D01*
X72368335Y4034408D01*
X72478774Y4300376D01*
X72479025Y4588361D01*
X72369050Y4854521D01*
X72165592Y5058335D01*
X71899624Y5168774D01*
X71611639Y5169025D01*
X71345479Y5059050D01*
X71141665Y4855592D01*
X71031226Y4589624D01*
X71030975Y4301639D01*
X34822076Y4301639D01*
X34700592Y4423335D01*
X34434624Y4533774D01*
X34146639Y4534025D01*
X33880479Y4424050D01*
X33676665Y4220592D01*
X33566226Y3954624D01*
X33565975Y3666639D01*
X23127000Y3666639D01*
X23127000Y4301639D01*
X27850975Y4301639D01*
X27960950Y4035479D01*
X28164408Y3831665D01*
X28430376Y3721226D01*
X28718361Y3720975D01*
X28984521Y3830950D01*
X29188335Y4034408D01*
X29298774Y4300376D01*
X29299025Y4588361D01*
X29189050Y4854521D01*
X29107076Y4936639D01*
X60870975Y4936639D01*
X60980950Y4670479D01*
X61184408Y4466665D01*
X61450376Y4356226D01*
X61738361Y4355975D01*
X62004521Y4465950D01*
X62208335Y4669408D01*
X62318774Y4935376D01*
X62319025Y5223361D01*
X62309209Y5247118D01*
X62454408Y5101665D01*
X62720376Y4991226D01*
X63008361Y4990975D01*
X63274521Y5100950D01*
X63478335Y5304408D01*
X63588774Y5570376D01*
X63589025Y5858361D01*
X63479050Y6124521D01*
X63275592Y6328335D01*
X63009624Y6438774D01*
X62721639Y6439025D01*
X62455479Y6329050D01*
X62251665Y6125592D01*
X62141226Y5859624D01*
X62140975Y5571639D01*
X62150791Y5547882D01*
X62005592Y5693335D01*
X61739624Y5803774D01*
X61451639Y5804025D01*
X61185479Y5694050D01*
X60981665Y5490592D01*
X60871226Y5224624D01*
X60870975Y4936639D01*
X29107076Y4936639D01*
X28985592Y5058335D01*
X28719624Y5168774D01*
X28431639Y5169025D01*
X28165479Y5059050D01*
X27961665Y4855592D01*
X27851226Y4589624D01*
X27850975Y4301639D01*
X23127000Y4301639D01*
X23127000Y6841639D01*
X71030975Y6841639D01*
X71140950Y6575479D01*
X71344408Y6371665D01*
X71610376Y6261226D01*
X71898361Y6260975D01*
X72164521Y6370950D01*
X72368335Y6574408D01*
X72478774Y6840376D01*
X72479025Y7128361D01*
X72369050Y7394521D01*
X72165592Y7598335D01*
X71899624Y7708774D01*
X71611639Y7709025D01*
X71345479Y7599050D01*
X71141665Y7395592D01*
X71031226Y7129624D01*
X71030975Y6841639D01*
X23127000Y6841639D01*
X23127000Y7476639D01*
X27850975Y7476639D01*
X27960950Y7210479D01*
X28164408Y7006665D01*
X28430376Y6896226D01*
X28718361Y6895975D01*
X28984521Y7005950D01*
X29188335Y7209408D01*
X29298774Y7475376D01*
X29299025Y7763361D01*
X29189050Y8029521D01*
X28985592Y8233335D01*
X28719624Y8343774D01*
X28431639Y8344025D01*
X28165479Y8234050D01*
X27961665Y8030592D01*
X27851226Y7764624D01*
X27850975Y7476639D01*
X23127000Y7476639D01*
X23127000Y9381639D01*
X34835975Y9381639D01*
X34945950Y9115479D01*
X35149408Y8911665D01*
X35415376Y8801226D01*
X35703361Y8800975D01*
X35969521Y8910950D01*
X36173335Y9114408D01*
X36283774Y9380376D01*
X36283775Y9381639D01*
X37375975Y9381639D01*
X37485950Y9115479D01*
X37689408Y8911665D01*
X37955376Y8801226D01*
X38243361Y8800975D01*
X38509521Y8910950D01*
X38713335Y9114408D01*
X38823774Y9380376D01*
X38823775Y9381639D01*
X40550975Y9381639D01*
X40660950Y9115479D01*
X40864408Y8911665D01*
X41130376Y8801226D01*
X41418361Y8800975D01*
X41648786Y8896185D01*
X41648691Y8787296D01*
X41919261Y8132467D01*
X42419827Y7631027D01*
X43074183Y7359315D01*
X43782709Y7358696D01*
X44437538Y7629266D01*
X44938978Y8129832D01*
X45210690Y8784188D01*
X45210692Y8787296D01*
X54788691Y8787296D01*
X55059261Y8132467D01*
X55559827Y7631027D01*
X56214183Y7359315D01*
X56922709Y7358696D01*
X57577538Y7629266D01*
X58078978Y8129832D01*
X58335098Y8746639D01*
X59600975Y8746639D01*
X59710950Y8480479D01*
X59914408Y8276665D01*
X60180376Y8166226D01*
X60468361Y8165975D01*
X60734521Y8275950D01*
X60938335Y8479408D01*
X61048774Y8745376D01*
X61049025Y9033361D01*
X60939050Y9299521D01*
X60857076Y9381639D01*
X71030975Y9381639D01*
X71140950Y9115479D01*
X71344408Y8911665D01*
X71610376Y8801226D01*
X71898361Y8800975D01*
X72164521Y8910950D01*
X72368335Y9114408D01*
X72478774Y9380376D01*
X72479025Y9668361D01*
X72369050Y9934521D01*
X72165592Y10138335D01*
X71899624Y10248774D01*
X71611639Y10249025D01*
X71345479Y10139050D01*
X71141665Y9935592D01*
X71031226Y9669624D01*
X71030975Y9381639D01*
X60857076Y9381639D01*
X60735592Y9503335D01*
X60469624Y9613774D01*
X60181639Y9614025D01*
X59915479Y9504050D01*
X59711665Y9300592D01*
X59601226Y9034624D01*
X59600975Y8746639D01*
X58335098Y8746639D01*
X58350690Y8784188D01*
X58351309Y9492714D01*
X58080739Y10147543D01*
X57580173Y10648983D01*
X56925817Y10920695D01*
X56217291Y10921314D01*
X55562462Y10650744D01*
X55061022Y10150178D01*
X54789310Y9495822D01*
X54788691Y8787296D01*
X45210692Y8787296D01*
X45211309Y9492714D01*
X44940739Y10147543D01*
X44440173Y10648983D01*
X43785817Y10920695D01*
X43077291Y10921314D01*
X42422462Y10650744D01*
X41921022Y10150178D01*
X41848388Y9975255D01*
X41685592Y10138335D01*
X41419624Y10248774D01*
X41131639Y10249025D01*
X40865479Y10139050D01*
X40661665Y9935592D01*
X40551226Y9669624D01*
X40550975Y9381639D01*
X38823775Y9381639D01*
X38824025Y9668361D01*
X38714050Y9934521D01*
X38510592Y10138335D01*
X38244624Y10248774D01*
X37956639Y10249025D01*
X37690479Y10139050D01*
X37486665Y9935592D01*
X37376226Y9669624D01*
X37375975Y9381639D01*
X36283775Y9381639D01*
X36284025Y9668361D01*
X36174050Y9934521D01*
X35970592Y10138335D01*
X35704624Y10248774D01*
X35416639Y10249025D01*
X35150479Y10139050D01*
X34946665Y9935592D01*
X34836226Y9669624D01*
X34835975Y9381639D01*
X23127000Y9381639D01*
X23127000Y11633944D01*
X47908811Y11633944D01*
X48074556Y11232810D01*
X48381191Y10925639D01*
X48782035Y10759195D01*
X49216061Y10758816D01*
X49617195Y10924561D01*
X49924366Y11231196D01*
X49999980Y11413297D01*
X50074556Y11232810D01*
X50381191Y10925639D01*
X50782035Y10759195D01*
X51216061Y10758816D01*
X51617195Y10924561D01*
X51924366Y11231196D01*
X52090810Y11632040D01*
X52090811Y11633944D01*
X52408811Y11633944D01*
X52574556Y11232810D01*
X52881191Y10925639D01*
X53282035Y10759195D01*
X53716061Y10758816D01*
X54117195Y10924561D01*
X54424366Y11231196D01*
X54447387Y11286639D01*
X61505975Y11286639D01*
X61615950Y11020479D01*
X61819408Y10816665D01*
X62085376Y10706226D01*
X62373361Y10705975D01*
X62639521Y10815950D01*
X62843335Y11019408D01*
X62953774Y11285376D01*
X62954025Y11573361D01*
X62844050Y11839521D01*
X62762076Y11921639D01*
X65315975Y11921639D01*
X65425950Y11655479D01*
X65629408Y11451665D01*
X65895376Y11341226D01*
X66183361Y11340975D01*
X66449521Y11450950D01*
X66653335Y11654408D01*
X66763774Y11920376D01*
X66764025Y12208361D01*
X66654050Y12474521D01*
X66450592Y12678335D01*
X66184624Y12788774D01*
X65896639Y12789025D01*
X65630479Y12679050D01*
X65426665Y12475592D01*
X65316226Y12209624D01*
X65315975Y11921639D01*
X62762076Y11921639D01*
X62640592Y12043335D01*
X62374624Y12153774D01*
X62086639Y12154025D01*
X61820479Y12044050D01*
X61616665Y11840592D01*
X61506226Y11574624D01*
X61505975Y11286639D01*
X54447387Y11286639D01*
X54590810Y11632040D01*
X54591189Y12066066D01*
X54425444Y12467200D01*
X54118809Y12774371D01*
X53717965Y12940815D01*
X53283939Y12941194D01*
X52882805Y12775449D01*
X52575634Y12468814D01*
X52409190Y12067970D01*
X52408811Y11633944D01*
X52090811Y11633944D01*
X52091189Y12066066D01*
X51925444Y12467200D01*
X51618809Y12774371D01*
X51217965Y12940815D01*
X50783939Y12941194D01*
X50382805Y12775449D01*
X50075634Y12468814D01*
X50000020Y12286713D01*
X49925444Y12467200D01*
X49618809Y12774371D01*
X49217965Y12940815D01*
X48783939Y12941194D01*
X48382805Y12775449D01*
X48075634Y12468814D01*
X47909190Y12067970D01*
X47908811Y11633944D01*
X23127000Y11633944D01*
X23127000Y15621000D01*
X24782936Y15621000D01*
X24782936Y13589000D01*
X24809503Y13447810D01*
X24892946Y13318135D01*
X25020266Y13231141D01*
X25171400Y13200536D01*
X26898600Y13200536D01*
X27039790Y13227103D01*
X27169465Y13310546D01*
X27256459Y13437866D01*
X27287064Y13589000D01*
X27287064Y14784769D01*
X29870400Y14784769D01*
X29870400Y14425231D01*
X29965140Y13948943D01*
X30234935Y13545166D01*
X30638712Y13275371D01*
X31115000Y13180631D01*
X31591288Y13275371D01*
X31995065Y13545166D01*
X32264860Y13948943D01*
X32359600Y14425231D01*
X32359600Y14784769D01*
X32410400Y14784769D01*
X32410400Y14425231D01*
X32505140Y13948943D01*
X32774935Y13545166D01*
X33178712Y13275371D01*
X33655000Y13180631D01*
X34131288Y13275371D01*
X34535065Y13545166D01*
X34804860Y13948943D01*
X34899600Y14425231D01*
X34899600Y14784769D01*
X34950400Y14784769D01*
X34950400Y14425231D01*
X35045140Y13948943D01*
X35314935Y13545166D01*
X35718712Y13275371D01*
X36195000Y13180631D01*
X36671288Y13275371D01*
X37075065Y13545166D01*
X37344860Y13948943D01*
X37439600Y14425231D01*
X37439600Y14784769D01*
X37490400Y14784769D01*
X37490400Y14425231D01*
X37585140Y13948943D01*
X37854935Y13545166D01*
X38258712Y13275371D01*
X38735000Y13180631D01*
X39211288Y13275371D01*
X39615065Y13545166D01*
X39884860Y13948943D01*
X39979600Y14425231D01*
X39979600Y14467296D01*
X41648691Y14467296D01*
X41919261Y13812467D01*
X42419827Y13311027D01*
X43074183Y13039315D01*
X43782709Y13038696D01*
X44437538Y13309266D01*
X44938978Y13809832D01*
X45123389Y14253944D01*
X47908811Y14253944D01*
X48074556Y13852810D01*
X48381191Y13545639D01*
X48782035Y13379195D01*
X49216061Y13378816D01*
X49617195Y13544561D01*
X49924366Y13851196D01*
X49999980Y14033297D01*
X50074556Y13852810D01*
X50381191Y13545639D01*
X50782035Y13379195D01*
X51216061Y13378816D01*
X51617195Y13544561D01*
X51924366Y13851196D01*
X52090810Y14252040D01*
X52090811Y14253944D01*
X52408811Y14253944D01*
X52574556Y13852810D01*
X52881191Y13545639D01*
X53282035Y13379195D01*
X53716061Y13378816D01*
X54117195Y13544561D01*
X54424366Y13851196D01*
X54590810Y14252040D01*
X54590997Y14467296D01*
X54788691Y14467296D01*
X55059261Y13812467D01*
X55559827Y13311027D01*
X56214183Y13039315D01*
X56922709Y13038696D01*
X57577538Y13309266D01*
X58078978Y13809832D01*
X58349631Y14461639D01*
X59600975Y14461639D01*
X59710950Y14195479D01*
X59914408Y13991665D01*
X60180376Y13881226D01*
X60468361Y13880975D01*
X60734521Y13990950D01*
X60938335Y14194408D01*
X61048774Y14460376D01*
X61048775Y14461639D01*
X63410975Y14461639D01*
X63520950Y14195479D01*
X63724408Y13991665D01*
X63990376Y13881226D01*
X64278361Y13880975D01*
X64544521Y13990950D01*
X64748335Y14194408D01*
X64858774Y14460376D01*
X64859025Y14748361D01*
X64749050Y15014521D01*
X64545592Y15218335D01*
X64279624Y15328774D01*
X63991639Y15329025D01*
X63725479Y15219050D01*
X63521665Y15015592D01*
X63411226Y14749624D01*
X63410975Y14461639D01*
X61048775Y14461639D01*
X61049025Y14748361D01*
X60939050Y15014521D01*
X60735592Y15218335D01*
X60469624Y15328774D01*
X60181639Y15329025D01*
X59915479Y15219050D01*
X59711665Y15015592D01*
X59601226Y14749624D01*
X59600975Y14461639D01*
X58349631Y14461639D01*
X58350690Y14464188D01*
X58351309Y15172714D01*
X58080739Y15827543D01*
X57580173Y16328983D01*
X56925817Y16600695D01*
X56217291Y16601314D01*
X55562462Y16330744D01*
X55061022Y15830178D01*
X54789310Y15175822D01*
X54788691Y14467296D01*
X54590997Y14467296D01*
X54591189Y14686066D01*
X54425444Y15087200D01*
X54118809Y15394371D01*
X53717965Y15560815D01*
X53283939Y15561194D01*
X52882805Y15395449D01*
X52575634Y15088814D01*
X52409190Y14687970D01*
X52408811Y14253944D01*
X52090811Y14253944D01*
X52091189Y14686066D01*
X51925444Y15087200D01*
X51618809Y15394371D01*
X51217965Y15560815D01*
X50783939Y15561194D01*
X50382805Y15395449D01*
X50075634Y15088814D01*
X50000020Y14906713D01*
X49925444Y15087200D01*
X49618809Y15394371D01*
X49217965Y15560815D01*
X48783939Y15561194D01*
X48382805Y15395449D01*
X48075634Y15088814D01*
X47909190Y14687970D01*
X47908811Y14253944D01*
X45123389Y14253944D01*
X45210690Y14464188D01*
X45211309Y15172714D01*
X44940739Y15827543D01*
X44440173Y16328983D01*
X43785817Y16600695D01*
X43077291Y16601314D01*
X42422462Y16330744D01*
X41921022Y15830178D01*
X41649310Y15175822D01*
X41648691Y14467296D01*
X39979600Y14467296D01*
X39979600Y14784769D01*
X39884860Y15261057D01*
X39615065Y15664834D01*
X39211288Y15934629D01*
X38735000Y16029369D01*
X38258712Y15934629D01*
X37854935Y15664834D01*
X37585140Y15261057D01*
X37490400Y14784769D01*
X37439600Y14784769D01*
X37344860Y15261057D01*
X37075065Y15664834D01*
X36671288Y15934629D01*
X36195000Y16029369D01*
X35718712Y15934629D01*
X35314935Y15664834D01*
X35045140Y15261057D01*
X34950400Y14784769D01*
X34899600Y14784769D01*
X34804860Y15261057D01*
X34535065Y15664834D01*
X34131288Y15934629D01*
X33655000Y16029369D01*
X33178712Y15934629D01*
X32774935Y15664834D01*
X32505140Y15261057D01*
X32410400Y14784769D01*
X32359600Y14784769D01*
X32264860Y15261057D01*
X31995065Y15664834D01*
X31591288Y15934629D01*
X31115000Y16029369D01*
X30638712Y15934629D01*
X30234935Y15664834D01*
X29965140Y15261057D01*
X29870400Y14784769D01*
X27287064Y14784769D01*
X27287064Y15621000D01*
X27260497Y15762190D01*
X27177054Y15891865D01*
X27049734Y15978859D01*
X26898600Y16009464D01*
X25171400Y16009464D01*
X25030210Y15982897D01*
X24900535Y15899454D01*
X24813541Y15772134D01*
X24782936Y15621000D01*
X23127000Y15621000D01*
X23127000Y17001639D01*
X43725975Y17001639D01*
X43835950Y16735479D01*
X44039408Y16531665D01*
X44305376Y16421226D01*
X44593361Y16420975D01*
X44859521Y16530950D01*
X45063335Y16734408D01*
X45173774Y17000376D01*
X45174025Y17288361D01*
X45064050Y17554521D01*
X44860592Y17758335D01*
X44594624Y17868774D01*
X44306639Y17869025D01*
X44040479Y17759050D01*
X43836665Y17555592D01*
X43726226Y17289624D01*
X43725975Y17001639D01*
X23127000Y17001639D01*
X23127000Y18271639D01*
X35470975Y18271639D01*
X35580950Y18005479D01*
X35784408Y17801665D01*
X36050376Y17691226D01*
X36338361Y17690975D01*
X36604521Y17800950D01*
X36808335Y18004408D01*
X36918774Y18270376D01*
X36918775Y18271639D01*
X58330975Y18271639D01*
X58440950Y18005479D01*
X58644408Y17801665D01*
X58910376Y17691226D01*
X59198361Y17690975D01*
X59464521Y17800950D01*
X59668335Y18004408D01*
X59778774Y18270376D01*
X59779025Y18558361D01*
X59669050Y18824521D01*
X59587076Y18906639D01*
X63410975Y18906639D01*
X63520950Y18640479D01*
X63724408Y18436665D01*
X63990376Y18326226D01*
X64278361Y18325975D01*
X64544521Y18435950D01*
X64748335Y18639408D01*
X64858774Y18905376D01*
X64859025Y19193361D01*
X64749050Y19459521D01*
X64545592Y19663335D01*
X64279624Y19773774D01*
X63991639Y19774025D01*
X63725479Y19664050D01*
X63521665Y19460592D01*
X63411226Y19194624D01*
X63410975Y18906639D01*
X59587076Y18906639D01*
X59465592Y19028335D01*
X59199624Y19138774D01*
X58911639Y19139025D01*
X58645479Y19029050D01*
X58441665Y18825592D01*
X58331226Y18559624D01*
X58330975Y18271639D01*
X36918775Y18271639D01*
X36919025Y18558361D01*
X36809050Y18824521D01*
X36727076Y18906639D01*
X41820975Y18906639D01*
X41930950Y18640479D01*
X42134408Y18436665D01*
X42400376Y18326226D01*
X42688361Y18325975D01*
X42954521Y18435950D01*
X43158335Y18639408D01*
X43268774Y18905376D01*
X43269025Y19193361D01*
X43159050Y19459521D01*
X43077076Y19541639D01*
X46900975Y19541639D01*
X47010950Y19275479D01*
X47214408Y19071665D01*
X47480376Y18961226D01*
X47768361Y18960975D01*
X48034521Y19070950D01*
X48238335Y19274408D01*
X48348774Y19540376D01*
X48349025Y19828361D01*
X48239050Y20094521D01*
X48035592Y20298335D01*
X47769624Y20408774D01*
X47481639Y20409025D01*
X47215479Y20299050D01*
X47011665Y20095592D01*
X46901226Y19829624D01*
X46900975Y19541639D01*
X43077076Y19541639D01*
X42955592Y19663335D01*
X42689624Y19773774D01*
X42401639Y19774025D01*
X42135479Y19664050D01*
X41931665Y19460592D01*
X41821226Y19194624D01*
X41820975Y18906639D01*
X36727076Y18906639D01*
X36605592Y19028335D01*
X36339624Y19138774D01*
X36051639Y19139025D01*
X35785479Y19029050D01*
X35581665Y18825592D01*
X35471226Y18559624D01*
X35470975Y18271639D01*
X23127000Y18271639D01*
X23127000Y18906639D01*
X29755975Y18906639D01*
X29865950Y18640479D01*
X30069408Y18436665D01*
X30335376Y18326226D01*
X30623361Y18325975D01*
X30889521Y18435950D01*
X31093335Y18639408D01*
X31203774Y18905376D01*
X31204025Y19193361D01*
X31094050Y19459521D01*
X31012076Y19541639D01*
X34200975Y19541639D01*
X34310950Y19275479D01*
X34514408Y19071665D01*
X34780376Y18961226D01*
X35068361Y18960975D01*
X35334521Y19070950D01*
X35538335Y19274408D01*
X35648774Y19540376D01*
X35649025Y19828361D01*
X35539050Y20094521D01*
X35335592Y20298335D01*
X35069624Y20408774D01*
X34781639Y20409025D01*
X34515479Y20299050D01*
X34311665Y20095592D01*
X34201226Y19829624D01*
X34200975Y19541639D01*
X31012076Y19541639D01*
X30890592Y19663335D01*
X30624624Y19773774D01*
X30336639Y19774025D01*
X30070479Y19664050D01*
X29866665Y19460592D01*
X29756226Y19194624D01*
X29755975Y18906639D01*
X23127000Y18906639D01*
X23127000Y20176639D01*
X23405975Y20176639D01*
X23515950Y19910479D01*
X23719408Y19706665D01*
X23985376Y19596226D01*
X24273361Y19595975D01*
X24539521Y19705950D01*
X24743335Y19909408D01*
X24853774Y20175376D01*
X24854025Y20463361D01*
X24744050Y20729521D01*
X24662076Y20811639D01*
X55790975Y20811639D01*
X55900950Y20545479D01*
X56104408Y20341665D01*
X56370376Y20231226D01*
X56658361Y20230975D01*
X56924521Y20340950D01*
X57128335Y20544408D01*
X57238774Y20810376D01*
X57239025Y21098361D01*
X57169347Y21266997D01*
X73933718Y21266997D01*
X74181499Y20667320D01*
X74639907Y20208112D01*
X75239151Y19959284D01*
X75888003Y19958718D01*
X76487680Y20206499D01*
X76946888Y20664907D01*
X77195716Y21264151D01*
X77196282Y21913003D01*
X76948501Y22512680D01*
X76490093Y22971888D01*
X75890849Y23220716D01*
X75241997Y23221282D01*
X74642320Y22973501D01*
X74183112Y22515093D01*
X73934284Y21915849D01*
X73933718Y21266997D01*
X57169347Y21266997D01*
X57129050Y21364521D01*
X56925592Y21568335D01*
X56659624Y21678774D01*
X56371639Y21679025D01*
X56105479Y21569050D01*
X55901665Y21365592D01*
X55791226Y21099624D01*
X55790975Y20811639D01*
X24662076Y20811639D01*
X24540592Y20933335D01*
X24274624Y21043774D01*
X23986639Y21044025D01*
X23720479Y20934050D01*
X23516665Y20730592D01*
X23406226Y20464624D01*
X23405975Y20176639D01*
X23127000Y20176639D01*
X23127000Y22716639D01*
X35470975Y22716639D01*
X35580950Y22450479D01*
X35784408Y22246665D01*
X36050376Y22136226D01*
X36338361Y22135975D01*
X36604521Y22245950D01*
X36808335Y22449408D01*
X36918774Y22715376D01*
X36918775Y22716639D01*
X39915975Y22716639D01*
X40025950Y22450479D01*
X40229408Y22246665D01*
X40495376Y22136226D01*
X40783361Y22135975D01*
X41049521Y22245950D01*
X41253335Y22449408D01*
X41363774Y22715376D01*
X41364025Y23003361D01*
X41254050Y23269521D01*
X41172076Y23351639D01*
X47535975Y23351639D01*
X47645950Y23085479D01*
X47849408Y22881665D01*
X48115376Y22771226D01*
X48403361Y22770975D01*
X48669521Y22880950D01*
X48873335Y23084408D01*
X48983774Y23350376D01*
X48983775Y23351639D01*
X50075975Y23351639D01*
X50185950Y23085479D01*
X50389408Y22881665D01*
X50441383Y22860083D01*
X50390479Y22839050D01*
X50186665Y22635592D01*
X50076226Y22369624D01*
X50075975Y22081639D01*
X50185950Y21815479D01*
X50389408Y21611665D01*
X50655376Y21501226D01*
X50943361Y21500975D01*
X51209521Y21610950D01*
X51413335Y21814408D01*
X51523774Y22080376D01*
X51524025Y22368361D01*
X51414050Y22634521D01*
X51210592Y22838335D01*
X51158617Y22859917D01*
X51209521Y22880950D01*
X51413335Y23084408D01*
X51523774Y23350376D01*
X51523775Y23351639D01*
X55790975Y23351639D01*
X55900950Y23085479D01*
X56104408Y22881665D01*
X56370376Y22771226D01*
X56658361Y22770975D01*
X56924521Y22880950D01*
X57128335Y23084408D01*
X57238774Y23350376D01*
X57239025Y23638361D01*
X57129050Y23904521D01*
X56925592Y24108335D01*
X56659624Y24218774D01*
X56371639Y24219025D01*
X56105479Y24109050D01*
X55901665Y23905592D01*
X55791226Y23639624D01*
X55790975Y23351639D01*
X51523775Y23351639D01*
X51524025Y23638361D01*
X51414050Y23904521D01*
X51332076Y23986639D01*
X51980975Y23986639D01*
X52090950Y23720479D01*
X52294408Y23516665D01*
X52560376Y23406226D01*
X52848361Y23405975D01*
X53114521Y23515950D01*
X53318335Y23719408D01*
X53428774Y23985376D01*
X53429025Y24273361D01*
X53319050Y24539521D01*
X53115592Y24743335D01*
X52849624Y24853774D01*
X52561639Y24854025D01*
X52295479Y24744050D01*
X52091665Y24540592D01*
X51981226Y24274624D01*
X51980975Y23986639D01*
X51332076Y23986639D01*
X51210592Y24108335D01*
X50944624Y24218774D01*
X50656639Y24219025D01*
X50390479Y24109050D01*
X50186665Y23905592D01*
X50076226Y23639624D01*
X50075975Y23351639D01*
X48983775Y23351639D01*
X48984025Y23638361D01*
X48874050Y23904521D01*
X48670592Y24108335D01*
X48404624Y24218774D01*
X48116639Y24219025D01*
X47850479Y24109050D01*
X47646665Y23905592D01*
X47536226Y23639624D01*
X47535975Y23351639D01*
X41172076Y23351639D01*
X41050592Y23473335D01*
X40784624Y23583774D01*
X40496639Y23584025D01*
X40230479Y23474050D01*
X40026665Y23270592D01*
X39916226Y23004624D01*
X39915975Y22716639D01*
X36918775Y22716639D01*
X36919025Y23003361D01*
X36809050Y23269521D01*
X36605592Y23473335D01*
X36339624Y23583774D01*
X36051639Y23584025D01*
X35785479Y23474050D01*
X35581665Y23270592D01*
X35471226Y23004624D01*
X35470975Y22716639D01*
X23127000Y22716639D01*
X23127000Y23986639D01*
X30390975Y23986639D01*
X30500950Y23720479D01*
X30704408Y23516665D01*
X30970376Y23406226D01*
X31258361Y23405975D01*
X31524521Y23515950D01*
X31728335Y23719408D01*
X31838774Y23985376D01*
X31838775Y23986639D01*
X42455975Y23986639D01*
X42565950Y23720479D01*
X42769408Y23516665D01*
X43035376Y23406226D01*
X43323361Y23405975D01*
X43589521Y23515950D01*
X43793335Y23719408D01*
X43903774Y23985376D01*
X43904025Y24273361D01*
X43794050Y24539521D01*
X43590592Y24743335D01*
X43324624Y24853774D01*
X43036639Y24854025D01*
X42770479Y24744050D01*
X42566665Y24540592D01*
X42456226Y24274624D01*
X42455975Y23986639D01*
X31838775Y23986639D01*
X31839025Y24273361D01*
X31729050Y24539521D01*
X31525592Y24743335D01*
X31259624Y24853774D01*
X30971639Y24854025D01*
X30705479Y24744050D01*
X30501665Y24540592D01*
X30391226Y24274624D01*
X30390975Y23986639D01*
X23127000Y23986639D01*
X23127000Y25256639D01*
X53250975Y25256639D01*
X53360950Y24990479D01*
X53564408Y24786665D01*
X53830376Y24676226D01*
X54118361Y24675975D01*
X54384521Y24785950D01*
X54588335Y24989408D01*
X54624704Y25076997D01*
X69323718Y25076997D01*
X69571499Y24477320D01*
X70029907Y24018112D01*
X70629151Y23769284D01*
X71278003Y23768718D01*
X71877680Y24016499D01*
X72336888Y24474907D01*
X72585716Y25074151D01*
X72586282Y25723003D01*
X72338501Y26322680D01*
X71880093Y26781888D01*
X71280849Y27030716D01*
X70631997Y27031282D01*
X70032320Y26783501D01*
X69573112Y26325093D01*
X69324284Y25725849D01*
X69323718Y25076997D01*
X54624704Y25076997D01*
X54698774Y25255376D01*
X54699025Y25543361D01*
X54589050Y25809521D01*
X54385592Y26013335D01*
X54119624Y26123774D01*
X53831639Y26124025D01*
X53565479Y26014050D01*
X53361665Y25810592D01*
X53251226Y25544624D01*
X53250975Y25256639D01*
X23127000Y25256639D01*
X23127000Y27796639D01*
X38010975Y27796639D01*
X38120950Y27530479D01*
X38324408Y27326665D01*
X38590376Y27216226D01*
X38878361Y27215975D01*
X39144521Y27325950D01*
X39348335Y27529408D01*
X39458774Y27795376D01*
X39458775Y27796639D01*
X44360975Y27796639D01*
X44470950Y27530479D01*
X44674408Y27326665D01*
X44940376Y27216226D01*
X45228361Y27215975D01*
X45252118Y27225791D01*
X45106665Y27080592D01*
X44996226Y26814624D01*
X44995975Y26526639D01*
X45105950Y26260479D01*
X45309408Y26056665D01*
X45575376Y25946226D01*
X45863361Y25945975D01*
X46129521Y26055950D01*
X46333335Y26259408D01*
X46443774Y26525376D01*
X46444025Y26813361D01*
X46334050Y27079521D01*
X46252076Y27161639D01*
X47535975Y27161639D01*
X47645950Y26895479D01*
X47849408Y26691665D01*
X48115376Y26581226D01*
X48403361Y26580975D01*
X48669521Y26690950D01*
X48873335Y26894408D01*
X48983774Y27160376D01*
X48983775Y27161639D01*
X55155975Y27161639D01*
X55265950Y26895479D01*
X55469408Y26691665D01*
X55735376Y26581226D01*
X56023361Y26580975D01*
X56289521Y26690950D01*
X56493335Y26894408D01*
X56603774Y27160376D01*
X56603775Y27161639D01*
X57060975Y27161639D01*
X57170950Y26895479D01*
X57374408Y26691665D01*
X57640376Y26581226D01*
X57928361Y26580975D01*
X58194521Y26690950D01*
X58398335Y26894408D01*
X58419917Y26946383D01*
X58440950Y26895479D01*
X58644408Y26691665D01*
X58910376Y26581226D01*
X59198361Y26580975D01*
X59464521Y26690950D01*
X59668335Y26894408D01*
X59778774Y27160376D01*
X59779025Y27448361D01*
X59669050Y27714521D01*
X59465592Y27918335D01*
X59199624Y28028774D01*
X58911639Y28029025D01*
X58645479Y27919050D01*
X58441665Y27715592D01*
X58420083Y27663617D01*
X58399050Y27714521D01*
X58195592Y27918335D01*
X57929624Y28028774D01*
X57641639Y28029025D01*
X57375479Y27919050D01*
X57171665Y27715592D01*
X57061226Y27449624D01*
X57060975Y27161639D01*
X56603775Y27161639D01*
X56604025Y27448361D01*
X56494050Y27714521D01*
X56290592Y27918335D01*
X56024624Y28028774D01*
X55736639Y28029025D01*
X55470479Y27919050D01*
X55266665Y27715592D01*
X55156226Y27449624D01*
X55155975Y27161639D01*
X48983775Y27161639D01*
X48984025Y27448361D01*
X48874050Y27714521D01*
X48792076Y27796639D01*
X49440975Y27796639D01*
X49550950Y27530479D01*
X49754408Y27326665D01*
X50020376Y27216226D01*
X50308361Y27215975D01*
X50574521Y27325950D01*
X50778335Y27529408D01*
X50888774Y27795376D01*
X50889025Y28083361D01*
X50779050Y28349521D01*
X50575592Y28553335D01*
X50309624Y28663774D01*
X50021639Y28664025D01*
X49755479Y28554050D01*
X49551665Y28350592D01*
X49441226Y28084624D01*
X49440975Y27796639D01*
X48792076Y27796639D01*
X48670592Y27918335D01*
X48404624Y28028774D01*
X48116639Y28029025D01*
X47850479Y27919050D01*
X47646665Y27715592D01*
X47536226Y27449624D01*
X47535975Y27161639D01*
X46252076Y27161639D01*
X46130592Y27283335D01*
X45864624Y27393774D01*
X45576639Y27394025D01*
X45552882Y27384209D01*
X45698335Y27529408D01*
X45808774Y27795376D01*
X45809025Y28083361D01*
X45699050Y28349521D01*
X45495592Y28553335D01*
X45229624Y28663774D01*
X44941639Y28664025D01*
X44675479Y28554050D01*
X44471665Y28350592D01*
X44361226Y28084624D01*
X44360975Y27796639D01*
X39458775Y27796639D01*
X39459025Y28083361D01*
X39349050Y28349521D01*
X39145592Y28553335D01*
X38879624Y28663774D01*
X38591639Y28664025D01*
X38325479Y28554050D01*
X38121665Y28350592D01*
X38011226Y28084624D01*
X38010975Y27796639D01*
X23127000Y27796639D01*
X23127000Y29066639D01*
X48170975Y29066639D01*
X48280950Y28800479D01*
X48484408Y28596665D01*
X48750376Y28486226D01*
X49038361Y28485975D01*
X49304521Y28595950D01*
X49508335Y28799408D01*
X49618774Y29065376D01*
X49618775Y29066639D01*
X53250975Y29066639D01*
X53360950Y28800479D01*
X53564408Y28596665D01*
X53830376Y28486226D01*
X54118361Y28485975D01*
X54384521Y28595950D01*
X54588335Y28799408D01*
X54698774Y29065376D01*
X54699025Y29353361D01*
X54589050Y29619521D01*
X54385592Y29823335D01*
X54119624Y29933774D01*
X53831639Y29934025D01*
X53565479Y29824050D01*
X53361665Y29620592D01*
X53251226Y29354624D01*
X53250975Y29066639D01*
X49618775Y29066639D01*
X49619025Y29353361D01*
X49509050Y29619521D01*
X49305592Y29823335D01*
X49039624Y29933774D01*
X48751639Y29934025D01*
X48485479Y29824050D01*
X48281665Y29620592D01*
X48171226Y29354624D01*
X48170975Y29066639D01*
X23127000Y29066639D01*
X23127000Y29701639D01*
X41820975Y29701639D01*
X41930950Y29435479D01*
X42134408Y29231665D01*
X42400376Y29121226D01*
X42688361Y29120975D01*
X42954521Y29230950D01*
X43158335Y29434408D01*
X43268774Y29700376D01*
X43268775Y29701639D01*
X46265975Y29701639D01*
X46375950Y29435479D01*
X46579408Y29231665D01*
X46845376Y29121226D01*
X47133361Y29120975D01*
X47399521Y29230950D01*
X47603335Y29434408D01*
X47713774Y29700376D01*
X47714025Y29988361D01*
X47604050Y30254521D01*
X47458527Y30400298D01*
X47480376Y30391226D01*
X47768361Y30390975D01*
X48034521Y30500950D01*
X48238335Y30704408D01*
X48348774Y30970376D01*
X48348775Y30971639D01*
X50075975Y30971639D01*
X50185950Y30705479D01*
X50389408Y30501665D01*
X50441383Y30480083D01*
X50390479Y30459050D01*
X50186665Y30255592D01*
X50076226Y29989624D01*
X50075975Y29701639D01*
X50185950Y29435479D01*
X50389408Y29231665D01*
X50655376Y29121226D01*
X50943361Y29120975D01*
X51209521Y29230950D01*
X51413335Y29434408D01*
X51523774Y29700376D01*
X51524025Y29988361D01*
X51414050Y30254521D01*
X51210592Y30458335D01*
X51158617Y30479917D01*
X51209521Y30500950D01*
X51413335Y30704408D01*
X51434917Y30756383D01*
X51455950Y30705479D01*
X51659408Y30501665D01*
X51925376Y30391226D01*
X52213361Y30390975D01*
X52479521Y30500950D01*
X52683335Y30704408D01*
X52793774Y30970376D01*
X52794025Y31258361D01*
X52684050Y31524521D01*
X52480592Y31728335D01*
X52214624Y31838774D01*
X52158977Y31838823D01*
X52159025Y31893361D01*
X52049050Y32159521D01*
X51967076Y32241639D01*
X54520975Y32241639D01*
X54630950Y31975479D01*
X54834408Y31771665D01*
X55100376Y31661226D01*
X55156023Y31661177D01*
X55155975Y31606639D01*
X55265950Y31340479D01*
X55469408Y31136665D01*
X55735376Y31026226D01*
X56023361Y31025975D01*
X56289521Y31135950D01*
X56493335Y31339408D01*
X56603774Y31605376D01*
X56603775Y31606639D01*
X57060975Y31606639D01*
X57170950Y31340479D01*
X57374408Y31136665D01*
X57426383Y31115083D01*
X57375479Y31094050D01*
X57171665Y30890592D01*
X57061226Y30624624D01*
X57060975Y30336639D01*
X57170950Y30070479D01*
X57374408Y29866665D01*
X57640376Y29756226D01*
X57928361Y29755975D01*
X58194521Y29865950D01*
X58398335Y30069408D01*
X58419917Y30121383D01*
X58440950Y30070479D01*
X58644408Y29866665D01*
X58910376Y29756226D01*
X59198361Y29755975D01*
X59464521Y29865950D01*
X59668335Y30069408D01*
X59778774Y30335376D01*
X59779025Y30623361D01*
X59669050Y30889521D01*
X59465592Y31093335D01*
X59199624Y31203774D01*
X58911639Y31204025D01*
X58645479Y31094050D01*
X58441665Y30890592D01*
X58420083Y30838617D01*
X58399050Y30889521D01*
X58195592Y31093335D01*
X58143617Y31114917D01*
X58194521Y31135950D01*
X58398335Y31339408D01*
X58508774Y31605376D01*
X58509025Y31893361D01*
X58399050Y32159521D01*
X58195592Y32363335D01*
X57929624Y32473774D01*
X57641639Y32474025D01*
X57375479Y32364050D01*
X57171665Y32160592D01*
X57061226Y31894624D01*
X57060975Y31606639D01*
X56603775Y31606639D01*
X56604025Y31893361D01*
X56494050Y32159521D01*
X56290592Y32363335D01*
X56024624Y32473774D01*
X55968977Y32473823D01*
X55969025Y32528361D01*
X55859050Y32794521D01*
X55655592Y32998335D01*
X55389624Y33108774D01*
X55101639Y33109025D01*
X54835479Y32999050D01*
X54631665Y32795592D01*
X54521226Y32529624D01*
X54520975Y32241639D01*
X51967076Y32241639D01*
X51845592Y32363335D01*
X51579624Y32473774D01*
X51291639Y32474025D01*
X51025479Y32364050D01*
X50821665Y32160592D01*
X50711226Y31894624D01*
X50711177Y31838977D01*
X50656639Y31839025D01*
X50390479Y31729050D01*
X50186665Y31525592D01*
X50076226Y31259624D01*
X50075975Y30971639D01*
X48348775Y30971639D01*
X48349025Y31258361D01*
X48239050Y31524521D01*
X48035592Y31728335D01*
X47769624Y31838774D01*
X47481639Y31839025D01*
X47215479Y31729050D01*
X47011665Y31525592D01*
X46901226Y31259624D01*
X46900975Y30971639D01*
X47010950Y30705479D01*
X47156473Y30559702D01*
X47134624Y30568774D01*
X46846639Y30569025D01*
X46580479Y30459050D01*
X46376665Y30255592D01*
X46266226Y29989624D01*
X46265975Y29701639D01*
X43268775Y29701639D01*
X43269025Y29988361D01*
X43159050Y30254521D01*
X42955592Y30458335D01*
X42689624Y30568774D01*
X42401639Y30569025D01*
X42135479Y30459050D01*
X41931665Y30255592D01*
X41821226Y29989624D01*
X41820975Y29701639D01*
X23127000Y29701639D01*
X23127000Y32061997D01*
X27743718Y32061997D01*
X27991499Y31462320D01*
X28449907Y31003112D01*
X29049151Y30754284D01*
X29698003Y30753718D01*
X30297680Y31001499D01*
X30756888Y31459907D01*
X30817816Y31606639D01*
X39280975Y31606639D01*
X39390950Y31340479D01*
X39594408Y31136665D01*
X39860376Y31026226D01*
X40148361Y31025975D01*
X40414521Y31135950D01*
X40618335Y31339408D01*
X40728774Y31605376D01*
X40728775Y31606639D01*
X42455975Y31606639D01*
X42565950Y31340479D01*
X42769408Y31136665D01*
X43035376Y31026226D01*
X43323361Y31025975D01*
X43589521Y31135950D01*
X43793335Y31339408D01*
X43814917Y31391383D01*
X43835950Y31340479D01*
X44039408Y31136665D01*
X44305376Y31026226D01*
X44593361Y31025975D01*
X44859521Y31135950D01*
X45063335Y31339408D01*
X45173774Y31605376D01*
X45174025Y31893361D01*
X45064050Y32159521D01*
X44860592Y32363335D01*
X44594624Y32473774D01*
X44306639Y32474025D01*
X44040479Y32364050D01*
X43836665Y32160592D01*
X43815083Y32108617D01*
X43794050Y32159521D01*
X43590592Y32363335D01*
X43324624Y32473774D01*
X43036639Y32474025D01*
X42770479Y32364050D01*
X42566665Y32160592D01*
X42456226Y31894624D01*
X42455975Y31606639D01*
X40728775Y31606639D01*
X40729025Y31893361D01*
X40619050Y32159521D01*
X40415592Y32363335D01*
X40149624Y32473774D01*
X39861639Y32474025D01*
X39595479Y32364050D01*
X39391665Y32160592D01*
X39281226Y31894624D01*
X39280975Y31606639D01*
X30817816Y31606639D01*
X31005716Y32059151D01*
X31006282Y32708003D01*
X30758501Y33307680D01*
X30554898Y33511639D01*
X68490975Y33511639D01*
X68600950Y33245479D01*
X68804408Y33041665D01*
X69070376Y32931226D01*
X69358361Y32930975D01*
X69624521Y33040950D01*
X69828335Y33244408D01*
X69938774Y33510376D01*
X69939025Y33798361D01*
X69829050Y34064521D01*
X69625592Y34268335D01*
X69359624Y34378774D01*
X69071639Y34379025D01*
X68805479Y34269050D01*
X68601665Y34065592D01*
X68491226Y33799624D01*
X68490975Y33511639D01*
X30554898Y33511639D01*
X30300093Y33766888D01*
X29700849Y34015716D01*
X29051997Y34016282D01*
X28452320Y33768501D01*
X27993112Y33310093D01*
X27744284Y32710849D01*
X27743718Y32061997D01*
X23127000Y32061997D01*
X23127000Y35871997D01*
X23133718Y35871997D01*
X23381499Y35272320D01*
X23839907Y34813112D01*
X24439151Y34564284D01*
X25088003Y34563718D01*
X25687680Y34811499D01*
X26146888Y35269907D01*
X26207816Y35416639D01*
X48170975Y35416639D01*
X48280950Y35150479D01*
X48484408Y34946665D01*
X48750376Y34836226D01*
X49038361Y34835975D01*
X49304521Y34945950D01*
X49508335Y35149408D01*
X49618774Y35415376D01*
X49618775Y35416639D01*
X53250975Y35416639D01*
X53360950Y35150479D01*
X53564408Y34946665D01*
X53830376Y34836226D01*
X54118361Y34835975D01*
X54384521Y34945950D01*
X54588335Y35149408D01*
X54698774Y35415376D01*
X54699025Y35703361D01*
X54589050Y35969521D01*
X54385592Y36173335D01*
X54119624Y36283774D01*
X53831639Y36284025D01*
X53565479Y36174050D01*
X53361665Y35970592D01*
X53251226Y35704624D01*
X53250975Y35416639D01*
X49618775Y35416639D01*
X49618823Y35471023D01*
X49673361Y35470975D01*
X49939521Y35580950D01*
X50143335Y35784408D01*
X50253774Y36050376D01*
X50254025Y36338361D01*
X50144050Y36604521D01*
X50062076Y36686639D01*
X55790975Y36686639D01*
X55900950Y36420479D01*
X56104408Y36216665D01*
X56370376Y36106226D01*
X56658361Y36105975D01*
X56924521Y36215950D01*
X57128335Y36419408D01*
X57238774Y36685376D01*
X57239025Y36973361D01*
X57129050Y37239521D01*
X57047076Y37321639D01*
X75475975Y37321639D01*
X75585950Y37055479D01*
X75789408Y36851665D01*
X76055376Y36741226D01*
X76343361Y36740975D01*
X76609521Y36850950D01*
X76813335Y37054408D01*
X76923774Y37320376D01*
X76924025Y37608361D01*
X76814050Y37874521D01*
X76610592Y38078335D01*
X76344624Y38188774D01*
X76056639Y38189025D01*
X75790479Y38079050D01*
X75586665Y37875592D01*
X75476226Y37609624D01*
X75475975Y37321639D01*
X57047076Y37321639D01*
X56925592Y37443335D01*
X56659624Y37553774D01*
X56371639Y37554025D01*
X56105479Y37444050D01*
X55901665Y37240592D01*
X55791226Y36974624D01*
X55790975Y36686639D01*
X50062076Y36686639D01*
X49940592Y36808335D01*
X49674624Y36918774D01*
X49386639Y36919025D01*
X49120479Y36809050D01*
X48916665Y36605592D01*
X48806226Y36339624D01*
X48806177Y36283977D01*
X48751639Y36284025D01*
X48485479Y36174050D01*
X48281665Y35970592D01*
X48171226Y35704624D01*
X48170975Y35416639D01*
X26207816Y35416639D01*
X26395716Y35869151D01*
X26396282Y36518003D01*
X26148501Y37117680D01*
X25944898Y37321639D01*
X47535975Y37321639D01*
X47645950Y37055479D01*
X47849408Y36851665D01*
X48115376Y36741226D01*
X48403361Y36740975D01*
X48669521Y36850950D01*
X48873335Y37054408D01*
X48983774Y37320376D01*
X48983775Y37321639D01*
X50075975Y37321639D01*
X50185950Y37055479D01*
X50389408Y36851665D01*
X50655376Y36741226D01*
X50943361Y36740975D01*
X51209521Y36850950D01*
X51413335Y37054408D01*
X51523774Y37320376D01*
X51524025Y37608361D01*
X51414050Y37874521D01*
X51332076Y37956639D01*
X53885975Y37956639D01*
X53995950Y37690479D01*
X54199408Y37486665D01*
X54465376Y37376226D01*
X54753361Y37375975D01*
X55019521Y37485950D01*
X55223335Y37689408D01*
X55333774Y37955376D01*
X55334025Y38243361D01*
X55224050Y38509521D01*
X55142076Y38591639D01*
X59600975Y38591639D01*
X59672969Y38417401D01*
X59601226Y38244624D01*
X59600975Y37956639D01*
X59710950Y37690479D01*
X59914408Y37486665D01*
X60180376Y37376226D01*
X60468361Y37375975D01*
X60734521Y37485950D01*
X60938335Y37689408D01*
X61048774Y37955376D01*
X61048775Y37956639D01*
X64680975Y37956639D01*
X64790950Y37690479D01*
X64994408Y37486665D01*
X65260376Y37376226D01*
X65548361Y37375975D01*
X65814521Y37485950D01*
X66018335Y37689408D01*
X66128774Y37955376D01*
X66128775Y37956639D01*
X68490975Y37956639D01*
X68600950Y37690479D01*
X68804408Y37486665D01*
X69070376Y37376226D01*
X69358361Y37375975D01*
X69624521Y37485950D01*
X69828335Y37689408D01*
X69938774Y37955376D01*
X69939025Y38243361D01*
X69829050Y38509521D01*
X69625592Y38713335D01*
X69359624Y38823774D01*
X69071639Y38824025D01*
X68805479Y38714050D01*
X68601665Y38510592D01*
X68491226Y38244624D01*
X68490975Y37956639D01*
X66128775Y37956639D01*
X66129025Y38243361D01*
X66019050Y38509521D01*
X65815592Y38713335D01*
X65549624Y38823774D01*
X65261639Y38824025D01*
X64995479Y38714050D01*
X64791665Y38510592D01*
X64681226Y38244624D01*
X64680975Y37956639D01*
X61048775Y37956639D01*
X61049025Y38243361D01*
X60977031Y38417599D01*
X61048774Y38590376D01*
X61049025Y38878361D01*
X60939050Y39144521D01*
X60857076Y39226639D01*
X63410975Y39226639D01*
X63520950Y38960479D01*
X63724408Y38756665D01*
X63990376Y38646226D01*
X64278361Y38645975D01*
X64544521Y38755950D01*
X64748335Y38959408D01*
X64858774Y39225376D01*
X64859025Y39513361D01*
X64749050Y39779521D01*
X64545592Y39983335D01*
X64279624Y40093774D01*
X63991639Y40094025D01*
X63725479Y39984050D01*
X63521665Y39780592D01*
X63411226Y39514624D01*
X63410975Y39226639D01*
X60857076Y39226639D01*
X60735592Y39348335D01*
X60469624Y39458774D01*
X60181639Y39459025D01*
X59915479Y39349050D01*
X59711665Y39145592D01*
X59601226Y38879624D01*
X59600975Y38591639D01*
X55142076Y38591639D01*
X55020592Y38713335D01*
X54754624Y38823774D01*
X54466639Y38824025D01*
X54200479Y38714050D01*
X53996665Y38510592D01*
X53886226Y38244624D01*
X53885975Y37956639D01*
X51332076Y37956639D01*
X51210592Y38078335D01*
X50944624Y38188774D01*
X50656639Y38189025D01*
X50390479Y38079050D01*
X50186665Y37875592D01*
X50076226Y37609624D01*
X50075975Y37321639D01*
X48983775Y37321639D01*
X48983823Y37376023D01*
X49038361Y37375975D01*
X49304521Y37485950D01*
X49508335Y37689408D01*
X49618774Y37955376D01*
X49619025Y38243361D01*
X49509050Y38509521D01*
X49305592Y38713335D01*
X49039624Y38823774D01*
X48751639Y38824025D01*
X48485479Y38714050D01*
X48281665Y38510592D01*
X48171226Y38244624D01*
X48171177Y38188977D01*
X48116639Y38189025D01*
X47850479Y38079050D01*
X47646665Y37875592D01*
X47536226Y37609624D01*
X47535975Y37321639D01*
X25944898Y37321639D01*
X25690093Y37576888D01*
X25090849Y37825716D01*
X24441997Y37826282D01*
X23842320Y37578501D01*
X23383112Y37120093D01*
X23134284Y36520849D01*
X23133718Y35871997D01*
X23127000Y35871997D01*
X23127000Y39226639D01*
X39915975Y39226639D01*
X40025950Y38960479D01*
X40229408Y38756665D01*
X40495376Y38646226D01*
X40783361Y38645975D01*
X41049521Y38755950D01*
X41253335Y38959408D01*
X41363774Y39225376D01*
X41364025Y39513361D01*
X41254050Y39779521D01*
X41172076Y39861639D01*
X41820975Y39861639D01*
X41930950Y39595479D01*
X42134408Y39391665D01*
X42400376Y39281226D01*
X42688361Y39280975D01*
X42954521Y39390950D01*
X43158335Y39594408D01*
X43268774Y39860376D01*
X43268775Y39861639D01*
X48170975Y39861639D01*
X48280950Y39595479D01*
X48484408Y39391665D01*
X48750376Y39281226D01*
X49038361Y39280975D01*
X49304521Y39390950D01*
X49508335Y39594408D01*
X49618774Y39860376D01*
X49619025Y40148361D01*
X49509050Y40414521D01*
X49305592Y40618335D01*
X49039624Y40728774D01*
X48751639Y40729025D01*
X48485479Y40619050D01*
X48281665Y40415592D01*
X48171226Y40149624D01*
X48170975Y39861639D01*
X43268775Y39861639D01*
X43269025Y40148361D01*
X43159050Y40414521D01*
X42955592Y40618335D01*
X42689624Y40728774D01*
X42401639Y40729025D01*
X42135479Y40619050D01*
X41931665Y40415592D01*
X41821226Y40149624D01*
X41820975Y39861639D01*
X41172076Y39861639D01*
X41050592Y39983335D01*
X40784624Y40093774D01*
X40496639Y40094025D01*
X40230479Y39984050D01*
X40026665Y39780592D01*
X39916226Y39514624D01*
X39915975Y39226639D01*
X23127000Y39226639D01*
X23127000Y39861639D01*
X36740975Y39861639D01*
X36850950Y39595479D01*
X37054408Y39391665D01*
X37320376Y39281226D01*
X37608361Y39280975D01*
X37874521Y39390950D01*
X38078335Y39594408D01*
X38188774Y39860376D01*
X38189025Y40148361D01*
X38079050Y40414521D01*
X37875592Y40618335D01*
X37609624Y40728774D01*
X37321639Y40729025D01*
X37055479Y40619050D01*
X36851665Y40415592D01*
X36741226Y40149624D01*
X36740975Y39861639D01*
X23127000Y39861639D01*
X23127000Y40496639D01*
X23405975Y40496639D01*
X23515950Y40230479D01*
X23719408Y40026665D01*
X23985376Y39916226D01*
X24273361Y39915975D01*
X24539521Y40025950D01*
X24743335Y40229408D01*
X24853774Y40495376D01*
X24853775Y40496639D01*
X30390975Y40496639D01*
X30500950Y40230479D01*
X30704408Y40026665D01*
X30970376Y39916226D01*
X31258361Y39915975D01*
X31524521Y40025950D01*
X31728335Y40229408D01*
X31838774Y40495376D01*
X31839025Y40783361D01*
X31729050Y41049521D01*
X31525592Y41253335D01*
X31259624Y41363774D01*
X30971639Y41364025D01*
X30705479Y41254050D01*
X30501665Y41050592D01*
X30391226Y40784624D01*
X30390975Y40496639D01*
X24853775Y40496639D01*
X24854025Y40783361D01*
X24744050Y41049521D01*
X24540592Y41253335D01*
X24274624Y41363774D01*
X23986639Y41364025D01*
X23720479Y41254050D01*
X23516665Y41050592D01*
X23406226Y40784624D01*
X23405975Y40496639D01*
X23127000Y40496639D01*
X23127000Y41586997D01*
X73933718Y41586997D01*
X74181499Y40987320D01*
X74639907Y40528112D01*
X75239151Y40279284D01*
X75888003Y40278718D01*
X76487680Y40526499D01*
X76946888Y40984907D01*
X77195716Y41584151D01*
X77196282Y42233003D01*
X76948501Y42832680D01*
X76490093Y43291888D01*
X75890849Y43540716D01*
X75241997Y43541282D01*
X74642320Y43293501D01*
X74183112Y42835093D01*
X73934284Y42235849D01*
X73933718Y41586997D01*
X23127000Y41586997D01*
X23127000Y43036639D01*
X57695975Y43036639D01*
X57805950Y42770479D01*
X58009408Y42566665D01*
X58275376Y42456226D01*
X58563361Y42455975D01*
X58829521Y42565950D01*
X59033335Y42769408D01*
X59143774Y43035376D01*
X59144025Y43323361D01*
X59034050Y43589521D01*
X58830592Y43793335D01*
X58564624Y43903774D01*
X58276639Y43904025D01*
X58010479Y43794050D01*
X57806665Y43590592D01*
X57696226Y43324624D01*
X57695975Y43036639D01*
X23127000Y43036639D01*
X23127000Y43671639D01*
X43725975Y43671639D01*
X43835950Y43405479D01*
X44039408Y43201665D01*
X44305376Y43091226D01*
X44593361Y43090975D01*
X44859521Y43200950D01*
X45063335Y43404408D01*
X45173774Y43670376D01*
X45174025Y43958361D01*
X45064050Y44224521D01*
X44982076Y44306639D01*
X50710975Y44306639D01*
X50820950Y44040479D01*
X51024408Y43836665D01*
X51290376Y43726226D01*
X51578361Y43725975D01*
X51844521Y43835950D01*
X52048335Y44039408D01*
X52158774Y44305376D01*
X52159025Y44593361D01*
X52049050Y44859521D01*
X51845592Y45063335D01*
X51579624Y45173774D01*
X51291639Y45174025D01*
X51025479Y45064050D01*
X50821665Y44860592D01*
X50711226Y44594624D01*
X50710975Y44306639D01*
X44982076Y44306639D01*
X44860592Y44428335D01*
X44594624Y44538774D01*
X44306639Y44539025D01*
X44040479Y44429050D01*
X43836665Y44225592D01*
X43726226Y43959624D01*
X43725975Y43671639D01*
X23127000Y43671639D01*
X23127000Y44306639D01*
X30390975Y44306639D01*
X30500950Y44040479D01*
X30704408Y43836665D01*
X30970376Y43726226D01*
X31258361Y43725975D01*
X31524521Y43835950D01*
X31728335Y44039408D01*
X31838774Y44305376D01*
X31839025Y44593361D01*
X31729050Y44859521D01*
X31525592Y45063335D01*
X31259624Y45173774D01*
X30971639Y45174025D01*
X30705479Y45064050D01*
X30501665Y44860592D01*
X30391226Y44594624D01*
X30390975Y44306639D01*
X23127000Y44306639D01*
X23127000Y45576639D01*
X54520975Y45576639D01*
X54630950Y45310479D01*
X54834408Y45106665D01*
X55100376Y44996226D01*
X55388361Y44995975D01*
X55654521Y45105950D01*
X55858335Y45309408D01*
X55894704Y45396997D01*
X69323718Y45396997D01*
X69571499Y44797320D01*
X70029907Y44338112D01*
X70629151Y44089284D01*
X71278003Y44088718D01*
X71877680Y44336499D01*
X72336888Y44794907D01*
X72585716Y45394151D01*
X72586282Y46043003D01*
X72338501Y46642680D01*
X71880093Y47101888D01*
X71280849Y47350716D01*
X70631997Y47351282D01*
X70032320Y47103501D01*
X69573112Y46645093D01*
X69324284Y46045849D01*
X69323718Y45396997D01*
X55894704Y45396997D01*
X55968774Y45575376D01*
X55969025Y45863361D01*
X55859050Y46129521D01*
X55655592Y46333335D01*
X55389624Y46443774D01*
X55101639Y46444025D01*
X54835479Y46334050D01*
X54631665Y46130592D01*
X54521226Y45864624D01*
X54520975Y45576639D01*
X23127000Y45576639D01*
X23127000Y46211639D01*
X51345975Y46211639D01*
X51455950Y45945479D01*
X51659408Y45741665D01*
X51925376Y45631226D01*
X52213361Y45630975D01*
X52479521Y45740950D01*
X52683335Y45944408D01*
X52793774Y46210376D01*
X52794025Y46498361D01*
X52684050Y46764521D01*
X52480592Y46968335D01*
X52214624Y47078774D01*
X51926639Y47079025D01*
X51660479Y46969050D01*
X51456665Y46765592D01*
X51346226Y46499624D01*
X51345975Y46211639D01*
X23127000Y46211639D01*
X23127000Y48751639D01*
X44360975Y48751639D01*
X44470950Y48485479D01*
X44674408Y48281665D01*
X44940376Y48171226D01*
X45228361Y48170975D01*
X45494521Y48280950D01*
X45698335Y48484408D01*
X45808774Y48750376D01*
X45809025Y49038361D01*
X45699050Y49304521D01*
X45617076Y49386639D01*
X57060975Y49386639D01*
X57170950Y49120479D01*
X57374408Y48916665D01*
X57640376Y48806226D01*
X57928361Y48805975D01*
X58194521Y48915950D01*
X58398335Y49119408D01*
X58508774Y49385376D01*
X58508775Y49386639D01*
X59600975Y49386639D01*
X59710950Y49120479D01*
X59914408Y48916665D01*
X60180376Y48806226D01*
X60468361Y48805975D01*
X60734521Y48915950D01*
X60938335Y49119408D01*
X61048774Y49385376D01*
X61049025Y49673361D01*
X60939050Y49939521D01*
X60735592Y50143335D01*
X60469624Y50253774D01*
X60181639Y50254025D01*
X59915479Y50144050D01*
X59711665Y49940592D01*
X59601226Y49674624D01*
X59600975Y49386639D01*
X58508775Y49386639D01*
X58509025Y49673361D01*
X58399050Y49939521D01*
X58195592Y50143335D01*
X57929624Y50253774D01*
X57641639Y50254025D01*
X57375479Y50144050D01*
X57171665Y49940592D01*
X57061226Y49674624D01*
X57060975Y49386639D01*
X45617076Y49386639D01*
X45495592Y49508335D01*
X45229624Y49618774D01*
X44941639Y49619025D01*
X44675479Y49509050D01*
X44471665Y49305592D01*
X44361226Y49039624D01*
X44360975Y48751639D01*
X23127000Y48751639D01*
X23127000Y52381997D01*
X27743718Y52381997D01*
X27991499Y51782320D01*
X28449907Y51323112D01*
X29049151Y51074284D01*
X29698003Y51073718D01*
X30297680Y51321499D01*
X30756888Y51779907D01*
X30817816Y51926639D01*
X51345975Y51926639D01*
X51455950Y51660479D01*
X51659408Y51456665D01*
X51925376Y51346226D01*
X52213361Y51345975D01*
X52479521Y51455950D01*
X52683335Y51659408D01*
X52793774Y51925376D01*
X52794025Y52213361D01*
X52684050Y52479521D01*
X52480592Y52683335D01*
X52214624Y52793774D01*
X51926639Y52794025D01*
X51660479Y52684050D01*
X51456665Y52480592D01*
X51346226Y52214624D01*
X51345975Y51926639D01*
X30817816Y51926639D01*
X31005716Y52379151D01*
X31005875Y52561639D01*
X39280975Y52561639D01*
X39390950Y52295479D01*
X39594408Y52091665D01*
X39860376Y51981226D01*
X40148361Y51980975D01*
X40414521Y52090950D01*
X40618335Y52294408D01*
X40728774Y52560376D01*
X40728775Y52561639D01*
X41820975Y52561639D01*
X41930950Y52295479D01*
X42134408Y52091665D01*
X42400376Y51981226D01*
X42688361Y51980975D01*
X42954521Y52090950D01*
X43158335Y52294408D01*
X43268774Y52560376D01*
X43269025Y52848361D01*
X43159050Y53114521D01*
X42955592Y53318335D01*
X42689624Y53428774D01*
X42401639Y53429025D01*
X42135479Y53319050D01*
X41931665Y53115592D01*
X41821226Y52849624D01*
X41820975Y52561639D01*
X40728775Y52561639D01*
X40729025Y52848361D01*
X40619050Y53114521D01*
X40415592Y53318335D01*
X40149624Y53428774D01*
X39861639Y53429025D01*
X39595479Y53319050D01*
X39391665Y53115592D01*
X39281226Y52849624D01*
X39280975Y52561639D01*
X31005875Y52561639D01*
X31006282Y53028003D01*
X30758501Y53627680D01*
X30554898Y53831639D01*
X68490975Y53831639D01*
X68600950Y53565479D01*
X68804408Y53361665D01*
X69070376Y53251226D01*
X69358361Y53250975D01*
X69624521Y53360950D01*
X69828335Y53564408D01*
X69938774Y53830376D01*
X69939025Y54118361D01*
X69829050Y54384521D01*
X69625592Y54588335D01*
X69359624Y54698774D01*
X69071639Y54699025D01*
X68805479Y54589050D01*
X68601665Y54385592D01*
X68491226Y54119624D01*
X68490975Y53831639D01*
X30554898Y53831639D01*
X30300093Y54086888D01*
X29700849Y54335716D01*
X29051997Y54336282D01*
X28452320Y54088501D01*
X27993112Y53630093D01*
X27744284Y53030849D01*
X27743718Y52381997D01*
X23127000Y52381997D01*
X23127000Y56191997D01*
X23133718Y56191997D01*
X23381499Y55592320D01*
X23839907Y55133112D01*
X24439151Y54884284D01*
X25088003Y54883718D01*
X25687680Y55131499D01*
X26146888Y55589907D01*
X26395716Y56189151D01*
X26396282Y56838003D01*
X26148501Y57437680D01*
X25944898Y57641639D01*
X53885975Y57641639D01*
X53995950Y57375479D01*
X54199408Y57171665D01*
X54465376Y57061226D01*
X54753361Y57060975D01*
X55019521Y57170950D01*
X55223335Y57374408D01*
X55333774Y57640376D01*
X55333775Y57641639D01*
X68490975Y57641639D01*
X68600950Y57375479D01*
X68804408Y57171665D01*
X69070376Y57061226D01*
X69358361Y57060975D01*
X69624521Y57170950D01*
X69828335Y57374408D01*
X69938774Y57640376D01*
X69938775Y57641639D01*
X75475975Y57641639D01*
X75585950Y57375479D01*
X75789408Y57171665D01*
X76055376Y57061226D01*
X76343361Y57060975D01*
X76609521Y57170950D01*
X76813335Y57374408D01*
X76923774Y57640376D01*
X76924025Y57928361D01*
X76814050Y58194521D01*
X76610592Y58398335D01*
X76344624Y58508774D01*
X76056639Y58509025D01*
X75790479Y58399050D01*
X75586665Y58195592D01*
X75476226Y57929624D01*
X75475975Y57641639D01*
X69938775Y57641639D01*
X69939025Y57928361D01*
X69829050Y58194521D01*
X69625592Y58398335D01*
X69359624Y58508774D01*
X69071639Y58509025D01*
X68805479Y58399050D01*
X68601665Y58195592D01*
X68491226Y57929624D01*
X68490975Y57641639D01*
X55333775Y57641639D01*
X55334025Y57928361D01*
X55224050Y58194521D01*
X55020592Y58398335D01*
X54754624Y58508774D01*
X54466639Y58509025D01*
X54200479Y58399050D01*
X53996665Y58195592D01*
X53886226Y57929624D01*
X53885975Y57641639D01*
X25944898Y57641639D01*
X25690093Y57896888D01*
X25090849Y58145716D01*
X24441997Y58146282D01*
X23842320Y57898501D01*
X23383112Y57440093D01*
X23134284Y56840849D01*
X23133718Y56191997D01*
X23127000Y56191997D01*
X23127000Y58276639D01*
X48170975Y58276639D01*
X48280950Y58010479D01*
X48484408Y57806665D01*
X48750376Y57696226D01*
X49038361Y57695975D01*
X49304521Y57805950D01*
X49508335Y58009408D01*
X49618774Y58275376D01*
X49618823Y58331023D01*
X49673361Y58330975D01*
X49939521Y58440950D01*
X50143335Y58644408D01*
X50253774Y58910376D01*
X50253775Y58911639D01*
X55790975Y58911639D01*
X55900950Y58645479D01*
X56104408Y58441665D01*
X56370376Y58331226D01*
X56658361Y58330975D01*
X56924521Y58440950D01*
X57070298Y58586473D01*
X57061226Y58564624D01*
X57060975Y58276639D01*
X57170950Y58010479D01*
X57374408Y57806665D01*
X57640376Y57696226D01*
X57928361Y57695975D01*
X58194521Y57805950D01*
X58398335Y58009408D01*
X58508774Y58275376D01*
X58508775Y58276639D01*
X62140975Y58276639D01*
X62250950Y58010479D01*
X62454408Y57806665D01*
X62720376Y57696226D01*
X63008361Y57695975D01*
X63274521Y57805950D01*
X63478335Y58009408D01*
X63588774Y58275376D01*
X63589025Y58563361D01*
X63479050Y58829521D01*
X63275592Y59033335D01*
X63009624Y59143774D01*
X62721639Y59144025D01*
X62455479Y59034050D01*
X62251665Y58830592D01*
X62141226Y58564624D01*
X62140975Y58276639D01*
X58508775Y58276639D01*
X58509025Y58563361D01*
X58399050Y58829521D01*
X58317076Y58911639D01*
X59600975Y58911639D01*
X59710950Y58645479D01*
X59914408Y58441665D01*
X60180376Y58331226D01*
X60468361Y58330975D01*
X60734521Y58440950D01*
X60938335Y58644408D01*
X61048774Y58910376D01*
X61049025Y59198361D01*
X60939050Y59464521D01*
X60735592Y59668335D01*
X60469624Y59778774D01*
X60181639Y59779025D01*
X59915479Y59669050D01*
X59711665Y59465592D01*
X59601226Y59199624D01*
X59600975Y58911639D01*
X58317076Y58911639D01*
X58195592Y59033335D01*
X57929624Y59143774D01*
X57641639Y59144025D01*
X57375479Y59034050D01*
X57229702Y58888527D01*
X57238774Y58910376D01*
X57239025Y59198361D01*
X57129050Y59464521D01*
X56925592Y59668335D01*
X56659624Y59778774D01*
X56371639Y59779025D01*
X56105479Y59669050D01*
X55901665Y59465592D01*
X55791226Y59199624D01*
X55790975Y58911639D01*
X50253775Y58911639D01*
X50254025Y59198361D01*
X50144050Y59464521D01*
X49940592Y59668335D01*
X49674624Y59778774D01*
X49386639Y59779025D01*
X49120479Y59669050D01*
X48916665Y59465592D01*
X48806226Y59199624D01*
X48806177Y59143977D01*
X48751639Y59144025D01*
X48485479Y59034050D01*
X48281665Y58830592D01*
X48171226Y58564624D01*
X48170975Y58276639D01*
X23127000Y58276639D01*
X23127000Y59546639D01*
X39915975Y59546639D01*
X40025950Y59280479D01*
X40229408Y59076665D01*
X40495376Y58966226D01*
X40783361Y58965975D01*
X41049521Y59075950D01*
X41253335Y59279408D01*
X41363774Y59545376D01*
X41364025Y59833361D01*
X41254050Y60099521D01*
X41172076Y60181639D01*
X41820975Y60181639D01*
X41930950Y59915479D01*
X42134408Y59711665D01*
X42400376Y59601226D01*
X42688361Y59600975D01*
X42954521Y59710950D01*
X43158335Y59914408D01*
X43268774Y60180376D01*
X43269025Y60468361D01*
X43159050Y60734521D01*
X42955592Y60938335D01*
X42689624Y61048774D01*
X42401639Y61049025D01*
X42135479Y60939050D01*
X41931665Y60735592D01*
X41821226Y60469624D01*
X41820975Y60181639D01*
X41172076Y60181639D01*
X41050592Y60303335D01*
X40784624Y60413774D01*
X40496639Y60414025D01*
X40230479Y60304050D01*
X40026665Y60100592D01*
X39916226Y59834624D01*
X39915975Y59546639D01*
X23127000Y59546639D01*
X23127000Y60181639D01*
X36740975Y60181639D01*
X36850950Y59915479D01*
X37054408Y59711665D01*
X37320376Y59601226D01*
X37608361Y59600975D01*
X37874521Y59710950D01*
X38078335Y59914408D01*
X38188774Y60180376D01*
X38189025Y60468361D01*
X38079050Y60734521D01*
X37875592Y60938335D01*
X37609624Y61048774D01*
X37321639Y61049025D01*
X37055479Y60939050D01*
X36851665Y60735592D01*
X36741226Y60469624D01*
X36740975Y60181639D01*
X23127000Y60181639D01*
X23127000Y60816639D01*
X23405975Y60816639D01*
X23515950Y60550479D01*
X23719408Y60346665D01*
X23985376Y60236226D01*
X24273361Y60235975D01*
X24539521Y60345950D01*
X24743335Y60549408D01*
X24853774Y60815376D01*
X24853775Y60816639D01*
X30390975Y60816639D01*
X30500950Y60550479D01*
X30704408Y60346665D01*
X30970376Y60236226D01*
X31258361Y60235975D01*
X31524521Y60345950D01*
X31728335Y60549408D01*
X31838774Y60815376D01*
X31839025Y61103361D01*
X31729050Y61369521D01*
X31647076Y61451639D01*
X48805975Y61451639D01*
X48915950Y61185479D01*
X49119408Y60981665D01*
X49385376Y60871226D01*
X49673361Y60870975D01*
X49939521Y60980950D01*
X50143335Y61184408D01*
X50253774Y61450376D01*
X50254025Y61738361D01*
X50184347Y61906997D01*
X73933718Y61906997D01*
X74181499Y61307320D01*
X74639907Y60848112D01*
X75239151Y60599284D01*
X75888003Y60598718D01*
X76487680Y60846499D01*
X76946888Y61304907D01*
X77195716Y61904151D01*
X77196282Y62553003D01*
X76948501Y63152680D01*
X76490093Y63611888D01*
X75890849Y63860716D01*
X75241997Y63861282D01*
X74642320Y63613501D01*
X74183112Y63155093D01*
X73934284Y62555849D01*
X73933718Y61906997D01*
X50184347Y61906997D01*
X50144050Y62004521D01*
X49940592Y62208335D01*
X49674624Y62318774D01*
X49386639Y62319025D01*
X49120479Y62209050D01*
X48916665Y62005592D01*
X48806226Y61739624D01*
X48805975Y61451639D01*
X31647076Y61451639D01*
X31525592Y61573335D01*
X31259624Y61683774D01*
X30971639Y61684025D01*
X30705479Y61574050D01*
X30501665Y61370592D01*
X30391226Y61104624D01*
X30390975Y60816639D01*
X24853775Y60816639D01*
X24854025Y61103361D01*
X24744050Y61369521D01*
X24540592Y61573335D01*
X24274624Y61683774D01*
X23986639Y61684025D01*
X23720479Y61574050D01*
X23516665Y61370592D01*
X23406226Y61104624D01*
X23405975Y60816639D01*
X23127000Y60816639D01*
X23127000Y64626639D01*
X30390975Y64626639D01*
X30500950Y64360479D01*
X30704408Y64156665D01*
X30970376Y64046226D01*
X31258361Y64045975D01*
X31524521Y64155950D01*
X31728335Y64359408D01*
X31838774Y64625376D01*
X31839025Y64913361D01*
X31729050Y65179521D01*
X31525592Y65383335D01*
X31259624Y65493774D01*
X30971639Y65494025D01*
X30705479Y65384050D01*
X30501665Y65180592D01*
X30391226Y64914624D01*
X30390975Y64626639D01*
X23127000Y64626639D01*
X23127000Y65896639D01*
X54520975Y65896639D01*
X54630950Y65630479D01*
X54834408Y65426665D01*
X55100376Y65316226D01*
X55388361Y65315975D01*
X55654521Y65425950D01*
X55858335Y65629408D01*
X55894704Y65716997D01*
X69323718Y65716997D01*
X69571499Y65117320D01*
X70029907Y64658112D01*
X70629151Y64409284D01*
X71278003Y64408718D01*
X71877680Y64656499D01*
X72336888Y65114907D01*
X72585716Y65714151D01*
X72586282Y66363003D01*
X72338501Y66962680D01*
X71880093Y67421888D01*
X71280849Y67670716D01*
X70631997Y67671282D01*
X70032320Y67423501D01*
X69573112Y66965093D01*
X69324284Y66365849D01*
X69323718Y65716997D01*
X55894704Y65716997D01*
X55968774Y65895376D01*
X55969025Y66183361D01*
X55859050Y66449521D01*
X55655592Y66653335D01*
X55389624Y66763774D01*
X55101639Y66764025D01*
X54835479Y66654050D01*
X54631665Y66450592D01*
X54521226Y66184624D01*
X54520975Y65896639D01*
X23127000Y65896639D01*
X23127000Y69071639D01*
X44360975Y69071639D01*
X44470950Y68805479D01*
X44674408Y68601665D01*
X44940376Y68491226D01*
X45228361Y68490975D01*
X45494521Y68600950D01*
X45698335Y68804408D01*
X45808774Y69070376D01*
X45809025Y69358361D01*
X45699050Y69624521D01*
X45617076Y69706639D01*
X57060975Y69706639D01*
X57170950Y69440479D01*
X57374408Y69236665D01*
X57640376Y69126226D01*
X57928361Y69125975D01*
X58194521Y69235950D01*
X58398335Y69439408D01*
X58508774Y69705376D01*
X58508775Y69706639D01*
X59600975Y69706639D01*
X59710950Y69440479D01*
X59914408Y69236665D01*
X60180376Y69126226D01*
X60468361Y69125975D01*
X60734521Y69235950D01*
X60938335Y69439408D01*
X61048774Y69705376D01*
X61049025Y69993361D01*
X60939050Y70259521D01*
X60735592Y70463335D01*
X60469624Y70573774D01*
X60181639Y70574025D01*
X59915479Y70464050D01*
X59711665Y70260592D01*
X59601226Y69994624D01*
X59600975Y69706639D01*
X58508775Y69706639D01*
X58509025Y69993361D01*
X58399050Y70259521D01*
X58195592Y70463335D01*
X57929624Y70573774D01*
X57641639Y70574025D01*
X57375479Y70464050D01*
X57171665Y70260592D01*
X57061226Y69994624D01*
X57060975Y69706639D01*
X45617076Y69706639D01*
X45495592Y69828335D01*
X45229624Y69938774D01*
X44941639Y69939025D01*
X44675479Y69829050D01*
X44471665Y69625592D01*
X44361226Y69359624D01*
X44360975Y69071639D01*
X23127000Y69071639D01*
X23127000Y72701997D01*
X27743718Y72701997D01*
X27991499Y72102320D01*
X28449907Y71643112D01*
X29049151Y71394284D01*
X29698003Y71393718D01*
X30297680Y71641499D01*
X30756888Y72099907D01*
X30817816Y72246639D01*
X51345975Y72246639D01*
X51455950Y71980479D01*
X51659408Y71776665D01*
X51925376Y71666226D01*
X52213361Y71665975D01*
X52479521Y71775950D01*
X52683335Y71979408D01*
X52793774Y72245376D01*
X52794025Y72533361D01*
X52684050Y72799521D01*
X52480592Y73003335D01*
X52214624Y73113774D01*
X51926639Y73114025D01*
X51660479Y73004050D01*
X51456665Y72800592D01*
X51346226Y72534624D01*
X51345975Y72246639D01*
X30817816Y72246639D01*
X31005716Y72699151D01*
X31005875Y72881639D01*
X39280975Y72881639D01*
X39390950Y72615479D01*
X39594408Y72411665D01*
X39860376Y72301226D01*
X40148361Y72300975D01*
X40414521Y72410950D01*
X40618335Y72614408D01*
X40728774Y72880376D01*
X40728775Y72881639D01*
X41820975Y72881639D01*
X41930950Y72615479D01*
X42134408Y72411665D01*
X42400376Y72301226D01*
X42688361Y72300975D01*
X42954521Y72410950D01*
X43158335Y72614408D01*
X43268774Y72880376D01*
X43269025Y73168361D01*
X43159050Y73434521D01*
X42955592Y73638335D01*
X42689624Y73748774D01*
X42401639Y73749025D01*
X42135479Y73639050D01*
X41931665Y73435592D01*
X41821226Y73169624D01*
X41820975Y72881639D01*
X40728775Y72881639D01*
X40729025Y73168361D01*
X40619050Y73434521D01*
X40415592Y73638335D01*
X40149624Y73748774D01*
X39861639Y73749025D01*
X39595479Y73639050D01*
X39391665Y73435592D01*
X39281226Y73169624D01*
X39280975Y72881639D01*
X31005875Y72881639D01*
X31006282Y73348003D01*
X30758501Y73947680D01*
X30554898Y74151639D01*
X68490975Y74151639D01*
X68600950Y73885479D01*
X68804408Y73681665D01*
X69070376Y73571226D01*
X69358361Y73570975D01*
X69624521Y73680950D01*
X69828335Y73884408D01*
X69938774Y74150376D01*
X69939025Y74438361D01*
X69829050Y74704521D01*
X69625592Y74908335D01*
X69359624Y75018774D01*
X69071639Y75019025D01*
X68805479Y74909050D01*
X68601665Y74705592D01*
X68491226Y74439624D01*
X68490975Y74151639D01*
X30554898Y74151639D01*
X30300093Y74406888D01*
X29700849Y74655716D01*
X29051997Y74656282D01*
X28452320Y74408501D01*
X27993112Y73950093D01*
X27744284Y73350849D01*
X27743718Y72701997D01*
X23127000Y72701997D01*
X23127000Y76511997D01*
X23133718Y76511997D01*
X23381499Y75912320D01*
X23839907Y75453112D01*
X24439151Y75204284D01*
X25088003Y75203718D01*
X25687680Y75451499D01*
X26146888Y75909907D01*
X26395716Y76509151D01*
X26396282Y77158003D01*
X26148501Y77757680D01*
X25944898Y77961639D01*
X53885975Y77961639D01*
X53995950Y77695479D01*
X54199408Y77491665D01*
X54465376Y77381226D01*
X54753361Y77380975D01*
X55019521Y77490950D01*
X55223335Y77694408D01*
X55333774Y77960376D01*
X55333775Y77961639D01*
X68490975Y77961639D01*
X68600950Y77695479D01*
X68804408Y77491665D01*
X69070376Y77381226D01*
X69358361Y77380975D01*
X69624521Y77490950D01*
X69828335Y77694408D01*
X69938774Y77960376D01*
X69938775Y77961639D01*
X75475975Y77961639D01*
X75585950Y77695479D01*
X75789408Y77491665D01*
X76055376Y77381226D01*
X76343361Y77380975D01*
X76609521Y77490950D01*
X76813335Y77694408D01*
X76923774Y77960376D01*
X76924025Y78248361D01*
X76814050Y78514521D01*
X76610592Y78718335D01*
X76344624Y78828774D01*
X76056639Y78829025D01*
X75790479Y78719050D01*
X75586665Y78515592D01*
X75476226Y78249624D01*
X75475975Y77961639D01*
X69938775Y77961639D01*
X69939025Y78248361D01*
X69829050Y78514521D01*
X69625592Y78718335D01*
X69359624Y78828774D01*
X69071639Y78829025D01*
X68805479Y78719050D01*
X68601665Y78515592D01*
X68491226Y78249624D01*
X68490975Y77961639D01*
X55333775Y77961639D01*
X55334025Y78248361D01*
X55224050Y78514521D01*
X55020592Y78718335D01*
X54754624Y78828774D01*
X54466639Y78829025D01*
X54200479Y78719050D01*
X53996665Y78515592D01*
X53886226Y78249624D01*
X53885975Y77961639D01*
X25944898Y77961639D01*
X25690093Y78216888D01*
X25090849Y78465716D01*
X24441997Y78466282D01*
X23842320Y78218501D01*
X23383112Y77760093D01*
X23134284Y77160849D01*
X23133718Y76511997D01*
X23127000Y76511997D01*
X23127000Y78596639D01*
X48170975Y78596639D01*
X48280950Y78330479D01*
X48484408Y78126665D01*
X48750376Y78016226D01*
X49038361Y78015975D01*
X49304521Y78125950D01*
X49508335Y78329408D01*
X49618774Y78595376D01*
X49619025Y78883361D01*
X49509050Y79149521D01*
X49427076Y79231639D01*
X55790975Y79231639D01*
X55900950Y78965479D01*
X56104408Y78761665D01*
X56370376Y78651226D01*
X56658361Y78650975D01*
X56924521Y78760950D01*
X57070298Y78906473D01*
X57061226Y78884624D01*
X57060975Y78596639D01*
X57170950Y78330479D01*
X57374408Y78126665D01*
X57640376Y78016226D01*
X57928361Y78015975D01*
X58194521Y78125950D01*
X58398335Y78329408D01*
X58508774Y78595376D01*
X58508775Y78596639D01*
X62140975Y78596639D01*
X62250950Y78330479D01*
X62454408Y78126665D01*
X62720376Y78016226D01*
X63008361Y78015975D01*
X63274521Y78125950D01*
X63478335Y78329408D01*
X63588774Y78595376D01*
X63589025Y78883361D01*
X63479050Y79149521D01*
X63275592Y79353335D01*
X63009624Y79463774D01*
X62721639Y79464025D01*
X62455479Y79354050D01*
X62251665Y79150592D01*
X62141226Y78884624D01*
X62140975Y78596639D01*
X58508775Y78596639D01*
X58509025Y78883361D01*
X58399050Y79149521D01*
X58317076Y79231639D01*
X59600975Y79231639D01*
X59710950Y78965479D01*
X59914408Y78761665D01*
X60180376Y78651226D01*
X60468361Y78650975D01*
X60734521Y78760950D01*
X60938335Y78964408D01*
X61048774Y79230376D01*
X61049025Y79518361D01*
X60939050Y79784521D01*
X60735592Y79988335D01*
X60469624Y80098774D01*
X60181639Y80099025D01*
X59915479Y79989050D01*
X59711665Y79785592D01*
X59601226Y79519624D01*
X59600975Y79231639D01*
X58317076Y79231639D01*
X58195592Y79353335D01*
X57929624Y79463774D01*
X57641639Y79464025D01*
X57375479Y79354050D01*
X57229702Y79208527D01*
X57238774Y79230376D01*
X57239025Y79518361D01*
X57129050Y79784521D01*
X56925592Y79988335D01*
X56659624Y80098774D01*
X56371639Y80099025D01*
X56105479Y79989050D01*
X55901665Y79785592D01*
X55791226Y79519624D01*
X55790975Y79231639D01*
X49427076Y79231639D01*
X49305592Y79353335D01*
X49039624Y79463774D01*
X48751639Y79464025D01*
X48485479Y79354050D01*
X48281665Y79150592D01*
X48171226Y78884624D01*
X48170975Y78596639D01*
X23127000Y78596639D01*
X23127000Y79866639D01*
X39915975Y79866639D01*
X40025950Y79600479D01*
X40229408Y79396665D01*
X40495376Y79286226D01*
X40783361Y79285975D01*
X41049521Y79395950D01*
X41253335Y79599408D01*
X41363774Y79865376D01*
X41364025Y80153361D01*
X41254050Y80419521D01*
X41172076Y80501639D01*
X41820975Y80501639D01*
X41930950Y80235479D01*
X42134408Y80031665D01*
X42400376Y79921226D01*
X42688361Y79920975D01*
X42954521Y80030950D01*
X43158335Y80234408D01*
X43268774Y80500376D01*
X43269025Y80788361D01*
X43159050Y81054521D01*
X42955592Y81258335D01*
X42689624Y81368774D01*
X42401639Y81369025D01*
X42135479Y81259050D01*
X41931665Y81055592D01*
X41821226Y80789624D01*
X41820975Y80501639D01*
X41172076Y80501639D01*
X41050592Y80623335D01*
X40784624Y80733774D01*
X40496639Y80734025D01*
X40230479Y80624050D01*
X40026665Y80420592D01*
X39916226Y80154624D01*
X39915975Y79866639D01*
X23127000Y79866639D01*
X23127000Y80501639D01*
X36740975Y80501639D01*
X36850950Y80235479D01*
X37054408Y80031665D01*
X37320376Y79921226D01*
X37608361Y79920975D01*
X37874521Y80030950D01*
X38078335Y80234408D01*
X38188774Y80500376D01*
X38189025Y80788361D01*
X38079050Y81054521D01*
X37875592Y81258335D01*
X37609624Y81368774D01*
X37321639Y81369025D01*
X37055479Y81259050D01*
X36851665Y81055592D01*
X36741226Y80789624D01*
X36740975Y80501639D01*
X23127000Y80501639D01*
X23127000Y81136639D01*
X23405975Y81136639D01*
X23515950Y80870479D01*
X23719408Y80666665D01*
X23985376Y80556226D01*
X24273361Y80555975D01*
X24539521Y80665950D01*
X24743335Y80869408D01*
X24853774Y81135376D01*
X24853775Y81136639D01*
X30390975Y81136639D01*
X30500950Y80870479D01*
X30704408Y80666665D01*
X30970376Y80556226D01*
X31258361Y80555975D01*
X31524521Y80665950D01*
X31728335Y80869408D01*
X31838774Y81135376D01*
X31839025Y81423361D01*
X31729050Y81689521D01*
X31525592Y81893335D01*
X31259624Y82003774D01*
X30971639Y82004025D01*
X30705479Y81894050D01*
X30501665Y81690592D01*
X30391226Y81424624D01*
X30390975Y81136639D01*
X24853775Y81136639D01*
X24854025Y81423361D01*
X24744050Y81689521D01*
X24540592Y81893335D01*
X24274624Y82003774D01*
X23986639Y82004025D01*
X23720479Y81894050D01*
X23516665Y81690592D01*
X23406226Y81424624D01*
X23405975Y81136639D01*
X23127000Y81136639D01*
X23127000Y82406639D01*
X49440975Y82406639D01*
X49550950Y82140479D01*
X49754408Y81936665D01*
X50020376Y81826226D01*
X50308361Y81825975D01*
X50574521Y81935950D01*
X50778335Y82139408D01*
X50814704Y82226997D01*
X73933718Y82226997D01*
X74181499Y81627320D01*
X74639907Y81168112D01*
X75239151Y80919284D01*
X75888003Y80918718D01*
X76487680Y81166499D01*
X76946888Y81624907D01*
X77195716Y82224151D01*
X77196282Y82873003D01*
X76948501Y83472680D01*
X76490093Y83931888D01*
X75890849Y84180716D01*
X75241997Y84181282D01*
X74642320Y83933501D01*
X74183112Y83475093D01*
X73934284Y82875849D01*
X73933718Y82226997D01*
X50814704Y82226997D01*
X50888774Y82405376D01*
X50889025Y82693361D01*
X50779050Y82959521D01*
X50575592Y83163335D01*
X50309624Y83273774D01*
X50021639Y83274025D01*
X49755479Y83164050D01*
X49551665Y82960592D01*
X49441226Y82694624D01*
X49440975Y82406639D01*
X23127000Y82406639D01*
X23127000Y84946639D01*
X30390975Y84946639D01*
X30500950Y84680479D01*
X30704408Y84476665D01*
X30970376Y84366226D01*
X31258361Y84365975D01*
X31524521Y84475950D01*
X31728335Y84679408D01*
X31838774Y84945376D01*
X31839025Y85233361D01*
X31729050Y85499521D01*
X31525592Y85703335D01*
X31259624Y85813774D01*
X30971639Y85814025D01*
X30705479Y85704050D01*
X30501665Y85500592D01*
X30391226Y85234624D01*
X30390975Y84946639D01*
X23127000Y84946639D01*
X23127000Y86216639D01*
X54520975Y86216639D01*
X54630950Y85950479D01*
X54834408Y85746665D01*
X55100376Y85636226D01*
X55388361Y85635975D01*
X55654521Y85745950D01*
X55858335Y85949408D01*
X55894704Y86036997D01*
X69323718Y86036997D01*
X69571499Y85437320D01*
X70029907Y84978112D01*
X70629151Y84729284D01*
X71278003Y84728718D01*
X71877680Y84976499D01*
X72336888Y85434907D01*
X72585716Y86034151D01*
X72586282Y86683003D01*
X72338501Y87282680D01*
X71880093Y87741888D01*
X71280849Y87990716D01*
X70631997Y87991282D01*
X70032320Y87743501D01*
X69573112Y87285093D01*
X69324284Y86685849D01*
X69323718Y86036997D01*
X55894704Y86036997D01*
X55968774Y86215376D01*
X55969025Y86503361D01*
X55859050Y86769521D01*
X55655592Y86973335D01*
X55389624Y87083774D01*
X55101639Y87084025D01*
X54835479Y86974050D01*
X54631665Y86770592D01*
X54521226Y86504624D01*
X54520975Y86216639D01*
X23127000Y86216639D01*
X23127000Y89391639D01*
X44360975Y89391639D01*
X44470950Y89125479D01*
X44674408Y88921665D01*
X44940376Y88811226D01*
X45228361Y88810975D01*
X45494521Y88920950D01*
X45698335Y89124408D01*
X45808774Y89390376D01*
X45809025Y89678361D01*
X45699050Y89944521D01*
X45617076Y90026639D01*
X57060975Y90026639D01*
X57170950Y89760479D01*
X57374408Y89556665D01*
X57640376Y89446226D01*
X57928361Y89445975D01*
X58194521Y89555950D01*
X58398335Y89759408D01*
X58508774Y90025376D01*
X58508775Y90026639D01*
X59600975Y90026639D01*
X59710950Y89760479D01*
X59914408Y89556665D01*
X60180376Y89446226D01*
X60468361Y89445975D01*
X60734521Y89555950D01*
X60938335Y89759408D01*
X61048774Y90025376D01*
X61049025Y90313361D01*
X60939050Y90579521D01*
X60735592Y90783335D01*
X60469624Y90893774D01*
X60181639Y90894025D01*
X59915479Y90784050D01*
X59711665Y90580592D01*
X59601226Y90314624D01*
X59600975Y90026639D01*
X58508775Y90026639D01*
X58509025Y90313361D01*
X58399050Y90579521D01*
X58195592Y90783335D01*
X57929624Y90893774D01*
X57641639Y90894025D01*
X57375479Y90784050D01*
X57171665Y90580592D01*
X57061226Y90314624D01*
X57060975Y90026639D01*
X45617076Y90026639D01*
X45495592Y90148335D01*
X45229624Y90258774D01*
X44941639Y90259025D01*
X44675479Y90149050D01*
X44471665Y89945592D01*
X44361226Y89679624D01*
X44360975Y89391639D01*
X23127000Y89391639D01*
X23127000Y93021997D01*
X27743718Y93021997D01*
X27991499Y92422320D01*
X28449907Y91963112D01*
X29049151Y91714284D01*
X29698003Y91713718D01*
X30297680Y91961499D01*
X30756888Y92419907D01*
X30817816Y92566639D01*
X51345975Y92566639D01*
X51455950Y92300479D01*
X51659408Y92096665D01*
X51925376Y91986226D01*
X52213361Y91985975D01*
X52479521Y92095950D01*
X52683335Y92299408D01*
X52793774Y92565376D01*
X52794025Y92853361D01*
X52684050Y93119521D01*
X52480592Y93323335D01*
X52214624Y93433774D01*
X51926639Y93434025D01*
X51660479Y93324050D01*
X51456665Y93120592D01*
X51346226Y92854624D01*
X51345975Y92566639D01*
X30817816Y92566639D01*
X31005716Y93019151D01*
X31005875Y93201639D01*
X39280975Y93201639D01*
X39390950Y92935479D01*
X39594408Y92731665D01*
X39860376Y92621226D01*
X40148361Y92620975D01*
X40414521Y92730950D01*
X40618335Y92934408D01*
X40728774Y93200376D01*
X40728775Y93201639D01*
X41820975Y93201639D01*
X41930950Y92935479D01*
X42134408Y92731665D01*
X42400376Y92621226D01*
X42688361Y92620975D01*
X42954521Y92730950D01*
X43158335Y92934408D01*
X43268774Y93200376D01*
X43269025Y93488361D01*
X43159050Y93754521D01*
X42955592Y93958335D01*
X42689624Y94068774D01*
X42401639Y94069025D01*
X42135479Y93959050D01*
X41931665Y93755592D01*
X41821226Y93489624D01*
X41820975Y93201639D01*
X40728775Y93201639D01*
X40729025Y93488361D01*
X40619050Y93754521D01*
X40415592Y93958335D01*
X40149624Y94068774D01*
X39861639Y94069025D01*
X39595479Y93959050D01*
X39391665Y93755592D01*
X39281226Y93489624D01*
X39280975Y93201639D01*
X31005875Y93201639D01*
X31006282Y93668003D01*
X30758501Y94267680D01*
X30554898Y94471639D01*
X68490975Y94471639D01*
X68600950Y94205479D01*
X68804408Y94001665D01*
X69070376Y93891226D01*
X69358361Y93890975D01*
X69624521Y94000950D01*
X69828335Y94204408D01*
X69938774Y94470376D01*
X69939025Y94758361D01*
X69829050Y95024521D01*
X69625592Y95228335D01*
X69359624Y95338774D01*
X69071639Y95339025D01*
X68805479Y95229050D01*
X68601665Y95025592D01*
X68491226Y94759624D01*
X68490975Y94471639D01*
X30554898Y94471639D01*
X30300093Y94726888D01*
X29700849Y94975716D01*
X29051997Y94976282D01*
X28452320Y94728501D01*
X27993112Y94270093D01*
X27744284Y93670849D01*
X27743718Y93021997D01*
X23127000Y93021997D01*
X23127000Y96831997D01*
X23133718Y96831997D01*
X23381499Y96232320D01*
X23839907Y95773112D01*
X24439151Y95524284D01*
X25088003Y95523718D01*
X25615413Y95741639D01*
X41820975Y95741639D01*
X41930950Y95475479D01*
X42134408Y95271665D01*
X42400376Y95161226D01*
X42688361Y95160975D01*
X42954521Y95270950D01*
X43158335Y95474408D01*
X43268774Y95740376D01*
X43269025Y96028361D01*
X43159050Y96294521D01*
X42955592Y96498335D01*
X42689624Y96608774D01*
X42401639Y96609025D01*
X42135479Y96499050D01*
X41931665Y96295592D01*
X41821226Y96029624D01*
X41820975Y95741639D01*
X25615413Y95741639D01*
X25687680Y95771499D01*
X26146888Y96229907D01*
X26395716Y96829151D01*
X26396282Y97478003D01*
X26326604Y97646639D01*
X38010975Y97646639D01*
X38120950Y97380479D01*
X38324408Y97176665D01*
X38590376Y97066226D01*
X38878361Y97065975D01*
X39144521Y97175950D01*
X39348335Y97379408D01*
X39458774Y97645376D01*
X39459025Y97933361D01*
X39349050Y98199521D01*
X39267076Y98281639D01*
X53885975Y98281639D01*
X53995950Y98015479D01*
X54199408Y97811665D01*
X54465376Y97701226D01*
X54753361Y97700975D01*
X55019521Y97810950D01*
X55223335Y98014408D01*
X55333774Y98280376D01*
X55333775Y98281639D01*
X68490975Y98281639D01*
X68600950Y98015479D01*
X68804408Y97811665D01*
X69070376Y97701226D01*
X69358361Y97700975D01*
X69624521Y97810950D01*
X69828335Y98014408D01*
X69938774Y98280376D01*
X69938775Y98281639D01*
X75475975Y98281639D01*
X75585950Y98015479D01*
X75789408Y97811665D01*
X76055376Y97701226D01*
X76343361Y97700975D01*
X76609521Y97810950D01*
X76813335Y98014408D01*
X76923774Y98280376D01*
X76924025Y98568361D01*
X76814050Y98834521D01*
X76610592Y99038335D01*
X76344624Y99148774D01*
X76056639Y99149025D01*
X75790479Y99039050D01*
X75586665Y98835592D01*
X75476226Y98569624D01*
X75475975Y98281639D01*
X69938775Y98281639D01*
X69939025Y98568361D01*
X69829050Y98834521D01*
X69625592Y99038335D01*
X69359624Y99148774D01*
X69071639Y99149025D01*
X68805479Y99039050D01*
X68601665Y98835592D01*
X68491226Y98569624D01*
X68490975Y98281639D01*
X55333775Y98281639D01*
X55334025Y98568361D01*
X55224050Y98834521D01*
X55020592Y99038335D01*
X54754624Y99148774D01*
X54466639Y99149025D01*
X54200479Y99039050D01*
X53996665Y98835592D01*
X53886226Y98569624D01*
X53885975Y98281639D01*
X39267076Y98281639D01*
X39145592Y98403335D01*
X38879624Y98513774D01*
X38591639Y98514025D01*
X38325479Y98404050D01*
X38121665Y98200592D01*
X38011226Y97934624D01*
X38010975Y97646639D01*
X26326604Y97646639D01*
X26148501Y98077680D01*
X25690093Y98536888D01*
X25090849Y98785716D01*
X24441997Y98786282D01*
X23842320Y98538501D01*
X23383112Y98080093D01*
X23134284Y97480849D01*
X23133718Y96831997D01*
X23127000Y96831997D01*
X23127000Y99544000D01*
X57245201Y99544000D01*
X57171665Y99470592D01*
X57171665Y99470592D01*
G37*
X57171665Y99470592D02*
X57061226Y99204624D01*
X57060975Y98916639D01*
X57170950Y98650479D01*
X57374408Y98446665D01*
X57640376Y98336226D01*
X57928361Y98335975D01*
X58194521Y98445950D01*
X58398335Y98649408D01*
X58508774Y98915376D01*
X58509025Y99203361D01*
X58399050Y99469521D01*
X58324701Y99544000D01*
X62325201Y99544000D01*
X62251665Y99470592D01*
X62141226Y99204624D01*
X62140975Y98916639D01*
X62250950Y98650479D01*
X62454408Y98446665D01*
X62720376Y98336226D01*
X63008361Y98335975D01*
X63274521Y98445950D01*
X63478335Y98649408D01*
X63588774Y98915376D01*
X63589025Y99203361D01*
X63479050Y99469521D01*
X63404701Y99544000D01*
X77373000Y99544000D01*
X77373000Y456000D01*
X23127000Y456000D01*
X23127000Y1761639D01*
X27850975Y1761639D01*
X27960950Y1495479D01*
X28164408Y1291665D01*
X28430376Y1181226D01*
X28718361Y1180975D01*
X28984521Y1290950D01*
X29188335Y1494408D01*
X29298774Y1760376D01*
X29299025Y2048361D01*
X29189050Y2314521D01*
X28985592Y2518335D01*
X28719624Y2628774D01*
X28431639Y2629025D01*
X28165479Y2519050D01*
X27961665Y2315592D01*
X27851226Y2049624D01*
X27850975Y1761639D01*
X23127000Y1761639D01*
X23127000Y3666639D01*
X33565975Y3666639D01*
X33675950Y3400479D01*
X33879408Y3196665D01*
X34145376Y3086226D01*
X34433361Y3085975D01*
X34699521Y3195950D01*
X34903335Y3399408D01*
X35013774Y3665376D01*
X35014025Y3953361D01*
X34904050Y4219521D01*
X34822076Y4301639D01*
X71030975Y4301639D01*
X71140950Y4035479D01*
X71344408Y3831665D01*
X71610376Y3721226D01*
X71898361Y3720975D01*
X72164521Y3830950D01*
X72368335Y4034408D01*
X72478774Y4300376D01*
X72479025Y4588361D01*
X72369050Y4854521D01*
X72165592Y5058335D01*
X71899624Y5168774D01*
X71611639Y5169025D01*
X71345479Y5059050D01*
X71141665Y4855592D01*
X71031226Y4589624D01*
X71030975Y4301639D01*
X34822076Y4301639D01*
X34700592Y4423335D01*
X34434624Y4533774D01*
X34146639Y4534025D01*
X33880479Y4424050D01*
X33676665Y4220592D01*
X33566226Y3954624D01*
X33565975Y3666639D01*
X23127000Y3666639D01*
X23127000Y4301639D01*
X27850975Y4301639D01*
X27960950Y4035479D01*
X28164408Y3831665D01*
X28430376Y3721226D01*
X28718361Y3720975D01*
X28984521Y3830950D01*
X29188335Y4034408D01*
X29298774Y4300376D01*
X29299025Y4588361D01*
X29189050Y4854521D01*
X29107076Y4936639D01*
X60870975Y4936639D01*
X60980950Y4670479D01*
X61184408Y4466665D01*
X61450376Y4356226D01*
X61738361Y4355975D01*
X62004521Y4465950D01*
X62208335Y4669408D01*
X62318774Y4935376D01*
X62319025Y5223361D01*
X62309209Y5247118D01*
X62454408Y5101665D01*
X62720376Y4991226D01*
X63008361Y4990975D01*
X63274521Y5100950D01*
X63478335Y5304408D01*
X63588774Y5570376D01*
X63589025Y5858361D01*
X63479050Y6124521D01*
X63275592Y6328335D01*
X63009624Y6438774D01*
X62721639Y6439025D01*
X62455479Y6329050D01*
X62251665Y6125592D01*
X62141226Y5859624D01*
X62140975Y5571639D01*
X62150791Y5547882D01*
X62005592Y5693335D01*
X61739624Y5803774D01*
X61451639Y5804025D01*
X61185479Y5694050D01*
X60981665Y5490592D01*
X60871226Y5224624D01*
X60870975Y4936639D01*
X29107076Y4936639D01*
X28985592Y5058335D01*
X28719624Y5168774D01*
X28431639Y5169025D01*
X28165479Y5059050D01*
X27961665Y4855592D01*
X27851226Y4589624D01*
X27850975Y4301639D01*
X23127000Y4301639D01*
X23127000Y6841639D01*
X71030975Y6841639D01*
X71140950Y6575479D01*
X71344408Y6371665D01*
X71610376Y6261226D01*
X71898361Y6260975D01*
X72164521Y6370950D01*
X72368335Y6574408D01*
X72478774Y6840376D01*
X72479025Y7128361D01*
X72369050Y7394521D01*
X72165592Y7598335D01*
X71899624Y7708774D01*
X71611639Y7709025D01*
X71345479Y7599050D01*
X71141665Y7395592D01*
X71031226Y7129624D01*
X71030975Y6841639D01*
X23127000Y6841639D01*
X23127000Y7476639D01*
X27850975Y7476639D01*
X27960950Y7210479D01*
X28164408Y7006665D01*
X28430376Y6896226D01*
X28718361Y6895975D01*
X28984521Y7005950D01*
X29188335Y7209408D01*
X29298774Y7475376D01*
X29299025Y7763361D01*
X29189050Y8029521D01*
X28985592Y8233335D01*
X28719624Y8343774D01*
X28431639Y8344025D01*
X28165479Y8234050D01*
X27961665Y8030592D01*
X27851226Y7764624D01*
X27850975Y7476639D01*
X23127000Y7476639D01*
X23127000Y9381639D01*
X34835975Y9381639D01*
X34945950Y9115479D01*
X35149408Y8911665D01*
X35415376Y8801226D01*
X35703361Y8800975D01*
X35969521Y8910950D01*
X36173335Y9114408D01*
X36283774Y9380376D01*
X36283775Y9381639D01*
X37375975Y9381639D01*
X37485950Y9115479D01*
X37689408Y8911665D01*
X37955376Y8801226D01*
X38243361Y8800975D01*
X38509521Y8910950D01*
X38713335Y9114408D01*
X38823774Y9380376D01*
X38823775Y9381639D01*
X40550975Y9381639D01*
X40660950Y9115479D01*
X40864408Y8911665D01*
X41130376Y8801226D01*
X41418361Y8800975D01*
X41648786Y8896185D01*
X41648691Y8787296D01*
X41919261Y8132467D01*
X42419827Y7631027D01*
X43074183Y7359315D01*
X43782709Y7358696D01*
X44437538Y7629266D01*
X44938978Y8129832D01*
X45210690Y8784188D01*
X45210692Y8787296D01*
X54788691Y8787296D01*
X55059261Y8132467D01*
X55559827Y7631027D01*
X56214183Y7359315D01*
X56922709Y7358696D01*
X57577538Y7629266D01*
X58078978Y8129832D01*
X58335098Y8746639D01*
X59600975Y8746639D01*
X59710950Y8480479D01*
X59914408Y8276665D01*
X60180376Y8166226D01*
X60468361Y8165975D01*
X60734521Y8275950D01*
X60938335Y8479408D01*
X61048774Y8745376D01*
X61049025Y9033361D01*
X60939050Y9299521D01*
X60857076Y9381639D01*
X71030975Y9381639D01*
X71140950Y9115479D01*
X71344408Y8911665D01*
X71610376Y8801226D01*
X71898361Y8800975D01*
X72164521Y8910950D01*
X72368335Y9114408D01*
X72478774Y9380376D01*
X72479025Y9668361D01*
X72369050Y9934521D01*
X72165592Y10138335D01*
X71899624Y10248774D01*
X71611639Y10249025D01*
X71345479Y10139050D01*
X71141665Y9935592D01*
X71031226Y9669624D01*
X71030975Y9381639D01*
X60857076Y9381639D01*
X60735592Y9503335D01*
X60469624Y9613774D01*
X60181639Y9614025D01*
X59915479Y9504050D01*
X59711665Y9300592D01*
X59601226Y9034624D01*
X59600975Y8746639D01*
X58335098Y8746639D01*
X58350690Y8784188D01*
X58351309Y9492714D01*
X58080739Y10147543D01*
X57580173Y10648983D01*
X56925817Y10920695D01*
X56217291Y10921314D01*
X55562462Y10650744D01*
X55061022Y10150178D01*
X54789310Y9495822D01*
X54788691Y8787296D01*
X45210692Y8787296D01*
X45211309Y9492714D01*
X44940739Y10147543D01*
X44440173Y10648983D01*
X43785817Y10920695D01*
X43077291Y10921314D01*
X42422462Y10650744D01*
X41921022Y10150178D01*
X41848388Y9975255D01*
X41685592Y10138335D01*
X41419624Y10248774D01*
X41131639Y10249025D01*
X40865479Y10139050D01*
X40661665Y9935592D01*
X40551226Y9669624D01*
X40550975Y9381639D01*
X38823775Y9381639D01*
X38824025Y9668361D01*
X38714050Y9934521D01*
X38510592Y10138335D01*
X38244624Y10248774D01*
X37956639Y10249025D01*
X37690479Y10139050D01*
X37486665Y9935592D01*
X37376226Y9669624D01*
X37375975Y9381639D01*
X36283775Y9381639D01*
X36284025Y9668361D01*
X36174050Y9934521D01*
X35970592Y10138335D01*
X35704624Y10248774D01*
X35416639Y10249025D01*
X35150479Y10139050D01*
X34946665Y9935592D01*
X34836226Y9669624D01*
X34835975Y9381639D01*
X23127000Y9381639D01*
X23127000Y11633944D01*
X47908811Y11633944D01*
X48074556Y11232810D01*
X48381191Y10925639D01*
X48782035Y10759195D01*
X49216061Y10758816D01*
X49617195Y10924561D01*
X49924366Y11231196D01*
X49999980Y11413297D01*
X50074556Y11232810D01*
X50381191Y10925639D01*
X50782035Y10759195D01*
X51216061Y10758816D01*
X51617195Y10924561D01*
X51924366Y11231196D01*
X52090810Y11632040D01*
X52090811Y11633944D01*
X52408811Y11633944D01*
X52574556Y11232810D01*
X52881191Y10925639D01*
X53282035Y10759195D01*
X53716061Y10758816D01*
X54117195Y10924561D01*
X54424366Y11231196D01*
X54447387Y11286639D01*
X61505975Y11286639D01*
X61615950Y11020479D01*
X61819408Y10816665D01*
X62085376Y10706226D01*
X62373361Y10705975D01*
X62639521Y10815950D01*
X62843335Y11019408D01*
X62953774Y11285376D01*
X62954025Y11573361D01*
X62844050Y11839521D01*
X62762076Y11921639D01*
X65315975Y11921639D01*
X65425950Y11655479D01*
X65629408Y11451665D01*
X65895376Y11341226D01*
X66183361Y11340975D01*
X66449521Y11450950D01*
X66653335Y11654408D01*
X66763774Y11920376D01*
X66764025Y12208361D01*
X66654050Y12474521D01*
X66450592Y12678335D01*
X66184624Y12788774D01*
X65896639Y12789025D01*
X65630479Y12679050D01*
X65426665Y12475592D01*
X65316226Y12209624D01*
X65315975Y11921639D01*
X62762076Y11921639D01*
X62640592Y12043335D01*
X62374624Y12153774D01*
X62086639Y12154025D01*
X61820479Y12044050D01*
X61616665Y11840592D01*
X61506226Y11574624D01*
X61505975Y11286639D01*
X54447387Y11286639D01*
X54590810Y11632040D01*
X54591189Y12066066D01*
X54425444Y12467200D01*
X54118809Y12774371D01*
X53717965Y12940815D01*
X53283939Y12941194D01*
X52882805Y12775449D01*
X52575634Y12468814D01*
X52409190Y12067970D01*
X52408811Y11633944D01*
X52090811Y11633944D01*
X52091189Y12066066D01*
X51925444Y12467200D01*
X51618809Y12774371D01*
X51217965Y12940815D01*
X50783939Y12941194D01*
X50382805Y12775449D01*
X50075634Y12468814D01*
X50000020Y12286713D01*
X49925444Y12467200D01*
X49618809Y12774371D01*
X49217965Y12940815D01*
X48783939Y12941194D01*
X48382805Y12775449D01*
X48075634Y12468814D01*
X47909190Y12067970D01*
X47908811Y11633944D01*
X23127000Y11633944D01*
X23127000Y15621000D01*
X24782936Y15621000D01*
X24782936Y13589000D01*
X24809503Y13447810D01*
X24892946Y13318135D01*
X25020266Y13231141D01*
X25171400Y13200536D01*
X26898600Y13200536D01*
X27039790Y13227103D01*
X27169465Y13310546D01*
X27256459Y13437866D01*
X27287064Y13589000D01*
X27287064Y14784769D01*
X29870400Y14784769D01*
X29870400Y14425231D01*
X29965140Y13948943D01*
X30234935Y13545166D01*
X30638712Y13275371D01*
X31115000Y13180631D01*
X31591288Y13275371D01*
X31995065Y13545166D01*
X32264860Y13948943D01*
X32359600Y14425231D01*
X32359600Y14784769D01*
X32410400Y14784769D01*
X32410400Y14425231D01*
X32505140Y13948943D01*
X32774935Y13545166D01*
X33178712Y13275371D01*
X33655000Y13180631D01*
X34131288Y13275371D01*
X34535065Y13545166D01*
X34804860Y13948943D01*
X34899600Y14425231D01*
X34899600Y14784769D01*
X34950400Y14784769D01*
X34950400Y14425231D01*
X35045140Y13948943D01*
X35314935Y13545166D01*
X35718712Y13275371D01*
X36195000Y13180631D01*
X36671288Y13275371D01*
X37075065Y13545166D01*
X37344860Y13948943D01*
X37439600Y14425231D01*
X37439600Y14784769D01*
X37490400Y14784769D01*
X37490400Y14425231D01*
X37585140Y13948943D01*
X37854935Y13545166D01*
X38258712Y13275371D01*
X38735000Y13180631D01*
X39211288Y13275371D01*
X39615065Y13545166D01*
X39884860Y13948943D01*
X39979600Y14425231D01*
X39979600Y14467296D01*
X41648691Y14467296D01*
X41919261Y13812467D01*
X42419827Y13311027D01*
X43074183Y13039315D01*
X43782709Y13038696D01*
X44437538Y13309266D01*
X44938978Y13809832D01*
X45123389Y14253944D01*
X47908811Y14253944D01*
X48074556Y13852810D01*
X48381191Y13545639D01*
X48782035Y13379195D01*
X49216061Y13378816D01*
X49617195Y13544561D01*
X49924366Y13851196D01*
X49999980Y14033297D01*
X50074556Y13852810D01*
X50381191Y13545639D01*
X50782035Y13379195D01*
X51216061Y13378816D01*
X51617195Y13544561D01*
X51924366Y13851196D01*
X52090810Y14252040D01*
X52090811Y14253944D01*
X52408811Y14253944D01*
X52574556Y13852810D01*
X52881191Y13545639D01*
X53282035Y13379195D01*
X53716061Y13378816D01*
X54117195Y13544561D01*
X54424366Y13851196D01*
X54590810Y14252040D01*
X54590997Y14467296D01*
X54788691Y14467296D01*
X55059261Y13812467D01*
X55559827Y13311027D01*
X56214183Y13039315D01*
X56922709Y13038696D01*
X57577538Y13309266D01*
X58078978Y13809832D01*
X58349631Y14461639D01*
X59600975Y14461639D01*
X59710950Y14195479D01*
X59914408Y13991665D01*
X60180376Y13881226D01*
X60468361Y13880975D01*
X60734521Y13990950D01*
X60938335Y14194408D01*
X61048774Y14460376D01*
X61048775Y14461639D01*
X63410975Y14461639D01*
X63520950Y14195479D01*
X63724408Y13991665D01*
X63990376Y13881226D01*
X64278361Y13880975D01*
X64544521Y13990950D01*
X64748335Y14194408D01*
X64858774Y14460376D01*
X64859025Y14748361D01*
X64749050Y15014521D01*
X64545592Y15218335D01*
X64279624Y15328774D01*
X63991639Y15329025D01*
X63725479Y15219050D01*
X63521665Y15015592D01*
X63411226Y14749624D01*
X63410975Y14461639D01*
X61048775Y14461639D01*
X61049025Y14748361D01*
X60939050Y15014521D01*
X60735592Y15218335D01*
X60469624Y15328774D01*
X60181639Y15329025D01*
X59915479Y15219050D01*
X59711665Y15015592D01*
X59601226Y14749624D01*
X59600975Y14461639D01*
X58349631Y14461639D01*
X58350690Y14464188D01*
X58351309Y15172714D01*
X58080739Y15827543D01*
X57580173Y16328983D01*
X56925817Y16600695D01*
X56217291Y16601314D01*
X55562462Y16330744D01*
X55061022Y15830178D01*
X54789310Y15175822D01*
X54788691Y14467296D01*
X54590997Y14467296D01*
X54591189Y14686066D01*
X54425444Y15087200D01*
X54118809Y15394371D01*
X53717965Y15560815D01*
X53283939Y15561194D01*
X52882805Y15395449D01*
X52575634Y15088814D01*
X52409190Y14687970D01*
X52408811Y14253944D01*
X52090811Y14253944D01*
X52091189Y14686066D01*
X51925444Y15087200D01*
X51618809Y15394371D01*
X51217965Y15560815D01*
X50783939Y15561194D01*
X50382805Y15395449D01*
X50075634Y15088814D01*
X50000020Y14906713D01*
X49925444Y15087200D01*
X49618809Y15394371D01*
X49217965Y15560815D01*
X48783939Y15561194D01*
X48382805Y15395449D01*
X48075634Y15088814D01*
X47909190Y14687970D01*
X47908811Y14253944D01*
X45123389Y14253944D01*
X45210690Y14464188D01*
X45211309Y15172714D01*
X44940739Y15827543D01*
X44440173Y16328983D01*
X43785817Y16600695D01*
X43077291Y16601314D01*
X42422462Y16330744D01*
X41921022Y15830178D01*
X41649310Y15175822D01*
X41648691Y14467296D01*
X39979600Y14467296D01*
X39979600Y14784769D01*
X39884860Y15261057D01*
X39615065Y15664834D01*
X39211288Y15934629D01*
X38735000Y16029369D01*
X38258712Y15934629D01*
X37854935Y15664834D01*
X37585140Y15261057D01*
X37490400Y14784769D01*
X37439600Y14784769D01*
X37344860Y15261057D01*
X37075065Y15664834D01*
X36671288Y15934629D01*
X36195000Y16029369D01*
X35718712Y15934629D01*
X35314935Y15664834D01*
X35045140Y15261057D01*
X34950400Y14784769D01*
X34899600Y14784769D01*
X34804860Y15261057D01*
X34535065Y15664834D01*
X34131288Y15934629D01*
X33655000Y16029369D01*
X33178712Y15934629D01*
X32774935Y15664834D01*
X32505140Y15261057D01*
X32410400Y14784769D01*
X32359600Y14784769D01*
X32264860Y15261057D01*
X31995065Y15664834D01*
X31591288Y15934629D01*
X31115000Y16029369D01*
X30638712Y15934629D01*
X30234935Y15664834D01*
X29965140Y15261057D01*
X29870400Y14784769D01*
X27287064Y14784769D01*
X27287064Y15621000D01*
X27260497Y15762190D01*
X27177054Y15891865D01*
X27049734Y15978859D01*
X26898600Y16009464D01*
X25171400Y16009464D01*
X25030210Y15982897D01*
X24900535Y15899454D01*
X24813541Y15772134D01*
X24782936Y15621000D01*
X23127000Y15621000D01*
X23127000Y17001639D01*
X43725975Y17001639D01*
X43835950Y16735479D01*
X44039408Y16531665D01*
X44305376Y16421226D01*
X44593361Y16420975D01*
X44859521Y16530950D01*
X45063335Y16734408D01*
X45173774Y17000376D01*
X45174025Y17288361D01*
X45064050Y17554521D01*
X44860592Y17758335D01*
X44594624Y17868774D01*
X44306639Y17869025D01*
X44040479Y17759050D01*
X43836665Y17555592D01*
X43726226Y17289624D01*
X43725975Y17001639D01*
X23127000Y17001639D01*
X23127000Y18271639D01*
X35470975Y18271639D01*
X35580950Y18005479D01*
X35784408Y17801665D01*
X36050376Y17691226D01*
X36338361Y17690975D01*
X36604521Y17800950D01*
X36808335Y18004408D01*
X36918774Y18270376D01*
X36918775Y18271639D01*
X58330975Y18271639D01*
X58440950Y18005479D01*
X58644408Y17801665D01*
X58910376Y17691226D01*
X59198361Y17690975D01*
X59464521Y17800950D01*
X59668335Y18004408D01*
X59778774Y18270376D01*
X59779025Y18558361D01*
X59669050Y18824521D01*
X59587076Y18906639D01*
X63410975Y18906639D01*
X63520950Y18640479D01*
X63724408Y18436665D01*
X63990376Y18326226D01*
X64278361Y18325975D01*
X64544521Y18435950D01*
X64748335Y18639408D01*
X64858774Y18905376D01*
X64859025Y19193361D01*
X64749050Y19459521D01*
X64545592Y19663335D01*
X64279624Y19773774D01*
X63991639Y19774025D01*
X63725479Y19664050D01*
X63521665Y19460592D01*
X63411226Y19194624D01*
X63410975Y18906639D01*
X59587076Y18906639D01*
X59465592Y19028335D01*
X59199624Y19138774D01*
X58911639Y19139025D01*
X58645479Y19029050D01*
X58441665Y18825592D01*
X58331226Y18559624D01*
X58330975Y18271639D01*
X36918775Y18271639D01*
X36919025Y18558361D01*
X36809050Y18824521D01*
X36727076Y18906639D01*
X41820975Y18906639D01*
X41930950Y18640479D01*
X42134408Y18436665D01*
X42400376Y18326226D01*
X42688361Y18325975D01*
X42954521Y18435950D01*
X43158335Y18639408D01*
X43268774Y18905376D01*
X43269025Y19193361D01*
X43159050Y19459521D01*
X43077076Y19541639D01*
X46900975Y19541639D01*
X47010950Y19275479D01*
X47214408Y19071665D01*
X47480376Y18961226D01*
X47768361Y18960975D01*
X48034521Y19070950D01*
X48238335Y19274408D01*
X48348774Y19540376D01*
X48349025Y19828361D01*
X48239050Y20094521D01*
X48035592Y20298335D01*
X47769624Y20408774D01*
X47481639Y20409025D01*
X47215479Y20299050D01*
X47011665Y20095592D01*
X46901226Y19829624D01*
X46900975Y19541639D01*
X43077076Y19541639D01*
X42955592Y19663335D01*
X42689624Y19773774D01*
X42401639Y19774025D01*
X42135479Y19664050D01*
X41931665Y19460592D01*
X41821226Y19194624D01*
X41820975Y18906639D01*
X36727076Y18906639D01*
X36605592Y19028335D01*
X36339624Y19138774D01*
X36051639Y19139025D01*
X35785479Y19029050D01*
X35581665Y18825592D01*
X35471226Y18559624D01*
X35470975Y18271639D01*
X23127000Y18271639D01*
X23127000Y18906639D01*
X29755975Y18906639D01*
X29865950Y18640479D01*
X30069408Y18436665D01*
X30335376Y18326226D01*
X30623361Y18325975D01*
X30889521Y18435950D01*
X31093335Y18639408D01*
X31203774Y18905376D01*
X31204025Y19193361D01*
X31094050Y19459521D01*
X31012076Y19541639D01*
X34200975Y19541639D01*
X34310950Y19275479D01*
X34514408Y19071665D01*
X34780376Y18961226D01*
X35068361Y18960975D01*
X35334521Y19070950D01*
X35538335Y19274408D01*
X35648774Y19540376D01*
X35649025Y19828361D01*
X35539050Y20094521D01*
X35335592Y20298335D01*
X35069624Y20408774D01*
X34781639Y20409025D01*
X34515479Y20299050D01*
X34311665Y20095592D01*
X34201226Y19829624D01*
X34200975Y19541639D01*
X31012076Y19541639D01*
X30890592Y19663335D01*
X30624624Y19773774D01*
X30336639Y19774025D01*
X30070479Y19664050D01*
X29866665Y19460592D01*
X29756226Y19194624D01*
X29755975Y18906639D01*
X23127000Y18906639D01*
X23127000Y20176639D01*
X23405975Y20176639D01*
X23515950Y19910479D01*
X23719408Y19706665D01*
X23985376Y19596226D01*
X24273361Y19595975D01*
X24539521Y19705950D01*
X24743335Y19909408D01*
X24853774Y20175376D01*
X24854025Y20463361D01*
X24744050Y20729521D01*
X24662076Y20811639D01*
X55790975Y20811639D01*
X55900950Y20545479D01*
X56104408Y20341665D01*
X56370376Y20231226D01*
X56658361Y20230975D01*
X56924521Y20340950D01*
X57128335Y20544408D01*
X57238774Y20810376D01*
X57239025Y21098361D01*
X57169347Y21266997D01*
X73933718Y21266997D01*
X74181499Y20667320D01*
X74639907Y20208112D01*
X75239151Y19959284D01*
X75888003Y19958718D01*
X76487680Y20206499D01*
X76946888Y20664907D01*
X77195716Y21264151D01*
X77196282Y21913003D01*
X76948501Y22512680D01*
X76490093Y22971888D01*
X75890849Y23220716D01*
X75241997Y23221282D01*
X74642320Y22973501D01*
X74183112Y22515093D01*
X73934284Y21915849D01*
X73933718Y21266997D01*
X57169347Y21266997D01*
X57129050Y21364521D01*
X56925592Y21568335D01*
X56659624Y21678774D01*
X56371639Y21679025D01*
X56105479Y21569050D01*
X55901665Y21365592D01*
X55791226Y21099624D01*
X55790975Y20811639D01*
X24662076Y20811639D01*
X24540592Y20933335D01*
X24274624Y21043774D01*
X23986639Y21044025D01*
X23720479Y20934050D01*
X23516665Y20730592D01*
X23406226Y20464624D01*
X23405975Y20176639D01*
X23127000Y20176639D01*
X23127000Y22716639D01*
X35470975Y22716639D01*
X35580950Y22450479D01*
X35784408Y22246665D01*
X36050376Y22136226D01*
X36338361Y22135975D01*
X36604521Y22245950D01*
X36808335Y22449408D01*
X36918774Y22715376D01*
X36918775Y22716639D01*
X39915975Y22716639D01*
X40025950Y22450479D01*
X40229408Y22246665D01*
X40495376Y22136226D01*
X40783361Y22135975D01*
X41049521Y22245950D01*
X41253335Y22449408D01*
X41363774Y22715376D01*
X41364025Y23003361D01*
X41254050Y23269521D01*
X41172076Y23351639D01*
X47535975Y23351639D01*
X47645950Y23085479D01*
X47849408Y22881665D01*
X48115376Y22771226D01*
X48403361Y22770975D01*
X48669521Y22880950D01*
X48873335Y23084408D01*
X48983774Y23350376D01*
X48983775Y23351639D01*
X50075975Y23351639D01*
X50185950Y23085479D01*
X50389408Y22881665D01*
X50441383Y22860083D01*
X50390479Y22839050D01*
X50186665Y22635592D01*
X50076226Y22369624D01*
X50075975Y22081639D01*
X50185950Y21815479D01*
X50389408Y21611665D01*
X50655376Y21501226D01*
X50943361Y21500975D01*
X51209521Y21610950D01*
X51413335Y21814408D01*
X51523774Y22080376D01*
X51524025Y22368361D01*
X51414050Y22634521D01*
X51210592Y22838335D01*
X51158617Y22859917D01*
X51209521Y22880950D01*
X51413335Y23084408D01*
X51523774Y23350376D01*
X51523775Y23351639D01*
X55790975Y23351639D01*
X55900950Y23085479D01*
X56104408Y22881665D01*
X56370376Y22771226D01*
X56658361Y22770975D01*
X56924521Y22880950D01*
X57128335Y23084408D01*
X57238774Y23350376D01*
X57239025Y23638361D01*
X57129050Y23904521D01*
X56925592Y24108335D01*
X56659624Y24218774D01*
X56371639Y24219025D01*
X56105479Y24109050D01*
X55901665Y23905592D01*
X55791226Y23639624D01*
X55790975Y23351639D01*
X51523775Y23351639D01*
X51524025Y23638361D01*
X51414050Y23904521D01*
X51332076Y23986639D01*
X51980975Y23986639D01*
X52090950Y23720479D01*
X52294408Y23516665D01*
X52560376Y23406226D01*
X52848361Y23405975D01*
X53114521Y23515950D01*
X53318335Y23719408D01*
X53428774Y23985376D01*
X53429025Y24273361D01*
X53319050Y24539521D01*
X53115592Y24743335D01*
X52849624Y24853774D01*
X52561639Y24854025D01*
X52295479Y24744050D01*
X52091665Y24540592D01*
X51981226Y24274624D01*
X51980975Y23986639D01*
X51332076Y23986639D01*
X51210592Y24108335D01*
X50944624Y24218774D01*
X50656639Y24219025D01*
X50390479Y24109050D01*
X50186665Y23905592D01*
X50076226Y23639624D01*
X50075975Y23351639D01*
X48983775Y23351639D01*
X48984025Y23638361D01*
X48874050Y23904521D01*
X48670592Y24108335D01*
X48404624Y24218774D01*
X48116639Y24219025D01*
X47850479Y24109050D01*
X47646665Y23905592D01*
X47536226Y23639624D01*
X47535975Y23351639D01*
X41172076Y23351639D01*
X41050592Y23473335D01*
X40784624Y23583774D01*
X40496639Y23584025D01*
X40230479Y23474050D01*
X40026665Y23270592D01*
X39916226Y23004624D01*
X39915975Y22716639D01*
X36918775Y22716639D01*
X36919025Y23003361D01*
X36809050Y23269521D01*
X36605592Y23473335D01*
X36339624Y23583774D01*
X36051639Y23584025D01*
X35785479Y23474050D01*
X35581665Y23270592D01*
X35471226Y23004624D01*
X35470975Y22716639D01*
X23127000Y22716639D01*
X23127000Y23986639D01*
X30390975Y23986639D01*
X30500950Y23720479D01*
X30704408Y23516665D01*
X30970376Y23406226D01*
X31258361Y23405975D01*
X31524521Y23515950D01*
X31728335Y23719408D01*
X31838774Y23985376D01*
X31838775Y23986639D01*
X42455975Y23986639D01*
X42565950Y23720479D01*
X42769408Y23516665D01*
X43035376Y23406226D01*
X43323361Y23405975D01*
X43589521Y23515950D01*
X43793335Y23719408D01*
X43903774Y23985376D01*
X43904025Y24273361D01*
X43794050Y24539521D01*
X43590592Y24743335D01*
X43324624Y24853774D01*
X43036639Y24854025D01*
X42770479Y24744050D01*
X42566665Y24540592D01*
X42456226Y24274624D01*
X42455975Y23986639D01*
X31838775Y23986639D01*
X31839025Y24273361D01*
X31729050Y24539521D01*
X31525592Y24743335D01*
X31259624Y24853774D01*
X30971639Y24854025D01*
X30705479Y24744050D01*
X30501665Y24540592D01*
X30391226Y24274624D01*
X30390975Y23986639D01*
X23127000Y23986639D01*
X23127000Y25256639D01*
X53250975Y25256639D01*
X53360950Y24990479D01*
X53564408Y24786665D01*
X53830376Y24676226D01*
X54118361Y24675975D01*
X54384521Y24785950D01*
X54588335Y24989408D01*
X54624704Y25076997D01*
X69323718Y25076997D01*
X69571499Y24477320D01*
X70029907Y24018112D01*
X70629151Y23769284D01*
X71278003Y23768718D01*
X71877680Y24016499D01*
X72336888Y24474907D01*
X72585716Y25074151D01*
X72586282Y25723003D01*
X72338501Y26322680D01*
X71880093Y26781888D01*
X71280849Y27030716D01*
X70631997Y27031282D01*
X70032320Y26783501D01*
X69573112Y26325093D01*
X69324284Y25725849D01*
X69323718Y25076997D01*
X54624704Y25076997D01*
X54698774Y25255376D01*
X54699025Y25543361D01*
X54589050Y25809521D01*
X54385592Y26013335D01*
X54119624Y26123774D01*
X53831639Y26124025D01*
X53565479Y26014050D01*
X53361665Y25810592D01*
X53251226Y25544624D01*
X53250975Y25256639D01*
X23127000Y25256639D01*
X23127000Y27796639D01*
X38010975Y27796639D01*
X38120950Y27530479D01*
X38324408Y27326665D01*
X38590376Y27216226D01*
X38878361Y27215975D01*
X39144521Y27325950D01*
X39348335Y27529408D01*
X39458774Y27795376D01*
X39458775Y27796639D01*
X44360975Y27796639D01*
X44470950Y27530479D01*
X44674408Y27326665D01*
X44940376Y27216226D01*
X45228361Y27215975D01*
X45252118Y27225791D01*
X45106665Y27080592D01*
X44996226Y26814624D01*
X44995975Y26526639D01*
X45105950Y26260479D01*
X45309408Y26056665D01*
X45575376Y25946226D01*
X45863361Y25945975D01*
X46129521Y26055950D01*
X46333335Y26259408D01*
X46443774Y26525376D01*
X46444025Y26813361D01*
X46334050Y27079521D01*
X46252076Y27161639D01*
X47535975Y27161639D01*
X47645950Y26895479D01*
X47849408Y26691665D01*
X48115376Y26581226D01*
X48403361Y26580975D01*
X48669521Y26690950D01*
X48873335Y26894408D01*
X48983774Y27160376D01*
X48983775Y27161639D01*
X55155975Y27161639D01*
X55265950Y26895479D01*
X55469408Y26691665D01*
X55735376Y26581226D01*
X56023361Y26580975D01*
X56289521Y26690950D01*
X56493335Y26894408D01*
X56603774Y27160376D01*
X56603775Y27161639D01*
X57060975Y27161639D01*
X57170950Y26895479D01*
X57374408Y26691665D01*
X57640376Y26581226D01*
X57928361Y26580975D01*
X58194521Y26690950D01*
X58398335Y26894408D01*
X58419917Y26946383D01*
X58440950Y26895479D01*
X58644408Y26691665D01*
X58910376Y26581226D01*
X59198361Y26580975D01*
X59464521Y26690950D01*
X59668335Y26894408D01*
X59778774Y27160376D01*
X59779025Y27448361D01*
X59669050Y27714521D01*
X59465592Y27918335D01*
X59199624Y28028774D01*
X58911639Y28029025D01*
X58645479Y27919050D01*
X58441665Y27715592D01*
X58420083Y27663617D01*
X58399050Y27714521D01*
X58195592Y27918335D01*
X57929624Y28028774D01*
X57641639Y28029025D01*
X57375479Y27919050D01*
X57171665Y27715592D01*
X57061226Y27449624D01*
X57060975Y27161639D01*
X56603775Y27161639D01*
X56604025Y27448361D01*
X56494050Y27714521D01*
X56290592Y27918335D01*
X56024624Y28028774D01*
X55736639Y28029025D01*
X55470479Y27919050D01*
X55266665Y27715592D01*
X55156226Y27449624D01*
X55155975Y27161639D01*
X48983775Y27161639D01*
X48984025Y27448361D01*
X48874050Y27714521D01*
X48792076Y27796639D01*
X49440975Y27796639D01*
X49550950Y27530479D01*
X49754408Y27326665D01*
X50020376Y27216226D01*
X50308361Y27215975D01*
X50574521Y27325950D01*
X50778335Y27529408D01*
X50888774Y27795376D01*
X50889025Y28083361D01*
X50779050Y28349521D01*
X50575592Y28553335D01*
X50309624Y28663774D01*
X50021639Y28664025D01*
X49755479Y28554050D01*
X49551665Y28350592D01*
X49441226Y28084624D01*
X49440975Y27796639D01*
X48792076Y27796639D01*
X48670592Y27918335D01*
X48404624Y28028774D01*
X48116639Y28029025D01*
X47850479Y27919050D01*
X47646665Y27715592D01*
X47536226Y27449624D01*
X47535975Y27161639D01*
X46252076Y27161639D01*
X46130592Y27283335D01*
X45864624Y27393774D01*
X45576639Y27394025D01*
X45552882Y27384209D01*
X45698335Y27529408D01*
X45808774Y27795376D01*
X45809025Y28083361D01*
X45699050Y28349521D01*
X45495592Y28553335D01*
X45229624Y28663774D01*
X44941639Y28664025D01*
X44675479Y28554050D01*
X44471665Y28350592D01*
X44361226Y28084624D01*
X44360975Y27796639D01*
X39458775Y27796639D01*
X39459025Y28083361D01*
X39349050Y28349521D01*
X39145592Y28553335D01*
X38879624Y28663774D01*
X38591639Y28664025D01*
X38325479Y28554050D01*
X38121665Y28350592D01*
X38011226Y28084624D01*
X38010975Y27796639D01*
X23127000Y27796639D01*
X23127000Y29066639D01*
X48170975Y29066639D01*
X48280950Y28800479D01*
X48484408Y28596665D01*
X48750376Y28486226D01*
X49038361Y28485975D01*
X49304521Y28595950D01*
X49508335Y28799408D01*
X49618774Y29065376D01*
X49618775Y29066639D01*
X53250975Y29066639D01*
X53360950Y28800479D01*
X53564408Y28596665D01*
X53830376Y28486226D01*
X54118361Y28485975D01*
X54384521Y28595950D01*
X54588335Y28799408D01*
X54698774Y29065376D01*
X54699025Y29353361D01*
X54589050Y29619521D01*
X54385592Y29823335D01*
X54119624Y29933774D01*
X53831639Y29934025D01*
X53565479Y29824050D01*
X53361665Y29620592D01*
X53251226Y29354624D01*
X53250975Y29066639D01*
X49618775Y29066639D01*
X49619025Y29353361D01*
X49509050Y29619521D01*
X49305592Y29823335D01*
X49039624Y29933774D01*
X48751639Y29934025D01*
X48485479Y29824050D01*
X48281665Y29620592D01*
X48171226Y29354624D01*
X48170975Y29066639D01*
X23127000Y29066639D01*
X23127000Y29701639D01*
X41820975Y29701639D01*
X41930950Y29435479D01*
X42134408Y29231665D01*
X42400376Y29121226D01*
X42688361Y29120975D01*
X42954521Y29230950D01*
X43158335Y29434408D01*
X43268774Y29700376D01*
X43268775Y29701639D01*
X46265975Y29701639D01*
X46375950Y29435479D01*
X46579408Y29231665D01*
X46845376Y29121226D01*
X47133361Y29120975D01*
X47399521Y29230950D01*
X47603335Y29434408D01*
X47713774Y29700376D01*
X47714025Y29988361D01*
X47604050Y30254521D01*
X47458527Y30400298D01*
X47480376Y30391226D01*
X47768361Y30390975D01*
X48034521Y30500950D01*
X48238335Y30704408D01*
X48348774Y30970376D01*
X48348775Y30971639D01*
X50075975Y30971639D01*
X50185950Y30705479D01*
X50389408Y30501665D01*
X50441383Y30480083D01*
X50390479Y30459050D01*
X50186665Y30255592D01*
X50076226Y29989624D01*
X50075975Y29701639D01*
X50185950Y29435479D01*
X50389408Y29231665D01*
X50655376Y29121226D01*
X50943361Y29120975D01*
X51209521Y29230950D01*
X51413335Y29434408D01*
X51523774Y29700376D01*
X51524025Y29988361D01*
X51414050Y30254521D01*
X51210592Y30458335D01*
X51158617Y30479917D01*
X51209521Y30500950D01*
X51413335Y30704408D01*
X51434917Y30756383D01*
X51455950Y30705479D01*
X51659408Y30501665D01*
X51925376Y30391226D01*
X52213361Y30390975D01*
X52479521Y30500950D01*
X52683335Y30704408D01*
X52793774Y30970376D01*
X52794025Y31258361D01*
X52684050Y31524521D01*
X52480592Y31728335D01*
X52214624Y31838774D01*
X52158977Y31838823D01*
X52159025Y31893361D01*
X52049050Y32159521D01*
X51967076Y32241639D01*
X54520975Y32241639D01*
X54630950Y31975479D01*
X54834408Y31771665D01*
X55100376Y31661226D01*
X55156023Y31661177D01*
X55155975Y31606639D01*
X55265950Y31340479D01*
X55469408Y31136665D01*
X55735376Y31026226D01*
X56023361Y31025975D01*
X56289521Y31135950D01*
X56493335Y31339408D01*
X56603774Y31605376D01*
X56603775Y31606639D01*
X57060975Y31606639D01*
X57170950Y31340479D01*
X57374408Y31136665D01*
X57426383Y31115083D01*
X57375479Y31094050D01*
X57171665Y30890592D01*
X57061226Y30624624D01*
X57060975Y30336639D01*
X57170950Y30070479D01*
X57374408Y29866665D01*
X57640376Y29756226D01*
X57928361Y29755975D01*
X58194521Y29865950D01*
X58398335Y30069408D01*
X58419917Y30121383D01*
X58440950Y30070479D01*
X58644408Y29866665D01*
X58910376Y29756226D01*
X59198361Y29755975D01*
X59464521Y29865950D01*
X59668335Y30069408D01*
X59778774Y30335376D01*
X59779025Y30623361D01*
X59669050Y30889521D01*
X59465592Y31093335D01*
X59199624Y31203774D01*
X58911639Y31204025D01*
X58645479Y31094050D01*
X58441665Y30890592D01*
X58420083Y30838617D01*
X58399050Y30889521D01*
X58195592Y31093335D01*
X58143617Y31114917D01*
X58194521Y31135950D01*
X58398335Y31339408D01*
X58508774Y31605376D01*
X58509025Y31893361D01*
X58399050Y32159521D01*
X58195592Y32363335D01*
X57929624Y32473774D01*
X57641639Y32474025D01*
X57375479Y32364050D01*
X57171665Y32160592D01*
X57061226Y31894624D01*
X57060975Y31606639D01*
X56603775Y31606639D01*
X56604025Y31893361D01*
X56494050Y32159521D01*
X56290592Y32363335D01*
X56024624Y32473774D01*
X55968977Y32473823D01*
X55969025Y32528361D01*
X55859050Y32794521D01*
X55655592Y32998335D01*
X55389624Y33108774D01*
X55101639Y33109025D01*
X54835479Y32999050D01*
X54631665Y32795592D01*
X54521226Y32529624D01*
X54520975Y32241639D01*
X51967076Y32241639D01*
X51845592Y32363335D01*
X51579624Y32473774D01*
X51291639Y32474025D01*
X51025479Y32364050D01*
X50821665Y32160592D01*
X50711226Y31894624D01*
X50711177Y31838977D01*
X50656639Y31839025D01*
X50390479Y31729050D01*
X50186665Y31525592D01*
X50076226Y31259624D01*
X50075975Y30971639D01*
X48348775Y30971639D01*
X48349025Y31258361D01*
X48239050Y31524521D01*
X48035592Y31728335D01*
X47769624Y31838774D01*
X47481639Y31839025D01*
X47215479Y31729050D01*
X47011665Y31525592D01*
X46901226Y31259624D01*
X46900975Y30971639D01*
X47010950Y30705479D01*
X47156473Y30559702D01*
X47134624Y30568774D01*
X46846639Y30569025D01*
X46580479Y30459050D01*
X46376665Y30255592D01*
X46266226Y29989624D01*
X46265975Y29701639D01*
X43268775Y29701639D01*
X43269025Y29988361D01*
X43159050Y30254521D01*
X42955592Y30458335D01*
X42689624Y30568774D01*
X42401639Y30569025D01*
X42135479Y30459050D01*
X41931665Y30255592D01*
X41821226Y29989624D01*
X41820975Y29701639D01*
X23127000Y29701639D01*
X23127000Y32061997D01*
X27743718Y32061997D01*
X27991499Y31462320D01*
X28449907Y31003112D01*
X29049151Y30754284D01*
X29698003Y30753718D01*
X30297680Y31001499D01*
X30756888Y31459907D01*
X30817816Y31606639D01*
X39280975Y31606639D01*
X39390950Y31340479D01*
X39594408Y31136665D01*
X39860376Y31026226D01*
X40148361Y31025975D01*
X40414521Y31135950D01*
X40618335Y31339408D01*
X40728774Y31605376D01*
X40728775Y31606639D01*
X42455975Y31606639D01*
X42565950Y31340479D01*
X42769408Y31136665D01*
X43035376Y31026226D01*
X43323361Y31025975D01*
X43589521Y31135950D01*
X43793335Y31339408D01*
X43814917Y31391383D01*
X43835950Y31340479D01*
X44039408Y31136665D01*
X44305376Y31026226D01*
X44593361Y31025975D01*
X44859521Y31135950D01*
X45063335Y31339408D01*
X45173774Y31605376D01*
X45174025Y31893361D01*
X45064050Y32159521D01*
X44860592Y32363335D01*
X44594624Y32473774D01*
X44306639Y32474025D01*
X44040479Y32364050D01*
X43836665Y32160592D01*
X43815083Y32108617D01*
X43794050Y32159521D01*
X43590592Y32363335D01*
X43324624Y32473774D01*
X43036639Y32474025D01*
X42770479Y32364050D01*
X42566665Y32160592D01*
X42456226Y31894624D01*
X42455975Y31606639D01*
X40728775Y31606639D01*
X40729025Y31893361D01*
X40619050Y32159521D01*
X40415592Y32363335D01*
X40149624Y32473774D01*
X39861639Y32474025D01*
X39595479Y32364050D01*
X39391665Y32160592D01*
X39281226Y31894624D01*
X39280975Y31606639D01*
X30817816Y31606639D01*
X31005716Y32059151D01*
X31006282Y32708003D01*
X30758501Y33307680D01*
X30554898Y33511639D01*
X68490975Y33511639D01*
X68600950Y33245479D01*
X68804408Y33041665D01*
X69070376Y32931226D01*
X69358361Y32930975D01*
X69624521Y33040950D01*
X69828335Y33244408D01*
X69938774Y33510376D01*
X69939025Y33798361D01*
X69829050Y34064521D01*
X69625592Y34268335D01*
X69359624Y34378774D01*
X69071639Y34379025D01*
X68805479Y34269050D01*
X68601665Y34065592D01*
X68491226Y33799624D01*
X68490975Y33511639D01*
X30554898Y33511639D01*
X30300093Y33766888D01*
X29700849Y34015716D01*
X29051997Y34016282D01*
X28452320Y33768501D01*
X27993112Y33310093D01*
X27744284Y32710849D01*
X27743718Y32061997D01*
X23127000Y32061997D01*
X23127000Y35871997D01*
X23133718Y35871997D01*
X23381499Y35272320D01*
X23839907Y34813112D01*
X24439151Y34564284D01*
X25088003Y34563718D01*
X25687680Y34811499D01*
X26146888Y35269907D01*
X26207816Y35416639D01*
X48170975Y35416639D01*
X48280950Y35150479D01*
X48484408Y34946665D01*
X48750376Y34836226D01*
X49038361Y34835975D01*
X49304521Y34945950D01*
X49508335Y35149408D01*
X49618774Y35415376D01*
X49618775Y35416639D01*
X53250975Y35416639D01*
X53360950Y35150479D01*
X53564408Y34946665D01*
X53830376Y34836226D01*
X54118361Y34835975D01*
X54384521Y34945950D01*
X54588335Y35149408D01*
X54698774Y35415376D01*
X54699025Y35703361D01*
X54589050Y35969521D01*
X54385592Y36173335D01*
X54119624Y36283774D01*
X53831639Y36284025D01*
X53565479Y36174050D01*
X53361665Y35970592D01*
X53251226Y35704624D01*
X53250975Y35416639D01*
X49618775Y35416639D01*
X49618823Y35471023D01*
X49673361Y35470975D01*
X49939521Y35580950D01*
X50143335Y35784408D01*
X50253774Y36050376D01*
X50254025Y36338361D01*
X50144050Y36604521D01*
X50062076Y36686639D01*
X55790975Y36686639D01*
X55900950Y36420479D01*
X56104408Y36216665D01*
X56370376Y36106226D01*
X56658361Y36105975D01*
X56924521Y36215950D01*
X57128335Y36419408D01*
X57238774Y36685376D01*
X57239025Y36973361D01*
X57129050Y37239521D01*
X57047076Y37321639D01*
X75475975Y37321639D01*
X75585950Y37055479D01*
X75789408Y36851665D01*
X76055376Y36741226D01*
X76343361Y36740975D01*
X76609521Y36850950D01*
X76813335Y37054408D01*
X76923774Y37320376D01*
X76924025Y37608361D01*
X76814050Y37874521D01*
X76610592Y38078335D01*
X76344624Y38188774D01*
X76056639Y38189025D01*
X75790479Y38079050D01*
X75586665Y37875592D01*
X75476226Y37609624D01*
X75475975Y37321639D01*
X57047076Y37321639D01*
X56925592Y37443335D01*
X56659624Y37553774D01*
X56371639Y37554025D01*
X56105479Y37444050D01*
X55901665Y37240592D01*
X55791226Y36974624D01*
X55790975Y36686639D01*
X50062076Y36686639D01*
X49940592Y36808335D01*
X49674624Y36918774D01*
X49386639Y36919025D01*
X49120479Y36809050D01*
X48916665Y36605592D01*
X48806226Y36339624D01*
X48806177Y36283977D01*
X48751639Y36284025D01*
X48485479Y36174050D01*
X48281665Y35970592D01*
X48171226Y35704624D01*
X48170975Y35416639D01*
X26207816Y35416639D01*
X26395716Y35869151D01*
X26396282Y36518003D01*
X26148501Y37117680D01*
X25944898Y37321639D01*
X47535975Y37321639D01*
X47645950Y37055479D01*
X47849408Y36851665D01*
X48115376Y36741226D01*
X48403361Y36740975D01*
X48669521Y36850950D01*
X48873335Y37054408D01*
X48983774Y37320376D01*
X48983775Y37321639D01*
X50075975Y37321639D01*
X50185950Y37055479D01*
X50389408Y36851665D01*
X50655376Y36741226D01*
X50943361Y36740975D01*
X51209521Y36850950D01*
X51413335Y37054408D01*
X51523774Y37320376D01*
X51524025Y37608361D01*
X51414050Y37874521D01*
X51332076Y37956639D01*
X53885975Y37956639D01*
X53995950Y37690479D01*
X54199408Y37486665D01*
X54465376Y37376226D01*
X54753361Y37375975D01*
X55019521Y37485950D01*
X55223335Y37689408D01*
X55333774Y37955376D01*
X55334025Y38243361D01*
X55224050Y38509521D01*
X55142076Y38591639D01*
X59600975Y38591639D01*
X59672969Y38417401D01*
X59601226Y38244624D01*
X59600975Y37956639D01*
X59710950Y37690479D01*
X59914408Y37486665D01*
X60180376Y37376226D01*
X60468361Y37375975D01*
X60734521Y37485950D01*
X60938335Y37689408D01*
X61048774Y37955376D01*
X61048775Y37956639D01*
X64680975Y37956639D01*
X64790950Y37690479D01*
X64994408Y37486665D01*
X65260376Y37376226D01*
X65548361Y37375975D01*
X65814521Y37485950D01*
X66018335Y37689408D01*
X66128774Y37955376D01*
X66128775Y37956639D01*
X68490975Y37956639D01*
X68600950Y37690479D01*
X68804408Y37486665D01*
X69070376Y37376226D01*
X69358361Y37375975D01*
X69624521Y37485950D01*
X69828335Y37689408D01*
X69938774Y37955376D01*
X69939025Y38243361D01*
X69829050Y38509521D01*
X69625592Y38713335D01*
X69359624Y38823774D01*
X69071639Y38824025D01*
X68805479Y38714050D01*
X68601665Y38510592D01*
X68491226Y38244624D01*
X68490975Y37956639D01*
X66128775Y37956639D01*
X66129025Y38243361D01*
X66019050Y38509521D01*
X65815592Y38713335D01*
X65549624Y38823774D01*
X65261639Y38824025D01*
X64995479Y38714050D01*
X64791665Y38510592D01*
X64681226Y38244624D01*
X64680975Y37956639D01*
X61048775Y37956639D01*
X61049025Y38243361D01*
X60977031Y38417599D01*
X61048774Y38590376D01*
X61049025Y38878361D01*
X60939050Y39144521D01*
X60857076Y39226639D01*
X63410975Y39226639D01*
X63520950Y38960479D01*
X63724408Y38756665D01*
X63990376Y38646226D01*
X64278361Y38645975D01*
X64544521Y38755950D01*
X64748335Y38959408D01*
X64858774Y39225376D01*
X64859025Y39513361D01*
X64749050Y39779521D01*
X64545592Y39983335D01*
X64279624Y40093774D01*
X63991639Y40094025D01*
X63725479Y39984050D01*
X63521665Y39780592D01*
X63411226Y39514624D01*
X63410975Y39226639D01*
X60857076Y39226639D01*
X60735592Y39348335D01*
X60469624Y39458774D01*
X60181639Y39459025D01*
X59915479Y39349050D01*
X59711665Y39145592D01*
X59601226Y38879624D01*
X59600975Y38591639D01*
X55142076Y38591639D01*
X55020592Y38713335D01*
X54754624Y38823774D01*
X54466639Y38824025D01*
X54200479Y38714050D01*
X53996665Y38510592D01*
X53886226Y38244624D01*
X53885975Y37956639D01*
X51332076Y37956639D01*
X51210592Y38078335D01*
X50944624Y38188774D01*
X50656639Y38189025D01*
X50390479Y38079050D01*
X50186665Y37875592D01*
X50076226Y37609624D01*
X50075975Y37321639D01*
X48983775Y37321639D01*
X48983823Y37376023D01*
X49038361Y37375975D01*
X49304521Y37485950D01*
X49508335Y37689408D01*
X49618774Y37955376D01*
X49619025Y38243361D01*
X49509050Y38509521D01*
X49305592Y38713335D01*
X49039624Y38823774D01*
X48751639Y38824025D01*
X48485479Y38714050D01*
X48281665Y38510592D01*
X48171226Y38244624D01*
X48171177Y38188977D01*
X48116639Y38189025D01*
X47850479Y38079050D01*
X47646665Y37875592D01*
X47536226Y37609624D01*
X47535975Y37321639D01*
X25944898Y37321639D01*
X25690093Y37576888D01*
X25090849Y37825716D01*
X24441997Y37826282D01*
X23842320Y37578501D01*
X23383112Y37120093D01*
X23134284Y36520849D01*
X23133718Y35871997D01*
X23127000Y35871997D01*
X23127000Y39226639D01*
X39915975Y39226639D01*
X40025950Y38960479D01*
X40229408Y38756665D01*
X40495376Y38646226D01*
X40783361Y38645975D01*
X41049521Y38755950D01*
X41253335Y38959408D01*
X41363774Y39225376D01*
X41364025Y39513361D01*
X41254050Y39779521D01*
X41172076Y39861639D01*
X41820975Y39861639D01*
X41930950Y39595479D01*
X42134408Y39391665D01*
X42400376Y39281226D01*
X42688361Y39280975D01*
X42954521Y39390950D01*
X43158335Y39594408D01*
X43268774Y39860376D01*
X43268775Y39861639D01*
X48170975Y39861639D01*
X48280950Y39595479D01*
X48484408Y39391665D01*
X48750376Y39281226D01*
X49038361Y39280975D01*
X49304521Y39390950D01*
X49508335Y39594408D01*
X49618774Y39860376D01*
X49619025Y40148361D01*
X49509050Y40414521D01*
X49305592Y40618335D01*
X49039624Y40728774D01*
X48751639Y40729025D01*
X48485479Y40619050D01*
X48281665Y40415592D01*
X48171226Y40149624D01*
X48170975Y39861639D01*
X43268775Y39861639D01*
X43269025Y40148361D01*
X43159050Y40414521D01*
X42955592Y40618335D01*
X42689624Y40728774D01*
X42401639Y40729025D01*
X42135479Y40619050D01*
X41931665Y40415592D01*
X41821226Y40149624D01*
X41820975Y39861639D01*
X41172076Y39861639D01*
X41050592Y39983335D01*
X40784624Y40093774D01*
X40496639Y40094025D01*
X40230479Y39984050D01*
X40026665Y39780592D01*
X39916226Y39514624D01*
X39915975Y39226639D01*
X23127000Y39226639D01*
X23127000Y39861639D01*
X36740975Y39861639D01*
X36850950Y39595479D01*
X37054408Y39391665D01*
X37320376Y39281226D01*
X37608361Y39280975D01*
X37874521Y39390950D01*
X38078335Y39594408D01*
X38188774Y39860376D01*
X38189025Y40148361D01*
X38079050Y40414521D01*
X37875592Y40618335D01*
X37609624Y40728774D01*
X37321639Y40729025D01*
X37055479Y40619050D01*
X36851665Y40415592D01*
X36741226Y40149624D01*
X36740975Y39861639D01*
X23127000Y39861639D01*
X23127000Y40496639D01*
X23405975Y40496639D01*
X23515950Y40230479D01*
X23719408Y40026665D01*
X23985376Y39916226D01*
X24273361Y39915975D01*
X24539521Y40025950D01*
X24743335Y40229408D01*
X24853774Y40495376D01*
X24853775Y40496639D01*
X30390975Y40496639D01*
X30500950Y40230479D01*
X30704408Y40026665D01*
X30970376Y39916226D01*
X31258361Y39915975D01*
X31524521Y40025950D01*
X31728335Y40229408D01*
X31838774Y40495376D01*
X31839025Y40783361D01*
X31729050Y41049521D01*
X31525592Y41253335D01*
X31259624Y41363774D01*
X30971639Y41364025D01*
X30705479Y41254050D01*
X30501665Y41050592D01*
X30391226Y40784624D01*
X30390975Y40496639D01*
X24853775Y40496639D01*
X24854025Y40783361D01*
X24744050Y41049521D01*
X24540592Y41253335D01*
X24274624Y41363774D01*
X23986639Y41364025D01*
X23720479Y41254050D01*
X23516665Y41050592D01*
X23406226Y40784624D01*
X23405975Y40496639D01*
X23127000Y40496639D01*
X23127000Y41586997D01*
X73933718Y41586997D01*
X74181499Y40987320D01*
X74639907Y40528112D01*
X75239151Y40279284D01*
X75888003Y40278718D01*
X76487680Y40526499D01*
X76946888Y40984907D01*
X77195716Y41584151D01*
X77196282Y42233003D01*
X76948501Y42832680D01*
X76490093Y43291888D01*
X75890849Y43540716D01*
X75241997Y43541282D01*
X74642320Y43293501D01*
X74183112Y42835093D01*
X73934284Y42235849D01*
X73933718Y41586997D01*
X23127000Y41586997D01*
X23127000Y43036639D01*
X57695975Y43036639D01*
X57805950Y42770479D01*
X58009408Y42566665D01*
X58275376Y42456226D01*
X58563361Y42455975D01*
X58829521Y42565950D01*
X59033335Y42769408D01*
X59143774Y43035376D01*
X59144025Y43323361D01*
X59034050Y43589521D01*
X58830592Y43793335D01*
X58564624Y43903774D01*
X58276639Y43904025D01*
X58010479Y43794050D01*
X57806665Y43590592D01*
X57696226Y43324624D01*
X57695975Y43036639D01*
X23127000Y43036639D01*
X23127000Y43671639D01*
X43725975Y43671639D01*
X43835950Y43405479D01*
X44039408Y43201665D01*
X44305376Y43091226D01*
X44593361Y43090975D01*
X44859521Y43200950D01*
X45063335Y43404408D01*
X45173774Y43670376D01*
X45174025Y43958361D01*
X45064050Y44224521D01*
X44982076Y44306639D01*
X50710975Y44306639D01*
X50820950Y44040479D01*
X51024408Y43836665D01*
X51290376Y43726226D01*
X51578361Y43725975D01*
X51844521Y43835950D01*
X52048335Y44039408D01*
X52158774Y44305376D01*
X52159025Y44593361D01*
X52049050Y44859521D01*
X51845592Y45063335D01*
X51579624Y45173774D01*
X51291639Y45174025D01*
X51025479Y45064050D01*
X50821665Y44860592D01*
X50711226Y44594624D01*
X50710975Y44306639D01*
X44982076Y44306639D01*
X44860592Y44428335D01*
X44594624Y44538774D01*
X44306639Y44539025D01*
X44040479Y44429050D01*
X43836665Y44225592D01*
X43726226Y43959624D01*
X43725975Y43671639D01*
X23127000Y43671639D01*
X23127000Y44306639D01*
X30390975Y44306639D01*
X30500950Y44040479D01*
X30704408Y43836665D01*
X30970376Y43726226D01*
X31258361Y43725975D01*
X31524521Y43835950D01*
X31728335Y44039408D01*
X31838774Y44305376D01*
X31839025Y44593361D01*
X31729050Y44859521D01*
X31525592Y45063335D01*
X31259624Y45173774D01*
X30971639Y45174025D01*
X30705479Y45064050D01*
X30501665Y44860592D01*
X30391226Y44594624D01*
X30390975Y44306639D01*
X23127000Y44306639D01*
X23127000Y45576639D01*
X54520975Y45576639D01*
X54630950Y45310479D01*
X54834408Y45106665D01*
X55100376Y44996226D01*
X55388361Y44995975D01*
X55654521Y45105950D01*
X55858335Y45309408D01*
X55894704Y45396997D01*
X69323718Y45396997D01*
X69571499Y44797320D01*
X70029907Y44338112D01*
X70629151Y44089284D01*
X71278003Y44088718D01*
X71877680Y44336499D01*
X72336888Y44794907D01*
X72585716Y45394151D01*
X72586282Y46043003D01*
X72338501Y46642680D01*
X71880093Y47101888D01*
X71280849Y47350716D01*
X70631997Y47351282D01*
X70032320Y47103501D01*
X69573112Y46645093D01*
X69324284Y46045849D01*
X69323718Y45396997D01*
X55894704Y45396997D01*
X55968774Y45575376D01*
X55969025Y45863361D01*
X55859050Y46129521D01*
X55655592Y46333335D01*
X55389624Y46443774D01*
X55101639Y46444025D01*
X54835479Y46334050D01*
X54631665Y46130592D01*
X54521226Y45864624D01*
X54520975Y45576639D01*
X23127000Y45576639D01*
X23127000Y46211639D01*
X51345975Y46211639D01*
X51455950Y45945479D01*
X51659408Y45741665D01*
X51925376Y45631226D01*
X52213361Y45630975D01*
X52479521Y45740950D01*
X52683335Y45944408D01*
X52793774Y46210376D01*
X52794025Y46498361D01*
X52684050Y46764521D01*
X52480592Y46968335D01*
X52214624Y47078774D01*
X51926639Y47079025D01*
X51660479Y46969050D01*
X51456665Y46765592D01*
X51346226Y46499624D01*
X51345975Y46211639D01*
X23127000Y46211639D01*
X23127000Y48751639D01*
X44360975Y48751639D01*
X44470950Y48485479D01*
X44674408Y48281665D01*
X44940376Y48171226D01*
X45228361Y48170975D01*
X45494521Y48280950D01*
X45698335Y48484408D01*
X45808774Y48750376D01*
X45809025Y49038361D01*
X45699050Y49304521D01*
X45617076Y49386639D01*
X57060975Y49386639D01*
X57170950Y49120479D01*
X57374408Y48916665D01*
X57640376Y48806226D01*
X57928361Y48805975D01*
X58194521Y48915950D01*
X58398335Y49119408D01*
X58508774Y49385376D01*
X58508775Y49386639D01*
X59600975Y49386639D01*
X59710950Y49120479D01*
X59914408Y48916665D01*
X60180376Y48806226D01*
X60468361Y48805975D01*
X60734521Y48915950D01*
X60938335Y49119408D01*
X61048774Y49385376D01*
X61049025Y49673361D01*
X60939050Y49939521D01*
X60735592Y50143335D01*
X60469624Y50253774D01*
X60181639Y50254025D01*
X59915479Y50144050D01*
X59711665Y49940592D01*
X59601226Y49674624D01*
X59600975Y49386639D01*
X58508775Y49386639D01*
X58509025Y49673361D01*
X58399050Y49939521D01*
X58195592Y50143335D01*
X57929624Y50253774D01*
X57641639Y50254025D01*
X57375479Y50144050D01*
X57171665Y49940592D01*
X57061226Y49674624D01*
X57060975Y49386639D01*
X45617076Y49386639D01*
X45495592Y49508335D01*
X45229624Y49618774D01*
X44941639Y49619025D01*
X44675479Y49509050D01*
X44471665Y49305592D01*
X44361226Y49039624D01*
X44360975Y48751639D01*
X23127000Y48751639D01*
X23127000Y52381997D01*
X27743718Y52381997D01*
X27991499Y51782320D01*
X28449907Y51323112D01*
X29049151Y51074284D01*
X29698003Y51073718D01*
X30297680Y51321499D01*
X30756888Y51779907D01*
X30817816Y51926639D01*
X51345975Y51926639D01*
X51455950Y51660479D01*
X51659408Y51456665D01*
X51925376Y51346226D01*
X52213361Y51345975D01*
X52479521Y51455950D01*
X52683335Y51659408D01*
X52793774Y51925376D01*
X52794025Y52213361D01*
X52684050Y52479521D01*
X52480592Y52683335D01*
X52214624Y52793774D01*
X51926639Y52794025D01*
X51660479Y52684050D01*
X51456665Y52480592D01*
X51346226Y52214624D01*
X51345975Y51926639D01*
X30817816Y51926639D01*
X31005716Y52379151D01*
X31005875Y52561639D01*
X39280975Y52561639D01*
X39390950Y52295479D01*
X39594408Y52091665D01*
X39860376Y51981226D01*
X40148361Y51980975D01*
X40414521Y52090950D01*
X40618335Y52294408D01*
X40728774Y52560376D01*
X40728775Y52561639D01*
X41820975Y52561639D01*
X41930950Y52295479D01*
X42134408Y52091665D01*
X42400376Y51981226D01*
X42688361Y51980975D01*
X42954521Y52090950D01*
X43158335Y52294408D01*
X43268774Y52560376D01*
X43269025Y52848361D01*
X43159050Y53114521D01*
X42955592Y53318335D01*
X42689624Y53428774D01*
X42401639Y53429025D01*
X42135479Y53319050D01*
X41931665Y53115592D01*
X41821226Y52849624D01*
X41820975Y52561639D01*
X40728775Y52561639D01*
X40729025Y52848361D01*
X40619050Y53114521D01*
X40415592Y53318335D01*
X40149624Y53428774D01*
X39861639Y53429025D01*
X39595479Y53319050D01*
X39391665Y53115592D01*
X39281226Y52849624D01*
X39280975Y52561639D01*
X31005875Y52561639D01*
X31006282Y53028003D01*
X30758501Y53627680D01*
X30554898Y53831639D01*
X68490975Y53831639D01*
X68600950Y53565479D01*
X68804408Y53361665D01*
X69070376Y53251226D01*
X69358361Y53250975D01*
X69624521Y53360950D01*
X69828335Y53564408D01*
X69938774Y53830376D01*
X69939025Y54118361D01*
X69829050Y54384521D01*
X69625592Y54588335D01*
X69359624Y54698774D01*
X69071639Y54699025D01*
X68805479Y54589050D01*
X68601665Y54385592D01*
X68491226Y54119624D01*
X68490975Y53831639D01*
X30554898Y53831639D01*
X30300093Y54086888D01*
X29700849Y54335716D01*
X29051997Y54336282D01*
X28452320Y54088501D01*
X27993112Y53630093D01*
X27744284Y53030849D01*
X27743718Y52381997D01*
X23127000Y52381997D01*
X23127000Y56191997D01*
X23133718Y56191997D01*
X23381499Y55592320D01*
X23839907Y55133112D01*
X24439151Y54884284D01*
X25088003Y54883718D01*
X25687680Y55131499D01*
X26146888Y55589907D01*
X26395716Y56189151D01*
X26396282Y56838003D01*
X26148501Y57437680D01*
X25944898Y57641639D01*
X53885975Y57641639D01*
X53995950Y57375479D01*
X54199408Y57171665D01*
X54465376Y57061226D01*
X54753361Y57060975D01*
X55019521Y57170950D01*
X55223335Y57374408D01*
X55333774Y57640376D01*
X55333775Y57641639D01*
X68490975Y57641639D01*
X68600950Y57375479D01*
X68804408Y57171665D01*
X69070376Y57061226D01*
X69358361Y57060975D01*
X69624521Y57170950D01*
X69828335Y57374408D01*
X69938774Y57640376D01*
X69938775Y57641639D01*
X75475975Y57641639D01*
X75585950Y57375479D01*
X75789408Y57171665D01*
X76055376Y57061226D01*
X76343361Y57060975D01*
X76609521Y57170950D01*
X76813335Y57374408D01*
X76923774Y57640376D01*
X76924025Y57928361D01*
X76814050Y58194521D01*
X76610592Y58398335D01*
X76344624Y58508774D01*
X76056639Y58509025D01*
X75790479Y58399050D01*
X75586665Y58195592D01*
X75476226Y57929624D01*
X75475975Y57641639D01*
X69938775Y57641639D01*
X69939025Y57928361D01*
X69829050Y58194521D01*
X69625592Y58398335D01*
X69359624Y58508774D01*
X69071639Y58509025D01*
X68805479Y58399050D01*
X68601665Y58195592D01*
X68491226Y57929624D01*
X68490975Y57641639D01*
X55333775Y57641639D01*
X55334025Y57928361D01*
X55224050Y58194521D01*
X55020592Y58398335D01*
X54754624Y58508774D01*
X54466639Y58509025D01*
X54200479Y58399050D01*
X53996665Y58195592D01*
X53886226Y57929624D01*
X53885975Y57641639D01*
X25944898Y57641639D01*
X25690093Y57896888D01*
X25090849Y58145716D01*
X24441997Y58146282D01*
X23842320Y57898501D01*
X23383112Y57440093D01*
X23134284Y56840849D01*
X23133718Y56191997D01*
X23127000Y56191997D01*
X23127000Y58276639D01*
X48170975Y58276639D01*
X48280950Y58010479D01*
X48484408Y57806665D01*
X48750376Y57696226D01*
X49038361Y57695975D01*
X49304521Y57805950D01*
X49508335Y58009408D01*
X49618774Y58275376D01*
X49618823Y58331023D01*
X49673361Y58330975D01*
X49939521Y58440950D01*
X50143335Y58644408D01*
X50253774Y58910376D01*
X50253775Y58911639D01*
X55790975Y58911639D01*
X55900950Y58645479D01*
X56104408Y58441665D01*
X56370376Y58331226D01*
X56658361Y58330975D01*
X56924521Y58440950D01*
X57070298Y58586473D01*
X57061226Y58564624D01*
X57060975Y58276639D01*
X57170950Y58010479D01*
X57374408Y57806665D01*
X57640376Y57696226D01*
X57928361Y57695975D01*
X58194521Y57805950D01*
X58398335Y58009408D01*
X58508774Y58275376D01*
X58508775Y58276639D01*
X62140975Y58276639D01*
X62250950Y58010479D01*
X62454408Y57806665D01*
X62720376Y57696226D01*
X63008361Y57695975D01*
X63274521Y57805950D01*
X63478335Y58009408D01*
X63588774Y58275376D01*
X63589025Y58563361D01*
X63479050Y58829521D01*
X63275592Y59033335D01*
X63009624Y59143774D01*
X62721639Y59144025D01*
X62455479Y59034050D01*
X62251665Y58830592D01*
X62141226Y58564624D01*
X62140975Y58276639D01*
X58508775Y58276639D01*
X58509025Y58563361D01*
X58399050Y58829521D01*
X58317076Y58911639D01*
X59600975Y58911639D01*
X59710950Y58645479D01*
X59914408Y58441665D01*
X60180376Y58331226D01*
X60468361Y58330975D01*
X60734521Y58440950D01*
X60938335Y58644408D01*
X61048774Y58910376D01*
X61049025Y59198361D01*
X60939050Y59464521D01*
X60735592Y59668335D01*
X60469624Y59778774D01*
X60181639Y59779025D01*
X59915479Y59669050D01*
X59711665Y59465592D01*
X59601226Y59199624D01*
X59600975Y58911639D01*
X58317076Y58911639D01*
X58195592Y59033335D01*
X57929624Y59143774D01*
X57641639Y59144025D01*
X57375479Y59034050D01*
X57229702Y58888527D01*
X57238774Y58910376D01*
X57239025Y59198361D01*
X57129050Y59464521D01*
X56925592Y59668335D01*
X56659624Y59778774D01*
X56371639Y59779025D01*
X56105479Y59669050D01*
X55901665Y59465592D01*
X55791226Y59199624D01*
X55790975Y58911639D01*
X50253775Y58911639D01*
X50254025Y59198361D01*
X50144050Y59464521D01*
X49940592Y59668335D01*
X49674624Y59778774D01*
X49386639Y59779025D01*
X49120479Y59669050D01*
X48916665Y59465592D01*
X48806226Y59199624D01*
X48806177Y59143977D01*
X48751639Y59144025D01*
X48485479Y59034050D01*
X48281665Y58830592D01*
X48171226Y58564624D01*
X48170975Y58276639D01*
X23127000Y58276639D01*
X23127000Y59546639D01*
X39915975Y59546639D01*
X40025950Y59280479D01*
X40229408Y59076665D01*
X40495376Y58966226D01*
X40783361Y58965975D01*
X41049521Y59075950D01*
X41253335Y59279408D01*
X41363774Y59545376D01*
X41364025Y59833361D01*
X41254050Y60099521D01*
X41172076Y60181639D01*
X41820975Y60181639D01*
X41930950Y59915479D01*
X42134408Y59711665D01*
X42400376Y59601226D01*
X42688361Y59600975D01*
X42954521Y59710950D01*
X43158335Y59914408D01*
X43268774Y60180376D01*
X43269025Y60468361D01*
X43159050Y60734521D01*
X42955592Y60938335D01*
X42689624Y61048774D01*
X42401639Y61049025D01*
X42135479Y60939050D01*
X41931665Y60735592D01*
X41821226Y60469624D01*
X41820975Y60181639D01*
X41172076Y60181639D01*
X41050592Y60303335D01*
X40784624Y60413774D01*
X40496639Y60414025D01*
X40230479Y60304050D01*
X40026665Y60100592D01*
X39916226Y59834624D01*
X39915975Y59546639D01*
X23127000Y59546639D01*
X23127000Y60181639D01*
X36740975Y60181639D01*
X36850950Y59915479D01*
X37054408Y59711665D01*
X37320376Y59601226D01*
X37608361Y59600975D01*
X37874521Y59710950D01*
X38078335Y59914408D01*
X38188774Y60180376D01*
X38189025Y60468361D01*
X38079050Y60734521D01*
X37875592Y60938335D01*
X37609624Y61048774D01*
X37321639Y61049025D01*
X37055479Y60939050D01*
X36851665Y60735592D01*
X36741226Y60469624D01*
X36740975Y60181639D01*
X23127000Y60181639D01*
X23127000Y60816639D01*
X23405975Y60816639D01*
X23515950Y60550479D01*
X23719408Y60346665D01*
X23985376Y60236226D01*
X24273361Y60235975D01*
X24539521Y60345950D01*
X24743335Y60549408D01*
X24853774Y60815376D01*
X24853775Y60816639D01*
X30390975Y60816639D01*
X30500950Y60550479D01*
X30704408Y60346665D01*
X30970376Y60236226D01*
X31258361Y60235975D01*
X31524521Y60345950D01*
X31728335Y60549408D01*
X31838774Y60815376D01*
X31839025Y61103361D01*
X31729050Y61369521D01*
X31647076Y61451639D01*
X48805975Y61451639D01*
X48915950Y61185479D01*
X49119408Y60981665D01*
X49385376Y60871226D01*
X49673361Y60870975D01*
X49939521Y60980950D01*
X50143335Y61184408D01*
X50253774Y61450376D01*
X50254025Y61738361D01*
X50184347Y61906997D01*
X73933718Y61906997D01*
X74181499Y61307320D01*
X74639907Y60848112D01*
X75239151Y60599284D01*
X75888003Y60598718D01*
X76487680Y60846499D01*
X76946888Y61304907D01*
X77195716Y61904151D01*
X77196282Y62553003D01*
X76948501Y63152680D01*
X76490093Y63611888D01*
X75890849Y63860716D01*
X75241997Y63861282D01*
X74642320Y63613501D01*
X74183112Y63155093D01*
X73934284Y62555849D01*
X73933718Y61906997D01*
X50184347Y61906997D01*
X50144050Y62004521D01*
X49940592Y62208335D01*
X49674624Y62318774D01*
X49386639Y62319025D01*
X49120479Y62209050D01*
X48916665Y62005592D01*
X48806226Y61739624D01*
X48805975Y61451639D01*
X31647076Y61451639D01*
X31525592Y61573335D01*
X31259624Y61683774D01*
X30971639Y61684025D01*
X30705479Y61574050D01*
X30501665Y61370592D01*
X30391226Y61104624D01*
X30390975Y60816639D01*
X24853775Y60816639D01*
X24854025Y61103361D01*
X24744050Y61369521D01*
X24540592Y61573335D01*
X24274624Y61683774D01*
X23986639Y61684025D01*
X23720479Y61574050D01*
X23516665Y61370592D01*
X23406226Y61104624D01*
X23405975Y60816639D01*
X23127000Y60816639D01*
X23127000Y64626639D01*
X30390975Y64626639D01*
X30500950Y64360479D01*
X30704408Y64156665D01*
X30970376Y64046226D01*
X31258361Y64045975D01*
X31524521Y64155950D01*
X31728335Y64359408D01*
X31838774Y64625376D01*
X31839025Y64913361D01*
X31729050Y65179521D01*
X31525592Y65383335D01*
X31259624Y65493774D01*
X30971639Y65494025D01*
X30705479Y65384050D01*
X30501665Y65180592D01*
X30391226Y64914624D01*
X30390975Y64626639D01*
X23127000Y64626639D01*
X23127000Y65896639D01*
X54520975Y65896639D01*
X54630950Y65630479D01*
X54834408Y65426665D01*
X55100376Y65316226D01*
X55388361Y65315975D01*
X55654521Y65425950D01*
X55858335Y65629408D01*
X55894704Y65716997D01*
X69323718Y65716997D01*
X69571499Y65117320D01*
X70029907Y64658112D01*
X70629151Y64409284D01*
X71278003Y64408718D01*
X71877680Y64656499D01*
X72336888Y65114907D01*
X72585716Y65714151D01*
X72586282Y66363003D01*
X72338501Y66962680D01*
X71880093Y67421888D01*
X71280849Y67670716D01*
X70631997Y67671282D01*
X70032320Y67423501D01*
X69573112Y66965093D01*
X69324284Y66365849D01*
X69323718Y65716997D01*
X55894704Y65716997D01*
X55968774Y65895376D01*
X55969025Y66183361D01*
X55859050Y66449521D01*
X55655592Y66653335D01*
X55389624Y66763774D01*
X55101639Y66764025D01*
X54835479Y66654050D01*
X54631665Y66450592D01*
X54521226Y66184624D01*
X54520975Y65896639D01*
X23127000Y65896639D01*
X23127000Y69071639D01*
X44360975Y69071639D01*
X44470950Y68805479D01*
X44674408Y68601665D01*
X44940376Y68491226D01*
X45228361Y68490975D01*
X45494521Y68600950D01*
X45698335Y68804408D01*
X45808774Y69070376D01*
X45809025Y69358361D01*
X45699050Y69624521D01*
X45617076Y69706639D01*
X57060975Y69706639D01*
X57170950Y69440479D01*
X57374408Y69236665D01*
X57640376Y69126226D01*
X57928361Y69125975D01*
X58194521Y69235950D01*
X58398335Y69439408D01*
X58508774Y69705376D01*
X58508775Y69706639D01*
X59600975Y69706639D01*
X59710950Y69440479D01*
X59914408Y69236665D01*
X60180376Y69126226D01*
X60468361Y69125975D01*
X60734521Y69235950D01*
X60938335Y69439408D01*
X61048774Y69705376D01*
X61049025Y69993361D01*
X60939050Y70259521D01*
X60735592Y70463335D01*
X60469624Y70573774D01*
X60181639Y70574025D01*
X59915479Y70464050D01*
X59711665Y70260592D01*
X59601226Y69994624D01*
X59600975Y69706639D01*
X58508775Y69706639D01*
X58509025Y69993361D01*
X58399050Y70259521D01*
X58195592Y70463335D01*
X57929624Y70573774D01*
X57641639Y70574025D01*
X57375479Y70464050D01*
X57171665Y70260592D01*
X57061226Y69994624D01*
X57060975Y69706639D01*
X45617076Y69706639D01*
X45495592Y69828335D01*
X45229624Y69938774D01*
X44941639Y69939025D01*
X44675479Y69829050D01*
X44471665Y69625592D01*
X44361226Y69359624D01*
X44360975Y69071639D01*
X23127000Y69071639D01*
X23127000Y72701997D01*
X27743718Y72701997D01*
X27991499Y72102320D01*
X28449907Y71643112D01*
X29049151Y71394284D01*
X29698003Y71393718D01*
X30297680Y71641499D01*
X30756888Y72099907D01*
X30817816Y72246639D01*
X51345975Y72246639D01*
X51455950Y71980479D01*
X51659408Y71776665D01*
X51925376Y71666226D01*
X52213361Y71665975D01*
X52479521Y71775950D01*
X52683335Y71979408D01*
X52793774Y72245376D01*
X52794025Y72533361D01*
X52684050Y72799521D01*
X52480592Y73003335D01*
X52214624Y73113774D01*
X51926639Y73114025D01*
X51660479Y73004050D01*
X51456665Y72800592D01*
X51346226Y72534624D01*
X51345975Y72246639D01*
X30817816Y72246639D01*
X31005716Y72699151D01*
X31005875Y72881639D01*
X39280975Y72881639D01*
X39390950Y72615479D01*
X39594408Y72411665D01*
X39860376Y72301226D01*
X40148361Y72300975D01*
X40414521Y72410950D01*
X40618335Y72614408D01*
X40728774Y72880376D01*
X40728775Y72881639D01*
X41820975Y72881639D01*
X41930950Y72615479D01*
X42134408Y72411665D01*
X42400376Y72301226D01*
X42688361Y72300975D01*
X42954521Y72410950D01*
X43158335Y72614408D01*
X43268774Y72880376D01*
X43269025Y73168361D01*
X43159050Y73434521D01*
X42955592Y73638335D01*
X42689624Y73748774D01*
X42401639Y73749025D01*
X42135479Y73639050D01*
X41931665Y73435592D01*
X41821226Y73169624D01*
X41820975Y72881639D01*
X40728775Y72881639D01*
X40729025Y73168361D01*
X40619050Y73434521D01*
X40415592Y73638335D01*
X40149624Y73748774D01*
X39861639Y73749025D01*
X39595479Y73639050D01*
X39391665Y73435592D01*
X39281226Y73169624D01*
X39280975Y72881639D01*
X31005875Y72881639D01*
X31006282Y73348003D01*
X30758501Y73947680D01*
X30554898Y74151639D01*
X68490975Y74151639D01*
X68600950Y73885479D01*
X68804408Y73681665D01*
X69070376Y73571226D01*
X69358361Y73570975D01*
X69624521Y73680950D01*
X69828335Y73884408D01*
X69938774Y74150376D01*
X69939025Y74438361D01*
X69829050Y74704521D01*
X69625592Y74908335D01*
X69359624Y75018774D01*
X69071639Y75019025D01*
X68805479Y74909050D01*
X68601665Y74705592D01*
X68491226Y74439624D01*
X68490975Y74151639D01*
X30554898Y74151639D01*
X30300093Y74406888D01*
X29700849Y74655716D01*
X29051997Y74656282D01*
X28452320Y74408501D01*
X27993112Y73950093D01*
X27744284Y73350849D01*
X27743718Y72701997D01*
X23127000Y72701997D01*
X23127000Y76511997D01*
X23133718Y76511997D01*
X23381499Y75912320D01*
X23839907Y75453112D01*
X24439151Y75204284D01*
X25088003Y75203718D01*
X25687680Y75451499D01*
X26146888Y75909907D01*
X26395716Y76509151D01*
X26396282Y77158003D01*
X26148501Y77757680D01*
X25944898Y77961639D01*
X53885975Y77961639D01*
X53995950Y77695479D01*
X54199408Y77491665D01*
X54465376Y77381226D01*
X54753361Y77380975D01*
X55019521Y77490950D01*
X55223335Y77694408D01*
X55333774Y77960376D01*
X55333775Y77961639D01*
X68490975Y77961639D01*
X68600950Y77695479D01*
X68804408Y77491665D01*
X69070376Y77381226D01*
X69358361Y77380975D01*
X69624521Y77490950D01*
X69828335Y77694408D01*
X69938774Y77960376D01*
X69938775Y77961639D01*
X75475975Y77961639D01*
X75585950Y77695479D01*
X75789408Y77491665D01*
X76055376Y77381226D01*
X76343361Y77380975D01*
X76609521Y77490950D01*
X76813335Y77694408D01*
X76923774Y77960376D01*
X76924025Y78248361D01*
X76814050Y78514521D01*
X76610592Y78718335D01*
X76344624Y78828774D01*
X76056639Y78829025D01*
X75790479Y78719050D01*
X75586665Y78515592D01*
X75476226Y78249624D01*
X75475975Y77961639D01*
X69938775Y77961639D01*
X69939025Y78248361D01*
X69829050Y78514521D01*
X69625592Y78718335D01*
X69359624Y78828774D01*
X69071639Y78829025D01*
X68805479Y78719050D01*
X68601665Y78515592D01*
X68491226Y78249624D01*
X68490975Y77961639D01*
X55333775Y77961639D01*
X55334025Y78248361D01*
X55224050Y78514521D01*
X55020592Y78718335D01*
X54754624Y78828774D01*
X54466639Y78829025D01*
X54200479Y78719050D01*
X53996665Y78515592D01*
X53886226Y78249624D01*
X53885975Y77961639D01*
X25944898Y77961639D01*
X25690093Y78216888D01*
X25090849Y78465716D01*
X24441997Y78466282D01*
X23842320Y78218501D01*
X23383112Y77760093D01*
X23134284Y77160849D01*
X23133718Y76511997D01*
X23127000Y76511997D01*
X23127000Y78596639D01*
X48170975Y78596639D01*
X48280950Y78330479D01*
X48484408Y78126665D01*
X48750376Y78016226D01*
X49038361Y78015975D01*
X49304521Y78125950D01*
X49508335Y78329408D01*
X49618774Y78595376D01*
X49619025Y78883361D01*
X49509050Y79149521D01*
X49427076Y79231639D01*
X55790975Y79231639D01*
X55900950Y78965479D01*
X56104408Y78761665D01*
X56370376Y78651226D01*
X56658361Y78650975D01*
X56924521Y78760950D01*
X57070298Y78906473D01*
X57061226Y78884624D01*
X57060975Y78596639D01*
X57170950Y78330479D01*
X57374408Y78126665D01*
X57640376Y78016226D01*
X57928361Y78015975D01*
X58194521Y78125950D01*
X58398335Y78329408D01*
X58508774Y78595376D01*
X58508775Y78596639D01*
X62140975Y78596639D01*
X62250950Y78330479D01*
X62454408Y78126665D01*
X62720376Y78016226D01*
X63008361Y78015975D01*
X63274521Y78125950D01*
X63478335Y78329408D01*
X63588774Y78595376D01*
X63589025Y78883361D01*
X63479050Y79149521D01*
X63275592Y79353335D01*
X63009624Y79463774D01*
X62721639Y79464025D01*
X62455479Y79354050D01*
X62251665Y79150592D01*
X62141226Y78884624D01*
X62140975Y78596639D01*
X58508775Y78596639D01*
X58509025Y78883361D01*
X58399050Y79149521D01*
X58317076Y79231639D01*
X59600975Y79231639D01*
X59710950Y78965479D01*
X59914408Y78761665D01*
X60180376Y78651226D01*
X60468361Y78650975D01*
X60734521Y78760950D01*
X60938335Y78964408D01*
X61048774Y79230376D01*
X61049025Y79518361D01*
X60939050Y79784521D01*
X60735592Y79988335D01*
X60469624Y80098774D01*
X60181639Y80099025D01*
X59915479Y79989050D01*
X59711665Y79785592D01*
X59601226Y79519624D01*
X59600975Y79231639D01*
X58317076Y79231639D01*
X58195592Y79353335D01*
X57929624Y79463774D01*
X57641639Y79464025D01*
X57375479Y79354050D01*
X57229702Y79208527D01*
X57238774Y79230376D01*
X57239025Y79518361D01*
X57129050Y79784521D01*
X56925592Y79988335D01*
X56659624Y80098774D01*
X56371639Y80099025D01*
X56105479Y79989050D01*
X55901665Y79785592D01*
X55791226Y79519624D01*
X55790975Y79231639D01*
X49427076Y79231639D01*
X49305592Y79353335D01*
X49039624Y79463774D01*
X48751639Y79464025D01*
X48485479Y79354050D01*
X48281665Y79150592D01*
X48171226Y78884624D01*
X48170975Y78596639D01*
X23127000Y78596639D01*
X23127000Y79866639D01*
X39915975Y79866639D01*
X40025950Y79600479D01*
X40229408Y79396665D01*
X40495376Y79286226D01*
X40783361Y79285975D01*
X41049521Y79395950D01*
X41253335Y79599408D01*
X41363774Y79865376D01*
X41364025Y80153361D01*
X41254050Y80419521D01*
X41172076Y80501639D01*
X41820975Y80501639D01*
X41930950Y80235479D01*
X42134408Y80031665D01*
X42400376Y79921226D01*
X42688361Y79920975D01*
X42954521Y80030950D01*
X43158335Y80234408D01*
X43268774Y80500376D01*
X43269025Y80788361D01*
X43159050Y81054521D01*
X42955592Y81258335D01*
X42689624Y81368774D01*
X42401639Y81369025D01*
X42135479Y81259050D01*
X41931665Y81055592D01*
X41821226Y80789624D01*
X41820975Y80501639D01*
X41172076Y80501639D01*
X41050592Y80623335D01*
X40784624Y80733774D01*
X40496639Y80734025D01*
X40230479Y80624050D01*
X40026665Y80420592D01*
X39916226Y80154624D01*
X39915975Y79866639D01*
X23127000Y79866639D01*
X23127000Y80501639D01*
X36740975Y80501639D01*
X36850950Y80235479D01*
X37054408Y80031665D01*
X37320376Y79921226D01*
X37608361Y79920975D01*
X37874521Y80030950D01*
X38078335Y80234408D01*
X38188774Y80500376D01*
X38189025Y80788361D01*
X38079050Y81054521D01*
X37875592Y81258335D01*
X37609624Y81368774D01*
X37321639Y81369025D01*
X37055479Y81259050D01*
X36851665Y81055592D01*
X36741226Y80789624D01*
X36740975Y80501639D01*
X23127000Y80501639D01*
X23127000Y81136639D01*
X23405975Y81136639D01*
X23515950Y80870479D01*
X23719408Y80666665D01*
X23985376Y80556226D01*
X24273361Y80555975D01*
X24539521Y80665950D01*
X24743335Y80869408D01*
X24853774Y81135376D01*
X24853775Y81136639D01*
X30390975Y81136639D01*
X30500950Y80870479D01*
X30704408Y80666665D01*
X30970376Y80556226D01*
X31258361Y80555975D01*
X31524521Y80665950D01*
X31728335Y80869408D01*
X31838774Y81135376D01*
X31839025Y81423361D01*
X31729050Y81689521D01*
X31525592Y81893335D01*
X31259624Y82003774D01*
X30971639Y82004025D01*
X30705479Y81894050D01*
X30501665Y81690592D01*
X30391226Y81424624D01*
X30390975Y81136639D01*
X24853775Y81136639D01*
X24854025Y81423361D01*
X24744050Y81689521D01*
X24540592Y81893335D01*
X24274624Y82003774D01*
X23986639Y82004025D01*
X23720479Y81894050D01*
X23516665Y81690592D01*
X23406226Y81424624D01*
X23405975Y81136639D01*
X23127000Y81136639D01*
X23127000Y82406639D01*
X49440975Y82406639D01*
X49550950Y82140479D01*
X49754408Y81936665D01*
X50020376Y81826226D01*
X50308361Y81825975D01*
X50574521Y81935950D01*
X50778335Y82139408D01*
X50814704Y82226997D01*
X73933718Y82226997D01*
X74181499Y81627320D01*
X74639907Y81168112D01*
X75239151Y80919284D01*
X75888003Y80918718D01*
X76487680Y81166499D01*
X76946888Y81624907D01*
X77195716Y82224151D01*
X77196282Y82873003D01*
X76948501Y83472680D01*
X76490093Y83931888D01*
X75890849Y84180716D01*
X75241997Y84181282D01*
X74642320Y83933501D01*
X74183112Y83475093D01*
X73934284Y82875849D01*
X73933718Y82226997D01*
X50814704Y82226997D01*
X50888774Y82405376D01*
X50889025Y82693361D01*
X50779050Y82959521D01*
X50575592Y83163335D01*
X50309624Y83273774D01*
X50021639Y83274025D01*
X49755479Y83164050D01*
X49551665Y82960592D01*
X49441226Y82694624D01*
X49440975Y82406639D01*
X23127000Y82406639D01*
X23127000Y84946639D01*
X30390975Y84946639D01*
X30500950Y84680479D01*
X30704408Y84476665D01*
X30970376Y84366226D01*
X31258361Y84365975D01*
X31524521Y84475950D01*
X31728335Y84679408D01*
X31838774Y84945376D01*
X31839025Y85233361D01*
X31729050Y85499521D01*
X31525592Y85703335D01*
X31259624Y85813774D01*
X30971639Y85814025D01*
X30705479Y85704050D01*
X30501665Y85500592D01*
X30391226Y85234624D01*
X30390975Y84946639D01*
X23127000Y84946639D01*
X23127000Y86216639D01*
X54520975Y86216639D01*
X54630950Y85950479D01*
X54834408Y85746665D01*
X55100376Y85636226D01*
X55388361Y85635975D01*
X55654521Y85745950D01*
X55858335Y85949408D01*
X55894704Y86036997D01*
X69323718Y86036997D01*
X69571499Y85437320D01*
X70029907Y84978112D01*
X70629151Y84729284D01*
X71278003Y84728718D01*
X71877680Y84976499D01*
X72336888Y85434907D01*
X72585716Y86034151D01*
X72586282Y86683003D01*
X72338501Y87282680D01*
X71880093Y87741888D01*
X71280849Y87990716D01*
X70631997Y87991282D01*
X70032320Y87743501D01*
X69573112Y87285093D01*
X69324284Y86685849D01*
X69323718Y86036997D01*
X55894704Y86036997D01*
X55968774Y86215376D01*
X55969025Y86503361D01*
X55859050Y86769521D01*
X55655592Y86973335D01*
X55389624Y87083774D01*
X55101639Y87084025D01*
X54835479Y86974050D01*
X54631665Y86770592D01*
X54521226Y86504624D01*
X54520975Y86216639D01*
X23127000Y86216639D01*
X23127000Y89391639D01*
X44360975Y89391639D01*
X44470950Y89125479D01*
X44674408Y88921665D01*
X44940376Y88811226D01*
X45228361Y88810975D01*
X45494521Y88920950D01*
X45698335Y89124408D01*
X45808774Y89390376D01*
X45809025Y89678361D01*
X45699050Y89944521D01*
X45617076Y90026639D01*
X57060975Y90026639D01*
X57170950Y89760479D01*
X57374408Y89556665D01*
X57640376Y89446226D01*
X57928361Y89445975D01*
X58194521Y89555950D01*
X58398335Y89759408D01*
X58508774Y90025376D01*
X58508775Y90026639D01*
X59600975Y90026639D01*
X59710950Y89760479D01*
X59914408Y89556665D01*
X60180376Y89446226D01*
X60468361Y89445975D01*
X60734521Y89555950D01*
X60938335Y89759408D01*
X61048774Y90025376D01*
X61049025Y90313361D01*
X60939050Y90579521D01*
X60735592Y90783335D01*
X60469624Y90893774D01*
X60181639Y90894025D01*
X59915479Y90784050D01*
X59711665Y90580592D01*
X59601226Y90314624D01*
X59600975Y90026639D01*
X58508775Y90026639D01*
X58509025Y90313361D01*
X58399050Y90579521D01*
X58195592Y90783335D01*
X57929624Y90893774D01*
X57641639Y90894025D01*
X57375479Y90784050D01*
X57171665Y90580592D01*
X57061226Y90314624D01*
X57060975Y90026639D01*
X45617076Y90026639D01*
X45495592Y90148335D01*
X45229624Y90258774D01*
X44941639Y90259025D01*
X44675479Y90149050D01*
X44471665Y89945592D01*
X44361226Y89679624D01*
X44360975Y89391639D01*
X23127000Y89391639D01*
X23127000Y93021997D01*
X27743718Y93021997D01*
X27991499Y92422320D01*
X28449907Y91963112D01*
X29049151Y91714284D01*
X29698003Y91713718D01*
X30297680Y91961499D01*
X30756888Y92419907D01*
X30817816Y92566639D01*
X51345975Y92566639D01*
X51455950Y92300479D01*
X51659408Y92096665D01*
X51925376Y91986226D01*
X52213361Y91985975D01*
X52479521Y92095950D01*
X52683335Y92299408D01*
X52793774Y92565376D01*
X52794025Y92853361D01*
X52684050Y93119521D01*
X52480592Y93323335D01*
X52214624Y93433774D01*
X51926639Y93434025D01*
X51660479Y93324050D01*
X51456665Y93120592D01*
X51346226Y92854624D01*
X51345975Y92566639D01*
X30817816Y92566639D01*
X31005716Y93019151D01*
X31005875Y93201639D01*
X39280975Y93201639D01*
X39390950Y92935479D01*
X39594408Y92731665D01*
X39860376Y92621226D01*
X40148361Y92620975D01*
X40414521Y92730950D01*
X40618335Y92934408D01*
X40728774Y93200376D01*
X40728775Y93201639D01*
X41820975Y93201639D01*
X41930950Y92935479D01*
X42134408Y92731665D01*
X42400376Y92621226D01*
X42688361Y92620975D01*
X42954521Y92730950D01*
X43158335Y92934408D01*
X43268774Y93200376D01*
X43269025Y93488361D01*
X43159050Y93754521D01*
X42955592Y93958335D01*
X42689624Y94068774D01*
X42401639Y94069025D01*
X42135479Y93959050D01*
X41931665Y93755592D01*
X41821226Y93489624D01*
X41820975Y93201639D01*
X40728775Y93201639D01*
X40729025Y93488361D01*
X40619050Y93754521D01*
X40415592Y93958335D01*
X40149624Y94068774D01*
X39861639Y94069025D01*
X39595479Y93959050D01*
X39391665Y93755592D01*
X39281226Y93489624D01*
X39280975Y93201639D01*
X31005875Y93201639D01*
X31006282Y93668003D01*
X30758501Y94267680D01*
X30554898Y94471639D01*
X68490975Y94471639D01*
X68600950Y94205479D01*
X68804408Y94001665D01*
X69070376Y93891226D01*
X69358361Y93890975D01*
X69624521Y94000950D01*
X69828335Y94204408D01*
X69938774Y94470376D01*
X69939025Y94758361D01*
X69829050Y95024521D01*
X69625592Y95228335D01*
X69359624Y95338774D01*
X69071639Y95339025D01*
X68805479Y95229050D01*
X68601665Y95025592D01*
X68491226Y94759624D01*
X68490975Y94471639D01*
X30554898Y94471639D01*
X30300093Y94726888D01*
X29700849Y94975716D01*
X29051997Y94976282D01*
X28452320Y94728501D01*
X27993112Y94270093D01*
X27744284Y93670849D01*
X27743718Y93021997D01*
X23127000Y93021997D01*
X23127000Y96831997D01*
X23133718Y96831997D01*
X23381499Y96232320D01*
X23839907Y95773112D01*
X24439151Y95524284D01*
X25088003Y95523718D01*
X25615413Y95741639D01*
X41820975Y95741639D01*
X41930950Y95475479D01*
X42134408Y95271665D01*
X42400376Y95161226D01*
X42688361Y95160975D01*
X42954521Y95270950D01*
X43158335Y95474408D01*
X43268774Y95740376D01*
X43269025Y96028361D01*
X43159050Y96294521D01*
X42955592Y96498335D01*
X42689624Y96608774D01*
X42401639Y96609025D01*
X42135479Y96499050D01*
X41931665Y96295592D01*
X41821226Y96029624D01*
X41820975Y95741639D01*
X25615413Y95741639D01*
X25687680Y95771499D01*
X26146888Y96229907D01*
X26395716Y96829151D01*
X26396282Y97478003D01*
X26326604Y97646639D01*
X38010975Y97646639D01*
X38120950Y97380479D01*
X38324408Y97176665D01*
X38590376Y97066226D01*
X38878361Y97065975D01*
X39144521Y97175950D01*
X39348335Y97379408D01*
X39458774Y97645376D01*
X39459025Y97933361D01*
X39349050Y98199521D01*
X39267076Y98281639D01*
X53885975Y98281639D01*
X53995950Y98015479D01*
X54199408Y97811665D01*
X54465376Y97701226D01*
X54753361Y97700975D01*
X55019521Y97810950D01*
X55223335Y98014408D01*
X55333774Y98280376D01*
X55333775Y98281639D01*
X68490975Y98281639D01*
X68600950Y98015479D01*
X68804408Y97811665D01*
X69070376Y97701226D01*
X69358361Y97700975D01*
X69624521Y97810950D01*
X69828335Y98014408D01*
X69938774Y98280376D01*
X69938775Y98281639D01*
X75475975Y98281639D01*
X75585950Y98015479D01*
X75789408Y97811665D01*
X76055376Y97701226D01*
X76343361Y97700975D01*
X76609521Y97810950D01*
X76813335Y98014408D01*
X76923774Y98280376D01*
X76924025Y98568361D01*
X76814050Y98834521D01*
X76610592Y99038335D01*
X76344624Y99148774D01*
X76056639Y99149025D01*
X75790479Y99039050D01*
X75586665Y98835592D01*
X75476226Y98569624D01*
X75475975Y98281639D01*
X69938775Y98281639D01*
X69939025Y98568361D01*
X69829050Y98834521D01*
X69625592Y99038335D01*
X69359624Y99148774D01*
X69071639Y99149025D01*
X68805479Y99039050D01*
X68601665Y98835592D01*
X68491226Y98569624D01*
X68490975Y98281639D01*
X55333775Y98281639D01*
X55334025Y98568361D01*
X55224050Y98834521D01*
X55020592Y99038335D01*
X54754624Y99148774D01*
X54466639Y99149025D01*
X54200479Y99039050D01*
X53996665Y98835592D01*
X53886226Y98569624D01*
X53885975Y98281639D01*
X39267076Y98281639D01*
X39145592Y98403335D01*
X38879624Y98513774D01*
X38591639Y98514025D01*
X38325479Y98404050D01*
X38121665Y98200592D01*
X38011226Y97934624D01*
X38010975Y97646639D01*
X26326604Y97646639D01*
X26148501Y98077680D01*
X25690093Y98536888D01*
X25090849Y98785716D01*
X24441997Y98786282D01*
X23842320Y98538501D01*
X23383112Y98080093D01*
X23134284Y97480849D01*
X23133718Y96831997D01*
X23127000Y96831997D01*
X23127000Y99544000D01*
X57245201Y99544000D01*
X57171665Y99470592D01*
M02*
