G04 #@! TF.FileFunction,Soldermask,Top*
%FSLAX46Y46*%
G04 Gerber Fmt 4.6, Leading zero omitted, Abs format (unit mm)*
G04 Created by KiCad (PCBNEW 4.0.2+dfsg1-stable) date Tue 05 Jun 2018 02:18:01 AM EDT*
%MOMM*%
G01*
G04 APERTURE LIST*
%ADD10C,0.150000*%
%ADD11R,2.900000X2.200000*%
%ADD12C,2.900000*%
%ADD13R,1.650000X1.400000*%
%ADD14R,1.400000X3.400000*%
%ADD15O,4.210000X2.940000*%
%ADD16O,2.127200X2.432000*%
%ADD17R,2.100000X2.100000*%
%ADD18O,2.100000X2.100000*%
%ADD19C,1.820000*%
%ADD20C,3.200000*%
%ADD21R,2.700000X2.700000*%
%ADD22C,2.700000*%
%ADD23R,1.300000X1.200000*%
%ADD24R,1.100000X1.700000*%
%ADD25R,1.700000X1.100000*%
%ADD26R,2.900000X1.400000*%
%ADD27R,1.400000X3.600000*%
%ADD28R,1.000000X1.950000*%
%ADD29R,4.200000X2.400000*%
%ADD30R,1.900000X2.400000*%
%ADD31R,1.700000X1.900000*%
G04 APERTURE END LIST*
D10*
D11*
X68040000Y44450000D03*
X64040000Y44450000D03*
D12*
X72110000Y44310000D03*
X72110000Y36690000D03*
X82270000Y44310000D03*
X89890000Y44310000D03*
X94500000Y40500000D03*
X84500000Y40500000D03*
X72500000Y40500000D03*
X67500000Y40500000D03*
D10*
G36*
X52127221Y50608311D02*
X51667602Y50148692D01*
X50465521Y51350773D01*
X50925140Y51810392D01*
X52127221Y50608311D01*
X52127221Y50608311D01*
G37*
G36*
X52480774Y50961864D02*
X52021155Y50502245D01*
X50819074Y51704326D01*
X51278693Y52163945D01*
X52480774Y50961864D01*
X52480774Y50961864D01*
G37*
G36*
X52834328Y51315418D02*
X52374709Y50855799D01*
X51172628Y52057880D01*
X51632247Y52517499D01*
X52834328Y51315418D01*
X52834328Y51315418D01*
G37*
G36*
X53187881Y51668971D02*
X52728262Y51209352D01*
X51526181Y52411433D01*
X51985800Y52871052D01*
X53187881Y51668971D01*
X53187881Y51668971D01*
G37*
G36*
X53541434Y52022524D02*
X53081815Y51562905D01*
X51879734Y52764986D01*
X52339353Y53224605D01*
X53541434Y52022524D01*
X53541434Y52022524D01*
G37*
G36*
X53894988Y52376078D02*
X53435369Y51916459D01*
X52233288Y53118540D01*
X52692907Y53578159D01*
X53894988Y52376078D01*
X53894988Y52376078D01*
G37*
G36*
X54248541Y52729631D02*
X53788922Y52270012D01*
X52586841Y53472093D01*
X53046460Y53931712D01*
X54248541Y52729631D01*
X54248541Y52729631D01*
G37*
G36*
X54602095Y53083185D02*
X54142476Y52623566D01*
X52940395Y53825647D01*
X53400014Y54285266D01*
X54602095Y53083185D01*
X54602095Y53083185D01*
G37*
G36*
X54955648Y53436738D02*
X54496029Y52977119D01*
X53293948Y54179200D01*
X53753567Y54638819D01*
X54955648Y53436738D01*
X54955648Y53436738D01*
G37*
G36*
X55309201Y53790291D02*
X54849582Y53330672D01*
X53647501Y54532753D01*
X54107120Y54992372D01*
X55309201Y53790291D01*
X55309201Y53790291D01*
G37*
G36*
X55662755Y54143845D02*
X55203136Y53684226D01*
X54001055Y54886307D01*
X54460674Y55345926D01*
X55662755Y54143845D01*
X55662755Y54143845D01*
G37*
G36*
X56016308Y54497398D02*
X55556689Y54037779D01*
X54354608Y55239860D01*
X54814227Y55699479D01*
X56016308Y54497398D01*
X56016308Y54497398D01*
G37*
G36*
X55556689Y57962221D02*
X56016308Y57502602D01*
X54814227Y56300521D01*
X54354608Y56760140D01*
X55556689Y57962221D01*
X55556689Y57962221D01*
G37*
G36*
X55203136Y58315774D02*
X55662755Y57856155D01*
X54460674Y56654074D01*
X54001055Y57113693D01*
X55203136Y58315774D01*
X55203136Y58315774D01*
G37*
G36*
X54849582Y58669328D02*
X55309201Y58209709D01*
X54107120Y57007628D01*
X53647501Y57467247D01*
X54849582Y58669328D01*
X54849582Y58669328D01*
G37*
G36*
X54496029Y59022881D02*
X54955648Y58563262D01*
X53753567Y57361181D01*
X53293948Y57820800D01*
X54496029Y59022881D01*
X54496029Y59022881D01*
G37*
G36*
X54142476Y59376434D02*
X54602095Y58916815D01*
X53400014Y57714734D01*
X52940395Y58174353D01*
X54142476Y59376434D01*
X54142476Y59376434D01*
G37*
G36*
X53788922Y59729988D02*
X54248541Y59270369D01*
X53046460Y58068288D01*
X52586841Y58527907D01*
X53788922Y59729988D01*
X53788922Y59729988D01*
G37*
G36*
X53435369Y60083541D02*
X53894988Y59623922D01*
X52692907Y58421841D01*
X52233288Y58881460D01*
X53435369Y60083541D01*
X53435369Y60083541D01*
G37*
G36*
X53081815Y60437095D02*
X53541434Y59977476D01*
X52339353Y58775395D01*
X51879734Y59235014D01*
X53081815Y60437095D01*
X53081815Y60437095D01*
G37*
G36*
X52728262Y60790648D02*
X53187881Y60331029D01*
X51985800Y59128948D01*
X51526181Y59588567D01*
X52728262Y60790648D01*
X52728262Y60790648D01*
G37*
G36*
X52374709Y61144201D02*
X52834328Y60684582D01*
X51632247Y59482501D01*
X51172628Y59942120D01*
X52374709Y61144201D01*
X52374709Y61144201D01*
G37*
G36*
X52021155Y61497755D02*
X52480774Y61038136D01*
X51278693Y59836055D01*
X50819074Y60295674D01*
X52021155Y61497755D01*
X52021155Y61497755D01*
G37*
G36*
X51667602Y61851308D02*
X52127221Y61391689D01*
X50925140Y60189608D01*
X50465521Y60649227D01*
X51667602Y61851308D01*
X51667602Y61851308D01*
G37*
G36*
X49864479Y60649227D02*
X49404860Y60189608D01*
X48202779Y61391689D01*
X48662398Y61851308D01*
X49864479Y60649227D01*
X49864479Y60649227D01*
G37*
G36*
X49510926Y60295674D02*
X49051307Y59836055D01*
X47849226Y61038136D01*
X48308845Y61497755D01*
X49510926Y60295674D01*
X49510926Y60295674D01*
G37*
G36*
X49157372Y59942120D02*
X48697753Y59482501D01*
X47495672Y60684582D01*
X47955291Y61144201D01*
X49157372Y59942120D01*
X49157372Y59942120D01*
G37*
G36*
X48803819Y59588567D02*
X48344200Y59128948D01*
X47142119Y60331029D01*
X47601738Y60790648D01*
X48803819Y59588567D01*
X48803819Y59588567D01*
G37*
G36*
X48450266Y59235014D02*
X47990647Y58775395D01*
X46788566Y59977476D01*
X47248185Y60437095D01*
X48450266Y59235014D01*
X48450266Y59235014D01*
G37*
G36*
X48096712Y58881460D02*
X47637093Y58421841D01*
X46435012Y59623922D01*
X46894631Y60083541D01*
X48096712Y58881460D01*
X48096712Y58881460D01*
G37*
G36*
X47743159Y58527907D02*
X47283540Y58068288D01*
X46081459Y59270369D01*
X46541078Y59729988D01*
X47743159Y58527907D01*
X47743159Y58527907D01*
G37*
G36*
X47389605Y58174353D02*
X46929986Y57714734D01*
X45727905Y58916815D01*
X46187524Y59376434D01*
X47389605Y58174353D01*
X47389605Y58174353D01*
G37*
G36*
X47036052Y57820800D02*
X46576433Y57361181D01*
X45374352Y58563262D01*
X45833971Y59022881D01*
X47036052Y57820800D01*
X47036052Y57820800D01*
G37*
G36*
X46682499Y57467247D02*
X46222880Y57007628D01*
X45020799Y58209709D01*
X45480418Y58669328D01*
X46682499Y57467247D01*
X46682499Y57467247D01*
G37*
G36*
X46328945Y57113693D02*
X45869326Y56654074D01*
X44667245Y57856155D01*
X45126864Y58315774D01*
X46328945Y57113693D01*
X46328945Y57113693D01*
G37*
G36*
X45975392Y56760140D02*
X45515773Y56300521D01*
X44313692Y57502602D01*
X44773311Y57962221D01*
X45975392Y56760140D01*
X45975392Y56760140D01*
G37*
G36*
X45515773Y55699479D02*
X45975392Y55239860D01*
X44773311Y54037779D01*
X44313692Y54497398D01*
X45515773Y55699479D01*
X45515773Y55699479D01*
G37*
G36*
X45869326Y55345926D02*
X46328945Y54886307D01*
X45126864Y53684226D01*
X44667245Y54143845D01*
X45869326Y55345926D01*
X45869326Y55345926D01*
G37*
G36*
X46222880Y54992372D02*
X46682499Y54532753D01*
X45480418Y53330672D01*
X45020799Y53790291D01*
X46222880Y54992372D01*
X46222880Y54992372D01*
G37*
G36*
X46576433Y54638819D02*
X47036052Y54179200D01*
X45833971Y52977119D01*
X45374352Y53436738D01*
X46576433Y54638819D01*
X46576433Y54638819D01*
G37*
G36*
X46929986Y54285266D02*
X47389605Y53825647D01*
X46187524Y52623566D01*
X45727905Y53083185D01*
X46929986Y54285266D01*
X46929986Y54285266D01*
G37*
G36*
X47283540Y53931712D02*
X47743159Y53472093D01*
X46541078Y52270012D01*
X46081459Y52729631D01*
X47283540Y53931712D01*
X47283540Y53931712D01*
G37*
G36*
X47637093Y53578159D02*
X48096712Y53118540D01*
X46894631Y51916459D01*
X46435012Y52376078D01*
X47637093Y53578159D01*
X47637093Y53578159D01*
G37*
G36*
X47990647Y53224605D02*
X48450266Y52764986D01*
X47248185Y51562905D01*
X46788566Y52022524D01*
X47990647Y53224605D01*
X47990647Y53224605D01*
G37*
G36*
X48344200Y52871052D02*
X48803819Y52411433D01*
X47601738Y51209352D01*
X47142119Y51668971D01*
X48344200Y52871052D01*
X48344200Y52871052D01*
G37*
G36*
X48697753Y52517499D02*
X49157372Y52057880D01*
X47955291Y50855799D01*
X47495672Y51315418D01*
X48697753Y52517499D01*
X48697753Y52517499D01*
G37*
G36*
X49051307Y52163945D02*
X49510926Y51704326D01*
X48308845Y50502245D01*
X47849226Y50961864D01*
X49051307Y52163945D01*
X49051307Y52163945D01*
G37*
G36*
X49404860Y51810392D02*
X49864479Y51350773D01*
X48662398Y50148692D01*
X48202779Y50608311D01*
X49404860Y51810392D01*
X49404860Y51810392D01*
G37*
G36*
X57030445Y60341281D02*
X55863719Y59174555D01*
X54873769Y60164505D01*
X56040495Y61331231D01*
X57030445Y60341281D01*
X57030445Y60341281D01*
G37*
G36*
X55616231Y61755495D02*
X54449505Y60588769D01*
X53459555Y61578719D01*
X54626281Y62745445D01*
X55616231Y61755495D01*
X55616231Y61755495D01*
G37*
G36*
X46870445Y50816281D02*
X45703719Y49649555D01*
X44713769Y50639505D01*
X45880495Y51806231D01*
X46870445Y50816281D01*
X46870445Y50816281D01*
G37*
G36*
X45456231Y52230495D02*
X44289505Y51063769D01*
X43299555Y52053719D01*
X44466281Y53220445D01*
X45456231Y52230495D01*
X45456231Y52230495D01*
G37*
G36*
X47505445Y61611281D02*
X46338719Y60444555D01*
X45348769Y61434505D01*
X46515495Y62601231D01*
X47505445Y61611281D01*
X47505445Y61611281D01*
G37*
G36*
X46091231Y63025495D02*
X44924505Y61858769D01*
X43934555Y62848719D01*
X45101281Y64015445D01*
X46091231Y63025495D01*
X46091231Y63025495D01*
G37*
G36*
X55863719Y53220445D02*
X57030445Y52053719D01*
X56040495Y51063769D01*
X54873769Y52230495D01*
X55863719Y53220445D01*
X55863719Y53220445D01*
G37*
G36*
X54449505Y51806231D02*
X55616231Y50639505D01*
X54626281Y49649555D01*
X53459555Y50816281D01*
X54449505Y51806231D01*
X54449505Y51806231D01*
G37*
D13*
X54610000Y19955000D03*
X54610000Y21955000D03*
X34925000Y11700000D03*
X34925000Y13700000D03*
X37465000Y11700000D03*
X37465000Y13700000D03*
D14*
X85485000Y8255000D03*
X80885000Y8255000D03*
D12*
X27890000Y89690000D03*
X27890000Y97310000D03*
X17730000Y89690000D03*
X10110000Y89690000D03*
X5500000Y93500000D03*
X15500000Y93500000D03*
X27500000Y93500000D03*
X32500000Y93500000D03*
X72110000Y88310000D03*
X72110000Y80690000D03*
X82270000Y88310000D03*
X89890000Y88310000D03*
X94500000Y84500000D03*
X84500000Y84500000D03*
X72500000Y84500000D03*
X67500000Y84500000D03*
X72110000Y66310000D03*
X72110000Y58690000D03*
X82270000Y66310000D03*
X89890000Y66310000D03*
X94500000Y62500000D03*
X84500000Y62500000D03*
X72500000Y62500000D03*
X67500000Y62500000D03*
X72110000Y22310000D03*
X72110000Y14690000D03*
X82270000Y22310000D03*
X89890000Y22310000D03*
X94500000Y18500000D03*
X84500000Y18500000D03*
X72500000Y18500000D03*
X67500000Y18500000D03*
X27890000Y23690000D03*
X27890000Y31310000D03*
X17730000Y23690000D03*
X10110000Y23690000D03*
X5500000Y27500000D03*
X15500000Y27500000D03*
X27500000Y27500000D03*
X32500000Y27500000D03*
X27890000Y45690000D03*
X27890000Y53310000D03*
X17730000Y45690000D03*
X10110000Y45690000D03*
X5500000Y49500000D03*
X15500000Y49500000D03*
X27500000Y49500000D03*
X32500000Y49500000D03*
X27890000Y67690000D03*
X27890000Y75310000D03*
X17730000Y67690000D03*
X10110000Y67690000D03*
X5500000Y71500000D03*
X15500000Y71500000D03*
X27500000Y71500000D03*
X32500000Y71500000D03*
D15*
X16050000Y83500000D03*
X21130000Y83500000D03*
D16*
X35100000Y84074800D03*
X37640000Y84074800D03*
X40180000Y84074800D03*
D15*
X83950000Y94500000D03*
X78870000Y94500000D03*
D16*
X64900000Y93925200D03*
X62360000Y93925200D03*
X59820000Y93925200D03*
D15*
X83950000Y72500000D03*
X78870000Y72500000D03*
D16*
X64900000Y71925200D03*
X62360000Y71925200D03*
X59820000Y71925200D03*
D15*
X83950000Y50500000D03*
X78870000Y50500000D03*
D16*
X64900000Y49925200D03*
X62360000Y49925200D03*
X59820000Y49925200D03*
D15*
X83950000Y28500000D03*
X78870000Y28500000D03*
D16*
X64900000Y27925200D03*
X62360000Y27925200D03*
X59820000Y27925200D03*
D15*
X16050000Y17500000D03*
X21130000Y17500000D03*
D16*
X35100000Y18074800D03*
X37640000Y18074800D03*
X40180000Y18074800D03*
D15*
X16050000Y39500000D03*
X21130000Y39500000D03*
D16*
X35100000Y40074800D03*
X37640000Y40074800D03*
X40180000Y40074800D03*
D15*
X16000000Y61500000D03*
X21080000Y61500000D03*
D16*
X35050000Y62074800D03*
X37590000Y62074800D03*
X40130000Y62074800D03*
D17*
X50165000Y66040000D03*
D18*
X50165000Y68580000D03*
X50165000Y71120000D03*
X50165000Y73660000D03*
X50165000Y76200000D03*
X50165000Y78740000D03*
D19*
X46500000Y13725005D03*
X49000000Y13725005D03*
X51000000Y13725005D03*
X53500000Y13725005D03*
X46500000Y11105005D03*
X49000000Y11105005D03*
X51000000Y11105005D03*
X53500000Y11105005D03*
D20*
X56570000Y8395005D03*
X56570000Y14075005D03*
X43430000Y14075005D03*
X43430000Y8395005D03*
D21*
X95500000Y8040000D03*
D22*
X95500000Y2960000D03*
D21*
X4445000Y8040000D03*
D22*
X4445000Y2960000D03*
D23*
X41640000Y96205000D03*
X41640000Y98105000D03*
X39640000Y97155000D03*
X58690000Y80960000D03*
X58690000Y79060000D03*
X60690000Y80010000D03*
X58690000Y59370000D03*
X58690000Y57470000D03*
X60690000Y58420000D03*
X58690000Y37145000D03*
X58690000Y35245000D03*
X60690000Y36195000D03*
X58690000Y20000000D03*
X58690000Y18100000D03*
X60690000Y19050000D03*
X41640000Y30800000D03*
X41640000Y32700000D03*
X39640000Y31750000D03*
X41640000Y52390000D03*
X41640000Y54290000D03*
X39640000Y53340000D03*
X41640000Y75250000D03*
X41640000Y77150000D03*
X39640000Y76200000D03*
X54975000Y33975000D03*
X54975000Y35875000D03*
X52975000Y34925000D03*
X54975000Y39055000D03*
X54975000Y40955000D03*
X52975000Y40005000D03*
X54975000Y28895000D03*
X54975000Y30795000D03*
X52975000Y29845000D03*
D24*
X39690000Y89535000D03*
X41590000Y89535000D03*
X39690000Y93345000D03*
X41590000Y93345000D03*
X41590000Y81915000D03*
X39690000Y81915000D03*
X60640000Y84455000D03*
X58740000Y84455000D03*
X60640000Y88265000D03*
X58740000Y88265000D03*
X58740000Y76835000D03*
X60640000Y76835000D03*
X60640000Y62865000D03*
X58740000Y62865000D03*
X60640000Y66675000D03*
X58740000Y66675000D03*
X58740000Y74295000D03*
X60640000Y74295000D03*
X60640000Y40640000D03*
X58740000Y40640000D03*
X60640000Y44450000D03*
X58740000Y44450000D03*
X58740000Y30480000D03*
X60640000Y30480000D03*
X60640000Y22860000D03*
X58740000Y22860000D03*
D25*
X59690000Y14920000D03*
X59690000Y13020000D03*
D24*
X58740000Y33020000D03*
X60640000Y33020000D03*
X39690000Y22860000D03*
X41590000Y22860000D03*
X39690000Y26670000D03*
X41590000Y26670000D03*
X41590000Y34925000D03*
X39690000Y34925000D03*
X39690000Y49530000D03*
X41590000Y49530000D03*
X39690000Y45720000D03*
X41590000Y45720000D03*
X41590000Y37465000D03*
X39690000Y37465000D03*
X39690000Y67310000D03*
X41590000Y67310000D03*
X39690000Y71120000D03*
X41590000Y71120000D03*
X41590000Y79375000D03*
X39690000Y79375000D03*
X48575000Y36195000D03*
X46675000Y36195000D03*
X48575000Y33655000D03*
X46675000Y33655000D03*
D25*
X50800000Y33975000D03*
X50800000Y35875000D03*
D24*
X48580000Y41275000D03*
X50480000Y41275000D03*
X48580000Y31115000D03*
X50480000Y31115000D03*
X48580000Y38735000D03*
X50480000Y38735000D03*
X48580000Y28575000D03*
X50480000Y28575000D03*
D25*
X53340000Y44770000D03*
X53340000Y46670000D03*
X46990000Y44770000D03*
X46990000Y46670000D03*
X50165000Y44770000D03*
X50165000Y46670000D03*
X59690000Y7935000D03*
X59690000Y6035000D03*
D26*
X89535000Y3265000D03*
X89535000Y8165000D03*
D27*
X86920000Y3175000D03*
X80720000Y3175000D03*
D25*
X62865000Y6035000D03*
X62865000Y7935000D03*
X66040000Y6035000D03*
X66040000Y7935000D03*
D27*
X17705000Y8255000D03*
X11505000Y8255000D03*
X17705000Y3175000D03*
X11505000Y3175000D03*
D28*
X52070000Y25560000D03*
X50800000Y25560000D03*
X49530000Y25560000D03*
X48260000Y25560000D03*
X48260000Y20160000D03*
X49530000Y20160000D03*
X50800000Y20160000D03*
X52070000Y20160000D03*
D29*
X37465000Y2565000D03*
D30*
X37465000Y8865000D03*
X35165000Y8865000D03*
X39765000Y8865000D03*
D31*
X78160000Y4445000D03*
X78160000Y1905000D03*
X78160000Y9525000D03*
X78160000Y6985000D03*
X69160000Y9525000D03*
X69160000Y6985000D03*
X69160000Y4445000D03*
X69160000Y1905000D03*
X21535000Y6985000D03*
X21535000Y9525000D03*
X21535000Y1905000D03*
X21535000Y4445000D03*
X30535000Y1905000D03*
X30535000Y4445000D03*
X30535000Y6985000D03*
X30535000Y9525000D03*
D10*
G36*
X43745685Y58558629D02*
X42048629Y60255685D01*
X42614315Y60821371D01*
X44311371Y59124315D01*
X43745685Y58558629D01*
X43745685Y58558629D01*
G37*
G36*
X44594213Y59407157D02*
X42897157Y61104213D01*
X43462843Y61669899D01*
X45159899Y59972843D01*
X44594213Y59407157D01*
X44594213Y59407157D01*
G37*
G36*
X42897157Y57710101D02*
X41200101Y59407157D01*
X41765787Y59972843D01*
X43462843Y58275787D01*
X42897157Y57710101D01*
X42897157Y57710101D01*
G37*
D11*
X32290000Y88900000D03*
X36290000Y88900000D03*
X68040000Y88900000D03*
X64040000Y88900000D03*
X68040000Y66040000D03*
X64040000Y66040000D03*
X68040000Y22860000D03*
X64040000Y22860000D03*
X32290000Y22860000D03*
X36290000Y22860000D03*
X32290000Y45720000D03*
X36290000Y45720000D03*
X32290000Y67310000D03*
X36290000Y67310000D03*
M02*
