G04 #@! TF.FileFunction,Copper,L1,Top,Mixed*
%FSLAX46Y46*%
G04 Gerber Fmt 4.6, Leading zero omitted, Abs format (unit mm)*
G04 Created by KiCad (PCBNEW 4.0.2+dfsg1-stable) date Tue 05 Jun 2018 02:18:01 AM EDT*
%MOMM*%
G01*
G04 APERTURE LIST*
%ADD10C,0.150000*%
%ADD11R,2.500000X1.800000*%
%ADD12C,2.500000*%
%ADD13R,1.250000X1.000000*%
%ADD14R,1.000000X3.000000*%
%ADD15O,3.810000X2.540000*%
%ADD16O,1.727200X2.032000*%
%ADD17R,1.700000X1.700000*%
%ADD18O,1.700000X1.700000*%
%ADD19C,1.420000*%
%ADD20C,2.800000*%
%ADD21R,2.300000X2.300000*%
%ADD22C,2.300000*%
%ADD23R,0.900000X0.800000*%
%ADD24R,0.700000X1.300000*%
%ADD25R,1.300000X0.700000*%
%ADD26R,2.500000X1.000000*%
%ADD27R,1.000000X3.200000*%
%ADD28R,0.600000X1.550000*%
%ADD29R,3.800000X2.000000*%
%ADD30R,1.500000X2.000000*%
%ADD31R,1.300000X1.500000*%
%ADD32C,0.685800*%
%ADD33C,0.750000*%
%ADD34C,0.254000*%
%ADD35C,0.762000*%
%ADD36C,0.508000*%
G04 APERTURE END LIST*
D10*
D11*
X68040000Y44450000D03*
X64040000Y44450000D03*
D12*
X72110000Y44310000D03*
X72110000Y36690000D03*
X82270000Y44310000D03*
X89890000Y44310000D03*
X94500000Y40500000D03*
X84500000Y40500000D03*
X72500000Y40500000D03*
X67500000Y40500000D03*
D10*
G36*
X51844379Y50608311D02*
X51667602Y50431534D01*
X50748363Y51350773D01*
X50925140Y51527550D01*
X51844379Y50608311D01*
X51844379Y50608311D01*
G37*
G36*
X52197932Y50961864D02*
X52021155Y50785087D01*
X51101916Y51704326D01*
X51278693Y51881103D01*
X52197932Y50961864D01*
X52197932Y50961864D01*
G37*
G36*
X52551486Y51315418D02*
X52374709Y51138641D01*
X51455470Y52057880D01*
X51632247Y52234657D01*
X52551486Y51315418D01*
X52551486Y51315418D01*
G37*
G36*
X52905039Y51668971D02*
X52728262Y51492194D01*
X51809023Y52411433D01*
X51985800Y52588210D01*
X52905039Y51668971D01*
X52905039Y51668971D01*
G37*
G36*
X53258592Y52022524D02*
X53081815Y51845747D01*
X52162576Y52764986D01*
X52339353Y52941763D01*
X53258592Y52022524D01*
X53258592Y52022524D01*
G37*
G36*
X53612146Y52376078D02*
X53435369Y52199301D01*
X52516130Y53118540D01*
X52692907Y53295317D01*
X53612146Y52376078D01*
X53612146Y52376078D01*
G37*
G36*
X53965699Y52729631D02*
X53788922Y52552854D01*
X52869683Y53472093D01*
X53046460Y53648870D01*
X53965699Y52729631D01*
X53965699Y52729631D01*
G37*
G36*
X54319253Y53083185D02*
X54142476Y52906408D01*
X53223237Y53825647D01*
X53400014Y54002424D01*
X54319253Y53083185D01*
X54319253Y53083185D01*
G37*
G36*
X54672806Y53436738D02*
X54496029Y53259961D01*
X53576790Y54179200D01*
X53753567Y54355977D01*
X54672806Y53436738D01*
X54672806Y53436738D01*
G37*
G36*
X55026359Y53790291D02*
X54849582Y53613514D01*
X53930343Y54532753D01*
X54107120Y54709530D01*
X55026359Y53790291D01*
X55026359Y53790291D01*
G37*
G36*
X55379913Y54143845D02*
X55203136Y53967068D01*
X54283897Y54886307D01*
X54460674Y55063084D01*
X55379913Y54143845D01*
X55379913Y54143845D01*
G37*
G36*
X55733466Y54497398D02*
X55556689Y54320621D01*
X54637450Y55239860D01*
X54814227Y55416637D01*
X55733466Y54497398D01*
X55733466Y54497398D01*
G37*
G36*
X55556689Y57679379D02*
X55733466Y57502602D01*
X54814227Y56583363D01*
X54637450Y56760140D01*
X55556689Y57679379D01*
X55556689Y57679379D01*
G37*
G36*
X55203136Y58032932D02*
X55379913Y57856155D01*
X54460674Y56936916D01*
X54283897Y57113693D01*
X55203136Y58032932D01*
X55203136Y58032932D01*
G37*
G36*
X54849582Y58386486D02*
X55026359Y58209709D01*
X54107120Y57290470D01*
X53930343Y57467247D01*
X54849582Y58386486D01*
X54849582Y58386486D01*
G37*
G36*
X54496029Y58740039D02*
X54672806Y58563262D01*
X53753567Y57644023D01*
X53576790Y57820800D01*
X54496029Y58740039D01*
X54496029Y58740039D01*
G37*
G36*
X54142476Y59093592D02*
X54319253Y58916815D01*
X53400014Y57997576D01*
X53223237Y58174353D01*
X54142476Y59093592D01*
X54142476Y59093592D01*
G37*
G36*
X53788922Y59447146D02*
X53965699Y59270369D01*
X53046460Y58351130D01*
X52869683Y58527907D01*
X53788922Y59447146D01*
X53788922Y59447146D01*
G37*
G36*
X53435369Y59800699D02*
X53612146Y59623922D01*
X52692907Y58704683D01*
X52516130Y58881460D01*
X53435369Y59800699D01*
X53435369Y59800699D01*
G37*
G36*
X53081815Y60154253D02*
X53258592Y59977476D01*
X52339353Y59058237D01*
X52162576Y59235014D01*
X53081815Y60154253D01*
X53081815Y60154253D01*
G37*
G36*
X52728262Y60507806D02*
X52905039Y60331029D01*
X51985800Y59411790D01*
X51809023Y59588567D01*
X52728262Y60507806D01*
X52728262Y60507806D01*
G37*
G36*
X52374709Y60861359D02*
X52551486Y60684582D01*
X51632247Y59765343D01*
X51455470Y59942120D01*
X52374709Y60861359D01*
X52374709Y60861359D01*
G37*
G36*
X52021155Y61214913D02*
X52197932Y61038136D01*
X51278693Y60118897D01*
X51101916Y60295674D01*
X52021155Y61214913D01*
X52021155Y61214913D01*
G37*
G36*
X51667602Y61568466D02*
X51844379Y61391689D01*
X50925140Y60472450D01*
X50748363Y60649227D01*
X51667602Y61568466D01*
X51667602Y61568466D01*
G37*
G36*
X49581637Y60649227D02*
X49404860Y60472450D01*
X48485621Y61391689D01*
X48662398Y61568466D01*
X49581637Y60649227D01*
X49581637Y60649227D01*
G37*
G36*
X49228084Y60295674D02*
X49051307Y60118897D01*
X48132068Y61038136D01*
X48308845Y61214913D01*
X49228084Y60295674D01*
X49228084Y60295674D01*
G37*
G36*
X48874530Y59942120D02*
X48697753Y59765343D01*
X47778514Y60684582D01*
X47955291Y60861359D01*
X48874530Y59942120D01*
X48874530Y59942120D01*
G37*
G36*
X48520977Y59588567D02*
X48344200Y59411790D01*
X47424961Y60331029D01*
X47601738Y60507806D01*
X48520977Y59588567D01*
X48520977Y59588567D01*
G37*
G36*
X48167424Y59235014D02*
X47990647Y59058237D01*
X47071408Y59977476D01*
X47248185Y60154253D01*
X48167424Y59235014D01*
X48167424Y59235014D01*
G37*
G36*
X47813870Y58881460D02*
X47637093Y58704683D01*
X46717854Y59623922D01*
X46894631Y59800699D01*
X47813870Y58881460D01*
X47813870Y58881460D01*
G37*
G36*
X47460317Y58527907D02*
X47283540Y58351130D01*
X46364301Y59270369D01*
X46541078Y59447146D01*
X47460317Y58527907D01*
X47460317Y58527907D01*
G37*
G36*
X47106763Y58174353D02*
X46929986Y57997576D01*
X46010747Y58916815D01*
X46187524Y59093592D01*
X47106763Y58174353D01*
X47106763Y58174353D01*
G37*
G36*
X46753210Y57820800D02*
X46576433Y57644023D01*
X45657194Y58563262D01*
X45833971Y58740039D01*
X46753210Y57820800D01*
X46753210Y57820800D01*
G37*
G36*
X46399657Y57467247D02*
X46222880Y57290470D01*
X45303641Y58209709D01*
X45480418Y58386486D01*
X46399657Y57467247D01*
X46399657Y57467247D01*
G37*
G36*
X46046103Y57113693D02*
X45869326Y56936916D01*
X44950087Y57856155D01*
X45126864Y58032932D01*
X46046103Y57113693D01*
X46046103Y57113693D01*
G37*
G36*
X45692550Y56760140D02*
X45515773Y56583363D01*
X44596534Y57502602D01*
X44773311Y57679379D01*
X45692550Y56760140D01*
X45692550Y56760140D01*
G37*
G36*
X45515773Y55416637D02*
X45692550Y55239860D01*
X44773311Y54320621D01*
X44596534Y54497398D01*
X45515773Y55416637D01*
X45515773Y55416637D01*
G37*
G36*
X45869326Y55063084D02*
X46046103Y54886307D01*
X45126864Y53967068D01*
X44950087Y54143845D01*
X45869326Y55063084D01*
X45869326Y55063084D01*
G37*
G36*
X46222880Y54709530D02*
X46399657Y54532753D01*
X45480418Y53613514D01*
X45303641Y53790291D01*
X46222880Y54709530D01*
X46222880Y54709530D01*
G37*
G36*
X46576433Y54355977D02*
X46753210Y54179200D01*
X45833971Y53259961D01*
X45657194Y53436738D01*
X46576433Y54355977D01*
X46576433Y54355977D01*
G37*
G36*
X46929986Y54002424D02*
X47106763Y53825647D01*
X46187524Y52906408D01*
X46010747Y53083185D01*
X46929986Y54002424D01*
X46929986Y54002424D01*
G37*
G36*
X47283540Y53648870D02*
X47460317Y53472093D01*
X46541078Y52552854D01*
X46364301Y52729631D01*
X47283540Y53648870D01*
X47283540Y53648870D01*
G37*
G36*
X47637093Y53295317D02*
X47813870Y53118540D01*
X46894631Y52199301D01*
X46717854Y52376078D01*
X47637093Y53295317D01*
X47637093Y53295317D01*
G37*
G36*
X47990647Y52941763D02*
X48167424Y52764986D01*
X47248185Y51845747D01*
X47071408Y52022524D01*
X47990647Y52941763D01*
X47990647Y52941763D01*
G37*
G36*
X48344200Y52588210D02*
X48520977Y52411433D01*
X47601738Y51492194D01*
X47424961Y51668971D01*
X48344200Y52588210D01*
X48344200Y52588210D01*
G37*
G36*
X48697753Y52234657D02*
X48874530Y52057880D01*
X47955291Y51138641D01*
X47778514Y51315418D01*
X48697753Y52234657D01*
X48697753Y52234657D01*
G37*
G36*
X49051307Y51881103D02*
X49228084Y51704326D01*
X48308845Y50785087D01*
X48132068Y50961864D01*
X49051307Y51881103D01*
X49051307Y51881103D01*
G37*
G36*
X49404860Y51527550D02*
X49581637Y51350773D01*
X48662398Y50431534D01*
X48485621Y50608311D01*
X49404860Y51527550D01*
X49404860Y51527550D01*
G37*
G36*
X56747602Y60341281D02*
X55863719Y59457398D01*
X55156612Y60164505D01*
X56040495Y61048388D01*
X56747602Y60341281D01*
X56747602Y60341281D01*
G37*
G36*
X55333388Y61755495D02*
X54449505Y60871612D01*
X53742398Y61578719D01*
X54626281Y62462602D01*
X55333388Y61755495D01*
X55333388Y61755495D01*
G37*
G36*
X46587602Y50816281D02*
X45703719Y49932398D01*
X44996612Y50639505D01*
X45880495Y51523388D01*
X46587602Y50816281D01*
X46587602Y50816281D01*
G37*
G36*
X45173388Y52230495D02*
X44289505Y51346612D01*
X43582398Y52053719D01*
X44466281Y52937602D01*
X45173388Y52230495D01*
X45173388Y52230495D01*
G37*
G36*
X47222602Y61611281D02*
X46338719Y60727398D01*
X45631612Y61434505D01*
X46515495Y62318388D01*
X47222602Y61611281D01*
X47222602Y61611281D01*
G37*
G36*
X45808388Y63025495D02*
X44924505Y62141612D01*
X44217398Y62848719D01*
X45101281Y63732602D01*
X45808388Y63025495D01*
X45808388Y63025495D01*
G37*
G36*
X55863719Y52937602D02*
X56747602Y52053719D01*
X56040495Y51346612D01*
X55156612Y52230495D01*
X55863719Y52937602D01*
X55863719Y52937602D01*
G37*
G36*
X54449505Y51523388D02*
X55333388Y50639505D01*
X54626281Y49932398D01*
X53742398Y50816281D01*
X54449505Y51523388D01*
X54449505Y51523388D01*
G37*
D13*
X54610000Y19955000D03*
X54610000Y21955000D03*
X34925000Y11700000D03*
X34925000Y13700000D03*
X37465000Y11700000D03*
X37465000Y13700000D03*
D14*
X85485000Y8255000D03*
X80885000Y8255000D03*
D12*
X27890000Y89690000D03*
X27890000Y97310000D03*
X17730000Y89690000D03*
X10110000Y89690000D03*
X5500000Y93500000D03*
X15500000Y93500000D03*
X27500000Y93500000D03*
X32500000Y93500000D03*
X72110000Y88310000D03*
X72110000Y80690000D03*
X82270000Y88310000D03*
X89890000Y88310000D03*
X94500000Y84500000D03*
X84500000Y84500000D03*
X72500000Y84500000D03*
X67500000Y84500000D03*
X72110000Y66310000D03*
X72110000Y58690000D03*
X82270000Y66310000D03*
X89890000Y66310000D03*
X94500000Y62500000D03*
X84500000Y62500000D03*
X72500000Y62500000D03*
X67500000Y62500000D03*
X72110000Y22310000D03*
X72110000Y14690000D03*
X82270000Y22310000D03*
X89890000Y22310000D03*
X94500000Y18500000D03*
X84500000Y18500000D03*
X72500000Y18500000D03*
X67500000Y18500000D03*
X27890000Y23690000D03*
X27890000Y31310000D03*
X17730000Y23690000D03*
X10110000Y23690000D03*
X5500000Y27500000D03*
X15500000Y27500000D03*
X27500000Y27500000D03*
X32500000Y27500000D03*
X27890000Y45690000D03*
X27890000Y53310000D03*
X17730000Y45690000D03*
X10110000Y45690000D03*
X5500000Y49500000D03*
X15500000Y49500000D03*
X27500000Y49500000D03*
X32500000Y49500000D03*
X27890000Y67690000D03*
X27890000Y75310000D03*
X17730000Y67690000D03*
X10110000Y67690000D03*
X5500000Y71500000D03*
X15500000Y71500000D03*
X27500000Y71500000D03*
X32500000Y71500000D03*
D15*
X16050000Y83500000D03*
X21130000Y83500000D03*
D16*
X35100000Y84074800D03*
X37640000Y84074800D03*
X40180000Y84074800D03*
D15*
X83950000Y94500000D03*
X78870000Y94500000D03*
D16*
X64900000Y93925200D03*
X62360000Y93925200D03*
X59820000Y93925200D03*
D15*
X83950000Y72500000D03*
X78870000Y72500000D03*
D16*
X64900000Y71925200D03*
X62360000Y71925200D03*
X59820000Y71925200D03*
D15*
X83950000Y50500000D03*
X78870000Y50500000D03*
D16*
X64900000Y49925200D03*
X62360000Y49925200D03*
X59820000Y49925200D03*
D15*
X83950000Y28500000D03*
X78870000Y28500000D03*
D16*
X64900000Y27925200D03*
X62360000Y27925200D03*
X59820000Y27925200D03*
D15*
X16050000Y17500000D03*
X21130000Y17500000D03*
D16*
X35100000Y18074800D03*
X37640000Y18074800D03*
X40180000Y18074800D03*
D15*
X16050000Y39500000D03*
X21130000Y39500000D03*
D16*
X35100000Y40074800D03*
X37640000Y40074800D03*
X40180000Y40074800D03*
D15*
X16000000Y61500000D03*
X21080000Y61500000D03*
D16*
X35050000Y62074800D03*
X37590000Y62074800D03*
X40130000Y62074800D03*
D17*
X50165000Y66040000D03*
D18*
X50165000Y68580000D03*
X50165000Y71120000D03*
X50165000Y73660000D03*
X50165000Y76200000D03*
X50165000Y78740000D03*
D19*
X46500000Y13725005D03*
X49000000Y13725005D03*
X51000000Y13725005D03*
X53500000Y13725005D03*
X46500000Y11105005D03*
X49000000Y11105005D03*
X51000000Y11105005D03*
X53500000Y11105005D03*
D20*
X56570000Y8395005D03*
X56570000Y14075005D03*
X43430000Y14075005D03*
X43430000Y8395005D03*
D21*
X95500000Y8040000D03*
D22*
X95500000Y2960000D03*
D21*
X4445000Y8040000D03*
D22*
X4445000Y2960000D03*
D23*
X41640000Y96205000D03*
X41640000Y98105000D03*
X39640000Y97155000D03*
X58690000Y80960000D03*
X58690000Y79060000D03*
X60690000Y80010000D03*
X58690000Y59370000D03*
X58690000Y57470000D03*
X60690000Y58420000D03*
X58690000Y37145000D03*
X58690000Y35245000D03*
X60690000Y36195000D03*
X58690000Y20000000D03*
X58690000Y18100000D03*
X60690000Y19050000D03*
X41640000Y30800000D03*
X41640000Y32700000D03*
X39640000Y31750000D03*
X41640000Y52390000D03*
X41640000Y54290000D03*
X39640000Y53340000D03*
X41640000Y75250000D03*
X41640000Y77150000D03*
X39640000Y76200000D03*
X54975000Y33975000D03*
X54975000Y35875000D03*
X52975000Y34925000D03*
X54975000Y39055000D03*
X54975000Y40955000D03*
X52975000Y40005000D03*
X54975000Y28895000D03*
X54975000Y30795000D03*
X52975000Y29845000D03*
D24*
X39690000Y89535000D03*
X41590000Y89535000D03*
X39690000Y93345000D03*
X41590000Y93345000D03*
X41590000Y81915000D03*
X39690000Y81915000D03*
X60640000Y84455000D03*
X58740000Y84455000D03*
X60640000Y88265000D03*
X58740000Y88265000D03*
X58740000Y76835000D03*
X60640000Y76835000D03*
X60640000Y62865000D03*
X58740000Y62865000D03*
X60640000Y66675000D03*
X58740000Y66675000D03*
X58740000Y74295000D03*
X60640000Y74295000D03*
X60640000Y40640000D03*
X58740000Y40640000D03*
X60640000Y44450000D03*
X58740000Y44450000D03*
X58740000Y30480000D03*
X60640000Y30480000D03*
X60640000Y22860000D03*
X58740000Y22860000D03*
D25*
X59690000Y14920000D03*
X59690000Y13020000D03*
D24*
X58740000Y33020000D03*
X60640000Y33020000D03*
X39690000Y22860000D03*
X41590000Y22860000D03*
X39690000Y26670000D03*
X41590000Y26670000D03*
X41590000Y34925000D03*
X39690000Y34925000D03*
X39690000Y49530000D03*
X41590000Y49530000D03*
X39690000Y45720000D03*
X41590000Y45720000D03*
X41590000Y37465000D03*
X39690000Y37465000D03*
X39690000Y67310000D03*
X41590000Y67310000D03*
X39690000Y71120000D03*
X41590000Y71120000D03*
X41590000Y79375000D03*
X39690000Y79375000D03*
X48575000Y36195000D03*
X46675000Y36195000D03*
X48575000Y33655000D03*
X46675000Y33655000D03*
D25*
X50800000Y33975000D03*
X50800000Y35875000D03*
D24*
X48580000Y41275000D03*
X50480000Y41275000D03*
X48580000Y31115000D03*
X50480000Y31115000D03*
X48580000Y38735000D03*
X50480000Y38735000D03*
X48580000Y28575000D03*
X50480000Y28575000D03*
D25*
X53340000Y44770000D03*
X53340000Y46670000D03*
X46990000Y44770000D03*
X46990000Y46670000D03*
X50165000Y44770000D03*
X50165000Y46670000D03*
X59690000Y7935000D03*
X59690000Y6035000D03*
D26*
X89535000Y3265000D03*
X89535000Y8165000D03*
D27*
X86920000Y3175000D03*
X80720000Y3175000D03*
D25*
X62865000Y6035000D03*
X62865000Y7935000D03*
X66040000Y6035000D03*
X66040000Y7935000D03*
D27*
X17705000Y8255000D03*
X11505000Y8255000D03*
X17705000Y3175000D03*
X11505000Y3175000D03*
D28*
X52070000Y25560000D03*
X50800000Y25560000D03*
X49530000Y25560000D03*
X48260000Y25560000D03*
X48260000Y20160000D03*
X49530000Y20160000D03*
X50800000Y20160000D03*
X52070000Y20160000D03*
D29*
X37465000Y2565000D03*
D30*
X37465000Y8865000D03*
X35165000Y8865000D03*
X39765000Y8865000D03*
D31*
X78160000Y4445000D03*
X78160000Y1905000D03*
X78160000Y9525000D03*
X78160000Y6985000D03*
X69160000Y9525000D03*
X69160000Y6985000D03*
X69160000Y4445000D03*
X69160000Y1905000D03*
X21535000Y6985000D03*
X21535000Y9525000D03*
X21535000Y1905000D03*
X21535000Y4445000D03*
X30535000Y1905000D03*
X30535000Y4445000D03*
X30535000Y6985000D03*
X30535000Y9525000D03*
D10*
G36*
X43745685Y58841472D02*
X42331472Y60255685D01*
X42614315Y60538528D01*
X44028528Y59124315D01*
X43745685Y58841472D01*
X43745685Y58841472D01*
G37*
G36*
X44594213Y59690000D02*
X43180000Y61104213D01*
X43462843Y61387056D01*
X44877056Y59972843D01*
X44594213Y59690000D01*
X44594213Y59690000D01*
G37*
G36*
X42897157Y57992944D02*
X41482944Y59407157D01*
X41765787Y59690000D01*
X43180000Y58275787D01*
X42897157Y57992944D01*
X42897157Y57992944D01*
G37*
D11*
X32290000Y88900000D03*
X36290000Y88900000D03*
X68040000Y88900000D03*
X64040000Y88900000D03*
X68040000Y66040000D03*
X64040000Y66040000D03*
X68040000Y22860000D03*
X64040000Y22860000D03*
X32290000Y22860000D03*
X36290000Y22860000D03*
X32290000Y45720000D03*
X36290000Y45720000D03*
X32290000Y67310000D03*
X36290000Y67310000D03*
D32*
X49530000Y41275000D03*
X45720000Y62230000D03*
X45085000Y30480000D03*
X45085000Y29845000D03*
X46990000Y5080000D03*
X46304758Y51786205D03*
X54610000Y59690000D03*
X53975000Y40005000D03*
X53975000Y29845000D03*
X47625000Y31115000D03*
X40005000Y10795000D03*
X40894000Y10414000D03*
X53481820Y57150000D03*
X55895057Y53958904D03*
X53738495Y51899979D03*
X40640000Y26670000D03*
X40640000Y31750000D03*
X47625000Y33655000D03*
X48268143Y53352040D03*
X55245000Y51435000D03*
X40640000Y53340000D03*
X40640000Y45720000D03*
X59690000Y13970000D03*
X40640000Y71120000D03*
X40640000Y76200000D03*
X59690000Y80010000D03*
X59690000Y88265000D03*
X40640000Y97155000D03*
X40640000Y93345000D03*
X29210000Y1905000D03*
X48260000Y21590000D03*
X37465000Y12700000D03*
X34925000Y12700000D03*
X43180000Y3810000D03*
X40005000Y6985000D03*
X70485000Y9525000D03*
X70485000Y4445000D03*
X45720000Y60325000D03*
X42545000Y60960000D03*
X43815000Y62865000D03*
X55245000Y60960000D03*
X45085000Y51435000D03*
X54610000Y20955000D03*
X59055000Y17145000D03*
X59690000Y44450000D03*
X59690000Y66675000D03*
X59690000Y36195000D03*
X59690000Y58420000D03*
X53975000Y34925000D03*
D33*
X49530000Y34925000D03*
D32*
X40640000Y37465000D03*
X40640000Y34925000D03*
X49530000Y38735000D03*
X40640000Y81915000D03*
X40640000Y79375000D03*
X49530000Y27305000D03*
X35560000Y6985000D03*
X53340000Y19955000D03*
X59690000Y33020000D03*
X59690000Y30480000D03*
X59690000Y74295000D03*
X59690000Y76835000D03*
X32385000Y82550000D03*
X46990000Y43815000D03*
X51989401Y41990599D03*
X53340000Y43815000D03*
X45085000Y2540000D03*
X47625000Y36195000D03*
X45671125Y38148875D03*
X50165000Y55245000D03*
X43815000Y50800000D03*
X45144049Y53280951D03*
X52070000Y47625000D03*
X49530000Y54610000D03*
X49530000Y47625000D03*
X48895000Y53975000D03*
X51435000Y43815000D03*
X51367091Y32385000D03*
X52237209Y58252791D03*
X41910000Y88265000D03*
X44861369Y58432690D03*
X58420000Y83185000D03*
X55545561Y58440938D03*
X58420000Y61595000D03*
X56404702Y58420000D03*
X58420000Y41910000D03*
X53340000Y50165000D03*
X58420000Y24130000D03*
X54176017Y47813903D03*
X41910000Y24765000D03*
X48463203Y49530000D03*
X47625000Y49530000D03*
X40640000Y49530000D03*
X41910000Y66040000D03*
X43937540Y57662460D03*
X52070000Y53340000D03*
X43815000Y38735000D03*
X53319062Y49305859D03*
X55880000Y2540000D03*
X69850000Y32385000D03*
X69202658Y82537658D03*
X73660000Y77470000D03*
X74930000Y38100000D03*
X67310000Y33020000D03*
X32385000Y34290000D03*
X26670000Y38735000D03*
X26670000Y78105000D03*
X59055000Y3810000D03*
D34*
X48580000Y41275000D02*
X49530000Y41275000D01*
X46427107Y61522893D02*
X45720000Y62230000D01*
X47265862Y59252691D02*
X46735533Y59783020D01*
X46735533Y59783020D02*
X46735533Y60407360D01*
X46735533Y60407360D02*
X46427107Y60715786D01*
X46427107Y60715786D02*
X46427107Y61522893D01*
X30535000Y9525000D02*
X30535000Y9425000D01*
X30535000Y9425000D02*
X33635409Y6324591D01*
X33635409Y6324591D02*
X36178591Y6324591D01*
X36178591Y6324591D02*
X37465000Y7611000D01*
D35*
X45085000Y29845000D02*
X45085000Y30480000D01*
X37465000Y8865000D02*
X37465000Y11403074D01*
X37465000Y11403074D02*
X45085000Y19023074D01*
X45085000Y19023074D02*
X45085000Y29845000D01*
D34*
X46355000Y5715000D02*
X48955250Y5715000D01*
X57566604Y6715604D02*
X58786000Y7935000D01*
X48955250Y5715000D02*
X49955854Y6715604D01*
X49955854Y6715604D02*
X57566604Y6715604D01*
X58786000Y7935000D02*
X59690000Y7935000D01*
X46990000Y5080000D02*
X46355000Y5715000D01*
X46355000Y5715000D02*
X39361000Y5715000D01*
X39361000Y5715000D02*
X37465000Y7611000D01*
X37465000Y7611000D02*
X37465000Y8865000D01*
X62865000Y7935000D02*
X63165000Y7935000D01*
X63165000Y7935000D02*
X65065000Y6035000D01*
X65065000Y6035000D02*
X66040000Y6035000D01*
X59690000Y7935000D02*
X62865000Y7935000D01*
D35*
X37465000Y8865000D02*
X37465000Y11700000D01*
D34*
X45792107Y50727893D02*
X46304758Y51240544D01*
X46304758Y51240544D02*
X46304758Y51786205D01*
X46304758Y51786205D02*
X46735533Y52216980D01*
X46735533Y52216980D02*
X47265862Y52747309D01*
X54610000Y59690000D02*
X55389214Y59690000D01*
X54208553Y59690000D02*
X54610000Y59690000D01*
X54975000Y39055000D02*
X54925000Y39055000D01*
X54925000Y39055000D02*
X53975000Y40005000D01*
X54975000Y28895000D02*
X54925000Y28895000D01*
X54925000Y28895000D02*
X53975000Y29845000D01*
X48580000Y31115000D02*
X47625000Y31115000D01*
X53417691Y58899138D02*
X54208553Y59690000D01*
X55389214Y59690000D02*
X55439456Y59740242D01*
X55439456Y59740242D02*
X55952107Y60252893D01*
D35*
X39765000Y8865000D02*
X39765000Y8495000D01*
X39765000Y8865000D02*
X39765000Y10555000D01*
X39765000Y10555000D02*
X40005000Y10795000D01*
X39765000Y8865000D02*
X39765000Y9285000D01*
X39765000Y9285000D02*
X40894000Y10414000D01*
D34*
X53771245Y58545584D02*
X53240916Y58015255D01*
X53240916Y58015255D02*
X53240916Y57390904D01*
X53240916Y57390904D02*
X53481820Y57150000D01*
X54831905Y54515076D02*
X55388077Y53958904D01*
X55388077Y53958904D02*
X55895057Y53958904D01*
X53064138Y52747309D02*
X53738495Y52072952D01*
X53738495Y52072952D02*
X53738495Y51899979D01*
X41590000Y26670000D02*
X40640000Y26670000D01*
X41640000Y32700000D02*
X41590000Y32700000D01*
X41590000Y32700000D02*
X40640000Y31750000D01*
X46675000Y33655000D02*
X47625000Y33655000D01*
X46912309Y53100862D02*
X47442638Y53631191D01*
X47442638Y53631191D02*
X47988992Y53631191D01*
X47988992Y53631191D02*
X48268143Y53352040D01*
X54537893Y50727893D02*
X55245000Y51435000D01*
X41640000Y54290000D02*
X41590000Y54290000D01*
X41590000Y54290000D02*
X40640000Y53340000D01*
X41590000Y45720000D02*
X40640000Y45720000D01*
X59690000Y13020000D02*
X59690000Y13970000D01*
X41590000Y71120000D02*
X40640000Y71120000D01*
X41640000Y77150000D02*
X41590000Y77150000D01*
X41590000Y77150000D02*
X40640000Y76200000D01*
X58690000Y79060000D02*
X58740000Y79060000D01*
X58740000Y79060000D02*
X59690000Y80010000D01*
X58740000Y88265000D02*
X59690000Y88265000D01*
X41640000Y98105000D02*
X41590000Y98105000D01*
X41590000Y98105000D02*
X40640000Y97155000D01*
X41590000Y93345000D02*
X40640000Y93345000D01*
X30535000Y1905000D02*
X29210000Y1905000D01*
X48260000Y20160000D02*
X48260000Y21590000D01*
D36*
X37465000Y13700000D02*
X37465000Y12700000D01*
X34925000Y13700000D02*
X34925000Y12700000D01*
D35*
X39765000Y8865000D02*
X39765000Y7225000D01*
X39765000Y7225000D02*
X40005000Y6985000D01*
D34*
X69160000Y9525000D02*
X70485000Y9525000D01*
X69160000Y4445000D02*
X70485000Y4445000D01*
X46121447Y59690000D02*
X46121447Y59923553D01*
X46121447Y59923553D02*
X45720000Y60325000D01*
X46912309Y58899138D02*
X46121447Y59690000D01*
X42545000Y60325000D02*
X43180000Y59690000D01*
X42545000Y60960000D02*
X42545000Y60325000D01*
X45012893Y62937107D02*
X43887107Y62937107D01*
X43887107Y62937107D02*
X43815000Y62865000D01*
X54537893Y61667107D02*
X55245000Y60960000D01*
X44377893Y52142107D02*
X45085000Y51435000D01*
X54610000Y21955000D02*
X54610000Y20955000D01*
X58690000Y18100000D02*
X58690000Y17510000D01*
X58690000Y17510000D02*
X59055000Y17145000D01*
X58740000Y44450000D02*
X59690000Y44450000D01*
X58740000Y66675000D02*
X59690000Y66675000D01*
X58690000Y35245000D02*
X58740000Y35245000D01*
X58740000Y35245000D02*
X59690000Y36195000D01*
X58690000Y57470000D02*
X58740000Y57470000D01*
X58740000Y57470000D02*
X59690000Y58420000D01*
X54975000Y35875000D02*
X54925000Y35875000D01*
X54925000Y35875000D02*
X53975000Y34925000D01*
X58690000Y35245000D02*
X58370000Y34925000D01*
X53417691Y53100862D02*
X54376446Y52142107D01*
X54376446Y52142107D02*
X55952107Y52142107D01*
X50800000Y33975000D02*
X50480000Y33975000D01*
X50480000Y33975000D02*
X49530000Y34925000D01*
X41590000Y37465000D02*
X40640000Y37465000D01*
X41590000Y34925000D02*
X40640000Y34925000D01*
X49530000Y38735000D02*
X48580000Y38735000D01*
X41590000Y81915000D02*
X40640000Y81915000D01*
X41590000Y79375000D02*
X40640000Y79375000D01*
D36*
X64900000Y93925200D02*
X64900000Y89760000D01*
X64900000Y89760000D02*
X64040000Y88900000D01*
X64900000Y71925200D02*
X64900000Y66900000D01*
X64900000Y66900000D02*
X64040000Y66040000D01*
X64900000Y49925200D02*
X64900000Y45310000D01*
X64900000Y45310000D02*
X64040000Y44450000D01*
X64900000Y27925200D02*
X64900000Y23720000D01*
X64900000Y23720000D02*
X64040000Y22860000D01*
X35100000Y18074800D02*
X35100000Y21670000D01*
X35100000Y21670000D02*
X36290000Y22860000D01*
X35100000Y40074800D02*
X35100000Y44530000D01*
X35100000Y44530000D02*
X36290000Y45720000D01*
X35100000Y84074800D02*
X35100000Y87710000D01*
X35100000Y87710000D02*
X36290000Y88900000D01*
X35050000Y62074800D02*
X35050000Y66070000D01*
X35050000Y66070000D02*
X36290000Y67310000D01*
D34*
X48580000Y28575000D02*
X48580000Y28255000D01*
X48580000Y28255000D02*
X49530000Y27305000D01*
D35*
X35165000Y8865000D02*
X35165000Y7380000D01*
X35165000Y7380000D02*
X35560000Y6985000D01*
X34925000Y11700000D02*
X34925000Y9105000D01*
X34925000Y9105000D02*
X35165000Y8865000D01*
D34*
X53340000Y19955000D02*
X52275000Y19955000D01*
X54610000Y19955000D02*
X53340000Y19955000D01*
X52275000Y19955000D02*
X52070000Y20160000D01*
X58740000Y33020000D02*
X59690000Y33020000D01*
X58740000Y30480000D02*
X59690000Y30480000D01*
X58740000Y74295000D02*
X59690000Y74295000D01*
X58740000Y76835000D02*
X59690000Y76835000D01*
X11505000Y8255000D02*
X4660000Y8255000D01*
X4660000Y8255000D02*
X4445000Y8040000D01*
X85485000Y8255000D02*
X89445000Y8255000D01*
X89445000Y8255000D02*
X89535000Y8165000D01*
X89535000Y8165000D02*
X95375000Y8165000D01*
X95375000Y8165000D02*
X95500000Y8040000D01*
X80885000Y8255000D02*
X80131000Y8255000D01*
X80131000Y8255000D02*
X78861000Y6985000D01*
X78861000Y6985000D02*
X78160000Y6985000D01*
X78160000Y4445000D02*
X78160000Y6985000D01*
X78160000Y7085000D02*
X78160000Y6985000D01*
X34290000Y81915000D02*
X33020000Y81915000D01*
X33020000Y81915000D02*
X32385000Y82550000D01*
X34290000Y81915000D02*
X39690000Y81915000D01*
D36*
X39640000Y97155000D02*
X36155000Y97155000D01*
X36155000Y97155000D02*
X32500000Y93500000D01*
X32290000Y88900000D02*
X32290000Y93290000D01*
X32290000Y93290000D02*
X32500000Y93500000D01*
X32500000Y93500000D02*
X28690000Y97310000D01*
X28690000Y97310000D02*
X27890000Y97310000D01*
D34*
X46990000Y43815000D02*
X46990000Y44770000D01*
X51989401Y41990599D02*
X50165000Y43815000D01*
X50165000Y43815000D02*
X50165000Y44770000D01*
X53340000Y43815000D02*
X53340000Y44770000D01*
X46355000Y2540000D02*
X49850000Y6035000D01*
X49850000Y6035000D02*
X59690000Y6035000D01*
X45085000Y2540000D02*
X46355000Y2540000D01*
X50787301Y55543705D02*
X50787301Y52733214D01*
X50787301Y52733214D02*
X49033629Y50979542D01*
X45498095Y54515076D02*
X46850320Y55867301D01*
X46850320Y55867301D02*
X50463705Y55867301D01*
X50463705Y55867301D02*
X50787301Y55543705D01*
X47625000Y36195000D02*
X46675000Y36195000D01*
X43182221Y52199202D02*
X43182221Y40637779D01*
X43182221Y40637779D02*
X45671125Y38148875D01*
X45498095Y54515076D02*
X43182221Y52199202D01*
X47972969Y52040202D02*
X50165000Y54232233D01*
X50165000Y54364589D02*
X50165000Y55245000D01*
X50165000Y54232233D02*
X50165000Y54364589D01*
X47619416Y52393755D02*
X46990000Y51764339D01*
X46990000Y51764339D02*
X46990000Y48172922D01*
X46990000Y48172922D02*
X48260000Y46902922D01*
X48260000Y46902922D02*
X48260000Y44450000D01*
X48260000Y44450000D02*
X50480000Y42230000D01*
X50480000Y42230000D02*
X50480000Y41275000D01*
X50480000Y41275000D02*
X54655000Y41275000D01*
X54655000Y41275000D02*
X54975000Y40955000D01*
X43815000Y50800000D02*
X43815000Y49545000D01*
X43815000Y49545000D02*
X46690000Y46670000D01*
X46690000Y46670000D02*
X46990000Y46670000D01*
X45085000Y53394873D02*
X45085000Y53340000D01*
X45085000Y53340000D02*
X45144049Y53280951D01*
X45851649Y54161522D02*
X45085000Y53394873D01*
X52070000Y47625000D02*
X53025000Y46670000D01*
X53025000Y46670000D02*
X53340000Y46670000D01*
X46205202Y53807969D02*
X47007233Y54610000D01*
X47007233Y54610000D02*
X47139589Y54610000D01*
X47139589Y54610000D02*
X49530000Y54610000D01*
X49530000Y47625000D02*
X49530000Y47305000D01*
X49530000Y47305000D02*
X50165000Y46670000D01*
X46558755Y53454416D02*
X47141940Y54037601D01*
X47141940Y54037601D02*
X48832399Y54037601D01*
X48832399Y54037601D02*
X48895000Y53975000D01*
X43458656Y58063656D02*
X44450000Y59055000D01*
X45342233Y59055000D02*
X44450000Y59055000D01*
X46205202Y58192031D02*
X45342233Y59055000D01*
X43109288Y58063656D02*
X43458656Y58063656D01*
X42331472Y58841472D02*
X43109288Y58063656D01*
X44028528Y60538528D02*
X45045397Y59521659D01*
X45045397Y59521659D02*
X45582680Y59521659D01*
X45582680Y59521659D02*
X46028426Y59075913D01*
X46028426Y59075913D02*
X46558755Y58545584D01*
X48680076Y60666905D02*
X48206211Y61140770D01*
X48206211Y61140770D02*
X48206211Y61597569D01*
X48206211Y61597569D02*
X45385358Y64418422D01*
X45385358Y64418422D02*
X39781222Y64418422D01*
X39781222Y64418422D02*
X37590000Y62227200D01*
X37590000Y62227200D02*
X37590000Y62074800D01*
X37640000Y40074800D02*
X37640000Y40227200D01*
X37640000Y40227200D02*
X42369401Y44956601D01*
X42369401Y44956601D02*
X42369401Y56055599D01*
X42369401Y56055599D02*
X41203534Y57221466D01*
X44041006Y64012012D02*
X45217018Y64012012D01*
X41203534Y57221466D02*
X41203534Y61174540D01*
X41203534Y61174540D02*
X44041006Y64012012D01*
X45217018Y64012012D02*
X47796193Y61432837D01*
X47796193Y61432837D02*
X47796193Y60843680D01*
X47796193Y60843680D02*
X48326522Y60313351D01*
X37640000Y18074800D02*
X37640000Y18227200D01*
X37640000Y18227200D02*
X39097800Y19685000D01*
X42775811Y53071822D02*
X48503298Y58799309D01*
X48503298Y59429469D02*
X47972969Y59959798D01*
X39097800Y19685000D02*
X41275000Y19685000D01*
X41275000Y19685000D02*
X42545000Y20955000D01*
X42545000Y20955000D02*
X42545000Y26670000D01*
X42545000Y26670000D02*
X42775811Y26900811D01*
X42775811Y26900811D02*
X42775811Y53071822D01*
X48503298Y58799309D02*
X48503298Y59429469D01*
X62360000Y27925200D02*
X62360000Y28077600D01*
X62360000Y28077600D02*
X60887001Y29550599D01*
X60887001Y29550599D02*
X57158395Y29550599D01*
X57158395Y29550599D02*
X56515000Y30193994D01*
X56515000Y30193994D02*
X56515000Y51425970D01*
X56515000Y51425970D02*
X57027012Y51937982D01*
X57027012Y51937982D02*
X57027012Y60457018D01*
X57027012Y60457018D02*
X54742018Y62742012D01*
X54742018Y62742012D02*
X54510544Y62742012D01*
X54510544Y62742012D02*
X53462988Y61694456D01*
X53462988Y61065755D02*
X52887360Y60490127D01*
X53462988Y61694456D02*
X53462988Y61065755D01*
X52887360Y60490127D02*
X52357031Y59959798D01*
X52813663Y60433663D02*
X52357031Y59977031D01*
X52357031Y59977031D02*
X52357031Y59959798D01*
X52003478Y60313351D02*
X52705000Y61014873D01*
X52705000Y61014873D02*
X52705000Y61511218D01*
X52705000Y61511218D02*
X54342204Y63148422D01*
X54342204Y63148422D02*
X54910358Y63148422D01*
X62360000Y50077600D02*
X62360000Y49925200D01*
X54910358Y63148422D02*
X57433422Y60625358D01*
X57433422Y60625358D02*
X57433422Y55004178D01*
X57433422Y55004178D02*
X62360000Y50077600D01*
X51649924Y60666905D02*
X52180253Y61197234D01*
X52180253Y61197234D02*
X52180253Y61593053D01*
X62360000Y71772800D02*
X62360000Y71925200D01*
X52180253Y61593053D02*
X62360000Y71772800D01*
X55245000Y65405000D02*
X55245000Y86657800D01*
X55245000Y86657800D02*
X62360000Y93772800D01*
X62360000Y93772800D02*
X62360000Y93925200D01*
X51296371Y61456371D02*
X55245000Y65405000D01*
X51296371Y61020458D02*
X51296371Y61456371D01*
X51296371Y61297235D02*
X51296371Y61020458D01*
X49033629Y61344901D02*
X49033629Y61020458D01*
X44450000Y65928530D02*
X49033629Y61344901D01*
X44450000Y81573660D02*
X44450000Y65928530D01*
X37640000Y84074800D02*
X37640000Y84227200D01*
X37640000Y84227200D02*
X38783010Y85370210D01*
X38783010Y85370210D02*
X40653450Y85370210D01*
X40653450Y85370210D02*
X44450000Y81573660D01*
X51435000Y43815000D02*
X51435000Y47625000D01*
X51435000Y47625000D02*
X50165000Y48895000D01*
X50165000Y48895000D02*
X50165000Y51435000D01*
X50165000Y51435000D02*
X51193711Y52463711D01*
X51193711Y52463711D02*
X51193711Y58089372D01*
X51193711Y58089372D02*
X52159339Y59055000D01*
X52159339Y59055000D02*
X52710584Y59606245D01*
X50480000Y31115000D02*
X50480000Y31497909D01*
X50480000Y31497909D02*
X51367091Y32385000D01*
X50480000Y31115000D02*
X54655000Y31115000D01*
X54655000Y31115000D02*
X54975000Y30795000D01*
X53064138Y59252691D02*
X52237209Y58425762D01*
X52237209Y58425762D02*
X52237209Y58252791D01*
X52533809Y58722362D02*
X53064138Y59252691D01*
X41910000Y88265000D02*
X41910000Y89215000D01*
X41910000Y89215000D02*
X41590000Y89535000D01*
X45498095Y57484924D02*
X44861369Y58121650D01*
X44861369Y58121650D02*
X44861369Y58432690D01*
X58420000Y83185000D02*
X58420000Y84135000D01*
X58420000Y84135000D02*
X58740000Y84455000D01*
X54831905Y57484924D02*
X55545561Y58198580D01*
X55545561Y58198580D02*
X55545561Y58440938D01*
X58420000Y61595000D02*
X58420000Y62545000D01*
X58420000Y62545000D02*
X58740000Y62865000D01*
X55185458Y57131371D02*
X55185458Y57200756D01*
X55185458Y57200756D02*
X56404702Y58420000D01*
X58420000Y41910000D02*
X58420000Y40960000D01*
X58420000Y40960000D02*
X58740000Y40640000D01*
X52357031Y52040202D02*
X53340000Y51057233D01*
X53340000Y51057233D02*
X53340000Y50165000D01*
X58420000Y24130000D02*
X58420000Y23180000D01*
X58420000Y23180000D02*
X58740000Y22860000D01*
X51296371Y50979542D02*
X51296371Y49832794D01*
X51296371Y49832794D02*
X53315262Y47813903D01*
X53315262Y47813903D02*
X54176017Y47813903D01*
X41910000Y24765000D02*
X41910000Y23180000D01*
X41910000Y23180000D02*
X41590000Y22860000D01*
X48680076Y51333095D02*
X48206211Y50859230D01*
X48206211Y50859230D02*
X48206211Y49786992D01*
X48206211Y49786992D02*
X48463203Y49530000D01*
X47625000Y49530000D02*
X47625000Y50985127D01*
X47625000Y50985127D02*
X48326522Y51686649D01*
X41590000Y49530000D02*
X40640000Y49530000D01*
X41910000Y66040000D02*
X41910000Y66990000D01*
X41910000Y66990000D02*
X41590000Y67310000D01*
X45144542Y57131371D02*
X44468629Y57131371D01*
X44468629Y57131371D02*
X43937540Y57662460D01*
X52070000Y53034339D02*
X52070000Y53340000D01*
X52710584Y52393755D02*
X52070000Y53034339D01*
X43815000Y38735000D02*
X43815000Y19940940D01*
X43815000Y19940940D02*
X38353461Y14479401D01*
X38353461Y14479401D02*
X33586479Y14479401D01*
X33586479Y14479401D02*
X29605599Y10498521D01*
X29605599Y10498521D02*
X29605599Y8014401D01*
X29605599Y8014401D02*
X30535000Y7085000D01*
X30535000Y7085000D02*
X30535000Y6985000D01*
X52003478Y51686649D02*
X52533807Y51156320D01*
X52533807Y51156320D02*
X52533807Y50091114D01*
X52533807Y50091114D02*
X53319062Y49305859D01*
X30535000Y6985000D02*
X30535000Y4445000D01*
X51649924Y51333095D02*
X52123789Y50859230D01*
X54186442Y48683558D02*
X56108590Y46761410D01*
X62230000Y8977078D02*
X65601922Y8977078D01*
X52123789Y50859230D02*
X52123789Y49580126D01*
X52123789Y49580126D02*
X53020357Y48683558D01*
X58760599Y12446479D02*
X62230000Y8977078D01*
X53020357Y48683558D02*
X54186442Y48683558D01*
X56108590Y46761410D02*
X56108590Y17021929D01*
X56108590Y17021929D02*
X58760599Y14369920D01*
X58760599Y14369920D02*
X58760599Y12446479D01*
X65601922Y8977078D02*
X66040000Y8539000D01*
X66040000Y8539000D02*
X66040000Y7935000D01*
X67945000Y3220000D02*
X67945000Y5670000D01*
X67945000Y5670000D02*
X69160000Y6885000D01*
X69160000Y6885000D02*
X69160000Y6985000D01*
X69160000Y1905000D02*
X69160000Y2005000D01*
X69160000Y2005000D02*
X67945000Y3220000D01*
X66040000Y7935000D02*
X68210000Y7935000D01*
X68210000Y7935000D02*
X69160000Y6985000D01*
X55880000Y2540000D02*
X56515000Y1905000D01*
X56515000Y1905000D02*
X68256000Y1905000D01*
X68256000Y1905000D02*
X69160000Y1905000D01*
D36*
X72110000Y80690000D02*
X68300000Y84500000D01*
X68300000Y84500000D02*
X67500000Y84500000D01*
X68040000Y88900000D02*
X68040000Y85040000D01*
X68040000Y85040000D02*
X67500000Y84500000D01*
X60690000Y80010000D02*
X63010000Y80010000D01*
X63010000Y80010000D02*
X67500000Y84500000D01*
X60690000Y58420000D02*
X63420000Y58420000D01*
X63420000Y58420000D02*
X67500000Y62500000D01*
X68040000Y66040000D02*
X68040000Y63040000D01*
X68040000Y63040000D02*
X67500000Y62500000D01*
X72110000Y58690000D02*
X68300000Y62500000D01*
X68300000Y62500000D02*
X67500000Y62500000D01*
X72110000Y36690000D02*
X68300000Y40500000D01*
X68300000Y40500000D02*
X67500000Y40500000D01*
X60690000Y36195000D02*
X63195000Y36195000D01*
X63195000Y36195000D02*
X67500000Y40500000D01*
X68040000Y44450000D02*
X68040000Y41040000D01*
X68040000Y41040000D02*
X67500000Y40500000D01*
D34*
X71310000Y36690000D02*
X72110000Y36690000D01*
D36*
X72110000Y14690000D02*
X68300000Y18500000D01*
X68300000Y18500000D02*
X67500000Y18500000D01*
X68040000Y22860000D02*
X68040000Y19040000D01*
X68040000Y19040000D02*
X67500000Y18500000D01*
X60690000Y19050000D02*
X66950000Y19050000D01*
X66950000Y19050000D02*
X67500000Y18500000D01*
D34*
X71310000Y14690000D02*
X72110000Y14690000D01*
X67500000Y22320000D02*
X68040000Y22860000D01*
X69850000Y32385000D02*
X69850000Y24320000D01*
X69850000Y24320000D02*
X68390000Y22860000D01*
X68390000Y22860000D02*
X68040000Y22860000D01*
D36*
X32290000Y22860000D02*
X32290000Y27290000D01*
X32290000Y27290000D02*
X32500000Y27500000D01*
X39640000Y31750000D02*
X36750000Y31750000D01*
X36750000Y31750000D02*
X32500000Y27500000D01*
X27890000Y31310000D02*
X31700000Y27500000D01*
X31700000Y27500000D02*
X32500000Y27500000D01*
X32290000Y45720000D02*
X32290000Y49290000D01*
X32290000Y49290000D02*
X32500000Y49500000D01*
X39640000Y53340000D02*
X36340000Y53340000D01*
X36340000Y53340000D02*
X32500000Y49500000D01*
X27890000Y53310000D02*
X31700000Y49500000D01*
X31700000Y49500000D02*
X32500000Y49500000D01*
X32290000Y67310000D02*
X32290000Y71290000D01*
X32290000Y71290000D02*
X32500000Y71500000D01*
X39640000Y76200000D02*
X37200000Y76200000D01*
X37200000Y76200000D02*
X32500000Y71500000D01*
X27890000Y75310000D02*
X31700000Y71500000D01*
X31700000Y71500000D02*
X32500000Y71500000D01*
D34*
X49530000Y20160000D02*
X49530000Y14255005D01*
X49530000Y14255005D02*
X49000000Y13725005D01*
X49000000Y13725005D02*
X49000000Y12720914D01*
X49000000Y12720914D02*
X49000000Y11105005D01*
X51000000Y11105005D02*
X51000000Y13725005D01*
X50800000Y20160000D02*
X50800000Y13925005D01*
X50800000Y13925005D02*
X51000000Y13725005D01*
X4445000Y2960000D02*
X11290000Y2960000D01*
X11290000Y2960000D02*
X11505000Y3175000D01*
X86920000Y3175000D02*
X89445000Y3175000D01*
X89445000Y3175000D02*
X89535000Y3265000D01*
X89535000Y3265000D02*
X95195000Y3265000D01*
X95195000Y3265000D02*
X95500000Y2960000D01*
X39690000Y93345000D02*
X39690000Y94305000D01*
X39690000Y94305000D02*
X41590000Y96205000D01*
X41590000Y96205000D02*
X41640000Y96205000D01*
X39690000Y89535000D02*
X39690000Y93345000D01*
X60640000Y84455000D02*
X60640000Y82860000D01*
X60640000Y82860000D02*
X58740000Y80960000D01*
X58740000Y80960000D02*
X58690000Y80960000D01*
X60640000Y88265000D02*
X60640000Y84455000D01*
X60640000Y62865000D02*
X60640000Y61270000D01*
X60640000Y61270000D02*
X58740000Y59370000D01*
X58740000Y59370000D02*
X58690000Y59370000D01*
X60640000Y66675000D02*
X60640000Y62865000D01*
X60640000Y44450000D02*
X60640000Y40640000D01*
X60640000Y40640000D02*
X60640000Y39095000D01*
X60640000Y39095000D02*
X58690000Y37145000D01*
X59690000Y14920000D02*
X59690000Y19000000D01*
X59690000Y19000000D02*
X58690000Y20000000D01*
X58690000Y20000000D02*
X58735000Y20000000D01*
X58735000Y20000000D02*
X60640000Y21905000D01*
X60640000Y21905000D02*
X60640000Y22860000D01*
X39690000Y22860000D02*
X39690000Y26670000D01*
X39690000Y26670000D02*
X39690000Y28900000D01*
X39690000Y28900000D02*
X41590000Y30800000D01*
X41590000Y30800000D02*
X41640000Y30800000D01*
X41640000Y52390000D02*
X41590000Y52390000D01*
X41590000Y52390000D02*
X39690000Y50490000D01*
X39690000Y50490000D02*
X39690000Y50434000D01*
X39690000Y50434000D02*
X39690000Y49530000D01*
X39690000Y45720000D02*
X39690000Y49530000D01*
X39690000Y67310000D02*
X39690000Y71120000D01*
X41640000Y75250000D02*
X41590000Y75250000D01*
X39690000Y73350000D02*
X39690000Y72024000D01*
X41590000Y75250000D02*
X39690000Y73350000D01*
X39690000Y72024000D02*
X39690000Y71120000D01*
X48575000Y33655000D02*
X49179000Y33655000D01*
X49179000Y33655000D02*
X49488401Y33345599D01*
X49488401Y33345599D02*
X53641599Y33345599D01*
X53641599Y33345599D02*
X54271000Y33975000D01*
X54271000Y33975000D02*
X54975000Y33975000D01*
X48575000Y33655000D02*
X48575000Y33955000D01*
X48575000Y33955000D02*
X48575000Y36195000D01*
X50800000Y35875000D02*
X50485000Y35875000D01*
X46045599Y37068521D02*
X46045599Y31028111D01*
X50485000Y35875000D02*
X48960811Y37399189D01*
X48960811Y37399189D02*
X46376267Y37399189D01*
X46376267Y37399189D02*
X46045599Y37068521D01*
X46045599Y31028111D02*
X47396410Y29677300D01*
X47396410Y29677300D02*
X47396410Y28168590D01*
X47396410Y28168590D02*
X49530000Y26035000D01*
X49530000Y26035000D02*
X49530000Y25560000D01*
X50800000Y35875000D02*
X52679000Y35875000D01*
X52679000Y35875000D02*
X52975000Y35579000D01*
X52975000Y35579000D02*
X52975000Y34925000D01*
X49530000Y25560000D02*
X50800000Y25560000D01*
X50480000Y38735000D02*
X50480000Y38435000D01*
X49850599Y37805599D02*
X46207927Y37805599D01*
X46990000Y26276000D02*
X47706000Y25560000D01*
X50480000Y38435000D02*
X49850599Y37805599D01*
X46207927Y37805599D02*
X45639190Y37236862D01*
X45639190Y37236862D02*
X45639190Y30859770D01*
X45639190Y30859770D02*
X46990000Y29508960D01*
X46990000Y29508960D02*
X46990000Y26276000D01*
X47706000Y25560000D02*
X48260000Y25560000D01*
X50480000Y38735000D02*
X52359000Y38735000D01*
X52359000Y38735000D02*
X52975000Y39351000D01*
X52975000Y39351000D02*
X52975000Y40005000D01*
X52070000Y25560000D02*
X52070000Y27589000D01*
X52070000Y27589000D02*
X51084000Y28575000D01*
X51084000Y28575000D02*
X50480000Y28575000D01*
X50480000Y28575000D02*
X52359000Y28575000D01*
X52359000Y28575000D02*
X52975000Y29191000D01*
X52975000Y29191000D02*
X52975000Y29845000D01*
X69202658Y82537658D02*
X63500000Y76835000D01*
X63500000Y76835000D02*
X62865000Y76835000D01*
X60640000Y76835000D02*
X62865000Y76835000D01*
X60640000Y74295000D02*
X70485000Y74295000D01*
X70485000Y74295000D02*
X73660000Y77470000D01*
X66675000Y30480000D02*
X71355599Y35160599D01*
X71355599Y35160599D02*
X72844113Y35160599D01*
X72844113Y35160599D02*
X74930000Y37246486D01*
X74930000Y37246486D02*
X74930000Y38100000D01*
X60640000Y30480000D02*
X66675000Y30480000D01*
X60640000Y33020000D02*
X67310000Y33020000D01*
X39690000Y34925000D02*
X33020000Y34925000D01*
X33020000Y34925000D02*
X32385000Y34290000D01*
X26670000Y38735000D02*
X27940000Y37465000D01*
X27940000Y37465000D02*
X28575000Y37465000D01*
X28575000Y37465000D02*
X39690000Y37465000D01*
X39690000Y79375000D02*
X27940000Y79375000D01*
X27940000Y79375000D02*
X26670000Y78105000D01*
X78160000Y9525000D02*
X77256000Y9525000D01*
X77256000Y9525000D02*
X76200000Y8469000D01*
X76200000Y8469000D02*
X76200000Y2961000D01*
X76200000Y2961000D02*
X77256000Y1905000D01*
X77256000Y1905000D02*
X78160000Y1905000D01*
X78160000Y9425000D02*
X78160000Y9525000D01*
X78160000Y1905000D02*
X78160000Y2005000D01*
X78160000Y1905000D02*
X79450000Y1905000D01*
X79450000Y1905000D02*
X80720000Y3175000D01*
X21535000Y4445000D02*
X21535000Y6985000D01*
X19050000Y8255000D02*
X20320000Y6985000D01*
X20320000Y6985000D02*
X21535000Y6985000D01*
X17705000Y8255000D02*
X19050000Y8255000D01*
X24130000Y3596000D02*
X24130000Y6350000D01*
X21535000Y9525000D02*
X22439000Y9525000D01*
X24130000Y6350000D02*
X24130000Y6830000D01*
X22439000Y9525000D02*
X24130000Y7834000D01*
X24130000Y7834000D02*
X24130000Y6350000D01*
X21535000Y9425000D02*
X21535000Y9525000D01*
X21535000Y1905000D02*
X22439000Y1905000D01*
X22439000Y1905000D02*
X24130000Y3596000D01*
X19050000Y3175000D02*
X20320000Y1905000D01*
X20320000Y1905000D02*
X21535000Y1905000D01*
X17705000Y3175000D02*
X19050000Y3175000D01*
X62865000Y6035000D02*
X62865000Y5431000D01*
X62865000Y5431000D02*
X61244000Y3810000D01*
X61244000Y3810000D02*
X59339000Y3810000D01*
X59339000Y3810000D02*
X59055000Y3810000D01*
G36*
X99544000Y6627000D02*
X88627000Y6627000D01*
X88627000Y90873000D01*
X99544000Y90873000D01*
X99544000Y6627000D01*
X99544000Y6627000D01*
G37*
X99544000Y6627000D02*
X88627000Y6627000D01*
X88627000Y90873000D01*
X99544000Y90873000D01*
X99544000Y6627000D01*
G36*
X11373000Y6627000D02*
X456000Y6627000D01*
X456000Y99544000D01*
X11373000Y99544000D01*
X11373000Y6627000D01*
X11373000Y6627000D01*
G37*
X11373000Y6627000D02*
X456000Y6627000D01*
X456000Y99544000D01*
X11373000Y99544000D01*
X11373000Y6627000D01*
G36*
X22873000Y40975541D02*
X22873000Y38127000D01*
X14127000Y38127000D01*
X14127000Y50873000D01*
X18914016Y50873000D01*
X22873000Y40975541D01*
X22873000Y40975541D01*
G37*
X22873000Y40975541D02*
X22873000Y38127000D01*
X14127000Y38127000D01*
X14127000Y50873000D01*
X18914016Y50873000D01*
X22873000Y40975541D01*
G36*
X22873000Y18975541D02*
X22873000Y16127000D01*
X14127000Y16127000D01*
X14127000Y28873000D01*
X18914016Y28873000D01*
X22873000Y18975541D01*
X22873000Y18975541D01*
G37*
X22873000Y18975541D02*
X22873000Y16127000D01*
X14127000Y16127000D01*
X14127000Y28873000D01*
X18914016Y28873000D01*
X22873000Y18975541D01*
G36*
X22873000Y84975541D02*
X22873000Y82127000D01*
X14127000Y82127000D01*
X14127000Y94873000D01*
X18914016Y94873000D01*
X22873000Y84975541D01*
X22873000Y84975541D01*
G37*
X22873000Y84975541D02*
X22873000Y82127000D01*
X14127000Y82127000D01*
X14127000Y94873000D01*
X18914016Y94873000D01*
X22873000Y84975541D01*
G36*
X22873000Y62975541D02*
X22873000Y60127000D01*
X14127000Y60127000D01*
X14127000Y72873000D01*
X18914016Y72873000D01*
X22873000Y62975541D01*
X22873000Y62975541D01*
G37*
X22873000Y62975541D02*
X22873000Y60127000D01*
X14127000Y60127000D01*
X14127000Y72873000D01*
X18914016Y72873000D01*
X22873000Y62975541D01*
G36*
X85873000Y83127000D02*
X81085984Y83127000D01*
X77127000Y93024460D01*
X77127000Y95873000D01*
X85873000Y95873000D01*
X85873000Y83127000D01*
X85873000Y83127000D01*
G37*
X85873000Y83127000D02*
X81085984Y83127000D01*
X77127000Y93024460D01*
X77127000Y95873000D01*
X85873000Y95873000D01*
X85873000Y83127000D01*
G36*
X85873000Y61127000D02*
X81085984Y61127000D01*
X77127000Y71024460D01*
X77127000Y73873000D01*
X85873000Y73873000D01*
X85873000Y61127000D01*
X85873000Y61127000D01*
G37*
X85873000Y61127000D02*
X81085984Y61127000D01*
X77127000Y71024460D01*
X77127000Y73873000D01*
X85873000Y73873000D01*
X85873000Y61127000D01*
G36*
X85873000Y39127000D02*
X81085984Y39127000D01*
X77127000Y49024460D01*
X77127000Y51873000D01*
X85873000Y51873000D01*
X85873000Y39127000D01*
X85873000Y39127000D01*
G37*
X85873000Y39127000D02*
X81085984Y39127000D01*
X77127000Y49024460D01*
X77127000Y51873000D01*
X85873000Y51873000D01*
X85873000Y39127000D01*
G36*
X85873000Y17127000D02*
X81085984Y17127000D01*
X77127000Y27024460D01*
X77127000Y29873000D01*
X85873000Y29873000D01*
X85873000Y17127000D01*
X85873000Y17127000D01*
G37*
X85873000Y17127000D02*
X81085984Y17127000D01*
X77127000Y27024460D01*
X77127000Y29873000D01*
X85873000Y29873000D01*
X85873000Y17127000D01*
M02*
