G04 #@! TF.FileFunction,Soldermask,Top*
%FSLAX46Y46*%
G04 Gerber Fmt 4.6, Leading zero omitted, Abs format (unit mm)*
G04 Created by KiCad (PCBNEW 4.0.7) date Sun Dec 10 04:28:40 2017*
%MOMM*%
%LPD*%
G01*
G04 APERTURE LIST*
%ADD10C,0.127000*%
%ADD11C,2.700000*%
%ADD12R,2.700000X2.700000*%
%ADD13R,1.650000X1.400000*%
%ADD14R,1.900000X1.300000*%
%ADD15R,2.127200X2.432000*%
%ADD16O,2.127200X2.432000*%
%ADD17R,1.000000X1.950000*%
%ADD18R,0.800000X2.400000*%
%ADD19R,1.200100X1.200100*%
%ADD20R,1.598880X1.598880*%
%ADD21R,0.850000X2.150000*%
%ADD22R,1.300000X1.200000*%
%ADD23R,1.700000X1.100000*%
%ADD24R,1.100000X1.700000*%
%ADD25R,4.200000X2.400000*%
%ADD26R,1.900000X2.400000*%
%ADD27C,1.820000*%
%ADD28C,3.200000*%
%ADD29R,1.540000X2.430000*%
G04 APERTURE END LIST*
D10*
D11*
X49530000Y7155000D03*
X44450000Y7155000D03*
X41910000Y7155000D03*
X46990000Y7155000D03*
X52070000Y7155000D03*
X54610000Y7155000D03*
X38100000Y7155000D03*
X35560000Y7155000D03*
X33020000Y7155000D03*
X30480000Y7155000D03*
X27940000Y7155000D03*
D12*
X25400000Y7155000D03*
X25400000Y7155000D03*
D11*
X27940000Y7155000D03*
X30480000Y7155000D03*
X33020000Y7155000D03*
X35560000Y7155000D03*
X38100000Y7155000D03*
D13*
X44450000Y46720000D03*
X44450000Y44720000D03*
X35560000Y59960000D03*
X35560000Y61960000D03*
X39370000Y46720000D03*
X39370000Y44720000D03*
X19050000Y25130000D03*
X19050000Y23130000D03*
D14*
X75210000Y66560000D03*
X75210000Y68060000D03*
X72110000Y68060000D03*
X72110000Y66560000D03*
D15*
X33655000Y67310000D03*
D16*
X36195000Y67310000D03*
X38735000Y67310000D03*
X41275000Y67310000D03*
X43815000Y67310000D03*
X46355000Y67310000D03*
D17*
X19050000Y33180000D03*
X17780000Y33180000D03*
X16510000Y33180000D03*
X15240000Y33180000D03*
X15240000Y27780000D03*
X16510000Y27780000D03*
X17780000Y27780000D03*
X19050000Y27780000D03*
D18*
X38735000Y60325000D03*
X39935000Y60325000D03*
X37535000Y60325000D03*
D19*
X4130000Y54879240D03*
X6030000Y54879240D03*
X5080000Y56878220D03*
D20*
X52290980Y13505000D03*
X54389020Y13505000D03*
X47210980Y13505000D03*
X49309020Y13505000D03*
X42130980Y13505000D03*
X44229020Y13505000D03*
X35780980Y13505000D03*
X37879020Y13505000D03*
X30700980Y13505000D03*
X32799020Y13505000D03*
X25620980Y13505000D03*
X27719020Y13505000D03*
X72610980Y59690000D03*
X74709020Y59690000D03*
D13*
X4445000Y50435000D03*
X4445000Y52435000D03*
X6985000Y50435000D03*
X6985000Y52435000D03*
D21*
X44230000Y56940000D03*
X43580000Y56940000D03*
X42930000Y56940000D03*
X42280000Y56940000D03*
X41630000Y56940000D03*
X40980000Y56940000D03*
X40330000Y56940000D03*
X39680000Y56940000D03*
X39030000Y56940000D03*
X38380000Y56940000D03*
X37730000Y56940000D03*
X37080000Y56940000D03*
X36430000Y56940000D03*
X35780000Y56940000D03*
X35780000Y49740000D03*
X36430000Y49740000D03*
X37080000Y49740000D03*
X37730000Y49740000D03*
X38380000Y49740000D03*
X39030000Y49740000D03*
X39680000Y49740000D03*
X40330000Y49740000D03*
X40980000Y49740000D03*
X41630000Y49740000D03*
X42280000Y49740000D03*
X42930000Y49740000D03*
X43580000Y49740000D03*
X44230000Y49740000D03*
D22*
X17415000Y44765000D03*
X17415000Y42865000D03*
X19415000Y43815000D03*
X17415000Y38415000D03*
X17415000Y36515000D03*
X19415000Y37465000D03*
X17415000Y50480000D03*
X17415000Y48580000D03*
X19415000Y49530000D03*
D23*
X34290000Y32700000D03*
X34290000Y30800000D03*
X40005000Y32700000D03*
X40005000Y30800000D03*
X45720000Y32700000D03*
X45720000Y30800000D03*
D24*
X65720000Y67310000D03*
X63820000Y67310000D03*
X65720000Y64770000D03*
X63820000Y64770000D03*
X65720000Y62230000D03*
X63820000Y62230000D03*
X63820000Y59690000D03*
X65720000Y59690000D03*
X14920000Y53340000D03*
X13020000Y53340000D03*
X14920000Y50800000D03*
X13020000Y50800000D03*
X13020000Y48260000D03*
X14920000Y48260000D03*
X13020000Y45085000D03*
X14920000Y45085000D03*
X13020000Y38735000D03*
X14920000Y38735000D03*
X13020000Y42545000D03*
X14920000Y42545000D03*
X13020000Y36195000D03*
X14920000Y36195000D03*
D25*
X6985000Y41300000D03*
D26*
X6985000Y47600000D03*
X4685000Y47600000D03*
X9285000Y47600000D03*
D12*
X5080000Y65405000D03*
D11*
X7620000Y65405000D03*
D12*
X67310000Y7155000D03*
D11*
X69850000Y7155000D03*
X72390000Y7155000D03*
X74930000Y7155000D03*
D27*
X9200000Y19440005D03*
X11700000Y19440005D03*
X13700000Y19440005D03*
X16200000Y19440005D03*
X9200000Y16820005D03*
X11700000Y16820005D03*
X13700000Y16820005D03*
X16200000Y16820005D03*
D28*
X19270000Y14110005D03*
X19270000Y19790005D03*
X6130000Y19790005D03*
X6130000Y14110005D03*
D29*
X61030000Y6985000D03*
X63430000Y6985000D03*
M02*
