G04 #@! TF.FileFunction,Copper,L1,Top,Signal*
%FSLAX46Y46*%
G04 Gerber Fmt 4.6, Leading zero omitted, Abs format (unit mm)*
G04 Created by KiCad (PCBNEW 4.0.7) date Sun Dec 10 04:28:40 2017*
%MOMM*%
%LPD*%
G01*
G04 APERTURE LIST*
%ADD10C,0.127000*%
%ADD11C,2.300000*%
%ADD12R,2.300000X2.300000*%
%ADD13R,1.250000X1.000000*%
%ADD14R,1.500000X0.900000*%
%ADD15R,1.727200X2.032000*%
%ADD16O,1.727200X2.032000*%
%ADD17R,0.600000X1.550000*%
%ADD18R,0.400000X2.000000*%
%ADD19R,0.800100X0.800100*%
%ADD20R,1.198880X1.198880*%
%ADD21R,0.450000X1.750000*%
%ADD22R,0.900000X0.800000*%
%ADD23R,1.300000X0.700000*%
%ADD24R,0.700000X1.300000*%
%ADD25R,3.800000X2.000000*%
%ADD26R,1.500000X2.000000*%
%ADD27C,1.420000*%
%ADD28C,2.800000*%
%ADD29R,1.140000X2.030000*%
%ADD30C,0.600000*%
%ADD31C,0.550000*%
%ADD32C,0.762000*%
%ADD33C,0.254000*%
%ADD34C,0.508000*%
G04 APERTURE END LIST*
D10*
D11*
X49530000Y7155000D03*
X44450000Y7155000D03*
X41910000Y7155000D03*
X46990000Y7155000D03*
X52070000Y7155000D03*
X54610000Y7155000D03*
X38100000Y7155000D03*
X35560000Y7155000D03*
X33020000Y7155000D03*
X30480000Y7155000D03*
X27940000Y7155000D03*
D12*
X25400000Y7155000D03*
X25400000Y7155000D03*
D11*
X27940000Y7155000D03*
X30480000Y7155000D03*
X33020000Y7155000D03*
X35560000Y7155000D03*
X38100000Y7155000D03*
D13*
X44450000Y46720000D03*
X44450000Y44720000D03*
X35560000Y59960000D03*
X35560000Y61960000D03*
X39370000Y46720000D03*
X39370000Y44720000D03*
X19050000Y25130000D03*
X19050000Y23130000D03*
D14*
X75210000Y66560000D03*
X75210000Y68060000D03*
X72110000Y68060000D03*
X72110000Y66560000D03*
D15*
X33655000Y67310000D03*
D16*
X36195000Y67310000D03*
X38735000Y67310000D03*
X41275000Y67310000D03*
X43815000Y67310000D03*
X46355000Y67310000D03*
D17*
X19050000Y33180000D03*
X17780000Y33180000D03*
X16510000Y33180000D03*
X15240000Y33180000D03*
X15240000Y27780000D03*
X16510000Y27780000D03*
X17780000Y27780000D03*
X19050000Y27780000D03*
D18*
X38735000Y60325000D03*
X39935000Y60325000D03*
X37535000Y60325000D03*
D19*
X4130000Y54879240D03*
X6030000Y54879240D03*
X5080000Y56878220D03*
D20*
X52290980Y13505000D03*
X54389020Y13505000D03*
X47210980Y13505000D03*
X49309020Y13505000D03*
X42130980Y13505000D03*
X44229020Y13505000D03*
X35780980Y13505000D03*
X37879020Y13505000D03*
X30700980Y13505000D03*
X32799020Y13505000D03*
X25620980Y13505000D03*
X27719020Y13505000D03*
X72610980Y59690000D03*
X74709020Y59690000D03*
D13*
X4445000Y50435000D03*
X4445000Y52435000D03*
X6985000Y50435000D03*
X6985000Y52435000D03*
D21*
X44230000Y56940000D03*
X43580000Y56940000D03*
X42930000Y56940000D03*
X42280000Y56940000D03*
X41630000Y56940000D03*
X40980000Y56940000D03*
X40330000Y56940000D03*
X39680000Y56940000D03*
X39030000Y56940000D03*
X38380000Y56940000D03*
X37730000Y56940000D03*
X37080000Y56940000D03*
X36430000Y56940000D03*
X35780000Y56940000D03*
X35780000Y49740000D03*
X36430000Y49740000D03*
X37080000Y49740000D03*
X37730000Y49740000D03*
X38380000Y49740000D03*
X39030000Y49740000D03*
X39680000Y49740000D03*
X40330000Y49740000D03*
X40980000Y49740000D03*
X41630000Y49740000D03*
X42280000Y49740000D03*
X42930000Y49740000D03*
X43580000Y49740000D03*
X44230000Y49740000D03*
D22*
X17415000Y44765000D03*
X17415000Y42865000D03*
X19415000Y43815000D03*
X17415000Y38415000D03*
X17415000Y36515000D03*
X19415000Y37465000D03*
X17415000Y50480000D03*
X17415000Y48580000D03*
X19415000Y49530000D03*
D23*
X34290000Y32700000D03*
X34290000Y30800000D03*
X40005000Y32700000D03*
X40005000Y30800000D03*
X45720000Y32700000D03*
X45720000Y30800000D03*
D24*
X65720000Y67310000D03*
X63820000Y67310000D03*
X65720000Y64770000D03*
X63820000Y64770000D03*
X65720000Y62230000D03*
X63820000Y62230000D03*
X63820000Y59690000D03*
X65720000Y59690000D03*
X14920000Y53340000D03*
X13020000Y53340000D03*
X14920000Y50800000D03*
X13020000Y50800000D03*
X13020000Y48260000D03*
X14920000Y48260000D03*
X13020000Y45085000D03*
X14920000Y45085000D03*
X13020000Y38735000D03*
X14920000Y38735000D03*
X13020000Y42545000D03*
X14920000Y42545000D03*
X13020000Y36195000D03*
X14920000Y36195000D03*
D25*
X6985000Y41300000D03*
D26*
X6985000Y47600000D03*
X4685000Y47600000D03*
X9285000Y47600000D03*
D12*
X5080000Y65405000D03*
D11*
X7620000Y65405000D03*
D12*
X67310000Y7155000D03*
D11*
X69850000Y7155000D03*
X72390000Y7155000D03*
X74930000Y7155000D03*
D27*
X9200000Y19440005D03*
X11700000Y19440005D03*
X13700000Y19440005D03*
X16200000Y19440005D03*
X9200000Y16820005D03*
X11700000Y16820005D03*
X13700000Y16820005D03*
X16200000Y16820005D03*
D28*
X19270000Y14110005D03*
X19270000Y19790005D03*
X6130000Y19790005D03*
X6130000Y14110005D03*
D29*
X61030000Y6985000D03*
X63430000Y6985000D03*
D30*
X11430000Y45720000D03*
X11430000Y44450000D03*
X4000000Y53000000D03*
X7000000Y53000000D03*
X75000000Y59000000D03*
X41000000Y51000000D03*
X43523600Y51067364D03*
X39370000Y43815000D03*
X10160000Y46355000D03*
X9525000Y46355000D03*
X8890000Y46355000D03*
X8890000Y48895000D03*
X9525000Y48895000D03*
X10160000Y48895000D03*
X45085000Y44450000D03*
X36195000Y62230000D03*
X38735000Y61595000D03*
X39493838Y55680782D03*
X17780000Y48260000D03*
X12700000Y50165000D03*
X4445000Y53975000D03*
X18415000Y22860000D03*
X15240000Y26670000D03*
X34290000Y54610000D03*
X31750000Y50165000D03*
D31*
X37136400Y55245000D03*
D30*
X32385000Y49530000D03*
X37482196Y54576768D03*
X33020000Y50165000D03*
X42545000Y60960000D03*
X44450000Y59055000D03*
X43815000Y62230000D03*
X45085000Y59690000D03*
X13335000Y40005000D03*
X15240000Y40005000D03*
D31*
X36830000Y52102457D03*
D30*
X36965891Y50943656D03*
X34290000Y50800000D03*
X36195000Y52705000D03*
X15875000Y47625000D03*
X16510000Y34290000D03*
X15240000Y52949401D03*
X15240000Y51435000D03*
D32*
X9200000Y16820005D02*
X9200000Y19440005D01*
X9200000Y16820005D02*
X22210005Y3810000D01*
X22210005Y3810000D02*
X56523000Y3810000D01*
X56523000Y3810000D02*
X59698000Y6985000D01*
X59698000Y6985000D02*
X61030000Y6985000D01*
D33*
X11430000Y45720000D02*
X11430000Y47274000D01*
X11430000Y47274000D02*
X12416000Y48260000D01*
X12416000Y48260000D02*
X13020000Y48260000D01*
X11146000Y43815000D02*
X11146000Y44166000D01*
X11146000Y44166000D02*
X11430000Y44450000D01*
D32*
X4551599Y45704599D02*
X4551599Y43815000D01*
X4551599Y43815000D02*
X4551599Y36195000D01*
D33*
X13020000Y42545000D02*
X12416000Y42545000D01*
X12416000Y42545000D02*
X11146000Y43815000D01*
X11146000Y43815000D02*
X4551599Y43815000D01*
D32*
X4551599Y36195000D02*
X4551599Y31115000D01*
D33*
X13020000Y36195000D02*
X4551599Y36195000D01*
D32*
X4551599Y31115000D02*
X4551599Y25092497D01*
D33*
X19050000Y27780000D02*
X19050000Y28255000D01*
X19050000Y28255000D02*
X16190000Y31115000D01*
X16190000Y31115000D02*
X4551599Y31115000D01*
D32*
X4551599Y45704599D02*
X4685000Y45838000D01*
X4685000Y45838000D02*
X4685000Y47600000D01*
X4551599Y25092497D02*
X9200000Y20444096D01*
X9200000Y20444096D02*
X9200000Y19440005D01*
X4445000Y50435000D02*
X4445000Y47840000D01*
X4445000Y47840000D02*
X4685000Y47600000D01*
X6030000Y54879240D02*
X6030000Y53717190D01*
X6030000Y53717190D02*
X5603401Y53290591D01*
X5603401Y53290591D02*
X5603401Y51593401D01*
X5603401Y51593401D02*
X4445000Y50435000D01*
D33*
X19050000Y25130000D02*
X19050000Y27780000D01*
X4445000Y52435000D02*
X4445000Y52555000D01*
X4445000Y52555000D02*
X4000000Y53000000D01*
X6985000Y52435000D02*
X6985000Y52985000D01*
X6985000Y52985000D02*
X7000000Y53000000D01*
X74709020Y59690000D02*
X74709020Y59290980D01*
X74709020Y59290980D02*
X75000000Y59000000D01*
X40980000Y49740000D02*
X40980000Y50980000D01*
X40980000Y50980000D02*
X41000000Y51000000D01*
X43580000Y49740000D02*
X43580000Y51010964D01*
X43580000Y51010964D02*
X43523600Y51067364D01*
X39370000Y44720000D02*
X39370000Y43815000D01*
X9285000Y47600000D02*
X9285000Y47230000D01*
X9285000Y47230000D02*
X10160000Y46355000D01*
X9285000Y47600000D02*
X9285000Y46595000D01*
X9285000Y46595000D02*
X9525000Y46355000D01*
X9285000Y47600000D02*
X9285000Y46750000D01*
X9285000Y46750000D02*
X8890000Y46355000D01*
X9285000Y47600000D02*
X9285000Y48500000D01*
X9285000Y48500000D02*
X8890000Y48895000D01*
X9285000Y47600000D02*
X9285000Y48655000D01*
X9285000Y48655000D02*
X9525000Y48895000D01*
X9285000Y47600000D02*
X9285000Y48020000D01*
X9285000Y48020000D02*
X10160000Y48895000D01*
X44450000Y44720000D02*
X44815000Y44720000D01*
X44815000Y44720000D02*
X45085000Y44450000D01*
X39370000Y44720000D02*
X39370000Y44225600D01*
X35560000Y61960000D02*
X35925000Y61960000D01*
X35925000Y61960000D02*
X36195000Y62230000D01*
X38735000Y60325000D02*
X38735000Y61595000D01*
X39680000Y56940000D02*
X39680000Y55866944D01*
X39680000Y55866944D02*
X39493838Y55680782D01*
X17415000Y48580000D02*
X17460000Y48580000D01*
X17460000Y48580000D02*
X17780000Y48260000D01*
X13020000Y50800000D02*
X13020000Y50485000D01*
X13020000Y50485000D02*
X12700000Y50165000D01*
X4130000Y54880000D02*
X4130000Y54290000D01*
X4130000Y54290000D02*
X4445000Y53975000D01*
X19050000Y23130000D02*
X18685000Y23130000D01*
X18685000Y23130000D02*
X18415000Y22860000D01*
X15240000Y27780000D02*
X15240000Y26670000D01*
X39030000Y49740000D02*
X39030000Y47060000D01*
X39030000Y47060000D02*
X39370000Y46720000D01*
X35806381Y14383841D02*
X40005000Y14383841D01*
X40005000Y14383841D02*
X44203619Y14383841D01*
X40005000Y30800000D02*
X40005000Y14383841D01*
X35780980Y13505000D02*
X35780980Y14358440D01*
X35780980Y14358440D02*
X35806381Y14383841D01*
X44203619Y14383841D02*
X44229020Y14358440D01*
X44229020Y14358440D02*
X44229020Y13505000D01*
X30700980Y13505000D02*
X30700980Y14358440D01*
X35755579Y14383841D02*
X35780980Y14358440D01*
X30700980Y14358440D02*
X30726381Y14383841D01*
X30726381Y14383841D02*
X35755579Y14383841D01*
X27719020Y13505000D02*
X30700980Y13505000D01*
X30800000Y13604020D02*
X30700980Y13505000D01*
X27719020Y13505000D02*
X27719020Y13919020D01*
X45107861Y12849861D02*
X46332139Y14074139D01*
X46332139Y14074139D02*
X46332139Y14327961D01*
X46332139Y14327961D02*
X46388019Y14383841D01*
X45051981Y12626159D02*
X45107861Y12682039D01*
X45107861Y12682039D02*
X45107861Y12849861D01*
X45720000Y30800000D02*
X45720000Y15051860D01*
X45720000Y15051860D02*
X46388019Y14383841D01*
X42130980Y13505000D02*
X42130980Y12651560D01*
X46388019Y14383841D02*
X49283619Y14383841D01*
X42130980Y12651560D02*
X42156381Y12626159D01*
X49283619Y14383841D02*
X49309020Y14358440D01*
X42156381Y12626159D02*
X45051981Y12626159D01*
X49309020Y14358440D02*
X49309020Y13505000D01*
X37879020Y13505000D02*
X42130980Y13505000D01*
X49309020Y13505000D02*
X50162460Y13505000D01*
X50162460Y13505000D02*
X52290980Y13505000D01*
X52390000Y13604020D02*
X52290980Y13505000D01*
X49309020Y13505000D02*
X49309020Y13919020D01*
X70880000Y62230000D02*
X75210000Y66560000D01*
X65720000Y62230000D02*
X70880000Y62230000D01*
X65720000Y67310000D02*
X66470000Y68060000D01*
X66470000Y68060000D02*
X72110000Y68060000D01*
X65720000Y64770000D02*
X67510000Y66560000D01*
X67510000Y66560000D02*
X72110000Y66560000D01*
X44230000Y56940000D02*
X44709000Y56940000D01*
X44709000Y56940000D02*
X48729000Y60960000D01*
X64027512Y68605410D02*
X38125410Y68605410D01*
X37465000Y66811140D02*
X36668450Y66014590D01*
X48729000Y60960000D02*
X64135000Y60960000D01*
X64135000Y60960000D02*
X64770000Y61595000D01*
X64770000Y61595000D02*
X64770000Y67862922D01*
X64770000Y67862922D02*
X64027512Y68605410D01*
X38125410Y68605410D02*
X37465000Y67945000D01*
X37465000Y67945000D02*
X37465000Y66811140D01*
X36668450Y66014590D02*
X34798010Y66014590D01*
X34798010Y66014590D02*
X33655000Y67157600D01*
X33655000Y67157600D02*
X33655000Y67310000D01*
X34290000Y32700000D02*
X34290000Y39150000D01*
X34290000Y39150000D02*
X35780000Y40640000D01*
X35780000Y40640000D02*
X35780000Y49740000D01*
X39030000Y56940000D02*
X39030000Y58166000D01*
X39030000Y58166000D02*
X39935000Y59071000D01*
X39935000Y59071000D02*
X39935000Y60325000D01*
X39935000Y59525000D02*
X39935000Y60325000D01*
X38380000Y56940000D02*
X38380000Y58069000D01*
X38380000Y58069000D02*
X37535000Y58914000D01*
X37535000Y58914000D02*
X37535000Y59071000D01*
X37535000Y59071000D02*
X37535000Y60325000D01*
X36430000Y49740000D02*
X36430000Y40640000D01*
X40005000Y32700000D02*
X40005000Y37065000D01*
X40005000Y37065000D02*
X36430000Y40640000D01*
X38380000Y49740000D02*
X38380000Y41275000D01*
X38380000Y40644000D02*
X38380000Y41275000D01*
X45720000Y32700000D02*
X45720000Y33304000D01*
X45720000Y33304000D02*
X38380000Y40644000D01*
X14920000Y42545000D02*
X16290638Y42545000D01*
X19415000Y43161000D02*
X19415000Y43815000D01*
X16290638Y42545000D02*
X16700839Y42134799D01*
X16700839Y42134799D02*
X18388799Y42134799D01*
X18388799Y42134799D02*
X19415000Y43161000D01*
X15240000Y33180000D02*
X15240000Y33655000D01*
X15240000Y33655000D02*
X14239799Y34655201D01*
X14239799Y40960799D02*
X14920000Y41641000D01*
X14239799Y34655201D02*
X14239799Y40960799D01*
X14920000Y41641000D02*
X14920000Y42545000D01*
X14920000Y36195000D02*
X15524000Y36195000D01*
X15524000Y36195000D02*
X15934201Y35784799D01*
X15934201Y35784799D02*
X18388799Y35784799D01*
X18388799Y35784799D02*
X19415000Y36811000D01*
X19415000Y36811000D02*
X19415000Y37465000D01*
X19415000Y37465000D02*
X19415000Y33545000D01*
X19415000Y33545000D02*
X19050000Y33180000D01*
X34290000Y54610000D02*
X35780000Y56100000D01*
X35780000Y56100000D02*
X35780000Y56940000D01*
X25180375Y23714625D02*
X31750000Y30284250D01*
X31750000Y30284250D02*
X31750000Y50165000D01*
X24401753Y22936003D02*
X25180375Y23714625D01*
X24358590Y18246660D02*
X24358591Y22892841D01*
X24358591Y22892841D02*
X24401753Y22936003D01*
X24358590Y15468590D02*
X24358590Y18246660D01*
X25400000Y7155000D02*
X25400000Y8559000D01*
X25400000Y8559000D02*
X23723591Y10235409D01*
X23723591Y10235409D02*
X23723591Y14833591D01*
X23723591Y14833591D02*
X24358590Y15468590D01*
X37136400Y55245000D02*
X37136400Y56883600D01*
X37136400Y56883600D02*
X37080000Y56940000D01*
X31500250Y29459750D02*
X32385000Y30344500D01*
X32385000Y30344500D02*
X32385000Y49530000D01*
X24808162Y22767662D02*
X31500250Y29459750D01*
X24765000Y18415000D02*
X24765000Y22724500D01*
X24765000Y22724500D02*
X24808162Y22767662D01*
X24765000Y15202611D02*
X24765000Y18415000D01*
X24130000Y12719428D02*
X24130000Y14567611D01*
X24130000Y14567611D02*
X24765000Y15202611D01*
X26840000Y10795000D02*
X26054428Y10795000D01*
X26054428Y10795000D02*
X24130000Y12719428D01*
X30480000Y7155000D02*
X26840000Y10795000D01*
X37482196Y54576768D02*
X37730000Y54824572D01*
X37730000Y54824572D02*
X37730000Y56940000D01*
X33020000Y50165000D02*
X33020000Y30404750D01*
X33020000Y30404750D02*
X25214571Y22599321D01*
X25994178Y11430000D02*
X31285000Y11430000D01*
X25214571Y22599321D02*
X25214570Y15077431D01*
X25214570Y15077431D02*
X24742139Y14605000D01*
X24742139Y14605000D02*
X24742139Y12682039D01*
X24742139Y12682039D02*
X25994178Y11430000D01*
X31285000Y11430000D02*
X35560000Y7155000D01*
X53340000Y10795000D02*
X45550000Y10795000D01*
X45550000Y10795000D02*
X41910000Y7155000D01*
X55267861Y12722861D02*
X53340000Y10795000D01*
X40640000Y43180000D02*
X55267861Y28552139D01*
X55267861Y28552139D02*
X55267861Y12722861D01*
X40640000Y47651000D02*
X40640000Y43180000D01*
X39680000Y49740000D02*
X39680000Y48611000D01*
X39680000Y48611000D02*
X40640000Y47651000D01*
X46990000Y7155000D02*
X50223590Y10388590D01*
X50223590Y10388590D02*
X53508341Y10388591D01*
X41046410Y47853590D02*
X40330000Y48570000D01*
X53508341Y10388591D02*
X55674271Y12554521D01*
X55674271Y12554521D02*
X55674270Y28720480D01*
X55674270Y28720480D02*
X53975000Y30419750D01*
X53975000Y30419750D02*
X53975000Y30480000D01*
X53975000Y30480000D02*
X41046410Y43408590D01*
X40330000Y48570000D02*
X40330000Y49740000D01*
X41046410Y43408590D02*
X41046410Y47853590D01*
X42545000Y60960000D02*
X41275000Y62230000D01*
X41275000Y62230000D02*
X41275000Y67310000D01*
X42930000Y56940000D02*
X42930000Y57892922D01*
X42930000Y57892922D02*
X44092078Y59055000D01*
X44092078Y59055000D02*
X44450000Y59055000D01*
X43815000Y62230000D02*
X43815000Y67310000D01*
X43580000Y56940000D02*
X43580000Y57883712D01*
X43580000Y57883712D02*
X44171887Y58475599D01*
X44171887Y58475599D02*
X44728113Y58475599D01*
X44728113Y58475599D02*
X45085000Y58832486D01*
X45085000Y58832486D02*
X45085000Y59690000D01*
X34290000Y30800000D02*
X33990000Y30800000D01*
X33990000Y30800000D02*
X25620980Y22430980D01*
X25620980Y22430980D02*
X25620980Y14358440D01*
X25620980Y14358440D02*
X25620980Y13505000D01*
X46355000Y12065000D02*
X46624420Y12065000D01*
X47210980Y12651560D02*
X47210980Y13505000D01*
X46624420Y12065000D02*
X47210980Y12651560D01*
X33385580Y12065000D02*
X46355000Y12065000D01*
X32799020Y12651560D02*
X33385580Y12065000D01*
X32799020Y13505000D02*
X32799020Y12920980D01*
X47210980Y12651560D02*
X47236381Y12626159D01*
X47236381Y12626159D02*
X54363619Y12626159D01*
X54363619Y12626159D02*
X54389020Y12651560D01*
X54389020Y12651560D02*
X54389020Y13505000D01*
X25620980Y13505000D02*
X25620980Y12651560D01*
X25620980Y12651560D02*
X25646381Y12626159D01*
X25646381Y12626159D02*
X32773619Y12626159D01*
X32773619Y12626159D02*
X32799020Y12651560D01*
X32799020Y12651560D02*
X32799020Y13505000D01*
X25720000Y13604020D02*
X25620980Y13505000D01*
X32799020Y13505000D02*
X32799020Y13919020D01*
D32*
X5080000Y65405000D02*
X5080000Y56878220D01*
D34*
X35794967Y53538401D02*
X42981599Y53538401D01*
X42981599Y53538401D02*
X44230000Y52290000D01*
D33*
X44230000Y52290000D02*
X44230000Y51230000D01*
X44230000Y51230000D02*
X44230000Y49740000D01*
D34*
X26838000Y69215000D02*
X35560000Y69215000D01*
X35560000Y69215000D02*
X72797000Y69215000D01*
D33*
X35858599Y68916401D02*
X35560000Y69215000D01*
D34*
X12233000Y54610000D02*
X26838000Y69215000D01*
X72797000Y69215000D02*
X73952000Y68060000D01*
X73952000Y68060000D02*
X75210000Y68060000D01*
D33*
X13335000Y40005000D02*
X13649401Y40319401D01*
X13649401Y43551599D02*
X13020000Y44181000D01*
X13649401Y40319401D02*
X13649401Y43551599D01*
X13020000Y44181000D02*
X13020000Y45085000D01*
X13335000Y40005000D02*
X13020000Y39690000D01*
X13020000Y39690000D02*
X13020000Y39639000D01*
X17415000Y38415000D02*
X17365000Y38415000D01*
X17365000Y38415000D02*
X15775000Y40005000D01*
X15775000Y40005000D02*
X15240000Y40005000D01*
X13020000Y39639000D02*
X13020000Y38735000D01*
X6985000Y47600000D02*
X6985000Y47350000D01*
X9250000Y45085000D02*
X12416000Y45085000D01*
X6985000Y47350000D02*
X9250000Y45085000D01*
X12416000Y45085000D02*
X13020000Y45085000D01*
X13020000Y45085000D02*
X13020000Y45385000D01*
X13020000Y45385000D02*
X13649401Y46014401D01*
X13649401Y46014401D02*
X16850599Y46014401D01*
X16850599Y46014401D02*
X17415000Y45450000D01*
X17415000Y45450000D02*
X17415000Y44765000D01*
X36195000Y67310000D02*
X36195000Y68580000D01*
X36195000Y68580000D02*
X35858599Y68916401D01*
X63820000Y59690000D02*
X63820000Y59990000D01*
X63820000Y59990000D02*
X65130599Y61300599D01*
X65130599Y61300599D02*
X71653521Y61300599D01*
X71653521Y61300599D02*
X76239401Y65886479D01*
X76239401Y65886479D02*
X76239401Y67330599D01*
X76239401Y67330599D02*
X75510000Y68060000D01*
X75510000Y68060000D02*
X75210000Y68060000D01*
X36195000Y67157600D02*
X36195000Y67310000D01*
D34*
X36430000Y56940000D02*
X36430000Y54173434D01*
X36430000Y54173434D02*
X35794967Y53538401D01*
D32*
X18415000Y54610000D02*
X19486599Y53538401D01*
X19486599Y53538401D02*
X35794967Y53538401D01*
X12233000Y54610000D02*
X18415000Y54610000D01*
X6985000Y47600000D02*
X6985000Y49362000D01*
X6985000Y49362000D02*
X12233000Y54610000D01*
X6985000Y47600000D02*
X6985000Y50435000D01*
D33*
X36430000Y56940000D02*
X36430000Y59090000D01*
X36439000Y59099000D02*
X36439000Y59206000D01*
X36430000Y59090000D02*
X36439000Y59099000D01*
X35685000Y59960000D02*
X35560000Y59960000D01*
X36439000Y59206000D02*
X35685000Y59960000D01*
X44230000Y49740000D02*
X44230000Y46940000D01*
X44230000Y46940000D02*
X44450000Y46720000D01*
X75210000Y68060000D02*
X75325000Y67945000D01*
X40980000Y56940000D02*
X40980000Y58069000D01*
X40980000Y58069000D02*
X50221000Y67310000D01*
X50221000Y67310000D02*
X63216000Y67310000D01*
X63216000Y67310000D02*
X63820000Y67310000D01*
X41630000Y56940000D02*
X41630000Y57892922D01*
X41630000Y57892922D02*
X48507078Y64770000D01*
X48507078Y64770000D02*
X63216000Y64770000D01*
X63216000Y64770000D02*
X63820000Y64770000D01*
X42280000Y56940000D02*
X42280000Y57892922D01*
X42280000Y57892922D02*
X46617078Y62230000D01*
X46617078Y62230000D02*
X63216000Y62230000D01*
X63216000Y62230000D02*
X63820000Y62230000D01*
X36830000Y52102457D02*
X13957543Y52102457D01*
X13957543Y52102457D02*
X13020000Y53040000D01*
X13020000Y53040000D02*
X13020000Y53340000D01*
X37080000Y49740000D02*
X37080000Y50829547D01*
X37080000Y50829547D02*
X36965891Y50943656D01*
X37730000Y49740000D02*
X37080000Y49740000D01*
X37080000Y49740000D02*
X37080000Y50692922D01*
X42280000Y49740000D02*
X42280000Y50869000D01*
X42280000Y50869000D02*
X41149000Y52000000D01*
X41149000Y52000000D02*
X40000000Y52000000D01*
X40000000Y52000000D02*
X39523057Y51523057D01*
X17465000Y42865000D02*
X17415000Y42865000D01*
X39523057Y51523057D02*
X25770135Y51523057D01*
X25770135Y51523057D02*
X17465000Y43217922D01*
X17465000Y43217922D02*
X17465000Y42865000D01*
X17415000Y42865000D02*
X17365000Y42865000D01*
X17365000Y42865000D02*
X15145000Y45085000D01*
X15145000Y45085000D02*
X14920000Y45085000D01*
X34290000Y50800000D02*
X31115000Y50800000D01*
X41094000Y52705000D02*
X36195000Y52705000D01*
X17415000Y36515000D02*
X17415000Y37169000D01*
X17415000Y37169000D02*
X31046000Y50800000D01*
X41729000Y52070000D02*
X41094000Y52705000D01*
X17415000Y36515000D02*
X17465000Y36515000D01*
X41729000Y52070000D02*
X42930000Y50869000D01*
X42930000Y50869000D02*
X42930000Y49740000D01*
X17415000Y36515000D02*
X17365000Y36515000D01*
X17365000Y36515000D02*
X15272000Y38608000D01*
X15272000Y38608000D02*
X14920000Y38608000D01*
X11700000Y18805005D02*
X11700000Y21225000D01*
X16510000Y26035000D02*
X16510000Y27780000D01*
X11700000Y21225000D02*
X16510000Y26035000D01*
X11700000Y16185005D02*
X11700000Y18805005D01*
X13700000Y18805005D02*
X13700000Y21955000D01*
X17780000Y26035000D02*
X17780000Y27780000D01*
X13700000Y21955000D02*
X17780000Y26035000D01*
X13700000Y18805005D02*
X13700000Y16185005D01*
X15875000Y47625000D02*
X15555000Y47625000D01*
X15555000Y47625000D02*
X14920000Y48260000D01*
X16510000Y33180000D02*
X16510000Y34290000D01*
X17780000Y33180000D02*
X16510000Y33180000D01*
X14920000Y48260000D02*
X14920000Y48560000D01*
X14920000Y48560000D02*
X15890000Y49530000D01*
X15890000Y49530000D02*
X18711000Y49530000D01*
X18711000Y49530000D02*
X19415000Y49530000D01*
X65720000Y59690000D02*
X72610980Y59690000D01*
X41630000Y49740000D02*
X41630000Y43460000D01*
X41630000Y43460000D02*
X55880000Y29210000D01*
X55880000Y29210000D02*
X55880000Y29089500D01*
X55880000Y29089500D02*
X56080679Y28888819D01*
X56080679Y28888819D02*
X56080679Y11165679D01*
X56080679Y11165679D02*
X52070000Y7155000D01*
X15240000Y52949401D02*
X15240000Y53020000D01*
X15240000Y53020000D02*
X14920000Y53340000D01*
X17415000Y50480000D02*
X15240000Y50480000D01*
X15240000Y50480000D02*
X14920000Y50800000D01*
X14920000Y50800000D02*
X14920000Y51115000D01*
X14920000Y51115000D02*
X15240000Y51435000D01*
D32*
X63430000Y6985000D02*
X67140000Y6985000D01*
X67140000Y6985000D02*
X67310000Y7155000D01*
X67310000Y7155000D02*
X69850000Y7155000D01*
M02*
