G04 #@! TF.FileFunction,Copper,L4,Bot,Signal*
%FSLAX46Y46*%
G04 Gerber Fmt 4.6, Leading zero omitted, Abs format (unit mm)*
G04 Created by KiCad (PCBNEW 4.0.7) date Sun Nov 26 02:27:56 2017*
%MOMM*%
%LPD*%
G01*
G04 APERTURE LIST*
%ADD10C,0.127000*%
%ADD11R,1.700000X1.700000*%
%ADD12O,1.700000X1.700000*%
%ADD13C,1.420000*%
%ADD14C,2.800000*%
%ADD15R,2.300000X2.300000*%
%ADD16C,2.300000*%
%ADD17O,3.500120X7.000240*%
%ADD18O,1.600200X2.499360*%
%ADD19C,0.600000*%
%ADD20C,0.254000*%
G04 APERTURE END LIST*
D10*
D11*
X33655000Y67310000D03*
D12*
X36195000Y67310000D03*
X38735000Y67310000D03*
X41275000Y67310000D03*
X43815000Y67310000D03*
X46355000Y67310000D03*
D13*
X9200000Y19440005D03*
X11700000Y19440005D03*
X13700000Y19440005D03*
X16200000Y19440005D03*
X9200000Y16820005D03*
X11700000Y16820005D03*
X13700000Y16820005D03*
X16200000Y16820005D03*
D14*
X19270000Y14110005D03*
X19270000Y19790005D03*
X6130000Y19790005D03*
X6130000Y14110005D03*
D15*
X5080000Y65405000D03*
D16*
X7620000Y65405000D03*
D17*
X34942780Y10261600D03*
X24744680Y10261600D03*
D18*
X29845000Y14526260D03*
X32344360Y14526260D03*
D17*
X62882780Y10261600D03*
X52684680Y10261600D03*
D18*
X57785000Y14526260D03*
X60284360Y14526260D03*
D19*
X24638000Y61468000D03*
X27940000Y62865000D03*
X57150000Y61595000D03*
X27305000Y63500000D03*
X19050000Y54610000D03*
X15240000Y59690000D03*
X8890000Y57150000D03*
X10160000Y50165000D03*
X9525000Y48895000D03*
X8890000Y48895000D03*
X8890000Y51435000D03*
X9525000Y51435000D03*
X10160000Y51435000D03*
X10160000Y53340000D03*
X17780000Y48260000D03*
X4445000Y53975000D03*
X18415000Y22860000D03*
X12700000Y50165000D03*
X33020000Y54610000D03*
X31115000Y52705000D03*
X59055000Y52705000D03*
X20221050Y57128767D03*
X19685000Y66675000D03*
X35560000Y53975000D03*
X35560000Y55245000D03*
X38100000Y53975000D03*
X38100000Y55245000D03*
X63500000Y53975000D03*
X63500000Y55245000D03*
X66040000Y53975000D03*
X66040000Y55245000D03*
X50800000Y53340000D03*
X15240000Y26670000D03*
X38100000Y54610000D03*
X35560000Y54610000D03*
X66040000Y54610000D03*
X63500000Y54610000D03*
X22860000Y53340000D03*
X61595000Y55245000D03*
X75565000Y59690000D03*
X41910000Y16510000D03*
X35560000Y36830000D03*
X38100000Y29210000D03*
X45720000Y13335000D03*
X31115000Y26035000D03*
X48260000Y46355000D03*
X45720000Y46355000D03*
X48260000Y47625000D03*
X45720000Y47625000D03*
X26670000Y45720000D03*
X29273438Y45783438D03*
X31750000Y48895000D03*
X25400000Y40640000D03*
X48260000Y46990000D03*
X45720000Y46990000D03*
X41910000Y13335000D03*
X33655000Y41910000D03*
X29210000Y34925000D03*
X46355000Y34290000D03*
X38100000Y46355000D03*
X35560000Y46355000D03*
X35560000Y47625000D03*
X38100000Y47625000D03*
X29845000Y48895000D03*
X22860000Y45720000D03*
X46990000Y17780000D03*
X26035000Y18415000D03*
X46990000Y38735000D03*
X33655000Y24765000D03*
X28575000Y43180000D03*
X38100000Y46990000D03*
X35560000Y46990000D03*
X34290000Y43180000D03*
X34290000Y45085000D03*
X42545000Y36195000D03*
X26670000Y39370000D03*
X48260000Y8890000D03*
X42545000Y27305000D03*
X48260000Y26035000D03*
X25400000Y36195000D03*
X30480000Y40640000D03*
X44450000Y7620000D03*
X73660000Y46355000D03*
X73660000Y47625000D03*
X76200000Y46355000D03*
X76200000Y47625000D03*
X57150000Y45720000D03*
X60960000Y48895000D03*
X55880000Y42545000D03*
X69850000Y13335000D03*
X53340000Y40640000D03*
X61595000Y41910000D03*
X76200000Y46990000D03*
X73660000Y46990000D03*
X54610000Y45720000D03*
X57150000Y34925000D03*
X74295000Y34290000D03*
X63500000Y46355000D03*
X63500000Y47625000D03*
X66040000Y46355000D03*
X66040000Y47625000D03*
X57785000Y48895000D03*
X50800000Y45720000D03*
X74930000Y17780000D03*
X76200000Y8890000D03*
X72390000Y7620000D03*
X61595000Y24765000D03*
X53340000Y36195000D03*
X54610000Y39370000D03*
X66040000Y46990000D03*
X63500000Y46990000D03*
X62230000Y43180000D03*
X62230000Y45085000D03*
X57150000Y43180000D03*
X70485000Y36195000D03*
X74930000Y38735000D03*
X70485000Y27305000D03*
X76200000Y26035000D03*
X53975000Y18415000D03*
X58420000Y40640000D03*
X73660000Y13335000D03*
X69850000Y16510000D03*
X63500000Y36830000D03*
X59055000Y26035000D03*
X66675000Y29210000D03*
X25400000Y58424800D03*
X23495000Y57150000D03*
X24130000Y57785000D03*
X20259030Y56377325D03*
X20955000Y54610000D03*
X63500000Y59055000D03*
X12700000Y45720000D03*
X17145000Y45085000D03*
X12700000Y39370000D03*
X17145000Y38735000D03*
X28575000Y52705000D03*
X56515000Y52705000D03*
X50800000Y57785000D03*
X54610000Y57785000D03*
X22225000Y66675000D03*
X22225000Y64770000D03*
X7620000Y48895000D03*
X6985000Y48895000D03*
X6350000Y48895000D03*
X6350000Y51435000D03*
X6985000Y51435000D03*
X7620000Y51435000D03*
X76200000Y67945000D03*
X26670000Y53340000D03*
X54610000Y53340000D03*
X32385000Y31115000D03*
X31115000Y29845000D03*
X60325000Y31115000D03*
X59055000Y29845000D03*
X27940000Y59944000D03*
X37440652Y65719128D03*
X35560000Y64770000D03*
X27178000Y59182000D03*
X37084000Y64262000D03*
X26670000Y58420000D03*
X53975000Y53975000D03*
X25400000Y53340000D03*
X20871050Y64771105D03*
X49530000Y52705000D03*
X24130000Y53340000D03*
X16998048Y62865000D03*
X18264100Y53306503D03*
X18415000Y43815000D03*
X19050000Y53340000D03*
X18415000Y37465000D03*
X15240000Y52949401D03*
X15240000Y51435000D03*
X15875000Y47625000D03*
X16510000Y34290000D03*
D20*
X25400000Y58424800D02*
X25400000Y59055000D01*
X25400000Y58583403D02*
X25400000Y58424800D01*
X25400000Y59055000D02*
X33655000Y67310000D01*
X23495000Y57150000D02*
X33655000Y57150000D01*
X33655000Y57150000D02*
X43815000Y67310000D01*
X24130000Y57785000D02*
X31750000Y57785000D01*
X31750000Y57785000D02*
X31918203Y57953203D01*
X31918203Y57953203D02*
X41275000Y67310000D01*
X31115000Y29845000D02*
X32385000Y31115000D01*
X59055000Y29845000D02*
X60325000Y31115000D01*
X27940000Y59944000D02*
X28544809Y59944000D01*
X28544809Y59944000D02*
X34319937Y65719128D01*
X34319937Y65719128D02*
X37440652Y65719128D01*
X27178000Y59182000D02*
X29972000Y59182000D01*
X29972000Y59182000D02*
X35560000Y64770000D01*
X32200603Y59055000D02*
X31900604Y58755001D01*
X36784001Y63638398D02*
X32200603Y59055000D01*
X36784001Y63962001D02*
X36784001Y63638398D01*
X37084000Y64262000D02*
X36784001Y63962001D01*
X31565603Y58420000D02*
X31900604Y58755001D01*
X31900604Y58755001D02*
X31900605Y58755001D01*
X31565603Y58420000D02*
X31115000Y58420000D01*
X26670000Y58420000D02*
X31115000Y58420000D01*
X31115000Y58420000D02*
X31565603Y58420000D01*
X25400000Y53340000D02*
X26030201Y52709799D01*
X26030201Y52709799D02*
X26972497Y52709799D01*
X26972497Y52709799D02*
X27602698Y53340000D01*
X27602698Y53340000D02*
X49867302Y53340000D01*
X49867302Y53340000D02*
X50502302Y53975000D01*
X50502302Y53975000D02*
X53975000Y53975000D01*
X20871050Y64771105D02*
X22098832Y63543323D01*
X22098832Y63543323D02*
X22098832Y56641168D01*
X22098832Y56641168D02*
X25400000Y53340000D01*
X20851251Y57023000D02*
X20851251Y59011797D01*
X22225000Y55669264D02*
X22204987Y55669264D01*
X22204987Y55669264D02*
X20851251Y57023000D01*
X24130000Y53340000D02*
X25344401Y52125599D01*
X25344401Y52125599D02*
X48950599Y52125599D01*
X48950599Y52125599D02*
X49530000Y52705000D01*
X24130000Y53340000D02*
X24130000Y53764264D01*
X17298047Y62565001D02*
X16998048Y62865000D01*
X24130000Y53764264D02*
X22225000Y55669264D01*
X20851251Y59011797D02*
X17298047Y62565001D01*
X18264100Y53306503D02*
X18415000Y53155603D01*
X18415000Y53155603D02*
X18415000Y44239264D01*
X18415000Y44239264D02*
X18415000Y43815000D01*
X19050000Y53340000D02*
X19050000Y38100000D01*
X19050000Y38100000D02*
X18415000Y37465000D01*
X15240000Y51435000D02*
X15240000Y52949401D01*
X16510000Y34290000D02*
X16510000Y46990000D01*
X16510000Y46990000D02*
X15875000Y47625000D01*
G36*
X29268013Y49281259D02*
X29164118Y49031054D01*
X29163882Y48760135D01*
X29267339Y48509748D01*
X29458741Y48318013D01*
X29708946Y48214118D01*
X29979865Y48213882D01*
X30230252Y48317339D01*
X30421987Y48508741D01*
X30525882Y48758946D01*
X30526118Y49029865D01*
X30422661Y49280252D01*
X30300126Y49403000D01*
X31294966Y49403000D01*
X31173013Y49281259D01*
X31069118Y49031054D01*
X31068882Y48760135D01*
X31172339Y48509748D01*
X31363741Y48318013D01*
X31613946Y48214118D01*
X31884865Y48213882D01*
X32135252Y48317339D01*
X32326987Y48508741D01*
X32430882Y48758946D01*
X32431118Y49029865D01*
X32327661Y49280252D01*
X32205126Y49403000D01*
X49149000Y49403000D01*
X49149000Y456000D01*
X21717000Y456000D01*
X21717000Y12087696D01*
X22613620Y12087696D01*
X22613620Y8435504D01*
X22775837Y7619983D01*
X23237793Y6928617D01*
X23929159Y6466661D01*
X24744680Y6304444D01*
X25560201Y6466661D01*
X26251567Y6928617D01*
X26713523Y7619983D01*
X26875740Y8435504D01*
X26875740Y12087696D01*
X26713523Y12903217D01*
X26251567Y13594583D01*
X25560201Y14056539D01*
X24744680Y14218756D01*
X23929159Y14056539D01*
X23237793Y13594583D01*
X22775837Y12903217D01*
X22613620Y12087696D01*
X21717000Y12087696D01*
X21717000Y15007787D01*
X28663900Y15007787D01*
X28663900Y14044733D01*
X28753806Y13592746D01*
X29009836Y13209569D01*
X29393013Y12953539D01*
X29845000Y12863633D01*
X30296987Y12953539D01*
X30680164Y13209569D01*
X30936194Y13592746D01*
X31026100Y14044733D01*
X31026100Y15007787D01*
X31163260Y15007787D01*
X31163260Y14044733D01*
X31253166Y13592746D01*
X31509196Y13209569D01*
X31892373Y12953539D01*
X32344360Y12863633D01*
X32796347Y12953539D01*
X33177918Y13208496D01*
X32973937Y12903217D01*
X32811720Y12087696D01*
X32811720Y8435504D01*
X32973937Y7619983D01*
X33435893Y6928617D01*
X34127259Y6466661D01*
X34942780Y6304444D01*
X35758301Y6466661D01*
X36449667Y6928617D01*
X36821520Y7485135D01*
X43768882Y7485135D01*
X43872339Y7234748D01*
X44063741Y7043013D01*
X44313946Y6939118D01*
X44584865Y6938882D01*
X44835252Y7042339D01*
X45026987Y7233741D01*
X45130882Y7483946D01*
X45131118Y7754865D01*
X45027661Y8005252D01*
X44836259Y8196987D01*
X44586054Y8300882D01*
X44315135Y8301118D01*
X44064748Y8197661D01*
X43873013Y8006259D01*
X43769118Y7756054D01*
X43768882Y7485135D01*
X36821520Y7485135D01*
X36911623Y7619983D01*
X37073840Y8435504D01*
X37073840Y8755135D01*
X47578882Y8755135D01*
X47682339Y8504748D01*
X47873741Y8313013D01*
X48123946Y8209118D01*
X48394865Y8208882D01*
X48645252Y8312339D01*
X48836987Y8503741D01*
X48940882Y8753946D01*
X48941118Y9024865D01*
X48837661Y9275252D01*
X48646259Y9466987D01*
X48396054Y9570882D01*
X48125135Y9571118D01*
X47874748Y9467661D01*
X47683013Y9276259D01*
X47579118Y9026054D01*
X47578882Y8755135D01*
X37073840Y8755135D01*
X37073840Y12087696D01*
X36911623Y12903217D01*
X36713229Y13200135D01*
X41228882Y13200135D01*
X41332339Y12949748D01*
X41523741Y12758013D01*
X41773946Y12654118D01*
X42044865Y12653882D01*
X42295252Y12757339D01*
X42486987Y12948741D01*
X42590882Y13198946D01*
X42591118Y13469865D01*
X42487661Y13720252D01*
X42296259Y13911987D01*
X42046054Y14015882D01*
X41775135Y14016118D01*
X41524748Y13912661D01*
X41333013Y13721259D01*
X41229118Y13471054D01*
X41228882Y13200135D01*
X36713229Y13200135D01*
X36449667Y13594583D01*
X35758301Y14056539D01*
X34942780Y14218756D01*
X34127259Y14056539D01*
X33435923Y13594603D01*
X33525460Y14044733D01*
X33525460Y15007787D01*
X33435554Y15459774D01*
X33179524Y15842951D01*
X32796347Y16098981D01*
X32344360Y16188887D01*
X31892373Y16098981D01*
X31509196Y15842951D01*
X31253166Y15459774D01*
X31163260Y15007787D01*
X31026100Y15007787D01*
X30936194Y15459774D01*
X30680164Y15842951D01*
X30296987Y16098981D01*
X29845000Y16188887D01*
X29393013Y16098981D01*
X29009836Y15842951D01*
X28753806Y15459774D01*
X28663900Y15007787D01*
X21717000Y15007787D01*
X21717000Y17645135D01*
X46308882Y17645135D01*
X46412339Y17394748D01*
X46603741Y17203013D01*
X46853946Y17099118D01*
X47124865Y17098882D01*
X47375252Y17202339D01*
X47566987Y17393741D01*
X47670882Y17643946D01*
X47671118Y17914865D01*
X47567661Y18165252D01*
X47376259Y18356987D01*
X47126054Y18460882D01*
X46855135Y18461118D01*
X46604748Y18357661D01*
X46413013Y18166259D01*
X46309118Y17916054D01*
X46308882Y17645135D01*
X21717000Y17645135D01*
X21717000Y18280135D01*
X25353882Y18280135D01*
X25457339Y18029748D01*
X25648741Y17838013D01*
X25898946Y17734118D01*
X26169865Y17733882D01*
X26420252Y17837339D01*
X26611987Y18028741D01*
X26715882Y18278946D01*
X26716118Y18549865D01*
X26612661Y18800252D01*
X26421259Y18991987D01*
X26171054Y19095882D01*
X25900135Y19096118D01*
X25649748Y18992661D01*
X25458013Y18801259D01*
X25354118Y18551054D01*
X25353882Y18280135D01*
X21717000Y18280135D01*
X21717000Y24630135D01*
X32973882Y24630135D01*
X33077339Y24379748D01*
X33268741Y24188013D01*
X33518946Y24084118D01*
X33789865Y24083882D01*
X34040252Y24187339D01*
X34231987Y24378741D01*
X34335882Y24628946D01*
X34336118Y24899865D01*
X34232661Y25150252D01*
X34041259Y25341987D01*
X33791054Y25445882D01*
X33520135Y25446118D01*
X33269748Y25342661D01*
X33078013Y25151259D01*
X32974118Y24901054D01*
X32973882Y24630135D01*
X21717000Y24630135D01*
X21717000Y25900135D01*
X47578882Y25900135D01*
X47682339Y25649748D01*
X47873741Y25458013D01*
X48123946Y25354118D01*
X48394865Y25353882D01*
X48645252Y25457339D01*
X48836987Y25648741D01*
X48940882Y25898946D01*
X48941118Y26169865D01*
X48837661Y26420252D01*
X48646259Y26611987D01*
X48396054Y26715882D01*
X48125135Y26716118D01*
X47874748Y26612661D01*
X47683013Y26421259D01*
X47579118Y26171054D01*
X47578882Y25900135D01*
X21717000Y25900135D01*
X21717000Y27170135D01*
X41863882Y27170135D01*
X41967339Y26919748D01*
X42158741Y26728013D01*
X42408946Y26624118D01*
X42679865Y26623882D01*
X42930252Y26727339D01*
X43121987Y26918741D01*
X43225882Y27168946D01*
X43226118Y27439865D01*
X43122661Y27690252D01*
X42931259Y27881987D01*
X42681054Y27985882D01*
X42410135Y27986118D01*
X42159748Y27882661D01*
X41968013Y27691259D01*
X41864118Y27441054D01*
X41863882Y27170135D01*
X21717000Y27170135D01*
X21717000Y29710135D01*
X30433882Y29710135D01*
X30537339Y29459748D01*
X30728741Y29268013D01*
X30978946Y29164118D01*
X31249865Y29163882D01*
X31500252Y29267339D01*
X31691987Y29458741D01*
X31795882Y29708946D01*
X31795968Y29807548D01*
X32422387Y30433967D01*
X32519865Y30433882D01*
X32770252Y30537339D01*
X32961987Y30728741D01*
X33065882Y30978946D01*
X33066118Y31249865D01*
X32962661Y31500252D01*
X32771259Y31691987D01*
X32521054Y31795882D01*
X32250135Y31796118D01*
X31999748Y31692661D01*
X31808013Y31501259D01*
X31704118Y31251054D01*
X31704032Y31152452D01*
X31077613Y30526033D01*
X30980135Y30526118D01*
X30729748Y30422661D01*
X30538013Y30231259D01*
X30434118Y29981054D01*
X30433882Y29710135D01*
X21717000Y29710135D01*
X21717000Y34155135D01*
X45673882Y34155135D01*
X45777339Y33904748D01*
X45968741Y33713013D01*
X46218946Y33609118D01*
X46489865Y33608882D01*
X46740252Y33712339D01*
X46931987Y33903741D01*
X47035882Y34153946D01*
X47036118Y34424865D01*
X46932661Y34675252D01*
X46741259Y34866987D01*
X46491054Y34970882D01*
X46220135Y34971118D01*
X45969748Y34867661D01*
X45778013Y34676259D01*
X45674118Y34426054D01*
X45673882Y34155135D01*
X21717000Y34155135D01*
X21717000Y34790135D01*
X28528882Y34790135D01*
X28632339Y34539748D01*
X28823741Y34348013D01*
X29073946Y34244118D01*
X29344865Y34243882D01*
X29595252Y34347339D01*
X29786987Y34538741D01*
X29890882Y34788946D01*
X29891118Y35059865D01*
X29787661Y35310252D01*
X29596259Y35501987D01*
X29346054Y35605882D01*
X29075135Y35606118D01*
X28824748Y35502661D01*
X28633013Y35311259D01*
X28529118Y35061054D01*
X28528882Y34790135D01*
X21717000Y34790135D01*
X21717000Y36060135D01*
X24718882Y36060135D01*
X24822339Y35809748D01*
X25013741Y35618013D01*
X25263946Y35514118D01*
X25534865Y35513882D01*
X25785252Y35617339D01*
X25976987Y35808741D01*
X26080882Y36058946D01*
X26080883Y36060135D01*
X41863882Y36060135D01*
X41967339Y35809748D01*
X42158741Y35618013D01*
X42408946Y35514118D01*
X42679865Y35513882D01*
X42930252Y35617339D01*
X43121987Y35808741D01*
X43225882Y36058946D01*
X43226118Y36329865D01*
X43122661Y36580252D01*
X42931259Y36771987D01*
X42681054Y36875882D01*
X42410135Y36876118D01*
X42159748Y36772661D01*
X41968013Y36581259D01*
X41864118Y36331054D01*
X41863882Y36060135D01*
X26080883Y36060135D01*
X26081118Y36329865D01*
X25977661Y36580252D01*
X25786259Y36771987D01*
X25536054Y36875882D01*
X25265135Y36876118D01*
X25014748Y36772661D01*
X24823013Y36581259D01*
X24719118Y36331054D01*
X24718882Y36060135D01*
X21717000Y36060135D01*
X21717000Y38600135D01*
X46308882Y38600135D01*
X46412339Y38349748D01*
X46603741Y38158013D01*
X46853946Y38054118D01*
X47124865Y38053882D01*
X47375252Y38157339D01*
X47566987Y38348741D01*
X47670882Y38598946D01*
X47671118Y38869865D01*
X47567661Y39120252D01*
X47376259Y39311987D01*
X47126054Y39415882D01*
X46855135Y39416118D01*
X46604748Y39312661D01*
X46413013Y39121259D01*
X46309118Y38871054D01*
X46308882Y38600135D01*
X21717000Y38600135D01*
X21717000Y39235135D01*
X25988882Y39235135D01*
X26092339Y38984748D01*
X26283741Y38793013D01*
X26533946Y38689118D01*
X26804865Y38688882D01*
X27055252Y38792339D01*
X27246987Y38983741D01*
X27350882Y39233946D01*
X27351118Y39504865D01*
X27247661Y39755252D01*
X27056259Y39946987D01*
X26806054Y40050882D01*
X26535135Y40051118D01*
X26284748Y39947661D01*
X26093013Y39756259D01*
X25989118Y39506054D01*
X25988882Y39235135D01*
X21717000Y39235135D01*
X21717000Y40505135D01*
X24718882Y40505135D01*
X24822339Y40254748D01*
X25013741Y40063013D01*
X25263946Y39959118D01*
X25534865Y39958882D01*
X25785252Y40062339D01*
X25976987Y40253741D01*
X26080882Y40503946D01*
X26080883Y40505135D01*
X29798882Y40505135D01*
X29902339Y40254748D01*
X30093741Y40063013D01*
X30343946Y39959118D01*
X30614865Y39958882D01*
X30865252Y40062339D01*
X31056987Y40253741D01*
X31160882Y40503946D01*
X31161118Y40774865D01*
X31057661Y41025252D01*
X30866259Y41216987D01*
X30616054Y41320882D01*
X30345135Y41321118D01*
X30094748Y41217661D01*
X29903013Y41026259D01*
X29799118Y40776054D01*
X29798882Y40505135D01*
X26080883Y40505135D01*
X26081118Y40774865D01*
X25977661Y41025252D01*
X25786259Y41216987D01*
X25536054Y41320882D01*
X25265135Y41321118D01*
X25014748Y41217661D01*
X24823013Y41026259D01*
X24719118Y40776054D01*
X24718882Y40505135D01*
X21717000Y40505135D01*
X21717000Y41775135D01*
X32973882Y41775135D01*
X33077339Y41524748D01*
X33268741Y41333013D01*
X33518946Y41229118D01*
X33789865Y41228882D01*
X34040252Y41332339D01*
X34231987Y41523741D01*
X34335882Y41773946D01*
X34336118Y42044865D01*
X34232661Y42295252D01*
X34041259Y42486987D01*
X33791054Y42590882D01*
X33520135Y42591118D01*
X33269748Y42487661D01*
X33078013Y42296259D01*
X32974118Y42046054D01*
X32973882Y41775135D01*
X21717000Y41775135D01*
X21717000Y43045135D01*
X27893882Y43045135D01*
X27997339Y42794748D01*
X28188741Y42603013D01*
X28438946Y42499118D01*
X28709865Y42498882D01*
X28960252Y42602339D01*
X29151987Y42793741D01*
X29255882Y43043946D01*
X29255883Y43045135D01*
X33608882Y43045135D01*
X33712339Y42794748D01*
X33903741Y42603013D01*
X34153946Y42499118D01*
X34424865Y42498882D01*
X34675252Y42602339D01*
X34866987Y42793741D01*
X34970882Y43043946D01*
X34971118Y43314865D01*
X34867661Y43565252D01*
X34676259Y43756987D01*
X34426054Y43860882D01*
X34155135Y43861118D01*
X33904748Y43757661D01*
X33713013Y43566259D01*
X33609118Y43316054D01*
X33608882Y43045135D01*
X29255883Y43045135D01*
X29256118Y43314865D01*
X29152661Y43565252D01*
X28961259Y43756987D01*
X28711054Y43860882D01*
X28440135Y43861118D01*
X28189748Y43757661D01*
X27998013Y43566259D01*
X27894118Y43316054D01*
X27893882Y43045135D01*
X21717000Y43045135D01*
X21717000Y44950135D01*
X33608882Y44950135D01*
X33712339Y44699748D01*
X33903741Y44508013D01*
X34153946Y44404118D01*
X34424865Y44403882D01*
X34675252Y44507339D01*
X34866987Y44698741D01*
X34970882Y44948946D01*
X34971118Y45219865D01*
X34867661Y45470252D01*
X34676259Y45661987D01*
X34426054Y45765882D01*
X34155135Y45766118D01*
X33904748Y45662661D01*
X33713013Y45471259D01*
X33609118Y45221054D01*
X33608882Y44950135D01*
X21717000Y44950135D01*
X21717000Y45585135D01*
X22178882Y45585135D01*
X22282339Y45334748D01*
X22473741Y45143013D01*
X22723946Y45039118D01*
X22994865Y45038882D01*
X23245252Y45142339D01*
X23436987Y45333741D01*
X23540882Y45583946D01*
X23540883Y45585135D01*
X25988882Y45585135D01*
X26092339Y45334748D01*
X26283741Y45143013D01*
X26533946Y45039118D01*
X26804865Y45038882D01*
X27055252Y45142339D01*
X27246987Y45333741D01*
X27350882Y45583946D01*
X27350938Y45648573D01*
X28592320Y45648573D01*
X28695777Y45398186D01*
X28887179Y45206451D01*
X29137384Y45102556D01*
X29408303Y45102320D01*
X29658690Y45205777D01*
X29850425Y45397179D01*
X29954320Y45647384D01*
X29954556Y45918303D01*
X29851099Y46168690D01*
X29659697Y46360425D01*
X29409492Y46464320D01*
X29138573Y46464556D01*
X28888186Y46361099D01*
X28696451Y46169697D01*
X28592556Y45919492D01*
X28592320Y45648573D01*
X27350938Y45648573D01*
X27351118Y45854865D01*
X27247661Y46105252D01*
X27056259Y46296987D01*
X26806054Y46400882D01*
X26535135Y46401118D01*
X26284748Y46297661D01*
X26093013Y46106259D01*
X25989118Y45856054D01*
X25988882Y45585135D01*
X23540883Y45585135D01*
X23541118Y45854865D01*
X23437661Y46105252D01*
X23246259Y46296987D01*
X22996054Y46400882D01*
X22725135Y46401118D01*
X22474748Y46297661D01*
X22283013Y46106259D01*
X22179118Y45856054D01*
X22178882Y45585135D01*
X21717000Y45585135D01*
X21717000Y47490135D01*
X34878882Y47490135D01*
X34954403Y47307359D01*
X34879118Y47126054D01*
X34878882Y46855135D01*
X34954403Y46672359D01*
X34879118Y46491054D01*
X34878882Y46220135D01*
X34982339Y45969748D01*
X35173741Y45778013D01*
X35423946Y45674118D01*
X35694865Y45673882D01*
X35945252Y45777339D01*
X36136987Y45968741D01*
X36240882Y46218946D01*
X36241118Y46489865D01*
X36165597Y46672641D01*
X36240882Y46853946D01*
X36241118Y47124865D01*
X36165597Y47307641D01*
X36240882Y47488946D01*
X36240883Y47490135D01*
X37418882Y47490135D01*
X37494403Y47307359D01*
X37419118Y47126054D01*
X37418882Y46855135D01*
X37494403Y46672359D01*
X37419118Y46491054D01*
X37418882Y46220135D01*
X37522339Y45969748D01*
X37713741Y45778013D01*
X37963946Y45674118D01*
X38234865Y45673882D01*
X38485252Y45777339D01*
X38676987Y45968741D01*
X38780882Y46218946D01*
X38781118Y46489865D01*
X38705597Y46672641D01*
X38780882Y46853946D01*
X38781118Y47124865D01*
X38705597Y47307641D01*
X38780882Y47488946D01*
X38780883Y47490135D01*
X45038882Y47490135D01*
X45114403Y47307359D01*
X45039118Y47126054D01*
X45038882Y46855135D01*
X45114403Y46672359D01*
X45039118Y46491054D01*
X45038882Y46220135D01*
X45142339Y45969748D01*
X45333741Y45778013D01*
X45583946Y45674118D01*
X45854865Y45673882D01*
X46105252Y45777339D01*
X46296987Y45968741D01*
X46400882Y46218946D01*
X46401118Y46489865D01*
X46325597Y46672641D01*
X46400882Y46853946D01*
X46401118Y47124865D01*
X46325597Y47307641D01*
X46400882Y47488946D01*
X46400883Y47490135D01*
X47578882Y47490135D01*
X47654403Y47307359D01*
X47579118Y47126054D01*
X47578882Y46855135D01*
X47654403Y46672359D01*
X47579118Y46491054D01*
X47578882Y46220135D01*
X47682339Y45969748D01*
X47873741Y45778013D01*
X48123946Y45674118D01*
X48394865Y45673882D01*
X48645252Y45777339D01*
X48836987Y45968741D01*
X48940882Y46218946D01*
X48941118Y46489865D01*
X48865597Y46672641D01*
X48940882Y46853946D01*
X48941118Y47124865D01*
X48865597Y47307641D01*
X48940882Y47488946D01*
X48941118Y47759865D01*
X48837661Y48010252D01*
X48646259Y48201987D01*
X48396054Y48305882D01*
X48125135Y48306118D01*
X47874748Y48202661D01*
X47683013Y48011259D01*
X47579118Y47761054D01*
X47578882Y47490135D01*
X46400883Y47490135D01*
X46401118Y47759865D01*
X46297661Y48010252D01*
X46106259Y48201987D01*
X45856054Y48305882D01*
X45585135Y48306118D01*
X45334748Y48202661D01*
X45143013Y48011259D01*
X45039118Y47761054D01*
X45038882Y47490135D01*
X38780883Y47490135D01*
X38781118Y47759865D01*
X38677661Y48010252D01*
X38486259Y48201987D01*
X38236054Y48305882D01*
X37965135Y48306118D01*
X37714748Y48202661D01*
X37523013Y48011259D01*
X37419118Y47761054D01*
X37418882Y47490135D01*
X36240883Y47490135D01*
X36241118Y47759865D01*
X36137661Y48010252D01*
X35946259Y48201987D01*
X35696054Y48305882D01*
X35425135Y48306118D01*
X35174748Y48202661D01*
X34983013Y48011259D01*
X34879118Y47761054D01*
X34878882Y47490135D01*
X21717000Y47490135D01*
X21717000Y49403000D01*
X29389966Y49403000D01*
X29268013Y49281259D01*
X29268013Y49281259D01*
G37*
X29268013Y49281259D02*
X29164118Y49031054D01*
X29163882Y48760135D01*
X29267339Y48509748D01*
X29458741Y48318013D01*
X29708946Y48214118D01*
X29979865Y48213882D01*
X30230252Y48317339D01*
X30421987Y48508741D01*
X30525882Y48758946D01*
X30526118Y49029865D01*
X30422661Y49280252D01*
X30300126Y49403000D01*
X31294966Y49403000D01*
X31173013Y49281259D01*
X31069118Y49031054D01*
X31068882Y48760135D01*
X31172339Y48509748D01*
X31363741Y48318013D01*
X31613946Y48214118D01*
X31884865Y48213882D01*
X32135252Y48317339D01*
X32326987Y48508741D01*
X32430882Y48758946D01*
X32431118Y49029865D01*
X32327661Y49280252D01*
X32205126Y49403000D01*
X49149000Y49403000D01*
X49149000Y456000D01*
X21717000Y456000D01*
X21717000Y12087696D01*
X22613620Y12087696D01*
X22613620Y8435504D01*
X22775837Y7619983D01*
X23237793Y6928617D01*
X23929159Y6466661D01*
X24744680Y6304444D01*
X25560201Y6466661D01*
X26251567Y6928617D01*
X26713523Y7619983D01*
X26875740Y8435504D01*
X26875740Y12087696D01*
X26713523Y12903217D01*
X26251567Y13594583D01*
X25560201Y14056539D01*
X24744680Y14218756D01*
X23929159Y14056539D01*
X23237793Y13594583D01*
X22775837Y12903217D01*
X22613620Y12087696D01*
X21717000Y12087696D01*
X21717000Y15007787D01*
X28663900Y15007787D01*
X28663900Y14044733D01*
X28753806Y13592746D01*
X29009836Y13209569D01*
X29393013Y12953539D01*
X29845000Y12863633D01*
X30296987Y12953539D01*
X30680164Y13209569D01*
X30936194Y13592746D01*
X31026100Y14044733D01*
X31026100Y15007787D01*
X31163260Y15007787D01*
X31163260Y14044733D01*
X31253166Y13592746D01*
X31509196Y13209569D01*
X31892373Y12953539D01*
X32344360Y12863633D01*
X32796347Y12953539D01*
X33177918Y13208496D01*
X32973937Y12903217D01*
X32811720Y12087696D01*
X32811720Y8435504D01*
X32973937Y7619983D01*
X33435893Y6928617D01*
X34127259Y6466661D01*
X34942780Y6304444D01*
X35758301Y6466661D01*
X36449667Y6928617D01*
X36821520Y7485135D01*
X43768882Y7485135D01*
X43872339Y7234748D01*
X44063741Y7043013D01*
X44313946Y6939118D01*
X44584865Y6938882D01*
X44835252Y7042339D01*
X45026987Y7233741D01*
X45130882Y7483946D01*
X45131118Y7754865D01*
X45027661Y8005252D01*
X44836259Y8196987D01*
X44586054Y8300882D01*
X44315135Y8301118D01*
X44064748Y8197661D01*
X43873013Y8006259D01*
X43769118Y7756054D01*
X43768882Y7485135D01*
X36821520Y7485135D01*
X36911623Y7619983D01*
X37073840Y8435504D01*
X37073840Y8755135D01*
X47578882Y8755135D01*
X47682339Y8504748D01*
X47873741Y8313013D01*
X48123946Y8209118D01*
X48394865Y8208882D01*
X48645252Y8312339D01*
X48836987Y8503741D01*
X48940882Y8753946D01*
X48941118Y9024865D01*
X48837661Y9275252D01*
X48646259Y9466987D01*
X48396054Y9570882D01*
X48125135Y9571118D01*
X47874748Y9467661D01*
X47683013Y9276259D01*
X47579118Y9026054D01*
X47578882Y8755135D01*
X37073840Y8755135D01*
X37073840Y12087696D01*
X36911623Y12903217D01*
X36713229Y13200135D01*
X41228882Y13200135D01*
X41332339Y12949748D01*
X41523741Y12758013D01*
X41773946Y12654118D01*
X42044865Y12653882D01*
X42295252Y12757339D01*
X42486987Y12948741D01*
X42590882Y13198946D01*
X42591118Y13469865D01*
X42487661Y13720252D01*
X42296259Y13911987D01*
X42046054Y14015882D01*
X41775135Y14016118D01*
X41524748Y13912661D01*
X41333013Y13721259D01*
X41229118Y13471054D01*
X41228882Y13200135D01*
X36713229Y13200135D01*
X36449667Y13594583D01*
X35758301Y14056539D01*
X34942780Y14218756D01*
X34127259Y14056539D01*
X33435923Y13594603D01*
X33525460Y14044733D01*
X33525460Y15007787D01*
X33435554Y15459774D01*
X33179524Y15842951D01*
X32796347Y16098981D01*
X32344360Y16188887D01*
X31892373Y16098981D01*
X31509196Y15842951D01*
X31253166Y15459774D01*
X31163260Y15007787D01*
X31026100Y15007787D01*
X30936194Y15459774D01*
X30680164Y15842951D01*
X30296987Y16098981D01*
X29845000Y16188887D01*
X29393013Y16098981D01*
X29009836Y15842951D01*
X28753806Y15459774D01*
X28663900Y15007787D01*
X21717000Y15007787D01*
X21717000Y17645135D01*
X46308882Y17645135D01*
X46412339Y17394748D01*
X46603741Y17203013D01*
X46853946Y17099118D01*
X47124865Y17098882D01*
X47375252Y17202339D01*
X47566987Y17393741D01*
X47670882Y17643946D01*
X47671118Y17914865D01*
X47567661Y18165252D01*
X47376259Y18356987D01*
X47126054Y18460882D01*
X46855135Y18461118D01*
X46604748Y18357661D01*
X46413013Y18166259D01*
X46309118Y17916054D01*
X46308882Y17645135D01*
X21717000Y17645135D01*
X21717000Y18280135D01*
X25353882Y18280135D01*
X25457339Y18029748D01*
X25648741Y17838013D01*
X25898946Y17734118D01*
X26169865Y17733882D01*
X26420252Y17837339D01*
X26611987Y18028741D01*
X26715882Y18278946D01*
X26716118Y18549865D01*
X26612661Y18800252D01*
X26421259Y18991987D01*
X26171054Y19095882D01*
X25900135Y19096118D01*
X25649748Y18992661D01*
X25458013Y18801259D01*
X25354118Y18551054D01*
X25353882Y18280135D01*
X21717000Y18280135D01*
X21717000Y24630135D01*
X32973882Y24630135D01*
X33077339Y24379748D01*
X33268741Y24188013D01*
X33518946Y24084118D01*
X33789865Y24083882D01*
X34040252Y24187339D01*
X34231987Y24378741D01*
X34335882Y24628946D01*
X34336118Y24899865D01*
X34232661Y25150252D01*
X34041259Y25341987D01*
X33791054Y25445882D01*
X33520135Y25446118D01*
X33269748Y25342661D01*
X33078013Y25151259D01*
X32974118Y24901054D01*
X32973882Y24630135D01*
X21717000Y24630135D01*
X21717000Y25900135D01*
X47578882Y25900135D01*
X47682339Y25649748D01*
X47873741Y25458013D01*
X48123946Y25354118D01*
X48394865Y25353882D01*
X48645252Y25457339D01*
X48836987Y25648741D01*
X48940882Y25898946D01*
X48941118Y26169865D01*
X48837661Y26420252D01*
X48646259Y26611987D01*
X48396054Y26715882D01*
X48125135Y26716118D01*
X47874748Y26612661D01*
X47683013Y26421259D01*
X47579118Y26171054D01*
X47578882Y25900135D01*
X21717000Y25900135D01*
X21717000Y27170135D01*
X41863882Y27170135D01*
X41967339Y26919748D01*
X42158741Y26728013D01*
X42408946Y26624118D01*
X42679865Y26623882D01*
X42930252Y26727339D01*
X43121987Y26918741D01*
X43225882Y27168946D01*
X43226118Y27439865D01*
X43122661Y27690252D01*
X42931259Y27881987D01*
X42681054Y27985882D01*
X42410135Y27986118D01*
X42159748Y27882661D01*
X41968013Y27691259D01*
X41864118Y27441054D01*
X41863882Y27170135D01*
X21717000Y27170135D01*
X21717000Y29710135D01*
X30433882Y29710135D01*
X30537339Y29459748D01*
X30728741Y29268013D01*
X30978946Y29164118D01*
X31249865Y29163882D01*
X31500252Y29267339D01*
X31691987Y29458741D01*
X31795882Y29708946D01*
X31795968Y29807548D01*
X32422387Y30433967D01*
X32519865Y30433882D01*
X32770252Y30537339D01*
X32961987Y30728741D01*
X33065882Y30978946D01*
X33066118Y31249865D01*
X32962661Y31500252D01*
X32771259Y31691987D01*
X32521054Y31795882D01*
X32250135Y31796118D01*
X31999748Y31692661D01*
X31808013Y31501259D01*
X31704118Y31251054D01*
X31704032Y31152452D01*
X31077613Y30526033D01*
X30980135Y30526118D01*
X30729748Y30422661D01*
X30538013Y30231259D01*
X30434118Y29981054D01*
X30433882Y29710135D01*
X21717000Y29710135D01*
X21717000Y34155135D01*
X45673882Y34155135D01*
X45777339Y33904748D01*
X45968741Y33713013D01*
X46218946Y33609118D01*
X46489865Y33608882D01*
X46740252Y33712339D01*
X46931987Y33903741D01*
X47035882Y34153946D01*
X47036118Y34424865D01*
X46932661Y34675252D01*
X46741259Y34866987D01*
X46491054Y34970882D01*
X46220135Y34971118D01*
X45969748Y34867661D01*
X45778013Y34676259D01*
X45674118Y34426054D01*
X45673882Y34155135D01*
X21717000Y34155135D01*
X21717000Y34790135D01*
X28528882Y34790135D01*
X28632339Y34539748D01*
X28823741Y34348013D01*
X29073946Y34244118D01*
X29344865Y34243882D01*
X29595252Y34347339D01*
X29786987Y34538741D01*
X29890882Y34788946D01*
X29891118Y35059865D01*
X29787661Y35310252D01*
X29596259Y35501987D01*
X29346054Y35605882D01*
X29075135Y35606118D01*
X28824748Y35502661D01*
X28633013Y35311259D01*
X28529118Y35061054D01*
X28528882Y34790135D01*
X21717000Y34790135D01*
X21717000Y36060135D01*
X24718882Y36060135D01*
X24822339Y35809748D01*
X25013741Y35618013D01*
X25263946Y35514118D01*
X25534865Y35513882D01*
X25785252Y35617339D01*
X25976987Y35808741D01*
X26080882Y36058946D01*
X26080883Y36060135D01*
X41863882Y36060135D01*
X41967339Y35809748D01*
X42158741Y35618013D01*
X42408946Y35514118D01*
X42679865Y35513882D01*
X42930252Y35617339D01*
X43121987Y35808741D01*
X43225882Y36058946D01*
X43226118Y36329865D01*
X43122661Y36580252D01*
X42931259Y36771987D01*
X42681054Y36875882D01*
X42410135Y36876118D01*
X42159748Y36772661D01*
X41968013Y36581259D01*
X41864118Y36331054D01*
X41863882Y36060135D01*
X26080883Y36060135D01*
X26081118Y36329865D01*
X25977661Y36580252D01*
X25786259Y36771987D01*
X25536054Y36875882D01*
X25265135Y36876118D01*
X25014748Y36772661D01*
X24823013Y36581259D01*
X24719118Y36331054D01*
X24718882Y36060135D01*
X21717000Y36060135D01*
X21717000Y38600135D01*
X46308882Y38600135D01*
X46412339Y38349748D01*
X46603741Y38158013D01*
X46853946Y38054118D01*
X47124865Y38053882D01*
X47375252Y38157339D01*
X47566987Y38348741D01*
X47670882Y38598946D01*
X47671118Y38869865D01*
X47567661Y39120252D01*
X47376259Y39311987D01*
X47126054Y39415882D01*
X46855135Y39416118D01*
X46604748Y39312661D01*
X46413013Y39121259D01*
X46309118Y38871054D01*
X46308882Y38600135D01*
X21717000Y38600135D01*
X21717000Y39235135D01*
X25988882Y39235135D01*
X26092339Y38984748D01*
X26283741Y38793013D01*
X26533946Y38689118D01*
X26804865Y38688882D01*
X27055252Y38792339D01*
X27246987Y38983741D01*
X27350882Y39233946D01*
X27351118Y39504865D01*
X27247661Y39755252D01*
X27056259Y39946987D01*
X26806054Y40050882D01*
X26535135Y40051118D01*
X26284748Y39947661D01*
X26093013Y39756259D01*
X25989118Y39506054D01*
X25988882Y39235135D01*
X21717000Y39235135D01*
X21717000Y40505135D01*
X24718882Y40505135D01*
X24822339Y40254748D01*
X25013741Y40063013D01*
X25263946Y39959118D01*
X25534865Y39958882D01*
X25785252Y40062339D01*
X25976987Y40253741D01*
X26080882Y40503946D01*
X26080883Y40505135D01*
X29798882Y40505135D01*
X29902339Y40254748D01*
X30093741Y40063013D01*
X30343946Y39959118D01*
X30614865Y39958882D01*
X30865252Y40062339D01*
X31056987Y40253741D01*
X31160882Y40503946D01*
X31161118Y40774865D01*
X31057661Y41025252D01*
X30866259Y41216987D01*
X30616054Y41320882D01*
X30345135Y41321118D01*
X30094748Y41217661D01*
X29903013Y41026259D01*
X29799118Y40776054D01*
X29798882Y40505135D01*
X26080883Y40505135D01*
X26081118Y40774865D01*
X25977661Y41025252D01*
X25786259Y41216987D01*
X25536054Y41320882D01*
X25265135Y41321118D01*
X25014748Y41217661D01*
X24823013Y41026259D01*
X24719118Y40776054D01*
X24718882Y40505135D01*
X21717000Y40505135D01*
X21717000Y41775135D01*
X32973882Y41775135D01*
X33077339Y41524748D01*
X33268741Y41333013D01*
X33518946Y41229118D01*
X33789865Y41228882D01*
X34040252Y41332339D01*
X34231987Y41523741D01*
X34335882Y41773946D01*
X34336118Y42044865D01*
X34232661Y42295252D01*
X34041259Y42486987D01*
X33791054Y42590882D01*
X33520135Y42591118D01*
X33269748Y42487661D01*
X33078013Y42296259D01*
X32974118Y42046054D01*
X32973882Y41775135D01*
X21717000Y41775135D01*
X21717000Y43045135D01*
X27893882Y43045135D01*
X27997339Y42794748D01*
X28188741Y42603013D01*
X28438946Y42499118D01*
X28709865Y42498882D01*
X28960252Y42602339D01*
X29151987Y42793741D01*
X29255882Y43043946D01*
X29255883Y43045135D01*
X33608882Y43045135D01*
X33712339Y42794748D01*
X33903741Y42603013D01*
X34153946Y42499118D01*
X34424865Y42498882D01*
X34675252Y42602339D01*
X34866987Y42793741D01*
X34970882Y43043946D01*
X34971118Y43314865D01*
X34867661Y43565252D01*
X34676259Y43756987D01*
X34426054Y43860882D01*
X34155135Y43861118D01*
X33904748Y43757661D01*
X33713013Y43566259D01*
X33609118Y43316054D01*
X33608882Y43045135D01*
X29255883Y43045135D01*
X29256118Y43314865D01*
X29152661Y43565252D01*
X28961259Y43756987D01*
X28711054Y43860882D01*
X28440135Y43861118D01*
X28189748Y43757661D01*
X27998013Y43566259D01*
X27894118Y43316054D01*
X27893882Y43045135D01*
X21717000Y43045135D01*
X21717000Y44950135D01*
X33608882Y44950135D01*
X33712339Y44699748D01*
X33903741Y44508013D01*
X34153946Y44404118D01*
X34424865Y44403882D01*
X34675252Y44507339D01*
X34866987Y44698741D01*
X34970882Y44948946D01*
X34971118Y45219865D01*
X34867661Y45470252D01*
X34676259Y45661987D01*
X34426054Y45765882D01*
X34155135Y45766118D01*
X33904748Y45662661D01*
X33713013Y45471259D01*
X33609118Y45221054D01*
X33608882Y44950135D01*
X21717000Y44950135D01*
X21717000Y45585135D01*
X22178882Y45585135D01*
X22282339Y45334748D01*
X22473741Y45143013D01*
X22723946Y45039118D01*
X22994865Y45038882D01*
X23245252Y45142339D01*
X23436987Y45333741D01*
X23540882Y45583946D01*
X23540883Y45585135D01*
X25988882Y45585135D01*
X26092339Y45334748D01*
X26283741Y45143013D01*
X26533946Y45039118D01*
X26804865Y45038882D01*
X27055252Y45142339D01*
X27246987Y45333741D01*
X27350882Y45583946D01*
X27350938Y45648573D01*
X28592320Y45648573D01*
X28695777Y45398186D01*
X28887179Y45206451D01*
X29137384Y45102556D01*
X29408303Y45102320D01*
X29658690Y45205777D01*
X29850425Y45397179D01*
X29954320Y45647384D01*
X29954556Y45918303D01*
X29851099Y46168690D01*
X29659697Y46360425D01*
X29409492Y46464320D01*
X29138573Y46464556D01*
X28888186Y46361099D01*
X28696451Y46169697D01*
X28592556Y45919492D01*
X28592320Y45648573D01*
X27350938Y45648573D01*
X27351118Y45854865D01*
X27247661Y46105252D01*
X27056259Y46296987D01*
X26806054Y46400882D01*
X26535135Y46401118D01*
X26284748Y46297661D01*
X26093013Y46106259D01*
X25989118Y45856054D01*
X25988882Y45585135D01*
X23540883Y45585135D01*
X23541118Y45854865D01*
X23437661Y46105252D01*
X23246259Y46296987D01*
X22996054Y46400882D01*
X22725135Y46401118D01*
X22474748Y46297661D01*
X22283013Y46106259D01*
X22179118Y45856054D01*
X22178882Y45585135D01*
X21717000Y45585135D01*
X21717000Y47490135D01*
X34878882Y47490135D01*
X34954403Y47307359D01*
X34879118Y47126054D01*
X34878882Y46855135D01*
X34954403Y46672359D01*
X34879118Y46491054D01*
X34878882Y46220135D01*
X34982339Y45969748D01*
X35173741Y45778013D01*
X35423946Y45674118D01*
X35694865Y45673882D01*
X35945252Y45777339D01*
X36136987Y45968741D01*
X36240882Y46218946D01*
X36241118Y46489865D01*
X36165597Y46672641D01*
X36240882Y46853946D01*
X36241118Y47124865D01*
X36165597Y47307641D01*
X36240882Y47488946D01*
X36240883Y47490135D01*
X37418882Y47490135D01*
X37494403Y47307359D01*
X37419118Y47126054D01*
X37418882Y46855135D01*
X37494403Y46672359D01*
X37419118Y46491054D01*
X37418882Y46220135D01*
X37522339Y45969748D01*
X37713741Y45778013D01*
X37963946Y45674118D01*
X38234865Y45673882D01*
X38485252Y45777339D01*
X38676987Y45968741D01*
X38780882Y46218946D01*
X38781118Y46489865D01*
X38705597Y46672641D01*
X38780882Y46853946D01*
X38781118Y47124865D01*
X38705597Y47307641D01*
X38780882Y47488946D01*
X38780883Y47490135D01*
X45038882Y47490135D01*
X45114403Y47307359D01*
X45039118Y47126054D01*
X45038882Y46855135D01*
X45114403Y46672359D01*
X45039118Y46491054D01*
X45038882Y46220135D01*
X45142339Y45969748D01*
X45333741Y45778013D01*
X45583946Y45674118D01*
X45854865Y45673882D01*
X46105252Y45777339D01*
X46296987Y45968741D01*
X46400882Y46218946D01*
X46401118Y46489865D01*
X46325597Y46672641D01*
X46400882Y46853946D01*
X46401118Y47124865D01*
X46325597Y47307641D01*
X46400882Y47488946D01*
X46400883Y47490135D01*
X47578882Y47490135D01*
X47654403Y47307359D01*
X47579118Y47126054D01*
X47578882Y46855135D01*
X47654403Y46672359D01*
X47579118Y46491054D01*
X47578882Y46220135D01*
X47682339Y45969748D01*
X47873741Y45778013D01*
X48123946Y45674118D01*
X48394865Y45673882D01*
X48645252Y45777339D01*
X48836987Y45968741D01*
X48940882Y46218946D01*
X48941118Y46489865D01*
X48865597Y46672641D01*
X48940882Y46853946D01*
X48941118Y47124865D01*
X48865597Y47307641D01*
X48940882Y47488946D01*
X48941118Y47759865D01*
X48837661Y48010252D01*
X48646259Y48201987D01*
X48396054Y48305882D01*
X48125135Y48306118D01*
X47874748Y48202661D01*
X47683013Y48011259D01*
X47579118Y47761054D01*
X47578882Y47490135D01*
X46400883Y47490135D01*
X46401118Y47759865D01*
X46297661Y48010252D01*
X46106259Y48201987D01*
X45856054Y48305882D01*
X45585135Y48306118D01*
X45334748Y48202661D01*
X45143013Y48011259D01*
X45039118Y47761054D01*
X45038882Y47490135D01*
X38780883Y47490135D01*
X38781118Y47759865D01*
X38677661Y48010252D01*
X38486259Y48201987D01*
X38236054Y48305882D01*
X37965135Y48306118D01*
X37714748Y48202661D01*
X37523013Y48011259D01*
X37419118Y47761054D01*
X37418882Y47490135D01*
X36240883Y47490135D01*
X36241118Y47759865D01*
X36137661Y48010252D01*
X35946259Y48201987D01*
X35696054Y48305882D01*
X35425135Y48306118D01*
X35174748Y48202661D01*
X34983013Y48011259D01*
X34879118Y47761054D01*
X34878882Y47490135D01*
X21717000Y47490135D01*
X21717000Y49403000D01*
X29389966Y49403000D01*
X29268013Y49281259D01*
G36*
X57208013Y49281259D02*
X57104118Y49031054D01*
X57103882Y48760135D01*
X57207339Y48509748D01*
X57398741Y48318013D01*
X57648946Y48214118D01*
X57919865Y48213882D01*
X58170252Y48317339D01*
X58361987Y48508741D01*
X58465882Y48758946D01*
X58466118Y49029865D01*
X58362661Y49280252D01*
X58240126Y49403000D01*
X60504966Y49403000D01*
X60383013Y49281259D01*
X60279118Y49031054D01*
X60278882Y48760135D01*
X60382339Y48509748D01*
X60573741Y48318013D01*
X60823946Y48214118D01*
X61094865Y48213882D01*
X61345252Y48317339D01*
X61536987Y48508741D01*
X61640882Y48758946D01*
X61641118Y49029865D01*
X61537661Y49280252D01*
X61415126Y49403000D01*
X79544000Y49403000D01*
X79544000Y456000D01*
X49911000Y456000D01*
X49911000Y12087696D01*
X50553620Y12087696D01*
X50553620Y8435504D01*
X50715837Y7619983D01*
X51177793Y6928617D01*
X51869159Y6466661D01*
X52684680Y6304444D01*
X53500201Y6466661D01*
X54191567Y6928617D01*
X54653523Y7619983D01*
X54815740Y8435504D01*
X54815740Y12087696D01*
X54653523Y12903217D01*
X54191567Y13594583D01*
X53500201Y14056539D01*
X52684680Y14218756D01*
X51869159Y14056539D01*
X51177793Y13594583D01*
X50715837Y12903217D01*
X50553620Y12087696D01*
X49911000Y12087696D01*
X49911000Y15007787D01*
X56603900Y15007787D01*
X56603900Y14044733D01*
X56693806Y13592746D01*
X56949836Y13209569D01*
X57333013Y12953539D01*
X57785000Y12863633D01*
X58236987Y12953539D01*
X58620164Y13209569D01*
X58876194Y13592746D01*
X58966100Y14044733D01*
X58966100Y15007787D01*
X59103260Y15007787D01*
X59103260Y14044733D01*
X59193166Y13592746D01*
X59449196Y13209569D01*
X59832373Y12953539D01*
X60284360Y12863633D01*
X60736347Y12953539D01*
X61117918Y13208496D01*
X60913937Y12903217D01*
X60751720Y12087696D01*
X60751720Y8435504D01*
X60913937Y7619983D01*
X61375893Y6928617D01*
X62067259Y6466661D01*
X62882780Y6304444D01*
X63698301Y6466661D01*
X64389667Y6928617D01*
X64761520Y7485135D01*
X71708882Y7485135D01*
X71812339Y7234748D01*
X72003741Y7043013D01*
X72253946Y6939118D01*
X72524865Y6938882D01*
X72775252Y7042339D01*
X72966987Y7233741D01*
X73070882Y7483946D01*
X73071118Y7754865D01*
X72967661Y8005252D01*
X72776259Y8196987D01*
X72526054Y8300882D01*
X72255135Y8301118D01*
X72004748Y8197661D01*
X71813013Y8006259D01*
X71709118Y7756054D01*
X71708882Y7485135D01*
X64761520Y7485135D01*
X64851623Y7619983D01*
X65013840Y8435504D01*
X65013840Y8755135D01*
X75518882Y8755135D01*
X75622339Y8504748D01*
X75813741Y8313013D01*
X76063946Y8209118D01*
X76334865Y8208882D01*
X76585252Y8312339D01*
X76776987Y8503741D01*
X76880882Y8753946D01*
X76881118Y9024865D01*
X76777661Y9275252D01*
X76586259Y9466987D01*
X76336054Y9570882D01*
X76065135Y9571118D01*
X75814748Y9467661D01*
X75623013Y9276259D01*
X75519118Y9026054D01*
X75518882Y8755135D01*
X65013840Y8755135D01*
X65013840Y12087696D01*
X64851623Y12903217D01*
X64653229Y13200135D01*
X69168882Y13200135D01*
X69272339Y12949748D01*
X69463741Y12758013D01*
X69713946Y12654118D01*
X69984865Y12653882D01*
X70235252Y12757339D01*
X70426987Y12948741D01*
X70530882Y13198946D01*
X70531118Y13469865D01*
X70427661Y13720252D01*
X70236259Y13911987D01*
X69986054Y14015882D01*
X69715135Y14016118D01*
X69464748Y13912661D01*
X69273013Y13721259D01*
X69169118Y13471054D01*
X69168882Y13200135D01*
X64653229Y13200135D01*
X64389667Y13594583D01*
X63698301Y14056539D01*
X62882780Y14218756D01*
X62067259Y14056539D01*
X61375923Y13594603D01*
X61465460Y14044733D01*
X61465460Y15007787D01*
X61375554Y15459774D01*
X61119524Y15842951D01*
X60736347Y16098981D01*
X60284360Y16188887D01*
X59832373Y16098981D01*
X59449196Y15842951D01*
X59193166Y15459774D01*
X59103260Y15007787D01*
X58966100Y15007787D01*
X58876194Y15459774D01*
X58620164Y15842951D01*
X58236987Y16098981D01*
X57785000Y16188887D01*
X57333013Y16098981D01*
X56949836Y15842951D01*
X56693806Y15459774D01*
X56603900Y15007787D01*
X49911000Y15007787D01*
X49911000Y17645135D01*
X74248882Y17645135D01*
X74352339Y17394748D01*
X74543741Y17203013D01*
X74793946Y17099118D01*
X75064865Y17098882D01*
X75315252Y17202339D01*
X75506987Y17393741D01*
X75610882Y17643946D01*
X75611118Y17914865D01*
X75507661Y18165252D01*
X75316259Y18356987D01*
X75066054Y18460882D01*
X74795135Y18461118D01*
X74544748Y18357661D01*
X74353013Y18166259D01*
X74249118Y17916054D01*
X74248882Y17645135D01*
X49911000Y17645135D01*
X49911000Y18280135D01*
X53293882Y18280135D01*
X53397339Y18029748D01*
X53588741Y17838013D01*
X53838946Y17734118D01*
X54109865Y17733882D01*
X54360252Y17837339D01*
X54551987Y18028741D01*
X54655882Y18278946D01*
X54656118Y18549865D01*
X54552661Y18800252D01*
X54361259Y18991987D01*
X54111054Y19095882D01*
X53840135Y19096118D01*
X53589748Y18992661D01*
X53398013Y18801259D01*
X53294118Y18551054D01*
X53293882Y18280135D01*
X49911000Y18280135D01*
X49911000Y24630135D01*
X60913882Y24630135D01*
X61017339Y24379748D01*
X61208741Y24188013D01*
X61458946Y24084118D01*
X61729865Y24083882D01*
X61980252Y24187339D01*
X62171987Y24378741D01*
X62275882Y24628946D01*
X62276118Y24899865D01*
X62172661Y25150252D01*
X61981259Y25341987D01*
X61731054Y25445882D01*
X61460135Y25446118D01*
X61209748Y25342661D01*
X61018013Y25151259D01*
X60914118Y24901054D01*
X60913882Y24630135D01*
X49911000Y24630135D01*
X49911000Y25900135D01*
X75518882Y25900135D01*
X75622339Y25649748D01*
X75813741Y25458013D01*
X76063946Y25354118D01*
X76334865Y25353882D01*
X76585252Y25457339D01*
X76776987Y25648741D01*
X76880882Y25898946D01*
X76881118Y26169865D01*
X76777661Y26420252D01*
X76586259Y26611987D01*
X76336054Y26715882D01*
X76065135Y26716118D01*
X75814748Y26612661D01*
X75623013Y26421259D01*
X75519118Y26171054D01*
X75518882Y25900135D01*
X49911000Y25900135D01*
X49911000Y27170135D01*
X69803882Y27170135D01*
X69907339Y26919748D01*
X70098741Y26728013D01*
X70348946Y26624118D01*
X70619865Y26623882D01*
X70870252Y26727339D01*
X71061987Y26918741D01*
X71165882Y27168946D01*
X71166118Y27439865D01*
X71062661Y27690252D01*
X70871259Y27881987D01*
X70621054Y27985882D01*
X70350135Y27986118D01*
X70099748Y27882661D01*
X69908013Y27691259D01*
X69804118Y27441054D01*
X69803882Y27170135D01*
X49911000Y27170135D01*
X49911000Y29710135D01*
X58373882Y29710135D01*
X58477339Y29459748D01*
X58668741Y29268013D01*
X58918946Y29164118D01*
X59189865Y29163882D01*
X59440252Y29267339D01*
X59631987Y29458741D01*
X59735882Y29708946D01*
X59735968Y29807548D01*
X60362387Y30433967D01*
X60459865Y30433882D01*
X60710252Y30537339D01*
X60901987Y30728741D01*
X61005882Y30978946D01*
X61006118Y31249865D01*
X60902661Y31500252D01*
X60711259Y31691987D01*
X60461054Y31795882D01*
X60190135Y31796118D01*
X59939748Y31692661D01*
X59748013Y31501259D01*
X59644118Y31251054D01*
X59644032Y31152452D01*
X59017613Y30526033D01*
X58920135Y30526118D01*
X58669748Y30422661D01*
X58478013Y30231259D01*
X58374118Y29981054D01*
X58373882Y29710135D01*
X49911000Y29710135D01*
X49911000Y34155135D01*
X73613882Y34155135D01*
X73717339Y33904748D01*
X73908741Y33713013D01*
X74158946Y33609118D01*
X74429865Y33608882D01*
X74680252Y33712339D01*
X74871987Y33903741D01*
X74975882Y34153946D01*
X74976118Y34424865D01*
X74872661Y34675252D01*
X74681259Y34866987D01*
X74431054Y34970882D01*
X74160135Y34971118D01*
X73909748Y34867661D01*
X73718013Y34676259D01*
X73614118Y34426054D01*
X73613882Y34155135D01*
X49911000Y34155135D01*
X49911000Y34790135D01*
X56468882Y34790135D01*
X56572339Y34539748D01*
X56763741Y34348013D01*
X57013946Y34244118D01*
X57284865Y34243882D01*
X57535252Y34347339D01*
X57726987Y34538741D01*
X57830882Y34788946D01*
X57831118Y35059865D01*
X57727661Y35310252D01*
X57536259Y35501987D01*
X57286054Y35605882D01*
X57015135Y35606118D01*
X56764748Y35502661D01*
X56573013Y35311259D01*
X56469118Y35061054D01*
X56468882Y34790135D01*
X49911000Y34790135D01*
X49911000Y36060135D01*
X52658882Y36060135D01*
X52762339Y35809748D01*
X52953741Y35618013D01*
X53203946Y35514118D01*
X53474865Y35513882D01*
X53725252Y35617339D01*
X53916987Y35808741D01*
X54020882Y36058946D01*
X54020883Y36060135D01*
X69803882Y36060135D01*
X69907339Y35809748D01*
X70098741Y35618013D01*
X70348946Y35514118D01*
X70619865Y35513882D01*
X70870252Y35617339D01*
X71061987Y35808741D01*
X71165882Y36058946D01*
X71166118Y36329865D01*
X71062661Y36580252D01*
X70871259Y36771987D01*
X70621054Y36875882D01*
X70350135Y36876118D01*
X70099748Y36772661D01*
X69908013Y36581259D01*
X69804118Y36331054D01*
X69803882Y36060135D01*
X54020883Y36060135D01*
X54021118Y36329865D01*
X53917661Y36580252D01*
X53726259Y36771987D01*
X53476054Y36875882D01*
X53205135Y36876118D01*
X52954748Y36772661D01*
X52763013Y36581259D01*
X52659118Y36331054D01*
X52658882Y36060135D01*
X49911000Y36060135D01*
X49911000Y38600135D01*
X74248882Y38600135D01*
X74352339Y38349748D01*
X74543741Y38158013D01*
X74793946Y38054118D01*
X75064865Y38053882D01*
X75315252Y38157339D01*
X75506987Y38348741D01*
X75610882Y38598946D01*
X75611118Y38869865D01*
X75507661Y39120252D01*
X75316259Y39311987D01*
X75066054Y39415882D01*
X74795135Y39416118D01*
X74544748Y39312661D01*
X74353013Y39121259D01*
X74249118Y38871054D01*
X74248882Y38600135D01*
X49911000Y38600135D01*
X49911000Y39235135D01*
X53928882Y39235135D01*
X54032339Y38984748D01*
X54223741Y38793013D01*
X54473946Y38689118D01*
X54744865Y38688882D01*
X54995252Y38792339D01*
X55186987Y38983741D01*
X55290882Y39233946D01*
X55291118Y39504865D01*
X55187661Y39755252D01*
X54996259Y39946987D01*
X54746054Y40050882D01*
X54475135Y40051118D01*
X54224748Y39947661D01*
X54033013Y39756259D01*
X53929118Y39506054D01*
X53928882Y39235135D01*
X49911000Y39235135D01*
X49911000Y40505135D01*
X52658882Y40505135D01*
X52762339Y40254748D01*
X52953741Y40063013D01*
X53203946Y39959118D01*
X53474865Y39958882D01*
X53725252Y40062339D01*
X53916987Y40253741D01*
X54020882Y40503946D01*
X54020883Y40505135D01*
X57738882Y40505135D01*
X57842339Y40254748D01*
X58033741Y40063013D01*
X58283946Y39959118D01*
X58554865Y39958882D01*
X58805252Y40062339D01*
X58996987Y40253741D01*
X59100882Y40503946D01*
X59101118Y40774865D01*
X58997661Y41025252D01*
X58806259Y41216987D01*
X58556054Y41320882D01*
X58285135Y41321118D01*
X58034748Y41217661D01*
X57843013Y41026259D01*
X57739118Y40776054D01*
X57738882Y40505135D01*
X54020883Y40505135D01*
X54021118Y40774865D01*
X53917661Y41025252D01*
X53726259Y41216987D01*
X53476054Y41320882D01*
X53205135Y41321118D01*
X52954748Y41217661D01*
X52763013Y41026259D01*
X52659118Y40776054D01*
X52658882Y40505135D01*
X49911000Y40505135D01*
X49911000Y41775135D01*
X60913882Y41775135D01*
X61017339Y41524748D01*
X61208741Y41333013D01*
X61458946Y41229118D01*
X61729865Y41228882D01*
X61980252Y41332339D01*
X62171987Y41523741D01*
X62275882Y41773946D01*
X62276118Y42044865D01*
X62172661Y42295252D01*
X61981259Y42486987D01*
X61731054Y42590882D01*
X61460135Y42591118D01*
X61209748Y42487661D01*
X61018013Y42296259D01*
X60914118Y42046054D01*
X60913882Y41775135D01*
X49911000Y41775135D01*
X49911000Y42410135D01*
X55198882Y42410135D01*
X55302339Y42159748D01*
X55493741Y41968013D01*
X55743946Y41864118D01*
X56014865Y41863882D01*
X56265252Y41967339D01*
X56456987Y42158741D01*
X56560882Y42408946D01*
X56561118Y42679865D01*
X56457661Y42930252D01*
X56342978Y43045135D01*
X56468882Y43045135D01*
X56572339Y42794748D01*
X56763741Y42603013D01*
X57013946Y42499118D01*
X57284865Y42498882D01*
X57535252Y42602339D01*
X57726987Y42793741D01*
X57830882Y43043946D01*
X57830883Y43045135D01*
X61548882Y43045135D01*
X61652339Y42794748D01*
X61843741Y42603013D01*
X62093946Y42499118D01*
X62364865Y42498882D01*
X62615252Y42602339D01*
X62806987Y42793741D01*
X62910882Y43043946D01*
X62911118Y43314865D01*
X62807661Y43565252D01*
X62616259Y43756987D01*
X62366054Y43860882D01*
X62095135Y43861118D01*
X61844748Y43757661D01*
X61653013Y43566259D01*
X61549118Y43316054D01*
X61548882Y43045135D01*
X57830883Y43045135D01*
X57831118Y43314865D01*
X57727661Y43565252D01*
X57536259Y43756987D01*
X57286054Y43860882D01*
X57015135Y43861118D01*
X56764748Y43757661D01*
X56573013Y43566259D01*
X56469118Y43316054D01*
X56468882Y43045135D01*
X56342978Y43045135D01*
X56266259Y43121987D01*
X56016054Y43225882D01*
X55745135Y43226118D01*
X55494748Y43122661D01*
X55303013Y42931259D01*
X55199118Y42681054D01*
X55198882Y42410135D01*
X49911000Y42410135D01*
X49911000Y44950135D01*
X61548882Y44950135D01*
X61652339Y44699748D01*
X61843741Y44508013D01*
X62093946Y44404118D01*
X62364865Y44403882D01*
X62615252Y44507339D01*
X62806987Y44698741D01*
X62910882Y44948946D01*
X62911118Y45219865D01*
X62807661Y45470252D01*
X62616259Y45661987D01*
X62366054Y45765882D01*
X62095135Y45766118D01*
X61844748Y45662661D01*
X61653013Y45471259D01*
X61549118Y45221054D01*
X61548882Y44950135D01*
X49911000Y44950135D01*
X49911000Y45585135D01*
X50118882Y45585135D01*
X50222339Y45334748D01*
X50413741Y45143013D01*
X50663946Y45039118D01*
X50934865Y45038882D01*
X51185252Y45142339D01*
X51376987Y45333741D01*
X51480882Y45583946D01*
X51480883Y45585135D01*
X53928882Y45585135D01*
X54032339Y45334748D01*
X54223741Y45143013D01*
X54473946Y45039118D01*
X54744865Y45038882D01*
X54995252Y45142339D01*
X55186987Y45333741D01*
X55290882Y45583946D01*
X55290883Y45585135D01*
X56468882Y45585135D01*
X56572339Y45334748D01*
X56763741Y45143013D01*
X57013946Y45039118D01*
X57284865Y45038882D01*
X57535252Y45142339D01*
X57726987Y45333741D01*
X57830882Y45583946D01*
X57831118Y45854865D01*
X57727661Y46105252D01*
X57536259Y46296987D01*
X57286054Y46400882D01*
X57015135Y46401118D01*
X56764748Y46297661D01*
X56573013Y46106259D01*
X56469118Y45856054D01*
X56468882Y45585135D01*
X55290883Y45585135D01*
X55291118Y45854865D01*
X55187661Y46105252D01*
X54996259Y46296987D01*
X54746054Y46400882D01*
X54475135Y46401118D01*
X54224748Y46297661D01*
X54033013Y46106259D01*
X53929118Y45856054D01*
X53928882Y45585135D01*
X51480883Y45585135D01*
X51481118Y45854865D01*
X51377661Y46105252D01*
X51186259Y46296987D01*
X50936054Y46400882D01*
X50665135Y46401118D01*
X50414748Y46297661D01*
X50223013Y46106259D01*
X50119118Y45856054D01*
X50118882Y45585135D01*
X49911000Y45585135D01*
X49911000Y47490135D01*
X62818882Y47490135D01*
X62894403Y47307359D01*
X62819118Y47126054D01*
X62818882Y46855135D01*
X62894403Y46672359D01*
X62819118Y46491054D01*
X62818882Y46220135D01*
X62922339Y45969748D01*
X63113741Y45778013D01*
X63363946Y45674118D01*
X63634865Y45673882D01*
X63885252Y45777339D01*
X64076987Y45968741D01*
X64180882Y46218946D01*
X64181118Y46489865D01*
X64105597Y46672641D01*
X64180882Y46853946D01*
X64181118Y47124865D01*
X64105597Y47307641D01*
X64180882Y47488946D01*
X64180883Y47490135D01*
X65358882Y47490135D01*
X65434403Y47307359D01*
X65359118Y47126054D01*
X65358882Y46855135D01*
X65434403Y46672359D01*
X65359118Y46491054D01*
X65358882Y46220135D01*
X65462339Y45969748D01*
X65653741Y45778013D01*
X65903946Y45674118D01*
X66174865Y45673882D01*
X66425252Y45777339D01*
X66616987Y45968741D01*
X66720882Y46218946D01*
X66721118Y46489865D01*
X66645597Y46672641D01*
X66720882Y46853946D01*
X66721118Y47124865D01*
X66645597Y47307641D01*
X66720882Y47488946D01*
X66720883Y47490135D01*
X72978882Y47490135D01*
X73054403Y47307359D01*
X72979118Y47126054D01*
X72978882Y46855135D01*
X73054403Y46672359D01*
X72979118Y46491054D01*
X72978882Y46220135D01*
X73082339Y45969748D01*
X73273741Y45778013D01*
X73523946Y45674118D01*
X73794865Y45673882D01*
X74045252Y45777339D01*
X74236987Y45968741D01*
X74340882Y46218946D01*
X74341118Y46489865D01*
X74265597Y46672641D01*
X74340882Y46853946D01*
X74341118Y47124865D01*
X74265597Y47307641D01*
X74340882Y47488946D01*
X74340883Y47490135D01*
X75518882Y47490135D01*
X75594403Y47307359D01*
X75519118Y47126054D01*
X75518882Y46855135D01*
X75594403Y46672359D01*
X75519118Y46491054D01*
X75518882Y46220135D01*
X75622339Y45969748D01*
X75813741Y45778013D01*
X76063946Y45674118D01*
X76334865Y45673882D01*
X76585252Y45777339D01*
X76776987Y45968741D01*
X76880882Y46218946D01*
X76881118Y46489865D01*
X76805597Y46672641D01*
X76880882Y46853946D01*
X76881118Y47124865D01*
X76805597Y47307641D01*
X76880882Y47488946D01*
X76881118Y47759865D01*
X76777661Y48010252D01*
X76586259Y48201987D01*
X76336054Y48305882D01*
X76065135Y48306118D01*
X75814748Y48202661D01*
X75623013Y48011259D01*
X75519118Y47761054D01*
X75518882Y47490135D01*
X74340883Y47490135D01*
X74341118Y47759865D01*
X74237661Y48010252D01*
X74046259Y48201987D01*
X73796054Y48305882D01*
X73525135Y48306118D01*
X73274748Y48202661D01*
X73083013Y48011259D01*
X72979118Y47761054D01*
X72978882Y47490135D01*
X66720883Y47490135D01*
X66721118Y47759865D01*
X66617661Y48010252D01*
X66426259Y48201987D01*
X66176054Y48305882D01*
X65905135Y48306118D01*
X65654748Y48202661D01*
X65463013Y48011259D01*
X65359118Y47761054D01*
X65358882Y47490135D01*
X64180883Y47490135D01*
X64181118Y47759865D01*
X64077661Y48010252D01*
X63886259Y48201987D01*
X63636054Y48305882D01*
X63365135Y48306118D01*
X63114748Y48202661D01*
X62923013Y48011259D01*
X62819118Y47761054D01*
X62818882Y47490135D01*
X49911000Y47490135D01*
X49911000Y49403000D01*
X57329966Y49403000D01*
X57208013Y49281259D01*
X57208013Y49281259D01*
G37*
X57208013Y49281259D02*
X57104118Y49031054D01*
X57103882Y48760135D01*
X57207339Y48509748D01*
X57398741Y48318013D01*
X57648946Y48214118D01*
X57919865Y48213882D01*
X58170252Y48317339D01*
X58361987Y48508741D01*
X58465882Y48758946D01*
X58466118Y49029865D01*
X58362661Y49280252D01*
X58240126Y49403000D01*
X60504966Y49403000D01*
X60383013Y49281259D01*
X60279118Y49031054D01*
X60278882Y48760135D01*
X60382339Y48509748D01*
X60573741Y48318013D01*
X60823946Y48214118D01*
X61094865Y48213882D01*
X61345252Y48317339D01*
X61536987Y48508741D01*
X61640882Y48758946D01*
X61641118Y49029865D01*
X61537661Y49280252D01*
X61415126Y49403000D01*
X79544000Y49403000D01*
X79544000Y456000D01*
X49911000Y456000D01*
X49911000Y12087696D01*
X50553620Y12087696D01*
X50553620Y8435504D01*
X50715837Y7619983D01*
X51177793Y6928617D01*
X51869159Y6466661D01*
X52684680Y6304444D01*
X53500201Y6466661D01*
X54191567Y6928617D01*
X54653523Y7619983D01*
X54815740Y8435504D01*
X54815740Y12087696D01*
X54653523Y12903217D01*
X54191567Y13594583D01*
X53500201Y14056539D01*
X52684680Y14218756D01*
X51869159Y14056539D01*
X51177793Y13594583D01*
X50715837Y12903217D01*
X50553620Y12087696D01*
X49911000Y12087696D01*
X49911000Y15007787D01*
X56603900Y15007787D01*
X56603900Y14044733D01*
X56693806Y13592746D01*
X56949836Y13209569D01*
X57333013Y12953539D01*
X57785000Y12863633D01*
X58236987Y12953539D01*
X58620164Y13209569D01*
X58876194Y13592746D01*
X58966100Y14044733D01*
X58966100Y15007787D01*
X59103260Y15007787D01*
X59103260Y14044733D01*
X59193166Y13592746D01*
X59449196Y13209569D01*
X59832373Y12953539D01*
X60284360Y12863633D01*
X60736347Y12953539D01*
X61117918Y13208496D01*
X60913937Y12903217D01*
X60751720Y12087696D01*
X60751720Y8435504D01*
X60913937Y7619983D01*
X61375893Y6928617D01*
X62067259Y6466661D01*
X62882780Y6304444D01*
X63698301Y6466661D01*
X64389667Y6928617D01*
X64761520Y7485135D01*
X71708882Y7485135D01*
X71812339Y7234748D01*
X72003741Y7043013D01*
X72253946Y6939118D01*
X72524865Y6938882D01*
X72775252Y7042339D01*
X72966987Y7233741D01*
X73070882Y7483946D01*
X73071118Y7754865D01*
X72967661Y8005252D01*
X72776259Y8196987D01*
X72526054Y8300882D01*
X72255135Y8301118D01*
X72004748Y8197661D01*
X71813013Y8006259D01*
X71709118Y7756054D01*
X71708882Y7485135D01*
X64761520Y7485135D01*
X64851623Y7619983D01*
X65013840Y8435504D01*
X65013840Y8755135D01*
X75518882Y8755135D01*
X75622339Y8504748D01*
X75813741Y8313013D01*
X76063946Y8209118D01*
X76334865Y8208882D01*
X76585252Y8312339D01*
X76776987Y8503741D01*
X76880882Y8753946D01*
X76881118Y9024865D01*
X76777661Y9275252D01*
X76586259Y9466987D01*
X76336054Y9570882D01*
X76065135Y9571118D01*
X75814748Y9467661D01*
X75623013Y9276259D01*
X75519118Y9026054D01*
X75518882Y8755135D01*
X65013840Y8755135D01*
X65013840Y12087696D01*
X64851623Y12903217D01*
X64653229Y13200135D01*
X69168882Y13200135D01*
X69272339Y12949748D01*
X69463741Y12758013D01*
X69713946Y12654118D01*
X69984865Y12653882D01*
X70235252Y12757339D01*
X70426987Y12948741D01*
X70530882Y13198946D01*
X70531118Y13469865D01*
X70427661Y13720252D01*
X70236259Y13911987D01*
X69986054Y14015882D01*
X69715135Y14016118D01*
X69464748Y13912661D01*
X69273013Y13721259D01*
X69169118Y13471054D01*
X69168882Y13200135D01*
X64653229Y13200135D01*
X64389667Y13594583D01*
X63698301Y14056539D01*
X62882780Y14218756D01*
X62067259Y14056539D01*
X61375923Y13594603D01*
X61465460Y14044733D01*
X61465460Y15007787D01*
X61375554Y15459774D01*
X61119524Y15842951D01*
X60736347Y16098981D01*
X60284360Y16188887D01*
X59832373Y16098981D01*
X59449196Y15842951D01*
X59193166Y15459774D01*
X59103260Y15007787D01*
X58966100Y15007787D01*
X58876194Y15459774D01*
X58620164Y15842951D01*
X58236987Y16098981D01*
X57785000Y16188887D01*
X57333013Y16098981D01*
X56949836Y15842951D01*
X56693806Y15459774D01*
X56603900Y15007787D01*
X49911000Y15007787D01*
X49911000Y17645135D01*
X74248882Y17645135D01*
X74352339Y17394748D01*
X74543741Y17203013D01*
X74793946Y17099118D01*
X75064865Y17098882D01*
X75315252Y17202339D01*
X75506987Y17393741D01*
X75610882Y17643946D01*
X75611118Y17914865D01*
X75507661Y18165252D01*
X75316259Y18356987D01*
X75066054Y18460882D01*
X74795135Y18461118D01*
X74544748Y18357661D01*
X74353013Y18166259D01*
X74249118Y17916054D01*
X74248882Y17645135D01*
X49911000Y17645135D01*
X49911000Y18280135D01*
X53293882Y18280135D01*
X53397339Y18029748D01*
X53588741Y17838013D01*
X53838946Y17734118D01*
X54109865Y17733882D01*
X54360252Y17837339D01*
X54551987Y18028741D01*
X54655882Y18278946D01*
X54656118Y18549865D01*
X54552661Y18800252D01*
X54361259Y18991987D01*
X54111054Y19095882D01*
X53840135Y19096118D01*
X53589748Y18992661D01*
X53398013Y18801259D01*
X53294118Y18551054D01*
X53293882Y18280135D01*
X49911000Y18280135D01*
X49911000Y24630135D01*
X60913882Y24630135D01*
X61017339Y24379748D01*
X61208741Y24188013D01*
X61458946Y24084118D01*
X61729865Y24083882D01*
X61980252Y24187339D01*
X62171987Y24378741D01*
X62275882Y24628946D01*
X62276118Y24899865D01*
X62172661Y25150252D01*
X61981259Y25341987D01*
X61731054Y25445882D01*
X61460135Y25446118D01*
X61209748Y25342661D01*
X61018013Y25151259D01*
X60914118Y24901054D01*
X60913882Y24630135D01*
X49911000Y24630135D01*
X49911000Y25900135D01*
X75518882Y25900135D01*
X75622339Y25649748D01*
X75813741Y25458013D01*
X76063946Y25354118D01*
X76334865Y25353882D01*
X76585252Y25457339D01*
X76776987Y25648741D01*
X76880882Y25898946D01*
X76881118Y26169865D01*
X76777661Y26420252D01*
X76586259Y26611987D01*
X76336054Y26715882D01*
X76065135Y26716118D01*
X75814748Y26612661D01*
X75623013Y26421259D01*
X75519118Y26171054D01*
X75518882Y25900135D01*
X49911000Y25900135D01*
X49911000Y27170135D01*
X69803882Y27170135D01*
X69907339Y26919748D01*
X70098741Y26728013D01*
X70348946Y26624118D01*
X70619865Y26623882D01*
X70870252Y26727339D01*
X71061987Y26918741D01*
X71165882Y27168946D01*
X71166118Y27439865D01*
X71062661Y27690252D01*
X70871259Y27881987D01*
X70621054Y27985882D01*
X70350135Y27986118D01*
X70099748Y27882661D01*
X69908013Y27691259D01*
X69804118Y27441054D01*
X69803882Y27170135D01*
X49911000Y27170135D01*
X49911000Y29710135D01*
X58373882Y29710135D01*
X58477339Y29459748D01*
X58668741Y29268013D01*
X58918946Y29164118D01*
X59189865Y29163882D01*
X59440252Y29267339D01*
X59631987Y29458741D01*
X59735882Y29708946D01*
X59735968Y29807548D01*
X60362387Y30433967D01*
X60459865Y30433882D01*
X60710252Y30537339D01*
X60901987Y30728741D01*
X61005882Y30978946D01*
X61006118Y31249865D01*
X60902661Y31500252D01*
X60711259Y31691987D01*
X60461054Y31795882D01*
X60190135Y31796118D01*
X59939748Y31692661D01*
X59748013Y31501259D01*
X59644118Y31251054D01*
X59644032Y31152452D01*
X59017613Y30526033D01*
X58920135Y30526118D01*
X58669748Y30422661D01*
X58478013Y30231259D01*
X58374118Y29981054D01*
X58373882Y29710135D01*
X49911000Y29710135D01*
X49911000Y34155135D01*
X73613882Y34155135D01*
X73717339Y33904748D01*
X73908741Y33713013D01*
X74158946Y33609118D01*
X74429865Y33608882D01*
X74680252Y33712339D01*
X74871987Y33903741D01*
X74975882Y34153946D01*
X74976118Y34424865D01*
X74872661Y34675252D01*
X74681259Y34866987D01*
X74431054Y34970882D01*
X74160135Y34971118D01*
X73909748Y34867661D01*
X73718013Y34676259D01*
X73614118Y34426054D01*
X73613882Y34155135D01*
X49911000Y34155135D01*
X49911000Y34790135D01*
X56468882Y34790135D01*
X56572339Y34539748D01*
X56763741Y34348013D01*
X57013946Y34244118D01*
X57284865Y34243882D01*
X57535252Y34347339D01*
X57726987Y34538741D01*
X57830882Y34788946D01*
X57831118Y35059865D01*
X57727661Y35310252D01*
X57536259Y35501987D01*
X57286054Y35605882D01*
X57015135Y35606118D01*
X56764748Y35502661D01*
X56573013Y35311259D01*
X56469118Y35061054D01*
X56468882Y34790135D01*
X49911000Y34790135D01*
X49911000Y36060135D01*
X52658882Y36060135D01*
X52762339Y35809748D01*
X52953741Y35618013D01*
X53203946Y35514118D01*
X53474865Y35513882D01*
X53725252Y35617339D01*
X53916987Y35808741D01*
X54020882Y36058946D01*
X54020883Y36060135D01*
X69803882Y36060135D01*
X69907339Y35809748D01*
X70098741Y35618013D01*
X70348946Y35514118D01*
X70619865Y35513882D01*
X70870252Y35617339D01*
X71061987Y35808741D01*
X71165882Y36058946D01*
X71166118Y36329865D01*
X71062661Y36580252D01*
X70871259Y36771987D01*
X70621054Y36875882D01*
X70350135Y36876118D01*
X70099748Y36772661D01*
X69908013Y36581259D01*
X69804118Y36331054D01*
X69803882Y36060135D01*
X54020883Y36060135D01*
X54021118Y36329865D01*
X53917661Y36580252D01*
X53726259Y36771987D01*
X53476054Y36875882D01*
X53205135Y36876118D01*
X52954748Y36772661D01*
X52763013Y36581259D01*
X52659118Y36331054D01*
X52658882Y36060135D01*
X49911000Y36060135D01*
X49911000Y38600135D01*
X74248882Y38600135D01*
X74352339Y38349748D01*
X74543741Y38158013D01*
X74793946Y38054118D01*
X75064865Y38053882D01*
X75315252Y38157339D01*
X75506987Y38348741D01*
X75610882Y38598946D01*
X75611118Y38869865D01*
X75507661Y39120252D01*
X75316259Y39311987D01*
X75066054Y39415882D01*
X74795135Y39416118D01*
X74544748Y39312661D01*
X74353013Y39121259D01*
X74249118Y38871054D01*
X74248882Y38600135D01*
X49911000Y38600135D01*
X49911000Y39235135D01*
X53928882Y39235135D01*
X54032339Y38984748D01*
X54223741Y38793013D01*
X54473946Y38689118D01*
X54744865Y38688882D01*
X54995252Y38792339D01*
X55186987Y38983741D01*
X55290882Y39233946D01*
X55291118Y39504865D01*
X55187661Y39755252D01*
X54996259Y39946987D01*
X54746054Y40050882D01*
X54475135Y40051118D01*
X54224748Y39947661D01*
X54033013Y39756259D01*
X53929118Y39506054D01*
X53928882Y39235135D01*
X49911000Y39235135D01*
X49911000Y40505135D01*
X52658882Y40505135D01*
X52762339Y40254748D01*
X52953741Y40063013D01*
X53203946Y39959118D01*
X53474865Y39958882D01*
X53725252Y40062339D01*
X53916987Y40253741D01*
X54020882Y40503946D01*
X54020883Y40505135D01*
X57738882Y40505135D01*
X57842339Y40254748D01*
X58033741Y40063013D01*
X58283946Y39959118D01*
X58554865Y39958882D01*
X58805252Y40062339D01*
X58996987Y40253741D01*
X59100882Y40503946D01*
X59101118Y40774865D01*
X58997661Y41025252D01*
X58806259Y41216987D01*
X58556054Y41320882D01*
X58285135Y41321118D01*
X58034748Y41217661D01*
X57843013Y41026259D01*
X57739118Y40776054D01*
X57738882Y40505135D01*
X54020883Y40505135D01*
X54021118Y40774865D01*
X53917661Y41025252D01*
X53726259Y41216987D01*
X53476054Y41320882D01*
X53205135Y41321118D01*
X52954748Y41217661D01*
X52763013Y41026259D01*
X52659118Y40776054D01*
X52658882Y40505135D01*
X49911000Y40505135D01*
X49911000Y41775135D01*
X60913882Y41775135D01*
X61017339Y41524748D01*
X61208741Y41333013D01*
X61458946Y41229118D01*
X61729865Y41228882D01*
X61980252Y41332339D01*
X62171987Y41523741D01*
X62275882Y41773946D01*
X62276118Y42044865D01*
X62172661Y42295252D01*
X61981259Y42486987D01*
X61731054Y42590882D01*
X61460135Y42591118D01*
X61209748Y42487661D01*
X61018013Y42296259D01*
X60914118Y42046054D01*
X60913882Y41775135D01*
X49911000Y41775135D01*
X49911000Y42410135D01*
X55198882Y42410135D01*
X55302339Y42159748D01*
X55493741Y41968013D01*
X55743946Y41864118D01*
X56014865Y41863882D01*
X56265252Y41967339D01*
X56456987Y42158741D01*
X56560882Y42408946D01*
X56561118Y42679865D01*
X56457661Y42930252D01*
X56342978Y43045135D01*
X56468882Y43045135D01*
X56572339Y42794748D01*
X56763741Y42603013D01*
X57013946Y42499118D01*
X57284865Y42498882D01*
X57535252Y42602339D01*
X57726987Y42793741D01*
X57830882Y43043946D01*
X57830883Y43045135D01*
X61548882Y43045135D01*
X61652339Y42794748D01*
X61843741Y42603013D01*
X62093946Y42499118D01*
X62364865Y42498882D01*
X62615252Y42602339D01*
X62806987Y42793741D01*
X62910882Y43043946D01*
X62911118Y43314865D01*
X62807661Y43565252D01*
X62616259Y43756987D01*
X62366054Y43860882D01*
X62095135Y43861118D01*
X61844748Y43757661D01*
X61653013Y43566259D01*
X61549118Y43316054D01*
X61548882Y43045135D01*
X57830883Y43045135D01*
X57831118Y43314865D01*
X57727661Y43565252D01*
X57536259Y43756987D01*
X57286054Y43860882D01*
X57015135Y43861118D01*
X56764748Y43757661D01*
X56573013Y43566259D01*
X56469118Y43316054D01*
X56468882Y43045135D01*
X56342978Y43045135D01*
X56266259Y43121987D01*
X56016054Y43225882D01*
X55745135Y43226118D01*
X55494748Y43122661D01*
X55303013Y42931259D01*
X55199118Y42681054D01*
X55198882Y42410135D01*
X49911000Y42410135D01*
X49911000Y44950135D01*
X61548882Y44950135D01*
X61652339Y44699748D01*
X61843741Y44508013D01*
X62093946Y44404118D01*
X62364865Y44403882D01*
X62615252Y44507339D01*
X62806987Y44698741D01*
X62910882Y44948946D01*
X62911118Y45219865D01*
X62807661Y45470252D01*
X62616259Y45661987D01*
X62366054Y45765882D01*
X62095135Y45766118D01*
X61844748Y45662661D01*
X61653013Y45471259D01*
X61549118Y45221054D01*
X61548882Y44950135D01*
X49911000Y44950135D01*
X49911000Y45585135D01*
X50118882Y45585135D01*
X50222339Y45334748D01*
X50413741Y45143013D01*
X50663946Y45039118D01*
X50934865Y45038882D01*
X51185252Y45142339D01*
X51376987Y45333741D01*
X51480882Y45583946D01*
X51480883Y45585135D01*
X53928882Y45585135D01*
X54032339Y45334748D01*
X54223741Y45143013D01*
X54473946Y45039118D01*
X54744865Y45038882D01*
X54995252Y45142339D01*
X55186987Y45333741D01*
X55290882Y45583946D01*
X55290883Y45585135D01*
X56468882Y45585135D01*
X56572339Y45334748D01*
X56763741Y45143013D01*
X57013946Y45039118D01*
X57284865Y45038882D01*
X57535252Y45142339D01*
X57726987Y45333741D01*
X57830882Y45583946D01*
X57831118Y45854865D01*
X57727661Y46105252D01*
X57536259Y46296987D01*
X57286054Y46400882D01*
X57015135Y46401118D01*
X56764748Y46297661D01*
X56573013Y46106259D01*
X56469118Y45856054D01*
X56468882Y45585135D01*
X55290883Y45585135D01*
X55291118Y45854865D01*
X55187661Y46105252D01*
X54996259Y46296987D01*
X54746054Y46400882D01*
X54475135Y46401118D01*
X54224748Y46297661D01*
X54033013Y46106259D01*
X53929118Y45856054D01*
X53928882Y45585135D01*
X51480883Y45585135D01*
X51481118Y45854865D01*
X51377661Y46105252D01*
X51186259Y46296987D01*
X50936054Y46400882D01*
X50665135Y46401118D01*
X50414748Y46297661D01*
X50223013Y46106259D01*
X50119118Y45856054D01*
X50118882Y45585135D01*
X49911000Y45585135D01*
X49911000Y47490135D01*
X62818882Y47490135D01*
X62894403Y47307359D01*
X62819118Y47126054D01*
X62818882Y46855135D01*
X62894403Y46672359D01*
X62819118Y46491054D01*
X62818882Y46220135D01*
X62922339Y45969748D01*
X63113741Y45778013D01*
X63363946Y45674118D01*
X63634865Y45673882D01*
X63885252Y45777339D01*
X64076987Y45968741D01*
X64180882Y46218946D01*
X64181118Y46489865D01*
X64105597Y46672641D01*
X64180882Y46853946D01*
X64181118Y47124865D01*
X64105597Y47307641D01*
X64180882Y47488946D01*
X64180883Y47490135D01*
X65358882Y47490135D01*
X65434403Y47307359D01*
X65359118Y47126054D01*
X65358882Y46855135D01*
X65434403Y46672359D01*
X65359118Y46491054D01*
X65358882Y46220135D01*
X65462339Y45969748D01*
X65653741Y45778013D01*
X65903946Y45674118D01*
X66174865Y45673882D01*
X66425252Y45777339D01*
X66616987Y45968741D01*
X66720882Y46218946D01*
X66721118Y46489865D01*
X66645597Y46672641D01*
X66720882Y46853946D01*
X66721118Y47124865D01*
X66645597Y47307641D01*
X66720882Y47488946D01*
X66720883Y47490135D01*
X72978882Y47490135D01*
X73054403Y47307359D01*
X72979118Y47126054D01*
X72978882Y46855135D01*
X73054403Y46672359D01*
X72979118Y46491054D01*
X72978882Y46220135D01*
X73082339Y45969748D01*
X73273741Y45778013D01*
X73523946Y45674118D01*
X73794865Y45673882D01*
X74045252Y45777339D01*
X74236987Y45968741D01*
X74340882Y46218946D01*
X74341118Y46489865D01*
X74265597Y46672641D01*
X74340882Y46853946D01*
X74341118Y47124865D01*
X74265597Y47307641D01*
X74340882Y47488946D01*
X74340883Y47490135D01*
X75518882Y47490135D01*
X75594403Y47307359D01*
X75519118Y47126054D01*
X75518882Y46855135D01*
X75594403Y46672359D01*
X75519118Y46491054D01*
X75518882Y46220135D01*
X75622339Y45969748D01*
X75813741Y45778013D01*
X76063946Y45674118D01*
X76334865Y45673882D01*
X76585252Y45777339D01*
X76776987Y45968741D01*
X76880882Y46218946D01*
X76881118Y46489865D01*
X76805597Y46672641D01*
X76880882Y46853946D01*
X76881118Y47124865D01*
X76805597Y47307641D01*
X76880882Y47488946D01*
X76881118Y47759865D01*
X76777661Y48010252D01*
X76586259Y48201987D01*
X76336054Y48305882D01*
X76065135Y48306118D01*
X75814748Y48202661D01*
X75623013Y48011259D01*
X75519118Y47761054D01*
X75518882Y47490135D01*
X74340883Y47490135D01*
X74341118Y47759865D01*
X74237661Y48010252D01*
X74046259Y48201987D01*
X73796054Y48305882D01*
X73525135Y48306118D01*
X73274748Y48202661D01*
X73083013Y48011259D01*
X72979118Y47761054D01*
X72978882Y47490135D01*
X66720883Y47490135D01*
X66721118Y47759865D01*
X66617661Y48010252D01*
X66426259Y48201987D01*
X66176054Y48305882D01*
X65905135Y48306118D01*
X65654748Y48202661D01*
X65463013Y48011259D01*
X65359118Y47761054D01*
X65358882Y47490135D01*
X64180883Y47490135D01*
X64181118Y47759865D01*
X64077661Y48010252D01*
X63886259Y48201987D01*
X63636054Y48305882D01*
X63365135Y48306118D01*
X63114748Y48202661D01*
X62923013Y48011259D01*
X62819118Y47761054D01*
X62818882Y47490135D01*
X49911000Y47490135D01*
X49911000Y49403000D01*
X57329966Y49403000D01*
X57208013Y49281259D01*
M02*
