G04 #@! TF.FileFunction,Legend,Top*
%FSLAX46Y46*%
G04 Gerber Fmt 4.6, Leading zero omitted, Abs format (unit mm)*
G04 Created by KiCad (PCBNEW 4.0.2+dfsg1-stable) date Tue 05 Jun 2018 02:22:55 AM EDT*
%MOMM*%
G01*
G04 APERTURE LIST*
%ADD10C,0.127000*%
%ADD11C,0.200000*%
%ADD12C,0.300000*%
%ADD13C,0.152400*%
%ADD14C,0.120000*%
%ADD15C,0.150000*%
%ADD16C,0.010000*%
%ADD17C,0.203200*%
G04 APERTURE END LIST*
D10*
D11*
X25082500Y57277000D02*
G75*
G03X25082500Y57277000I-635000J0D01*
G01*
D12*
X7048572Y60852857D02*
X8191429Y60852857D01*
X4508572Y60852857D02*
X5651429Y60852857D01*
X5080000Y60281429D02*
X5080000Y61424286D01*
D13*
X71458668Y64612762D02*
X71603811Y64564381D01*
X71845715Y64564381D01*
X71942477Y64612762D01*
X71990858Y64661143D01*
X72039239Y64757905D01*
X72039239Y64854667D01*
X71990858Y64951429D01*
X71942477Y64999810D01*
X71845715Y65048190D01*
X71652192Y65096571D01*
X71555430Y65144952D01*
X71507049Y65193333D01*
X71458668Y65290095D01*
X71458668Y65386857D01*
X71507049Y65483619D01*
X71555430Y65532000D01*
X71652192Y65580381D01*
X71894096Y65580381D01*
X72039239Y65532000D01*
X72329525Y65241714D02*
X72716573Y65241714D01*
X72474668Y65580381D02*
X72474668Y64709524D01*
X72523049Y64612762D01*
X72619811Y64564381D01*
X72716573Y64564381D01*
X73490667Y64564381D02*
X73490667Y65096571D01*
X73442286Y65193333D01*
X73345524Y65241714D01*
X73152001Y65241714D01*
X73055239Y65193333D01*
X73490667Y64612762D02*
X73393905Y64564381D01*
X73152001Y64564381D01*
X73055239Y64612762D01*
X73006858Y64709524D01*
X73006858Y64806286D01*
X73055239Y64903048D01*
X73152001Y64951429D01*
X73393905Y64951429D01*
X73490667Y64999810D01*
X73829334Y65241714D02*
X74216382Y65241714D01*
X73974477Y65580381D02*
X73974477Y64709524D01*
X74022858Y64612762D01*
X74119620Y64564381D01*
X74216382Y64564381D01*
X74990476Y65241714D02*
X74990476Y64564381D01*
X74555048Y65241714D02*
X74555048Y64709524D01*
X74603429Y64612762D01*
X74700191Y64564381D01*
X74845333Y64564381D01*
X74942095Y64612762D01*
X74990476Y64661143D01*
X75425905Y64612762D02*
X75522667Y64564381D01*
X75716191Y64564381D01*
X75812952Y64612762D01*
X75861333Y64709524D01*
X75861333Y64757905D01*
X75812952Y64854667D01*
X75716191Y64903048D01*
X75571048Y64903048D01*
X75474286Y64951429D01*
X75425905Y65048190D01*
X75425905Y65096571D01*
X75474286Y65193333D01*
X75571048Y65241714D01*
X75716191Y65241714D01*
X75812952Y65193333D01*
X70321715Y60817881D02*
X70321715Y61833881D01*
X70708762Y61833881D01*
X70805524Y61785500D01*
X70853905Y61737119D01*
X70902286Y61640357D01*
X70902286Y61495214D01*
X70853905Y61398452D01*
X70805524Y61350071D01*
X70708762Y61301690D01*
X70321715Y61301690D01*
X71482858Y60817881D02*
X71386096Y60866262D01*
X71337715Y60914643D01*
X71289334Y61011405D01*
X71289334Y61301690D01*
X71337715Y61398452D01*
X71386096Y61446833D01*
X71482858Y61495214D01*
X71628000Y61495214D01*
X71724762Y61446833D01*
X71773143Y61398452D01*
X71821524Y61301690D01*
X71821524Y61011405D01*
X71773143Y60914643D01*
X71724762Y60866262D01*
X71628000Y60817881D01*
X71482858Y60817881D01*
X72160191Y61495214D02*
X72353715Y60817881D01*
X72547238Y61301690D01*
X72740762Y60817881D01*
X72934286Y61495214D01*
X73708381Y60866262D02*
X73611619Y60817881D01*
X73418096Y60817881D01*
X73321334Y60866262D01*
X73272953Y60963024D01*
X73272953Y61350071D01*
X73321334Y61446833D01*
X73418096Y61495214D01*
X73611619Y61495214D01*
X73708381Y61446833D01*
X73756762Y61350071D01*
X73756762Y61253310D01*
X73272953Y61156548D01*
X74192191Y60817881D02*
X74192191Y61495214D01*
X74192191Y61301690D02*
X74240572Y61398452D01*
X74288953Y61446833D01*
X74385715Y61495214D01*
X74482476Y61495214D01*
X75788762Y61833881D02*
X75982285Y61833881D01*
X76079047Y61785500D01*
X76175809Y61688738D01*
X76224190Y61495214D01*
X76224190Y61156548D01*
X76175809Y60963024D01*
X76079047Y60866262D01*
X75982285Y60817881D01*
X75788762Y60817881D01*
X75692000Y60866262D01*
X75595238Y60963024D01*
X75546857Y61156548D01*
X75546857Y61495214D01*
X75595238Y61688738D01*
X75692000Y61785500D01*
X75788762Y61833881D01*
X76659619Y60817881D02*
X76659619Y61833881D01*
X76756381Y61204929D02*
X77046666Y60817881D01*
X77046666Y61495214D02*
X76659619Y61108167D01*
D11*
X34798000Y63881000D02*
X32385000Y63881000D01*
X33655000Y65024000D02*
X33655000Y65151000D01*
X34798000Y63881000D02*
X33655000Y65024000D01*
X34544000Y63881000D02*
X34671000Y64008000D01*
X34290000Y63881000D02*
X34544000Y64135000D01*
X34036000Y63881000D02*
X34417000Y64262000D01*
X33782000Y63881000D02*
X34290000Y64389000D01*
X33528000Y63881000D02*
X34163000Y64516000D01*
X33274000Y63881000D02*
X34036000Y64643000D01*
X33020000Y63881000D02*
X33909000Y64770000D01*
X32766000Y63881000D02*
X33782000Y64897000D01*
X32512000Y63881000D02*
X33655000Y65024000D01*
X35179000Y63754000D02*
X32131000Y63754000D01*
X33655000Y65278000D02*
X35179000Y63754000D01*
X33655000Y65278000D02*
X32131000Y63754000D01*
D14*
X28265000Y60200000D02*
X29195000Y60200000D01*
X31425000Y60200000D02*
X30495000Y60200000D01*
X31425000Y60200000D02*
X31425000Y62360000D01*
X28265000Y60200000D02*
X28265000Y61660000D01*
D15*
X7405000Y56380000D02*
X7405000Y55380000D01*
X9105000Y55380000D02*
X9105000Y56380000D01*
X30480000Y38985000D02*
X30480000Y39235000D01*
X30480000Y38485000D02*
X30480000Y38235000D01*
X30480000Y38485000D02*
X30130000Y38985000D01*
X30130000Y38985000D02*
X30830000Y38985000D01*
X30830000Y38985000D02*
X30480000Y38485000D01*
X30130000Y38485000D02*
X30830000Y38485000D01*
X31280000Y37435000D02*
X31280000Y39835000D01*
X29680000Y37435000D02*
X29680000Y39835000D01*
X20455000Y65190000D02*
X21455000Y65190000D01*
X21455000Y66890000D02*
X20455000Y66890000D01*
X16725000Y60460000D02*
X16725000Y61460000D01*
X15025000Y61460000D02*
X15025000Y60460000D01*
X9390000Y53555000D02*
X8390000Y53555000D01*
X8390000Y51855000D02*
X9390000Y51855000D01*
X19900000Y23630000D02*
X19900000Y24630000D01*
X18200000Y24630000D02*
X18200000Y23630000D01*
X26805000Y35345000D02*
X27805000Y35345000D01*
X27805000Y37045000D02*
X26805000Y37045000D01*
X23915000Y30980000D02*
X23915000Y29980000D01*
X25615000Y29980000D02*
X25615000Y30980000D01*
X32805000Y27170000D02*
X32805000Y26170000D01*
X34505000Y26170000D02*
X34505000Y27170000D01*
X43950000Y35345000D02*
X44950000Y35345000D01*
X44950000Y37045000D02*
X43950000Y37045000D01*
X34710000Y35425000D02*
X34710000Y34425000D01*
X36410000Y34425000D02*
X36410000Y35425000D01*
X40140000Y26455000D02*
X41140000Y26455000D01*
X41140000Y28155000D02*
X40140000Y28155000D01*
X47410000Y28440000D02*
X47410000Y27440000D01*
X49110000Y27440000D02*
X49110000Y28440000D01*
X28790000Y40140000D02*
X28790000Y41140000D01*
X27090000Y41140000D02*
X27090000Y40140000D01*
X28360000Y48175000D02*
X28360000Y47175000D01*
X30060000Y47175000D02*
X30060000Y48175000D01*
X30345000Y52920000D02*
X29345000Y52920000D01*
X29345000Y51220000D02*
X30345000Y51220000D01*
X44950000Y4025000D02*
X43950000Y4025000D01*
X43950000Y2325000D02*
X44950000Y2325000D01*
X32805000Y53840000D02*
X32805000Y52840000D01*
X34505000Y52840000D02*
X34505000Y53840000D01*
X47840000Y40140000D02*
X47840000Y41140000D01*
X46140000Y41140000D02*
X46140000Y40140000D01*
X47410000Y11295000D02*
X47410000Y10295000D01*
X49110000Y10295000D02*
X49110000Y11295000D01*
X54745000Y35345000D02*
X55745000Y35345000D01*
X55745000Y37045000D02*
X54745000Y37045000D01*
X51855000Y30980000D02*
X51855000Y29980000D01*
X53555000Y29980000D02*
X53555000Y30980000D01*
X60745000Y27170000D02*
X60745000Y26170000D01*
X62445000Y26170000D02*
X62445000Y27170000D01*
X71890000Y35345000D02*
X72890000Y35345000D01*
X72890000Y37045000D02*
X71890000Y37045000D01*
X62650000Y35425000D02*
X62650000Y34425000D01*
X64350000Y34425000D02*
X64350000Y35425000D01*
X68080000Y26455000D02*
X69080000Y26455000D01*
X69080000Y28155000D02*
X68080000Y28155000D01*
X75350000Y28440000D02*
X75350000Y27440000D01*
X77050000Y27440000D02*
X77050000Y28440000D01*
X56730000Y40140000D02*
X56730000Y41140000D01*
X55030000Y41140000D02*
X55030000Y40140000D01*
X56300000Y48125000D02*
X56300000Y47125000D01*
X58000000Y47125000D02*
X58000000Y48125000D01*
X58285000Y52920000D02*
X57285000Y52920000D01*
X57285000Y51220000D02*
X58285000Y51220000D01*
X72890000Y4025000D02*
X71890000Y4025000D01*
X71890000Y2325000D02*
X72890000Y2325000D01*
X75692000Y58674000D02*
X75692000Y60325000D01*
X75057000Y58674000D02*
X74168000Y58674000D01*
X75057000Y58674000D02*
X75692000Y58674000D01*
X73406000Y59944000D02*
X73406000Y59436000D01*
X72644000Y59055000D02*
X74676000Y59055000D01*
X74676000Y60325000D02*
X72644000Y60325000D01*
X72644000Y59055000D02*
X72644000Y60325000D01*
X74676000Y60325000D02*
X74676000Y59055000D01*
X73406000Y59690000D02*
X73660000Y59690000D01*
X73660000Y59690000D02*
X73914000Y59944000D01*
X73914000Y59690000D02*
X73660000Y59690000D01*
X73660000Y59690000D02*
X73914000Y59436000D01*
X73914000Y59436000D02*
X73660000Y59690000D01*
X73914000Y59944000D02*
X73914000Y59436000D01*
X73914000Y59436000D02*
X73406000Y59690000D01*
X73406000Y59690000D02*
X73914000Y59944000D01*
X53100000Y55915000D02*
X53100000Y57115000D01*
X54850000Y57115000D02*
X54850000Y55915000D01*
X50560000Y55915000D02*
X50560000Y57115000D01*
X52310000Y57115000D02*
X52310000Y55915000D01*
X64170000Y65645000D02*
X65370000Y65645000D01*
X65370000Y63895000D02*
X64170000Y63895000D01*
X64170000Y63105000D02*
X65370000Y63105000D01*
X65370000Y61355000D02*
X64170000Y61355000D01*
X64170000Y68185000D02*
X65370000Y68185000D01*
X65370000Y66435000D02*
X64170000Y66435000D01*
X13370000Y54215000D02*
X14570000Y54215000D01*
X14570000Y52465000D02*
X13370000Y52465000D01*
X13370000Y51675000D02*
X14570000Y51675000D01*
X14570000Y49925000D02*
X13370000Y49925000D01*
X14570000Y47385000D02*
X13370000Y47385000D01*
X13370000Y49135000D02*
X14570000Y49135000D01*
X14570000Y44210000D02*
X13370000Y44210000D01*
X13370000Y45960000D02*
X14570000Y45960000D01*
X14570000Y41670000D02*
X13370000Y41670000D01*
X13370000Y43420000D02*
X14570000Y43420000D01*
X14570000Y35320000D02*
X13370000Y35320000D01*
X13370000Y37070000D02*
X14570000Y37070000D01*
X65370000Y58815000D02*
X64170000Y58815000D01*
X64170000Y60565000D02*
X65370000Y60565000D01*
X30720000Y22825000D02*
X30720000Y21625000D01*
X28970000Y21625000D02*
X28970000Y22825000D01*
X25435000Y25640000D02*
X26635000Y25640000D01*
X26635000Y23890000D02*
X25435000Y23890000D01*
X25160000Y19720000D02*
X25160000Y20920000D01*
X26910000Y20920000D02*
X26910000Y19720000D01*
X33415000Y30515000D02*
X33415000Y31715000D01*
X35165000Y31715000D02*
X35165000Y30515000D01*
X32350000Y34685000D02*
X31150000Y34685000D01*
X31150000Y36435000D02*
X32350000Y36435000D01*
X35955000Y30515000D02*
X35955000Y31715000D01*
X37705000Y31715000D02*
X37705000Y30515000D01*
X47385000Y32420000D02*
X47385000Y33620000D01*
X49135000Y33620000D02*
X49135000Y32420000D01*
X39970000Y35320000D02*
X38770000Y35320000D01*
X38770000Y37070000D02*
X39970000Y37070000D01*
X34530000Y39335000D02*
X34530000Y38135000D01*
X32780000Y38135000D02*
X32780000Y39335000D01*
X48225000Y15635000D02*
X47025000Y15635000D01*
X47025000Y17385000D02*
X48225000Y17385000D01*
X31510000Y47025000D02*
X31510000Y48225000D01*
X33260000Y48225000D02*
X33260000Y47025000D01*
X26275000Y43145000D02*
X26275000Y41945000D01*
X24525000Y41945000D02*
X24525000Y43145000D01*
X58660000Y22825000D02*
X58660000Y21625000D01*
X56910000Y21625000D02*
X56910000Y22825000D01*
X53375000Y25640000D02*
X54575000Y25640000D01*
X54575000Y23890000D02*
X53375000Y23890000D01*
X53100000Y19720000D02*
X53100000Y20920000D01*
X54850000Y20920000D02*
X54850000Y19720000D01*
X61355000Y30515000D02*
X61355000Y31715000D01*
X63105000Y31715000D02*
X63105000Y30515000D01*
X60290000Y34685000D02*
X59090000Y34685000D01*
X59090000Y36435000D02*
X60290000Y36435000D01*
X63895000Y30515000D02*
X63895000Y31715000D01*
X65645000Y31715000D02*
X65645000Y30515000D01*
X75325000Y32420000D02*
X75325000Y33620000D01*
X77075000Y33620000D02*
X77075000Y32420000D01*
X19445000Y31780000D02*
G75*
G03X19445000Y31780000I-500000J0D01*
G01*
X19720000Y32555000D02*
X19575000Y32555000D01*
X19720000Y28405000D02*
X19575000Y28405000D01*
X14570000Y28405000D02*
X14715000Y28405000D01*
X14570000Y32555000D02*
X14715000Y32555000D01*
X19720000Y32555000D02*
X19720000Y28405000D01*
X14570000Y32555000D02*
X14570000Y28405000D01*
X19575000Y32555000D02*
X19575000Y33955000D01*
X27910000Y29020000D02*
G75*
G03X27910000Y29020000I-500000J0D01*
G01*
X26635000Y28245000D02*
X26780000Y28245000D01*
X26635000Y32395000D02*
X26780000Y32395000D01*
X31785000Y32395000D02*
X31640000Y32395000D01*
X31785000Y28245000D02*
X31640000Y28245000D01*
X26635000Y28245000D02*
X26635000Y32395000D01*
X31785000Y28245000D02*
X31785000Y32395000D01*
X26780000Y28245000D02*
X26780000Y26845000D01*
X41745000Y33550000D02*
G75*
G03X41745000Y33550000I-500000J0D01*
G01*
X40470000Y34325000D02*
X40470000Y34180000D01*
X44620000Y34325000D02*
X44620000Y34180000D01*
X44620000Y29175000D02*
X44620000Y29320000D01*
X40470000Y29175000D02*
X40470000Y29320000D01*
X40470000Y34325000D02*
X44620000Y34325000D01*
X40470000Y29175000D02*
X44620000Y29175000D01*
X40470000Y34180000D02*
X39070000Y34180000D01*
X27065000Y50830000D02*
G75*
G03X27065000Y50830000I-500000J0D01*
G01*
X27340000Y51605000D02*
X27195000Y51605000D01*
X27340000Y47455000D02*
X27195000Y47455000D01*
X22190000Y47455000D02*
X22335000Y47455000D01*
X22190000Y51605000D02*
X22335000Y51605000D01*
X27340000Y51605000D02*
X27340000Y47455000D01*
X22190000Y51605000D02*
X22190000Y47455000D01*
X27195000Y51605000D02*
X27195000Y53005000D01*
X42515000Y7590000D02*
G75*
G03X42515000Y7590000I-500000J0D01*
G01*
X41240000Y6815000D02*
X41385000Y6815000D01*
X41240000Y10965000D02*
X41385000Y10965000D01*
X46390000Y10965000D02*
X46245000Y10965000D01*
X46390000Y6815000D02*
X46245000Y6815000D01*
X41240000Y6815000D02*
X41240000Y10965000D01*
X46390000Y6815000D02*
X46390000Y10965000D01*
X41385000Y6815000D02*
X41385000Y5415000D01*
X55850000Y29180000D02*
G75*
G03X55850000Y29180000I-500000J0D01*
G01*
X54575000Y28405000D02*
X54720000Y28405000D01*
X54575000Y32555000D02*
X54720000Y32555000D01*
X59725000Y32555000D02*
X59580000Y32555000D01*
X59725000Y28405000D02*
X59580000Y28405000D01*
X54575000Y28405000D02*
X54575000Y32555000D01*
X59725000Y28405000D02*
X59725000Y32555000D01*
X54720000Y28405000D02*
X54720000Y27005000D01*
X69685000Y33550000D02*
G75*
G03X69685000Y33550000I-500000J0D01*
G01*
X68410000Y34325000D02*
X68410000Y34180000D01*
X72560000Y34325000D02*
X72560000Y34180000D01*
X72560000Y29175000D02*
X72560000Y29320000D01*
X68410000Y29175000D02*
X68410000Y29320000D01*
X68410000Y34325000D02*
X72560000Y34325000D01*
X68410000Y29175000D02*
X72560000Y29175000D01*
X68410000Y34180000D02*
X67010000Y34180000D01*
X55005000Y50830000D02*
G75*
G03X55005000Y50830000I-500000J0D01*
G01*
X55280000Y51605000D02*
X55135000Y51605000D01*
X55280000Y47455000D02*
X55135000Y47455000D01*
X50130000Y47455000D02*
X50275000Y47455000D01*
X50130000Y51605000D02*
X50275000Y51605000D01*
X55280000Y51605000D02*
X55280000Y47455000D01*
X50130000Y51605000D02*
X50130000Y47455000D01*
X55135000Y51605000D02*
X55135000Y53005000D01*
X58420000Y38985000D02*
X58420000Y39235000D01*
X58420000Y38485000D02*
X58420000Y38235000D01*
X58420000Y38485000D02*
X58070000Y38985000D01*
X58070000Y38985000D02*
X58770000Y38985000D01*
X58770000Y38985000D02*
X58420000Y38485000D01*
X58070000Y38485000D02*
X58770000Y38485000D01*
X59220000Y37435000D02*
X59220000Y39835000D01*
X57620000Y37435000D02*
X57620000Y39835000D01*
D14*
X19820000Y54395000D02*
X20820000Y54395000D01*
X20820000Y56095000D02*
X19820000Y56095000D01*
X60745000Y53840000D02*
X60745000Y52840000D01*
X62445000Y52840000D02*
X62445000Y53840000D01*
X75780000Y40140000D02*
X75780000Y41140000D01*
X74080000Y41140000D02*
X74080000Y40140000D01*
X75350000Y11295000D02*
X75350000Y10295000D01*
X77050000Y10295000D02*
X77050000Y11295000D01*
D15*
X70910000Y67310000D02*
X70910000Y69310000D01*
X70910000Y69310000D02*
X72910000Y69310000D01*
X72060000Y68110000D02*
X72660000Y68710000D01*
X72060000Y67710000D02*
X73060000Y68710000D01*
X72060000Y67310000D02*
X73460000Y68710000D01*
X74860000Y67310000D02*
G75*
G03X74860000Y67310000I-1200000J0D01*
G01*
X75260000Y65910000D02*
X75260000Y68710000D01*
X75260000Y68710000D02*
X72060000Y68710000D01*
X72060000Y68710000D02*
X72060000Y65910000D01*
X72060000Y65910000D02*
X75260000Y65910000D01*
X17701250Y57706250D02*
X17701250Y58496250D01*
X24001250Y64006250D02*
X24001250Y63216250D01*
X17701250Y64006250D02*
X17701250Y63216250D01*
X24001250Y57706250D02*
X23211250Y57706250D01*
X24001250Y64006250D02*
X23211250Y64006250D01*
X17701250Y64006250D02*
X18491250Y64006250D01*
X17701250Y57706250D02*
X18491250Y57706250D01*
D14*
X47685000Y65980000D02*
X47685000Y68640000D01*
X34925000Y65980000D02*
X47685000Y65980000D01*
X34925000Y68640000D02*
X47685000Y68640000D01*
X34925000Y65980000D02*
X34925000Y68640000D01*
X33655000Y65980000D02*
X32325000Y65980000D01*
X32325000Y65980000D02*
X32325000Y67310000D01*
D15*
X12700000Y14745005D02*
X12700000Y13475005D01*
X12065000Y14110005D02*
X13335000Y14110005D01*
X6150000Y14110005D02*
X6150000Y3810005D01*
X6150000Y3810005D02*
X19250000Y3810005D01*
X19250000Y3810005D02*
X19250000Y14110005D01*
X6150000Y14110005D02*
X6150000Y20810005D01*
X6150000Y20810005D02*
X19250000Y20810005D01*
X19250000Y20810005D02*
X19250000Y14110005D01*
X9090000Y62105000D02*
X3610000Y62105000D01*
X3610000Y62105000D02*
X3610000Y68705000D01*
X3610000Y68705000D02*
X9090000Y68705000D01*
X9090000Y68705000D02*
X9090000Y62105000D01*
X35344100Y-2275840D02*
X24345900Y-3075940D01*
X35344100Y-1475740D02*
X24345900Y-2275840D01*
X35344100Y-675640D02*
X24345900Y-1475740D01*
X35344100Y124460D02*
X24345900Y-675640D01*
X35344100Y924560D02*
X24345900Y124460D01*
X35344100Y1724660D02*
X24345900Y924560D01*
X30845760Y-13174980D02*
G75*
G03X30845760Y-13174980I-1000760J0D01*
G01*
X25044400Y-5173980D02*
X25044400Y-17175480D01*
X25044400Y-17175480D02*
X34645600Y-17175480D01*
X34645600Y-17175480D02*
X34645600Y-5173980D01*
X24345900Y2324100D02*
X24345900Y-5173980D01*
X24345900Y-5173980D02*
X35344100Y-5173980D01*
X35344100Y-5173980D02*
X35344100Y2324100D01*
X37645340Y16725900D02*
X22044660Y16725900D01*
X22044660Y16725900D02*
X22044660Y2324100D01*
X22044660Y2324100D02*
X37645340Y2324100D01*
X37645340Y2324100D02*
X37645340Y16725900D01*
X63284100Y-2275840D02*
X52285900Y-3075940D01*
X63284100Y-1475740D02*
X52285900Y-2275840D01*
X63284100Y-675640D02*
X52285900Y-1475740D01*
X63284100Y124460D02*
X52285900Y-675640D01*
X63284100Y924560D02*
X52285900Y124460D01*
X63284100Y1724660D02*
X52285900Y924560D01*
X58785760Y-13174980D02*
G75*
G03X58785760Y-13174980I-1000760J0D01*
G01*
X52984400Y-5173980D02*
X52984400Y-17175480D01*
X52984400Y-17175480D02*
X62585600Y-17175480D01*
X62585600Y-17175480D02*
X62585600Y-5173980D01*
X52285900Y2324100D02*
X52285900Y-5173980D01*
X52285900Y-5173980D02*
X63284100Y-5173980D01*
X63284100Y-5173980D02*
X63284100Y2324100D01*
X65585340Y16725900D02*
X49984660Y16725900D01*
X49984660Y16725900D02*
X49984660Y2324100D01*
X49984660Y2324100D02*
X65585340Y2324100D01*
X65585340Y2324100D02*
X65585340Y16725900D01*
X37910000Y56300000D02*
G75*
G03X37910000Y56300000I-500000J0D01*
G01*
X36560000Y57175000D02*
X47260000Y57175000D01*
X47260000Y57175000D02*
X47260000Y44425000D01*
X47260000Y44425000D02*
X36560000Y44425000D01*
X36560000Y44425000D02*
X36560000Y57175000D01*
X65850000Y56300000D02*
G75*
G03X65850000Y56300000I-500000J0D01*
G01*
X64500000Y57175000D02*
X75200000Y57175000D01*
X75200000Y57175000D02*
X75200000Y44425000D01*
X75200000Y44425000D02*
X64500000Y44425000D01*
X64500000Y44425000D02*
X64500000Y57175000D01*
D14*
X19175000Y47950000D02*
X19175000Y48880000D01*
X19175000Y51110000D02*
X19175000Y50180000D01*
X19175000Y51110000D02*
X17015000Y51110000D01*
X19175000Y47950000D02*
X17715000Y47950000D01*
X19175000Y42235000D02*
X19175000Y43165000D01*
X19175000Y45395000D02*
X19175000Y44465000D01*
X19175000Y45395000D02*
X17015000Y45395000D01*
X19175000Y42235000D02*
X17715000Y42235000D01*
X19175000Y35885000D02*
X19175000Y36815000D01*
X19175000Y39045000D02*
X19175000Y38115000D01*
X19175000Y39045000D02*
X17015000Y39045000D01*
X19175000Y35885000D02*
X17715000Y35885000D01*
X6660000Y56640000D02*
X5730000Y56640000D01*
X3500000Y56640000D02*
X4430000Y56640000D01*
X3500000Y56640000D02*
X3500000Y54480000D01*
X6660000Y56640000D02*
X6660000Y55180000D01*
X14570000Y37728000D02*
X13370000Y37728000D01*
X13370000Y39488000D02*
X14570000Y39488000D01*
X43215000Y17390000D02*
X44415000Y17390000D01*
X44415000Y15630000D02*
X43215000Y15630000D01*
X37405000Y42460000D02*
X42605000Y42460000D01*
X42605000Y38820000D02*
X37405000Y38820000D01*
X67910000Y35315000D02*
X66710000Y35315000D01*
X66710000Y37075000D02*
X67910000Y37075000D01*
X62475000Y39335000D02*
X62475000Y38135000D01*
X60715000Y38135000D02*
X60715000Y39335000D01*
X76165000Y15630000D02*
X74965000Y15630000D01*
X74965000Y17390000D02*
X76165000Y17390000D01*
X71155000Y17390000D02*
X72355000Y17390000D01*
X72355000Y15630000D02*
X71155000Y15630000D01*
X59445000Y47025000D02*
X59445000Y48225000D01*
X61205000Y48225000D02*
X61205000Y47025000D01*
X54220000Y43145000D02*
X54220000Y41945000D01*
X52460000Y41945000D02*
X52460000Y43145000D01*
X65345000Y42460000D02*
X70545000Y42460000D01*
X70545000Y38820000D02*
X65345000Y38820000D01*
D15*
X34290000Y24130000D02*
X34798000Y22860000D01*
X35262420Y23495000D02*
G75*
G03X35262420Y23495000I-718420J0D01*
G01*
X33655000Y24384000D02*
X40005000Y24384000D01*
X40005000Y24384000D02*
X40005000Y20066000D01*
X40005000Y20066000D02*
X33655000Y20066000D01*
X33655000Y20066000D02*
X33655000Y24384000D01*
X43180000Y24130000D02*
X43688000Y22860000D01*
X44152420Y23495000D02*
G75*
G03X44152420Y23495000I-718420J0D01*
G01*
X42545000Y24384000D02*
X48895000Y24384000D01*
X48895000Y24384000D02*
X48895000Y20066000D01*
X48895000Y20066000D02*
X42545000Y20066000D01*
X42545000Y20066000D02*
X42545000Y24384000D01*
X62230000Y24130000D02*
X62738000Y22860000D01*
X63202420Y23495000D02*
G75*
G03X63202420Y23495000I-718420J0D01*
G01*
X61595000Y24384000D02*
X67945000Y24384000D01*
X67945000Y24384000D02*
X67945000Y20066000D01*
X67945000Y20066000D02*
X61595000Y20066000D01*
X61595000Y20066000D02*
X61595000Y24384000D01*
X71120000Y24130000D02*
X71628000Y22860000D01*
X72092420Y23495000D02*
G75*
G03X72092420Y23495000I-718420J0D01*
G01*
X70485000Y24384000D02*
X76835000Y24384000D01*
X76835000Y24384000D02*
X76835000Y20066000D01*
X76835000Y20066000D02*
X70485000Y20066000D01*
X70485000Y20066000D02*
X70485000Y24384000D01*
D14*
X3575000Y45080000D02*
X4835000Y45080000D01*
X10395000Y45080000D02*
X9135000Y45080000D01*
X3575000Y48840000D02*
X3575000Y45080000D01*
X10395000Y51090000D02*
X10395000Y45080000D01*
D15*
X33750000Y43015000D02*
X33750000Y41815000D01*
X33750000Y41815000D02*
X32550000Y41815000D01*
X33250000Y42315000D02*
X30250000Y42315000D01*
X30250000Y42315000D02*
X30250000Y45315000D01*
X30250000Y45315000D02*
X33250000Y45315000D01*
X33250000Y45315000D02*
X33250000Y42315000D01*
X61690000Y43015000D02*
X61690000Y41815000D01*
X61690000Y41815000D02*
X60490000Y41815000D01*
X61190000Y42315000D02*
X58190000Y42315000D01*
X58190000Y42315000D02*
X58190000Y45315000D01*
X58190000Y45315000D02*
X61190000Y45315000D01*
X61190000Y45315000D02*
X61190000Y42315000D01*
X69180000Y7069000D02*
X69230000Y7069000D01*
X69180000Y11219000D02*
X69325000Y11219000D01*
X74330000Y11219000D02*
X74185000Y11219000D01*
X74330000Y7069000D02*
X74185000Y7069000D01*
X69180000Y7069000D02*
X69180000Y11219000D01*
X74330000Y7069000D02*
X74330000Y11219000D01*
X69230000Y7069000D02*
X69230000Y5669000D01*
D16*
G36*
X5775686Y26290380D02*
X5828153Y26318969D01*
X5910847Y26362253D01*
X6019881Y26418302D01*
X6151368Y26485188D01*
X6301421Y26560981D01*
X6466152Y26643752D01*
X6641674Y26731570D01*
X6824100Y26822507D01*
X7009543Y26914633D01*
X7194116Y27006019D01*
X7373931Y27094734D01*
X7545102Y27178850D01*
X7703741Y27256437D01*
X7845961Y27325565D01*
X7967875Y27384306D01*
X8065596Y27430729D01*
X8135236Y27462905D01*
X8172908Y27478905D01*
X8178540Y27480237D01*
X8184751Y27454238D01*
X8189337Y27397328D01*
X8191448Y27320924D01*
X8191500Y27306557D01*
X8191500Y27145837D01*
X7323673Y26712336D01*
X6455846Y26278836D01*
X7318381Y25844710D01*
X8180916Y25410583D01*
X8187020Y25250882D01*
X8188248Y25172432D01*
X8185903Y25111349D01*
X8180493Y25079139D01*
X8179352Y25077408D01*
X8159009Y25084526D01*
X8104756Y25108780D01*
X8020482Y25148242D01*
X7910074Y25200984D01*
X7777421Y25265077D01*
X7626412Y25338594D01*
X7460934Y25419607D01*
X7284876Y25506187D01*
X7102125Y25596407D01*
X6916570Y25688338D01*
X6732100Y25780053D01*
X6552602Y25869623D01*
X6381965Y25955120D01*
X6224077Y26034616D01*
X6082826Y26106184D01*
X5962100Y26167895D01*
X5865788Y26217821D01*
X5797777Y26254034D01*
X5761957Y26274606D01*
X5757333Y26278416D01*
X5775686Y26290380D01*
X5775686Y26290380D01*
G37*
X5775686Y26290380D02*
X5828153Y26318969D01*
X5910847Y26362253D01*
X6019881Y26418302D01*
X6151368Y26485188D01*
X6301421Y26560981D01*
X6466152Y26643752D01*
X6641674Y26731570D01*
X6824100Y26822507D01*
X7009543Y26914633D01*
X7194116Y27006019D01*
X7373931Y27094734D01*
X7545102Y27178850D01*
X7703741Y27256437D01*
X7845961Y27325565D01*
X7967875Y27384306D01*
X8065596Y27430729D01*
X8135236Y27462905D01*
X8172908Y27478905D01*
X8178540Y27480237D01*
X8184751Y27454238D01*
X8189337Y27397328D01*
X8191448Y27320924D01*
X8191500Y27306557D01*
X8191500Y27145837D01*
X7323673Y26712336D01*
X6455846Y26278836D01*
X7318381Y25844710D01*
X8180916Y25410583D01*
X8187020Y25250882D01*
X8188248Y25172432D01*
X8185903Y25111349D01*
X8180493Y25079139D01*
X8179352Y25077408D01*
X8159009Y25084526D01*
X8104756Y25108780D01*
X8020482Y25148242D01*
X7910074Y25200984D01*
X7777421Y25265077D01*
X7626412Y25338594D01*
X7460934Y25419607D01*
X7284876Y25506187D01*
X7102125Y25596407D01*
X6916570Y25688338D01*
X6732100Y25780053D01*
X6552602Y25869623D01*
X6381965Y25955120D01*
X6224077Y26034616D01*
X6082826Y26106184D01*
X5962100Y26167895D01*
X5865788Y26217821D01*
X5797777Y26254034D01*
X5761957Y26274606D01*
X5757333Y26278416D01*
X5775686Y26290380D01*
G36*
X5775898Y29190783D02*
X5833263Y29397278D01*
X5926303Y29591833D01*
X6052830Y29769525D01*
X6210656Y29925432D01*
X6334551Y30016369D01*
X6521701Y30112841D01*
X6723748Y30172716D01*
X6934232Y30195949D01*
X7146697Y30182496D01*
X7354684Y30132313D01*
X7551733Y30045354D01*
X7586836Y30025013D01*
X7712423Y29949251D01*
X7959079Y30193333D01*
X8179999Y29972413D01*
X7935917Y29725757D01*
X8011679Y29600170D01*
X8104473Y29405844D01*
X8159889Y29194323D01*
X8177072Y28969825D01*
X8168489Y28829000D01*
X8125363Y28625903D01*
X8045517Y28435758D01*
X7933551Y28262312D01*
X7794067Y28109311D01*
X7631663Y27980501D01*
X7450940Y27879627D01*
X7256499Y27810438D01*
X7052939Y27776679D01*
X6938483Y27777825D01*
X6938483Y28099671D01*
X7118425Y28110642D01*
X7289947Y28157527D01*
X7448374Y28238310D01*
X7589036Y28350978D01*
X7707259Y28493513D01*
X7798369Y28663900D01*
X7824324Y28733750D01*
X7839567Y28810609D01*
X7846700Y28919703D01*
X7846216Y29019500D01*
X7840720Y29127185D01*
X7829828Y29208389D01*
X7810408Y29278902D01*
X7780072Y29352875D01*
X7748446Y29418887D01*
X7722531Y29466300D01*
X7707792Y29485147D01*
X7707565Y29485167D01*
X7688206Y29471180D01*
X7646102Y29433503D01*
X7588260Y29378559D01*
X7545802Y29336887D01*
X7396527Y29188607D01*
X7175597Y29412315D01*
X7323715Y29559298D01*
X7386591Y29622982D01*
X7436216Y29675699D01*
X7466086Y29710399D01*
X7471833Y29719833D01*
X7454048Y29734676D01*
X7407464Y29760456D01*
X7343464Y29790994D01*
X7159891Y29852109D01*
X6976649Y29873538D01*
X6798336Y29857712D01*
X6629549Y29807061D01*
X6474886Y29724017D01*
X6338945Y29611011D01*
X6226322Y29470474D01*
X6141616Y29304837D01*
X6091670Y29129048D01*
X6079697Y28953240D01*
X6106081Y28777939D01*
X6167320Y28609967D01*
X6259912Y28456146D01*
X6380353Y28323296D01*
X6525142Y28218239D01*
X6572025Y28193538D01*
X6754792Y28126631D01*
X6938483Y28099671D01*
X6938483Y27777825D01*
X6878426Y27778427D01*
X6659938Y27818806D01*
X6455556Y27895808D01*
X6269428Y28005731D01*
X6105701Y28144873D01*
X5968522Y28309532D01*
X5862038Y28496006D01*
X5790397Y28700594D01*
X5776944Y28761667D01*
X5756396Y28977272D01*
X5775898Y29190783D01*
X5775898Y29190783D01*
G37*
X5775898Y29190783D02*
X5833263Y29397278D01*
X5926303Y29591833D01*
X6052830Y29769525D01*
X6210656Y29925432D01*
X6334551Y30016369D01*
X6521701Y30112841D01*
X6723748Y30172716D01*
X6934232Y30195949D01*
X7146697Y30182496D01*
X7354684Y30132313D01*
X7551733Y30045354D01*
X7586836Y30025013D01*
X7712423Y29949251D01*
X7959079Y30193333D01*
X8179999Y29972413D01*
X7935917Y29725757D01*
X8011679Y29600170D01*
X8104473Y29405844D01*
X8159889Y29194323D01*
X8177072Y28969825D01*
X8168489Y28829000D01*
X8125363Y28625903D01*
X8045517Y28435758D01*
X7933551Y28262312D01*
X7794067Y28109311D01*
X7631663Y27980501D01*
X7450940Y27879627D01*
X7256499Y27810438D01*
X7052939Y27776679D01*
X6938483Y27777825D01*
X6938483Y28099671D01*
X7118425Y28110642D01*
X7289947Y28157527D01*
X7448374Y28238310D01*
X7589036Y28350978D01*
X7707259Y28493513D01*
X7798369Y28663900D01*
X7824324Y28733750D01*
X7839567Y28810609D01*
X7846700Y28919703D01*
X7846216Y29019500D01*
X7840720Y29127185D01*
X7829828Y29208389D01*
X7810408Y29278902D01*
X7780072Y29352875D01*
X7748446Y29418887D01*
X7722531Y29466300D01*
X7707792Y29485147D01*
X7707565Y29485167D01*
X7688206Y29471180D01*
X7646102Y29433503D01*
X7588260Y29378559D01*
X7545802Y29336887D01*
X7396527Y29188607D01*
X7175597Y29412315D01*
X7323715Y29559298D01*
X7386591Y29622982D01*
X7436216Y29675699D01*
X7466086Y29710399D01*
X7471833Y29719833D01*
X7454048Y29734676D01*
X7407464Y29760456D01*
X7343464Y29790994D01*
X7159891Y29852109D01*
X6976649Y29873538D01*
X6798336Y29857712D01*
X6629549Y29807061D01*
X6474886Y29724017D01*
X6338945Y29611011D01*
X6226322Y29470474D01*
X6141616Y29304837D01*
X6091670Y29129048D01*
X6079697Y28953240D01*
X6106081Y28777939D01*
X6167320Y28609967D01*
X6259912Y28456146D01*
X6380353Y28323296D01*
X6525142Y28218239D01*
X6572025Y28193538D01*
X6754792Y28126631D01*
X6938483Y28099671D01*
X6938483Y27777825D01*
X6878426Y27778427D01*
X6659938Y27818806D01*
X6455556Y27895808D01*
X6269428Y28005731D01*
X6105701Y28144873D01*
X5968522Y28309532D01*
X5862038Y28496006D01*
X5790397Y28700594D01*
X5776944Y28761667D01*
X5756396Y28977272D01*
X5775898Y29190783D01*
G36*
X6588125Y30801999D02*
X6807524Y30803822D01*
X6988993Y30805823D01*
X7136930Y30808654D01*
X7255735Y30812969D01*
X7349807Y30819421D01*
X7423548Y30828663D01*
X7481354Y30841348D01*
X7527628Y30858129D01*
X7566767Y30879660D01*
X7603172Y30906593D01*
X7641243Y30939582D01*
X7666126Y30962023D01*
X7765793Y31078463D01*
X7827494Y31213500D01*
X7850841Y31366232D01*
X7851016Y31390167D01*
X7846374Y31474399D01*
X7835784Y31551671D01*
X7824764Y31595146D01*
X7757122Y31722851D01*
X7658701Y31834345D01*
X7555215Y31908750D01*
X7440083Y31972250D01*
X6598708Y31978453D01*
X5757333Y31984657D01*
X5757333Y32302100D01*
X7503583Y32289750D01*
X7646962Y32221834D01*
X7812130Y32121438D01*
X7950286Y31992238D01*
X8058531Y31839690D01*
X8133964Y31669250D01*
X8173688Y31486375D01*
X8174802Y31296519D01*
X8167663Y31242000D01*
X8119005Y31069302D01*
X8034064Y30908586D01*
X7918437Y30765647D01*
X7777722Y30646283D01*
X7617514Y30556289D01*
X7454916Y30503818D01*
X7398306Y30496777D01*
X7301435Y30490893D01*
X7166360Y30486219D01*
X6995140Y30482809D01*
X6789831Y30480718D01*
X6552491Y30480000D01*
X5757333Y30480000D01*
X5757333Y30795238D01*
X6588125Y30801999D01*
X6588125Y30801999D01*
G37*
X6588125Y30801999D02*
X6807524Y30803822D01*
X6988993Y30805823D01*
X7136930Y30808654D01*
X7255735Y30812969D01*
X7349807Y30819421D01*
X7423548Y30828663D01*
X7481354Y30841348D01*
X7527628Y30858129D01*
X7566767Y30879660D01*
X7603172Y30906593D01*
X7641243Y30939582D01*
X7666126Y30962023D01*
X7765793Y31078463D01*
X7827494Y31213500D01*
X7850841Y31366232D01*
X7851016Y31390167D01*
X7846374Y31474399D01*
X7835784Y31551671D01*
X7824764Y31595146D01*
X7757122Y31722851D01*
X7658701Y31834345D01*
X7555215Y31908750D01*
X7440083Y31972250D01*
X6598708Y31978453D01*
X5757333Y31984657D01*
X5757333Y32302100D01*
X7503583Y32289750D01*
X7646962Y32221834D01*
X7812130Y32121438D01*
X7950286Y31992238D01*
X8058531Y31839690D01*
X8133964Y31669250D01*
X8173688Y31486375D01*
X8174802Y31296519D01*
X8167663Y31242000D01*
X8119005Y31069302D01*
X8034064Y30908586D01*
X7918437Y30765647D01*
X7777722Y30646283D01*
X7617514Y30556289D01*
X7454916Y30503818D01*
X7398306Y30496777D01*
X7301435Y30490893D01*
X7166360Y30486219D01*
X6995140Y30482809D01*
X6789831Y30480718D01*
X6552491Y30480000D01*
X5757333Y30480000D01*
X5757333Y30795238D01*
X6588125Y30801999D01*
G36*
X6958542Y34403771D02*
X7169209Y34509036D01*
X7368578Y34608499D01*
X7553447Y34700572D01*
X7720611Y34783666D01*
X7866867Y34856195D01*
X7989012Y34916569D01*
X8083842Y34963201D01*
X8148153Y34994503D01*
X8178741Y35008886D01*
X8180843Y35009667D01*
X8185792Y34990171D01*
X8189518Y34938364D01*
X8191392Y34864260D01*
X8191500Y34840299D01*
X8191500Y34670931D01*
X7334250Y34242462D01*
X7158070Y34154173D01*
X6994088Y34071549D01*
X6846077Y33996525D01*
X6717810Y33931033D01*
X6613062Y33877008D01*
X6535606Y33836383D01*
X6489214Y33811093D01*
X6477000Y33803167D01*
X6495325Y33791782D01*
X6547787Y33763490D01*
X6630611Y33720223D01*
X6740024Y33663917D01*
X6872252Y33596504D01*
X7023523Y33519918D01*
X7190062Y33436093D01*
X7334250Y33363871D01*
X8191500Y32935402D01*
X8191500Y32766034D01*
X8189298Y32674304D01*
X8182205Y32620045D01*
X8169488Y32598597D01*
X8165041Y32597826D01*
X8141946Y32607284D01*
X8084318Y32634172D01*
X7995433Y32676877D01*
X7878568Y32733791D01*
X7737000Y32803303D01*
X7574007Y32883803D01*
X7392865Y32973681D01*
X7196852Y33071326D01*
X6989243Y33175129D01*
X6942740Y33198430D01*
X5746898Y33797875D01*
X6958542Y34403771D01*
X6958542Y34403771D01*
G37*
X6958542Y34403771D02*
X7169209Y34509036D01*
X7368578Y34608499D01*
X7553447Y34700572D01*
X7720611Y34783666D01*
X7866867Y34856195D01*
X7989012Y34916569D01*
X8083842Y34963201D01*
X8148153Y34994503D01*
X8178741Y35008886D01*
X8180843Y35009667D01*
X8185792Y34990171D01*
X8189518Y34938364D01*
X8191392Y34864260D01*
X8191500Y34840299D01*
X8191500Y34670931D01*
X7334250Y34242462D01*
X7158070Y34154173D01*
X6994088Y34071549D01*
X6846077Y33996525D01*
X6717810Y33931033D01*
X6613062Y33877008D01*
X6535606Y33836383D01*
X6489214Y33811093D01*
X6477000Y33803167D01*
X6495325Y33791782D01*
X6547787Y33763490D01*
X6630611Y33720223D01*
X6740024Y33663917D01*
X6872252Y33596504D01*
X7023523Y33519918D01*
X7190062Y33436093D01*
X7334250Y33363871D01*
X8191500Y32935402D01*
X8191500Y32766034D01*
X8189298Y32674304D01*
X8182205Y32620045D01*
X8169488Y32598597D01*
X8165041Y32597826D01*
X8141946Y32607284D01*
X8084318Y32634172D01*
X7995433Y32676877D01*
X7878568Y32733791D01*
X7737000Y32803303D01*
X7574007Y32883803D01*
X7392865Y32973681D01*
X7196852Y33071326D01*
X6989243Y33175129D01*
X6942740Y33198430D01*
X5746898Y33797875D01*
X6958542Y34403771D01*
G36*
X5757707Y35996474D02*
X5759405Y36166047D01*
X5763288Y36303099D01*
X5770220Y36412535D01*
X5781063Y36499259D01*
X5796679Y36568177D01*
X5817931Y36624193D01*
X5845683Y36672213D01*
X5880795Y36717141D01*
X5924131Y36763881D01*
X5929693Y36769608D01*
X6056660Y36872608D01*
X6195882Y36937326D01*
X6341732Y36963747D01*
X6488583Y36951854D01*
X6630808Y36901631D01*
X6762782Y36813062D01*
X6806387Y36772106D01*
X6853957Y36721174D01*
X6891453Y36672788D01*
X6920183Y36621062D01*
X6941454Y36560111D01*
X6956572Y36484052D01*
X6966847Y36386999D01*
X6973583Y36263067D01*
X6978090Y36106371D01*
X6980359Y35988951D01*
X6989333Y35475985D01*
X7585124Y35470367D01*
X8180916Y35464750D01*
X8187047Y35315658D01*
X8188106Y35239717D01*
X8185089Y35181159D01*
X8178647Y35152097D01*
X8178228Y35151617D01*
X8154297Y35148148D01*
X8092929Y35144963D01*
X7999019Y35142160D01*
X7877461Y35139833D01*
X7733151Y35138078D01*
X7570984Y35136993D01*
X7415388Y35136667D01*
X6667500Y35136667D01*
X6667500Y35717708D01*
X6666852Y35920262D01*
X6664521Y36085138D01*
X6659929Y36216975D01*
X6652494Y36320412D01*
X6641636Y36400091D01*
X6626776Y36460652D01*
X6607334Y36506733D01*
X6582729Y36542976D01*
X6561517Y36565559D01*
X6479746Y36616797D01*
X6381552Y36638106D01*
X6281885Y36627978D01*
X6217404Y36600249D01*
X6182391Y36577426D01*
X6154172Y36553672D01*
X6131926Y36524338D01*
X6114833Y36484775D01*
X6102070Y36430336D01*
X6092818Y36356370D01*
X6086256Y36258229D01*
X6081562Y36131265D01*
X6077916Y35970827D01*
X6074833Y35792833D01*
X6064250Y35147250D01*
X5910791Y35141031D01*
X5757333Y35134812D01*
X5757333Y35789475D01*
X5757707Y35996474D01*
X5757707Y35996474D01*
G37*
X5757707Y35996474D02*
X5759405Y36166047D01*
X5763288Y36303099D01*
X5770220Y36412535D01*
X5781063Y36499259D01*
X5796679Y36568177D01*
X5817931Y36624193D01*
X5845683Y36672213D01*
X5880795Y36717141D01*
X5924131Y36763881D01*
X5929693Y36769608D01*
X6056660Y36872608D01*
X6195882Y36937326D01*
X6341732Y36963747D01*
X6488583Y36951854D01*
X6630808Y36901631D01*
X6762782Y36813062D01*
X6806387Y36772106D01*
X6853957Y36721174D01*
X6891453Y36672788D01*
X6920183Y36621062D01*
X6941454Y36560111D01*
X6956572Y36484052D01*
X6966847Y36386999D01*
X6973583Y36263067D01*
X6978090Y36106371D01*
X6980359Y35988951D01*
X6989333Y35475985D01*
X7585124Y35470367D01*
X8180916Y35464750D01*
X8187047Y35315658D01*
X8188106Y35239717D01*
X8185089Y35181159D01*
X8178647Y35152097D01*
X8178228Y35151617D01*
X8154297Y35148148D01*
X8092929Y35144963D01*
X7999019Y35142160D01*
X7877461Y35139833D01*
X7733151Y35138078D01*
X7570984Y35136993D01*
X7415388Y35136667D01*
X6667500Y35136667D01*
X6667500Y35717708D01*
X6666852Y35920262D01*
X6664521Y36085138D01*
X6659929Y36216975D01*
X6652494Y36320412D01*
X6641636Y36400091D01*
X6626776Y36460652D01*
X6607334Y36506733D01*
X6582729Y36542976D01*
X6561517Y36565559D01*
X6479746Y36616797D01*
X6381552Y36638106D01*
X6281885Y36627978D01*
X6217404Y36600249D01*
X6182391Y36577426D01*
X6154172Y36553672D01*
X6131926Y36524338D01*
X6114833Y36484775D01*
X6102070Y36430336D01*
X6092818Y36356370D01*
X6086256Y36258229D01*
X6081562Y36131265D01*
X6077916Y35970827D01*
X6074833Y35792833D01*
X6064250Y35147250D01*
X5910791Y35141031D01*
X5757333Y35134812D01*
X5757333Y35789475D01*
X5757707Y35996474D01*
G36*
X8191500Y37570833D02*
X8191500Y37253333D01*
X5757333Y37253333D01*
X5757333Y37570833D01*
X8191500Y37570833D01*
X8191500Y37570833D01*
G37*
X8191500Y37570833D02*
X8191500Y37253333D01*
X5757333Y37253333D01*
X5757333Y37570833D01*
X8191500Y37570833D01*
G36*
X5921375Y39683135D02*
X6074833Y39689354D01*
X6074833Y39333041D01*
X6078386Y39134592D01*
X6090297Y38971109D01*
X6112443Y38835721D01*
X6146701Y38721560D01*
X6194947Y38621757D01*
X6259059Y38529441D01*
X6310790Y38469479D01*
X6451658Y38342325D01*
X6605754Y38253892D01*
X6776874Y38202662D01*
X6968814Y38187116D01*
X7013649Y38188309D01*
X7119896Y38195423D01*
X7201208Y38208422D01*
X7274934Y38231192D01*
X7349929Y38263618D01*
X7511619Y38362283D01*
X7648093Y38494027D01*
X7756438Y38655945D01*
X7769868Y38682219D01*
X7842250Y38829133D01*
X7863416Y39676917D01*
X8180916Y39676917D01*
X8183787Y39359417D01*
X8183659Y39235303D01*
X8181321Y39114705D01*
X8177148Y39009397D01*
X8171515Y38931153D01*
X8169623Y38914917D01*
X8119948Y38698671D01*
X8033058Y38497429D01*
X7912713Y38315551D01*
X7762673Y38157394D01*
X7586695Y38027319D01*
X7388540Y37929683D01*
X7291916Y37897137D01*
X7162222Y37871651D01*
X7011014Y37860875D01*
X6855936Y37864806D01*
X6714628Y37883438D01*
X6658023Y37897264D01*
X6445846Y37980587D01*
X6254306Y38097907D01*
X6087577Y38245297D01*
X5949834Y38418829D01*
X5845252Y38614575D01*
X5816900Y38688635D01*
X5799972Y38740885D01*
X5787449Y38790559D01*
X5778676Y38845229D01*
X5772998Y38912468D01*
X5769757Y38999847D01*
X5768300Y39114937D01*
X5767969Y39253583D01*
X5767916Y39676917D01*
X5921375Y39683135D01*
X5921375Y39683135D01*
G37*
X5921375Y39683135D02*
X6074833Y39689354D01*
X6074833Y39333041D01*
X6078386Y39134592D01*
X6090297Y38971109D01*
X6112443Y38835721D01*
X6146701Y38721560D01*
X6194947Y38621757D01*
X6259059Y38529441D01*
X6310790Y38469479D01*
X6451658Y38342325D01*
X6605754Y38253892D01*
X6776874Y38202662D01*
X6968814Y38187116D01*
X7013649Y38188309D01*
X7119896Y38195423D01*
X7201208Y38208422D01*
X7274934Y38231192D01*
X7349929Y38263618D01*
X7511619Y38362283D01*
X7648093Y38494027D01*
X7756438Y38655945D01*
X7769868Y38682219D01*
X7842250Y38829133D01*
X7863416Y39676917D01*
X8180916Y39676917D01*
X8183787Y39359417D01*
X8183659Y39235303D01*
X8181321Y39114705D01*
X8177148Y39009397D01*
X8171515Y38931153D01*
X8169623Y38914917D01*
X8119948Y38698671D01*
X8033058Y38497429D01*
X7912713Y38315551D01*
X7762673Y38157394D01*
X7586695Y38027319D01*
X7388540Y37929683D01*
X7291916Y37897137D01*
X7162222Y37871651D01*
X7011014Y37860875D01*
X6855936Y37864806D01*
X6714628Y37883438D01*
X6658023Y37897264D01*
X6445846Y37980587D01*
X6254306Y38097907D01*
X6087577Y38245297D01*
X5949834Y38418829D01*
X5845252Y38614575D01*
X5816900Y38688635D01*
X5799972Y38740885D01*
X5787449Y38790559D01*
X5778676Y38845229D01*
X5772998Y38912468D01*
X5769757Y38999847D01*
X5768300Y39114937D01*
X5767969Y39253583D01*
X5767916Y39676917D01*
X5921375Y39683135D01*
D14*
X56205000Y60200000D02*
X57135000Y60200000D01*
X59365000Y60200000D02*
X58435000Y60200000D01*
X59365000Y60200000D02*
X59365000Y62360000D01*
X56205000Y60200000D02*
X56205000Y61660000D01*
X28265000Y55755000D02*
X29195000Y55755000D01*
X31425000Y55755000D02*
X30495000Y55755000D01*
X31425000Y55755000D02*
X31425000Y57915000D01*
X28265000Y55755000D02*
X28265000Y57215000D01*
X56205000Y55755000D02*
X57135000Y55755000D01*
X59365000Y55755000D02*
X58435000Y55755000D01*
X59365000Y55755000D02*
X59365000Y57915000D01*
X56205000Y55755000D02*
X56205000Y57215000D01*
X34535000Y61560000D02*
X34535000Y60360000D01*
X32775000Y60360000D02*
X32775000Y61560000D01*
X52315000Y61560000D02*
X52315000Y60360000D01*
X50555000Y60360000D02*
X50555000Y61560000D01*
X37710000Y61560000D02*
X37710000Y60360000D01*
X35950000Y60360000D02*
X35950000Y61560000D01*
X54855000Y61560000D02*
X54855000Y60360000D01*
X53095000Y60360000D02*
X53095000Y61560000D01*
D15*
X29749762Y62698381D02*
X29654524Y62746000D01*
X29559286Y62841238D01*
X29416429Y62984095D01*
X29321190Y63031714D01*
X29225952Y63031714D01*
X29273571Y62793619D02*
X29178333Y62841238D01*
X29083095Y62936476D01*
X29035476Y63126952D01*
X29035476Y63460286D01*
X29083095Y63650762D01*
X29178333Y63746000D01*
X29273571Y63793619D01*
X29464048Y63793619D01*
X29559286Y63746000D01*
X29654524Y63650762D01*
X29702143Y63460286D01*
X29702143Y63126952D01*
X29654524Y62936476D01*
X29559286Y62841238D01*
X29464048Y62793619D01*
X29273571Y62793619D01*
X30606905Y63793619D02*
X30130714Y63793619D01*
X30083095Y63317429D01*
X30130714Y63365048D01*
X30225952Y63412667D01*
X30464048Y63412667D01*
X30559286Y63365048D01*
X30606905Y63317429D01*
X30654524Y63222190D01*
X30654524Y62984095D01*
X30606905Y62888857D01*
X30559286Y62841238D01*
X30464048Y62793619D01*
X30225952Y62793619D01*
X30130714Y62841238D01*
X30083095Y62888857D01*
X8088334Y57935857D02*
X8040715Y57888238D01*
X7897858Y57840619D01*
X7802620Y57840619D01*
X7659762Y57888238D01*
X7564524Y57983476D01*
X7516905Y58078714D01*
X7469286Y58269190D01*
X7469286Y58412048D01*
X7516905Y58602524D01*
X7564524Y58697762D01*
X7659762Y58793000D01*
X7802620Y58840619D01*
X7897858Y58840619D01*
X8040715Y58793000D01*
X8088334Y58745381D01*
X8945477Y58507286D02*
X8945477Y57840619D01*
X8707381Y58888238D02*
X8469286Y58173952D01*
X9088334Y58173952D01*
X29741905Y40568619D02*
X29741905Y41568619D01*
X29980000Y41568619D01*
X30122858Y41521000D01*
X30218096Y41425762D01*
X30265715Y41330524D01*
X30313334Y41140048D01*
X30313334Y40997190D01*
X30265715Y40806714D01*
X30218096Y40711476D01*
X30122858Y40616238D01*
X29980000Y40568619D01*
X29741905Y40568619D01*
X30646667Y41568619D02*
X31265715Y41568619D01*
X30932381Y41187667D01*
X31075239Y41187667D01*
X31170477Y41140048D01*
X31218096Y41092429D01*
X31265715Y40997190D01*
X31265715Y40759095D01*
X31218096Y40663857D01*
X31170477Y40616238D01*
X31075239Y40568619D01*
X30789524Y40568619D01*
X30694286Y40616238D01*
X30646667Y40663857D01*
X20788334Y67333857D02*
X20740715Y67286238D01*
X20597858Y67238619D01*
X20502620Y67238619D01*
X20359762Y67286238D01*
X20264524Y67381476D01*
X20216905Y67476714D01*
X20169286Y67667190D01*
X20169286Y67810048D01*
X20216905Y68000524D01*
X20264524Y68095762D01*
X20359762Y68191000D01*
X20502620Y68238619D01*
X20597858Y68238619D01*
X20740715Y68191000D01*
X20788334Y68143381D01*
X21740715Y67238619D02*
X21169286Y67238619D01*
X21455000Y67238619D02*
X21455000Y68238619D01*
X21359762Y68095762D01*
X21264524Y68000524D01*
X21169286Y67952905D01*
X15708334Y63015857D02*
X15660715Y62968238D01*
X15517858Y62920619D01*
X15422620Y62920619D01*
X15279762Y62968238D01*
X15184524Y63063476D01*
X15136905Y63158714D01*
X15089286Y63349190D01*
X15089286Y63492048D01*
X15136905Y63682524D01*
X15184524Y63777762D01*
X15279762Y63873000D01*
X15422620Y63920619D01*
X15517858Y63920619D01*
X15660715Y63873000D01*
X15708334Y63825381D01*
X16041667Y63920619D02*
X16660715Y63920619D01*
X16327381Y63539667D01*
X16470239Y63539667D01*
X16565477Y63492048D01*
X16613096Y63444429D01*
X16660715Y63349190D01*
X16660715Y63111095D01*
X16613096Y63015857D01*
X16565477Y62968238D01*
X16470239Y62920619D01*
X16184524Y62920619D01*
X16089286Y62968238D01*
X16041667Y63015857D01*
X5865834Y52347857D02*
X5818215Y52300238D01*
X5675358Y52252619D01*
X5580120Y52252619D01*
X5437262Y52300238D01*
X5342024Y52395476D01*
X5294405Y52490714D01*
X5246786Y52681190D01*
X5246786Y52824048D01*
X5294405Y53014524D01*
X5342024Y53109762D01*
X5437262Y53205000D01*
X5580120Y53252619D01*
X5675358Y53252619D01*
X5818215Y53205000D01*
X5865834Y53157381D01*
X6770596Y53252619D02*
X6294405Y53252619D01*
X6246786Y52776429D01*
X6294405Y52824048D01*
X6389643Y52871667D01*
X6627739Y52871667D01*
X6722977Y52824048D01*
X6770596Y52776429D01*
X6818215Y52681190D01*
X6818215Y52443095D01*
X6770596Y52347857D01*
X6722977Y52300238D01*
X6627739Y52252619D01*
X6389643Y52252619D01*
X6294405Y52300238D01*
X6246786Y52347857D01*
X16851334Y23772857D02*
X16803715Y23725238D01*
X16660858Y23677619D01*
X16565620Y23677619D01*
X16422762Y23725238D01*
X16327524Y23820476D01*
X16279905Y23915714D01*
X16232286Y24106190D01*
X16232286Y24249048D01*
X16279905Y24439524D01*
X16327524Y24534762D01*
X16422762Y24630000D01*
X16565620Y24677619D01*
X16660858Y24677619D01*
X16803715Y24630000D01*
X16851334Y24582381D01*
X17708477Y24677619D02*
X17518000Y24677619D01*
X17422762Y24630000D01*
X17375143Y24582381D01*
X17279905Y24439524D01*
X17232286Y24249048D01*
X17232286Y23868095D01*
X17279905Y23772857D01*
X17327524Y23725238D01*
X17422762Y23677619D01*
X17613239Y23677619D01*
X17708477Y23725238D01*
X17756096Y23772857D01*
X17803715Y23868095D01*
X17803715Y24106190D01*
X17756096Y24201429D01*
X17708477Y24249048D01*
X17613239Y24296667D01*
X17422762Y24296667D01*
X17327524Y24249048D01*
X17279905Y24201429D01*
X17232286Y24106190D01*
X27138334Y37361857D02*
X27090715Y37314238D01*
X26947858Y37266619D01*
X26852620Y37266619D01*
X26709762Y37314238D01*
X26614524Y37409476D01*
X26566905Y37504714D01*
X26519286Y37695190D01*
X26519286Y37838048D01*
X26566905Y38028524D01*
X26614524Y38123762D01*
X26709762Y38219000D01*
X26852620Y38266619D01*
X26947858Y38266619D01*
X27090715Y38219000D01*
X27138334Y38171381D01*
X27471667Y38266619D02*
X28138334Y38266619D01*
X27709762Y37266619D01*
X24598334Y32535857D02*
X24550715Y32488238D01*
X24407858Y32440619D01*
X24312620Y32440619D01*
X24169762Y32488238D01*
X24074524Y32583476D01*
X24026905Y32678714D01*
X23979286Y32869190D01*
X23979286Y33012048D01*
X24026905Y33202524D01*
X24074524Y33297762D01*
X24169762Y33393000D01*
X24312620Y33440619D01*
X24407858Y33440619D01*
X24550715Y33393000D01*
X24598334Y33345381D01*
X25169762Y33012048D02*
X25074524Y33059667D01*
X25026905Y33107286D01*
X24979286Y33202524D01*
X24979286Y33250143D01*
X25026905Y33345381D01*
X25074524Y33393000D01*
X25169762Y33440619D01*
X25360239Y33440619D01*
X25455477Y33393000D01*
X25503096Y33345381D01*
X25550715Y33250143D01*
X25550715Y33202524D01*
X25503096Y33107286D01*
X25455477Y33059667D01*
X25360239Y33012048D01*
X25169762Y33012048D01*
X25074524Y32964429D01*
X25026905Y32916810D01*
X24979286Y32821571D01*
X24979286Y32631095D01*
X25026905Y32535857D01*
X25074524Y32488238D01*
X25169762Y32440619D01*
X25360239Y32440619D01*
X25455477Y32488238D01*
X25503096Y32535857D01*
X25550715Y32631095D01*
X25550715Y32821571D01*
X25503096Y32916810D01*
X25455477Y32964429D01*
X25360239Y33012048D01*
X35726643Y26503334D02*
X35774262Y26455715D01*
X35821881Y26312858D01*
X35821881Y26217620D01*
X35774262Y26074762D01*
X35679024Y25979524D01*
X35583786Y25931905D01*
X35393310Y25884286D01*
X35250452Y25884286D01*
X35059976Y25931905D01*
X34964738Y25979524D01*
X34869500Y26074762D01*
X34821881Y26217620D01*
X34821881Y26312858D01*
X34869500Y26455715D01*
X34917119Y26503334D01*
X35821881Y26979524D02*
X35821881Y27170000D01*
X35774262Y27265239D01*
X35726643Y27312858D01*
X35583786Y27408096D01*
X35393310Y27455715D01*
X35012357Y27455715D01*
X34917119Y27408096D01*
X34869500Y27360477D01*
X34821881Y27265239D01*
X34821881Y27074762D01*
X34869500Y26979524D01*
X34917119Y26931905D01*
X35012357Y26884286D01*
X35250452Y26884286D01*
X35345690Y26931905D01*
X35393310Y26979524D01*
X35440929Y27074762D01*
X35440929Y27265239D01*
X35393310Y27360477D01*
X35345690Y27408096D01*
X35250452Y27455715D01*
X43807143Y37615857D02*
X43759524Y37568238D01*
X43616667Y37520619D01*
X43521429Y37520619D01*
X43378571Y37568238D01*
X43283333Y37663476D01*
X43235714Y37758714D01*
X43188095Y37949190D01*
X43188095Y38092048D01*
X43235714Y38282524D01*
X43283333Y38377762D01*
X43378571Y38473000D01*
X43521429Y38520619D01*
X43616667Y38520619D01*
X43759524Y38473000D01*
X43807143Y38425381D01*
X44759524Y37520619D02*
X44188095Y37520619D01*
X44473809Y37520619D02*
X44473809Y38520619D01*
X44378571Y38377762D01*
X44283333Y38282524D01*
X44188095Y38234905D01*
X45378571Y38520619D02*
X45473810Y38520619D01*
X45569048Y38473000D01*
X45616667Y38425381D01*
X45664286Y38330143D01*
X45711905Y38139667D01*
X45711905Y37901571D01*
X45664286Y37711095D01*
X45616667Y37615857D01*
X45569048Y37568238D01*
X45473810Y37520619D01*
X45378571Y37520619D01*
X45283333Y37568238D01*
X45235714Y37615857D01*
X45188095Y37711095D01*
X45140476Y37901571D01*
X45140476Y38139667D01*
X45188095Y38330143D01*
X45235714Y38425381D01*
X45283333Y38473000D01*
X45378571Y38520619D01*
X35425143Y36980857D02*
X35377524Y36933238D01*
X35234667Y36885619D01*
X35139429Y36885619D01*
X34996571Y36933238D01*
X34901333Y37028476D01*
X34853714Y37123714D01*
X34806095Y37314190D01*
X34806095Y37457048D01*
X34853714Y37647524D01*
X34901333Y37742762D01*
X34996571Y37838000D01*
X35139429Y37885619D01*
X35234667Y37885619D01*
X35377524Y37838000D01*
X35425143Y37790381D01*
X36377524Y36885619D02*
X35806095Y36885619D01*
X36091809Y36885619D02*
X36091809Y37885619D01*
X35996571Y37742762D01*
X35901333Y37647524D01*
X35806095Y37599905D01*
X37329905Y36885619D02*
X36758476Y36885619D01*
X37044190Y36885619D02*
X37044190Y37885619D01*
X36948952Y37742762D01*
X36853714Y37647524D01*
X36758476Y37599905D01*
X38584143Y26662143D02*
X38631762Y26614524D01*
X38679381Y26471667D01*
X38679381Y26376429D01*
X38631762Y26233571D01*
X38536524Y26138333D01*
X38441286Y26090714D01*
X38250810Y26043095D01*
X38107952Y26043095D01*
X37917476Y26090714D01*
X37822238Y26138333D01*
X37727000Y26233571D01*
X37679381Y26376429D01*
X37679381Y26471667D01*
X37727000Y26614524D01*
X37774619Y26662143D01*
X38679381Y27614524D02*
X38679381Y27043095D01*
X38679381Y27328809D02*
X37679381Y27328809D01*
X37822238Y27233571D01*
X37917476Y27138333D01*
X37965095Y27043095D01*
X37774619Y27995476D02*
X37727000Y28043095D01*
X37679381Y28138333D01*
X37679381Y28376429D01*
X37727000Y28471667D01*
X37774619Y28519286D01*
X37869857Y28566905D01*
X37965095Y28566905D01*
X38107952Y28519286D01*
X38679381Y27947857D01*
X38679381Y28566905D01*
X47617143Y29995857D02*
X47569524Y29948238D01*
X47426667Y29900619D01*
X47331429Y29900619D01*
X47188571Y29948238D01*
X47093333Y30043476D01*
X47045714Y30138714D01*
X46998095Y30329190D01*
X46998095Y30472048D01*
X47045714Y30662524D01*
X47093333Y30757762D01*
X47188571Y30853000D01*
X47331429Y30900619D01*
X47426667Y30900619D01*
X47569524Y30853000D01*
X47617143Y30805381D01*
X48569524Y29900619D02*
X47998095Y29900619D01*
X48283809Y29900619D02*
X48283809Y30900619D01*
X48188571Y30757762D01*
X48093333Y30662524D01*
X47998095Y30614905D01*
X48902857Y30900619D02*
X49521905Y30900619D01*
X49188571Y30519667D01*
X49331429Y30519667D01*
X49426667Y30472048D01*
X49474286Y30424429D01*
X49521905Y30329190D01*
X49521905Y30091095D01*
X49474286Y29995857D01*
X49426667Y29948238D01*
X49331429Y29900619D01*
X49045714Y29900619D01*
X48950476Y29948238D01*
X48902857Y29995857D01*
X27297143Y42695857D02*
X27249524Y42648238D01*
X27106667Y42600619D01*
X27011429Y42600619D01*
X26868571Y42648238D01*
X26773333Y42743476D01*
X26725714Y42838714D01*
X26678095Y43029190D01*
X26678095Y43172048D01*
X26725714Y43362524D01*
X26773333Y43457762D01*
X26868571Y43553000D01*
X27011429Y43600619D01*
X27106667Y43600619D01*
X27249524Y43553000D01*
X27297143Y43505381D01*
X28249524Y42600619D02*
X27678095Y42600619D01*
X27963809Y42600619D02*
X27963809Y43600619D01*
X27868571Y43457762D01*
X27773333Y43362524D01*
X27678095Y43314905D01*
X29106667Y43267286D02*
X29106667Y42600619D01*
X28868571Y43648238D02*
X28630476Y42933952D01*
X29249524Y42933952D01*
X28567143Y49680857D02*
X28519524Y49633238D01*
X28376667Y49585619D01*
X28281429Y49585619D01*
X28138571Y49633238D01*
X28043333Y49728476D01*
X27995714Y49823714D01*
X27948095Y50014190D01*
X27948095Y50157048D01*
X27995714Y50347524D01*
X28043333Y50442762D01*
X28138571Y50538000D01*
X28281429Y50585619D01*
X28376667Y50585619D01*
X28519524Y50538000D01*
X28567143Y50490381D01*
X29519524Y49585619D02*
X28948095Y49585619D01*
X29233809Y49585619D02*
X29233809Y50585619D01*
X29138571Y50442762D01*
X29043333Y50347524D01*
X28948095Y50299905D01*
X30424286Y50585619D02*
X29948095Y50585619D01*
X29900476Y50109429D01*
X29948095Y50157048D01*
X30043333Y50204667D01*
X30281429Y50204667D01*
X30376667Y50157048D01*
X30424286Y50109429D01*
X30471905Y50014190D01*
X30471905Y49776095D01*
X30424286Y49680857D01*
X30376667Y49633238D01*
X30281429Y49585619D01*
X30043333Y49585619D01*
X29948095Y49633238D01*
X29900476Y49680857D01*
X29202143Y53300357D02*
X29154524Y53252738D01*
X29011667Y53205119D01*
X28916429Y53205119D01*
X28773571Y53252738D01*
X28678333Y53347976D01*
X28630714Y53443214D01*
X28583095Y53633690D01*
X28583095Y53776548D01*
X28630714Y53967024D01*
X28678333Y54062262D01*
X28773571Y54157500D01*
X28916429Y54205119D01*
X29011667Y54205119D01*
X29154524Y54157500D01*
X29202143Y54109881D01*
X30154524Y53205119D02*
X29583095Y53205119D01*
X29868809Y53205119D02*
X29868809Y54205119D01*
X29773571Y54062262D01*
X29678333Y53967024D01*
X29583095Y53919405D01*
X31011667Y54205119D02*
X30821190Y54205119D01*
X30725952Y54157500D01*
X30678333Y54109881D01*
X30583095Y53967024D01*
X30535476Y53776548D01*
X30535476Y53395595D01*
X30583095Y53300357D01*
X30630714Y53252738D01*
X30725952Y53205119D01*
X30916429Y53205119D01*
X31011667Y53252738D01*
X31059286Y53300357D01*
X31106905Y53395595D01*
X31106905Y53633690D01*
X31059286Y53728929D01*
X31011667Y53776548D01*
X30916429Y53824167D01*
X30725952Y53824167D01*
X30630714Y53776548D01*
X30583095Y53728929D01*
X30535476Y53633690D01*
X40441643Y2817857D02*
X40394024Y2770238D01*
X40251167Y2722619D01*
X40155929Y2722619D01*
X40013071Y2770238D01*
X39917833Y2865476D01*
X39870214Y2960714D01*
X39822595Y3151190D01*
X39822595Y3294048D01*
X39870214Y3484524D01*
X39917833Y3579762D01*
X40013071Y3675000D01*
X40155929Y3722619D01*
X40251167Y3722619D01*
X40394024Y3675000D01*
X40441643Y3627381D01*
X41394024Y2722619D02*
X40822595Y2722619D01*
X41108309Y2722619D02*
X41108309Y3722619D01*
X41013071Y3579762D01*
X40917833Y3484524D01*
X40822595Y3436905D01*
X41727357Y3722619D02*
X42394024Y3722619D01*
X41965452Y2722619D01*
X33012143Y55395857D02*
X32964524Y55348238D01*
X32821667Y55300619D01*
X32726429Y55300619D01*
X32583571Y55348238D01*
X32488333Y55443476D01*
X32440714Y55538714D01*
X32393095Y55729190D01*
X32393095Y55872048D01*
X32440714Y56062524D01*
X32488333Y56157762D01*
X32583571Y56253000D01*
X32726429Y56300619D01*
X32821667Y56300619D01*
X32964524Y56253000D01*
X33012143Y56205381D01*
X33964524Y55300619D02*
X33393095Y55300619D01*
X33678809Y55300619D02*
X33678809Y56300619D01*
X33583571Y56157762D01*
X33488333Y56062524D01*
X33393095Y56014905D01*
X34535952Y55872048D02*
X34440714Y55919667D01*
X34393095Y55967286D01*
X34345476Y56062524D01*
X34345476Y56110143D01*
X34393095Y56205381D01*
X34440714Y56253000D01*
X34535952Y56300619D01*
X34726429Y56300619D01*
X34821667Y56253000D01*
X34869286Y56205381D01*
X34916905Y56110143D01*
X34916905Y56062524D01*
X34869286Y55967286D01*
X34821667Y55919667D01*
X34726429Y55872048D01*
X34535952Y55872048D01*
X34440714Y55824429D01*
X34393095Y55776810D01*
X34345476Y55681571D01*
X34345476Y55491095D01*
X34393095Y55395857D01*
X34440714Y55348238D01*
X34535952Y55300619D01*
X34726429Y55300619D01*
X34821667Y55348238D01*
X34869286Y55395857D01*
X34916905Y55491095D01*
X34916905Y55681571D01*
X34869286Y55776810D01*
X34821667Y55824429D01*
X34726429Y55872048D01*
X46347143Y42695857D02*
X46299524Y42648238D01*
X46156667Y42600619D01*
X46061429Y42600619D01*
X45918571Y42648238D01*
X45823333Y42743476D01*
X45775714Y42838714D01*
X45728095Y43029190D01*
X45728095Y43172048D01*
X45775714Y43362524D01*
X45823333Y43457762D01*
X45918571Y43553000D01*
X46061429Y43600619D01*
X46156667Y43600619D01*
X46299524Y43553000D01*
X46347143Y43505381D01*
X47299524Y42600619D02*
X46728095Y42600619D01*
X47013809Y42600619D02*
X47013809Y43600619D01*
X46918571Y43457762D01*
X46823333Y43362524D01*
X46728095Y43314905D01*
X47775714Y42600619D02*
X47966190Y42600619D01*
X48061429Y42648238D01*
X48109048Y42695857D01*
X48204286Y42838714D01*
X48251905Y43029190D01*
X48251905Y43410143D01*
X48204286Y43505381D01*
X48156667Y43553000D01*
X48061429Y43600619D01*
X47870952Y43600619D01*
X47775714Y43553000D01*
X47728095Y43505381D01*
X47680476Y43410143D01*
X47680476Y43172048D01*
X47728095Y43076810D01*
X47775714Y43029190D01*
X47870952Y42981571D01*
X48061429Y42981571D01*
X48156667Y43029190D01*
X48204286Y43076810D01*
X48251905Y43172048D01*
X47617143Y12850857D02*
X47569524Y12803238D01*
X47426667Y12755619D01*
X47331429Y12755619D01*
X47188571Y12803238D01*
X47093333Y12898476D01*
X47045714Y12993714D01*
X46998095Y13184190D01*
X46998095Y13327048D01*
X47045714Y13517524D01*
X47093333Y13612762D01*
X47188571Y13708000D01*
X47331429Y13755619D01*
X47426667Y13755619D01*
X47569524Y13708000D01*
X47617143Y13660381D01*
X47998095Y13660381D02*
X48045714Y13708000D01*
X48140952Y13755619D01*
X48379048Y13755619D01*
X48474286Y13708000D01*
X48521905Y13660381D01*
X48569524Y13565143D01*
X48569524Y13469905D01*
X48521905Y13327048D01*
X47950476Y12755619D01*
X48569524Y12755619D01*
X49188571Y13755619D02*
X49283810Y13755619D01*
X49379048Y13708000D01*
X49426667Y13660381D01*
X49474286Y13565143D01*
X49521905Y13374667D01*
X49521905Y13136571D01*
X49474286Y12946095D01*
X49426667Y12850857D01*
X49379048Y12803238D01*
X49283810Y12755619D01*
X49188571Y12755619D01*
X49093333Y12803238D01*
X49045714Y12850857D01*
X48998095Y12946095D01*
X48950476Y13136571D01*
X48950476Y13374667D01*
X48998095Y13565143D01*
X49045714Y13660381D01*
X49093333Y13708000D01*
X49188571Y13755619D01*
X54602143Y37488857D02*
X54554524Y37441238D01*
X54411667Y37393619D01*
X54316429Y37393619D01*
X54173571Y37441238D01*
X54078333Y37536476D01*
X54030714Y37631714D01*
X53983095Y37822190D01*
X53983095Y37965048D01*
X54030714Y38155524D01*
X54078333Y38250762D01*
X54173571Y38346000D01*
X54316429Y38393619D01*
X54411667Y38393619D01*
X54554524Y38346000D01*
X54602143Y38298381D01*
X54983095Y38298381D02*
X55030714Y38346000D01*
X55125952Y38393619D01*
X55364048Y38393619D01*
X55459286Y38346000D01*
X55506905Y38298381D01*
X55554524Y38203143D01*
X55554524Y38107905D01*
X55506905Y37965048D01*
X54935476Y37393619D01*
X55554524Y37393619D01*
X56506905Y37393619D02*
X55935476Y37393619D01*
X56221190Y37393619D02*
X56221190Y38393619D01*
X56125952Y38250762D01*
X56030714Y38155524D01*
X55935476Y38107905D01*
X52062143Y32662857D02*
X52014524Y32615238D01*
X51871667Y32567619D01*
X51776429Y32567619D01*
X51633571Y32615238D01*
X51538333Y32710476D01*
X51490714Y32805714D01*
X51443095Y32996190D01*
X51443095Y33139048D01*
X51490714Y33329524D01*
X51538333Y33424762D01*
X51633571Y33520000D01*
X51776429Y33567619D01*
X51871667Y33567619D01*
X52014524Y33520000D01*
X52062143Y33472381D01*
X52443095Y33472381D02*
X52490714Y33520000D01*
X52585952Y33567619D01*
X52824048Y33567619D01*
X52919286Y33520000D01*
X52966905Y33472381D01*
X53014524Y33377143D01*
X53014524Y33281905D01*
X52966905Y33139048D01*
X52395476Y32567619D01*
X53014524Y32567619D01*
X53395476Y33472381D02*
X53443095Y33520000D01*
X53538333Y33567619D01*
X53776429Y33567619D01*
X53871667Y33520000D01*
X53919286Y33472381D01*
X53966905Y33377143D01*
X53966905Y33281905D01*
X53919286Y33139048D01*
X53347857Y32567619D01*
X53966905Y32567619D01*
X63666643Y26027143D02*
X63714262Y25979524D01*
X63761881Y25836667D01*
X63761881Y25741429D01*
X63714262Y25598571D01*
X63619024Y25503333D01*
X63523786Y25455714D01*
X63333310Y25408095D01*
X63190452Y25408095D01*
X62999976Y25455714D01*
X62904738Y25503333D01*
X62809500Y25598571D01*
X62761881Y25741429D01*
X62761881Y25836667D01*
X62809500Y25979524D01*
X62857119Y26027143D01*
X62857119Y26408095D02*
X62809500Y26455714D01*
X62761881Y26550952D01*
X62761881Y26789048D01*
X62809500Y26884286D01*
X62857119Y26931905D01*
X62952357Y26979524D01*
X63047595Y26979524D01*
X63190452Y26931905D01*
X63761881Y26360476D01*
X63761881Y26979524D01*
X62761881Y27312857D02*
X62761881Y27931905D01*
X63142833Y27598571D01*
X63142833Y27741429D01*
X63190452Y27836667D01*
X63238071Y27884286D01*
X63333310Y27931905D01*
X63571405Y27931905D01*
X63666643Y27884286D01*
X63714262Y27836667D01*
X63761881Y27741429D01*
X63761881Y27455714D01*
X63714262Y27360476D01*
X63666643Y27312857D01*
X71747143Y37425357D02*
X71699524Y37377738D01*
X71556667Y37330119D01*
X71461429Y37330119D01*
X71318571Y37377738D01*
X71223333Y37472976D01*
X71175714Y37568214D01*
X71128095Y37758690D01*
X71128095Y37901548D01*
X71175714Y38092024D01*
X71223333Y38187262D01*
X71318571Y38282500D01*
X71461429Y38330119D01*
X71556667Y38330119D01*
X71699524Y38282500D01*
X71747143Y38234881D01*
X72128095Y38234881D02*
X72175714Y38282500D01*
X72270952Y38330119D01*
X72509048Y38330119D01*
X72604286Y38282500D01*
X72651905Y38234881D01*
X72699524Y38139643D01*
X72699524Y38044405D01*
X72651905Y37901548D01*
X72080476Y37330119D01*
X72699524Y37330119D01*
X73556667Y37996786D02*
X73556667Y37330119D01*
X73318571Y38377738D02*
X73080476Y37663452D01*
X73699524Y37663452D01*
X63365143Y36980857D02*
X63317524Y36933238D01*
X63174667Y36885619D01*
X63079429Y36885619D01*
X62936571Y36933238D01*
X62841333Y37028476D01*
X62793714Y37123714D01*
X62746095Y37314190D01*
X62746095Y37457048D01*
X62793714Y37647524D01*
X62841333Y37742762D01*
X62936571Y37838000D01*
X63079429Y37885619D01*
X63174667Y37885619D01*
X63317524Y37838000D01*
X63365143Y37790381D01*
X63746095Y37790381D02*
X63793714Y37838000D01*
X63888952Y37885619D01*
X64127048Y37885619D01*
X64222286Y37838000D01*
X64269905Y37790381D01*
X64317524Y37695143D01*
X64317524Y37599905D01*
X64269905Y37457048D01*
X63698476Y36885619D01*
X64317524Y36885619D01*
X65222286Y37885619D02*
X64746095Y37885619D01*
X64698476Y37409429D01*
X64746095Y37457048D01*
X64841333Y37504667D01*
X65079429Y37504667D01*
X65174667Y37457048D01*
X65222286Y37409429D01*
X65269905Y37314190D01*
X65269905Y37076095D01*
X65222286Y36980857D01*
X65174667Y36933238D01*
X65079429Y36885619D01*
X64841333Y36885619D01*
X64746095Y36933238D01*
X64698476Y36980857D01*
X66397143Y26662143D02*
X66444762Y26614524D01*
X66492381Y26471667D01*
X66492381Y26376429D01*
X66444762Y26233571D01*
X66349524Y26138333D01*
X66254286Y26090714D01*
X66063810Y26043095D01*
X65920952Y26043095D01*
X65730476Y26090714D01*
X65635238Y26138333D01*
X65540000Y26233571D01*
X65492381Y26376429D01*
X65492381Y26471667D01*
X65540000Y26614524D01*
X65587619Y26662143D01*
X65587619Y27043095D02*
X65540000Y27090714D01*
X65492381Y27185952D01*
X65492381Y27424048D01*
X65540000Y27519286D01*
X65587619Y27566905D01*
X65682857Y27614524D01*
X65778095Y27614524D01*
X65920952Y27566905D01*
X66492381Y26995476D01*
X66492381Y27614524D01*
X65492381Y28471667D02*
X65492381Y28281190D01*
X65540000Y28185952D01*
X65587619Y28138333D01*
X65730476Y28043095D01*
X65920952Y27995476D01*
X66301905Y27995476D01*
X66397143Y28043095D01*
X66444762Y28090714D01*
X66492381Y28185952D01*
X66492381Y28376429D01*
X66444762Y28471667D01*
X66397143Y28519286D01*
X66301905Y28566905D01*
X66063810Y28566905D01*
X65968571Y28519286D01*
X65920952Y28471667D01*
X65873333Y28376429D01*
X65873333Y28185952D01*
X65920952Y28090714D01*
X65968571Y28043095D01*
X66063810Y27995476D01*
X75557143Y29995857D02*
X75509524Y29948238D01*
X75366667Y29900619D01*
X75271429Y29900619D01*
X75128571Y29948238D01*
X75033333Y30043476D01*
X74985714Y30138714D01*
X74938095Y30329190D01*
X74938095Y30472048D01*
X74985714Y30662524D01*
X75033333Y30757762D01*
X75128571Y30853000D01*
X75271429Y30900619D01*
X75366667Y30900619D01*
X75509524Y30853000D01*
X75557143Y30805381D01*
X75938095Y30805381D02*
X75985714Y30853000D01*
X76080952Y30900619D01*
X76319048Y30900619D01*
X76414286Y30853000D01*
X76461905Y30805381D01*
X76509524Y30710143D01*
X76509524Y30614905D01*
X76461905Y30472048D01*
X75890476Y29900619D01*
X76509524Y29900619D01*
X76842857Y30900619D02*
X77509524Y30900619D01*
X77080952Y29900619D01*
X55237143Y42822857D02*
X55189524Y42775238D01*
X55046667Y42727619D01*
X54951429Y42727619D01*
X54808571Y42775238D01*
X54713333Y42870476D01*
X54665714Y42965714D01*
X54618095Y43156190D01*
X54618095Y43299048D01*
X54665714Y43489524D01*
X54713333Y43584762D01*
X54808571Y43680000D01*
X54951429Y43727619D01*
X55046667Y43727619D01*
X55189524Y43680000D01*
X55237143Y43632381D01*
X55618095Y43632381D02*
X55665714Y43680000D01*
X55760952Y43727619D01*
X55999048Y43727619D01*
X56094286Y43680000D01*
X56141905Y43632381D01*
X56189524Y43537143D01*
X56189524Y43441905D01*
X56141905Y43299048D01*
X55570476Y42727619D01*
X56189524Y42727619D01*
X56760952Y43299048D02*
X56665714Y43346667D01*
X56618095Y43394286D01*
X56570476Y43489524D01*
X56570476Y43537143D01*
X56618095Y43632381D01*
X56665714Y43680000D01*
X56760952Y43727619D01*
X56951429Y43727619D01*
X57046667Y43680000D01*
X57094286Y43632381D01*
X57141905Y43537143D01*
X57141905Y43489524D01*
X57094286Y43394286D01*
X57046667Y43346667D01*
X56951429Y43299048D01*
X56760952Y43299048D01*
X56665714Y43251429D01*
X56618095Y43203810D01*
X56570476Y43108571D01*
X56570476Y42918095D01*
X56618095Y42822857D01*
X56665714Y42775238D01*
X56760952Y42727619D01*
X56951429Y42727619D01*
X57046667Y42775238D01*
X57094286Y42822857D01*
X57141905Y42918095D01*
X57141905Y43108571D01*
X57094286Y43203810D01*
X57046667Y43251429D01*
X56951429Y43299048D01*
X56507143Y49744357D02*
X56459524Y49696738D01*
X56316667Y49649119D01*
X56221429Y49649119D01*
X56078571Y49696738D01*
X55983333Y49791976D01*
X55935714Y49887214D01*
X55888095Y50077690D01*
X55888095Y50220548D01*
X55935714Y50411024D01*
X55983333Y50506262D01*
X56078571Y50601500D01*
X56221429Y50649119D01*
X56316667Y50649119D01*
X56459524Y50601500D01*
X56507143Y50553881D01*
X56888095Y50553881D02*
X56935714Y50601500D01*
X57030952Y50649119D01*
X57269048Y50649119D01*
X57364286Y50601500D01*
X57411905Y50553881D01*
X57459524Y50458643D01*
X57459524Y50363405D01*
X57411905Y50220548D01*
X56840476Y49649119D01*
X57459524Y49649119D01*
X57935714Y49649119D02*
X58126190Y49649119D01*
X58221429Y49696738D01*
X58269048Y49744357D01*
X58364286Y49887214D01*
X58411905Y50077690D01*
X58411905Y50458643D01*
X58364286Y50553881D01*
X58316667Y50601500D01*
X58221429Y50649119D01*
X58030952Y50649119D01*
X57935714Y50601500D01*
X57888095Y50553881D01*
X57840476Y50458643D01*
X57840476Y50220548D01*
X57888095Y50125310D01*
X57935714Y50077690D01*
X58030952Y50030071D01*
X58221429Y50030071D01*
X58316667Y50077690D01*
X58364286Y50125310D01*
X58411905Y50220548D01*
X57142143Y53363857D02*
X57094524Y53316238D01*
X56951667Y53268619D01*
X56856429Y53268619D01*
X56713571Y53316238D01*
X56618333Y53411476D01*
X56570714Y53506714D01*
X56523095Y53697190D01*
X56523095Y53840048D01*
X56570714Y54030524D01*
X56618333Y54125762D01*
X56713571Y54221000D01*
X56856429Y54268619D01*
X56951667Y54268619D01*
X57094524Y54221000D01*
X57142143Y54173381D01*
X57475476Y54268619D02*
X58094524Y54268619D01*
X57761190Y53887667D01*
X57904048Y53887667D01*
X57999286Y53840048D01*
X58046905Y53792429D01*
X58094524Y53697190D01*
X58094524Y53459095D01*
X58046905Y53363857D01*
X57999286Y53316238D01*
X57904048Y53268619D01*
X57618333Y53268619D01*
X57523095Y53316238D01*
X57475476Y53363857D01*
X58713571Y54268619D02*
X58808810Y54268619D01*
X58904048Y54221000D01*
X58951667Y54173381D01*
X58999286Y54078143D01*
X59046905Y53887667D01*
X59046905Y53649571D01*
X58999286Y53459095D01*
X58951667Y53363857D01*
X58904048Y53316238D01*
X58808810Y53268619D01*
X58713571Y53268619D01*
X58618333Y53316238D01*
X58570714Y53363857D01*
X58523095Y53459095D01*
X58475476Y53649571D01*
X58475476Y53887667D01*
X58523095Y54078143D01*
X58570714Y54173381D01*
X58618333Y54221000D01*
X58713571Y54268619D01*
X68508643Y2817857D02*
X68461024Y2770238D01*
X68318167Y2722619D01*
X68222929Y2722619D01*
X68080071Y2770238D01*
X67984833Y2865476D01*
X67937214Y2960714D01*
X67889595Y3151190D01*
X67889595Y3294048D01*
X67937214Y3484524D01*
X67984833Y3579762D01*
X68080071Y3675000D01*
X68222929Y3722619D01*
X68318167Y3722619D01*
X68461024Y3675000D01*
X68508643Y3627381D01*
X68841976Y3722619D02*
X69461024Y3722619D01*
X69127690Y3341667D01*
X69270548Y3341667D01*
X69365786Y3294048D01*
X69413405Y3246429D01*
X69461024Y3151190D01*
X69461024Y2913095D01*
X69413405Y2817857D01*
X69365786Y2770238D01*
X69270548Y2722619D01*
X68984833Y2722619D01*
X68889595Y2770238D01*
X68841976Y2817857D01*
X70413405Y2722619D02*
X69841976Y2722619D01*
X70127690Y2722619D02*
X70127690Y3722619D01*
X70032452Y3579762D01*
X69937214Y3484524D01*
X69841976Y3436905D01*
X70064405Y59237619D02*
X70064405Y60237619D01*
X70302500Y60237619D01*
X70445358Y60190000D01*
X70540596Y60094762D01*
X70588215Y59999524D01*
X70635834Y59809048D01*
X70635834Y59666190D01*
X70588215Y59475714D01*
X70540596Y59380476D01*
X70445358Y59285238D01*
X70302500Y59237619D01*
X70064405Y59237619D01*
X71016786Y60142381D02*
X71064405Y60190000D01*
X71159643Y60237619D01*
X71397739Y60237619D01*
X71492977Y60190000D01*
X71540596Y60142381D01*
X71588215Y60047143D01*
X71588215Y59951905D01*
X71540596Y59809048D01*
X70969167Y59237619D01*
X71588215Y59237619D01*
X53808334Y58221619D02*
X53475000Y58697810D01*
X53236905Y58221619D02*
X53236905Y59221619D01*
X53617858Y59221619D01*
X53713096Y59174000D01*
X53760715Y59126381D01*
X53808334Y59031143D01*
X53808334Y58888286D01*
X53760715Y58793048D01*
X53713096Y58745429D01*
X53617858Y58697810D01*
X53236905Y58697810D01*
X54760715Y58221619D02*
X54189286Y58221619D01*
X54475000Y58221619D02*
X54475000Y59221619D01*
X54379762Y59078762D01*
X54284524Y58983524D01*
X54189286Y58935905D01*
X51268334Y58221619D02*
X50935000Y58697810D01*
X50696905Y58221619D02*
X50696905Y59221619D01*
X51077858Y59221619D01*
X51173096Y59174000D01*
X51220715Y59126381D01*
X51268334Y59031143D01*
X51268334Y58888286D01*
X51220715Y58793048D01*
X51173096Y58745429D01*
X51077858Y58697810D01*
X50696905Y58697810D01*
X51649286Y59126381D02*
X51696905Y59174000D01*
X51792143Y59221619D01*
X52030239Y59221619D01*
X52125477Y59174000D01*
X52173096Y59126381D01*
X52220715Y59031143D01*
X52220715Y58935905D01*
X52173096Y58793048D01*
X51601667Y58221619D01*
X52220715Y58221619D01*
X61936334Y64317619D02*
X61603000Y64793810D01*
X61364905Y64317619D02*
X61364905Y65317619D01*
X61745858Y65317619D01*
X61841096Y65270000D01*
X61888715Y65222381D01*
X61936334Y65127143D01*
X61936334Y64984286D01*
X61888715Y64889048D01*
X61841096Y64841429D01*
X61745858Y64793810D01*
X61364905Y64793810D01*
X62269667Y65317619D02*
X62888715Y65317619D01*
X62555381Y64936667D01*
X62698239Y64936667D01*
X62793477Y64889048D01*
X62841096Y64841429D01*
X62888715Y64746190D01*
X62888715Y64508095D01*
X62841096Y64412857D01*
X62793477Y64365238D01*
X62698239Y64317619D01*
X62412524Y64317619D01*
X62317286Y64365238D01*
X62269667Y64412857D01*
X61936334Y61777619D02*
X61603000Y62253810D01*
X61364905Y61777619D02*
X61364905Y62777619D01*
X61745858Y62777619D01*
X61841096Y62730000D01*
X61888715Y62682381D01*
X61936334Y62587143D01*
X61936334Y62444286D01*
X61888715Y62349048D01*
X61841096Y62301429D01*
X61745858Y62253810D01*
X61364905Y62253810D01*
X62793477Y62444286D02*
X62793477Y61777619D01*
X62555381Y62825238D02*
X62317286Y62110952D01*
X62936334Y62110952D01*
X61999834Y66857619D02*
X61666500Y67333810D01*
X61428405Y66857619D02*
X61428405Y67857619D01*
X61809358Y67857619D01*
X61904596Y67810000D01*
X61952215Y67762381D01*
X61999834Y67667143D01*
X61999834Y67524286D01*
X61952215Y67429048D01*
X61904596Y67381429D01*
X61809358Y67333810D01*
X61428405Y67333810D01*
X62904596Y67857619D02*
X62428405Y67857619D01*
X62380786Y67381429D01*
X62428405Y67429048D01*
X62523643Y67476667D01*
X62761739Y67476667D01*
X62856977Y67429048D01*
X62904596Y67381429D01*
X62952215Y67286190D01*
X62952215Y67048095D01*
X62904596Y66952857D01*
X62856977Y66905238D01*
X62761739Y66857619D01*
X62523643Y66857619D01*
X62428405Y66905238D01*
X62380786Y66952857D01*
X13803334Y54602119D02*
X13470000Y55078310D01*
X13231905Y54602119D02*
X13231905Y55602119D01*
X13612858Y55602119D01*
X13708096Y55554500D01*
X13755715Y55506881D01*
X13803334Y55411643D01*
X13803334Y55268786D01*
X13755715Y55173548D01*
X13708096Y55125929D01*
X13612858Y55078310D01*
X13231905Y55078310D01*
X14660477Y55602119D02*
X14470000Y55602119D01*
X14374762Y55554500D01*
X14327143Y55506881D01*
X14231905Y55364024D01*
X14184286Y55173548D01*
X14184286Y54792595D01*
X14231905Y54697357D01*
X14279524Y54649738D01*
X14374762Y54602119D01*
X14565239Y54602119D01*
X14660477Y54649738D01*
X14708096Y54697357D01*
X14755715Y54792595D01*
X14755715Y55030690D01*
X14708096Y55125929D01*
X14660477Y55173548D01*
X14565239Y55221167D01*
X14374762Y55221167D01*
X14279524Y55173548D01*
X14231905Y55125929D01*
X14184286Y55030690D01*
X11263334Y50347619D02*
X10930000Y50823810D01*
X10691905Y50347619D02*
X10691905Y51347619D01*
X11072858Y51347619D01*
X11168096Y51300000D01*
X11215715Y51252381D01*
X11263334Y51157143D01*
X11263334Y51014286D01*
X11215715Y50919048D01*
X11168096Y50871429D01*
X11072858Y50823810D01*
X10691905Y50823810D01*
X11596667Y51347619D02*
X12263334Y51347619D01*
X11834762Y50347619D01*
X11263334Y47807619D02*
X10930000Y48283810D01*
X10691905Y47807619D02*
X10691905Y48807619D01*
X11072858Y48807619D01*
X11168096Y48760000D01*
X11215715Y48712381D01*
X11263334Y48617143D01*
X11263334Y48474286D01*
X11215715Y48379048D01*
X11168096Y48331429D01*
X11072858Y48283810D01*
X10691905Y48283810D01*
X11834762Y48379048D02*
X11739524Y48426667D01*
X11691905Y48474286D01*
X11644286Y48569524D01*
X11644286Y48617143D01*
X11691905Y48712381D01*
X11739524Y48760000D01*
X11834762Y48807619D01*
X12025239Y48807619D01*
X12120477Y48760000D01*
X12168096Y48712381D01*
X12215715Y48617143D01*
X12215715Y48569524D01*
X12168096Y48474286D01*
X12120477Y48426667D01*
X12025239Y48379048D01*
X11834762Y48379048D01*
X11739524Y48331429D01*
X11691905Y48283810D01*
X11644286Y48188571D01*
X11644286Y47998095D01*
X11691905Y47902857D01*
X11739524Y47855238D01*
X11834762Y47807619D01*
X12025239Y47807619D01*
X12120477Y47855238D01*
X12168096Y47902857D01*
X12215715Y47998095D01*
X12215715Y48188571D01*
X12168096Y48283810D01*
X12120477Y48331429D01*
X12025239Y48379048D01*
X11263334Y44632619D02*
X10930000Y45108810D01*
X10691905Y44632619D02*
X10691905Y45632619D01*
X11072858Y45632619D01*
X11168096Y45585000D01*
X11215715Y45537381D01*
X11263334Y45442143D01*
X11263334Y45299286D01*
X11215715Y45204048D01*
X11168096Y45156429D01*
X11072858Y45108810D01*
X10691905Y45108810D01*
X11739524Y44632619D02*
X11930000Y44632619D01*
X12025239Y44680238D01*
X12072858Y44727857D01*
X12168096Y44870714D01*
X12215715Y45061190D01*
X12215715Y45442143D01*
X12168096Y45537381D01*
X12120477Y45585000D01*
X12025239Y45632619D01*
X11834762Y45632619D01*
X11739524Y45585000D01*
X11691905Y45537381D01*
X11644286Y45442143D01*
X11644286Y45204048D01*
X11691905Y45108810D01*
X11739524Y45061190D01*
X11834762Y45013571D01*
X12025239Y45013571D01*
X12120477Y45061190D01*
X12168096Y45108810D01*
X12215715Y45204048D01*
X10406143Y42092619D02*
X10072809Y42568810D01*
X9834714Y42092619D02*
X9834714Y43092619D01*
X10215667Y43092619D01*
X10310905Y43045000D01*
X10358524Y42997381D01*
X10406143Y42902143D01*
X10406143Y42759286D01*
X10358524Y42664048D01*
X10310905Y42616429D01*
X10215667Y42568810D01*
X9834714Y42568810D01*
X11358524Y42092619D02*
X10787095Y42092619D01*
X11072809Y42092619D02*
X11072809Y43092619D01*
X10977571Y42949762D01*
X10882333Y42854524D01*
X10787095Y42806905D01*
X12310905Y42092619D02*
X11739476Y42092619D01*
X12025190Y42092619D02*
X12025190Y43092619D01*
X11929952Y42949762D01*
X11834714Y42854524D01*
X11739476Y42806905D01*
X10152143Y35742619D02*
X9818809Y36218810D01*
X9580714Y35742619D02*
X9580714Y36742619D01*
X9961667Y36742619D01*
X10056905Y36695000D01*
X10104524Y36647381D01*
X10152143Y36552143D01*
X10152143Y36409286D01*
X10104524Y36314048D01*
X10056905Y36266429D01*
X9961667Y36218810D01*
X9580714Y36218810D01*
X11104524Y35742619D02*
X10533095Y35742619D01*
X10818809Y35742619D02*
X10818809Y36742619D01*
X10723571Y36599762D01*
X10628333Y36504524D01*
X10533095Y36456905D01*
X11485476Y36647381D02*
X11533095Y36695000D01*
X11628333Y36742619D01*
X11866429Y36742619D01*
X11961667Y36695000D01*
X12009286Y36647381D01*
X12056905Y36552143D01*
X12056905Y36456905D01*
X12009286Y36314048D01*
X11437857Y35742619D01*
X12056905Y35742619D01*
X60952143Y59237619D02*
X60618809Y59713810D01*
X60380714Y59237619D02*
X60380714Y60237619D01*
X60761667Y60237619D01*
X60856905Y60190000D01*
X60904524Y60142381D01*
X60952143Y60047143D01*
X60952143Y59904286D01*
X60904524Y59809048D01*
X60856905Y59761429D01*
X60761667Y59713810D01*
X60380714Y59713810D01*
X61904524Y59237619D02*
X61333095Y59237619D01*
X61618809Y59237619D02*
X61618809Y60237619D01*
X61523571Y60094762D01*
X61428333Y59999524D01*
X61333095Y59951905D01*
X62237857Y60237619D02*
X62856905Y60237619D01*
X62523571Y59856667D01*
X62666429Y59856667D01*
X62761667Y59809048D01*
X62809286Y59761429D01*
X62856905Y59666190D01*
X62856905Y59428095D01*
X62809286Y59332857D01*
X62761667Y59285238D01*
X62666429Y59237619D01*
X62380714Y59237619D01*
X62285476Y59285238D01*
X62237857Y59332857D01*
X29202143Y24058619D02*
X28868809Y24534810D01*
X28630714Y24058619D02*
X28630714Y25058619D01*
X29011667Y25058619D01*
X29106905Y25011000D01*
X29154524Y24963381D01*
X29202143Y24868143D01*
X29202143Y24725286D01*
X29154524Y24630048D01*
X29106905Y24582429D01*
X29011667Y24534810D01*
X28630714Y24534810D01*
X30154524Y24058619D02*
X29583095Y24058619D01*
X29868809Y24058619D02*
X29868809Y25058619D01*
X29773571Y24915762D01*
X29678333Y24820524D01*
X29583095Y24772905D01*
X31011667Y24725286D02*
X31011667Y24058619D01*
X30773571Y25106238D02*
X30535476Y24391952D01*
X31154524Y24391952D01*
X22344143Y24312619D02*
X22010809Y24788810D01*
X21772714Y24312619D02*
X21772714Y25312619D01*
X22153667Y25312619D01*
X22248905Y25265000D01*
X22296524Y25217381D01*
X22344143Y25122143D01*
X22344143Y24979286D01*
X22296524Y24884048D01*
X22248905Y24836429D01*
X22153667Y24788810D01*
X21772714Y24788810D01*
X23296524Y24312619D02*
X22725095Y24312619D01*
X23010809Y24312619D02*
X23010809Y25312619D01*
X22915571Y25169762D01*
X22820333Y25074524D01*
X22725095Y25026905D01*
X24201286Y25312619D02*
X23725095Y25312619D01*
X23677476Y24836429D01*
X23725095Y24884048D01*
X23820333Y24931667D01*
X24058429Y24931667D01*
X24153667Y24884048D01*
X24201286Y24836429D01*
X24248905Y24741190D01*
X24248905Y24503095D01*
X24201286Y24407857D01*
X24153667Y24360238D01*
X24058429Y24312619D01*
X23820333Y24312619D01*
X23725095Y24360238D01*
X23677476Y24407857D01*
X25392143Y22153619D02*
X25058809Y22629810D01*
X24820714Y22153619D02*
X24820714Y23153619D01*
X25201667Y23153619D01*
X25296905Y23106000D01*
X25344524Y23058381D01*
X25392143Y22963143D01*
X25392143Y22820286D01*
X25344524Y22725048D01*
X25296905Y22677429D01*
X25201667Y22629810D01*
X24820714Y22629810D01*
X26344524Y22153619D02*
X25773095Y22153619D01*
X26058809Y22153619D02*
X26058809Y23153619D01*
X25963571Y23010762D01*
X25868333Y22915524D01*
X25773095Y22867905D01*
X27201667Y23153619D02*
X27011190Y23153619D01*
X26915952Y23106000D01*
X26868333Y23058381D01*
X26773095Y22915524D01*
X26725476Y22725048D01*
X26725476Y22344095D01*
X26773095Y22248857D01*
X26820714Y22201238D01*
X26915952Y22153619D01*
X27106429Y22153619D01*
X27201667Y22201238D01*
X27249286Y22248857D01*
X27296905Y22344095D01*
X27296905Y22582190D01*
X27249286Y22677429D01*
X27201667Y22725048D01*
X27106429Y22772667D01*
X26915952Y22772667D01*
X26820714Y22725048D01*
X26773095Y22677429D01*
X26725476Y22582190D01*
X33154881Y30472143D02*
X32678690Y30138809D01*
X33154881Y29900714D02*
X32154881Y29900714D01*
X32154881Y30281667D01*
X32202500Y30376905D01*
X32250119Y30424524D01*
X32345357Y30472143D01*
X32488214Y30472143D01*
X32583452Y30424524D01*
X32631071Y30376905D01*
X32678690Y30281667D01*
X32678690Y29900714D01*
X33154881Y31424524D02*
X33154881Y30853095D01*
X33154881Y31138809D02*
X32154881Y31138809D01*
X32297738Y31043571D01*
X32392976Y30948333D01*
X32440595Y30853095D01*
X32154881Y31757857D02*
X32154881Y32424524D01*
X33154881Y31995952D01*
X32519881Y37266643D02*
X32043690Y36933309D01*
X32519881Y36695214D02*
X31519881Y36695214D01*
X31519881Y37076167D01*
X31567500Y37171405D01*
X31615119Y37219024D01*
X31710357Y37266643D01*
X31853214Y37266643D01*
X31948452Y37219024D01*
X31996071Y37171405D01*
X32043690Y37076167D01*
X32043690Y36695214D01*
X32519881Y38219024D02*
X32519881Y37647595D01*
X32519881Y37933309D02*
X31519881Y37933309D01*
X31662738Y37838071D01*
X31757976Y37742833D01*
X31805595Y37647595D01*
X31948452Y38790452D02*
X31900833Y38695214D01*
X31853214Y38647595D01*
X31757976Y38599976D01*
X31710357Y38599976D01*
X31615119Y38647595D01*
X31567500Y38695214D01*
X31519881Y38790452D01*
X31519881Y38980929D01*
X31567500Y39076167D01*
X31615119Y39123786D01*
X31710357Y39171405D01*
X31757976Y39171405D01*
X31853214Y39123786D01*
X31900833Y39076167D01*
X31948452Y38980929D01*
X31948452Y38790452D01*
X31996071Y38695214D01*
X32043690Y38647595D01*
X32138929Y38599976D01*
X32329405Y38599976D01*
X32424643Y38647595D01*
X32472262Y38695214D01*
X32519881Y38790452D01*
X32519881Y38980929D01*
X32472262Y39076167D01*
X32424643Y39123786D01*
X32329405Y39171405D01*
X32138929Y39171405D01*
X32043690Y39123786D01*
X31996071Y39076167D01*
X31948452Y38980929D01*
X37790381Y33456643D02*
X37314190Y33123309D01*
X37790381Y32885214D02*
X36790381Y32885214D01*
X36790381Y33266167D01*
X36838000Y33361405D01*
X36885619Y33409024D01*
X36980857Y33456643D01*
X37123714Y33456643D01*
X37218952Y33409024D01*
X37266571Y33361405D01*
X37314190Y33266167D01*
X37314190Y32885214D01*
X37790381Y34409024D02*
X37790381Y33837595D01*
X37790381Y34123309D02*
X36790381Y34123309D01*
X36933238Y34028071D01*
X37028476Y33932833D01*
X37076095Y33837595D01*
X37790381Y34885214D02*
X37790381Y35075690D01*
X37742762Y35170929D01*
X37695143Y35218548D01*
X37552286Y35313786D01*
X37361810Y35361405D01*
X36980857Y35361405D01*
X36885619Y35313786D01*
X36838000Y35266167D01*
X36790381Y35170929D01*
X36790381Y34980452D01*
X36838000Y34885214D01*
X36885619Y34837595D01*
X36980857Y34789976D01*
X37218952Y34789976D01*
X37314190Y34837595D01*
X37361810Y34885214D01*
X37409429Y34980452D01*
X37409429Y35170929D01*
X37361810Y35266167D01*
X37314190Y35313786D01*
X37218952Y35361405D01*
X47617143Y34853619D02*
X47283809Y35329810D01*
X47045714Y34853619D02*
X47045714Y35853619D01*
X47426667Y35853619D01*
X47521905Y35806000D01*
X47569524Y35758381D01*
X47617143Y35663143D01*
X47617143Y35520286D01*
X47569524Y35425048D01*
X47521905Y35377429D01*
X47426667Y35329810D01*
X47045714Y35329810D01*
X47998095Y35758381D02*
X48045714Y35806000D01*
X48140952Y35853619D01*
X48379048Y35853619D01*
X48474286Y35806000D01*
X48521905Y35758381D01*
X48569524Y35663143D01*
X48569524Y35567905D01*
X48521905Y35425048D01*
X47950476Y34853619D01*
X48569524Y34853619D01*
X49188571Y35853619D02*
X49283810Y35853619D01*
X49379048Y35806000D01*
X49426667Y35758381D01*
X49474286Y35663143D01*
X49521905Y35472667D01*
X49521905Y35234571D01*
X49474286Y35044095D01*
X49426667Y34948857D01*
X49379048Y34901238D01*
X49283810Y34853619D01*
X49188571Y34853619D01*
X49093333Y34901238D01*
X49045714Y34948857D01*
X48998095Y35044095D01*
X48950476Y35234571D01*
X48950476Y35472667D01*
X48998095Y35663143D01*
X49045714Y35758381D01*
X49093333Y35806000D01*
X49188571Y35853619D01*
X38727143Y37520619D02*
X38393809Y37996810D01*
X38155714Y37520619D02*
X38155714Y38520619D01*
X38536667Y38520619D01*
X38631905Y38473000D01*
X38679524Y38425381D01*
X38727143Y38330143D01*
X38727143Y38187286D01*
X38679524Y38092048D01*
X38631905Y38044429D01*
X38536667Y37996810D01*
X38155714Y37996810D01*
X39108095Y38425381D02*
X39155714Y38473000D01*
X39250952Y38520619D01*
X39489048Y38520619D01*
X39584286Y38473000D01*
X39631905Y38425381D01*
X39679524Y38330143D01*
X39679524Y38234905D01*
X39631905Y38092048D01*
X39060476Y37520619D01*
X39679524Y37520619D01*
X40631905Y37520619D02*
X40060476Y37520619D01*
X40346190Y37520619D02*
X40346190Y38520619D01*
X40250952Y38377762D01*
X40155714Y38282524D01*
X40060476Y38234905D01*
X33012143Y40492419D02*
X32678809Y40968610D01*
X32440714Y40492419D02*
X32440714Y41492419D01*
X32821667Y41492419D01*
X32916905Y41444800D01*
X32964524Y41397181D01*
X33012143Y41301943D01*
X33012143Y41159086D01*
X32964524Y41063848D01*
X32916905Y41016229D01*
X32821667Y40968610D01*
X32440714Y40968610D01*
X33393095Y41397181D02*
X33440714Y41444800D01*
X33535952Y41492419D01*
X33774048Y41492419D01*
X33869286Y41444800D01*
X33916905Y41397181D01*
X33964524Y41301943D01*
X33964524Y41206705D01*
X33916905Y41063848D01*
X33345476Y40492419D01*
X33964524Y40492419D01*
X34345476Y41397181D02*
X34393095Y41444800D01*
X34488333Y41492419D01*
X34726429Y41492419D01*
X34821667Y41444800D01*
X34869286Y41397181D01*
X34916905Y41301943D01*
X34916905Y41206705D01*
X34869286Y41063848D01*
X34297857Y40492419D01*
X34916905Y40492419D01*
X46982143Y14406619D02*
X46648809Y14882810D01*
X46410714Y14406619D02*
X46410714Y15406619D01*
X46791667Y15406619D01*
X46886905Y15359000D01*
X46934524Y15311381D01*
X46982143Y15216143D01*
X46982143Y15073286D01*
X46934524Y14978048D01*
X46886905Y14930429D01*
X46791667Y14882810D01*
X46410714Y14882810D01*
X47363095Y15311381D02*
X47410714Y15359000D01*
X47505952Y15406619D01*
X47744048Y15406619D01*
X47839286Y15359000D01*
X47886905Y15311381D01*
X47934524Y15216143D01*
X47934524Y15120905D01*
X47886905Y14978048D01*
X47315476Y14406619D01*
X47934524Y14406619D01*
X48267857Y15406619D02*
X48886905Y15406619D01*
X48553571Y15025667D01*
X48696429Y15025667D01*
X48791667Y14978048D01*
X48839286Y14930429D01*
X48886905Y14835190D01*
X48886905Y14597095D01*
X48839286Y14501857D01*
X48791667Y14454238D01*
X48696429Y14406619D01*
X48410714Y14406619D01*
X48315476Y14454238D01*
X48267857Y14501857D01*
X31742143Y49395119D02*
X31408809Y49871310D01*
X31170714Y49395119D02*
X31170714Y50395119D01*
X31551667Y50395119D01*
X31646905Y50347500D01*
X31694524Y50299881D01*
X31742143Y50204643D01*
X31742143Y50061786D01*
X31694524Y49966548D01*
X31646905Y49918929D01*
X31551667Y49871310D01*
X31170714Y49871310D01*
X32123095Y50299881D02*
X32170714Y50347500D01*
X32265952Y50395119D01*
X32504048Y50395119D01*
X32599286Y50347500D01*
X32646905Y50299881D01*
X32694524Y50204643D01*
X32694524Y50109405D01*
X32646905Y49966548D01*
X32075476Y49395119D01*
X32694524Y49395119D01*
X33599286Y50395119D02*
X33123095Y50395119D01*
X33075476Y49918929D01*
X33123095Y49966548D01*
X33218333Y50014167D01*
X33456429Y50014167D01*
X33551667Y49966548D01*
X33599286Y49918929D01*
X33646905Y49823690D01*
X33646905Y49585595D01*
X33599286Y49490357D01*
X33551667Y49442738D01*
X33456429Y49395119D01*
X33218333Y49395119D01*
X33123095Y49442738D01*
X33075476Y49490357D01*
X24757143Y44378619D02*
X24423809Y44854810D01*
X24185714Y44378619D02*
X24185714Y45378619D01*
X24566667Y45378619D01*
X24661905Y45331000D01*
X24709524Y45283381D01*
X24757143Y45188143D01*
X24757143Y45045286D01*
X24709524Y44950048D01*
X24661905Y44902429D01*
X24566667Y44854810D01*
X24185714Y44854810D01*
X25138095Y45283381D02*
X25185714Y45331000D01*
X25280952Y45378619D01*
X25519048Y45378619D01*
X25614286Y45331000D01*
X25661905Y45283381D01*
X25709524Y45188143D01*
X25709524Y45092905D01*
X25661905Y44950048D01*
X25090476Y44378619D01*
X25709524Y44378619D01*
X26566667Y45378619D02*
X26376190Y45378619D01*
X26280952Y45331000D01*
X26233333Y45283381D01*
X26138095Y45140524D01*
X26090476Y44950048D01*
X26090476Y44569095D01*
X26138095Y44473857D01*
X26185714Y44426238D01*
X26280952Y44378619D01*
X26471429Y44378619D01*
X26566667Y44426238D01*
X26614286Y44473857D01*
X26661905Y44569095D01*
X26661905Y44807190D01*
X26614286Y44902429D01*
X26566667Y44950048D01*
X26471429Y44997667D01*
X26280952Y44997667D01*
X26185714Y44950048D01*
X26138095Y44902429D01*
X26090476Y44807190D01*
X57142143Y24058619D02*
X56808809Y24534810D01*
X56570714Y24058619D02*
X56570714Y25058619D01*
X56951667Y25058619D01*
X57046905Y25011000D01*
X57094524Y24963381D01*
X57142143Y24868143D01*
X57142143Y24725286D01*
X57094524Y24630048D01*
X57046905Y24582429D01*
X56951667Y24534810D01*
X56570714Y24534810D01*
X57523095Y24963381D02*
X57570714Y25011000D01*
X57665952Y25058619D01*
X57904048Y25058619D01*
X57999286Y25011000D01*
X58046905Y24963381D01*
X58094524Y24868143D01*
X58094524Y24772905D01*
X58046905Y24630048D01*
X57475476Y24058619D01*
X58094524Y24058619D01*
X58665952Y24630048D02*
X58570714Y24677667D01*
X58523095Y24725286D01*
X58475476Y24820524D01*
X58475476Y24868143D01*
X58523095Y24963381D01*
X58570714Y25011000D01*
X58665952Y25058619D01*
X58856429Y25058619D01*
X58951667Y25011000D01*
X58999286Y24963381D01*
X59046905Y24868143D01*
X59046905Y24820524D01*
X58999286Y24725286D01*
X58951667Y24677667D01*
X58856429Y24630048D01*
X58665952Y24630048D01*
X58570714Y24582429D01*
X58523095Y24534810D01*
X58475476Y24439571D01*
X58475476Y24249095D01*
X58523095Y24153857D01*
X58570714Y24106238D01*
X58665952Y24058619D01*
X58856429Y24058619D01*
X58951667Y24106238D01*
X58999286Y24153857D01*
X59046905Y24249095D01*
X59046905Y24439571D01*
X58999286Y24534810D01*
X58951667Y24582429D01*
X58856429Y24630048D01*
X50284143Y24312619D02*
X49950809Y24788810D01*
X49712714Y24312619D02*
X49712714Y25312619D01*
X50093667Y25312619D01*
X50188905Y25265000D01*
X50236524Y25217381D01*
X50284143Y25122143D01*
X50284143Y24979286D01*
X50236524Y24884048D01*
X50188905Y24836429D01*
X50093667Y24788810D01*
X49712714Y24788810D01*
X50665095Y25217381D02*
X50712714Y25265000D01*
X50807952Y25312619D01*
X51046048Y25312619D01*
X51141286Y25265000D01*
X51188905Y25217381D01*
X51236524Y25122143D01*
X51236524Y25026905D01*
X51188905Y24884048D01*
X50617476Y24312619D01*
X51236524Y24312619D01*
X51712714Y24312619D02*
X51903190Y24312619D01*
X51998429Y24360238D01*
X52046048Y24407857D01*
X52141286Y24550714D01*
X52188905Y24741190D01*
X52188905Y25122143D01*
X52141286Y25217381D01*
X52093667Y25265000D01*
X51998429Y25312619D01*
X51807952Y25312619D01*
X51712714Y25265000D01*
X51665095Y25217381D01*
X51617476Y25122143D01*
X51617476Y24884048D01*
X51665095Y24788810D01*
X51712714Y24741190D01*
X51807952Y24693571D01*
X51998429Y24693571D01*
X52093667Y24741190D01*
X52141286Y24788810D01*
X52188905Y24884048D01*
X53332143Y22090119D02*
X52998809Y22566310D01*
X52760714Y22090119D02*
X52760714Y23090119D01*
X53141667Y23090119D01*
X53236905Y23042500D01*
X53284524Y22994881D01*
X53332143Y22899643D01*
X53332143Y22756786D01*
X53284524Y22661548D01*
X53236905Y22613929D01*
X53141667Y22566310D01*
X52760714Y22566310D01*
X53665476Y23090119D02*
X54284524Y23090119D01*
X53951190Y22709167D01*
X54094048Y22709167D01*
X54189286Y22661548D01*
X54236905Y22613929D01*
X54284524Y22518690D01*
X54284524Y22280595D01*
X54236905Y22185357D01*
X54189286Y22137738D01*
X54094048Y22090119D01*
X53808333Y22090119D01*
X53713095Y22137738D01*
X53665476Y22185357D01*
X54903571Y23090119D02*
X54998810Y23090119D01*
X55094048Y23042500D01*
X55141667Y22994881D01*
X55189286Y22899643D01*
X55236905Y22709167D01*
X55236905Y22471071D01*
X55189286Y22280595D01*
X55141667Y22185357D01*
X55094048Y22137738D01*
X54998810Y22090119D01*
X54903571Y22090119D01*
X54808333Y22137738D01*
X54760714Y22185357D01*
X54713095Y22280595D01*
X54665476Y22471071D01*
X54665476Y22709167D01*
X54713095Y22899643D01*
X54760714Y22994881D01*
X54808333Y23042500D01*
X54903571Y23090119D01*
X61094881Y30472143D02*
X60618690Y30138809D01*
X61094881Y29900714D02*
X60094881Y29900714D01*
X60094881Y30281667D01*
X60142500Y30376905D01*
X60190119Y30424524D01*
X60285357Y30472143D01*
X60428214Y30472143D01*
X60523452Y30424524D01*
X60571071Y30376905D01*
X60618690Y30281667D01*
X60618690Y29900714D01*
X60094881Y30805476D02*
X60094881Y31424524D01*
X60475833Y31091190D01*
X60475833Y31234048D01*
X60523452Y31329286D01*
X60571071Y31376905D01*
X60666310Y31424524D01*
X60904405Y31424524D01*
X60999643Y31376905D01*
X61047262Y31329286D01*
X61094881Y31234048D01*
X61094881Y30948333D01*
X61047262Y30853095D01*
X60999643Y30805476D01*
X61094881Y32376905D02*
X61094881Y31805476D01*
X61094881Y32091190D02*
X60094881Y32091190D01*
X60237738Y31995952D01*
X60332976Y31900714D01*
X60380595Y31805476D01*
X60523381Y37330143D02*
X60047190Y36996809D01*
X60523381Y36758714D02*
X59523381Y36758714D01*
X59523381Y37139667D01*
X59571000Y37234905D01*
X59618619Y37282524D01*
X59713857Y37330143D01*
X59856714Y37330143D01*
X59951952Y37282524D01*
X59999571Y37234905D01*
X60047190Y37139667D01*
X60047190Y36758714D01*
X59523381Y37663476D02*
X59523381Y38282524D01*
X59904333Y37949190D01*
X59904333Y38092048D01*
X59951952Y38187286D01*
X59999571Y38234905D01*
X60094810Y38282524D01*
X60332905Y38282524D01*
X60428143Y38234905D01*
X60475762Y38187286D01*
X60523381Y38092048D01*
X60523381Y37806333D01*
X60475762Y37711095D01*
X60428143Y37663476D01*
X59618619Y38663476D02*
X59571000Y38711095D01*
X59523381Y38806333D01*
X59523381Y39044429D01*
X59571000Y39139667D01*
X59618619Y39187286D01*
X59713857Y39234905D01*
X59809095Y39234905D01*
X59951952Y39187286D01*
X60523381Y38615857D01*
X60523381Y39234905D01*
X65730381Y33393143D02*
X65254190Y33059809D01*
X65730381Y32821714D02*
X64730381Y32821714D01*
X64730381Y33202667D01*
X64778000Y33297905D01*
X64825619Y33345524D01*
X64920857Y33393143D01*
X65063714Y33393143D01*
X65158952Y33345524D01*
X65206571Y33297905D01*
X65254190Y33202667D01*
X65254190Y32821714D01*
X64730381Y33726476D02*
X64730381Y34345524D01*
X65111333Y34012190D01*
X65111333Y34155048D01*
X65158952Y34250286D01*
X65206571Y34297905D01*
X65301810Y34345524D01*
X65539905Y34345524D01*
X65635143Y34297905D01*
X65682762Y34250286D01*
X65730381Y34155048D01*
X65730381Y33869333D01*
X65682762Y33774095D01*
X65635143Y33726476D01*
X64730381Y34678857D02*
X64730381Y35297905D01*
X65111333Y34964571D01*
X65111333Y35107429D01*
X65158952Y35202667D01*
X65206571Y35250286D01*
X65301810Y35297905D01*
X65539905Y35297905D01*
X65635143Y35250286D01*
X65682762Y35202667D01*
X65730381Y35107429D01*
X65730381Y34821714D01*
X65682762Y34726476D01*
X65635143Y34678857D01*
X75557143Y34726619D02*
X75223809Y35202810D01*
X74985714Y34726619D02*
X74985714Y35726619D01*
X75366667Y35726619D01*
X75461905Y35679000D01*
X75509524Y35631381D01*
X75557143Y35536143D01*
X75557143Y35393286D01*
X75509524Y35298048D01*
X75461905Y35250429D01*
X75366667Y35202810D01*
X74985714Y35202810D01*
X75890476Y35726619D02*
X76509524Y35726619D01*
X76176190Y35345667D01*
X76319048Y35345667D01*
X76414286Y35298048D01*
X76461905Y35250429D01*
X76509524Y35155190D01*
X76509524Y34917095D01*
X76461905Y34821857D01*
X76414286Y34774238D01*
X76319048Y34726619D01*
X76033333Y34726619D01*
X75938095Y34774238D01*
X75890476Y34821857D01*
X77366667Y35393286D02*
X77366667Y34726619D01*
X77128571Y35774238D02*
X76890476Y35059952D01*
X77509524Y35059952D01*
X20066095Y31027619D02*
X20066095Y30218095D01*
X20113714Y30122857D01*
X20161333Y30075238D01*
X20256571Y30027619D01*
X20447048Y30027619D01*
X20542286Y30075238D01*
X20589905Y30122857D01*
X20637524Y30218095D01*
X20637524Y31027619D01*
X21066095Y30932381D02*
X21113714Y30980000D01*
X21208952Y31027619D01*
X21447048Y31027619D01*
X21542286Y30980000D01*
X21589905Y30932381D01*
X21637524Y30837143D01*
X21637524Y30741905D01*
X21589905Y30599048D01*
X21018476Y30027619D01*
X21637524Y30027619D01*
X24892095Y27979619D02*
X24892095Y27170095D01*
X24939714Y27074857D01*
X24987333Y27027238D01*
X25082571Y26979619D01*
X25273048Y26979619D01*
X25368286Y27027238D01*
X25415905Y27074857D01*
X25463524Y27170095D01*
X25463524Y27979619D01*
X25844476Y27979619D02*
X26463524Y27979619D01*
X26130190Y27598667D01*
X26273048Y27598667D01*
X26368286Y27551048D01*
X26415905Y27503429D01*
X26463524Y27408190D01*
X26463524Y27170095D01*
X26415905Y27074857D01*
X26368286Y27027238D01*
X26273048Y26979619D01*
X25987333Y26979619D01*
X25892095Y27027238D01*
X25844476Y27074857D01*
X41021095Y35599619D02*
X41021095Y34790095D01*
X41068714Y34694857D01*
X41116333Y34647238D01*
X41211571Y34599619D01*
X41402048Y34599619D01*
X41497286Y34647238D01*
X41544905Y34694857D01*
X41592524Y34790095D01*
X41592524Y35599619D01*
X42497286Y35266286D02*
X42497286Y34599619D01*
X42259190Y35647238D02*
X42021095Y34932952D01*
X42640143Y34932952D01*
X24003095Y54395619D02*
X24003095Y53586095D01*
X24050714Y53490857D01*
X24098333Y53443238D01*
X24193571Y53395619D01*
X24384048Y53395619D01*
X24479286Y53443238D01*
X24526905Y53490857D01*
X24574524Y53586095D01*
X24574524Y54395619D01*
X25479286Y54395619D02*
X25288809Y54395619D01*
X25193571Y54348000D01*
X25145952Y54300381D01*
X25050714Y54157524D01*
X25003095Y53967048D01*
X25003095Y53586095D01*
X25050714Y53490857D01*
X25098333Y53443238D01*
X25193571Y53395619D01*
X25384048Y53395619D01*
X25479286Y53443238D01*
X25526905Y53490857D01*
X25574524Y53586095D01*
X25574524Y53824190D01*
X25526905Y53919429D01*
X25479286Y53967048D01*
X25384048Y54014667D01*
X25193571Y54014667D01*
X25098333Y53967048D01*
X25050714Y53919429D01*
X25003095Y53824190D01*
X39838381Y8128095D02*
X40647905Y8128095D01*
X40743143Y8175714D01*
X40790762Y8223333D01*
X40838381Y8318571D01*
X40838381Y8509048D01*
X40790762Y8604286D01*
X40743143Y8651905D01*
X40647905Y8699524D01*
X39838381Y8699524D01*
X39838381Y9080476D02*
X39838381Y9747143D01*
X40838381Y9318571D01*
X52705095Y28170119D02*
X52705095Y27360595D01*
X52752714Y27265357D01*
X52800333Y27217738D01*
X52895571Y27170119D01*
X53086048Y27170119D01*
X53181286Y27217738D01*
X53228905Y27265357D01*
X53276524Y27360595D01*
X53276524Y28170119D01*
X53895571Y27741548D02*
X53800333Y27789167D01*
X53752714Y27836786D01*
X53705095Y27932024D01*
X53705095Y27979643D01*
X53752714Y28074881D01*
X53800333Y28122500D01*
X53895571Y28170119D01*
X54086048Y28170119D01*
X54181286Y28122500D01*
X54228905Y28074881D01*
X54276524Y27979643D01*
X54276524Y27932024D01*
X54228905Y27836786D01*
X54181286Y27789167D01*
X54086048Y27741548D01*
X53895571Y27741548D01*
X53800333Y27693929D01*
X53752714Y27646310D01*
X53705095Y27551071D01*
X53705095Y27360595D01*
X53752714Y27265357D01*
X53800333Y27217738D01*
X53895571Y27170119D01*
X54086048Y27170119D01*
X54181286Y27217738D01*
X54228905Y27265357D01*
X54276524Y27360595D01*
X54276524Y27551071D01*
X54228905Y27646310D01*
X54181286Y27693929D01*
X54086048Y27741548D01*
X68961095Y35599619D02*
X68961095Y34790095D01*
X69008714Y34694857D01*
X69056333Y34647238D01*
X69151571Y34599619D01*
X69342048Y34599619D01*
X69437286Y34647238D01*
X69484905Y34694857D01*
X69532524Y34790095D01*
X69532524Y35599619D01*
X70056333Y34599619D02*
X70246809Y34599619D01*
X70342048Y34647238D01*
X70389667Y34694857D01*
X70484905Y34837714D01*
X70532524Y35028190D01*
X70532524Y35409143D01*
X70484905Y35504381D01*
X70437286Y35552000D01*
X70342048Y35599619D01*
X70151571Y35599619D01*
X70056333Y35552000D01*
X70008714Y35504381D01*
X69961095Y35409143D01*
X69961095Y35171048D01*
X70008714Y35075810D01*
X70056333Y35028190D01*
X70151571Y34980571D01*
X70342048Y34980571D01*
X70437286Y35028190D01*
X70484905Y35075810D01*
X70532524Y35171048D01*
X51466905Y54586119D02*
X51466905Y53776595D01*
X51514524Y53681357D01*
X51562143Y53633738D01*
X51657381Y53586119D01*
X51847858Y53586119D01*
X51943096Y53633738D01*
X51990715Y53681357D01*
X52038334Y53776595D01*
X52038334Y54586119D01*
X53038334Y53586119D02*
X52466905Y53586119D01*
X52752619Y53586119D02*
X52752619Y54586119D01*
X52657381Y54443262D01*
X52562143Y54348024D01*
X52466905Y54300405D01*
X53990715Y53586119D02*
X53419286Y53586119D01*
X53705000Y53586119D02*
X53705000Y54586119D01*
X53609762Y54443262D01*
X53514524Y54348024D01*
X53419286Y54300405D01*
X57681905Y40505119D02*
X57681905Y41505119D01*
X57920000Y41505119D01*
X58062858Y41457500D01*
X58158096Y41362262D01*
X58205715Y41267024D01*
X58253334Y41076548D01*
X58253334Y40933690D01*
X58205715Y40743214D01*
X58158096Y40647976D01*
X58062858Y40552738D01*
X57920000Y40505119D01*
X57681905Y40505119D01*
X59110477Y41171786D02*
X59110477Y40505119D01*
X58872381Y41552738D02*
X58634286Y40838452D01*
X59253334Y40838452D01*
X17359334Y54887857D02*
X17311715Y54840238D01*
X17168858Y54792619D01*
X17073620Y54792619D01*
X16930762Y54840238D01*
X16835524Y54935476D01*
X16787905Y55030714D01*
X16740286Y55221190D01*
X16740286Y55364048D01*
X16787905Y55554524D01*
X16835524Y55649762D01*
X16930762Y55745000D01*
X17073620Y55792619D01*
X17168858Y55792619D01*
X17311715Y55745000D01*
X17359334Y55697381D01*
X17740286Y55697381D02*
X17787905Y55745000D01*
X17883143Y55792619D01*
X18121239Y55792619D01*
X18216477Y55745000D01*
X18264096Y55697381D01*
X18311715Y55602143D01*
X18311715Y55506905D01*
X18264096Y55364048D01*
X17692667Y54792619D01*
X18311715Y54792619D01*
X60952143Y55459357D02*
X60904524Y55411738D01*
X60761667Y55364119D01*
X60666429Y55364119D01*
X60523571Y55411738D01*
X60428333Y55506976D01*
X60380714Y55602214D01*
X60333095Y55792690D01*
X60333095Y55935548D01*
X60380714Y56126024D01*
X60428333Y56221262D01*
X60523571Y56316500D01*
X60666429Y56364119D01*
X60761667Y56364119D01*
X60904524Y56316500D01*
X60952143Y56268881D01*
X61285476Y56364119D02*
X61904524Y56364119D01*
X61571190Y55983167D01*
X61714048Y55983167D01*
X61809286Y55935548D01*
X61856905Y55887929D01*
X61904524Y55792690D01*
X61904524Y55554595D01*
X61856905Y55459357D01*
X61809286Y55411738D01*
X61714048Y55364119D01*
X61428333Y55364119D01*
X61333095Y55411738D01*
X61285476Y55459357D01*
X62285476Y56268881D02*
X62333095Y56316500D01*
X62428333Y56364119D01*
X62666429Y56364119D01*
X62761667Y56316500D01*
X62809286Y56268881D01*
X62856905Y56173643D01*
X62856905Y56078405D01*
X62809286Y55935548D01*
X62237857Y55364119D01*
X62856905Y55364119D01*
X74287143Y42695857D02*
X74239524Y42648238D01*
X74096667Y42600619D01*
X74001429Y42600619D01*
X73858571Y42648238D01*
X73763333Y42743476D01*
X73715714Y42838714D01*
X73668095Y43029190D01*
X73668095Y43172048D01*
X73715714Y43362524D01*
X73763333Y43457762D01*
X73858571Y43553000D01*
X74001429Y43600619D01*
X74096667Y43600619D01*
X74239524Y43553000D01*
X74287143Y43505381D01*
X74620476Y43600619D02*
X75239524Y43600619D01*
X74906190Y43219667D01*
X75049048Y43219667D01*
X75144286Y43172048D01*
X75191905Y43124429D01*
X75239524Y43029190D01*
X75239524Y42791095D01*
X75191905Y42695857D01*
X75144286Y42648238D01*
X75049048Y42600619D01*
X74763333Y42600619D01*
X74668095Y42648238D01*
X74620476Y42695857D01*
X75572857Y43600619D02*
X76191905Y43600619D01*
X75858571Y43219667D01*
X76001429Y43219667D01*
X76096667Y43172048D01*
X76144286Y43124429D01*
X76191905Y43029190D01*
X76191905Y42791095D01*
X76144286Y42695857D01*
X76096667Y42648238D01*
X76001429Y42600619D01*
X75715714Y42600619D01*
X75620476Y42648238D01*
X75572857Y42695857D01*
X75493643Y12850857D02*
X75446024Y12803238D01*
X75303167Y12755619D01*
X75207929Y12755619D01*
X75065071Y12803238D01*
X74969833Y12898476D01*
X74922214Y12993714D01*
X74874595Y13184190D01*
X74874595Y13327048D01*
X74922214Y13517524D01*
X74969833Y13612762D01*
X75065071Y13708000D01*
X75207929Y13755619D01*
X75303167Y13755619D01*
X75446024Y13708000D01*
X75493643Y13660381D01*
X75826976Y13755619D02*
X76446024Y13755619D01*
X76112690Y13374667D01*
X76255548Y13374667D01*
X76350786Y13327048D01*
X76398405Y13279429D01*
X76446024Y13184190D01*
X76446024Y12946095D01*
X76398405Y12850857D01*
X76350786Y12803238D01*
X76255548Y12755619D01*
X75969833Y12755619D01*
X75874595Y12803238D01*
X75826976Y12850857D01*
X77303167Y13422286D02*
X77303167Y12755619D01*
X77065071Y13803238D02*
X76826976Y13088952D01*
X77446024Y13088952D01*
X69175405Y66857619D02*
X69175405Y67857619D01*
X69413500Y67857619D01*
X69556358Y67810000D01*
X69651596Y67714762D01*
X69699215Y67619524D01*
X69746834Y67429048D01*
X69746834Y67286190D01*
X69699215Y67095714D01*
X69651596Y67000476D01*
X69556358Y66905238D01*
X69413500Y66857619D01*
X69175405Y66857619D01*
X70699215Y66857619D02*
X70127786Y66857619D01*
X70413500Y66857619D02*
X70413500Y67857619D01*
X70318262Y67714762D01*
X70223024Y67619524D01*
X70127786Y67571905D01*
X16676810Y64762119D02*
X16676810Y65762119D01*
X17724429Y64857357D02*
X17676810Y64809738D01*
X17533953Y64762119D01*
X17438715Y64762119D01*
X17295857Y64809738D01*
X17200619Y64904976D01*
X17153000Y65000214D01*
X17105381Y65190690D01*
X17105381Y65333548D01*
X17153000Y65524024D01*
X17200619Y65619262D01*
X17295857Y65714500D01*
X17438715Y65762119D01*
X17533953Y65762119D01*
X17676810Y65714500D01*
X17724429Y65666881D01*
X18676810Y64762119D02*
X18105381Y64762119D01*
X18391095Y64762119D02*
X18391095Y65762119D01*
X18295857Y65619262D01*
X18200619Y65524024D01*
X18105381Y65476405D01*
X44942310Y64508119D02*
X44942310Y65508119D01*
X45989929Y64603357D02*
X45942310Y64555738D01*
X45799453Y64508119D01*
X45704215Y64508119D01*
X45561357Y64555738D01*
X45466119Y64650976D01*
X45418500Y64746214D01*
X45370881Y64936690D01*
X45370881Y65079548D01*
X45418500Y65270024D01*
X45466119Y65365262D01*
X45561357Y65460500D01*
X45704215Y65508119D01*
X45799453Y65508119D01*
X45942310Y65460500D01*
X45989929Y65412881D01*
X46370881Y64555738D02*
X46513738Y64508119D01*
X46751834Y64508119D01*
X46847072Y64555738D01*
X46894691Y64603357D01*
X46942310Y64698595D01*
X46942310Y64793833D01*
X46894691Y64889071D01*
X46847072Y64936690D01*
X46751834Y64984310D01*
X46561357Y65031929D01*
X46466119Y65079548D01*
X46418500Y65127167D01*
X46370881Y65222405D01*
X46370881Y65317643D01*
X46418500Y65412881D01*
X46466119Y65460500D01*
X46561357Y65508119D01*
X46799453Y65508119D01*
X46942310Y65460500D01*
X47370881Y64508119D02*
X47370881Y65508119D01*
X47751834Y65508119D01*
X47847072Y65460500D01*
X47894691Y65412881D01*
X47942310Y65317643D01*
X47942310Y65174786D01*
X47894691Y65079548D01*
X47847072Y65031929D01*
X47751834Y64984310D01*
X47370881Y64984310D01*
X8200000Y21423333D02*
X8676191Y21423333D01*
X8104762Y21137619D02*
X8438095Y22137619D01*
X8771429Y21137619D01*
X9533334Y21804286D02*
X9533334Y20804286D01*
X9533334Y21185238D02*
X9438096Y21137619D01*
X9247619Y21137619D01*
X9152381Y21185238D01*
X9104762Y21232857D01*
X9057143Y21328095D01*
X9057143Y21613810D01*
X9104762Y21709048D01*
X9152381Y21756667D01*
X9247619Y21804286D01*
X9438096Y21804286D01*
X9533334Y21756667D01*
X10438096Y21804286D02*
X10438096Y21137619D01*
X10009524Y21804286D02*
X10009524Y21280476D01*
X10057143Y21185238D01*
X10152381Y21137619D01*
X10295239Y21137619D01*
X10390477Y21185238D01*
X10438096Y21232857D01*
X11342858Y21137619D02*
X11342858Y21661429D01*
X11295239Y21756667D01*
X11200001Y21804286D01*
X11009524Y21804286D01*
X10914286Y21756667D01*
X11342858Y21185238D02*
X11247620Y21137619D01*
X11009524Y21137619D01*
X10914286Y21185238D01*
X10866667Y21280476D01*
X10866667Y21375714D01*
X10914286Y21470952D01*
X11009524Y21518571D01*
X11247620Y21518571D01*
X11342858Y21566190D01*
X11819048Y21137619D02*
X11819048Y22137619D01*
X12200001Y22137619D01*
X12295239Y22090000D01*
X12342858Y22042381D01*
X12390477Y21947143D01*
X12390477Y21804286D01*
X12342858Y21709048D01*
X12295239Y21661429D01*
X12200001Y21613810D01*
X11819048Y21613810D01*
X12819048Y21137619D02*
X12819048Y21804286D01*
X12819048Y22137619D02*
X12771429Y22090000D01*
X12819048Y22042381D01*
X12866667Y22090000D01*
X12819048Y22137619D01*
X12819048Y22042381D01*
X13723810Y21185238D02*
X13628572Y21137619D01*
X13438095Y21137619D01*
X13342857Y21185238D01*
X13295238Y21232857D01*
X13247619Y21328095D01*
X13247619Y21613810D01*
X13295238Y21709048D01*
X13342857Y21756667D01*
X13438095Y21804286D01*
X13628572Y21804286D01*
X13723810Y21756667D01*
X15247620Y21661429D02*
X15390477Y21613810D01*
X15438096Y21566190D01*
X15485715Y21470952D01*
X15485715Y21328095D01*
X15438096Y21232857D01*
X15390477Y21185238D01*
X15295239Y21137619D01*
X14914286Y21137619D01*
X14914286Y22137619D01*
X15247620Y22137619D01*
X15342858Y22090000D01*
X15390477Y22042381D01*
X15438096Y21947143D01*
X15438096Y21851905D01*
X15390477Y21756667D01*
X15342858Y21709048D01*
X15247620Y21661429D01*
X14914286Y21661429D01*
X16342858Y21804286D02*
X16342858Y21137619D01*
X15914286Y21804286D02*
X15914286Y21280476D01*
X15961905Y21185238D01*
X16057143Y21137619D01*
X16200001Y21137619D01*
X16295239Y21185238D01*
X16342858Y21232857D01*
X16771429Y21185238D02*
X16866667Y21137619D01*
X17057143Y21137619D01*
X17152382Y21185238D01*
X17200001Y21280476D01*
X17200001Y21328095D01*
X17152382Y21423333D01*
X17057143Y21470952D01*
X16914286Y21470952D01*
X16819048Y21518571D01*
X16771429Y21613810D01*
X16771429Y21661429D01*
X16819048Y21756667D01*
X16914286Y21804286D01*
X17057143Y21804286D01*
X17152382Y21756667D01*
D13*
X10087429Y65961381D02*
X9603620Y65961381D01*
X9555239Y65477571D01*
X9603620Y65525952D01*
X9700382Y65574333D01*
X9942286Y65574333D01*
X10039048Y65525952D01*
X10087429Y65477571D01*
X10135810Y65380810D01*
X10135810Y65138905D01*
X10087429Y65042143D01*
X10039048Y64993762D01*
X9942286Y64945381D01*
X9700382Y64945381D01*
X9603620Y64993762D01*
X9555239Y65042143D01*
X10426096Y65961381D02*
X10764763Y64945381D01*
X11103429Y65961381D01*
X11877524Y64945381D02*
X11877524Y65961381D01*
X11877524Y64993762D02*
X11780762Y64945381D01*
X11587239Y64945381D01*
X11490477Y64993762D01*
X11442096Y65042143D01*
X11393715Y65138905D01*
X11393715Y65429190D01*
X11442096Y65525952D01*
X11490477Y65574333D01*
X11587239Y65622714D01*
X11780762Y65622714D01*
X11877524Y65574333D01*
X12796762Y64993762D02*
X12700000Y64945381D01*
X12506477Y64945381D01*
X12409715Y64993762D01*
X12361334Y65042143D01*
X12312953Y65138905D01*
X12312953Y65429190D01*
X12361334Y65525952D01*
X12409715Y65574333D01*
X12506477Y65622714D01*
X12700000Y65622714D01*
X12796762Y65574333D01*
D15*
X29106905Y17740286D02*
X29106905Y16740286D01*
X29106905Y17692667D02*
X29202143Y17740286D01*
X29392620Y17740286D01*
X29487858Y17692667D01*
X29535477Y17645048D01*
X29583096Y17549810D01*
X29583096Y17264095D01*
X29535477Y17168857D01*
X29487858Y17121238D01*
X29392620Y17073619D01*
X29202143Y17073619D01*
X29106905Y17121238D01*
X30011667Y17073619D02*
X30011667Y18073619D01*
X30011667Y17597429D02*
X30583096Y17597429D01*
X30583096Y17073619D02*
X30583096Y18073619D01*
X54999286Y17613286D02*
X54999286Y16613286D01*
X54999286Y17565667D02*
X55094524Y17613286D01*
X55285001Y17613286D01*
X55380239Y17565667D01*
X55427858Y17518048D01*
X55475477Y17422810D01*
X55475477Y17137095D01*
X55427858Y17041857D01*
X55380239Y16994238D01*
X55285001Y16946619D01*
X55094524Y16946619D01*
X54999286Y16994238D01*
X55904048Y16946619D02*
X55904048Y17946619D01*
X55904048Y17470429D02*
X56475477Y17470429D01*
X56475477Y16946619D02*
X56475477Y17946619D01*
X57665953Y17994238D02*
X56808810Y16708524D01*
X58189762Y17946619D02*
X58380239Y17946619D01*
X58475477Y17899000D01*
X58570715Y17803762D01*
X58618334Y17613286D01*
X58618334Y17279952D01*
X58570715Y17089476D01*
X58475477Y16994238D01*
X58380239Y16946619D01*
X58189762Y16946619D01*
X58094524Y16994238D01*
X57999286Y17089476D01*
X57951667Y17279952D01*
X57951667Y17613286D01*
X57999286Y17803762D01*
X58094524Y17899000D01*
X58189762Y17946619D01*
X59618334Y16946619D02*
X59285000Y17422810D01*
X59046905Y16946619D02*
X59046905Y17946619D01*
X59427858Y17946619D01*
X59523096Y17899000D01*
X59570715Y17851381D01*
X59618334Y17756143D01*
X59618334Y17613286D01*
X59570715Y17518048D01*
X59523096Y17470429D01*
X59427858Y17422810D01*
X59046905Y17422810D01*
X60046905Y16946619D02*
X60046905Y17946619D01*
X60427858Y17946619D01*
X60523096Y17899000D01*
X60570715Y17851381D01*
X60618334Y17756143D01*
X60618334Y17613286D01*
X60570715Y17518048D01*
X60523096Y17470429D01*
X60427858Y17422810D01*
X60046905Y17422810D01*
X40695714Y57459619D02*
X40695714Y58459619D01*
X41076667Y58459619D01*
X41171905Y58412000D01*
X41219524Y58364381D01*
X41267143Y58269143D01*
X41267143Y58126286D01*
X41219524Y58031048D01*
X41171905Y57983429D01*
X41076667Y57935810D01*
X40695714Y57935810D01*
X41648095Y57507238D02*
X41790952Y57459619D01*
X42029048Y57459619D01*
X42124286Y57507238D01*
X42171905Y57554857D01*
X42219524Y57650095D01*
X42219524Y57745333D01*
X42171905Y57840571D01*
X42124286Y57888190D01*
X42029048Y57935810D01*
X41838571Y57983429D01*
X41743333Y58031048D01*
X41695714Y58078667D01*
X41648095Y58173905D01*
X41648095Y58269143D01*
X41695714Y58364381D01*
X41743333Y58412000D01*
X41838571Y58459619D01*
X42076667Y58459619D01*
X42219524Y58412000D01*
X43171905Y57459619D02*
X42600476Y57459619D01*
X42886190Y57459619D02*
X42886190Y58459619D01*
X42790952Y58316762D01*
X42695714Y58221524D01*
X42600476Y58173905D01*
X68635714Y57459619D02*
X68635714Y58459619D01*
X69016667Y58459619D01*
X69111905Y58412000D01*
X69159524Y58364381D01*
X69207143Y58269143D01*
X69207143Y58126286D01*
X69159524Y58031048D01*
X69111905Y57983429D01*
X69016667Y57935810D01*
X68635714Y57935810D01*
X69588095Y57507238D02*
X69730952Y57459619D01*
X69969048Y57459619D01*
X70064286Y57507238D01*
X70111905Y57554857D01*
X70159524Y57650095D01*
X70159524Y57745333D01*
X70111905Y57840571D01*
X70064286Y57888190D01*
X69969048Y57935810D01*
X69778571Y57983429D01*
X69683333Y58031048D01*
X69635714Y58078667D01*
X69588095Y58173905D01*
X69588095Y58269143D01*
X69635714Y58364381D01*
X69683333Y58412000D01*
X69778571Y58459619D01*
X70016667Y58459619D01*
X70159524Y58412000D01*
X70540476Y58364381D02*
X70588095Y58412000D01*
X70683333Y58459619D01*
X70921429Y58459619D01*
X71016667Y58412000D01*
X71064286Y58364381D01*
X71111905Y58269143D01*
X71111905Y58173905D01*
X71064286Y58031048D01*
X70492857Y57459619D01*
X71111905Y57459619D01*
X18319762Y51482381D02*
X18224524Y51530000D01*
X18129286Y51625238D01*
X17986429Y51768095D01*
X17891190Y51815714D01*
X17795952Y51815714D01*
X17843571Y51577619D02*
X17748333Y51625238D01*
X17653095Y51720476D01*
X17605476Y51910952D01*
X17605476Y52244286D01*
X17653095Y52434762D01*
X17748333Y52530000D01*
X17843571Y52577619D01*
X18034048Y52577619D01*
X18129286Y52530000D01*
X18224524Y52434762D01*
X18272143Y52244286D01*
X18272143Y51910952D01*
X18224524Y51720476D01*
X18129286Y51625238D01*
X18034048Y51577619D01*
X17843571Y51577619D01*
X19224524Y51577619D02*
X18653095Y51577619D01*
X18938809Y51577619D02*
X18938809Y52577619D01*
X18843571Y52434762D01*
X18748333Y52339524D01*
X18653095Y52291905D01*
X18319762Y45767381D02*
X18224524Y45815000D01*
X18129286Y45910238D01*
X17986429Y46053095D01*
X17891190Y46100714D01*
X17795952Y46100714D01*
X17843571Y45862619D02*
X17748333Y45910238D01*
X17653095Y46005476D01*
X17605476Y46195952D01*
X17605476Y46529286D01*
X17653095Y46719762D01*
X17748333Y46815000D01*
X17843571Y46862619D01*
X18034048Y46862619D01*
X18129286Y46815000D01*
X18224524Y46719762D01*
X18272143Y46529286D01*
X18272143Y46195952D01*
X18224524Y46005476D01*
X18129286Y45910238D01*
X18034048Y45862619D01*
X17843571Y45862619D01*
X18653095Y46767381D02*
X18700714Y46815000D01*
X18795952Y46862619D01*
X19034048Y46862619D01*
X19129286Y46815000D01*
X19176905Y46767381D01*
X19224524Y46672143D01*
X19224524Y46576905D01*
X19176905Y46434048D01*
X18605476Y45862619D01*
X19224524Y45862619D01*
X18319762Y39417381D02*
X18224524Y39465000D01*
X18129286Y39560238D01*
X17986429Y39703095D01*
X17891190Y39750714D01*
X17795952Y39750714D01*
X17843571Y39512619D02*
X17748333Y39560238D01*
X17653095Y39655476D01*
X17605476Y39845952D01*
X17605476Y40179286D01*
X17653095Y40369762D01*
X17748333Y40465000D01*
X17843571Y40512619D01*
X18034048Y40512619D01*
X18129286Y40465000D01*
X18224524Y40369762D01*
X18272143Y40179286D01*
X18272143Y39845952D01*
X18224524Y39655476D01*
X18129286Y39560238D01*
X18034048Y39512619D01*
X17843571Y39512619D01*
X18605476Y40512619D02*
X19224524Y40512619D01*
X18891190Y40131667D01*
X19034048Y40131667D01*
X19129286Y40084048D01*
X19176905Y40036429D01*
X19224524Y39941190D01*
X19224524Y39703095D01*
X19176905Y39607857D01*
X19129286Y39560238D01*
X19034048Y39512619D01*
X18748333Y39512619D01*
X18653095Y39560238D01*
X18605476Y39607857D01*
X4984762Y57745381D02*
X4889524Y57793000D01*
X4794286Y57888238D01*
X4651429Y58031095D01*
X4556190Y58078714D01*
X4460952Y58078714D01*
X4508571Y57840619D02*
X4413333Y57888238D01*
X4318095Y57983476D01*
X4270476Y58173952D01*
X4270476Y58507286D01*
X4318095Y58697762D01*
X4413333Y58793000D01*
X4508571Y58840619D01*
X4699048Y58840619D01*
X4794286Y58793000D01*
X4889524Y58697762D01*
X4937143Y58507286D01*
X4937143Y58173952D01*
X4889524Y57983476D01*
X4794286Y57888238D01*
X4699048Y57840619D01*
X4508571Y57840619D01*
X5794286Y58507286D02*
X5794286Y57840619D01*
X5556190Y58888238D02*
X5318095Y58173952D01*
X5937143Y58173952D01*
X10215643Y38155619D02*
X9882309Y38631810D01*
X9644214Y38155619D02*
X9644214Y39155619D01*
X10025167Y39155619D01*
X10120405Y39108000D01*
X10168024Y39060381D01*
X10215643Y38965143D01*
X10215643Y38822286D01*
X10168024Y38727048D01*
X10120405Y38679429D01*
X10025167Y38631810D01*
X9644214Y38631810D01*
X11168024Y38155619D02*
X10596595Y38155619D01*
X10882309Y38155619D02*
X10882309Y39155619D01*
X10787071Y39012762D01*
X10691833Y38917524D01*
X10596595Y38869905D01*
X11787071Y39155619D02*
X11882310Y39155619D01*
X11977548Y39108000D01*
X12025167Y39060381D01*
X12072786Y38965143D01*
X12120405Y38774667D01*
X12120405Y38536571D01*
X12072786Y38346095D01*
X12025167Y38250857D01*
X11977548Y38203238D01*
X11882310Y38155619D01*
X11787071Y38155619D01*
X11691833Y38203238D01*
X11644214Y38250857D01*
X11596595Y38346095D01*
X11548976Y38536571D01*
X11548976Y38774667D01*
X11596595Y38965143D01*
X11644214Y39060381D01*
X11691833Y39108000D01*
X11787071Y39155619D01*
X43172143Y14407619D02*
X42838809Y14883810D01*
X42600714Y14407619D02*
X42600714Y15407619D01*
X42981667Y15407619D01*
X43076905Y15360000D01*
X43124524Y15312381D01*
X43172143Y15217143D01*
X43172143Y15074286D01*
X43124524Y14979048D01*
X43076905Y14931429D01*
X42981667Y14883810D01*
X42600714Y14883810D01*
X43553095Y15312381D02*
X43600714Y15360000D01*
X43695952Y15407619D01*
X43934048Y15407619D01*
X44029286Y15360000D01*
X44076905Y15312381D01*
X44124524Y15217143D01*
X44124524Y15121905D01*
X44076905Y14979048D01*
X43505476Y14407619D01*
X44124524Y14407619D01*
X44981667Y15074286D02*
X44981667Y14407619D01*
X44743571Y15455238D02*
X44505476Y14740952D01*
X45124524Y14740952D01*
X39362143Y42727619D02*
X39028809Y43203810D01*
X38790714Y42727619D02*
X38790714Y43727619D01*
X39171667Y43727619D01*
X39266905Y43680000D01*
X39314524Y43632381D01*
X39362143Y43537143D01*
X39362143Y43394286D01*
X39314524Y43299048D01*
X39266905Y43251429D01*
X39171667Y43203810D01*
X38790714Y43203810D01*
X39743095Y43632381D02*
X39790714Y43680000D01*
X39885952Y43727619D01*
X40124048Y43727619D01*
X40219286Y43680000D01*
X40266905Y43632381D01*
X40314524Y43537143D01*
X40314524Y43441905D01*
X40266905Y43299048D01*
X39695476Y42727619D01*
X40314524Y42727619D01*
X40647857Y43727619D02*
X41314524Y43727619D01*
X40885952Y42727619D01*
X66667143Y37266619D02*
X66333809Y37742810D01*
X66095714Y37266619D02*
X66095714Y38266619D01*
X66476667Y38266619D01*
X66571905Y38219000D01*
X66619524Y38171381D01*
X66667143Y38076143D01*
X66667143Y37933286D01*
X66619524Y37838048D01*
X66571905Y37790429D01*
X66476667Y37742810D01*
X66095714Y37742810D01*
X67000476Y38266619D02*
X67619524Y38266619D01*
X67286190Y37885667D01*
X67429048Y37885667D01*
X67524286Y37838048D01*
X67571905Y37790429D01*
X67619524Y37695190D01*
X67619524Y37457095D01*
X67571905Y37361857D01*
X67524286Y37314238D01*
X67429048Y37266619D01*
X67143333Y37266619D01*
X67048095Y37314238D01*
X67000476Y37361857D01*
X68524286Y38266619D02*
X68048095Y38266619D01*
X68000476Y37790429D01*
X68048095Y37838048D01*
X68143333Y37885667D01*
X68381429Y37885667D01*
X68476667Y37838048D01*
X68524286Y37790429D01*
X68571905Y37695190D01*
X68571905Y37457095D01*
X68524286Y37361857D01*
X68476667Y37314238D01*
X68381429Y37266619D01*
X68143333Y37266619D01*
X68048095Y37314238D01*
X68000476Y37361857D01*
X60952143Y40505119D02*
X60618809Y40981310D01*
X60380714Y40505119D02*
X60380714Y41505119D01*
X60761667Y41505119D01*
X60856905Y41457500D01*
X60904524Y41409881D01*
X60952143Y41314643D01*
X60952143Y41171786D01*
X60904524Y41076548D01*
X60856905Y41028929D01*
X60761667Y40981310D01*
X60380714Y40981310D01*
X61285476Y41505119D02*
X61904524Y41505119D01*
X61571190Y41124167D01*
X61714048Y41124167D01*
X61809286Y41076548D01*
X61856905Y41028929D01*
X61904524Y40933690D01*
X61904524Y40695595D01*
X61856905Y40600357D01*
X61809286Y40552738D01*
X61714048Y40505119D01*
X61428333Y40505119D01*
X61333095Y40552738D01*
X61285476Y40600357D01*
X62761667Y41505119D02*
X62571190Y41505119D01*
X62475952Y41457500D01*
X62428333Y41409881D01*
X62333095Y41267024D01*
X62285476Y41076548D01*
X62285476Y40695595D01*
X62333095Y40600357D01*
X62380714Y40552738D01*
X62475952Y40505119D01*
X62666429Y40505119D01*
X62761667Y40552738D01*
X62809286Y40600357D01*
X62856905Y40695595D01*
X62856905Y40933690D01*
X62809286Y41028929D01*
X62761667Y41076548D01*
X62666429Y41124167D01*
X62475952Y41124167D01*
X62380714Y41076548D01*
X62333095Y41028929D01*
X62285476Y40933690D01*
X74922143Y14406619D02*
X74588809Y14882810D01*
X74350714Y14406619D02*
X74350714Y15406619D01*
X74731667Y15406619D01*
X74826905Y15359000D01*
X74874524Y15311381D01*
X74922143Y15216143D01*
X74922143Y15073286D01*
X74874524Y14978048D01*
X74826905Y14930429D01*
X74731667Y14882810D01*
X74350714Y14882810D01*
X75255476Y15406619D02*
X75874524Y15406619D01*
X75541190Y15025667D01*
X75684048Y15025667D01*
X75779286Y14978048D01*
X75826905Y14930429D01*
X75874524Y14835190D01*
X75874524Y14597095D01*
X75826905Y14501857D01*
X75779286Y14454238D01*
X75684048Y14406619D01*
X75398333Y14406619D01*
X75303095Y14454238D01*
X75255476Y14501857D01*
X76207857Y15406619D02*
X76874524Y15406619D01*
X76445952Y14406619D01*
X71112143Y14407619D02*
X70778809Y14883810D01*
X70540714Y14407619D02*
X70540714Y15407619D01*
X70921667Y15407619D01*
X71016905Y15360000D01*
X71064524Y15312381D01*
X71112143Y15217143D01*
X71112143Y15074286D01*
X71064524Y14979048D01*
X71016905Y14931429D01*
X70921667Y14883810D01*
X70540714Y14883810D01*
X71445476Y15407619D02*
X72064524Y15407619D01*
X71731190Y15026667D01*
X71874048Y15026667D01*
X71969286Y14979048D01*
X72016905Y14931429D01*
X72064524Y14836190D01*
X72064524Y14598095D01*
X72016905Y14502857D01*
X71969286Y14455238D01*
X71874048Y14407619D01*
X71588333Y14407619D01*
X71493095Y14455238D01*
X71445476Y14502857D01*
X72635952Y14979048D02*
X72540714Y15026667D01*
X72493095Y15074286D01*
X72445476Y15169524D01*
X72445476Y15217143D01*
X72493095Y15312381D01*
X72540714Y15360000D01*
X72635952Y15407619D01*
X72826429Y15407619D01*
X72921667Y15360000D01*
X72969286Y15312381D01*
X73016905Y15217143D01*
X73016905Y15169524D01*
X72969286Y15074286D01*
X72921667Y15026667D01*
X72826429Y14979048D01*
X72635952Y14979048D01*
X72540714Y14931429D01*
X72493095Y14883810D01*
X72445476Y14788571D01*
X72445476Y14598095D01*
X72493095Y14502857D01*
X72540714Y14455238D01*
X72635952Y14407619D01*
X72826429Y14407619D01*
X72921667Y14455238D01*
X72969286Y14502857D01*
X73016905Y14598095D01*
X73016905Y14788571D01*
X72969286Y14883810D01*
X72921667Y14931429D01*
X72826429Y14979048D01*
X59682143Y49395119D02*
X59348809Y49871310D01*
X59110714Y49395119D02*
X59110714Y50395119D01*
X59491667Y50395119D01*
X59586905Y50347500D01*
X59634524Y50299881D01*
X59682143Y50204643D01*
X59682143Y50061786D01*
X59634524Y49966548D01*
X59586905Y49918929D01*
X59491667Y49871310D01*
X59110714Y49871310D01*
X60015476Y50395119D02*
X60634524Y50395119D01*
X60301190Y50014167D01*
X60444048Y50014167D01*
X60539286Y49966548D01*
X60586905Y49918929D01*
X60634524Y49823690D01*
X60634524Y49585595D01*
X60586905Y49490357D01*
X60539286Y49442738D01*
X60444048Y49395119D01*
X60158333Y49395119D01*
X60063095Y49442738D01*
X60015476Y49490357D01*
X61110714Y49395119D02*
X61301190Y49395119D01*
X61396429Y49442738D01*
X61444048Y49490357D01*
X61539286Y49633214D01*
X61586905Y49823690D01*
X61586905Y50204643D01*
X61539286Y50299881D01*
X61491667Y50347500D01*
X61396429Y50395119D01*
X61205952Y50395119D01*
X61110714Y50347500D01*
X61063095Y50299881D01*
X61015476Y50204643D01*
X61015476Y49966548D01*
X61063095Y49871310D01*
X61110714Y49823690D01*
X61205952Y49776071D01*
X61396429Y49776071D01*
X61491667Y49823690D01*
X61539286Y49871310D01*
X61586905Y49966548D01*
X52697143Y44315119D02*
X52363809Y44791310D01*
X52125714Y44315119D02*
X52125714Y45315119D01*
X52506667Y45315119D01*
X52601905Y45267500D01*
X52649524Y45219881D01*
X52697143Y45124643D01*
X52697143Y44981786D01*
X52649524Y44886548D01*
X52601905Y44838929D01*
X52506667Y44791310D01*
X52125714Y44791310D01*
X53554286Y44981786D02*
X53554286Y44315119D01*
X53316190Y45362738D02*
X53078095Y44648452D01*
X53697143Y44648452D01*
X54268571Y45315119D02*
X54363810Y45315119D01*
X54459048Y45267500D01*
X54506667Y45219881D01*
X54554286Y45124643D01*
X54601905Y44934167D01*
X54601905Y44696071D01*
X54554286Y44505595D01*
X54506667Y44410357D01*
X54459048Y44362738D01*
X54363810Y44315119D01*
X54268571Y44315119D01*
X54173333Y44362738D01*
X54125714Y44410357D01*
X54078095Y44505595D01*
X54030476Y44696071D01*
X54030476Y44934167D01*
X54078095Y45124643D01*
X54125714Y45219881D01*
X54173333Y45267500D01*
X54268571Y45315119D01*
X67302143Y42727619D02*
X66968809Y43203810D01*
X66730714Y42727619D02*
X66730714Y43727619D01*
X67111667Y43727619D01*
X67206905Y43680000D01*
X67254524Y43632381D01*
X67302143Y43537143D01*
X67302143Y43394286D01*
X67254524Y43299048D01*
X67206905Y43251429D01*
X67111667Y43203810D01*
X66730714Y43203810D01*
X68159286Y43394286D02*
X68159286Y42727619D01*
X67921190Y43775238D02*
X67683095Y43060952D01*
X68302143Y43060952D01*
X69206905Y42727619D02*
X68635476Y42727619D01*
X68921190Y42727619D02*
X68921190Y43727619D01*
X68825952Y43584762D01*
X68730714Y43489524D01*
X68635476Y43441905D01*
D17*
X36074048Y18475476D02*
X35650715Y19080238D01*
X35348334Y18475476D02*
X35348334Y19745476D01*
X35832143Y19745476D01*
X35953096Y19685000D01*
X36013572Y19624524D01*
X36074048Y19503571D01*
X36074048Y19322143D01*
X36013572Y19201190D01*
X35953096Y19140714D01*
X35832143Y19080238D01*
X35348334Y19080238D01*
X36436905Y19745476D02*
X36860239Y18475476D01*
X37283572Y19745476D01*
X38372143Y18475476D02*
X37646429Y18475476D01*
X38009286Y18475476D02*
X38009286Y19745476D01*
X37888334Y19564048D01*
X37767381Y19443095D01*
X37646429Y19382619D01*
X44964048Y18475476D02*
X44540715Y19080238D01*
X44238334Y18475476D02*
X44238334Y19745476D01*
X44722143Y19745476D01*
X44843096Y19685000D01*
X44903572Y19624524D01*
X44964048Y19503571D01*
X44964048Y19322143D01*
X44903572Y19201190D01*
X44843096Y19140714D01*
X44722143Y19080238D01*
X44238334Y19080238D01*
X45326905Y19745476D02*
X45750239Y18475476D01*
X46173572Y19745476D01*
X46536429Y19624524D02*
X46596905Y19685000D01*
X46717857Y19745476D01*
X47020238Y19745476D01*
X47141191Y19685000D01*
X47201667Y19624524D01*
X47262143Y19503571D01*
X47262143Y19382619D01*
X47201667Y19201190D01*
X46475953Y18475476D01*
X47262143Y18475476D01*
X64014048Y18475476D02*
X63590715Y19080238D01*
X63288334Y18475476D02*
X63288334Y19745476D01*
X63772143Y19745476D01*
X63893096Y19685000D01*
X63953572Y19624524D01*
X64014048Y19503571D01*
X64014048Y19322143D01*
X63953572Y19201190D01*
X63893096Y19140714D01*
X63772143Y19080238D01*
X63288334Y19080238D01*
X64376905Y19745476D02*
X64800239Y18475476D01*
X65223572Y19745476D01*
X65525953Y19745476D02*
X66312143Y19745476D01*
X65888810Y19261667D01*
X66070238Y19261667D01*
X66191191Y19201190D01*
X66251667Y19140714D01*
X66312143Y19019762D01*
X66312143Y18717381D01*
X66251667Y18596429D01*
X66191191Y18535952D01*
X66070238Y18475476D01*
X65707381Y18475476D01*
X65586429Y18535952D01*
X65525953Y18596429D01*
X72904048Y18475476D02*
X72480715Y19080238D01*
X72178334Y18475476D02*
X72178334Y19745476D01*
X72662143Y19745476D01*
X72783096Y19685000D01*
X72843572Y19624524D01*
X72904048Y19503571D01*
X72904048Y19322143D01*
X72843572Y19201190D01*
X72783096Y19140714D01*
X72662143Y19080238D01*
X72178334Y19080238D01*
X73266905Y19745476D02*
X73690239Y18475476D01*
X74113572Y19745476D01*
X75081191Y19322143D02*
X75081191Y18475476D01*
X74778810Y19805952D02*
X74476429Y18898810D01*
X75262619Y18898810D01*
D15*
X22756905Y39965286D02*
X22756905Y38965286D01*
X22756905Y39917667D02*
X22852143Y39965286D01*
X23042620Y39965286D01*
X23137858Y39917667D01*
X23185477Y39870048D01*
X23233096Y39774810D01*
X23233096Y39489095D01*
X23185477Y39393857D01*
X23137858Y39346238D01*
X23042620Y39298619D01*
X22852143Y39298619D01*
X22756905Y39346238D01*
X23661667Y39298619D02*
X23661667Y40298619D01*
X23661667Y39822429D02*
X24233096Y39822429D01*
X24233096Y39298619D02*
X24233096Y40298619D01*
X50339762Y40298619D02*
X50530239Y40298619D01*
X50625477Y40251000D01*
X50720715Y40155762D01*
X50768334Y39965286D01*
X50768334Y39631952D01*
X50720715Y39441476D01*
X50625477Y39346238D01*
X50530239Y39298619D01*
X50339762Y39298619D01*
X50244524Y39346238D01*
X50149286Y39441476D01*
X50101667Y39631952D01*
X50101667Y39965286D01*
X50149286Y40155762D01*
X50244524Y40251000D01*
X50339762Y40298619D01*
X51768334Y39298619D02*
X51435000Y39774810D01*
X51196905Y39298619D02*
X51196905Y40298619D01*
X51577858Y40298619D01*
X51673096Y40251000D01*
X51720715Y40203381D01*
X51768334Y40108143D01*
X51768334Y39965286D01*
X51720715Y39870048D01*
X51673096Y39822429D01*
X51577858Y39774810D01*
X51196905Y39774810D01*
X52196905Y39298619D02*
X52196905Y40298619D01*
X52577858Y40298619D01*
X52673096Y40251000D01*
X52720715Y40203381D01*
X52768334Y40108143D01*
X52768334Y39965286D01*
X52720715Y39870048D01*
X52673096Y39822429D01*
X52577858Y39774810D01*
X52196905Y39774810D01*
X2984595Y44553119D02*
X2984595Y43743595D01*
X3032214Y43648357D01*
X3079833Y43600738D01*
X3175071Y43553119D01*
X3365548Y43553119D01*
X3460786Y43600738D01*
X3508405Y43648357D01*
X3556024Y43743595D01*
X3556024Y44553119D01*
X4556024Y43553119D02*
X3984595Y43553119D01*
X4270309Y43553119D02*
X4270309Y44553119D01*
X4175071Y44410262D01*
X4079833Y44315024D01*
X3984595Y44267405D01*
D13*
X34023905Y43990381D02*
X34023905Y43167905D01*
X34072286Y43071143D01*
X34120667Y43022762D01*
X34217429Y42974381D01*
X34410952Y42974381D01*
X34507714Y43022762D01*
X34556095Y43071143D01*
X34604476Y43167905D01*
X34604476Y43990381D01*
X35572095Y43990381D02*
X35088286Y43990381D01*
X35039905Y43506571D01*
X35088286Y43554952D01*
X35185048Y43603333D01*
X35426952Y43603333D01*
X35523714Y43554952D01*
X35572095Y43506571D01*
X35620476Y43409810D01*
X35620476Y43167905D01*
X35572095Y43071143D01*
X35523714Y43022762D01*
X35426952Y42974381D01*
X35185048Y42974381D01*
X35088286Y43022762D01*
X35039905Y43071143D01*
X61988096Y43990381D02*
X61988096Y43167905D01*
X62036477Y43071143D01*
X62084858Y43022762D01*
X62181620Y42974381D01*
X62375143Y42974381D01*
X62471905Y43022762D01*
X62520286Y43071143D01*
X62568667Y43167905D01*
X62568667Y43990381D01*
X63584667Y42974381D02*
X63004096Y42974381D01*
X63294382Y42974381D02*
X63294382Y43990381D01*
X63197620Y43845238D01*
X63100858Y43748476D01*
X63004096Y43700095D01*
X64213620Y43990381D02*
X64310381Y43990381D01*
X64407143Y43942000D01*
X64455524Y43893619D01*
X64503905Y43796857D01*
X64552286Y43603333D01*
X64552286Y43361429D01*
X64503905Y43167905D01*
X64455524Y43071143D01*
X64407143Y43022762D01*
X64310381Y42974381D01*
X64213620Y42974381D01*
X64116858Y43022762D01*
X64068477Y43071143D01*
X64020096Y43167905D01*
X63971715Y43361429D01*
X63971715Y43603333D01*
X64020096Y43796857D01*
X64068477Y43893619D01*
X64116858Y43942000D01*
X64213620Y43990381D01*
D15*
X67707381Y7905905D02*
X68516905Y7905905D01*
X68612143Y7953524D01*
X68659762Y8001143D01*
X68707381Y8096381D01*
X68707381Y8286858D01*
X68659762Y8382096D01*
X68612143Y8429715D01*
X68516905Y8477334D01*
X67707381Y8477334D01*
X68707381Y9477334D02*
X68707381Y8905905D01*
X68707381Y9191619D02*
X67707381Y9191619D01*
X67850238Y9096381D01*
X67945476Y9001143D01*
X67993095Y8905905D01*
X67802619Y9858286D02*
X67755000Y9905905D01*
X67707381Y10001143D01*
X67707381Y10239239D01*
X67755000Y10334477D01*
X67802619Y10382096D01*
X67897857Y10429715D01*
X67993095Y10429715D01*
X68135952Y10382096D01*
X68707381Y9810667D01*
X68707381Y10429715D01*
X25225476Y66333619D02*
X25892143Y65333619D01*
X25892143Y66333619D02*
X25225476Y65333619D01*
X26796905Y65333619D02*
X26225476Y65333619D01*
X26511190Y65333619D02*
X26511190Y66333619D01*
X26415952Y66190762D01*
X26320714Y66095524D01*
X26225476Y66047905D01*
X57689762Y62698381D02*
X57594524Y62746000D01*
X57499286Y62841238D01*
X57356429Y62984095D01*
X57261190Y63031714D01*
X57165952Y63031714D01*
X57213571Y62793619D02*
X57118333Y62841238D01*
X57023095Y62936476D01*
X56975476Y63126952D01*
X56975476Y63460286D01*
X57023095Y63650762D01*
X57118333Y63746000D01*
X57213571Y63793619D01*
X57404048Y63793619D01*
X57499286Y63746000D01*
X57594524Y63650762D01*
X57642143Y63460286D01*
X57642143Y63126952D01*
X57594524Y62936476D01*
X57499286Y62841238D01*
X57404048Y62793619D01*
X57213571Y62793619D01*
X58499286Y63793619D02*
X58308809Y63793619D01*
X58213571Y63746000D01*
X58165952Y63698381D01*
X58070714Y63555524D01*
X58023095Y63365048D01*
X58023095Y62984095D01*
X58070714Y62888857D01*
X58118333Y62841238D01*
X58213571Y62793619D01*
X58404048Y62793619D01*
X58499286Y62841238D01*
X58546905Y62888857D01*
X58594524Y62984095D01*
X58594524Y63222190D01*
X58546905Y63317429D01*
X58499286Y63365048D01*
X58404048Y63412667D01*
X58213571Y63412667D01*
X58118333Y63365048D01*
X58070714Y63317429D01*
X58023095Y63222190D01*
X28098762Y58380381D02*
X28003524Y58428000D01*
X27908286Y58523238D01*
X27765429Y58666095D01*
X27670190Y58713714D01*
X27574952Y58713714D01*
X27622571Y58475619D02*
X27527333Y58523238D01*
X27432095Y58618476D01*
X27384476Y58808952D01*
X27384476Y59142286D01*
X27432095Y59332762D01*
X27527333Y59428000D01*
X27622571Y59475619D01*
X27813048Y59475619D01*
X27908286Y59428000D01*
X28003524Y59332762D01*
X28051143Y59142286D01*
X28051143Y58808952D01*
X28003524Y58618476D01*
X27908286Y58523238D01*
X27813048Y58475619D01*
X27622571Y58475619D01*
X28384476Y59475619D02*
X29051143Y59475619D01*
X28622571Y58475619D01*
X56165762Y58253381D02*
X56070524Y58301000D01*
X55975286Y58396238D01*
X55832429Y58539095D01*
X55737190Y58586714D01*
X55641952Y58586714D01*
X55689571Y58348619D02*
X55594333Y58396238D01*
X55499095Y58491476D01*
X55451476Y58681952D01*
X55451476Y59015286D01*
X55499095Y59205762D01*
X55594333Y59301000D01*
X55689571Y59348619D01*
X55880048Y59348619D01*
X55975286Y59301000D01*
X56070524Y59205762D01*
X56118143Y59015286D01*
X56118143Y58681952D01*
X56070524Y58491476D01*
X55975286Y58396238D01*
X55880048Y58348619D01*
X55689571Y58348619D01*
X56689571Y58920048D02*
X56594333Y58967667D01*
X56546714Y59015286D01*
X56499095Y59110524D01*
X56499095Y59158143D01*
X56546714Y59253381D01*
X56594333Y59301000D01*
X56689571Y59348619D01*
X56880048Y59348619D01*
X56975286Y59301000D01*
X57022905Y59253381D01*
X57070524Y59158143D01*
X57070524Y59110524D01*
X57022905Y59015286D01*
X56975286Y58967667D01*
X56880048Y58920048D01*
X56689571Y58920048D01*
X56594333Y58872429D01*
X56546714Y58824810D01*
X56499095Y58729571D01*
X56499095Y58539095D01*
X56546714Y58443857D01*
X56594333Y58396238D01*
X56689571Y58348619D01*
X56880048Y58348619D01*
X56975286Y58396238D01*
X57022905Y58443857D01*
X57070524Y58539095D01*
X57070524Y58729571D01*
X57022905Y58824810D01*
X56975286Y58872429D01*
X56880048Y58920048D01*
X33012143Y62666619D02*
X32678809Y63142810D01*
X32440714Y62666619D02*
X32440714Y63666619D01*
X32821667Y63666619D01*
X32916905Y63619000D01*
X32964524Y63571381D01*
X33012143Y63476143D01*
X33012143Y63333286D01*
X32964524Y63238048D01*
X32916905Y63190429D01*
X32821667Y63142810D01*
X32440714Y63142810D01*
X33869286Y63333286D02*
X33869286Y62666619D01*
X33631190Y63714238D02*
X33393095Y62999952D01*
X34012143Y62999952D01*
X34345476Y63571381D02*
X34393095Y63619000D01*
X34488333Y63666619D01*
X34726429Y63666619D01*
X34821667Y63619000D01*
X34869286Y63571381D01*
X34916905Y63476143D01*
X34916905Y63380905D01*
X34869286Y63238048D01*
X34297857Y62666619D01*
X34916905Y62666619D01*
X50538143Y62666619D02*
X50204809Y63142810D01*
X49966714Y62666619D02*
X49966714Y63666619D01*
X50347667Y63666619D01*
X50442905Y63619000D01*
X50490524Y63571381D01*
X50538143Y63476143D01*
X50538143Y63333286D01*
X50490524Y63238048D01*
X50442905Y63190429D01*
X50347667Y63142810D01*
X49966714Y63142810D01*
X51395286Y63333286D02*
X51395286Y62666619D01*
X51157190Y63714238D02*
X50919095Y62999952D01*
X51538143Y62999952D01*
X51823857Y63666619D02*
X52442905Y63666619D01*
X52109571Y63285667D01*
X52252429Y63285667D01*
X52347667Y63238048D01*
X52395286Y63190429D01*
X52442905Y63095190D01*
X52442905Y62857095D01*
X52395286Y62761857D01*
X52347667Y62714238D01*
X52252429Y62666619D01*
X51966714Y62666619D01*
X51871476Y62714238D01*
X51823857Y62761857D01*
X36187143Y62666619D02*
X35853809Y63142810D01*
X35615714Y62666619D02*
X35615714Y63666619D01*
X35996667Y63666619D01*
X36091905Y63619000D01*
X36139524Y63571381D01*
X36187143Y63476143D01*
X36187143Y63333286D01*
X36139524Y63238048D01*
X36091905Y63190429D01*
X35996667Y63142810D01*
X35615714Y63142810D01*
X37044286Y63333286D02*
X37044286Y62666619D01*
X36806190Y63714238D02*
X36568095Y62999952D01*
X37187143Y62999952D01*
X37996667Y63333286D02*
X37996667Y62666619D01*
X37758571Y63714238D02*
X37520476Y62999952D01*
X38139524Y62999952D01*
X53586143Y62666619D02*
X53252809Y63142810D01*
X53014714Y62666619D02*
X53014714Y63666619D01*
X53395667Y63666619D01*
X53490905Y63619000D01*
X53538524Y63571381D01*
X53586143Y63476143D01*
X53586143Y63333286D01*
X53538524Y63238048D01*
X53490905Y63190429D01*
X53395667Y63142810D01*
X53014714Y63142810D01*
X54443286Y63333286D02*
X54443286Y62666619D01*
X54205190Y63714238D02*
X53967095Y62999952D01*
X54586143Y62999952D01*
X55443286Y63666619D02*
X54967095Y63666619D01*
X54919476Y63190429D01*
X54967095Y63238048D01*
X55062333Y63285667D01*
X55300429Y63285667D01*
X55395667Y63238048D01*
X55443286Y63190429D01*
X55490905Y63095190D01*
X55490905Y62857095D01*
X55443286Y62761857D01*
X55395667Y62714238D01*
X55300429Y62666619D01*
X55062333Y62666619D01*
X54967095Y62714238D01*
X54919476Y62761857D01*
M02*
