G04 #@! TF.FileFunction,Soldermask,Top*
%FSLAX46Y46*%
G04 Gerber Fmt 4.6, Leading zero omitted, Abs format (unit mm)*
G04 Created by KiCad (PCBNEW 4.0.7) date Sun Nov 26 02:27:56 2017*
%MOMM*%
%LPD*%
G01*
G04 APERTURE LIST*
%ADD10C,0.127000*%
%ADD11R,1.200000X1.300000*%
%ADD12R,1.650000X1.400000*%
%ADD13R,0.850000X0.990000*%
%ADD14R,1.400000X1.650000*%
%ADD15R,1.598880X1.598880*%
%ADD16R,1.700000X1.100000*%
%ADD17R,1.100000X1.700000*%
%ADD18R,1.000000X1.950000*%
%ADD19R,1.950000X1.000000*%
%ADD20R,1.900000X1.300000*%
%ADD21R,1.400000X0.770000*%
%ADD22R,0.770000X1.400000*%
%ADD23R,1.462500X1.462500*%
%ADD24R,2.100000X2.100000*%
%ADD25O,2.100000X2.100000*%
%ADD26C,1.820000*%
%ADD27C,3.200000*%
%ADD28R,2.700000X2.700000*%
%ADD29C,2.700000*%
%ADD30O,3.900120X7.400240*%
%ADD31O,2.000200X2.899360*%
%ADD32R,2.200000X1.600000*%
%ADD33R,1.300000X1.200000*%
%ADD34R,1.400000X3.600000*%
%ADD35R,1.416000X3.194000*%
%ADD36C,1.900000*%
%ADD37R,4.200000X2.400000*%
%ADD38R,1.900000X2.400000*%
%ADD39R,1.100000X0.650000*%
%ADD40R,2.050000X2.780000*%
%ADD41R,2.400000X0.800000*%
G04 APERTURE END LIST*
D10*
D11*
X30795000Y61960000D03*
X28895000Y61960000D03*
X29845000Y59960000D03*
D12*
X8255000Y54880000D03*
X8255000Y56880000D03*
D13*
X30480000Y37680000D03*
X30480000Y39790000D03*
D14*
X21955000Y66040000D03*
X19955000Y66040000D03*
D12*
X15875000Y61960000D03*
X15875000Y59960000D03*
D14*
X7890000Y52705000D03*
X9890000Y52705000D03*
D12*
X19050000Y25130000D03*
X19050000Y23130000D03*
D14*
X28305000Y36195000D03*
X26305000Y36195000D03*
D12*
X24765000Y29480000D03*
X24765000Y31480000D03*
X33655000Y25670000D03*
X33655000Y27670000D03*
D14*
X45450000Y36195000D03*
X43450000Y36195000D03*
D12*
X35560000Y33925000D03*
X35560000Y35925000D03*
D14*
X41640000Y27305000D03*
X39640000Y27305000D03*
D12*
X48260000Y26940000D03*
X48260000Y28940000D03*
X27940000Y41640000D03*
X27940000Y39640000D03*
X29210000Y46675000D03*
X29210000Y48675000D03*
D14*
X28845000Y52070000D03*
X30845000Y52070000D03*
X43450000Y3175000D03*
X45450000Y3175000D03*
D12*
X33655000Y52340000D03*
X33655000Y54340000D03*
X46990000Y41640000D03*
X46990000Y39640000D03*
X48260000Y9795000D03*
X48260000Y11795000D03*
D14*
X56245000Y36195000D03*
X54245000Y36195000D03*
D12*
X52705000Y29480000D03*
X52705000Y31480000D03*
X61595000Y25670000D03*
X61595000Y27670000D03*
D14*
X73390000Y36195000D03*
X71390000Y36195000D03*
D12*
X63500000Y33925000D03*
X63500000Y35925000D03*
D14*
X69580000Y27305000D03*
X67580000Y27305000D03*
D12*
X76200000Y26940000D03*
X76200000Y28940000D03*
X55880000Y41640000D03*
X55880000Y39640000D03*
X57150000Y46625000D03*
X57150000Y48625000D03*
D14*
X56785000Y52070000D03*
X58785000Y52070000D03*
X71390000Y3175000D03*
X73390000Y3175000D03*
D15*
X72610980Y59690000D03*
X74709020Y59690000D03*
D16*
X53975000Y57465000D03*
X53975000Y55565000D03*
X51435000Y57465000D03*
X51435000Y55565000D03*
D17*
X65720000Y64770000D03*
X63820000Y64770000D03*
X65720000Y62230000D03*
X63820000Y62230000D03*
X65720000Y67310000D03*
X63820000Y67310000D03*
X14920000Y53340000D03*
X13020000Y53340000D03*
X14920000Y50800000D03*
X13020000Y50800000D03*
X13020000Y48260000D03*
X14920000Y48260000D03*
X13020000Y45085000D03*
X14920000Y45085000D03*
X13020000Y42545000D03*
X14920000Y42545000D03*
X13020000Y36195000D03*
X14920000Y36195000D03*
X63820000Y59690000D03*
X65720000Y59690000D03*
D16*
X29845000Y21275000D03*
X29845000Y23175000D03*
D17*
X26985000Y24765000D03*
X25085000Y24765000D03*
D16*
X26035000Y21270000D03*
X26035000Y19370000D03*
X34290000Y32065000D03*
X34290000Y30165000D03*
D17*
X30800000Y35560000D03*
X32700000Y35560000D03*
D16*
X36830000Y32065000D03*
X36830000Y30165000D03*
X48260000Y33970000D03*
X48260000Y32070000D03*
D17*
X38420000Y36195000D03*
X40320000Y36195000D03*
D16*
X33655000Y37785000D03*
X33655000Y39685000D03*
D17*
X46675000Y16510000D03*
X48575000Y16510000D03*
D16*
X32385000Y48575000D03*
X32385000Y46675000D03*
X25400000Y41595000D03*
X25400000Y43495000D03*
X57785000Y21275000D03*
X57785000Y23175000D03*
D17*
X54925000Y24765000D03*
X53025000Y24765000D03*
D16*
X53975000Y21270000D03*
X53975000Y19370000D03*
X62230000Y32065000D03*
X62230000Y30165000D03*
D17*
X58740000Y35560000D03*
X60640000Y35560000D03*
D16*
X64770000Y32065000D03*
X64770000Y30165000D03*
X76200000Y33970000D03*
X76200000Y32070000D03*
D18*
X19050000Y33180000D03*
X17780000Y33180000D03*
X16510000Y33180000D03*
X15240000Y33180000D03*
X15240000Y27780000D03*
X16510000Y27780000D03*
X17780000Y27780000D03*
X19050000Y27780000D03*
X27305000Y27620000D03*
X28575000Y27620000D03*
X29845000Y27620000D03*
X31115000Y27620000D03*
X31115000Y33020000D03*
X29845000Y33020000D03*
X28575000Y33020000D03*
X27305000Y33020000D03*
D19*
X39845000Y33655000D03*
X39845000Y32385000D03*
X39845000Y31115000D03*
X39845000Y29845000D03*
X45245000Y29845000D03*
X45245000Y31115000D03*
X45245000Y32385000D03*
X45245000Y33655000D03*
D18*
X26670000Y52230000D03*
X25400000Y52230000D03*
X24130000Y52230000D03*
X22860000Y52230000D03*
X22860000Y46830000D03*
X24130000Y46830000D03*
X25400000Y46830000D03*
X26670000Y46830000D03*
X41910000Y6190000D03*
X43180000Y6190000D03*
X44450000Y6190000D03*
X45720000Y6190000D03*
X45720000Y11590000D03*
X44450000Y11590000D03*
X43180000Y11590000D03*
X41910000Y11590000D03*
X55245000Y27780000D03*
X56515000Y27780000D03*
X57785000Y27780000D03*
X59055000Y27780000D03*
X59055000Y33180000D03*
X57785000Y33180000D03*
X56515000Y33180000D03*
X55245000Y33180000D03*
D19*
X67785000Y33655000D03*
X67785000Y32385000D03*
X67785000Y31115000D03*
X67785000Y29845000D03*
X73185000Y29845000D03*
X73185000Y31115000D03*
X73185000Y32385000D03*
X73185000Y33655000D03*
D18*
X54610000Y52230000D03*
X53340000Y52230000D03*
X52070000Y52230000D03*
X50800000Y52230000D03*
X50800000Y46830000D03*
X52070000Y46830000D03*
X53340000Y46830000D03*
X54610000Y46830000D03*
D13*
X58420000Y37680000D03*
X58420000Y39790000D03*
D14*
X21320000Y55245000D03*
X19320000Y55245000D03*
D12*
X61595000Y52340000D03*
X61595000Y54340000D03*
X74930000Y41640000D03*
X74930000Y39640000D03*
X76200000Y9795000D03*
X76200000Y11795000D03*
D20*
X75210000Y66560000D03*
X75210000Y68060000D03*
X72110000Y68060000D03*
X72110000Y66560000D03*
D21*
X23701250Y58906250D03*
X23701250Y59556250D03*
X23701250Y60206250D03*
X23701250Y60856250D03*
X23701250Y61506250D03*
X23701250Y62156250D03*
X23701250Y62806250D03*
D22*
X22801250Y63706250D03*
X22151250Y63706250D03*
X21501250Y63706250D03*
X20851250Y63706250D03*
X20201250Y63706250D03*
X19551250Y63706250D03*
X18901250Y63706250D03*
D21*
X18001250Y62806250D03*
X18001250Y62156250D03*
X18001250Y61506250D03*
X18001250Y60856250D03*
X18001250Y60206250D03*
X18001250Y59556250D03*
X18001250Y58906250D03*
D22*
X18901250Y58006250D03*
X19551250Y58006250D03*
X20201250Y58006250D03*
X20851250Y58006250D03*
X21501250Y58006250D03*
X22151250Y58006250D03*
X22801250Y58006250D03*
D23*
X19257500Y62450000D03*
X19257500Y61387500D03*
X19257500Y60325000D03*
X19257500Y59262500D03*
X20320000Y62450000D03*
X20320000Y61387500D03*
X20320000Y60325000D03*
X20320000Y59262500D03*
X21382500Y62450000D03*
X21382500Y61387500D03*
X21382500Y60325000D03*
X21382500Y59262500D03*
X22445000Y62450000D03*
X22445000Y61387500D03*
X22445000Y60325000D03*
X22445000Y59262500D03*
D24*
X33655000Y67310000D03*
D25*
X36195000Y67310000D03*
X38735000Y67310000D03*
X41275000Y67310000D03*
X43815000Y67310000D03*
X46355000Y67310000D03*
D26*
X9200000Y19440005D03*
X11700000Y19440005D03*
X13700000Y19440005D03*
X16200000Y19440005D03*
X9200000Y16820005D03*
X11700000Y16820005D03*
X13700000Y16820005D03*
X16200000Y16820005D03*
D27*
X19270000Y14110005D03*
X19270000Y19790005D03*
X6130000Y19790005D03*
X6130000Y14110005D03*
D28*
X5080000Y65405000D03*
D29*
X7620000Y65405000D03*
D30*
X34942780Y10261600D03*
X24744680Y10261600D03*
D31*
X29845000Y14526260D03*
X32344360Y14526260D03*
D30*
X62882780Y10261600D03*
X52684680Y10261600D03*
D31*
X57785000Y14526260D03*
X60284360Y14526260D03*
D32*
X36810000Y54610000D03*
X36810000Y52070000D03*
X36810000Y49530000D03*
X36810000Y46990000D03*
X47010000Y46990000D03*
X47010000Y49530000D03*
X47010000Y52070000D03*
X47010000Y54610000D03*
X64750000Y54610000D03*
X64750000Y52070000D03*
X64750000Y49530000D03*
X64750000Y46990000D03*
X74950000Y46990000D03*
X74950000Y49530000D03*
X74950000Y52070000D03*
X74950000Y54610000D03*
D33*
X17415000Y50480000D03*
X17415000Y48580000D03*
X19415000Y49530000D03*
X17415000Y44765000D03*
X17415000Y42865000D03*
X19415000Y43815000D03*
X17415000Y38415000D03*
X17415000Y36515000D03*
X19415000Y37465000D03*
D11*
X4130000Y54880000D03*
X6030000Y54880000D03*
X5080000Y56880000D03*
D17*
X13020000Y38608000D03*
X14920000Y38608000D03*
X44765000Y16510000D03*
X42865000Y16510000D03*
D34*
X43105000Y40640000D03*
X36905000Y40640000D03*
D17*
X66360000Y36195000D03*
X68260000Y36195000D03*
D16*
X61595000Y37785000D03*
X61595000Y39685000D03*
D17*
X74615000Y16510000D03*
X76515000Y16510000D03*
X72705000Y16510000D03*
X70805000Y16510000D03*
D16*
X60325000Y48575000D03*
X60325000Y46675000D03*
X53340000Y41595000D03*
X53340000Y43495000D03*
D34*
X71045000Y40640000D03*
X64845000Y40640000D03*
D35*
X34290000Y19875500D03*
X36830000Y24574500D03*
X39370000Y19875500D03*
X43180000Y19875500D03*
X45720000Y24574500D03*
X48260000Y19875500D03*
X62230000Y19875500D03*
X64770000Y24574500D03*
X67310000Y19875500D03*
X71120000Y19875500D03*
X73660000Y24574500D03*
X76200000Y19875500D03*
D36*
X23495000Y38100000D03*
X51435000Y38100000D03*
D37*
X6985000Y43840000D03*
D38*
X6985000Y50140000D03*
X4685000Y50140000D03*
X9285000Y50140000D03*
D39*
X33175000Y42815000D03*
X33175000Y43315000D03*
X33175000Y43815000D03*
X33175000Y44315000D03*
X33175000Y44815000D03*
X30325000Y44815000D03*
X30325000Y44315000D03*
X30325000Y43815000D03*
X30325000Y43315000D03*
X30325000Y42815000D03*
D40*
X31750000Y43815000D03*
D39*
X61115000Y42815000D03*
X61115000Y43315000D03*
X61115000Y43815000D03*
X61115000Y44315000D03*
X61115000Y44815000D03*
X58265000Y44815000D03*
X58265000Y44315000D03*
X58265000Y43815000D03*
X58265000Y43315000D03*
X58265000Y42815000D03*
D40*
X59690000Y43815000D03*
D18*
X69850000Y6444000D03*
X71120000Y6444000D03*
X72390000Y6444000D03*
X73660000Y6444000D03*
X73660000Y11844000D03*
X72390000Y11844000D03*
X71120000Y11844000D03*
X69850000Y11844000D03*
D41*
X26035000Y63500000D03*
X26035000Y62300000D03*
X26035000Y64700000D03*
D11*
X58735000Y61960000D03*
X56835000Y61960000D03*
X57785000Y59960000D03*
X30795000Y57515000D03*
X28895000Y57515000D03*
X29845000Y55515000D03*
X58735000Y57515000D03*
X56835000Y57515000D03*
X57785000Y55515000D03*
D16*
X33655000Y60010000D03*
X33655000Y61910000D03*
X51435000Y60010000D03*
X51435000Y61910000D03*
X36830000Y60010000D03*
X36830000Y61910000D03*
X53975000Y60010000D03*
X53975000Y61910000D03*
M02*
