G04 #@! TF.FileFunction,Copper,L2,Inr,Plane*
%FSLAX46Y46*%
G04 Gerber Fmt 4.6, Leading zero omitted, Abs format (unit mm)*
G04 Created by KiCad (PCBNEW 4.0.1-stable) date 8/18/2016 11:15:08 PM*
%MOMM*%
G01*
G04 APERTURE LIST*
%ADD10C,0.127000*%
%ADD11R,2.032000X1.727200*%
%ADD12O,2.032000X1.727200*%
%ADD13R,2.300000X2.300000*%
%ADD14C,2.300000*%
%ADD15C,1.420000*%
%ADD16C,2.800000*%
%ADD17O,3.500120X7.000240*%
%ADD18O,1.600200X2.499360*%
%ADD19R,1.727200X2.032000*%
%ADD20O,1.727200X2.032000*%
%ADD21C,0.600000*%
%ADD22C,0.254000*%
G04 APERTURE END LIST*
D10*
D11*
X5080000Y49530000D03*
D12*
X5080000Y46990000D03*
X5080000Y44450000D03*
D13*
X5080000Y65405000D03*
D14*
X7620000Y65405000D03*
D15*
X9200000Y18805005D03*
X11700000Y18805005D03*
X13700000Y18805005D03*
X16200000Y18805005D03*
X9200000Y16185005D03*
X11700000Y16185005D03*
X13700000Y16185005D03*
X16200000Y16185005D03*
D16*
X19270000Y13475005D03*
X19270000Y19155005D03*
X6130000Y19155005D03*
X6130000Y13475005D03*
D17*
X34942780Y10261600D03*
X24744680Y10261600D03*
D18*
X29845000Y14526260D03*
X32344360Y14526260D03*
D17*
X62882780Y10261600D03*
X52684680Y10261600D03*
D18*
X57785000Y14526260D03*
X60284360Y14526260D03*
D19*
X33655000Y67310000D03*
D20*
X36195000Y67310000D03*
X38735000Y67310000D03*
X41275000Y67310000D03*
X43815000Y67310000D03*
X46355000Y67310000D03*
D21*
X50165000Y52070000D03*
X19050000Y29210000D03*
X30480000Y57150000D03*
X12065000Y55880000D03*
X26035000Y60960000D03*
X22860000Y61595000D03*
X22860000Y53340000D03*
X35560000Y52705000D03*
X38100000Y52070000D03*
X63500000Y52705000D03*
X66040000Y52070000D03*
X62865000Y59690000D03*
X76200000Y67945000D03*
X4445000Y53975000D03*
X15240000Y26670000D03*
X19050000Y22225000D03*
X13335000Y61595000D03*
X16510000Y61595000D03*
X29210000Y64135000D03*
X30480000Y60960000D03*
X20320000Y49530000D03*
X26670000Y53340000D03*
X32385000Y54610000D03*
X38100000Y54610000D03*
X35560000Y54610000D03*
X66040000Y54610000D03*
X63500000Y54610000D03*
X54610000Y53340000D03*
X50800000Y57785000D03*
X61595000Y55245000D03*
X75565000Y59690000D03*
X41910000Y16510000D03*
X35560000Y36830000D03*
X38100000Y29210000D03*
X31115000Y26035000D03*
X45720000Y13335000D03*
X48260000Y45720000D03*
X48260000Y46990000D03*
X45720000Y46990000D03*
X41910000Y13335000D03*
X29210000Y34925000D03*
X46355000Y34290000D03*
X33655000Y41910000D03*
X29210000Y47625000D03*
X25400000Y40640000D03*
X23495000Y45085000D03*
X28575000Y43180000D03*
X38100000Y45720000D03*
X38100000Y46990000D03*
X26035000Y18415000D03*
X42545000Y27305000D03*
X33655000Y24765000D03*
X35560000Y46990000D03*
X26670000Y45720000D03*
X34290000Y43180000D03*
X34290000Y45085000D03*
X42545000Y36195000D03*
X26670000Y39370000D03*
X46990000Y38735000D03*
X48260000Y26035000D03*
X46990000Y17780000D03*
X48260000Y8890000D03*
X44450000Y7620000D03*
X25400000Y36195000D03*
X30480000Y40640000D03*
X22860000Y40640000D03*
X31115000Y29845000D03*
X32385000Y31115000D03*
X53340000Y40640000D03*
X61595000Y41910000D03*
X69850000Y13335000D03*
X76200000Y45720000D03*
X76200000Y46990000D03*
X73660000Y46990000D03*
X74295000Y34290000D03*
X57150000Y34925000D03*
X57150000Y47625000D03*
X51435000Y45085000D03*
X54610000Y45720000D03*
X65405000Y45720000D03*
X66040000Y46990000D03*
X63500000Y46990000D03*
X62230000Y43180000D03*
X62230000Y45085000D03*
X57150000Y43180000D03*
X50800000Y40640000D03*
X54610000Y39370000D03*
X53340000Y36195000D03*
X58420000Y40640000D03*
X74930000Y38735000D03*
X70485000Y36195000D03*
X53975000Y18415000D03*
X61595000Y24765000D03*
X70485000Y27305000D03*
X76200000Y26035000D03*
X74930000Y17780000D03*
X72390000Y7620000D03*
X76200000Y8890000D03*
X69850000Y16510000D03*
X59055000Y26035000D03*
X63500000Y36830000D03*
X66675000Y29210000D03*
X73660000Y13335000D03*
X60325000Y31115000D03*
X59055000Y29845000D03*
X17145000Y66675000D03*
X62865000Y67310000D03*
X17145000Y65405000D03*
X62865000Y64770000D03*
X62865000Y62230000D03*
X17145000Y64135000D03*
X22860000Y55880000D03*
X52070000Y53340000D03*
X20955000Y57785000D03*
X17145000Y53975000D03*
X17145000Y50800000D03*
X53340000Y53340000D03*
X26035000Y56515000D03*
D22*
G36*
X49149000Y456000D02*
X21717000Y456000D01*
X21717000Y15007787D01*
X28663900Y15007787D01*
X28663900Y14044733D01*
X28753806Y13592746D01*
X29009836Y13209569D01*
X29393013Y12953539D01*
X29845000Y12863633D01*
X30296987Y12953539D01*
X30666044Y13200135D01*
X41228882Y13200135D01*
X41332339Y12949748D01*
X41523741Y12758013D01*
X41773946Y12654118D01*
X42044865Y12653882D01*
X42295252Y12757339D01*
X42486987Y12948741D01*
X42590882Y13198946D01*
X42590883Y13200135D01*
X45038882Y13200135D01*
X45142339Y12949748D01*
X45333741Y12758013D01*
X45583946Y12654118D01*
X45854865Y12653882D01*
X46105252Y12757339D01*
X46296987Y12948741D01*
X46400882Y13198946D01*
X46401118Y13469865D01*
X46297661Y13720252D01*
X46106259Y13911987D01*
X45856054Y14015882D01*
X45585135Y14016118D01*
X45334748Y13912661D01*
X45143013Y13721259D01*
X45039118Y13471054D01*
X45038882Y13200135D01*
X42590883Y13200135D01*
X42591118Y13469865D01*
X42487661Y13720252D01*
X42296259Y13911987D01*
X42046054Y14015882D01*
X41775135Y14016118D01*
X41524748Y13912661D01*
X41333013Y13721259D01*
X41229118Y13471054D01*
X41228882Y13200135D01*
X30666044Y13200135D01*
X30680164Y13209569D01*
X30936194Y13592746D01*
X31026100Y14044733D01*
X31026100Y15007787D01*
X30936194Y15459774D01*
X30680164Y15842951D01*
X30296987Y16098981D01*
X29845000Y16188887D01*
X29393013Y16098981D01*
X29009836Y15842951D01*
X28753806Y15459774D01*
X28663900Y15007787D01*
X21717000Y15007787D01*
X21717000Y16375135D01*
X41228882Y16375135D01*
X41332339Y16124748D01*
X41523741Y15933013D01*
X41773946Y15829118D01*
X42044865Y15828882D01*
X42295252Y15932339D01*
X42486987Y16123741D01*
X42590882Y16373946D01*
X42591118Y16644865D01*
X42487661Y16895252D01*
X42296259Y17086987D01*
X42046054Y17190882D01*
X41775135Y17191118D01*
X41524748Y17087661D01*
X41333013Y16896259D01*
X41229118Y16646054D01*
X41228882Y16375135D01*
X21717000Y16375135D01*
X21717000Y25900135D01*
X30433882Y25900135D01*
X30537339Y25649748D01*
X30728741Y25458013D01*
X30978946Y25354118D01*
X31249865Y25353882D01*
X31500252Y25457339D01*
X31691987Y25648741D01*
X31795882Y25898946D01*
X31796118Y26169865D01*
X31692661Y26420252D01*
X31501259Y26611987D01*
X31251054Y26715882D01*
X30980135Y26716118D01*
X30729748Y26612661D01*
X30538013Y26421259D01*
X30434118Y26171054D01*
X30433882Y25900135D01*
X21717000Y25900135D01*
X21717000Y29075135D01*
X37418882Y29075135D01*
X37522339Y28824748D01*
X37713741Y28633013D01*
X37963946Y28529118D01*
X38234865Y28528882D01*
X38485252Y28632339D01*
X38676987Y28823741D01*
X38780882Y29073946D01*
X38781118Y29344865D01*
X38677661Y29595252D01*
X38486259Y29786987D01*
X38236054Y29890882D01*
X37965135Y29891118D01*
X37714748Y29787661D01*
X37523013Y29596259D01*
X37419118Y29346054D01*
X37418882Y29075135D01*
X21717000Y29075135D01*
X21717000Y29710135D01*
X30433882Y29710135D01*
X30537339Y29459748D01*
X30728741Y29268013D01*
X30978946Y29164118D01*
X31249865Y29163882D01*
X31500252Y29267339D01*
X31691987Y29458741D01*
X31795882Y29708946D01*
X31796118Y29979865D01*
X31692661Y30230252D01*
X31501259Y30421987D01*
X31251054Y30525882D01*
X30980135Y30526118D01*
X30729748Y30422661D01*
X30538013Y30231259D01*
X30434118Y29981054D01*
X30433882Y29710135D01*
X21717000Y29710135D01*
X21717000Y30980135D01*
X31703882Y30980135D01*
X31807339Y30729748D01*
X31998741Y30538013D01*
X32248946Y30434118D01*
X32519865Y30433882D01*
X32770252Y30537339D01*
X32961987Y30728741D01*
X33065882Y30978946D01*
X33066118Y31249865D01*
X32962661Y31500252D01*
X32771259Y31691987D01*
X32521054Y31795882D01*
X32250135Y31796118D01*
X31999748Y31692661D01*
X31808013Y31501259D01*
X31704118Y31251054D01*
X31703882Y30980135D01*
X21717000Y30980135D01*
X21717000Y34155135D01*
X45673882Y34155135D01*
X45777339Y33904748D01*
X45968741Y33713013D01*
X46218946Y33609118D01*
X46489865Y33608882D01*
X46740252Y33712339D01*
X46931987Y33903741D01*
X47035882Y34153946D01*
X47036118Y34424865D01*
X46932661Y34675252D01*
X46741259Y34866987D01*
X46491054Y34970882D01*
X46220135Y34971118D01*
X45969748Y34867661D01*
X45778013Y34676259D01*
X45674118Y34426054D01*
X45673882Y34155135D01*
X21717000Y34155135D01*
X21717000Y34790135D01*
X28528882Y34790135D01*
X28632339Y34539748D01*
X28823741Y34348013D01*
X29073946Y34244118D01*
X29344865Y34243882D01*
X29595252Y34347339D01*
X29786987Y34538741D01*
X29890882Y34788946D01*
X29891118Y35059865D01*
X29787661Y35310252D01*
X29596259Y35501987D01*
X29346054Y35605882D01*
X29075135Y35606118D01*
X28824748Y35502661D01*
X28633013Y35311259D01*
X28529118Y35061054D01*
X28528882Y34790135D01*
X21717000Y34790135D01*
X21717000Y36695135D01*
X34878882Y36695135D01*
X34982339Y36444748D01*
X35173741Y36253013D01*
X35423946Y36149118D01*
X35694865Y36148882D01*
X35945252Y36252339D01*
X36136987Y36443741D01*
X36240882Y36693946D01*
X36241118Y36964865D01*
X36137661Y37215252D01*
X35946259Y37406987D01*
X35696054Y37510882D01*
X35425135Y37511118D01*
X35174748Y37407661D01*
X34983013Y37216259D01*
X34879118Y36966054D01*
X34878882Y36695135D01*
X21717000Y36695135D01*
X21717000Y40505135D01*
X24718882Y40505135D01*
X24822339Y40254748D01*
X25013741Y40063013D01*
X25263946Y39959118D01*
X25534865Y39958882D01*
X25785252Y40062339D01*
X25976987Y40253741D01*
X26080882Y40503946D01*
X26081118Y40774865D01*
X25977661Y41025252D01*
X25786259Y41216987D01*
X25536054Y41320882D01*
X25265135Y41321118D01*
X25014748Y41217661D01*
X24823013Y41026259D01*
X24719118Y40776054D01*
X24718882Y40505135D01*
X21717000Y40505135D01*
X21717000Y41775135D01*
X32973882Y41775135D01*
X33077339Y41524748D01*
X33268741Y41333013D01*
X33518946Y41229118D01*
X33789865Y41228882D01*
X34040252Y41332339D01*
X34231987Y41523741D01*
X34335882Y41773946D01*
X34336118Y42044865D01*
X34232661Y42295252D01*
X34041259Y42486987D01*
X33791054Y42590882D01*
X33520135Y42591118D01*
X33269748Y42487661D01*
X33078013Y42296259D01*
X32974118Y42046054D01*
X32973882Y41775135D01*
X21717000Y41775135D01*
X21717000Y44950135D01*
X22813882Y44950135D01*
X22917339Y44699748D01*
X23108741Y44508013D01*
X23358946Y44404118D01*
X23629865Y44403882D01*
X23880252Y44507339D01*
X24071987Y44698741D01*
X24175882Y44948946D01*
X24176118Y45219865D01*
X24072661Y45470252D01*
X23881259Y45661987D01*
X23631054Y45765882D01*
X23360135Y45766118D01*
X23109748Y45662661D01*
X22918013Y45471259D01*
X22814118Y45221054D01*
X22813882Y44950135D01*
X21717000Y44950135D01*
X21717000Y46855135D01*
X45038882Y46855135D01*
X45142339Y46604748D01*
X45333741Y46413013D01*
X45583946Y46309118D01*
X45854865Y46308882D01*
X46105252Y46412339D01*
X46296987Y46603741D01*
X46400882Y46853946D01*
X46400883Y46855135D01*
X47578882Y46855135D01*
X47682339Y46604748D01*
X47873741Y46413013D01*
X48013485Y46354986D01*
X47874748Y46297661D01*
X47683013Y46106259D01*
X47579118Y45856054D01*
X47578882Y45585135D01*
X47682339Y45334748D01*
X47873741Y45143013D01*
X48123946Y45039118D01*
X48394865Y45038882D01*
X48645252Y45142339D01*
X48836987Y45333741D01*
X48940882Y45583946D01*
X48941118Y45854865D01*
X48837661Y46105252D01*
X48646259Y46296987D01*
X48506515Y46355014D01*
X48645252Y46412339D01*
X48836987Y46603741D01*
X48940882Y46853946D01*
X48941118Y47124865D01*
X48837661Y47375252D01*
X48646259Y47566987D01*
X48396054Y47670882D01*
X48125135Y47671118D01*
X47874748Y47567661D01*
X47683013Y47376259D01*
X47579118Y47126054D01*
X47578882Y46855135D01*
X46400883Y46855135D01*
X46401118Y47124865D01*
X46297661Y47375252D01*
X46106259Y47566987D01*
X45856054Y47670882D01*
X45585135Y47671118D01*
X45334748Y47567661D01*
X45143013Y47376259D01*
X45039118Y47126054D01*
X45038882Y46855135D01*
X21717000Y46855135D01*
X21717000Y47490135D01*
X28528882Y47490135D01*
X28632339Y47239748D01*
X28823741Y47048013D01*
X29073946Y46944118D01*
X29344865Y46943882D01*
X29595252Y47047339D01*
X29786987Y47238741D01*
X29890882Y47488946D01*
X29891118Y47759865D01*
X29787661Y48010252D01*
X29596259Y48201987D01*
X29346054Y48305882D01*
X29075135Y48306118D01*
X28824748Y48202661D01*
X28633013Y48011259D01*
X28529118Y47761054D01*
X28528882Y47490135D01*
X21717000Y47490135D01*
X21717000Y49403000D01*
X49149000Y49403000D01*
X49149000Y456000D01*
X49149000Y456000D01*
G37*
X49149000Y456000D02*
X21717000Y456000D01*
X21717000Y15007787D01*
X28663900Y15007787D01*
X28663900Y14044733D01*
X28753806Y13592746D01*
X29009836Y13209569D01*
X29393013Y12953539D01*
X29845000Y12863633D01*
X30296987Y12953539D01*
X30666044Y13200135D01*
X41228882Y13200135D01*
X41332339Y12949748D01*
X41523741Y12758013D01*
X41773946Y12654118D01*
X42044865Y12653882D01*
X42295252Y12757339D01*
X42486987Y12948741D01*
X42590882Y13198946D01*
X42590883Y13200135D01*
X45038882Y13200135D01*
X45142339Y12949748D01*
X45333741Y12758013D01*
X45583946Y12654118D01*
X45854865Y12653882D01*
X46105252Y12757339D01*
X46296987Y12948741D01*
X46400882Y13198946D01*
X46401118Y13469865D01*
X46297661Y13720252D01*
X46106259Y13911987D01*
X45856054Y14015882D01*
X45585135Y14016118D01*
X45334748Y13912661D01*
X45143013Y13721259D01*
X45039118Y13471054D01*
X45038882Y13200135D01*
X42590883Y13200135D01*
X42591118Y13469865D01*
X42487661Y13720252D01*
X42296259Y13911987D01*
X42046054Y14015882D01*
X41775135Y14016118D01*
X41524748Y13912661D01*
X41333013Y13721259D01*
X41229118Y13471054D01*
X41228882Y13200135D01*
X30666044Y13200135D01*
X30680164Y13209569D01*
X30936194Y13592746D01*
X31026100Y14044733D01*
X31026100Y15007787D01*
X30936194Y15459774D01*
X30680164Y15842951D01*
X30296987Y16098981D01*
X29845000Y16188887D01*
X29393013Y16098981D01*
X29009836Y15842951D01*
X28753806Y15459774D01*
X28663900Y15007787D01*
X21717000Y15007787D01*
X21717000Y16375135D01*
X41228882Y16375135D01*
X41332339Y16124748D01*
X41523741Y15933013D01*
X41773946Y15829118D01*
X42044865Y15828882D01*
X42295252Y15932339D01*
X42486987Y16123741D01*
X42590882Y16373946D01*
X42591118Y16644865D01*
X42487661Y16895252D01*
X42296259Y17086987D01*
X42046054Y17190882D01*
X41775135Y17191118D01*
X41524748Y17087661D01*
X41333013Y16896259D01*
X41229118Y16646054D01*
X41228882Y16375135D01*
X21717000Y16375135D01*
X21717000Y25900135D01*
X30433882Y25900135D01*
X30537339Y25649748D01*
X30728741Y25458013D01*
X30978946Y25354118D01*
X31249865Y25353882D01*
X31500252Y25457339D01*
X31691987Y25648741D01*
X31795882Y25898946D01*
X31796118Y26169865D01*
X31692661Y26420252D01*
X31501259Y26611987D01*
X31251054Y26715882D01*
X30980135Y26716118D01*
X30729748Y26612661D01*
X30538013Y26421259D01*
X30434118Y26171054D01*
X30433882Y25900135D01*
X21717000Y25900135D01*
X21717000Y29075135D01*
X37418882Y29075135D01*
X37522339Y28824748D01*
X37713741Y28633013D01*
X37963946Y28529118D01*
X38234865Y28528882D01*
X38485252Y28632339D01*
X38676987Y28823741D01*
X38780882Y29073946D01*
X38781118Y29344865D01*
X38677661Y29595252D01*
X38486259Y29786987D01*
X38236054Y29890882D01*
X37965135Y29891118D01*
X37714748Y29787661D01*
X37523013Y29596259D01*
X37419118Y29346054D01*
X37418882Y29075135D01*
X21717000Y29075135D01*
X21717000Y29710135D01*
X30433882Y29710135D01*
X30537339Y29459748D01*
X30728741Y29268013D01*
X30978946Y29164118D01*
X31249865Y29163882D01*
X31500252Y29267339D01*
X31691987Y29458741D01*
X31795882Y29708946D01*
X31796118Y29979865D01*
X31692661Y30230252D01*
X31501259Y30421987D01*
X31251054Y30525882D01*
X30980135Y30526118D01*
X30729748Y30422661D01*
X30538013Y30231259D01*
X30434118Y29981054D01*
X30433882Y29710135D01*
X21717000Y29710135D01*
X21717000Y30980135D01*
X31703882Y30980135D01*
X31807339Y30729748D01*
X31998741Y30538013D01*
X32248946Y30434118D01*
X32519865Y30433882D01*
X32770252Y30537339D01*
X32961987Y30728741D01*
X33065882Y30978946D01*
X33066118Y31249865D01*
X32962661Y31500252D01*
X32771259Y31691987D01*
X32521054Y31795882D01*
X32250135Y31796118D01*
X31999748Y31692661D01*
X31808013Y31501259D01*
X31704118Y31251054D01*
X31703882Y30980135D01*
X21717000Y30980135D01*
X21717000Y34155135D01*
X45673882Y34155135D01*
X45777339Y33904748D01*
X45968741Y33713013D01*
X46218946Y33609118D01*
X46489865Y33608882D01*
X46740252Y33712339D01*
X46931987Y33903741D01*
X47035882Y34153946D01*
X47036118Y34424865D01*
X46932661Y34675252D01*
X46741259Y34866987D01*
X46491054Y34970882D01*
X46220135Y34971118D01*
X45969748Y34867661D01*
X45778013Y34676259D01*
X45674118Y34426054D01*
X45673882Y34155135D01*
X21717000Y34155135D01*
X21717000Y34790135D01*
X28528882Y34790135D01*
X28632339Y34539748D01*
X28823741Y34348013D01*
X29073946Y34244118D01*
X29344865Y34243882D01*
X29595252Y34347339D01*
X29786987Y34538741D01*
X29890882Y34788946D01*
X29891118Y35059865D01*
X29787661Y35310252D01*
X29596259Y35501987D01*
X29346054Y35605882D01*
X29075135Y35606118D01*
X28824748Y35502661D01*
X28633013Y35311259D01*
X28529118Y35061054D01*
X28528882Y34790135D01*
X21717000Y34790135D01*
X21717000Y36695135D01*
X34878882Y36695135D01*
X34982339Y36444748D01*
X35173741Y36253013D01*
X35423946Y36149118D01*
X35694865Y36148882D01*
X35945252Y36252339D01*
X36136987Y36443741D01*
X36240882Y36693946D01*
X36241118Y36964865D01*
X36137661Y37215252D01*
X35946259Y37406987D01*
X35696054Y37510882D01*
X35425135Y37511118D01*
X35174748Y37407661D01*
X34983013Y37216259D01*
X34879118Y36966054D01*
X34878882Y36695135D01*
X21717000Y36695135D01*
X21717000Y40505135D01*
X24718882Y40505135D01*
X24822339Y40254748D01*
X25013741Y40063013D01*
X25263946Y39959118D01*
X25534865Y39958882D01*
X25785252Y40062339D01*
X25976987Y40253741D01*
X26080882Y40503946D01*
X26081118Y40774865D01*
X25977661Y41025252D01*
X25786259Y41216987D01*
X25536054Y41320882D01*
X25265135Y41321118D01*
X25014748Y41217661D01*
X24823013Y41026259D01*
X24719118Y40776054D01*
X24718882Y40505135D01*
X21717000Y40505135D01*
X21717000Y41775135D01*
X32973882Y41775135D01*
X33077339Y41524748D01*
X33268741Y41333013D01*
X33518946Y41229118D01*
X33789865Y41228882D01*
X34040252Y41332339D01*
X34231987Y41523741D01*
X34335882Y41773946D01*
X34336118Y42044865D01*
X34232661Y42295252D01*
X34041259Y42486987D01*
X33791054Y42590882D01*
X33520135Y42591118D01*
X33269748Y42487661D01*
X33078013Y42296259D01*
X32974118Y42046054D01*
X32973882Y41775135D01*
X21717000Y41775135D01*
X21717000Y44950135D01*
X22813882Y44950135D01*
X22917339Y44699748D01*
X23108741Y44508013D01*
X23358946Y44404118D01*
X23629865Y44403882D01*
X23880252Y44507339D01*
X24071987Y44698741D01*
X24175882Y44948946D01*
X24176118Y45219865D01*
X24072661Y45470252D01*
X23881259Y45661987D01*
X23631054Y45765882D01*
X23360135Y45766118D01*
X23109748Y45662661D01*
X22918013Y45471259D01*
X22814118Y45221054D01*
X22813882Y44950135D01*
X21717000Y44950135D01*
X21717000Y46855135D01*
X45038882Y46855135D01*
X45142339Y46604748D01*
X45333741Y46413013D01*
X45583946Y46309118D01*
X45854865Y46308882D01*
X46105252Y46412339D01*
X46296987Y46603741D01*
X46400882Y46853946D01*
X46400883Y46855135D01*
X47578882Y46855135D01*
X47682339Y46604748D01*
X47873741Y46413013D01*
X48013485Y46354986D01*
X47874748Y46297661D01*
X47683013Y46106259D01*
X47579118Y45856054D01*
X47578882Y45585135D01*
X47682339Y45334748D01*
X47873741Y45143013D01*
X48123946Y45039118D01*
X48394865Y45038882D01*
X48645252Y45142339D01*
X48836987Y45333741D01*
X48940882Y45583946D01*
X48941118Y45854865D01*
X48837661Y46105252D01*
X48646259Y46296987D01*
X48506515Y46355014D01*
X48645252Y46412339D01*
X48836987Y46603741D01*
X48940882Y46853946D01*
X48941118Y47124865D01*
X48837661Y47375252D01*
X48646259Y47566987D01*
X48396054Y47670882D01*
X48125135Y47671118D01*
X47874748Y47567661D01*
X47683013Y47376259D01*
X47579118Y47126054D01*
X47578882Y46855135D01*
X46400883Y46855135D01*
X46401118Y47124865D01*
X46297661Y47375252D01*
X46106259Y47566987D01*
X45856054Y47670882D01*
X45585135Y47671118D01*
X45334748Y47567661D01*
X45143013Y47376259D01*
X45039118Y47126054D01*
X45038882Y46855135D01*
X21717000Y46855135D01*
X21717000Y47490135D01*
X28528882Y47490135D01*
X28632339Y47239748D01*
X28823741Y47048013D01*
X29073946Y46944118D01*
X29344865Y46943882D01*
X29595252Y47047339D01*
X29786987Y47238741D01*
X29890882Y47488946D01*
X29891118Y47759865D01*
X29787661Y48010252D01*
X29596259Y48201987D01*
X29346054Y48305882D01*
X29075135Y48306118D01*
X28824748Y48202661D01*
X28633013Y48011259D01*
X28529118Y47761054D01*
X28528882Y47490135D01*
X21717000Y47490135D01*
X21717000Y49403000D01*
X49149000Y49403000D01*
X49149000Y456000D01*
G36*
X79544000Y456000D02*
X49911000Y456000D01*
X49911000Y15007787D01*
X56603900Y15007787D01*
X56603900Y14044733D01*
X56693806Y13592746D01*
X56949836Y13209569D01*
X57333013Y12953539D01*
X57785000Y12863633D01*
X58236987Y12953539D01*
X58606044Y13200135D01*
X69168882Y13200135D01*
X69272339Y12949748D01*
X69463741Y12758013D01*
X69713946Y12654118D01*
X69984865Y12653882D01*
X70235252Y12757339D01*
X70426987Y12948741D01*
X70530882Y13198946D01*
X70530883Y13200135D01*
X72978882Y13200135D01*
X73082339Y12949748D01*
X73273741Y12758013D01*
X73523946Y12654118D01*
X73794865Y12653882D01*
X74045252Y12757339D01*
X74236987Y12948741D01*
X74340882Y13198946D01*
X74341118Y13469865D01*
X74237661Y13720252D01*
X74046259Y13911987D01*
X73796054Y14015882D01*
X73525135Y14016118D01*
X73274748Y13912661D01*
X73083013Y13721259D01*
X72979118Y13471054D01*
X72978882Y13200135D01*
X70530883Y13200135D01*
X70531118Y13469865D01*
X70427661Y13720252D01*
X70236259Y13911987D01*
X69986054Y14015882D01*
X69715135Y14016118D01*
X69464748Y13912661D01*
X69273013Y13721259D01*
X69169118Y13471054D01*
X69168882Y13200135D01*
X58606044Y13200135D01*
X58620164Y13209569D01*
X58876194Y13592746D01*
X58966100Y14044733D01*
X58966100Y15007787D01*
X58876194Y15459774D01*
X58620164Y15842951D01*
X58236987Y16098981D01*
X57785000Y16188887D01*
X57333013Y16098981D01*
X56949836Y15842951D01*
X56693806Y15459774D01*
X56603900Y15007787D01*
X49911000Y15007787D01*
X49911000Y16375135D01*
X69168882Y16375135D01*
X69272339Y16124748D01*
X69463741Y15933013D01*
X69713946Y15829118D01*
X69984865Y15828882D01*
X70235252Y15932339D01*
X70426987Y16123741D01*
X70530882Y16373946D01*
X70531118Y16644865D01*
X70427661Y16895252D01*
X70236259Y17086987D01*
X69986054Y17190882D01*
X69715135Y17191118D01*
X69464748Y17087661D01*
X69273013Y16896259D01*
X69169118Y16646054D01*
X69168882Y16375135D01*
X49911000Y16375135D01*
X49911000Y25900135D01*
X58373882Y25900135D01*
X58477339Y25649748D01*
X58668741Y25458013D01*
X58918946Y25354118D01*
X59189865Y25353882D01*
X59440252Y25457339D01*
X59631987Y25648741D01*
X59735882Y25898946D01*
X59736118Y26169865D01*
X59632661Y26420252D01*
X59441259Y26611987D01*
X59191054Y26715882D01*
X58920135Y26716118D01*
X58669748Y26612661D01*
X58478013Y26421259D01*
X58374118Y26171054D01*
X58373882Y25900135D01*
X49911000Y25900135D01*
X49911000Y29075135D01*
X65993882Y29075135D01*
X66097339Y28824748D01*
X66288741Y28633013D01*
X66538946Y28529118D01*
X66809865Y28528882D01*
X67060252Y28632339D01*
X67251987Y28823741D01*
X67355882Y29073946D01*
X67356118Y29344865D01*
X67252661Y29595252D01*
X67061259Y29786987D01*
X66811054Y29890882D01*
X66540135Y29891118D01*
X66289748Y29787661D01*
X66098013Y29596259D01*
X65994118Y29346054D01*
X65993882Y29075135D01*
X49911000Y29075135D01*
X49911000Y29710135D01*
X58373882Y29710135D01*
X58477339Y29459748D01*
X58668741Y29268013D01*
X58918946Y29164118D01*
X59189865Y29163882D01*
X59440252Y29267339D01*
X59631987Y29458741D01*
X59735882Y29708946D01*
X59736118Y29979865D01*
X59632661Y30230252D01*
X59441259Y30421987D01*
X59191054Y30525882D01*
X58920135Y30526118D01*
X58669748Y30422661D01*
X58478013Y30231259D01*
X58374118Y29981054D01*
X58373882Y29710135D01*
X49911000Y29710135D01*
X49911000Y30980135D01*
X59643882Y30980135D01*
X59747339Y30729748D01*
X59938741Y30538013D01*
X60188946Y30434118D01*
X60459865Y30433882D01*
X60710252Y30537339D01*
X60901987Y30728741D01*
X61005882Y30978946D01*
X61006118Y31249865D01*
X60902661Y31500252D01*
X60711259Y31691987D01*
X60461054Y31795882D01*
X60190135Y31796118D01*
X59939748Y31692661D01*
X59748013Y31501259D01*
X59644118Y31251054D01*
X59643882Y30980135D01*
X49911000Y30980135D01*
X49911000Y34155135D01*
X73613882Y34155135D01*
X73717339Y33904748D01*
X73908741Y33713013D01*
X74158946Y33609118D01*
X74429865Y33608882D01*
X74680252Y33712339D01*
X74871987Y33903741D01*
X74975882Y34153946D01*
X74976118Y34424865D01*
X74872661Y34675252D01*
X74681259Y34866987D01*
X74431054Y34970882D01*
X74160135Y34971118D01*
X73909748Y34867661D01*
X73718013Y34676259D01*
X73614118Y34426054D01*
X73613882Y34155135D01*
X49911000Y34155135D01*
X49911000Y34790135D01*
X56468882Y34790135D01*
X56572339Y34539748D01*
X56763741Y34348013D01*
X57013946Y34244118D01*
X57284865Y34243882D01*
X57535252Y34347339D01*
X57726987Y34538741D01*
X57830882Y34788946D01*
X57831118Y35059865D01*
X57727661Y35310252D01*
X57536259Y35501987D01*
X57286054Y35605882D01*
X57015135Y35606118D01*
X56764748Y35502661D01*
X56573013Y35311259D01*
X56469118Y35061054D01*
X56468882Y34790135D01*
X49911000Y34790135D01*
X49911000Y36695135D01*
X62818882Y36695135D01*
X62922339Y36444748D01*
X63113741Y36253013D01*
X63363946Y36149118D01*
X63634865Y36148882D01*
X63885252Y36252339D01*
X64076987Y36443741D01*
X64180882Y36693946D01*
X64181118Y36964865D01*
X64077661Y37215252D01*
X63886259Y37406987D01*
X63636054Y37510882D01*
X63365135Y37511118D01*
X63114748Y37407661D01*
X62923013Y37216259D01*
X62819118Y36966054D01*
X62818882Y36695135D01*
X49911000Y36695135D01*
X49911000Y40505135D01*
X52658882Y40505135D01*
X52762339Y40254748D01*
X52953741Y40063013D01*
X53203946Y39959118D01*
X53474865Y39958882D01*
X53725252Y40062339D01*
X53916987Y40253741D01*
X54020882Y40503946D01*
X54021118Y40774865D01*
X53917661Y41025252D01*
X53726259Y41216987D01*
X53476054Y41320882D01*
X53205135Y41321118D01*
X52954748Y41217661D01*
X52763013Y41026259D01*
X52659118Y40776054D01*
X52658882Y40505135D01*
X49911000Y40505135D01*
X49911000Y41775135D01*
X60913882Y41775135D01*
X61017339Y41524748D01*
X61208741Y41333013D01*
X61458946Y41229118D01*
X61729865Y41228882D01*
X61980252Y41332339D01*
X62171987Y41523741D01*
X62275882Y41773946D01*
X62276118Y42044865D01*
X62172661Y42295252D01*
X61981259Y42486987D01*
X61731054Y42590882D01*
X61460135Y42591118D01*
X61209748Y42487661D01*
X61018013Y42296259D01*
X60914118Y42046054D01*
X60913882Y41775135D01*
X49911000Y41775135D01*
X49911000Y44950135D01*
X50753882Y44950135D01*
X50857339Y44699748D01*
X51048741Y44508013D01*
X51298946Y44404118D01*
X51569865Y44403882D01*
X51820252Y44507339D01*
X52011987Y44698741D01*
X52115882Y44948946D01*
X52116118Y45219865D01*
X52012661Y45470252D01*
X51821259Y45661987D01*
X51571054Y45765882D01*
X51300135Y45766118D01*
X51049748Y45662661D01*
X50858013Y45471259D01*
X50754118Y45221054D01*
X50753882Y44950135D01*
X49911000Y44950135D01*
X49911000Y46855135D01*
X72978882Y46855135D01*
X73082339Y46604748D01*
X73273741Y46413013D01*
X73523946Y46309118D01*
X73794865Y46308882D01*
X74045252Y46412339D01*
X74236987Y46603741D01*
X74340882Y46853946D01*
X74340883Y46855135D01*
X75518882Y46855135D01*
X75622339Y46604748D01*
X75813741Y46413013D01*
X75953485Y46354986D01*
X75814748Y46297661D01*
X75623013Y46106259D01*
X75519118Y45856054D01*
X75518882Y45585135D01*
X75622339Y45334748D01*
X75813741Y45143013D01*
X76063946Y45039118D01*
X76334865Y45038882D01*
X76585252Y45142339D01*
X76776987Y45333741D01*
X76880882Y45583946D01*
X76881118Y45854865D01*
X76777661Y46105252D01*
X76586259Y46296987D01*
X76446515Y46355014D01*
X76585252Y46412339D01*
X76776987Y46603741D01*
X76880882Y46853946D01*
X76881118Y47124865D01*
X76777661Y47375252D01*
X76586259Y47566987D01*
X76336054Y47670882D01*
X76065135Y47671118D01*
X75814748Y47567661D01*
X75623013Y47376259D01*
X75519118Y47126054D01*
X75518882Y46855135D01*
X74340883Y46855135D01*
X74341118Y47124865D01*
X74237661Y47375252D01*
X74046259Y47566987D01*
X73796054Y47670882D01*
X73525135Y47671118D01*
X73274748Y47567661D01*
X73083013Y47376259D01*
X72979118Y47126054D01*
X72978882Y46855135D01*
X49911000Y46855135D01*
X49911000Y47490135D01*
X56468882Y47490135D01*
X56572339Y47239748D01*
X56763741Y47048013D01*
X57013946Y46944118D01*
X57284865Y46943882D01*
X57535252Y47047339D01*
X57726987Y47238741D01*
X57830882Y47488946D01*
X57831118Y47759865D01*
X57727661Y48010252D01*
X57536259Y48201987D01*
X57286054Y48305882D01*
X57015135Y48306118D01*
X56764748Y48202661D01*
X56573013Y48011259D01*
X56469118Y47761054D01*
X56468882Y47490135D01*
X49911000Y47490135D01*
X49911000Y49403000D01*
X79544000Y49403000D01*
X79544000Y456000D01*
X79544000Y456000D01*
G37*
X79544000Y456000D02*
X49911000Y456000D01*
X49911000Y15007787D01*
X56603900Y15007787D01*
X56603900Y14044733D01*
X56693806Y13592746D01*
X56949836Y13209569D01*
X57333013Y12953539D01*
X57785000Y12863633D01*
X58236987Y12953539D01*
X58606044Y13200135D01*
X69168882Y13200135D01*
X69272339Y12949748D01*
X69463741Y12758013D01*
X69713946Y12654118D01*
X69984865Y12653882D01*
X70235252Y12757339D01*
X70426987Y12948741D01*
X70530882Y13198946D01*
X70530883Y13200135D01*
X72978882Y13200135D01*
X73082339Y12949748D01*
X73273741Y12758013D01*
X73523946Y12654118D01*
X73794865Y12653882D01*
X74045252Y12757339D01*
X74236987Y12948741D01*
X74340882Y13198946D01*
X74341118Y13469865D01*
X74237661Y13720252D01*
X74046259Y13911987D01*
X73796054Y14015882D01*
X73525135Y14016118D01*
X73274748Y13912661D01*
X73083013Y13721259D01*
X72979118Y13471054D01*
X72978882Y13200135D01*
X70530883Y13200135D01*
X70531118Y13469865D01*
X70427661Y13720252D01*
X70236259Y13911987D01*
X69986054Y14015882D01*
X69715135Y14016118D01*
X69464748Y13912661D01*
X69273013Y13721259D01*
X69169118Y13471054D01*
X69168882Y13200135D01*
X58606044Y13200135D01*
X58620164Y13209569D01*
X58876194Y13592746D01*
X58966100Y14044733D01*
X58966100Y15007787D01*
X58876194Y15459774D01*
X58620164Y15842951D01*
X58236987Y16098981D01*
X57785000Y16188887D01*
X57333013Y16098981D01*
X56949836Y15842951D01*
X56693806Y15459774D01*
X56603900Y15007787D01*
X49911000Y15007787D01*
X49911000Y16375135D01*
X69168882Y16375135D01*
X69272339Y16124748D01*
X69463741Y15933013D01*
X69713946Y15829118D01*
X69984865Y15828882D01*
X70235252Y15932339D01*
X70426987Y16123741D01*
X70530882Y16373946D01*
X70531118Y16644865D01*
X70427661Y16895252D01*
X70236259Y17086987D01*
X69986054Y17190882D01*
X69715135Y17191118D01*
X69464748Y17087661D01*
X69273013Y16896259D01*
X69169118Y16646054D01*
X69168882Y16375135D01*
X49911000Y16375135D01*
X49911000Y25900135D01*
X58373882Y25900135D01*
X58477339Y25649748D01*
X58668741Y25458013D01*
X58918946Y25354118D01*
X59189865Y25353882D01*
X59440252Y25457339D01*
X59631987Y25648741D01*
X59735882Y25898946D01*
X59736118Y26169865D01*
X59632661Y26420252D01*
X59441259Y26611987D01*
X59191054Y26715882D01*
X58920135Y26716118D01*
X58669748Y26612661D01*
X58478013Y26421259D01*
X58374118Y26171054D01*
X58373882Y25900135D01*
X49911000Y25900135D01*
X49911000Y29075135D01*
X65993882Y29075135D01*
X66097339Y28824748D01*
X66288741Y28633013D01*
X66538946Y28529118D01*
X66809865Y28528882D01*
X67060252Y28632339D01*
X67251987Y28823741D01*
X67355882Y29073946D01*
X67356118Y29344865D01*
X67252661Y29595252D01*
X67061259Y29786987D01*
X66811054Y29890882D01*
X66540135Y29891118D01*
X66289748Y29787661D01*
X66098013Y29596259D01*
X65994118Y29346054D01*
X65993882Y29075135D01*
X49911000Y29075135D01*
X49911000Y29710135D01*
X58373882Y29710135D01*
X58477339Y29459748D01*
X58668741Y29268013D01*
X58918946Y29164118D01*
X59189865Y29163882D01*
X59440252Y29267339D01*
X59631987Y29458741D01*
X59735882Y29708946D01*
X59736118Y29979865D01*
X59632661Y30230252D01*
X59441259Y30421987D01*
X59191054Y30525882D01*
X58920135Y30526118D01*
X58669748Y30422661D01*
X58478013Y30231259D01*
X58374118Y29981054D01*
X58373882Y29710135D01*
X49911000Y29710135D01*
X49911000Y30980135D01*
X59643882Y30980135D01*
X59747339Y30729748D01*
X59938741Y30538013D01*
X60188946Y30434118D01*
X60459865Y30433882D01*
X60710252Y30537339D01*
X60901987Y30728741D01*
X61005882Y30978946D01*
X61006118Y31249865D01*
X60902661Y31500252D01*
X60711259Y31691987D01*
X60461054Y31795882D01*
X60190135Y31796118D01*
X59939748Y31692661D01*
X59748013Y31501259D01*
X59644118Y31251054D01*
X59643882Y30980135D01*
X49911000Y30980135D01*
X49911000Y34155135D01*
X73613882Y34155135D01*
X73717339Y33904748D01*
X73908741Y33713013D01*
X74158946Y33609118D01*
X74429865Y33608882D01*
X74680252Y33712339D01*
X74871987Y33903741D01*
X74975882Y34153946D01*
X74976118Y34424865D01*
X74872661Y34675252D01*
X74681259Y34866987D01*
X74431054Y34970882D01*
X74160135Y34971118D01*
X73909748Y34867661D01*
X73718013Y34676259D01*
X73614118Y34426054D01*
X73613882Y34155135D01*
X49911000Y34155135D01*
X49911000Y34790135D01*
X56468882Y34790135D01*
X56572339Y34539748D01*
X56763741Y34348013D01*
X57013946Y34244118D01*
X57284865Y34243882D01*
X57535252Y34347339D01*
X57726987Y34538741D01*
X57830882Y34788946D01*
X57831118Y35059865D01*
X57727661Y35310252D01*
X57536259Y35501987D01*
X57286054Y35605882D01*
X57015135Y35606118D01*
X56764748Y35502661D01*
X56573013Y35311259D01*
X56469118Y35061054D01*
X56468882Y34790135D01*
X49911000Y34790135D01*
X49911000Y36695135D01*
X62818882Y36695135D01*
X62922339Y36444748D01*
X63113741Y36253013D01*
X63363946Y36149118D01*
X63634865Y36148882D01*
X63885252Y36252339D01*
X64076987Y36443741D01*
X64180882Y36693946D01*
X64181118Y36964865D01*
X64077661Y37215252D01*
X63886259Y37406987D01*
X63636054Y37510882D01*
X63365135Y37511118D01*
X63114748Y37407661D01*
X62923013Y37216259D01*
X62819118Y36966054D01*
X62818882Y36695135D01*
X49911000Y36695135D01*
X49911000Y40505135D01*
X52658882Y40505135D01*
X52762339Y40254748D01*
X52953741Y40063013D01*
X53203946Y39959118D01*
X53474865Y39958882D01*
X53725252Y40062339D01*
X53916987Y40253741D01*
X54020882Y40503946D01*
X54021118Y40774865D01*
X53917661Y41025252D01*
X53726259Y41216987D01*
X53476054Y41320882D01*
X53205135Y41321118D01*
X52954748Y41217661D01*
X52763013Y41026259D01*
X52659118Y40776054D01*
X52658882Y40505135D01*
X49911000Y40505135D01*
X49911000Y41775135D01*
X60913882Y41775135D01*
X61017339Y41524748D01*
X61208741Y41333013D01*
X61458946Y41229118D01*
X61729865Y41228882D01*
X61980252Y41332339D01*
X62171987Y41523741D01*
X62275882Y41773946D01*
X62276118Y42044865D01*
X62172661Y42295252D01*
X61981259Y42486987D01*
X61731054Y42590882D01*
X61460135Y42591118D01*
X61209748Y42487661D01*
X61018013Y42296259D01*
X60914118Y42046054D01*
X60913882Y41775135D01*
X49911000Y41775135D01*
X49911000Y44950135D01*
X50753882Y44950135D01*
X50857339Y44699748D01*
X51048741Y44508013D01*
X51298946Y44404118D01*
X51569865Y44403882D01*
X51820252Y44507339D01*
X52011987Y44698741D01*
X52115882Y44948946D01*
X52116118Y45219865D01*
X52012661Y45470252D01*
X51821259Y45661987D01*
X51571054Y45765882D01*
X51300135Y45766118D01*
X51049748Y45662661D01*
X50858013Y45471259D01*
X50754118Y45221054D01*
X50753882Y44950135D01*
X49911000Y44950135D01*
X49911000Y46855135D01*
X72978882Y46855135D01*
X73082339Y46604748D01*
X73273741Y46413013D01*
X73523946Y46309118D01*
X73794865Y46308882D01*
X74045252Y46412339D01*
X74236987Y46603741D01*
X74340882Y46853946D01*
X74340883Y46855135D01*
X75518882Y46855135D01*
X75622339Y46604748D01*
X75813741Y46413013D01*
X75953485Y46354986D01*
X75814748Y46297661D01*
X75623013Y46106259D01*
X75519118Y45856054D01*
X75518882Y45585135D01*
X75622339Y45334748D01*
X75813741Y45143013D01*
X76063946Y45039118D01*
X76334865Y45038882D01*
X76585252Y45142339D01*
X76776987Y45333741D01*
X76880882Y45583946D01*
X76881118Y45854865D01*
X76777661Y46105252D01*
X76586259Y46296987D01*
X76446515Y46355014D01*
X76585252Y46412339D01*
X76776987Y46603741D01*
X76880882Y46853946D01*
X76881118Y47124865D01*
X76777661Y47375252D01*
X76586259Y47566987D01*
X76336054Y47670882D01*
X76065135Y47671118D01*
X75814748Y47567661D01*
X75623013Y47376259D01*
X75519118Y47126054D01*
X75518882Y46855135D01*
X74340883Y46855135D01*
X74341118Y47124865D01*
X74237661Y47375252D01*
X74046259Y47566987D01*
X73796054Y47670882D01*
X73525135Y47671118D01*
X73274748Y47567661D01*
X73083013Y47376259D01*
X72979118Y47126054D01*
X72978882Y46855135D01*
X49911000Y46855135D01*
X49911000Y47490135D01*
X56468882Y47490135D01*
X56572339Y47239748D01*
X56763741Y47048013D01*
X57013946Y46944118D01*
X57284865Y46943882D01*
X57535252Y47047339D01*
X57726987Y47238741D01*
X57830882Y47488946D01*
X57831118Y47759865D01*
X57727661Y48010252D01*
X57536259Y48201987D01*
X57286054Y48305882D01*
X57015135Y48306118D01*
X56764748Y48202661D01*
X56573013Y48011259D01*
X56469118Y47761054D01*
X56468882Y47490135D01*
X49911000Y47490135D01*
X49911000Y49403000D01*
X79544000Y49403000D01*
X79544000Y456000D01*
G36*
X79544000Y50292000D02*
X20955000Y50292000D01*
X20905590Y50281994D01*
X20863965Y50253553D01*
X20836685Y50211159D01*
X20828000Y50165000D01*
X20828000Y20048163D01*
X20780739Y20162543D01*
X20280173Y20663983D01*
X19625817Y20935695D01*
X18917291Y20936314D01*
X18262462Y20665744D01*
X17761022Y20165178D01*
X17489310Y19510822D01*
X17488691Y18802296D01*
X17759261Y18147467D01*
X18259827Y17646027D01*
X18914183Y17374315D01*
X19622709Y17373696D01*
X20277538Y17644266D01*
X20778978Y18144832D01*
X20828000Y18262890D01*
X20828000Y14368163D01*
X20780739Y14482543D01*
X20280173Y14983983D01*
X19625817Y15255695D01*
X18917291Y15256314D01*
X18262462Y14985744D01*
X17761022Y14485178D01*
X17489310Y13830822D01*
X17488691Y13122296D01*
X17759261Y12467467D01*
X18259827Y11966027D01*
X18914183Y11694315D01*
X19622709Y11693696D01*
X20277538Y11964266D01*
X20778978Y12464832D01*
X20828000Y12582890D01*
X20828000Y456000D01*
X456000Y456000D01*
X456000Y13122296D01*
X4348691Y13122296D01*
X4619261Y12467467D01*
X5119827Y11966027D01*
X5774183Y11694315D01*
X6482709Y11693696D01*
X7137538Y11964266D01*
X7638978Y12464832D01*
X7910690Y13119188D01*
X7911309Y13827714D01*
X7640739Y14482543D01*
X7140173Y14983983D01*
X6485817Y15255695D01*
X5777291Y15256314D01*
X5122462Y14985744D01*
X4621022Y14485178D01*
X4349310Y13830822D01*
X4348691Y13122296D01*
X456000Y13122296D01*
X456000Y15968944D01*
X8108811Y15968944D01*
X8274556Y15567810D01*
X8581191Y15260639D01*
X8982035Y15094195D01*
X9416061Y15093816D01*
X9817195Y15259561D01*
X10124366Y15566196D01*
X10290810Y15967040D01*
X10290811Y15968944D01*
X10608811Y15968944D01*
X10774556Y15567810D01*
X11081191Y15260639D01*
X11482035Y15094195D01*
X11916061Y15093816D01*
X12317195Y15259561D01*
X12624366Y15566196D01*
X12699980Y15748297D01*
X12774556Y15567810D01*
X13081191Y15260639D01*
X13482035Y15094195D01*
X13916061Y15093816D01*
X14317195Y15259561D01*
X14624366Y15566196D01*
X14790810Y15967040D01*
X14791189Y16401066D01*
X14625444Y16802200D01*
X14318809Y17109371D01*
X13917965Y17275815D01*
X13483939Y17276194D01*
X13082805Y17110449D01*
X12775634Y16803814D01*
X12700020Y16621713D01*
X12625444Y16802200D01*
X12318809Y17109371D01*
X11917965Y17275815D01*
X11483939Y17276194D01*
X11082805Y17110449D01*
X10775634Y16803814D01*
X10609190Y16402970D01*
X10608811Y15968944D01*
X10290811Y15968944D01*
X10291189Y16401066D01*
X10125444Y16802200D01*
X9818809Y17109371D01*
X9417965Y17275815D01*
X8983939Y17276194D01*
X8582805Y17110449D01*
X8275634Y16803814D01*
X8109190Y16402970D01*
X8108811Y15968944D01*
X456000Y15968944D01*
X456000Y18802296D01*
X4348691Y18802296D01*
X4619261Y18147467D01*
X5119827Y17646027D01*
X5774183Y17374315D01*
X6482709Y17373696D01*
X7137538Y17644266D01*
X7638978Y18144832D01*
X7823389Y18588944D01*
X8108811Y18588944D01*
X8274556Y18187810D01*
X8581191Y17880639D01*
X8982035Y17714195D01*
X9416061Y17713816D01*
X9817195Y17879561D01*
X10124366Y18186196D01*
X10290810Y18587040D01*
X10290811Y18588944D01*
X10608811Y18588944D01*
X10774556Y18187810D01*
X11081191Y17880639D01*
X11482035Y17714195D01*
X11916061Y17713816D01*
X12317195Y17879561D01*
X12624366Y18186196D01*
X12699980Y18368297D01*
X12774556Y18187810D01*
X13081191Y17880639D01*
X13482035Y17714195D01*
X13916061Y17713816D01*
X14317195Y17879561D01*
X14624366Y18186196D01*
X14790810Y18587040D01*
X14791189Y19021066D01*
X14625444Y19422200D01*
X14318809Y19729371D01*
X13917965Y19895815D01*
X13483939Y19896194D01*
X13082805Y19730449D01*
X12775634Y19423814D01*
X12700020Y19241713D01*
X12625444Y19422200D01*
X12318809Y19729371D01*
X11917965Y19895815D01*
X11483939Y19896194D01*
X11082805Y19730449D01*
X10775634Y19423814D01*
X10609190Y19022970D01*
X10608811Y18588944D01*
X10290811Y18588944D01*
X10291189Y19021066D01*
X10125444Y19422200D01*
X9818809Y19729371D01*
X9417965Y19895815D01*
X8983939Y19896194D01*
X8582805Y19730449D01*
X8275634Y19423814D01*
X8109190Y19022970D01*
X8108811Y18588944D01*
X7823389Y18588944D01*
X7910690Y18799188D01*
X7911309Y19507714D01*
X7640739Y20162543D01*
X7140173Y20663983D01*
X6485817Y20935695D01*
X5777291Y20936314D01*
X5122462Y20665744D01*
X4621022Y20165178D01*
X4349310Y19510822D01*
X4348691Y18802296D01*
X456000Y18802296D01*
X456000Y29075135D01*
X18368882Y29075135D01*
X18472339Y28824748D01*
X18663741Y28633013D01*
X18913946Y28529118D01*
X19184865Y28528882D01*
X19435252Y28632339D01*
X19626987Y28823741D01*
X19730882Y29073946D01*
X19731118Y29344865D01*
X19627661Y29595252D01*
X19436259Y29786987D01*
X19186054Y29890882D01*
X18915135Y29891118D01*
X18664748Y29787661D01*
X18473013Y29596259D01*
X18369118Y29346054D01*
X18368882Y29075135D01*
X456000Y29075135D01*
X456000Y44450000D01*
X3655631Y44450000D01*
X3750371Y43973712D01*
X4020166Y43569935D01*
X4423943Y43300140D01*
X4900231Y43205400D01*
X5259769Y43205400D01*
X5736057Y43300140D01*
X6139834Y43569935D01*
X6409629Y43973712D01*
X6504369Y44450000D01*
X6409629Y44926288D01*
X6139834Y45330065D01*
X5736057Y45599860D01*
X5259769Y45694600D01*
X4900231Y45694600D01*
X4423943Y45599860D01*
X4020166Y45330065D01*
X3750371Y44926288D01*
X3655631Y44450000D01*
X456000Y44450000D01*
X456000Y46990000D01*
X3655631Y46990000D01*
X3750371Y46513712D01*
X4020166Y46109935D01*
X4423943Y45840140D01*
X4900231Y45745400D01*
X5259769Y45745400D01*
X5736057Y45840140D01*
X6139834Y46109935D01*
X6409629Y46513712D01*
X6504369Y46990000D01*
X6409629Y47466288D01*
X6139834Y47870065D01*
X5736057Y48139860D01*
X5259769Y48234600D01*
X4900231Y48234600D01*
X4423943Y48139860D01*
X4020166Y47870065D01*
X3750371Y47466288D01*
X3655631Y46990000D01*
X456000Y46990000D01*
X456000Y50393600D01*
X3675536Y50393600D01*
X3675536Y48666400D01*
X3702103Y48525210D01*
X3785546Y48395535D01*
X3912866Y48308541D01*
X4064000Y48277936D01*
X6096000Y48277936D01*
X6237190Y48304503D01*
X6366865Y48387946D01*
X6453859Y48515266D01*
X6484464Y48666400D01*
X6484464Y50393600D01*
X6457897Y50534790D01*
X6374454Y50664465D01*
X6373474Y50665135D01*
X16463882Y50665135D01*
X16567339Y50414748D01*
X16758741Y50223013D01*
X17008946Y50119118D01*
X17279865Y50118882D01*
X17530252Y50222339D01*
X17721987Y50413741D01*
X17825882Y50663946D01*
X17826118Y50934865D01*
X17722661Y51185252D01*
X17531259Y51376987D01*
X17281054Y51480882D01*
X17010135Y51481118D01*
X16759748Y51377661D01*
X16568013Y51186259D01*
X16464118Y50936054D01*
X16463882Y50665135D01*
X6373474Y50665135D01*
X6247134Y50751459D01*
X6096000Y50782064D01*
X4064000Y50782064D01*
X3922810Y50755497D01*
X3793135Y50672054D01*
X3706141Y50544734D01*
X3675536Y50393600D01*
X456000Y50393600D01*
X456000Y51935135D01*
X37418882Y51935135D01*
X37522339Y51684748D01*
X37713741Y51493013D01*
X37963946Y51389118D01*
X38234865Y51388882D01*
X38485252Y51492339D01*
X38676987Y51683741D01*
X38780882Y51933946D01*
X38780883Y51935135D01*
X49483882Y51935135D01*
X49587339Y51684748D01*
X49778741Y51493013D01*
X50028946Y51389118D01*
X50299865Y51388882D01*
X50550252Y51492339D01*
X50741987Y51683741D01*
X50845882Y51933946D01*
X50845883Y51935135D01*
X65358882Y51935135D01*
X65462339Y51684748D01*
X65653741Y51493013D01*
X65903946Y51389118D01*
X66174865Y51388882D01*
X66425252Y51492339D01*
X66616987Y51683741D01*
X66720882Y51933946D01*
X66721118Y52204865D01*
X66617661Y52455252D01*
X66426259Y52646987D01*
X66176054Y52750882D01*
X65905135Y52751118D01*
X65654748Y52647661D01*
X65463013Y52456259D01*
X65359118Y52206054D01*
X65358882Y51935135D01*
X50845883Y51935135D01*
X50846118Y52204865D01*
X50742661Y52455252D01*
X50627978Y52570135D01*
X62818882Y52570135D01*
X62922339Y52319748D01*
X63113741Y52128013D01*
X63363946Y52024118D01*
X63634865Y52023882D01*
X63885252Y52127339D01*
X64076987Y52318741D01*
X64180882Y52568946D01*
X64181118Y52839865D01*
X64077661Y53090252D01*
X63886259Y53281987D01*
X63636054Y53385882D01*
X63365135Y53386118D01*
X63114748Y53282661D01*
X62923013Y53091259D01*
X62819118Y52841054D01*
X62818882Y52570135D01*
X50627978Y52570135D01*
X50551259Y52646987D01*
X50301054Y52750882D01*
X50030135Y52751118D01*
X49779748Y52647661D01*
X49588013Y52456259D01*
X49484118Y52206054D01*
X49483882Y51935135D01*
X38780883Y51935135D01*
X38781118Y52204865D01*
X38677661Y52455252D01*
X38486259Y52646987D01*
X38236054Y52750882D01*
X37965135Y52751118D01*
X37714748Y52647661D01*
X37523013Y52456259D01*
X37419118Y52206054D01*
X37418882Y51935135D01*
X456000Y51935135D01*
X456000Y52570135D01*
X34878882Y52570135D01*
X34982339Y52319748D01*
X35173741Y52128013D01*
X35423946Y52024118D01*
X35694865Y52023882D01*
X35945252Y52127339D01*
X36136987Y52318741D01*
X36240882Y52568946D01*
X36241118Y52839865D01*
X36137661Y53090252D01*
X36022978Y53205135D01*
X51388882Y53205135D01*
X51492339Y52954748D01*
X51683741Y52763013D01*
X51933946Y52659118D01*
X52204865Y52658882D01*
X52455252Y52762339D01*
X52646987Y52953741D01*
X52705014Y53093485D01*
X52762339Y52954748D01*
X52953741Y52763013D01*
X53203946Y52659118D01*
X53474865Y52658882D01*
X53725252Y52762339D01*
X53916987Y52953741D01*
X54020882Y53203946D01*
X54021118Y53474865D01*
X53917661Y53725252D01*
X53726259Y53916987D01*
X53476054Y54020882D01*
X53205135Y54021118D01*
X52954748Y53917661D01*
X52763013Y53726259D01*
X52704986Y53586515D01*
X52647661Y53725252D01*
X52456259Y53916987D01*
X52206054Y54020882D01*
X51935135Y54021118D01*
X51684748Y53917661D01*
X51493013Y53726259D01*
X51389118Y53476054D01*
X51388882Y53205135D01*
X36022978Y53205135D01*
X35946259Y53281987D01*
X35696054Y53385882D01*
X35425135Y53386118D01*
X35174748Y53282661D01*
X34983013Y53091259D01*
X34879118Y52841054D01*
X34878882Y52570135D01*
X456000Y52570135D01*
X456000Y53205135D01*
X22178882Y53205135D01*
X22282339Y52954748D01*
X22473741Y52763013D01*
X22723946Y52659118D01*
X22994865Y52658882D01*
X23245252Y52762339D01*
X23436987Y52953741D01*
X23540882Y53203946D01*
X23541118Y53474865D01*
X23437661Y53725252D01*
X23246259Y53916987D01*
X22996054Y54020882D01*
X22725135Y54021118D01*
X22474748Y53917661D01*
X22283013Y53726259D01*
X22179118Y53476054D01*
X22178882Y53205135D01*
X456000Y53205135D01*
X456000Y53840135D01*
X16463882Y53840135D01*
X16567339Y53589748D01*
X16758741Y53398013D01*
X17008946Y53294118D01*
X17279865Y53293882D01*
X17530252Y53397339D01*
X17721987Y53588741D01*
X17825882Y53838946D01*
X17826118Y54109865D01*
X17722661Y54360252D01*
X17531259Y54551987D01*
X17281054Y54655882D01*
X17010135Y54656118D01*
X16759748Y54552661D01*
X16568013Y54361259D01*
X16464118Y54111054D01*
X16463882Y53840135D01*
X456000Y53840135D01*
X456000Y55745135D01*
X11383882Y55745135D01*
X11487339Y55494748D01*
X11678741Y55303013D01*
X11928946Y55199118D01*
X12199865Y55198882D01*
X12450252Y55302339D01*
X12641987Y55493741D01*
X12745882Y55743946D01*
X12745883Y55745135D01*
X22178882Y55745135D01*
X22282339Y55494748D01*
X22473741Y55303013D01*
X22723946Y55199118D01*
X22994865Y55198882D01*
X23245252Y55302339D01*
X23436987Y55493741D01*
X23540882Y55743946D01*
X23541118Y56014865D01*
X23437661Y56265252D01*
X23322978Y56380135D01*
X25353882Y56380135D01*
X25457339Y56129748D01*
X25648741Y55938013D01*
X25898946Y55834118D01*
X26169865Y55833882D01*
X26420252Y55937339D01*
X26611987Y56128741D01*
X26715882Y56378946D01*
X26716118Y56649865D01*
X26612661Y56900252D01*
X26497978Y57015135D01*
X29798882Y57015135D01*
X29902339Y56764748D01*
X30093741Y56573013D01*
X30343946Y56469118D01*
X30614865Y56468882D01*
X30865252Y56572339D01*
X31056987Y56763741D01*
X31160882Y57013946D01*
X31161118Y57284865D01*
X31057661Y57535252D01*
X30866259Y57726987D01*
X30616054Y57830882D01*
X30345135Y57831118D01*
X30094748Y57727661D01*
X29903013Y57536259D01*
X29799118Y57286054D01*
X29798882Y57015135D01*
X26497978Y57015135D01*
X26421259Y57091987D01*
X26171054Y57195882D01*
X25900135Y57196118D01*
X25649748Y57092661D01*
X25458013Y56901259D01*
X25354118Y56651054D01*
X25353882Y56380135D01*
X23322978Y56380135D01*
X23246259Y56456987D01*
X22996054Y56560882D01*
X22725135Y56561118D01*
X22474748Y56457661D01*
X22283013Y56266259D01*
X22179118Y56016054D01*
X22178882Y55745135D01*
X12745883Y55745135D01*
X12746118Y56014865D01*
X12642661Y56265252D01*
X12451259Y56456987D01*
X12201054Y56560882D01*
X11930135Y56561118D01*
X11679748Y56457661D01*
X11488013Y56266259D01*
X11384118Y56016054D01*
X11383882Y55745135D01*
X456000Y55745135D01*
X456000Y57650135D01*
X20273882Y57650135D01*
X20377339Y57399748D01*
X20568741Y57208013D01*
X20818946Y57104118D01*
X21089865Y57103882D01*
X21340252Y57207339D01*
X21531987Y57398741D01*
X21635882Y57648946D01*
X21636118Y57919865D01*
X21532661Y58170252D01*
X21341259Y58361987D01*
X21091054Y58465882D01*
X20820135Y58466118D01*
X20569748Y58362661D01*
X20378013Y58171259D01*
X20274118Y57921054D01*
X20273882Y57650135D01*
X456000Y57650135D01*
X456000Y59555135D01*
X62183882Y59555135D01*
X62287339Y59304748D01*
X62478741Y59113013D01*
X62728946Y59009118D01*
X62999865Y59008882D01*
X63250252Y59112339D01*
X63441987Y59303741D01*
X63545882Y59553946D01*
X63546118Y59824865D01*
X63442661Y60075252D01*
X63251259Y60266987D01*
X63001054Y60370882D01*
X62730135Y60371118D01*
X62479748Y60267661D01*
X62288013Y60076259D01*
X62184118Y59826054D01*
X62183882Y59555135D01*
X456000Y59555135D01*
X456000Y60825135D01*
X25353882Y60825135D01*
X25457339Y60574748D01*
X25648741Y60383013D01*
X25898946Y60279118D01*
X26169865Y60278882D01*
X26420252Y60382339D01*
X26611987Y60573741D01*
X26715882Y60823946D01*
X26716118Y61094865D01*
X26612661Y61345252D01*
X26421259Y61536987D01*
X26171054Y61640882D01*
X25900135Y61641118D01*
X25649748Y61537661D01*
X25458013Y61346259D01*
X25354118Y61096054D01*
X25353882Y60825135D01*
X456000Y60825135D01*
X456000Y61460135D01*
X22178882Y61460135D01*
X22282339Y61209748D01*
X22473741Y61018013D01*
X22723946Y60914118D01*
X22994865Y60913882D01*
X23245252Y61017339D01*
X23436987Y61208741D01*
X23540882Y61458946D01*
X23541118Y61729865D01*
X23437661Y61980252D01*
X23322978Y62095135D01*
X62183882Y62095135D01*
X62287339Y61844748D01*
X62478741Y61653013D01*
X62728946Y61549118D01*
X62999865Y61548882D01*
X63250252Y61652339D01*
X63441987Y61843741D01*
X63545882Y62093946D01*
X63546118Y62364865D01*
X63442661Y62615252D01*
X63251259Y62806987D01*
X63001054Y62910882D01*
X62730135Y62911118D01*
X62479748Y62807661D01*
X62288013Y62616259D01*
X62184118Y62366054D01*
X62183882Y62095135D01*
X23322978Y62095135D01*
X23246259Y62171987D01*
X22996054Y62275882D01*
X22725135Y62276118D01*
X22474748Y62172661D01*
X22283013Y61981259D01*
X22179118Y61731054D01*
X22178882Y61460135D01*
X456000Y61460135D01*
X456000Y66555000D01*
X3541536Y66555000D01*
X3541536Y64255000D01*
X3568103Y64113810D01*
X3651546Y63984135D01*
X3778866Y63897141D01*
X3930000Y63866536D01*
X6230000Y63866536D01*
X6371190Y63893103D01*
X6500865Y63976546D01*
X6587859Y64103866D01*
X6618464Y64255000D01*
X6618464Y66540135D01*
X16463882Y66540135D01*
X16567339Y66289748D01*
X16758741Y66098013D01*
X16898485Y66039986D01*
X16759748Y65982661D01*
X16568013Y65791259D01*
X16464118Y65541054D01*
X16463882Y65270135D01*
X16567339Y65019748D01*
X16758741Y64828013D01*
X16898485Y64769986D01*
X16759748Y64712661D01*
X16568013Y64521259D01*
X16464118Y64271054D01*
X16463882Y64000135D01*
X16567339Y63749748D01*
X16758741Y63558013D01*
X17008946Y63454118D01*
X17279865Y63453882D01*
X17530252Y63557339D01*
X17721987Y63748741D01*
X17825882Y63998946D01*
X17826118Y64269865D01*
X17722661Y64520252D01*
X17607978Y64635135D01*
X62183882Y64635135D01*
X62287339Y64384748D01*
X62478741Y64193013D01*
X62728946Y64089118D01*
X62999865Y64088882D01*
X63250252Y64192339D01*
X63441987Y64383741D01*
X63545882Y64633946D01*
X63546118Y64904865D01*
X63442661Y65155252D01*
X63251259Y65346987D01*
X63001054Y65450882D01*
X62730135Y65451118D01*
X62479748Y65347661D01*
X62288013Y65156259D01*
X62184118Y64906054D01*
X62183882Y64635135D01*
X17607978Y64635135D01*
X17531259Y64711987D01*
X17391515Y64770014D01*
X17530252Y64827339D01*
X17721987Y65018741D01*
X17825882Y65268946D01*
X17826118Y65539865D01*
X17722661Y65790252D01*
X17531259Y65981987D01*
X17391515Y66040014D01*
X17530252Y66097339D01*
X17721987Y66288741D01*
X17825882Y66538946D01*
X17826118Y66809865D01*
X17722661Y67060252D01*
X17531259Y67251987D01*
X17281054Y67355882D01*
X17010135Y67356118D01*
X16759748Y67252661D01*
X16568013Y67061259D01*
X16464118Y66811054D01*
X16463882Y66540135D01*
X6618464Y66540135D01*
X6618464Y66555000D01*
X6591897Y66696190D01*
X6508454Y66825865D01*
X6381134Y66912859D01*
X6230000Y66943464D01*
X3930000Y66943464D01*
X3788810Y66916897D01*
X3659135Y66833454D01*
X3572141Y66706134D01*
X3541536Y66555000D01*
X456000Y66555000D01*
X456000Y68326000D01*
X32402936Y68326000D01*
X32402936Y66294000D01*
X32429503Y66152810D01*
X32512946Y66023135D01*
X32640266Y65936141D01*
X32791400Y65905536D01*
X34518600Y65905536D01*
X34659790Y65932103D01*
X34789465Y66015546D01*
X34876459Y66142866D01*
X34907064Y66294000D01*
X34907064Y67489769D01*
X34950400Y67489769D01*
X34950400Y67130231D01*
X35045140Y66653943D01*
X35314935Y66250166D01*
X35718712Y65980371D01*
X36195000Y65885631D01*
X36671288Y65980371D01*
X37075065Y66250166D01*
X37344860Y66653943D01*
X37439600Y67130231D01*
X37439600Y67489769D01*
X40030400Y67489769D01*
X40030400Y67130231D01*
X40125140Y66653943D01*
X40394935Y66250166D01*
X40798712Y65980371D01*
X41275000Y65885631D01*
X41751288Y65980371D01*
X42155065Y66250166D01*
X42424860Y66653943D01*
X42519600Y67130231D01*
X42519600Y67489769D01*
X42570400Y67489769D01*
X42570400Y67130231D01*
X42665140Y66653943D01*
X42934935Y66250166D01*
X43338712Y65980371D01*
X43815000Y65885631D01*
X44291288Y65980371D01*
X44695065Y66250166D01*
X44964860Y66653943D01*
X45059600Y67130231D01*
X45059600Y67489769D01*
X45110400Y67489769D01*
X45110400Y67130231D01*
X45205140Y66653943D01*
X45474935Y66250166D01*
X45878712Y65980371D01*
X46355000Y65885631D01*
X46831288Y65980371D01*
X47235065Y66250166D01*
X47504860Y66653943D01*
X47599600Y67130231D01*
X47599600Y67175135D01*
X62183882Y67175135D01*
X62287339Y66924748D01*
X62478741Y66733013D01*
X62728946Y66629118D01*
X62999865Y66628882D01*
X63250252Y66732339D01*
X63441987Y66923741D01*
X63545882Y67173946D01*
X63546118Y67444865D01*
X63442661Y67695252D01*
X63327978Y67810135D01*
X75518882Y67810135D01*
X75622339Y67559748D01*
X75813741Y67368013D01*
X76063946Y67264118D01*
X76334865Y67263882D01*
X76585252Y67367339D01*
X76776987Y67558741D01*
X76880882Y67808946D01*
X76881118Y68079865D01*
X76777661Y68330252D01*
X76586259Y68521987D01*
X76336054Y68625882D01*
X76065135Y68626118D01*
X75814748Y68522661D01*
X75623013Y68331259D01*
X75519118Y68081054D01*
X75518882Y67810135D01*
X63327978Y67810135D01*
X63251259Y67886987D01*
X63001054Y67990882D01*
X62730135Y67991118D01*
X62479748Y67887661D01*
X62288013Y67696259D01*
X62184118Y67446054D01*
X62183882Y67175135D01*
X47599600Y67175135D01*
X47599600Y67489769D01*
X47504860Y67966057D01*
X47235065Y68369834D01*
X46831288Y68639629D01*
X46355000Y68734369D01*
X45878712Y68639629D01*
X45474935Y68369834D01*
X45205140Y67966057D01*
X45110400Y67489769D01*
X45059600Y67489769D01*
X44964860Y67966057D01*
X44695065Y68369834D01*
X44291288Y68639629D01*
X43815000Y68734369D01*
X43338712Y68639629D01*
X42934935Y68369834D01*
X42665140Y67966057D01*
X42570400Y67489769D01*
X42519600Y67489769D01*
X42424860Y67966057D01*
X42155065Y68369834D01*
X41751288Y68639629D01*
X41275000Y68734369D01*
X40798712Y68639629D01*
X40394935Y68369834D01*
X40125140Y67966057D01*
X40030400Y67489769D01*
X37439600Y67489769D01*
X37344860Y67966057D01*
X37075065Y68369834D01*
X36671288Y68639629D01*
X36195000Y68734369D01*
X35718712Y68639629D01*
X35314935Y68369834D01*
X35045140Y67966057D01*
X34950400Y67489769D01*
X34907064Y67489769D01*
X34907064Y68326000D01*
X34880497Y68467190D01*
X34797054Y68596865D01*
X34669734Y68683859D01*
X34518600Y68714464D01*
X32791400Y68714464D01*
X32650210Y68687897D01*
X32520535Y68604454D01*
X32433541Y68477134D01*
X32402936Y68326000D01*
X456000Y68326000D01*
X456000Y71544000D01*
X79544000Y71544000D01*
X79544000Y50292000D01*
X79544000Y50292000D01*
G37*
X79544000Y50292000D02*
X20955000Y50292000D01*
X20905590Y50281994D01*
X20863965Y50253553D01*
X20836685Y50211159D01*
X20828000Y50165000D01*
X20828000Y20048163D01*
X20780739Y20162543D01*
X20280173Y20663983D01*
X19625817Y20935695D01*
X18917291Y20936314D01*
X18262462Y20665744D01*
X17761022Y20165178D01*
X17489310Y19510822D01*
X17488691Y18802296D01*
X17759261Y18147467D01*
X18259827Y17646027D01*
X18914183Y17374315D01*
X19622709Y17373696D01*
X20277538Y17644266D01*
X20778978Y18144832D01*
X20828000Y18262890D01*
X20828000Y14368163D01*
X20780739Y14482543D01*
X20280173Y14983983D01*
X19625817Y15255695D01*
X18917291Y15256314D01*
X18262462Y14985744D01*
X17761022Y14485178D01*
X17489310Y13830822D01*
X17488691Y13122296D01*
X17759261Y12467467D01*
X18259827Y11966027D01*
X18914183Y11694315D01*
X19622709Y11693696D01*
X20277538Y11964266D01*
X20778978Y12464832D01*
X20828000Y12582890D01*
X20828000Y456000D01*
X456000Y456000D01*
X456000Y13122296D01*
X4348691Y13122296D01*
X4619261Y12467467D01*
X5119827Y11966027D01*
X5774183Y11694315D01*
X6482709Y11693696D01*
X7137538Y11964266D01*
X7638978Y12464832D01*
X7910690Y13119188D01*
X7911309Y13827714D01*
X7640739Y14482543D01*
X7140173Y14983983D01*
X6485817Y15255695D01*
X5777291Y15256314D01*
X5122462Y14985744D01*
X4621022Y14485178D01*
X4349310Y13830822D01*
X4348691Y13122296D01*
X456000Y13122296D01*
X456000Y15968944D01*
X8108811Y15968944D01*
X8274556Y15567810D01*
X8581191Y15260639D01*
X8982035Y15094195D01*
X9416061Y15093816D01*
X9817195Y15259561D01*
X10124366Y15566196D01*
X10290810Y15967040D01*
X10290811Y15968944D01*
X10608811Y15968944D01*
X10774556Y15567810D01*
X11081191Y15260639D01*
X11482035Y15094195D01*
X11916061Y15093816D01*
X12317195Y15259561D01*
X12624366Y15566196D01*
X12699980Y15748297D01*
X12774556Y15567810D01*
X13081191Y15260639D01*
X13482035Y15094195D01*
X13916061Y15093816D01*
X14317195Y15259561D01*
X14624366Y15566196D01*
X14790810Y15967040D01*
X14791189Y16401066D01*
X14625444Y16802200D01*
X14318809Y17109371D01*
X13917965Y17275815D01*
X13483939Y17276194D01*
X13082805Y17110449D01*
X12775634Y16803814D01*
X12700020Y16621713D01*
X12625444Y16802200D01*
X12318809Y17109371D01*
X11917965Y17275815D01*
X11483939Y17276194D01*
X11082805Y17110449D01*
X10775634Y16803814D01*
X10609190Y16402970D01*
X10608811Y15968944D01*
X10290811Y15968944D01*
X10291189Y16401066D01*
X10125444Y16802200D01*
X9818809Y17109371D01*
X9417965Y17275815D01*
X8983939Y17276194D01*
X8582805Y17110449D01*
X8275634Y16803814D01*
X8109190Y16402970D01*
X8108811Y15968944D01*
X456000Y15968944D01*
X456000Y18802296D01*
X4348691Y18802296D01*
X4619261Y18147467D01*
X5119827Y17646027D01*
X5774183Y17374315D01*
X6482709Y17373696D01*
X7137538Y17644266D01*
X7638978Y18144832D01*
X7823389Y18588944D01*
X8108811Y18588944D01*
X8274556Y18187810D01*
X8581191Y17880639D01*
X8982035Y17714195D01*
X9416061Y17713816D01*
X9817195Y17879561D01*
X10124366Y18186196D01*
X10290810Y18587040D01*
X10290811Y18588944D01*
X10608811Y18588944D01*
X10774556Y18187810D01*
X11081191Y17880639D01*
X11482035Y17714195D01*
X11916061Y17713816D01*
X12317195Y17879561D01*
X12624366Y18186196D01*
X12699980Y18368297D01*
X12774556Y18187810D01*
X13081191Y17880639D01*
X13482035Y17714195D01*
X13916061Y17713816D01*
X14317195Y17879561D01*
X14624366Y18186196D01*
X14790810Y18587040D01*
X14791189Y19021066D01*
X14625444Y19422200D01*
X14318809Y19729371D01*
X13917965Y19895815D01*
X13483939Y19896194D01*
X13082805Y19730449D01*
X12775634Y19423814D01*
X12700020Y19241713D01*
X12625444Y19422200D01*
X12318809Y19729371D01*
X11917965Y19895815D01*
X11483939Y19896194D01*
X11082805Y19730449D01*
X10775634Y19423814D01*
X10609190Y19022970D01*
X10608811Y18588944D01*
X10290811Y18588944D01*
X10291189Y19021066D01*
X10125444Y19422200D01*
X9818809Y19729371D01*
X9417965Y19895815D01*
X8983939Y19896194D01*
X8582805Y19730449D01*
X8275634Y19423814D01*
X8109190Y19022970D01*
X8108811Y18588944D01*
X7823389Y18588944D01*
X7910690Y18799188D01*
X7911309Y19507714D01*
X7640739Y20162543D01*
X7140173Y20663983D01*
X6485817Y20935695D01*
X5777291Y20936314D01*
X5122462Y20665744D01*
X4621022Y20165178D01*
X4349310Y19510822D01*
X4348691Y18802296D01*
X456000Y18802296D01*
X456000Y29075135D01*
X18368882Y29075135D01*
X18472339Y28824748D01*
X18663741Y28633013D01*
X18913946Y28529118D01*
X19184865Y28528882D01*
X19435252Y28632339D01*
X19626987Y28823741D01*
X19730882Y29073946D01*
X19731118Y29344865D01*
X19627661Y29595252D01*
X19436259Y29786987D01*
X19186054Y29890882D01*
X18915135Y29891118D01*
X18664748Y29787661D01*
X18473013Y29596259D01*
X18369118Y29346054D01*
X18368882Y29075135D01*
X456000Y29075135D01*
X456000Y44450000D01*
X3655631Y44450000D01*
X3750371Y43973712D01*
X4020166Y43569935D01*
X4423943Y43300140D01*
X4900231Y43205400D01*
X5259769Y43205400D01*
X5736057Y43300140D01*
X6139834Y43569935D01*
X6409629Y43973712D01*
X6504369Y44450000D01*
X6409629Y44926288D01*
X6139834Y45330065D01*
X5736057Y45599860D01*
X5259769Y45694600D01*
X4900231Y45694600D01*
X4423943Y45599860D01*
X4020166Y45330065D01*
X3750371Y44926288D01*
X3655631Y44450000D01*
X456000Y44450000D01*
X456000Y46990000D01*
X3655631Y46990000D01*
X3750371Y46513712D01*
X4020166Y46109935D01*
X4423943Y45840140D01*
X4900231Y45745400D01*
X5259769Y45745400D01*
X5736057Y45840140D01*
X6139834Y46109935D01*
X6409629Y46513712D01*
X6504369Y46990000D01*
X6409629Y47466288D01*
X6139834Y47870065D01*
X5736057Y48139860D01*
X5259769Y48234600D01*
X4900231Y48234600D01*
X4423943Y48139860D01*
X4020166Y47870065D01*
X3750371Y47466288D01*
X3655631Y46990000D01*
X456000Y46990000D01*
X456000Y50393600D01*
X3675536Y50393600D01*
X3675536Y48666400D01*
X3702103Y48525210D01*
X3785546Y48395535D01*
X3912866Y48308541D01*
X4064000Y48277936D01*
X6096000Y48277936D01*
X6237190Y48304503D01*
X6366865Y48387946D01*
X6453859Y48515266D01*
X6484464Y48666400D01*
X6484464Y50393600D01*
X6457897Y50534790D01*
X6374454Y50664465D01*
X6373474Y50665135D01*
X16463882Y50665135D01*
X16567339Y50414748D01*
X16758741Y50223013D01*
X17008946Y50119118D01*
X17279865Y50118882D01*
X17530252Y50222339D01*
X17721987Y50413741D01*
X17825882Y50663946D01*
X17826118Y50934865D01*
X17722661Y51185252D01*
X17531259Y51376987D01*
X17281054Y51480882D01*
X17010135Y51481118D01*
X16759748Y51377661D01*
X16568013Y51186259D01*
X16464118Y50936054D01*
X16463882Y50665135D01*
X6373474Y50665135D01*
X6247134Y50751459D01*
X6096000Y50782064D01*
X4064000Y50782064D01*
X3922810Y50755497D01*
X3793135Y50672054D01*
X3706141Y50544734D01*
X3675536Y50393600D01*
X456000Y50393600D01*
X456000Y51935135D01*
X37418882Y51935135D01*
X37522339Y51684748D01*
X37713741Y51493013D01*
X37963946Y51389118D01*
X38234865Y51388882D01*
X38485252Y51492339D01*
X38676987Y51683741D01*
X38780882Y51933946D01*
X38780883Y51935135D01*
X49483882Y51935135D01*
X49587339Y51684748D01*
X49778741Y51493013D01*
X50028946Y51389118D01*
X50299865Y51388882D01*
X50550252Y51492339D01*
X50741987Y51683741D01*
X50845882Y51933946D01*
X50845883Y51935135D01*
X65358882Y51935135D01*
X65462339Y51684748D01*
X65653741Y51493013D01*
X65903946Y51389118D01*
X66174865Y51388882D01*
X66425252Y51492339D01*
X66616987Y51683741D01*
X66720882Y51933946D01*
X66721118Y52204865D01*
X66617661Y52455252D01*
X66426259Y52646987D01*
X66176054Y52750882D01*
X65905135Y52751118D01*
X65654748Y52647661D01*
X65463013Y52456259D01*
X65359118Y52206054D01*
X65358882Y51935135D01*
X50845883Y51935135D01*
X50846118Y52204865D01*
X50742661Y52455252D01*
X50627978Y52570135D01*
X62818882Y52570135D01*
X62922339Y52319748D01*
X63113741Y52128013D01*
X63363946Y52024118D01*
X63634865Y52023882D01*
X63885252Y52127339D01*
X64076987Y52318741D01*
X64180882Y52568946D01*
X64181118Y52839865D01*
X64077661Y53090252D01*
X63886259Y53281987D01*
X63636054Y53385882D01*
X63365135Y53386118D01*
X63114748Y53282661D01*
X62923013Y53091259D01*
X62819118Y52841054D01*
X62818882Y52570135D01*
X50627978Y52570135D01*
X50551259Y52646987D01*
X50301054Y52750882D01*
X50030135Y52751118D01*
X49779748Y52647661D01*
X49588013Y52456259D01*
X49484118Y52206054D01*
X49483882Y51935135D01*
X38780883Y51935135D01*
X38781118Y52204865D01*
X38677661Y52455252D01*
X38486259Y52646987D01*
X38236054Y52750882D01*
X37965135Y52751118D01*
X37714748Y52647661D01*
X37523013Y52456259D01*
X37419118Y52206054D01*
X37418882Y51935135D01*
X456000Y51935135D01*
X456000Y52570135D01*
X34878882Y52570135D01*
X34982339Y52319748D01*
X35173741Y52128013D01*
X35423946Y52024118D01*
X35694865Y52023882D01*
X35945252Y52127339D01*
X36136987Y52318741D01*
X36240882Y52568946D01*
X36241118Y52839865D01*
X36137661Y53090252D01*
X36022978Y53205135D01*
X51388882Y53205135D01*
X51492339Y52954748D01*
X51683741Y52763013D01*
X51933946Y52659118D01*
X52204865Y52658882D01*
X52455252Y52762339D01*
X52646987Y52953741D01*
X52705014Y53093485D01*
X52762339Y52954748D01*
X52953741Y52763013D01*
X53203946Y52659118D01*
X53474865Y52658882D01*
X53725252Y52762339D01*
X53916987Y52953741D01*
X54020882Y53203946D01*
X54021118Y53474865D01*
X53917661Y53725252D01*
X53726259Y53916987D01*
X53476054Y54020882D01*
X53205135Y54021118D01*
X52954748Y53917661D01*
X52763013Y53726259D01*
X52704986Y53586515D01*
X52647661Y53725252D01*
X52456259Y53916987D01*
X52206054Y54020882D01*
X51935135Y54021118D01*
X51684748Y53917661D01*
X51493013Y53726259D01*
X51389118Y53476054D01*
X51388882Y53205135D01*
X36022978Y53205135D01*
X35946259Y53281987D01*
X35696054Y53385882D01*
X35425135Y53386118D01*
X35174748Y53282661D01*
X34983013Y53091259D01*
X34879118Y52841054D01*
X34878882Y52570135D01*
X456000Y52570135D01*
X456000Y53205135D01*
X22178882Y53205135D01*
X22282339Y52954748D01*
X22473741Y52763013D01*
X22723946Y52659118D01*
X22994865Y52658882D01*
X23245252Y52762339D01*
X23436987Y52953741D01*
X23540882Y53203946D01*
X23541118Y53474865D01*
X23437661Y53725252D01*
X23246259Y53916987D01*
X22996054Y54020882D01*
X22725135Y54021118D01*
X22474748Y53917661D01*
X22283013Y53726259D01*
X22179118Y53476054D01*
X22178882Y53205135D01*
X456000Y53205135D01*
X456000Y53840135D01*
X16463882Y53840135D01*
X16567339Y53589748D01*
X16758741Y53398013D01*
X17008946Y53294118D01*
X17279865Y53293882D01*
X17530252Y53397339D01*
X17721987Y53588741D01*
X17825882Y53838946D01*
X17826118Y54109865D01*
X17722661Y54360252D01*
X17531259Y54551987D01*
X17281054Y54655882D01*
X17010135Y54656118D01*
X16759748Y54552661D01*
X16568013Y54361259D01*
X16464118Y54111054D01*
X16463882Y53840135D01*
X456000Y53840135D01*
X456000Y55745135D01*
X11383882Y55745135D01*
X11487339Y55494748D01*
X11678741Y55303013D01*
X11928946Y55199118D01*
X12199865Y55198882D01*
X12450252Y55302339D01*
X12641987Y55493741D01*
X12745882Y55743946D01*
X12745883Y55745135D01*
X22178882Y55745135D01*
X22282339Y55494748D01*
X22473741Y55303013D01*
X22723946Y55199118D01*
X22994865Y55198882D01*
X23245252Y55302339D01*
X23436987Y55493741D01*
X23540882Y55743946D01*
X23541118Y56014865D01*
X23437661Y56265252D01*
X23322978Y56380135D01*
X25353882Y56380135D01*
X25457339Y56129748D01*
X25648741Y55938013D01*
X25898946Y55834118D01*
X26169865Y55833882D01*
X26420252Y55937339D01*
X26611987Y56128741D01*
X26715882Y56378946D01*
X26716118Y56649865D01*
X26612661Y56900252D01*
X26497978Y57015135D01*
X29798882Y57015135D01*
X29902339Y56764748D01*
X30093741Y56573013D01*
X30343946Y56469118D01*
X30614865Y56468882D01*
X30865252Y56572339D01*
X31056987Y56763741D01*
X31160882Y57013946D01*
X31161118Y57284865D01*
X31057661Y57535252D01*
X30866259Y57726987D01*
X30616054Y57830882D01*
X30345135Y57831118D01*
X30094748Y57727661D01*
X29903013Y57536259D01*
X29799118Y57286054D01*
X29798882Y57015135D01*
X26497978Y57015135D01*
X26421259Y57091987D01*
X26171054Y57195882D01*
X25900135Y57196118D01*
X25649748Y57092661D01*
X25458013Y56901259D01*
X25354118Y56651054D01*
X25353882Y56380135D01*
X23322978Y56380135D01*
X23246259Y56456987D01*
X22996054Y56560882D01*
X22725135Y56561118D01*
X22474748Y56457661D01*
X22283013Y56266259D01*
X22179118Y56016054D01*
X22178882Y55745135D01*
X12745883Y55745135D01*
X12746118Y56014865D01*
X12642661Y56265252D01*
X12451259Y56456987D01*
X12201054Y56560882D01*
X11930135Y56561118D01*
X11679748Y56457661D01*
X11488013Y56266259D01*
X11384118Y56016054D01*
X11383882Y55745135D01*
X456000Y55745135D01*
X456000Y57650135D01*
X20273882Y57650135D01*
X20377339Y57399748D01*
X20568741Y57208013D01*
X20818946Y57104118D01*
X21089865Y57103882D01*
X21340252Y57207339D01*
X21531987Y57398741D01*
X21635882Y57648946D01*
X21636118Y57919865D01*
X21532661Y58170252D01*
X21341259Y58361987D01*
X21091054Y58465882D01*
X20820135Y58466118D01*
X20569748Y58362661D01*
X20378013Y58171259D01*
X20274118Y57921054D01*
X20273882Y57650135D01*
X456000Y57650135D01*
X456000Y59555135D01*
X62183882Y59555135D01*
X62287339Y59304748D01*
X62478741Y59113013D01*
X62728946Y59009118D01*
X62999865Y59008882D01*
X63250252Y59112339D01*
X63441987Y59303741D01*
X63545882Y59553946D01*
X63546118Y59824865D01*
X63442661Y60075252D01*
X63251259Y60266987D01*
X63001054Y60370882D01*
X62730135Y60371118D01*
X62479748Y60267661D01*
X62288013Y60076259D01*
X62184118Y59826054D01*
X62183882Y59555135D01*
X456000Y59555135D01*
X456000Y60825135D01*
X25353882Y60825135D01*
X25457339Y60574748D01*
X25648741Y60383013D01*
X25898946Y60279118D01*
X26169865Y60278882D01*
X26420252Y60382339D01*
X26611987Y60573741D01*
X26715882Y60823946D01*
X26716118Y61094865D01*
X26612661Y61345252D01*
X26421259Y61536987D01*
X26171054Y61640882D01*
X25900135Y61641118D01*
X25649748Y61537661D01*
X25458013Y61346259D01*
X25354118Y61096054D01*
X25353882Y60825135D01*
X456000Y60825135D01*
X456000Y61460135D01*
X22178882Y61460135D01*
X22282339Y61209748D01*
X22473741Y61018013D01*
X22723946Y60914118D01*
X22994865Y60913882D01*
X23245252Y61017339D01*
X23436987Y61208741D01*
X23540882Y61458946D01*
X23541118Y61729865D01*
X23437661Y61980252D01*
X23322978Y62095135D01*
X62183882Y62095135D01*
X62287339Y61844748D01*
X62478741Y61653013D01*
X62728946Y61549118D01*
X62999865Y61548882D01*
X63250252Y61652339D01*
X63441987Y61843741D01*
X63545882Y62093946D01*
X63546118Y62364865D01*
X63442661Y62615252D01*
X63251259Y62806987D01*
X63001054Y62910882D01*
X62730135Y62911118D01*
X62479748Y62807661D01*
X62288013Y62616259D01*
X62184118Y62366054D01*
X62183882Y62095135D01*
X23322978Y62095135D01*
X23246259Y62171987D01*
X22996054Y62275882D01*
X22725135Y62276118D01*
X22474748Y62172661D01*
X22283013Y61981259D01*
X22179118Y61731054D01*
X22178882Y61460135D01*
X456000Y61460135D01*
X456000Y66555000D01*
X3541536Y66555000D01*
X3541536Y64255000D01*
X3568103Y64113810D01*
X3651546Y63984135D01*
X3778866Y63897141D01*
X3930000Y63866536D01*
X6230000Y63866536D01*
X6371190Y63893103D01*
X6500865Y63976546D01*
X6587859Y64103866D01*
X6618464Y64255000D01*
X6618464Y66540135D01*
X16463882Y66540135D01*
X16567339Y66289748D01*
X16758741Y66098013D01*
X16898485Y66039986D01*
X16759748Y65982661D01*
X16568013Y65791259D01*
X16464118Y65541054D01*
X16463882Y65270135D01*
X16567339Y65019748D01*
X16758741Y64828013D01*
X16898485Y64769986D01*
X16759748Y64712661D01*
X16568013Y64521259D01*
X16464118Y64271054D01*
X16463882Y64000135D01*
X16567339Y63749748D01*
X16758741Y63558013D01*
X17008946Y63454118D01*
X17279865Y63453882D01*
X17530252Y63557339D01*
X17721987Y63748741D01*
X17825882Y63998946D01*
X17826118Y64269865D01*
X17722661Y64520252D01*
X17607978Y64635135D01*
X62183882Y64635135D01*
X62287339Y64384748D01*
X62478741Y64193013D01*
X62728946Y64089118D01*
X62999865Y64088882D01*
X63250252Y64192339D01*
X63441987Y64383741D01*
X63545882Y64633946D01*
X63546118Y64904865D01*
X63442661Y65155252D01*
X63251259Y65346987D01*
X63001054Y65450882D01*
X62730135Y65451118D01*
X62479748Y65347661D01*
X62288013Y65156259D01*
X62184118Y64906054D01*
X62183882Y64635135D01*
X17607978Y64635135D01*
X17531259Y64711987D01*
X17391515Y64770014D01*
X17530252Y64827339D01*
X17721987Y65018741D01*
X17825882Y65268946D01*
X17826118Y65539865D01*
X17722661Y65790252D01*
X17531259Y65981987D01*
X17391515Y66040014D01*
X17530252Y66097339D01*
X17721987Y66288741D01*
X17825882Y66538946D01*
X17826118Y66809865D01*
X17722661Y67060252D01*
X17531259Y67251987D01*
X17281054Y67355882D01*
X17010135Y67356118D01*
X16759748Y67252661D01*
X16568013Y67061259D01*
X16464118Y66811054D01*
X16463882Y66540135D01*
X6618464Y66540135D01*
X6618464Y66555000D01*
X6591897Y66696190D01*
X6508454Y66825865D01*
X6381134Y66912859D01*
X6230000Y66943464D01*
X3930000Y66943464D01*
X3788810Y66916897D01*
X3659135Y66833454D01*
X3572141Y66706134D01*
X3541536Y66555000D01*
X456000Y66555000D01*
X456000Y68326000D01*
X32402936Y68326000D01*
X32402936Y66294000D01*
X32429503Y66152810D01*
X32512946Y66023135D01*
X32640266Y65936141D01*
X32791400Y65905536D01*
X34518600Y65905536D01*
X34659790Y65932103D01*
X34789465Y66015546D01*
X34876459Y66142866D01*
X34907064Y66294000D01*
X34907064Y67489769D01*
X34950400Y67489769D01*
X34950400Y67130231D01*
X35045140Y66653943D01*
X35314935Y66250166D01*
X35718712Y65980371D01*
X36195000Y65885631D01*
X36671288Y65980371D01*
X37075065Y66250166D01*
X37344860Y66653943D01*
X37439600Y67130231D01*
X37439600Y67489769D01*
X40030400Y67489769D01*
X40030400Y67130231D01*
X40125140Y66653943D01*
X40394935Y66250166D01*
X40798712Y65980371D01*
X41275000Y65885631D01*
X41751288Y65980371D01*
X42155065Y66250166D01*
X42424860Y66653943D01*
X42519600Y67130231D01*
X42519600Y67489769D01*
X42570400Y67489769D01*
X42570400Y67130231D01*
X42665140Y66653943D01*
X42934935Y66250166D01*
X43338712Y65980371D01*
X43815000Y65885631D01*
X44291288Y65980371D01*
X44695065Y66250166D01*
X44964860Y66653943D01*
X45059600Y67130231D01*
X45059600Y67489769D01*
X45110400Y67489769D01*
X45110400Y67130231D01*
X45205140Y66653943D01*
X45474935Y66250166D01*
X45878712Y65980371D01*
X46355000Y65885631D01*
X46831288Y65980371D01*
X47235065Y66250166D01*
X47504860Y66653943D01*
X47599600Y67130231D01*
X47599600Y67175135D01*
X62183882Y67175135D01*
X62287339Y66924748D01*
X62478741Y66733013D01*
X62728946Y66629118D01*
X62999865Y66628882D01*
X63250252Y66732339D01*
X63441987Y66923741D01*
X63545882Y67173946D01*
X63546118Y67444865D01*
X63442661Y67695252D01*
X63327978Y67810135D01*
X75518882Y67810135D01*
X75622339Y67559748D01*
X75813741Y67368013D01*
X76063946Y67264118D01*
X76334865Y67263882D01*
X76585252Y67367339D01*
X76776987Y67558741D01*
X76880882Y67808946D01*
X76881118Y68079865D01*
X76777661Y68330252D01*
X76586259Y68521987D01*
X76336054Y68625882D01*
X76065135Y68626118D01*
X75814748Y68522661D01*
X75623013Y68331259D01*
X75519118Y68081054D01*
X75518882Y67810135D01*
X63327978Y67810135D01*
X63251259Y67886987D01*
X63001054Y67990882D01*
X62730135Y67991118D01*
X62479748Y67887661D01*
X62288013Y67696259D01*
X62184118Y67446054D01*
X62183882Y67175135D01*
X47599600Y67175135D01*
X47599600Y67489769D01*
X47504860Y67966057D01*
X47235065Y68369834D01*
X46831288Y68639629D01*
X46355000Y68734369D01*
X45878712Y68639629D01*
X45474935Y68369834D01*
X45205140Y67966057D01*
X45110400Y67489769D01*
X45059600Y67489769D01*
X44964860Y67966057D01*
X44695065Y68369834D01*
X44291288Y68639629D01*
X43815000Y68734369D01*
X43338712Y68639629D01*
X42934935Y68369834D01*
X42665140Y67966057D01*
X42570400Y67489769D01*
X42519600Y67489769D01*
X42424860Y67966057D01*
X42155065Y68369834D01*
X41751288Y68639629D01*
X41275000Y68734369D01*
X40798712Y68639629D01*
X40394935Y68369834D01*
X40125140Y67966057D01*
X40030400Y67489769D01*
X37439600Y67489769D01*
X37344860Y67966057D01*
X37075065Y68369834D01*
X36671288Y68639629D01*
X36195000Y68734369D01*
X35718712Y68639629D01*
X35314935Y68369834D01*
X35045140Y67966057D01*
X34950400Y67489769D01*
X34907064Y67489769D01*
X34907064Y68326000D01*
X34880497Y68467190D01*
X34797054Y68596865D01*
X34669734Y68683859D01*
X34518600Y68714464D01*
X32791400Y68714464D01*
X32650210Y68687897D01*
X32520535Y68604454D01*
X32433541Y68477134D01*
X32402936Y68326000D01*
X456000Y68326000D01*
X456000Y71544000D01*
X79544000Y71544000D01*
X79544000Y50292000D01*
M02*
