G04 #@! TF.FileFunction,Legend,Bot*
%FSLAX46Y46*%
G04 Gerber Fmt 4.6, Leading zero omitted, Abs format (unit mm)*
G04 Created by KiCad (PCBNEW 4.0.1-stable) date 8/19/2016 1:07:54 AM*
%MOMM*%
G01*
G04 APERTURE LIST*
%ADD10C,0.127000*%
%ADD11C,0.152400*%
%ADD12C,0.150000*%
G04 APERTURE END LIST*
D10*
D11*
X72656095Y27592867D02*
X72172286Y27592867D01*
X72752857Y27302581D02*
X72414190Y28318581D01*
X72075524Y27302581D01*
X71301429Y27979914D02*
X71301429Y26963914D01*
X71301429Y27350962D02*
X71398191Y27302581D01*
X71591714Y27302581D01*
X71688476Y27350962D01*
X71736857Y27399343D01*
X71785238Y27496105D01*
X71785238Y27786390D01*
X71736857Y27883152D01*
X71688476Y27931533D01*
X71591714Y27979914D01*
X71398191Y27979914D01*
X71301429Y27931533D01*
X70382191Y27979914D02*
X70382191Y27302581D01*
X70817619Y27979914D02*
X70817619Y27447724D01*
X70769238Y27350962D01*
X70672476Y27302581D01*
X70527334Y27302581D01*
X70430572Y27350962D01*
X70382191Y27399343D01*
X69462953Y27302581D02*
X69462953Y27834771D01*
X69511334Y27931533D01*
X69608096Y27979914D01*
X69801619Y27979914D01*
X69898381Y27931533D01*
X69462953Y27350962D02*
X69559715Y27302581D01*
X69801619Y27302581D01*
X69898381Y27350962D01*
X69946762Y27447724D01*
X69946762Y27544486D01*
X69898381Y27641248D01*
X69801619Y27689629D01*
X69559715Y27689629D01*
X69462953Y27738010D01*
X68979143Y27302581D02*
X68979143Y28318581D01*
X68592096Y28318581D01*
X68495334Y28270200D01*
X68446953Y28221819D01*
X68398572Y28125057D01*
X68398572Y27979914D01*
X68446953Y27883152D01*
X68495334Y27834771D01*
X68592096Y27786390D01*
X68979143Y27786390D01*
X67963143Y27302581D02*
X67963143Y27979914D01*
X67963143Y28318581D02*
X68011524Y28270200D01*
X67963143Y28221819D01*
X67914762Y28270200D01*
X67963143Y28318581D01*
X67963143Y28221819D01*
X67043905Y27350962D02*
X67140667Y27302581D01*
X67334190Y27302581D01*
X67430952Y27350962D01*
X67479333Y27399343D01*
X67527714Y27496105D01*
X67527714Y27786390D01*
X67479333Y27883152D01*
X67430952Y27931533D01*
X67334190Y27979914D01*
X67140667Y27979914D01*
X67043905Y27931533D01*
X74301047Y26405114D02*
X74301047Y25389114D01*
X74301047Y26356733D02*
X74204285Y26405114D01*
X74010762Y26405114D01*
X73914000Y26356733D01*
X73865619Y26308352D01*
X73817238Y26211590D01*
X73817238Y25921305D01*
X73865619Y25824543D01*
X73914000Y25776162D01*
X74010762Y25727781D01*
X74204285Y25727781D01*
X74301047Y25776162D01*
X73381809Y25727781D02*
X73381809Y26743781D01*
X73381809Y26259971D02*
X72801238Y26259971D01*
X72801238Y25727781D02*
X72801238Y26743781D01*
X71107905Y25727781D02*
X71107905Y26259971D01*
X71156286Y26356733D01*
X71253048Y26405114D01*
X71446571Y26405114D01*
X71543333Y26356733D01*
X71107905Y25776162D02*
X71204667Y25727781D01*
X71446571Y25727781D01*
X71543333Y25776162D01*
X71591714Y25872924D01*
X71591714Y25969686D01*
X71543333Y26066448D01*
X71446571Y26114829D01*
X71204667Y26114829D01*
X71107905Y26163210D01*
X70624095Y26405114D02*
X70624095Y25727781D01*
X70624095Y26308352D02*
X70575714Y26356733D01*
X70478952Y26405114D01*
X70333810Y26405114D01*
X70237048Y26356733D01*
X70188667Y26259971D01*
X70188667Y25727781D01*
X69269429Y25727781D02*
X69269429Y26743781D01*
X69269429Y25776162D02*
X69366191Y25727781D01*
X69559714Y25727781D01*
X69656476Y25776162D01*
X69704857Y25824543D01*
X69753238Y25921305D01*
X69753238Y26211590D01*
X69704857Y26308352D01*
X69656476Y26356733D01*
X69559714Y26405114D01*
X69366191Y26405114D01*
X69269429Y26356733D01*
X67818000Y26743781D02*
X67624477Y26743781D01*
X67527715Y26695400D01*
X67430953Y26598638D01*
X67382572Y26405114D01*
X67382572Y26066448D01*
X67430953Y25872924D01*
X67527715Y25776162D01*
X67624477Y25727781D01*
X67818000Y25727781D01*
X67914762Y25776162D01*
X68011524Y25872924D01*
X68059905Y26066448D01*
X68059905Y26405114D01*
X68011524Y26598638D01*
X67914762Y26695400D01*
X67818000Y26743781D01*
X66366572Y25727781D02*
X66705238Y26211590D01*
X66947143Y25727781D02*
X66947143Y26743781D01*
X66560096Y26743781D01*
X66463334Y26695400D01*
X66414953Y26647019D01*
X66366572Y26550257D01*
X66366572Y26405114D01*
X66414953Y26308352D01*
X66463334Y26259971D01*
X66560096Y26211590D01*
X66947143Y26211590D01*
X65931143Y25727781D02*
X65931143Y26743781D01*
X65544096Y26743781D01*
X65447334Y26695400D01*
X65398953Y26647019D01*
X65350572Y26550257D01*
X65350572Y26405114D01*
X65398953Y26308352D01*
X65447334Y26259971D01*
X65544096Y26211590D01*
X65931143Y26211590D01*
X71228857Y24152981D02*
X71567523Y24636790D01*
X71809428Y24152981D02*
X71809428Y25168981D01*
X71422381Y25168981D01*
X71325619Y25120600D01*
X71277238Y25072219D01*
X71228857Y24975457D01*
X71228857Y24830314D01*
X71277238Y24733552D01*
X71325619Y24685171D01*
X71422381Y24636790D01*
X71809428Y24636790D01*
X70406381Y24201362D02*
X70503143Y24152981D01*
X70696666Y24152981D01*
X70793428Y24201362D01*
X70841809Y24298124D01*
X70841809Y24685171D01*
X70793428Y24781933D01*
X70696666Y24830314D01*
X70503143Y24830314D01*
X70406381Y24781933D01*
X70358000Y24685171D01*
X70358000Y24588410D01*
X70841809Y24491648D01*
X70019333Y24830314D02*
X69777428Y24152981D01*
X69535524Y24830314D01*
X68180857Y25168981D02*
X68084096Y25168981D01*
X67987334Y25120600D01*
X67938953Y25072219D01*
X67890572Y24975457D01*
X67842191Y24781933D01*
X67842191Y24540029D01*
X67890572Y24346505D01*
X67938953Y24249743D01*
X67987334Y24201362D01*
X68084096Y24152981D01*
X68180857Y24152981D01*
X68277619Y24201362D01*
X68326000Y24249743D01*
X68374381Y24346505D01*
X68422762Y24540029D01*
X68422762Y24781933D01*
X68374381Y24975457D01*
X68326000Y25072219D01*
X68277619Y25120600D01*
X68180857Y25168981D01*
X71954570Y22626562D02*
X71809427Y22578181D01*
X71567523Y22578181D01*
X71470761Y22626562D01*
X71422380Y22674943D01*
X71373999Y22771705D01*
X71373999Y22868467D01*
X71422380Y22965229D01*
X71470761Y23013610D01*
X71567523Y23061990D01*
X71761046Y23110371D01*
X71857808Y23158752D01*
X71906189Y23207133D01*
X71954570Y23303895D01*
X71954570Y23400657D01*
X71906189Y23497419D01*
X71857808Y23545800D01*
X71761046Y23594181D01*
X71519142Y23594181D01*
X71373999Y23545800D01*
X70938570Y22578181D02*
X70938570Y23594181D01*
X70841808Y22965229D02*
X70551523Y22578181D01*
X70551523Y23255514D02*
X70938570Y22868467D01*
X70212856Y23255514D02*
X69970951Y22578181D01*
X69729047Y23255514D02*
X69970951Y22578181D01*
X70067713Y22336276D01*
X70116094Y22287895D01*
X70212856Y22239514D01*
X69196856Y22578181D02*
X69293618Y22626562D01*
X69341999Y22723324D01*
X69341999Y23594181D01*
X68422762Y22626562D02*
X68519524Y22578181D01*
X68713047Y22578181D01*
X68809809Y22626562D01*
X68858190Y22723324D01*
X68858190Y23110371D01*
X68809809Y23207133D01*
X68713047Y23255514D01*
X68519524Y23255514D01*
X68422762Y23207133D01*
X68374381Y23110371D01*
X68374381Y23013610D01*
X68858190Y22916848D01*
X67938952Y22578181D02*
X67938952Y23255514D01*
X67938952Y23061990D02*
X67890571Y23158752D01*
X67842190Y23207133D01*
X67745428Y23255514D01*
X67648667Y23255514D01*
D12*
X58021220Y23345140D02*
X57660540Y21874480D01*
X57660540Y21874480D02*
X57381140Y22936200D01*
X57381140Y22936200D02*
X57071260Y21864320D01*
X57071260Y21864320D02*
X56730900Y23314660D01*
X59441080Y22654260D02*
X58651140Y22664420D01*
X58651140Y22664420D02*
X58640980Y22654260D01*
X58640980Y22654260D02*
X58640980Y22664420D01*
X58600340Y23375620D02*
X58600340Y21833840D01*
X59489340Y23385780D02*
X59489340Y21816060D01*
X59489340Y21816060D02*
X59479180Y21826220D01*
X60040520Y23284180D02*
X60391040Y23365460D01*
X60391040Y23365460D02*
X60711080Y23375620D01*
X60711080Y23375620D02*
X60949840Y23174960D01*
X60949840Y23174960D02*
X60980320Y22905720D01*
X60980320Y22905720D02*
X60739020Y22664420D01*
X60739020Y22664420D02*
X60350400Y22534880D01*
X60350400Y22534880D02*
X60170060Y22374860D01*
X60170060Y22374860D02*
X60129420Y22075140D01*
X60129420Y22075140D02*
X60360560Y21854160D01*
X60360560Y21854160D02*
X60680600Y21826220D01*
X60680600Y21826220D02*
X61031120Y21935440D01*
X62069980Y23385780D02*
X62318900Y23365460D01*
X62318900Y23365460D02*
X62560200Y23124160D01*
X62560200Y23124160D02*
X62649100Y22633940D01*
X62649100Y22633940D02*
X62621160Y22285960D01*
X62621160Y22285960D02*
X62420500Y21965920D01*
X62420500Y21965920D02*
X62169040Y21844000D01*
X62169040Y21844000D02*
X61859160Y21915120D01*
X61859160Y21915120D02*
X61640720Y22095460D01*
X61640720Y22095460D02*
X61569600Y22555200D01*
X61569600Y22555200D02*
X61620400Y22964140D01*
X61620400Y22964140D02*
X61729620Y23246080D01*
X61729620Y23246080D02*
X62090300Y23375620D01*
X61470540Y25105360D02*
X61729620Y24544020D01*
X61729620Y24544020D02*
X61191140Y24025860D01*
X61191140Y24025860D02*
X60670440Y24295100D01*
X60670440Y24295100D02*
X60391040Y24135080D01*
X58950860Y24155400D02*
X58620660Y24345900D01*
X58620660Y24345900D02*
X58181240Y24015700D01*
X58181240Y24015700D02*
X57708800Y24505920D01*
X57708800Y24505920D02*
X57990740Y24985980D01*
X57990740Y24985980D02*
X57800240Y25455880D01*
X57800240Y25455880D02*
X57190640Y25643840D01*
X57190640Y25643840D02*
X57190640Y26324560D01*
X57190640Y26324560D02*
X57749440Y26464260D01*
X57749440Y26464260D02*
X57950100Y27035760D01*
X57950100Y27035760D02*
X57680860Y27505660D01*
X57680860Y27505660D02*
X58150760Y28016200D01*
X58150760Y28016200D02*
X58668920Y27754580D01*
X58668920Y27754580D02*
X59138820Y27955240D01*
X59138820Y27955240D02*
X59309000Y28496260D01*
X59309000Y28496260D02*
X59999880Y28514040D01*
X59999880Y28514040D02*
X60210700Y27965400D01*
X60210700Y27965400D02*
X60629800Y27795220D01*
X60629800Y27795220D02*
X61180980Y28064460D01*
X61180980Y28064460D02*
X61699140Y27536140D01*
X61699140Y27536140D02*
X61450220Y26995120D01*
X61450220Y26995120D02*
X61620400Y26515060D01*
X61620400Y26515060D02*
X62169040Y26416000D01*
X62169040Y26416000D02*
X62179200Y25714960D01*
X62179200Y25714960D02*
X61620400Y25514300D01*
X61620400Y25514300D02*
X61480700Y25115520D01*
X59339480Y25135840D02*
X59039760Y25285700D01*
X59039760Y25285700D02*
X58839100Y25483820D01*
X58839100Y25483820D02*
X58689240Y25885140D01*
X58689240Y25885140D02*
X58689240Y26283920D01*
X58689240Y26283920D02*
X58839100Y26634440D01*
X58839100Y26634440D02*
X59291220Y26984960D01*
X59291220Y26984960D02*
X59740800Y27035760D01*
X59740800Y27035760D02*
X60139580Y26934160D01*
X60139580Y26934160D02*
X60540900Y26586180D01*
X60540900Y26586180D02*
X60690760Y26134060D01*
X60690760Y26134060D02*
X60639960Y25636220D01*
X60639960Y25636220D02*
X60391040Y25333960D01*
X60391040Y25333960D02*
X60040520Y25135840D01*
X60040520Y25135840D02*
X60391040Y24135080D01*
X59339480Y25135840D02*
X58940700Y24135080D01*
M02*
