M48
;DRILL file {KiCad 4.0.1-stable} date 8/18/2016 11:12:42 PM
;FORMAT={-:-/ absolute / inch / decimal}
FMAT,2
INCH,TZ
T1C0.016
T2C0.036
T3C0.039
T4C0.040
T5C0.051
T6C0.091
T7C0.106
%
G90
G05
M72
T1
X0.175Y2.125
X0.475Y2.2
X0.525Y2.425
X0.6Y1.05
X0.65Y2.425
X0.675Y2.625
X0.675Y2.575
X0.675Y2.525
X0.675Y2.125
X0.675Y2.
X0.75Y1.15
X0.75Y0.875
X0.8Y1.95
X0.825Y2.275
X0.9Y2.425
X0.9Y2.2
X0.9Y2.1
X0.9Y1.6
X0.925Y1.775
X1.Y1.6
X1.Y1.425
X1.025Y2.4
X1.025Y2.225
X1.025Y0.725
X1.05Y2.1
X1.05Y1.8
X1.05Y1.55
X1.125Y1.7
X1.15Y2.525
X1.15Y1.875
X1.15Y1.375
X1.2Y2.4
X1.2Y2.25
X1.2Y1.6
X1.225Y1.175
X1.225Y1.025
X1.275Y2.15
X1.275Y1.225
X1.325Y1.65
X1.325Y0.975
X1.35Y1.775
X1.35Y1.7
X1.4Y2.15
X1.4Y2.075
X1.4Y1.85
X1.4Y1.45
X1.5Y2.15
X1.5Y2.05
X1.5Y1.85
X1.5Y1.8
X1.5Y1.15
X1.65Y0.65
X1.65Y0.525
X1.675Y1.425
X1.675Y1.075
X1.75Y0.3
X1.8Y1.85
X1.8Y0.525
X1.825Y1.35
X1.85Y1.525
X1.85Y0.7
X1.9Y1.85
X1.9Y1.8
X1.9Y1.025
X1.9Y0.35
X1.975Y2.05
X2.Y2.275
X2.Y1.6
X2.025Y1.775
X2.05Y2.1
X2.1Y2.1
X2.1Y1.6
X2.1Y1.425
X2.125Y0.725
X2.15Y2.1
X2.15Y1.8
X2.15Y1.55
X2.25Y1.875
X2.25Y1.7
X2.25Y1.375
X2.3Y1.6
X2.325Y1.175
X2.325Y1.025
X2.375Y1.225
X2.425Y2.175
X2.425Y1.65
X2.425Y0.975
X2.45Y1.775
X2.45Y1.7
X2.475Y2.65
X2.475Y2.55
X2.475Y2.45
X2.475Y2.35
X2.5Y2.15
X2.5Y2.075
X2.5Y1.85
X2.5Y1.45
X2.575Y1.8
X2.6Y2.15
X2.6Y2.05
X2.6Y1.85
X2.625Y1.15
X2.75Y0.65
X2.75Y0.525
X2.775Y1.425
X2.775Y1.075
X2.85Y0.3
X2.9Y1.85
X2.9Y0.525
X2.925Y1.35
X2.95Y1.525
X2.95Y0.7
X2.975Y2.35
X3.Y2.675
X3.Y1.85
X3.Y1.8
X3.Y1.025
X3.Y0.35
T2
X0.3622Y0.7404
X0.3622Y0.6372
X0.4606Y0.7404
X0.4606Y0.6372
X0.5394Y0.7404
X0.5394Y0.6372
X0.6378Y0.7404
X0.6378Y0.6372
T3
X1.175Y0.5719
X1.2734Y0.5719
X2.275Y0.5719
X2.3734Y0.5719
T4
X0.2Y1.95
X0.2Y1.85
X0.2Y1.75
X1.325Y2.65
X1.425Y2.65
X1.525Y2.65
X1.625Y2.65
X1.725Y2.65
X1.825Y2.65
T5
X0.2Y2.575
X0.3Y2.575
T6
X0.2413Y0.7541
X0.2413Y0.5305
X0.7587Y0.7541
X0.7587Y0.5305
T7
X0.9742Y0.404
X1.3757Y0.404
X2.0742Y0.404
X2.4757Y0.404
T0
M30
