G04 #@! TF.FileFunction,Copper,L2,Inr,Plane*
%FSLAX46Y46*%
G04 Gerber Fmt 4.6, Leading zero omitted, Abs format (unit mm)*
G04 Created by KiCad (PCBNEW 4.0.7) date Sun Nov 26 02:27:56 2017*
%MOMM*%
%LPD*%
G01*
G04 APERTURE LIST*
%ADD10C,0.127000*%
%ADD11R,1.700000X1.700000*%
%ADD12O,1.700000X1.700000*%
%ADD13C,1.420000*%
%ADD14C,2.800000*%
%ADD15R,2.300000X2.300000*%
%ADD16C,2.300000*%
%ADD17O,3.500120X7.000240*%
%ADD18O,1.600200X2.499360*%
%ADD19C,0.600000*%
%ADD20C,0.254000*%
G04 APERTURE END LIST*
D10*
D11*
X33655000Y67310000D03*
D12*
X36195000Y67310000D03*
X38735000Y67310000D03*
X41275000Y67310000D03*
X43815000Y67310000D03*
X46355000Y67310000D03*
D13*
X9200000Y19440005D03*
X11700000Y19440005D03*
X13700000Y19440005D03*
X16200000Y19440005D03*
X9200000Y16820005D03*
X11700000Y16820005D03*
X13700000Y16820005D03*
X16200000Y16820005D03*
D14*
X19270000Y14110005D03*
X19270000Y19790005D03*
X6130000Y19790005D03*
X6130000Y14110005D03*
D15*
X5080000Y65405000D03*
D16*
X7620000Y65405000D03*
D17*
X34942780Y10261600D03*
X24744680Y10261600D03*
D18*
X29845000Y14526260D03*
X32344360Y14526260D03*
D17*
X62882780Y10261600D03*
X52684680Y10261600D03*
D18*
X57785000Y14526260D03*
X60284360Y14526260D03*
D19*
X24638000Y61468000D03*
X27940000Y62865000D03*
X57150000Y61595000D03*
X27305000Y63500000D03*
X19050000Y54610000D03*
X15240000Y59690000D03*
X8890000Y57150000D03*
X10160000Y50165000D03*
X9525000Y48895000D03*
X8890000Y48895000D03*
X8890000Y51435000D03*
X9525000Y51435000D03*
X10160000Y51435000D03*
X10160000Y53340000D03*
X17780000Y48260000D03*
X4445000Y53975000D03*
X18415000Y22860000D03*
X12700000Y50165000D03*
X33020000Y54610000D03*
X31115000Y52705000D03*
X59055000Y52705000D03*
X20221050Y57128767D03*
X19685000Y66675000D03*
X35560000Y53975000D03*
X35560000Y55245000D03*
X38100000Y53975000D03*
X38100000Y55245000D03*
X63500000Y53975000D03*
X63500000Y55245000D03*
X66040000Y53975000D03*
X66040000Y55245000D03*
X50800000Y53340000D03*
X15240000Y26670000D03*
X38100000Y54610000D03*
X35560000Y54610000D03*
X66040000Y54610000D03*
X63500000Y54610000D03*
X22860000Y53340000D03*
X61595000Y55245000D03*
X75565000Y59690000D03*
X41910000Y16510000D03*
X35560000Y36830000D03*
X38100000Y29210000D03*
X45720000Y13335000D03*
X31115000Y26035000D03*
X48260000Y46355000D03*
X45720000Y46355000D03*
X48260000Y47625000D03*
X45720000Y47625000D03*
X26670000Y45720000D03*
X29273438Y45783438D03*
X31750000Y48895000D03*
X25400000Y40640000D03*
X48260000Y46990000D03*
X45720000Y46990000D03*
X41910000Y13335000D03*
X33655000Y41910000D03*
X29210000Y34925000D03*
X46355000Y34290000D03*
X38100000Y46355000D03*
X35560000Y46355000D03*
X35560000Y47625000D03*
X38100000Y47625000D03*
X29845000Y48895000D03*
X22860000Y45720000D03*
X46990000Y17780000D03*
X26035000Y18415000D03*
X46990000Y38735000D03*
X33655000Y24765000D03*
X28575000Y43180000D03*
X38100000Y46990000D03*
X35560000Y46990000D03*
X34290000Y43180000D03*
X34290000Y45085000D03*
X42545000Y36195000D03*
X26670000Y39370000D03*
X48260000Y8890000D03*
X42545000Y27305000D03*
X48260000Y26035000D03*
X25400000Y36195000D03*
X30480000Y40640000D03*
X44450000Y7620000D03*
X73660000Y46355000D03*
X73660000Y47625000D03*
X76200000Y46355000D03*
X76200000Y47625000D03*
X57150000Y45720000D03*
X60960000Y48895000D03*
X55880000Y42545000D03*
X69850000Y13335000D03*
X53340000Y40640000D03*
X61595000Y41910000D03*
X76200000Y46990000D03*
X73660000Y46990000D03*
X54610000Y45720000D03*
X57150000Y34925000D03*
X74295000Y34290000D03*
X63500000Y46355000D03*
X63500000Y47625000D03*
X66040000Y46355000D03*
X66040000Y47625000D03*
X57785000Y48895000D03*
X50800000Y45720000D03*
X74930000Y17780000D03*
X76200000Y8890000D03*
X72390000Y7620000D03*
X61595000Y24765000D03*
X53340000Y36195000D03*
X54610000Y39370000D03*
X66040000Y46990000D03*
X63500000Y46990000D03*
X62230000Y43180000D03*
X62230000Y45085000D03*
X57150000Y43180000D03*
X70485000Y36195000D03*
X74930000Y38735000D03*
X70485000Y27305000D03*
X76200000Y26035000D03*
X53975000Y18415000D03*
X58420000Y40640000D03*
X73660000Y13335000D03*
X69850000Y16510000D03*
X63500000Y36830000D03*
X59055000Y26035000D03*
X66675000Y29210000D03*
X25400000Y58424800D03*
X23495000Y57150000D03*
X24130000Y57785000D03*
X20259030Y56377325D03*
X20955000Y54610000D03*
X63500000Y59055000D03*
X12700000Y45720000D03*
X17145000Y45085000D03*
X12700000Y39370000D03*
X17145000Y38735000D03*
X28575000Y52705000D03*
X56515000Y52705000D03*
X50800000Y57785000D03*
X54610000Y57785000D03*
X22225000Y66675000D03*
X22225000Y64770000D03*
X7620000Y48895000D03*
X6985000Y48895000D03*
X6350000Y48895000D03*
X6350000Y51435000D03*
X6985000Y51435000D03*
X7620000Y51435000D03*
X76200000Y67945000D03*
X26670000Y53340000D03*
X54610000Y53340000D03*
X32385000Y31115000D03*
X31115000Y29845000D03*
X60325000Y31115000D03*
X59055000Y29845000D03*
X27940000Y59944000D03*
X37440652Y65719128D03*
X35560000Y64770000D03*
X27178000Y59182000D03*
X37084000Y64262000D03*
X26670000Y58420000D03*
X53975000Y53975000D03*
X25400000Y53340000D03*
X20871050Y64771105D03*
X49530000Y52705000D03*
X24130000Y53340000D03*
X16998048Y62865000D03*
X18264100Y53306503D03*
X18415000Y43815000D03*
X19050000Y53340000D03*
X18415000Y37465000D03*
X15240000Y52949401D03*
X15240000Y51435000D03*
X15875000Y47625000D03*
X16510000Y34290000D03*
D20*
G36*
X31173013Y49281259D02*
X31069118Y49031054D01*
X31068882Y48760135D01*
X31172339Y48509748D01*
X31363741Y48318013D01*
X31613946Y48214118D01*
X31884865Y48213882D01*
X32135252Y48317339D01*
X32326987Y48508741D01*
X32430882Y48758946D01*
X32431118Y49029865D01*
X32327661Y49280252D01*
X32205126Y49403000D01*
X49149000Y49403000D01*
X49149000Y456000D01*
X21717000Y456000D01*
X21717000Y15007787D01*
X28663900Y15007787D01*
X28663900Y14044733D01*
X28753806Y13592746D01*
X29009836Y13209569D01*
X29393013Y12953539D01*
X29845000Y12863633D01*
X30296987Y12953539D01*
X30666044Y13200135D01*
X41228882Y13200135D01*
X41332339Y12949748D01*
X41523741Y12758013D01*
X41773946Y12654118D01*
X42044865Y12653882D01*
X42295252Y12757339D01*
X42486987Y12948741D01*
X42590882Y13198946D01*
X42590883Y13200135D01*
X45038882Y13200135D01*
X45142339Y12949748D01*
X45333741Y12758013D01*
X45583946Y12654118D01*
X45854865Y12653882D01*
X46105252Y12757339D01*
X46296987Y12948741D01*
X46400882Y13198946D01*
X46401118Y13469865D01*
X46297661Y13720252D01*
X46106259Y13911987D01*
X45856054Y14015882D01*
X45585135Y14016118D01*
X45334748Y13912661D01*
X45143013Y13721259D01*
X45039118Y13471054D01*
X45038882Y13200135D01*
X42590883Y13200135D01*
X42591118Y13469865D01*
X42487661Y13720252D01*
X42296259Y13911987D01*
X42046054Y14015882D01*
X41775135Y14016118D01*
X41524748Y13912661D01*
X41333013Y13721259D01*
X41229118Y13471054D01*
X41228882Y13200135D01*
X30666044Y13200135D01*
X30680164Y13209569D01*
X30936194Y13592746D01*
X31026100Y14044733D01*
X31026100Y15007787D01*
X30936194Y15459774D01*
X30680164Y15842951D01*
X30296987Y16098981D01*
X29845000Y16188887D01*
X29393013Y16098981D01*
X29009836Y15842951D01*
X28753806Y15459774D01*
X28663900Y15007787D01*
X21717000Y15007787D01*
X21717000Y16375135D01*
X41228882Y16375135D01*
X41332339Y16124748D01*
X41523741Y15933013D01*
X41773946Y15829118D01*
X42044865Y15828882D01*
X42295252Y15932339D01*
X42486987Y16123741D01*
X42590882Y16373946D01*
X42591118Y16644865D01*
X42487661Y16895252D01*
X42296259Y17086987D01*
X42046054Y17190882D01*
X41775135Y17191118D01*
X41524748Y17087661D01*
X41333013Y16896259D01*
X41229118Y16646054D01*
X41228882Y16375135D01*
X21717000Y16375135D01*
X21717000Y25900135D01*
X30433882Y25900135D01*
X30537339Y25649748D01*
X30728741Y25458013D01*
X30978946Y25354118D01*
X31249865Y25353882D01*
X31500252Y25457339D01*
X31691987Y25648741D01*
X31795882Y25898946D01*
X31796118Y26169865D01*
X31692661Y26420252D01*
X31501259Y26611987D01*
X31251054Y26715882D01*
X30980135Y26716118D01*
X30729748Y26612661D01*
X30538013Y26421259D01*
X30434118Y26171054D01*
X30433882Y25900135D01*
X21717000Y25900135D01*
X21717000Y29075135D01*
X37418882Y29075135D01*
X37522339Y28824748D01*
X37713741Y28633013D01*
X37963946Y28529118D01*
X38234865Y28528882D01*
X38485252Y28632339D01*
X38676987Y28823741D01*
X38780882Y29073946D01*
X38781118Y29344865D01*
X38677661Y29595252D01*
X38486259Y29786987D01*
X38236054Y29890882D01*
X37965135Y29891118D01*
X37714748Y29787661D01*
X37523013Y29596259D01*
X37419118Y29346054D01*
X37418882Y29075135D01*
X21717000Y29075135D01*
X21717000Y29710135D01*
X30433882Y29710135D01*
X30537339Y29459748D01*
X30728741Y29268013D01*
X30978946Y29164118D01*
X31249865Y29163882D01*
X31500252Y29267339D01*
X31691987Y29458741D01*
X31795882Y29708946D01*
X31796118Y29979865D01*
X31692661Y30230252D01*
X31501259Y30421987D01*
X31251054Y30525882D01*
X30980135Y30526118D01*
X30729748Y30422661D01*
X30538013Y30231259D01*
X30434118Y29981054D01*
X30433882Y29710135D01*
X21717000Y29710135D01*
X21717000Y30980135D01*
X31703882Y30980135D01*
X31807339Y30729748D01*
X31998741Y30538013D01*
X32248946Y30434118D01*
X32519865Y30433882D01*
X32770252Y30537339D01*
X32961987Y30728741D01*
X33065882Y30978946D01*
X33066118Y31249865D01*
X32962661Y31500252D01*
X32771259Y31691987D01*
X32521054Y31795882D01*
X32250135Y31796118D01*
X31999748Y31692661D01*
X31808013Y31501259D01*
X31704118Y31251054D01*
X31703882Y30980135D01*
X21717000Y30980135D01*
X21717000Y34155135D01*
X45673882Y34155135D01*
X45777339Y33904748D01*
X45968741Y33713013D01*
X46218946Y33609118D01*
X46489865Y33608882D01*
X46740252Y33712339D01*
X46931987Y33903741D01*
X47035882Y34153946D01*
X47036118Y34424865D01*
X46932661Y34675252D01*
X46741259Y34866987D01*
X46491054Y34970882D01*
X46220135Y34971118D01*
X45969748Y34867661D01*
X45778013Y34676259D01*
X45674118Y34426054D01*
X45673882Y34155135D01*
X21717000Y34155135D01*
X21717000Y34790135D01*
X28528882Y34790135D01*
X28632339Y34539748D01*
X28823741Y34348013D01*
X29073946Y34244118D01*
X29344865Y34243882D01*
X29595252Y34347339D01*
X29786987Y34538741D01*
X29890882Y34788946D01*
X29891118Y35059865D01*
X29787661Y35310252D01*
X29596259Y35501987D01*
X29346054Y35605882D01*
X29075135Y35606118D01*
X28824748Y35502661D01*
X28633013Y35311259D01*
X28529118Y35061054D01*
X28528882Y34790135D01*
X21717000Y34790135D01*
X21717000Y36695135D01*
X34878882Y36695135D01*
X34982339Y36444748D01*
X35173741Y36253013D01*
X35423946Y36149118D01*
X35694865Y36148882D01*
X35945252Y36252339D01*
X36136987Y36443741D01*
X36240882Y36693946D01*
X36241118Y36964865D01*
X36137661Y37215252D01*
X35946259Y37406987D01*
X35696054Y37510882D01*
X35425135Y37511118D01*
X35174748Y37407661D01*
X34983013Y37216259D01*
X34879118Y36966054D01*
X34878882Y36695135D01*
X21717000Y36695135D01*
X21717000Y40505135D01*
X24718882Y40505135D01*
X24822339Y40254748D01*
X25013741Y40063013D01*
X25263946Y39959118D01*
X25534865Y39958882D01*
X25785252Y40062339D01*
X25976987Y40253741D01*
X26080882Y40503946D01*
X26081118Y40774865D01*
X25977661Y41025252D01*
X25786259Y41216987D01*
X25536054Y41320882D01*
X25265135Y41321118D01*
X25014748Y41217661D01*
X24823013Y41026259D01*
X24719118Y40776054D01*
X24718882Y40505135D01*
X21717000Y40505135D01*
X21717000Y41775135D01*
X32973882Y41775135D01*
X33077339Y41524748D01*
X33268741Y41333013D01*
X33518946Y41229118D01*
X33789865Y41228882D01*
X34040252Y41332339D01*
X34231987Y41523741D01*
X34335882Y41773946D01*
X34336118Y42044865D01*
X34232661Y42295252D01*
X34041259Y42486987D01*
X33791054Y42590882D01*
X33520135Y42591118D01*
X33269748Y42487661D01*
X33078013Y42296259D01*
X32974118Y42046054D01*
X32973882Y41775135D01*
X21717000Y41775135D01*
X21717000Y45585135D01*
X25988882Y45585135D01*
X26092339Y45334748D01*
X26283741Y45143013D01*
X26533946Y45039118D01*
X26804865Y45038882D01*
X27055252Y45142339D01*
X27246987Y45333741D01*
X27350882Y45583946D01*
X27350938Y45648573D01*
X28592320Y45648573D01*
X28695777Y45398186D01*
X28887179Y45206451D01*
X29137384Y45102556D01*
X29408303Y45102320D01*
X29658690Y45205777D01*
X29850425Y45397179D01*
X29954320Y45647384D01*
X29954556Y45918303D01*
X29851099Y46168690D01*
X29659697Y46360425D01*
X29409492Y46464320D01*
X29138573Y46464556D01*
X28888186Y46361099D01*
X28696451Y46169697D01*
X28592556Y45919492D01*
X28592320Y45648573D01*
X27350938Y45648573D01*
X27351118Y45854865D01*
X27247661Y46105252D01*
X27056259Y46296987D01*
X26806054Y46400882D01*
X26535135Y46401118D01*
X26284748Y46297661D01*
X26093013Y46106259D01*
X25989118Y45856054D01*
X25988882Y45585135D01*
X21717000Y45585135D01*
X21717000Y47490135D01*
X45038882Y47490135D01*
X45114403Y47307359D01*
X45039118Y47126054D01*
X45038882Y46855135D01*
X45114403Y46672359D01*
X45039118Y46491054D01*
X45038882Y46220135D01*
X45142339Y45969748D01*
X45333741Y45778013D01*
X45583946Y45674118D01*
X45854865Y45673882D01*
X46105252Y45777339D01*
X46296987Y45968741D01*
X46400882Y46218946D01*
X46401118Y46489865D01*
X46325597Y46672641D01*
X46400882Y46853946D01*
X46401118Y47124865D01*
X46325597Y47307641D01*
X46400882Y47488946D01*
X46400883Y47490135D01*
X47578882Y47490135D01*
X47654403Y47307359D01*
X47579118Y47126054D01*
X47578882Y46855135D01*
X47654403Y46672359D01*
X47579118Y46491054D01*
X47578882Y46220135D01*
X47682339Y45969748D01*
X47873741Y45778013D01*
X48123946Y45674118D01*
X48394865Y45673882D01*
X48645252Y45777339D01*
X48836987Y45968741D01*
X48940882Y46218946D01*
X48941118Y46489865D01*
X48865597Y46672641D01*
X48940882Y46853946D01*
X48941118Y47124865D01*
X48865597Y47307641D01*
X48940882Y47488946D01*
X48941118Y47759865D01*
X48837661Y48010252D01*
X48646259Y48201987D01*
X48396054Y48305882D01*
X48125135Y48306118D01*
X47874748Y48202661D01*
X47683013Y48011259D01*
X47579118Y47761054D01*
X47578882Y47490135D01*
X46400883Y47490135D01*
X46401118Y47759865D01*
X46297661Y48010252D01*
X46106259Y48201987D01*
X45856054Y48305882D01*
X45585135Y48306118D01*
X45334748Y48202661D01*
X45143013Y48011259D01*
X45039118Y47761054D01*
X45038882Y47490135D01*
X21717000Y47490135D01*
X21717000Y49403000D01*
X31294966Y49403000D01*
X31173013Y49281259D01*
X31173013Y49281259D01*
G37*
X31173013Y49281259D02*
X31069118Y49031054D01*
X31068882Y48760135D01*
X31172339Y48509748D01*
X31363741Y48318013D01*
X31613946Y48214118D01*
X31884865Y48213882D01*
X32135252Y48317339D01*
X32326987Y48508741D01*
X32430882Y48758946D01*
X32431118Y49029865D01*
X32327661Y49280252D01*
X32205126Y49403000D01*
X49149000Y49403000D01*
X49149000Y456000D01*
X21717000Y456000D01*
X21717000Y15007787D01*
X28663900Y15007787D01*
X28663900Y14044733D01*
X28753806Y13592746D01*
X29009836Y13209569D01*
X29393013Y12953539D01*
X29845000Y12863633D01*
X30296987Y12953539D01*
X30666044Y13200135D01*
X41228882Y13200135D01*
X41332339Y12949748D01*
X41523741Y12758013D01*
X41773946Y12654118D01*
X42044865Y12653882D01*
X42295252Y12757339D01*
X42486987Y12948741D01*
X42590882Y13198946D01*
X42590883Y13200135D01*
X45038882Y13200135D01*
X45142339Y12949748D01*
X45333741Y12758013D01*
X45583946Y12654118D01*
X45854865Y12653882D01*
X46105252Y12757339D01*
X46296987Y12948741D01*
X46400882Y13198946D01*
X46401118Y13469865D01*
X46297661Y13720252D01*
X46106259Y13911987D01*
X45856054Y14015882D01*
X45585135Y14016118D01*
X45334748Y13912661D01*
X45143013Y13721259D01*
X45039118Y13471054D01*
X45038882Y13200135D01*
X42590883Y13200135D01*
X42591118Y13469865D01*
X42487661Y13720252D01*
X42296259Y13911987D01*
X42046054Y14015882D01*
X41775135Y14016118D01*
X41524748Y13912661D01*
X41333013Y13721259D01*
X41229118Y13471054D01*
X41228882Y13200135D01*
X30666044Y13200135D01*
X30680164Y13209569D01*
X30936194Y13592746D01*
X31026100Y14044733D01*
X31026100Y15007787D01*
X30936194Y15459774D01*
X30680164Y15842951D01*
X30296987Y16098981D01*
X29845000Y16188887D01*
X29393013Y16098981D01*
X29009836Y15842951D01*
X28753806Y15459774D01*
X28663900Y15007787D01*
X21717000Y15007787D01*
X21717000Y16375135D01*
X41228882Y16375135D01*
X41332339Y16124748D01*
X41523741Y15933013D01*
X41773946Y15829118D01*
X42044865Y15828882D01*
X42295252Y15932339D01*
X42486987Y16123741D01*
X42590882Y16373946D01*
X42591118Y16644865D01*
X42487661Y16895252D01*
X42296259Y17086987D01*
X42046054Y17190882D01*
X41775135Y17191118D01*
X41524748Y17087661D01*
X41333013Y16896259D01*
X41229118Y16646054D01*
X41228882Y16375135D01*
X21717000Y16375135D01*
X21717000Y25900135D01*
X30433882Y25900135D01*
X30537339Y25649748D01*
X30728741Y25458013D01*
X30978946Y25354118D01*
X31249865Y25353882D01*
X31500252Y25457339D01*
X31691987Y25648741D01*
X31795882Y25898946D01*
X31796118Y26169865D01*
X31692661Y26420252D01*
X31501259Y26611987D01*
X31251054Y26715882D01*
X30980135Y26716118D01*
X30729748Y26612661D01*
X30538013Y26421259D01*
X30434118Y26171054D01*
X30433882Y25900135D01*
X21717000Y25900135D01*
X21717000Y29075135D01*
X37418882Y29075135D01*
X37522339Y28824748D01*
X37713741Y28633013D01*
X37963946Y28529118D01*
X38234865Y28528882D01*
X38485252Y28632339D01*
X38676987Y28823741D01*
X38780882Y29073946D01*
X38781118Y29344865D01*
X38677661Y29595252D01*
X38486259Y29786987D01*
X38236054Y29890882D01*
X37965135Y29891118D01*
X37714748Y29787661D01*
X37523013Y29596259D01*
X37419118Y29346054D01*
X37418882Y29075135D01*
X21717000Y29075135D01*
X21717000Y29710135D01*
X30433882Y29710135D01*
X30537339Y29459748D01*
X30728741Y29268013D01*
X30978946Y29164118D01*
X31249865Y29163882D01*
X31500252Y29267339D01*
X31691987Y29458741D01*
X31795882Y29708946D01*
X31796118Y29979865D01*
X31692661Y30230252D01*
X31501259Y30421987D01*
X31251054Y30525882D01*
X30980135Y30526118D01*
X30729748Y30422661D01*
X30538013Y30231259D01*
X30434118Y29981054D01*
X30433882Y29710135D01*
X21717000Y29710135D01*
X21717000Y30980135D01*
X31703882Y30980135D01*
X31807339Y30729748D01*
X31998741Y30538013D01*
X32248946Y30434118D01*
X32519865Y30433882D01*
X32770252Y30537339D01*
X32961987Y30728741D01*
X33065882Y30978946D01*
X33066118Y31249865D01*
X32962661Y31500252D01*
X32771259Y31691987D01*
X32521054Y31795882D01*
X32250135Y31796118D01*
X31999748Y31692661D01*
X31808013Y31501259D01*
X31704118Y31251054D01*
X31703882Y30980135D01*
X21717000Y30980135D01*
X21717000Y34155135D01*
X45673882Y34155135D01*
X45777339Y33904748D01*
X45968741Y33713013D01*
X46218946Y33609118D01*
X46489865Y33608882D01*
X46740252Y33712339D01*
X46931987Y33903741D01*
X47035882Y34153946D01*
X47036118Y34424865D01*
X46932661Y34675252D01*
X46741259Y34866987D01*
X46491054Y34970882D01*
X46220135Y34971118D01*
X45969748Y34867661D01*
X45778013Y34676259D01*
X45674118Y34426054D01*
X45673882Y34155135D01*
X21717000Y34155135D01*
X21717000Y34790135D01*
X28528882Y34790135D01*
X28632339Y34539748D01*
X28823741Y34348013D01*
X29073946Y34244118D01*
X29344865Y34243882D01*
X29595252Y34347339D01*
X29786987Y34538741D01*
X29890882Y34788946D01*
X29891118Y35059865D01*
X29787661Y35310252D01*
X29596259Y35501987D01*
X29346054Y35605882D01*
X29075135Y35606118D01*
X28824748Y35502661D01*
X28633013Y35311259D01*
X28529118Y35061054D01*
X28528882Y34790135D01*
X21717000Y34790135D01*
X21717000Y36695135D01*
X34878882Y36695135D01*
X34982339Y36444748D01*
X35173741Y36253013D01*
X35423946Y36149118D01*
X35694865Y36148882D01*
X35945252Y36252339D01*
X36136987Y36443741D01*
X36240882Y36693946D01*
X36241118Y36964865D01*
X36137661Y37215252D01*
X35946259Y37406987D01*
X35696054Y37510882D01*
X35425135Y37511118D01*
X35174748Y37407661D01*
X34983013Y37216259D01*
X34879118Y36966054D01*
X34878882Y36695135D01*
X21717000Y36695135D01*
X21717000Y40505135D01*
X24718882Y40505135D01*
X24822339Y40254748D01*
X25013741Y40063013D01*
X25263946Y39959118D01*
X25534865Y39958882D01*
X25785252Y40062339D01*
X25976987Y40253741D01*
X26080882Y40503946D01*
X26081118Y40774865D01*
X25977661Y41025252D01*
X25786259Y41216987D01*
X25536054Y41320882D01*
X25265135Y41321118D01*
X25014748Y41217661D01*
X24823013Y41026259D01*
X24719118Y40776054D01*
X24718882Y40505135D01*
X21717000Y40505135D01*
X21717000Y41775135D01*
X32973882Y41775135D01*
X33077339Y41524748D01*
X33268741Y41333013D01*
X33518946Y41229118D01*
X33789865Y41228882D01*
X34040252Y41332339D01*
X34231987Y41523741D01*
X34335882Y41773946D01*
X34336118Y42044865D01*
X34232661Y42295252D01*
X34041259Y42486987D01*
X33791054Y42590882D01*
X33520135Y42591118D01*
X33269748Y42487661D01*
X33078013Y42296259D01*
X32974118Y42046054D01*
X32973882Y41775135D01*
X21717000Y41775135D01*
X21717000Y45585135D01*
X25988882Y45585135D01*
X26092339Y45334748D01*
X26283741Y45143013D01*
X26533946Y45039118D01*
X26804865Y45038882D01*
X27055252Y45142339D01*
X27246987Y45333741D01*
X27350882Y45583946D01*
X27350938Y45648573D01*
X28592320Y45648573D01*
X28695777Y45398186D01*
X28887179Y45206451D01*
X29137384Y45102556D01*
X29408303Y45102320D01*
X29658690Y45205777D01*
X29850425Y45397179D01*
X29954320Y45647384D01*
X29954556Y45918303D01*
X29851099Y46168690D01*
X29659697Y46360425D01*
X29409492Y46464320D01*
X29138573Y46464556D01*
X28888186Y46361099D01*
X28696451Y46169697D01*
X28592556Y45919492D01*
X28592320Y45648573D01*
X27350938Y45648573D01*
X27351118Y45854865D01*
X27247661Y46105252D01*
X27056259Y46296987D01*
X26806054Y46400882D01*
X26535135Y46401118D01*
X26284748Y46297661D01*
X26093013Y46106259D01*
X25989118Y45856054D01*
X25988882Y45585135D01*
X21717000Y45585135D01*
X21717000Y47490135D01*
X45038882Y47490135D01*
X45114403Y47307359D01*
X45039118Y47126054D01*
X45038882Y46855135D01*
X45114403Y46672359D01*
X45039118Y46491054D01*
X45038882Y46220135D01*
X45142339Y45969748D01*
X45333741Y45778013D01*
X45583946Y45674118D01*
X45854865Y45673882D01*
X46105252Y45777339D01*
X46296987Y45968741D01*
X46400882Y46218946D01*
X46401118Y46489865D01*
X46325597Y46672641D01*
X46400882Y46853946D01*
X46401118Y47124865D01*
X46325597Y47307641D01*
X46400882Y47488946D01*
X46400883Y47490135D01*
X47578882Y47490135D01*
X47654403Y47307359D01*
X47579118Y47126054D01*
X47578882Y46855135D01*
X47654403Y46672359D01*
X47579118Y46491054D01*
X47578882Y46220135D01*
X47682339Y45969748D01*
X47873741Y45778013D01*
X48123946Y45674118D01*
X48394865Y45673882D01*
X48645252Y45777339D01*
X48836987Y45968741D01*
X48940882Y46218946D01*
X48941118Y46489865D01*
X48865597Y46672641D01*
X48940882Y46853946D01*
X48941118Y47124865D01*
X48865597Y47307641D01*
X48940882Y47488946D01*
X48941118Y47759865D01*
X48837661Y48010252D01*
X48646259Y48201987D01*
X48396054Y48305882D01*
X48125135Y48306118D01*
X47874748Y48202661D01*
X47683013Y48011259D01*
X47579118Y47761054D01*
X47578882Y47490135D01*
X46400883Y47490135D01*
X46401118Y47759865D01*
X46297661Y48010252D01*
X46106259Y48201987D01*
X45856054Y48305882D01*
X45585135Y48306118D01*
X45334748Y48202661D01*
X45143013Y48011259D01*
X45039118Y47761054D01*
X45038882Y47490135D01*
X21717000Y47490135D01*
X21717000Y49403000D01*
X31294966Y49403000D01*
X31173013Y49281259D01*
G36*
X60383013Y49281259D02*
X60279118Y49031054D01*
X60278882Y48760135D01*
X60382339Y48509748D01*
X60573741Y48318013D01*
X60823946Y48214118D01*
X61094865Y48213882D01*
X61345252Y48317339D01*
X61536987Y48508741D01*
X61640882Y48758946D01*
X61641118Y49029865D01*
X61537661Y49280252D01*
X61415126Y49403000D01*
X79544000Y49403000D01*
X79544000Y456000D01*
X49911000Y456000D01*
X49911000Y15007787D01*
X56603900Y15007787D01*
X56603900Y14044733D01*
X56693806Y13592746D01*
X56949836Y13209569D01*
X57333013Y12953539D01*
X57785000Y12863633D01*
X58236987Y12953539D01*
X58606044Y13200135D01*
X69168882Y13200135D01*
X69272339Y12949748D01*
X69463741Y12758013D01*
X69713946Y12654118D01*
X69984865Y12653882D01*
X70235252Y12757339D01*
X70426987Y12948741D01*
X70530882Y13198946D01*
X70530883Y13200135D01*
X72978882Y13200135D01*
X73082339Y12949748D01*
X73273741Y12758013D01*
X73523946Y12654118D01*
X73794865Y12653882D01*
X74045252Y12757339D01*
X74236987Y12948741D01*
X74340882Y13198946D01*
X74341118Y13469865D01*
X74237661Y13720252D01*
X74046259Y13911987D01*
X73796054Y14015882D01*
X73525135Y14016118D01*
X73274748Y13912661D01*
X73083013Y13721259D01*
X72979118Y13471054D01*
X72978882Y13200135D01*
X70530883Y13200135D01*
X70531118Y13469865D01*
X70427661Y13720252D01*
X70236259Y13911987D01*
X69986054Y14015882D01*
X69715135Y14016118D01*
X69464748Y13912661D01*
X69273013Y13721259D01*
X69169118Y13471054D01*
X69168882Y13200135D01*
X58606044Y13200135D01*
X58620164Y13209569D01*
X58876194Y13592746D01*
X58966100Y14044733D01*
X58966100Y15007787D01*
X58876194Y15459774D01*
X58620164Y15842951D01*
X58236987Y16098981D01*
X57785000Y16188887D01*
X57333013Y16098981D01*
X56949836Y15842951D01*
X56693806Y15459774D01*
X56603900Y15007787D01*
X49911000Y15007787D01*
X49911000Y16375135D01*
X69168882Y16375135D01*
X69272339Y16124748D01*
X69463741Y15933013D01*
X69713946Y15829118D01*
X69984865Y15828882D01*
X70235252Y15932339D01*
X70426987Y16123741D01*
X70530882Y16373946D01*
X70531118Y16644865D01*
X70427661Y16895252D01*
X70236259Y17086987D01*
X69986054Y17190882D01*
X69715135Y17191118D01*
X69464748Y17087661D01*
X69273013Y16896259D01*
X69169118Y16646054D01*
X69168882Y16375135D01*
X49911000Y16375135D01*
X49911000Y25900135D01*
X58373882Y25900135D01*
X58477339Y25649748D01*
X58668741Y25458013D01*
X58918946Y25354118D01*
X59189865Y25353882D01*
X59440252Y25457339D01*
X59631987Y25648741D01*
X59735882Y25898946D01*
X59736118Y26169865D01*
X59632661Y26420252D01*
X59441259Y26611987D01*
X59191054Y26715882D01*
X58920135Y26716118D01*
X58669748Y26612661D01*
X58478013Y26421259D01*
X58374118Y26171054D01*
X58373882Y25900135D01*
X49911000Y25900135D01*
X49911000Y29075135D01*
X65993882Y29075135D01*
X66097339Y28824748D01*
X66288741Y28633013D01*
X66538946Y28529118D01*
X66809865Y28528882D01*
X67060252Y28632339D01*
X67251987Y28823741D01*
X67355882Y29073946D01*
X67356118Y29344865D01*
X67252661Y29595252D01*
X67061259Y29786987D01*
X66811054Y29890882D01*
X66540135Y29891118D01*
X66289748Y29787661D01*
X66098013Y29596259D01*
X65994118Y29346054D01*
X65993882Y29075135D01*
X49911000Y29075135D01*
X49911000Y29710135D01*
X58373882Y29710135D01*
X58477339Y29459748D01*
X58668741Y29268013D01*
X58918946Y29164118D01*
X59189865Y29163882D01*
X59440252Y29267339D01*
X59631987Y29458741D01*
X59735882Y29708946D01*
X59736118Y29979865D01*
X59632661Y30230252D01*
X59441259Y30421987D01*
X59191054Y30525882D01*
X58920135Y30526118D01*
X58669748Y30422661D01*
X58478013Y30231259D01*
X58374118Y29981054D01*
X58373882Y29710135D01*
X49911000Y29710135D01*
X49911000Y30980135D01*
X59643882Y30980135D01*
X59747339Y30729748D01*
X59938741Y30538013D01*
X60188946Y30434118D01*
X60459865Y30433882D01*
X60710252Y30537339D01*
X60901987Y30728741D01*
X61005882Y30978946D01*
X61006118Y31249865D01*
X60902661Y31500252D01*
X60711259Y31691987D01*
X60461054Y31795882D01*
X60190135Y31796118D01*
X59939748Y31692661D01*
X59748013Y31501259D01*
X59644118Y31251054D01*
X59643882Y30980135D01*
X49911000Y30980135D01*
X49911000Y34155135D01*
X73613882Y34155135D01*
X73717339Y33904748D01*
X73908741Y33713013D01*
X74158946Y33609118D01*
X74429865Y33608882D01*
X74680252Y33712339D01*
X74871987Y33903741D01*
X74975882Y34153946D01*
X74976118Y34424865D01*
X74872661Y34675252D01*
X74681259Y34866987D01*
X74431054Y34970882D01*
X74160135Y34971118D01*
X73909748Y34867661D01*
X73718013Y34676259D01*
X73614118Y34426054D01*
X73613882Y34155135D01*
X49911000Y34155135D01*
X49911000Y34790135D01*
X56468882Y34790135D01*
X56572339Y34539748D01*
X56763741Y34348013D01*
X57013946Y34244118D01*
X57284865Y34243882D01*
X57535252Y34347339D01*
X57726987Y34538741D01*
X57830882Y34788946D01*
X57831118Y35059865D01*
X57727661Y35310252D01*
X57536259Y35501987D01*
X57286054Y35605882D01*
X57015135Y35606118D01*
X56764748Y35502661D01*
X56573013Y35311259D01*
X56469118Y35061054D01*
X56468882Y34790135D01*
X49911000Y34790135D01*
X49911000Y36695135D01*
X62818882Y36695135D01*
X62922339Y36444748D01*
X63113741Y36253013D01*
X63363946Y36149118D01*
X63634865Y36148882D01*
X63885252Y36252339D01*
X64076987Y36443741D01*
X64180882Y36693946D01*
X64181118Y36964865D01*
X64077661Y37215252D01*
X63886259Y37406987D01*
X63636054Y37510882D01*
X63365135Y37511118D01*
X63114748Y37407661D01*
X62923013Y37216259D01*
X62819118Y36966054D01*
X62818882Y36695135D01*
X49911000Y36695135D01*
X49911000Y40505135D01*
X52658882Y40505135D01*
X52762339Y40254748D01*
X52953741Y40063013D01*
X53203946Y39959118D01*
X53474865Y39958882D01*
X53725252Y40062339D01*
X53916987Y40253741D01*
X54020882Y40503946D01*
X54021118Y40774865D01*
X53917661Y41025252D01*
X53726259Y41216987D01*
X53476054Y41320882D01*
X53205135Y41321118D01*
X52954748Y41217661D01*
X52763013Y41026259D01*
X52659118Y40776054D01*
X52658882Y40505135D01*
X49911000Y40505135D01*
X49911000Y41775135D01*
X60913882Y41775135D01*
X61017339Y41524748D01*
X61208741Y41333013D01*
X61458946Y41229118D01*
X61729865Y41228882D01*
X61980252Y41332339D01*
X62171987Y41523741D01*
X62275882Y41773946D01*
X62276118Y42044865D01*
X62172661Y42295252D01*
X61981259Y42486987D01*
X61731054Y42590882D01*
X61460135Y42591118D01*
X61209748Y42487661D01*
X61018013Y42296259D01*
X60914118Y42046054D01*
X60913882Y41775135D01*
X49911000Y41775135D01*
X49911000Y42410135D01*
X55198882Y42410135D01*
X55302339Y42159748D01*
X55493741Y41968013D01*
X55743946Y41864118D01*
X56014865Y41863882D01*
X56265252Y41967339D01*
X56456987Y42158741D01*
X56560882Y42408946D01*
X56561118Y42679865D01*
X56457661Y42930252D01*
X56266259Y43121987D01*
X56016054Y43225882D01*
X55745135Y43226118D01*
X55494748Y43122661D01*
X55303013Y42931259D01*
X55199118Y42681054D01*
X55198882Y42410135D01*
X49911000Y42410135D01*
X49911000Y45585135D01*
X53928882Y45585135D01*
X54032339Y45334748D01*
X54223741Y45143013D01*
X54473946Y45039118D01*
X54744865Y45038882D01*
X54995252Y45142339D01*
X55186987Y45333741D01*
X55290882Y45583946D01*
X55290883Y45585135D01*
X56468882Y45585135D01*
X56572339Y45334748D01*
X56763741Y45143013D01*
X57013946Y45039118D01*
X57284865Y45038882D01*
X57535252Y45142339D01*
X57726987Y45333741D01*
X57830882Y45583946D01*
X57831118Y45854865D01*
X57727661Y46105252D01*
X57536259Y46296987D01*
X57286054Y46400882D01*
X57015135Y46401118D01*
X56764748Y46297661D01*
X56573013Y46106259D01*
X56469118Y45856054D01*
X56468882Y45585135D01*
X55290883Y45585135D01*
X55291118Y45854865D01*
X55187661Y46105252D01*
X54996259Y46296987D01*
X54746054Y46400882D01*
X54475135Y46401118D01*
X54224748Y46297661D01*
X54033013Y46106259D01*
X53929118Y45856054D01*
X53928882Y45585135D01*
X49911000Y45585135D01*
X49911000Y47490135D01*
X72978882Y47490135D01*
X73054403Y47307359D01*
X72979118Y47126054D01*
X72978882Y46855135D01*
X73054403Y46672359D01*
X72979118Y46491054D01*
X72978882Y46220135D01*
X73082339Y45969748D01*
X73273741Y45778013D01*
X73523946Y45674118D01*
X73794865Y45673882D01*
X74045252Y45777339D01*
X74236987Y45968741D01*
X74340882Y46218946D01*
X74341118Y46489865D01*
X74265597Y46672641D01*
X74340882Y46853946D01*
X74341118Y47124865D01*
X74265597Y47307641D01*
X74340882Y47488946D01*
X74340883Y47490135D01*
X75518882Y47490135D01*
X75594403Y47307359D01*
X75519118Y47126054D01*
X75518882Y46855135D01*
X75594403Y46672359D01*
X75519118Y46491054D01*
X75518882Y46220135D01*
X75622339Y45969748D01*
X75813741Y45778013D01*
X76063946Y45674118D01*
X76334865Y45673882D01*
X76585252Y45777339D01*
X76776987Y45968741D01*
X76880882Y46218946D01*
X76881118Y46489865D01*
X76805597Y46672641D01*
X76880882Y46853946D01*
X76881118Y47124865D01*
X76805597Y47307641D01*
X76880882Y47488946D01*
X76881118Y47759865D01*
X76777661Y48010252D01*
X76586259Y48201987D01*
X76336054Y48305882D01*
X76065135Y48306118D01*
X75814748Y48202661D01*
X75623013Y48011259D01*
X75519118Y47761054D01*
X75518882Y47490135D01*
X74340883Y47490135D01*
X74341118Y47759865D01*
X74237661Y48010252D01*
X74046259Y48201987D01*
X73796054Y48305882D01*
X73525135Y48306118D01*
X73274748Y48202661D01*
X73083013Y48011259D01*
X72979118Y47761054D01*
X72978882Y47490135D01*
X49911000Y47490135D01*
X49911000Y49403000D01*
X60504966Y49403000D01*
X60383013Y49281259D01*
X60383013Y49281259D01*
G37*
X60383013Y49281259D02*
X60279118Y49031054D01*
X60278882Y48760135D01*
X60382339Y48509748D01*
X60573741Y48318013D01*
X60823946Y48214118D01*
X61094865Y48213882D01*
X61345252Y48317339D01*
X61536987Y48508741D01*
X61640882Y48758946D01*
X61641118Y49029865D01*
X61537661Y49280252D01*
X61415126Y49403000D01*
X79544000Y49403000D01*
X79544000Y456000D01*
X49911000Y456000D01*
X49911000Y15007787D01*
X56603900Y15007787D01*
X56603900Y14044733D01*
X56693806Y13592746D01*
X56949836Y13209569D01*
X57333013Y12953539D01*
X57785000Y12863633D01*
X58236987Y12953539D01*
X58606044Y13200135D01*
X69168882Y13200135D01*
X69272339Y12949748D01*
X69463741Y12758013D01*
X69713946Y12654118D01*
X69984865Y12653882D01*
X70235252Y12757339D01*
X70426987Y12948741D01*
X70530882Y13198946D01*
X70530883Y13200135D01*
X72978882Y13200135D01*
X73082339Y12949748D01*
X73273741Y12758013D01*
X73523946Y12654118D01*
X73794865Y12653882D01*
X74045252Y12757339D01*
X74236987Y12948741D01*
X74340882Y13198946D01*
X74341118Y13469865D01*
X74237661Y13720252D01*
X74046259Y13911987D01*
X73796054Y14015882D01*
X73525135Y14016118D01*
X73274748Y13912661D01*
X73083013Y13721259D01*
X72979118Y13471054D01*
X72978882Y13200135D01*
X70530883Y13200135D01*
X70531118Y13469865D01*
X70427661Y13720252D01*
X70236259Y13911987D01*
X69986054Y14015882D01*
X69715135Y14016118D01*
X69464748Y13912661D01*
X69273013Y13721259D01*
X69169118Y13471054D01*
X69168882Y13200135D01*
X58606044Y13200135D01*
X58620164Y13209569D01*
X58876194Y13592746D01*
X58966100Y14044733D01*
X58966100Y15007787D01*
X58876194Y15459774D01*
X58620164Y15842951D01*
X58236987Y16098981D01*
X57785000Y16188887D01*
X57333013Y16098981D01*
X56949836Y15842951D01*
X56693806Y15459774D01*
X56603900Y15007787D01*
X49911000Y15007787D01*
X49911000Y16375135D01*
X69168882Y16375135D01*
X69272339Y16124748D01*
X69463741Y15933013D01*
X69713946Y15829118D01*
X69984865Y15828882D01*
X70235252Y15932339D01*
X70426987Y16123741D01*
X70530882Y16373946D01*
X70531118Y16644865D01*
X70427661Y16895252D01*
X70236259Y17086987D01*
X69986054Y17190882D01*
X69715135Y17191118D01*
X69464748Y17087661D01*
X69273013Y16896259D01*
X69169118Y16646054D01*
X69168882Y16375135D01*
X49911000Y16375135D01*
X49911000Y25900135D01*
X58373882Y25900135D01*
X58477339Y25649748D01*
X58668741Y25458013D01*
X58918946Y25354118D01*
X59189865Y25353882D01*
X59440252Y25457339D01*
X59631987Y25648741D01*
X59735882Y25898946D01*
X59736118Y26169865D01*
X59632661Y26420252D01*
X59441259Y26611987D01*
X59191054Y26715882D01*
X58920135Y26716118D01*
X58669748Y26612661D01*
X58478013Y26421259D01*
X58374118Y26171054D01*
X58373882Y25900135D01*
X49911000Y25900135D01*
X49911000Y29075135D01*
X65993882Y29075135D01*
X66097339Y28824748D01*
X66288741Y28633013D01*
X66538946Y28529118D01*
X66809865Y28528882D01*
X67060252Y28632339D01*
X67251987Y28823741D01*
X67355882Y29073946D01*
X67356118Y29344865D01*
X67252661Y29595252D01*
X67061259Y29786987D01*
X66811054Y29890882D01*
X66540135Y29891118D01*
X66289748Y29787661D01*
X66098013Y29596259D01*
X65994118Y29346054D01*
X65993882Y29075135D01*
X49911000Y29075135D01*
X49911000Y29710135D01*
X58373882Y29710135D01*
X58477339Y29459748D01*
X58668741Y29268013D01*
X58918946Y29164118D01*
X59189865Y29163882D01*
X59440252Y29267339D01*
X59631987Y29458741D01*
X59735882Y29708946D01*
X59736118Y29979865D01*
X59632661Y30230252D01*
X59441259Y30421987D01*
X59191054Y30525882D01*
X58920135Y30526118D01*
X58669748Y30422661D01*
X58478013Y30231259D01*
X58374118Y29981054D01*
X58373882Y29710135D01*
X49911000Y29710135D01*
X49911000Y30980135D01*
X59643882Y30980135D01*
X59747339Y30729748D01*
X59938741Y30538013D01*
X60188946Y30434118D01*
X60459865Y30433882D01*
X60710252Y30537339D01*
X60901987Y30728741D01*
X61005882Y30978946D01*
X61006118Y31249865D01*
X60902661Y31500252D01*
X60711259Y31691987D01*
X60461054Y31795882D01*
X60190135Y31796118D01*
X59939748Y31692661D01*
X59748013Y31501259D01*
X59644118Y31251054D01*
X59643882Y30980135D01*
X49911000Y30980135D01*
X49911000Y34155135D01*
X73613882Y34155135D01*
X73717339Y33904748D01*
X73908741Y33713013D01*
X74158946Y33609118D01*
X74429865Y33608882D01*
X74680252Y33712339D01*
X74871987Y33903741D01*
X74975882Y34153946D01*
X74976118Y34424865D01*
X74872661Y34675252D01*
X74681259Y34866987D01*
X74431054Y34970882D01*
X74160135Y34971118D01*
X73909748Y34867661D01*
X73718013Y34676259D01*
X73614118Y34426054D01*
X73613882Y34155135D01*
X49911000Y34155135D01*
X49911000Y34790135D01*
X56468882Y34790135D01*
X56572339Y34539748D01*
X56763741Y34348013D01*
X57013946Y34244118D01*
X57284865Y34243882D01*
X57535252Y34347339D01*
X57726987Y34538741D01*
X57830882Y34788946D01*
X57831118Y35059865D01*
X57727661Y35310252D01*
X57536259Y35501987D01*
X57286054Y35605882D01*
X57015135Y35606118D01*
X56764748Y35502661D01*
X56573013Y35311259D01*
X56469118Y35061054D01*
X56468882Y34790135D01*
X49911000Y34790135D01*
X49911000Y36695135D01*
X62818882Y36695135D01*
X62922339Y36444748D01*
X63113741Y36253013D01*
X63363946Y36149118D01*
X63634865Y36148882D01*
X63885252Y36252339D01*
X64076987Y36443741D01*
X64180882Y36693946D01*
X64181118Y36964865D01*
X64077661Y37215252D01*
X63886259Y37406987D01*
X63636054Y37510882D01*
X63365135Y37511118D01*
X63114748Y37407661D01*
X62923013Y37216259D01*
X62819118Y36966054D01*
X62818882Y36695135D01*
X49911000Y36695135D01*
X49911000Y40505135D01*
X52658882Y40505135D01*
X52762339Y40254748D01*
X52953741Y40063013D01*
X53203946Y39959118D01*
X53474865Y39958882D01*
X53725252Y40062339D01*
X53916987Y40253741D01*
X54020882Y40503946D01*
X54021118Y40774865D01*
X53917661Y41025252D01*
X53726259Y41216987D01*
X53476054Y41320882D01*
X53205135Y41321118D01*
X52954748Y41217661D01*
X52763013Y41026259D01*
X52659118Y40776054D01*
X52658882Y40505135D01*
X49911000Y40505135D01*
X49911000Y41775135D01*
X60913882Y41775135D01*
X61017339Y41524748D01*
X61208741Y41333013D01*
X61458946Y41229118D01*
X61729865Y41228882D01*
X61980252Y41332339D01*
X62171987Y41523741D01*
X62275882Y41773946D01*
X62276118Y42044865D01*
X62172661Y42295252D01*
X61981259Y42486987D01*
X61731054Y42590882D01*
X61460135Y42591118D01*
X61209748Y42487661D01*
X61018013Y42296259D01*
X60914118Y42046054D01*
X60913882Y41775135D01*
X49911000Y41775135D01*
X49911000Y42410135D01*
X55198882Y42410135D01*
X55302339Y42159748D01*
X55493741Y41968013D01*
X55743946Y41864118D01*
X56014865Y41863882D01*
X56265252Y41967339D01*
X56456987Y42158741D01*
X56560882Y42408946D01*
X56561118Y42679865D01*
X56457661Y42930252D01*
X56266259Y43121987D01*
X56016054Y43225882D01*
X55745135Y43226118D01*
X55494748Y43122661D01*
X55303013Y42931259D01*
X55199118Y42681054D01*
X55198882Y42410135D01*
X49911000Y42410135D01*
X49911000Y45585135D01*
X53928882Y45585135D01*
X54032339Y45334748D01*
X54223741Y45143013D01*
X54473946Y45039118D01*
X54744865Y45038882D01*
X54995252Y45142339D01*
X55186987Y45333741D01*
X55290882Y45583946D01*
X55290883Y45585135D01*
X56468882Y45585135D01*
X56572339Y45334748D01*
X56763741Y45143013D01*
X57013946Y45039118D01*
X57284865Y45038882D01*
X57535252Y45142339D01*
X57726987Y45333741D01*
X57830882Y45583946D01*
X57831118Y45854865D01*
X57727661Y46105252D01*
X57536259Y46296987D01*
X57286054Y46400882D01*
X57015135Y46401118D01*
X56764748Y46297661D01*
X56573013Y46106259D01*
X56469118Y45856054D01*
X56468882Y45585135D01*
X55290883Y45585135D01*
X55291118Y45854865D01*
X55187661Y46105252D01*
X54996259Y46296987D01*
X54746054Y46400882D01*
X54475135Y46401118D01*
X54224748Y46297661D01*
X54033013Y46106259D01*
X53929118Y45856054D01*
X53928882Y45585135D01*
X49911000Y45585135D01*
X49911000Y47490135D01*
X72978882Y47490135D01*
X73054403Y47307359D01*
X72979118Y47126054D01*
X72978882Y46855135D01*
X73054403Y46672359D01*
X72979118Y46491054D01*
X72978882Y46220135D01*
X73082339Y45969748D01*
X73273741Y45778013D01*
X73523946Y45674118D01*
X73794865Y45673882D01*
X74045252Y45777339D01*
X74236987Y45968741D01*
X74340882Y46218946D01*
X74341118Y46489865D01*
X74265597Y46672641D01*
X74340882Y46853946D01*
X74341118Y47124865D01*
X74265597Y47307641D01*
X74340882Y47488946D01*
X74340883Y47490135D01*
X75518882Y47490135D01*
X75594403Y47307359D01*
X75519118Y47126054D01*
X75518882Y46855135D01*
X75594403Y46672359D01*
X75519118Y46491054D01*
X75518882Y46220135D01*
X75622339Y45969748D01*
X75813741Y45778013D01*
X76063946Y45674118D01*
X76334865Y45673882D01*
X76585252Y45777339D01*
X76776987Y45968741D01*
X76880882Y46218946D01*
X76881118Y46489865D01*
X76805597Y46672641D01*
X76880882Y46853946D01*
X76881118Y47124865D01*
X76805597Y47307641D01*
X76880882Y47488946D01*
X76881118Y47759865D01*
X76777661Y48010252D01*
X76586259Y48201987D01*
X76336054Y48305882D01*
X76065135Y48306118D01*
X75814748Y48202661D01*
X75623013Y48011259D01*
X75519118Y47761054D01*
X75518882Y47490135D01*
X74340883Y47490135D01*
X74341118Y47759865D01*
X74237661Y48010252D01*
X74046259Y48201987D01*
X73796054Y48305882D01*
X73525135Y48306118D01*
X73274748Y48202661D01*
X73083013Y48011259D01*
X72979118Y47761054D01*
X72978882Y47490135D01*
X49911000Y47490135D01*
X49911000Y49403000D01*
X60504966Y49403000D01*
X60383013Y49281259D01*
G36*
X79544000Y50292000D02*
X20955000Y50292000D01*
X20905590Y50281994D01*
X20863965Y50253553D01*
X20836685Y50211159D01*
X20828000Y50165000D01*
X20828000Y20683163D01*
X20780739Y20797543D01*
X20280173Y21298983D01*
X19625817Y21570695D01*
X18917291Y21571314D01*
X18262462Y21300744D01*
X17761022Y20800178D01*
X17489310Y20145822D01*
X17488691Y19437296D01*
X17759261Y18782467D01*
X18259827Y18281027D01*
X18914183Y18009315D01*
X19622709Y18008696D01*
X20277538Y18279266D01*
X20778978Y18779832D01*
X20828000Y18897890D01*
X20828000Y15003163D01*
X20780739Y15117543D01*
X20280173Y15618983D01*
X19625817Y15890695D01*
X18917291Y15891314D01*
X18262462Y15620744D01*
X17761022Y15120178D01*
X17489310Y14465822D01*
X17488691Y13757296D01*
X17759261Y13102467D01*
X18259827Y12601027D01*
X18914183Y12329315D01*
X19622709Y12328696D01*
X20277538Y12599266D01*
X20778978Y13099832D01*
X20828000Y13217890D01*
X20828000Y456000D01*
X456000Y456000D01*
X456000Y13757296D01*
X4348691Y13757296D01*
X4619261Y13102467D01*
X5119827Y12601027D01*
X5774183Y12329315D01*
X6482709Y12328696D01*
X7137538Y12599266D01*
X7638978Y13099832D01*
X7910690Y13754188D01*
X7911309Y14462714D01*
X7640739Y15117543D01*
X7140173Y15618983D01*
X6485817Y15890695D01*
X5777291Y15891314D01*
X5122462Y15620744D01*
X4621022Y15120178D01*
X4349310Y14465822D01*
X4348691Y13757296D01*
X456000Y13757296D01*
X456000Y16603944D01*
X8108811Y16603944D01*
X8274556Y16202810D01*
X8581191Y15895639D01*
X8982035Y15729195D01*
X9416061Y15728816D01*
X9817195Y15894561D01*
X10124366Y16201196D01*
X10290810Y16602040D01*
X10290811Y16603944D01*
X10608811Y16603944D01*
X10774556Y16202810D01*
X11081191Y15895639D01*
X11482035Y15729195D01*
X11916061Y15728816D01*
X12317195Y15894561D01*
X12624366Y16201196D01*
X12699980Y16383297D01*
X12774556Y16202810D01*
X13081191Y15895639D01*
X13482035Y15729195D01*
X13916061Y15728816D01*
X14317195Y15894561D01*
X14624366Y16201196D01*
X14790810Y16602040D01*
X14791189Y17036066D01*
X14625444Y17437200D01*
X14318809Y17744371D01*
X13917965Y17910815D01*
X13483939Y17911194D01*
X13082805Y17745449D01*
X12775634Y17438814D01*
X12700020Y17256713D01*
X12625444Y17437200D01*
X12318809Y17744371D01*
X11917965Y17910815D01*
X11483939Y17911194D01*
X11082805Y17745449D01*
X10775634Y17438814D01*
X10609190Y17037970D01*
X10608811Y16603944D01*
X10290811Y16603944D01*
X10291189Y17036066D01*
X10125444Y17437200D01*
X9818809Y17744371D01*
X9417965Y17910815D01*
X8983939Y17911194D01*
X8582805Y17745449D01*
X8275634Y17438814D01*
X8109190Y17037970D01*
X8108811Y16603944D01*
X456000Y16603944D01*
X456000Y19437296D01*
X4348691Y19437296D01*
X4619261Y18782467D01*
X5119827Y18281027D01*
X5774183Y18009315D01*
X6482709Y18008696D01*
X7137538Y18279266D01*
X7638978Y18779832D01*
X7823389Y19223944D01*
X8108811Y19223944D01*
X8274556Y18822810D01*
X8581191Y18515639D01*
X8982035Y18349195D01*
X9416061Y18348816D01*
X9817195Y18514561D01*
X10124366Y18821196D01*
X10290810Y19222040D01*
X10290811Y19223944D01*
X10608811Y19223944D01*
X10774556Y18822810D01*
X11081191Y18515639D01*
X11482035Y18349195D01*
X11916061Y18348816D01*
X12317195Y18514561D01*
X12624366Y18821196D01*
X12699980Y19003297D01*
X12774556Y18822810D01*
X13081191Y18515639D01*
X13482035Y18349195D01*
X13916061Y18348816D01*
X14317195Y18514561D01*
X14624366Y18821196D01*
X14790810Y19222040D01*
X14791189Y19656066D01*
X14625444Y20057200D01*
X14318809Y20364371D01*
X13917965Y20530815D01*
X13483939Y20531194D01*
X13082805Y20365449D01*
X12775634Y20058814D01*
X12700020Y19876713D01*
X12625444Y20057200D01*
X12318809Y20364371D01*
X11917965Y20530815D01*
X11483939Y20531194D01*
X11082805Y20365449D01*
X10775634Y20058814D01*
X10609190Y19657970D01*
X10608811Y19223944D01*
X10290811Y19223944D01*
X10291189Y19656066D01*
X10125444Y20057200D01*
X9818809Y20364371D01*
X9417965Y20530815D01*
X8983939Y20531194D01*
X8582805Y20365449D01*
X8275634Y20058814D01*
X8109190Y19657970D01*
X8108811Y19223944D01*
X7823389Y19223944D01*
X7910690Y19434188D01*
X7911309Y20142714D01*
X7640739Y20797543D01*
X7140173Y21298983D01*
X6485817Y21570695D01*
X5777291Y21571314D01*
X5122462Y21300744D01*
X4621022Y20800178D01*
X4349310Y20145822D01*
X4348691Y19437296D01*
X456000Y19437296D01*
X456000Y34155135D01*
X15828882Y34155135D01*
X15932339Y33904748D01*
X16123741Y33713013D01*
X16373946Y33609118D01*
X16644865Y33608882D01*
X16895252Y33712339D01*
X17086987Y33903741D01*
X17190882Y34153946D01*
X17191118Y34424865D01*
X17087661Y34675252D01*
X16896259Y34866987D01*
X16646054Y34970882D01*
X16375135Y34971118D01*
X16124748Y34867661D01*
X15933013Y34676259D01*
X15829118Y34426054D01*
X15828882Y34155135D01*
X456000Y34155135D01*
X456000Y37330135D01*
X17733882Y37330135D01*
X17837339Y37079748D01*
X18028741Y36888013D01*
X18278946Y36784118D01*
X18549865Y36783882D01*
X18800252Y36887339D01*
X18991987Y37078741D01*
X19095882Y37328946D01*
X19096118Y37599865D01*
X18992661Y37850252D01*
X18801259Y38041987D01*
X18551054Y38145882D01*
X18280135Y38146118D01*
X18029748Y38042661D01*
X17838013Y37851259D01*
X17734118Y37601054D01*
X17733882Y37330135D01*
X456000Y37330135D01*
X456000Y38600135D01*
X16463882Y38600135D01*
X16567339Y38349748D01*
X16758741Y38158013D01*
X17008946Y38054118D01*
X17279865Y38053882D01*
X17530252Y38157339D01*
X17721987Y38348741D01*
X17825882Y38598946D01*
X17826118Y38869865D01*
X17722661Y39120252D01*
X17531259Y39311987D01*
X17281054Y39415882D01*
X17010135Y39416118D01*
X16759748Y39312661D01*
X16568013Y39121259D01*
X16464118Y38871054D01*
X16463882Y38600135D01*
X456000Y38600135D01*
X456000Y39235135D01*
X12018882Y39235135D01*
X12122339Y38984748D01*
X12313741Y38793013D01*
X12563946Y38689118D01*
X12834865Y38688882D01*
X13085252Y38792339D01*
X13276987Y38983741D01*
X13380882Y39233946D01*
X13381118Y39504865D01*
X13277661Y39755252D01*
X13086259Y39946987D01*
X12836054Y40050882D01*
X12565135Y40051118D01*
X12314748Y39947661D01*
X12123013Y39756259D01*
X12019118Y39506054D01*
X12018882Y39235135D01*
X456000Y39235135D01*
X456000Y43680135D01*
X17733882Y43680135D01*
X17837339Y43429748D01*
X18028741Y43238013D01*
X18278946Y43134118D01*
X18549865Y43133882D01*
X18800252Y43237339D01*
X18991987Y43428741D01*
X19095882Y43678946D01*
X19096118Y43949865D01*
X18992661Y44200252D01*
X18801259Y44391987D01*
X18551054Y44495882D01*
X18280135Y44496118D01*
X18029748Y44392661D01*
X17838013Y44201259D01*
X17734118Y43951054D01*
X17733882Y43680135D01*
X456000Y43680135D01*
X456000Y44950135D01*
X16463882Y44950135D01*
X16567339Y44699748D01*
X16758741Y44508013D01*
X17008946Y44404118D01*
X17279865Y44403882D01*
X17530252Y44507339D01*
X17721987Y44698741D01*
X17825882Y44948946D01*
X17826118Y45219865D01*
X17722661Y45470252D01*
X17531259Y45661987D01*
X17281054Y45765882D01*
X17010135Y45766118D01*
X16759748Y45662661D01*
X16568013Y45471259D01*
X16464118Y45221054D01*
X16463882Y44950135D01*
X456000Y44950135D01*
X456000Y45585135D01*
X12018882Y45585135D01*
X12122339Y45334748D01*
X12313741Y45143013D01*
X12563946Y45039118D01*
X12834865Y45038882D01*
X13085252Y45142339D01*
X13276987Y45333741D01*
X13380882Y45583946D01*
X13381118Y45854865D01*
X13277661Y46105252D01*
X13086259Y46296987D01*
X12836054Y46400882D01*
X12565135Y46401118D01*
X12314748Y46297661D01*
X12123013Y46106259D01*
X12019118Y45856054D01*
X12018882Y45585135D01*
X456000Y45585135D01*
X456000Y47490135D01*
X15193882Y47490135D01*
X15297339Y47239748D01*
X15488741Y47048013D01*
X15738946Y46944118D01*
X16009865Y46943882D01*
X16260252Y47047339D01*
X16451987Y47238741D01*
X16555882Y47488946D01*
X16556118Y47759865D01*
X16452661Y48010252D01*
X16261259Y48201987D01*
X16011054Y48305882D01*
X15740135Y48306118D01*
X15489748Y48202661D01*
X15298013Y48011259D01*
X15194118Y47761054D01*
X15193882Y47490135D01*
X456000Y47490135D01*
X456000Y48760135D01*
X5668882Y48760135D01*
X5772339Y48509748D01*
X5963741Y48318013D01*
X6213946Y48214118D01*
X6484865Y48213882D01*
X6667641Y48289403D01*
X6848946Y48214118D01*
X7119865Y48213882D01*
X7302641Y48289403D01*
X7483946Y48214118D01*
X7754865Y48213882D01*
X8005252Y48317339D01*
X8196987Y48508741D01*
X8300882Y48758946D01*
X8301118Y49029865D01*
X8197661Y49280252D01*
X8006259Y49471987D01*
X7756054Y49575882D01*
X7485135Y49576118D01*
X7302359Y49500597D01*
X7121054Y49575882D01*
X6850135Y49576118D01*
X6667359Y49500597D01*
X6486054Y49575882D01*
X6215135Y49576118D01*
X5964748Y49472661D01*
X5773013Y49281259D01*
X5669118Y49031054D01*
X5668882Y48760135D01*
X456000Y48760135D01*
X456000Y51300135D01*
X5668882Y51300135D01*
X5772339Y51049748D01*
X5963741Y50858013D01*
X6213946Y50754118D01*
X6484865Y50753882D01*
X6667641Y50829403D01*
X6848946Y50754118D01*
X7119865Y50753882D01*
X7302641Y50829403D01*
X7483946Y50754118D01*
X7754865Y50753882D01*
X8005252Y50857339D01*
X8196987Y51048741D01*
X8300882Y51298946D01*
X8300883Y51300135D01*
X14558882Y51300135D01*
X14662339Y51049748D01*
X14853741Y50858013D01*
X15103946Y50754118D01*
X15374865Y50753882D01*
X15625252Y50857339D01*
X15816987Y51048741D01*
X15920882Y51298946D01*
X15921118Y51569865D01*
X15817661Y51820252D01*
X15626259Y52011987D01*
X15376054Y52115882D01*
X15105135Y52116118D01*
X14854748Y52012661D01*
X14663013Y51821259D01*
X14559118Y51571054D01*
X14558882Y51300135D01*
X8300883Y51300135D01*
X8301118Y51569865D01*
X8197661Y51820252D01*
X8006259Y52011987D01*
X7756054Y52115882D01*
X7485135Y52116118D01*
X7302359Y52040597D01*
X7121054Y52115882D01*
X6850135Y52116118D01*
X6667359Y52040597D01*
X6486054Y52115882D01*
X6215135Y52116118D01*
X5964748Y52012661D01*
X5773013Y51821259D01*
X5669118Y51571054D01*
X5668882Y51300135D01*
X456000Y51300135D01*
X456000Y52814536D01*
X14558882Y52814536D01*
X14662339Y52564149D01*
X14853741Y52372414D01*
X15103946Y52268519D01*
X15374865Y52268283D01*
X15625252Y52371740D01*
X15816987Y52563142D01*
X15819890Y52570135D01*
X27893882Y52570135D01*
X27997339Y52319748D01*
X28188741Y52128013D01*
X28438946Y52024118D01*
X28709865Y52023882D01*
X28960252Y52127339D01*
X29151987Y52318741D01*
X29255882Y52568946D01*
X29255883Y52570135D01*
X48848882Y52570135D01*
X48952339Y52319748D01*
X49143741Y52128013D01*
X49393946Y52024118D01*
X49664865Y52023882D01*
X49915252Y52127339D01*
X50106987Y52318741D01*
X50210882Y52568946D01*
X50210883Y52570135D01*
X55833882Y52570135D01*
X55937339Y52319748D01*
X56128741Y52128013D01*
X56378946Y52024118D01*
X56649865Y52023882D01*
X56900252Y52127339D01*
X57091987Y52318741D01*
X57195882Y52568946D01*
X57196118Y52839865D01*
X57092661Y53090252D01*
X56901259Y53281987D01*
X56651054Y53385882D01*
X56380135Y53386118D01*
X56129748Y53282661D01*
X55938013Y53091259D01*
X55834118Y52841054D01*
X55833882Y52570135D01*
X50210883Y52570135D01*
X50211118Y52839865D01*
X50107661Y53090252D01*
X49916259Y53281987D01*
X49666054Y53385882D01*
X49395135Y53386118D01*
X49144748Y53282661D01*
X48953013Y53091259D01*
X48849118Y52841054D01*
X48848882Y52570135D01*
X29255883Y52570135D01*
X29256118Y52839865D01*
X29152661Y53090252D01*
X28961259Y53281987D01*
X28711054Y53385882D01*
X28440135Y53386118D01*
X28189748Y53282661D01*
X27998013Y53091259D01*
X27894118Y52841054D01*
X27893882Y52570135D01*
X15819890Y52570135D01*
X15920882Y52813347D01*
X15921118Y53084266D01*
X15885017Y53171638D01*
X17582982Y53171638D01*
X17686439Y52921251D01*
X17877841Y52729516D01*
X18128046Y52625621D01*
X18398965Y52625385D01*
X18649352Y52728842D01*
X18677754Y52757194D01*
X18913946Y52659118D01*
X19184865Y52658882D01*
X19435252Y52762339D01*
X19626987Y52953741D01*
X19730882Y53203946D01*
X19730883Y53205135D01*
X23448882Y53205135D01*
X23552339Y52954748D01*
X23743741Y52763013D01*
X23993946Y52659118D01*
X24264865Y52658882D01*
X24515252Y52762339D01*
X24706987Y52953741D01*
X24765014Y53093485D01*
X24822339Y52954748D01*
X25013741Y52763013D01*
X25263946Y52659118D01*
X25534865Y52658882D01*
X25785252Y52762339D01*
X25976987Y52953741D01*
X26035014Y53093485D01*
X26092339Y52954748D01*
X26283741Y52763013D01*
X26533946Y52659118D01*
X26804865Y52658882D01*
X27055252Y52762339D01*
X27246987Y52953741D01*
X27350882Y53203946D01*
X27351118Y53474865D01*
X27247661Y53725252D01*
X27132978Y53840135D01*
X53293882Y53840135D01*
X53397339Y53589748D01*
X53588741Y53398013D01*
X53838946Y53294118D01*
X53928959Y53294040D01*
X53928882Y53205135D01*
X54032339Y52954748D01*
X54223741Y52763013D01*
X54473946Y52659118D01*
X54744865Y52658882D01*
X54995252Y52762339D01*
X55186987Y52953741D01*
X55290882Y53203946D01*
X55291118Y53474865D01*
X55187661Y53725252D01*
X54996259Y53916987D01*
X54746054Y54020882D01*
X54656041Y54020960D01*
X54656118Y54109865D01*
X54552661Y54360252D01*
X54361259Y54551987D01*
X54111054Y54655882D01*
X53840135Y54656118D01*
X53589748Y54552661D01*
X53398013Y54361259D01*
X53294118Y54111054D01*
X53293882Y53840135D01*
X27132978Y53840135D01*
X27056259Y53916987D01*
X26806054Y54020882D01*
X26535135Y54021118D01*
X26284748Y53917661D01*
X26093013Y53726259D01*
X26034986Y53586515D01*
X25977661Y53725252D01*
X25786259Y53916987D01*
X25536054Y54020882D01*
X25265135Y54021118D01*
X25014748Y53917661D01*
X24823013Y53726259D01*
X24764986Y53586515D01*
X24707661Y53725252D01*
X24516259Y53916987D01*
X24266054Y54020882D01*
X23995135Y54021118D01*
X23744748Y53917661D01*
X23553013Y53726259D01*
X23449118Y53476054D01*
X23448882Y53205135D01*
X19730883Y53205135D01*
X19731118Y53474865D01*
X19627661Y53725252D01*
X19436259Y53916987D01*
X19186054Y54020882D01*
X18915135Y54021118D01*
X18664748Y53917661D01*
X18636346Y53889309D01*
X18400154Y53987385D01*
X18129235Y53987621D01*
X17878848Y53884164D01*
X17687113Y53692762D01*
X17583218Y53442557D01*
X17582982Y53171638D01*
X15885017Y53171638D01*
X15817661Y53334653D01*
X15626259Y53526388D01*
X15376054Y53630283D01*
X15105135Y53630519D01*
X14854748Y53527062D01*
X14663013Y53335660D01*
X14559118Y53085455D01*
X14558882Y52814536D01*
X456000Y52814536D01*
X456000Y54475135D01*
X20273882Y54475135D01*
X20377339Y54224748D01*
X20568741Y54033013D01*
X20818946Y53929118D01*
X21089865Y53928882D01*
X21340252Y54032339D01*
X21531987Y54223741D01*
X21635882Y54473946D01*
X21636118Y54744865D01*
X21532661Y54995252D01*
X21341259Y55186987D01*
X21091054Y55290882D01*
X20820135Y55291118D01*
X20569748Y55187661D01*
X20378013Y54996259D01*
X20274118Y54746054D01*
X20273882Y54475135D01*
X456000Y54475135D01*
X456000Y56242460D01*
X19577912Y56242460D01*
X19681369Y55992073D01*
X19872771Y55800338D01*
X20122976Y55696443D01*
X20393895Y55696207D01*
X20644282Y55799664D01*
X20836017Y55991066D01*
X20939912Y56241271D01*
X20940148Y56512190D01*
X20836691Y56762577D01*
X20645289Y56954312D01*
X20498813Y57015135D01*
X22813882Y57015135D01*
X22917339Y56764748D01*
X23108741Y56573013D01*
X23358946Y56469118D01*
X23629865Y56468882D01*
X23880252Y56572339D01*
X24071987Y56763741D01*
X24175882Y57013946D01*
X24175960Y57103959D01*
X24264865Y57103882D01*
X24515252Y57207339D01*
X24706987Y57398741D01*
X24810882Y57648946D01*
X24810883Y57650135D01*
X50118882Y57650135D01*
X50222339Y57399748D01*
X50413741Y57208013D01*
X50663946Y57104118D01*
X50934865Y57103882D01*
X51185252Y57207339D01*
X51376987Y57398741D01*
X51480882Y57648946D01*
X51480883Y57650135D01*
X53928882Y57650135D01*
X54032339Y57399748D01*
X54223741Y57208013D01*
X54473946Y57104118D01*
X54744865Y57103882D01*
X54995252Y57207339D01*
X55186987Y57398741D01*
X55290882Y57648946D01*
X55291118Y57919865D01*
X55187661Y58170252D01*
X54996259Y58361987D01*
X54746054Y58465882D01*
X54475135Y58466118D01*
X54224748Y58362661D01*
X54033013Y58171259D01*
X53929118Y57921054D01*
X53928882Y57650135D01*
X51480883Y57650135D01*
X51481118Y57919865D01*
X51377661Y58170252D01*
X51186259Y58361987D01*
X50936054Y58465882D01*
X50665135Y58466118D01*
X50414748Y58362661D01*
X50223013Y58171259D01*
X50119118Y57921054D01*
X50118882Y57650135D01*
X24810883Y57650135D01*
X24811118Y57919865D01*
X24707661Y58170252D01*
X24588186Y58289935D01*
X24718882Y58289935D01*
X24822339Y58039548D01*
X25013741Y57847813D01*
X25263946Y57743918D01*
X25534865Y57743682D01*
X25785252Y57847139D01*
X25976987Y58038541D01*
X26034020Y58175891D01*
X26092339Y58034748D01*
X26283741Y57843013D01*
X26533946Y57739118D01*
X26804865Y57738882D01*
X27055252Y57842339D01*
X27246987Y58033741D01*
X27350882Y58283946D01*
X27351085Y58516674D01*
X27563252Y58604339D01*
X27754987Y58795741D01*
X27806640Y58920135D01*
X62818882Y58920135D01*
X62922339Y58669748D01*
X63113741Y58478013D01*
X63363946Y58374118D01*
X63634865Y58373882D01*
X63885252Y58477339D01*
X64076987Y58668741D01*
X64180882Y58918946D01*
X64181118Y59189865D01*
X64077661Y59440252D01*
X63886259Y59631987D01*
X63636054Y59735882D01*
X63365135Y59736118D01*
X63114748Y59632661D01*
X62923013Y59441259D01*
X62819118Y59191054D01*
X62818882Y58920135D01*
X27806640Y58920135D01*
X27858882Y59045946D01*
X27859071Y59263070D01*
X28074865Y59262882D01*
X28325252Y59366339D01*
X28516987Y59557741D01*
X28620882Y59807946D01*
X28621118Y60078865D01*
X28517661Y60329252D01*
X28326259Y60520987D01*
X28076054Y60624882D01*
X27805135Y60625118D01*
X27554748Y60521661D01*
X27363013Y60330259D01*
X27259118Y60080054D01*
X27258929Y59862930D01*
X27043135Y59863118D01*
X26792748Y59759661D01*
X26601013Y59568259D01*
X26497118Y59318054D01*
X26496915Y59085326D01*
X26284748Y58997661D01*
X26093013Y58806259D01*
X26035980Y58668909D01*
X25977661Y58810052D01*
X25786259Y59001787D01*
X25536054Y59105682D01*
X25265135Y59105918D01*
X25014748Y59002461D01*
X24823013Y58811059D01*
X24719118Y58560854D01*
X24718882Y58289935D01*
X24588186Y58289935D01*
X24516259Y58361987D01*
X24266054Y58465882D01*
X23995135Y58466118D01*
X23744748Y58362661D01*
X23553013Y58171259D01*
X23449118Y57921054D01*
X23449040Y57831041D01*
X23360135Y57831118D01*
X23109748Y57727661D01*
X22918013Y57536259D01*
X22814118Y57286054D01*
X22813882Y57015135D01*
X20498813Y57015135D01*
X20395084Y57058207D01*
X20124165Y57058443D01*
X19873778Y56954986D01*
X19682043Y56763584D01*
X19578148Y56513379D01*
X19577912Y56242460D01*
X456000Y56242460D01*
X456000Y62730135D01*
X16316930Y62730135D01*
X16420387Y62479748D01*
X16611789Y62288013D01*
X16861994Y62184118D01*
X17132913Y62183882D01*
X17383300Y62287339D01*
X17575035Y62478741D01*
X17678930Y62728946D01*
X17679166Y62999865D01*
X17575709Y63250252D01*
X17384307Y63441987D01*
X17134102Y63545882D01*
X16863183Y63546118D01*
X16612796Y63442661D01*
X16421061Y63251259D01*
X16317166Y63001054D01*
X16316930Y62730135D01*
X456000Y62730135D01*
X456000Y66555000D01*
X3541536Y66555000D01*
X3541536Y64255000D01*
X3568103Y64113810D01*
X3651546Y63984135D01*
X3778866Y63897141D01*
X3930000Y63866536D01*
X6230000Y63866536D01*
X6371190Y63893103D01*
X6500865Y63976546D01*
X6587859Y64103866D01*
X6618464Y64255000D01*
X6618464Y64636240D01*
X20189932Y64636240D01*
X20293389Y64385853D01*
X20484791Y64194118D01*
X20734996Y64090223D01*
X21005915Y64089987D01*
X21256302Y64193444D01*
X21448037Y64384846D01*
X21547914Y64625376D01*
X21647339Y64384748D01*
X21838741Y64193013D01*
X22088946Y64089118D01*
X22359865Y64088882D01*
X22610252Y64192339D01*
X22801987Y64383741D01*
X22905882Y64633946D01*
X22905883Y64635135D01*
X34878882Y64635135D01*
X34982339Y64384748D01*
X35173741Y64193013D01*
X35423946Y64089118D01*
X35694865Y64088882D01*
X35787445Y64127135D01*
X36402882Y64127135D01*
X36506339Y63876748D01*
X36697741Y63685013D01*
X36947946Y63581118D01*
X37218865Y63580882D01*
X37469252Y63684339D01*
X37660987Y63875741D01*
X37764882Y64125946D01*
X37765118Y64396865D01*
X37661661Y64647252D01*
X37470259Y64838987D01*
X37220054Y64942882D01*
X36949135Y64943118D01*
X36698748Y64839661D01*
X36507013Y64648259D01*
X36403118Y64398054D01*
X36402882Y64127135D01*
X35787445Y64127135D01*
X35945252Y64192339D01*
X36136987Y64383741D01*
X36240882Y64633946D01*
X36241118Y64904865D01*
X36137661Y65155252D01*
X35946259Y65346987D01*
X35696054Y65450882D01*
X35425135Y65451118D01*
X35174748Y65347661D01*
X34983013Y65156259D01*
X34879118Y64906054D01*
X34878882Y64635135D01*
X22905883Y64635135D01*
X22906118Y64904865D01*
X22802661Y65155252D01*
X22611259Y65346987D01*
X22361054Y65450882D01*
X22090135Y65451118D01*
X21839748Y65347661D01*
X21648013Y65156259D01*
X21548136Y64915729D01*
X21448711Y65156357D01*
X21257309Y65348092D01*
X21007104Y65451987D01*
X20736185Y65452223D01*
X20485798Y65348766D01*
X20294063Y65157364D01*
X20190168Y64907159D01*
X20189932Y64636240D01*
X6618464Y64636240D01*
X6618464Y65584263D01*
X36759534Y65584263D01*
X36862991Y65333876D01*
X37054393Y65142141D01*
X37304598Y65038246D01*
X37575517Y65038010D01*
X37825904Y65141467D01*
X38017639Y65332869D01*
X38121534Y65583074D01*
X38121770Y65853993D01*
X38018313Y66104380D01*
X37826911Y66296115D01*
X37576706Y66400010D01*
X37305787Y66400246D01*
X37055400Y66296789D01*
X36863665Y66105387D01*
X36759770Y65855182D01*
X36759534Y65584263D01*
X6618464Y65584263D01*
X6618464Y66540135D01*
X21543882Y66540135D01*
X21647339Y66289748D01*
X21838741Y66098013D01*
X22088946Y65994118D01*
X22359865Y65993882D01*
X22610252Y66097339D01*
X22801987Y66288741D01*
X22905882Y66538946D01*
X22906118Y66809865D01*
X22802661Y67060252D01*
X22611259Y67251987D01*
X22361054Y67355882D01*
X22090135Y67356118D01*
X21839748Y67252661D01*
X21648013Y67061259D01*
X21544118Y66811054D01*
X21543882Y66540135D01*
X6618464Y66540135D01*
X6618464Y66555000D01*
X6591897Y66696190D01*
X6508454Y66825865D01*
X6381134Y66912859D01*
X6230000Y66943464D01*
X3930000Y66943464D01*
X3788810Y66916897D01*
X3659135Y66833454D01*
X3572141Y66706134D01*
X3541536Y66555000D01*
X456000Y66555000D01*
X456000Y68160000D01*
X32416536Y68160000D01*
X32416536Y66460000D01*
X32443103Y66318810D01*
X32526546Y66189135D01*
X32653866Y66102141D01*
X32805000Y66071536D01*
X34505000Y66071536D01*
X34646190Y66098103D01*
X34775865Y66181546D01*
X34862859Y66308866D01*
X34893464Y66460000D01*
X34893464Y67334117D01*
X34964000Y67334117D01*
X34964000Y67285883D01*
X35057704Y66814800D01*
X35324552Y66415435D01*
X35723917Y66148587D01*
X36195000Y66054883D01*
X36666083Y66148587D01*
X37065448Y66415435D01*
X37332296Y66814800D01*
X37426000Y67285883D01*
X37426000Y67334117D01*
X40044000Y67334117D01*
X40044000Y67285883D01*
X40137704Y66814800D01*
X40404552Y66415435D01*
X40803917Y66148587D01*
X41275000Y66054883D01*
X41746083Y66148587D01*
X42145448Y66415435D01*
X42412296Y66814800D01*
X42506000Y67285883D01*
X42506000Y67334117D01*
X42584000Y67334117D01*
X42584000Y67285883D01*
X42677704Y66814800D01*
X42944552Y66415435D01*
X43343917Y66148587D01*
X43815000Y66054883D01*
X44286083Y66148587D01*
X44685448Y66415435D01*
X44952296Y66814800D01*
X45046000Y67285883D01*
X45046000Y67334117D01*
X45124000Y67334117D01*
X45124000Y67285883D01*
X45217704Y66814800D01*
X45484552Y66415435D01*
X45883917Y66148587D01*
X46355000Y66054883D01*
X46826083Y66148587D01*
X47225448Y66415435D01*
X47492296Y66814800D01*
X47586000Y67285883D01*
X47586000Y67334117D01*
X47492296Y67805200D01*
X47488999Y67810135D01*
X75518882Y67810135D01*
X75622339Y67559748D01*
X75813741Y67368013D01*
X76063946Y67264118D01*
X76334865Y67263882D01*
X76585252Y67367339D01*
X76776987Y67558741D01*
X76880882Y67808946D01*
X76881118Y68079865D01*
X76777661Y68330252D01*
X76586259Y68521987D01*
X76336054Y68625882D01*
X76065135Y68626118D01*
X75814748Y68522661D01*
X75623013Y68331259D01*
X75519118Y68081054D01*
X75518882Y67810135D01*
X47488999Y67810135D01*
X47225448Y68204565D01*
X46826083Y68471413D01*
X46355000Y68565117D01*
X45883917Y68471413D01*
X45484552Y68204565D01*
X45217704Y67805200D01*
X45124000Y67334117D01*
X45046000Y67334117D01*
X44952296Y67805200D01*
X44685448Y68204565D01*
X44286083Y68471413D01*
X43815000Y68565117D01*
X43343917Y68471413D01*
X42944552Y68204565D01*
X42677704Y67805200D01*
X42584000Y67334117D01*
X42506000Y67334117D01*
X42412296Y67805200D01*
X42145448Y68204565D01*
X41746083Y68471413D01*
X41275000Y68565117D01*
X40803917Y68471413D01*
X40404552Y68204565D01*
X40137704Y67805200D01*
X40044000Y67334117D01*
X37426000Y67334117D01*
X37332296Y67805200D01*
X37065448Y68204565D01*
X36666083Y68471413D01*
X36195000Y68565117D01*
X35723917Y68471413D01*
X35324552Y68204565D01*
X35057704Y67805200D01*
X34964000Y67334117D01*
X34893464Y67334117D01*
X34893464Y68160000D01*
X34866897Y68301190D01*
X34783454Y68430865D01*
X34656134Y68517859D01*
X34505000Y68548464D01*
X32805000Y68548464D01*
X32663810Y68521897D01*
X32534135Y68438454D01*
X32447141Y68311134D01*
X32416536Y68160000D01*
X456000Y68160000D01*
X456000Y71544000D01*
X79544000Y71544000D01*
X79544000Y50292000D01*
X79544000Y50292000D01*
G37*
X79544000Y50292000D02*
X20955000Y50292000D01*
X20905590Y50281994D01*
X20863965Y50253553D01*
X20836685Y50211159D01*
X20828000Y50165000D01*
X20828000Y20683163D01*
X20780739Y20797543D01*
X20280173Y21298983D01*
X19625817Y21570695D01*
X18917291Y21571314D01*
X18262462Y21300744D01*
X17761022Y20800178D01*
X17489310Y20145822D01*
X17488691Y19437296D01*
X17759261Y18782467D01*
X18259827Y18281027D01*
X18914183Y18009315D01*
X19622709Y18008696D01*
X20277538Y18279266D01*
X20778978Y18779832D01*
X20828000Y18897890D01*
X20828000Y15003163D01*
X20780739Y15117543D01*
X20280173Y15618983D01*
X19625817Y15890695D01*
X18917291Y15891314D01*
X18262462Y15620744D01*
X17761022Y15120178D01*
X17489310Y14465822D01*
X17488691Y13757296D01*
X17759261Y13102467D01*
X18259827Y12601027D01*
X18914183Y12329315D01*
X19622709Y12328696D01*
X20277538Y12599266D01*
X20778978Y13099832D01*
X20828000Y13217890D01*
X20828000Y456000D01*
X456000Y456000D01*
X456000Y13757296D01*
X4348691Y13757296D01*
X4619261Y13102467D01*
X5119827Y12601027D01*
X5774183Y12329315D01*
X6482709Y12328696D01*
X7137538Y12599266D01*
X7638978Y13099832D01*
X7910690Y13754188D01*
X7911309Y14462714D01*
X7640739Y15117543D01*
X7140173Y15618983D01*
X6485817Y15890695D01*
X5777291Y15891314D01*
X5122462Y15620744D01*
X4621022Y15120178D01*
X4349310Y14465822D01*
X4348691Y13757296D01*
X456000Y13757296D01*
X456000Y16603944D01*
X8108811Y16603944D01*
X8274556Y16202810D01*
X8581191Y15895639D01*
X8982035Y15729195D01*
X9416061Y15728816D01*
X9817195Y15894561D01*
X10124366Y16201196D01*
X10290810Y16602040D01*
X10290811Y16603944D01*
X10608811Y16603944D01*
X10774556Y16202810D01*
X11081191Y15895639D01*
X11482035Y15729195D01*
X11916061Y15728816D01*
X12317195Y15894561D01*
X12624366Y16201196D01*
X12699980Y16383297D01*
X12774556Y16202810D01*
X13081191Y15895639D01*
X13482035Y15729195D01*
X13916061Y15728816D01*
X14317195Y15894561D01*
X14624366Y16201196D01*
X14790810Y16602040D01*
X14791189Y17036066D01*
X14625444Y17437200D01*
X14318809Y17744371D01*
X13917965Y17910815D01*
X13483939Y17911194D01*
X13082805Y17745449D01*
X12775634Y17438814D01*
X12700020Y17256713D01*
X12625444Y17437200D01*
X12318809Y17744371D01*
X11917965Y17910815D01*
X11483939Y17911194D01*
X11082805Y17745449D01*
X10775634Y17438814D01*
X10609190Y17037970D01*
X10608811Y16603944D01*
X10290811Y16603944D01*
X10291189Y17036066D01*
X10125444Y17437200D01*
X9818809Y17744371D01*
X9417965Y17910815D01*
X8983939Y17911194D01*
X8582805Y17745449D01*
X8275634Y17438814D01*
X8109190Y17037970D01*
X8108811Y16603944D01*
X456000Y16603944D01*
X456000Y19437296D01*
X4348691Y19437296D01*
X4619261Y18782467D01*
X5119827Y18281027D01*
X5774183Y18009315D01*
X6482709Y18008696D01*
X7137538Y18279266D01*
X7638978Y18779832D01*
X7823389Y19223944D01*
X8108811Y19223944D01*
X8274556Y18822810D01*
X8581191Y18515639D01*
X8982035Y18349195D01*
X9416061Y18348816D01*
X9817195Y18514561D01*
X10124366Y18821196D01*
X10290810Y19222040D01*
X10290811Y19223944D01*
X10608811Y19223944D01*
X10774556Y18822810D01*
X11081191Y18515639D01*
X11482035Y18349195D01*
X11916061Y18348816D01*
X12317195Y18514561D01*
X12624366Y18821196D01*
X12699980Y19003297D01*
X12774556Y18822810D01*
X13081191Y18515639D01*
X13482035Y18349195D01*
X13916061Y18348816D01*
X14317195Y18514561D01*
X14624366Y18821196D01*
X14790810Y19222040D01*
X14791189Y19656066D01*
X14625444Y20057200D01*
X14318809Y20364371D01*
X13917965Y20530815D01*
X13483939Y20531194D01*
X13082805Y20365449D01*
X12775634Y20058814D01*
X12700020Y19876713D01*
X12625444Y20057200D01*
X12318809Y20364371D01*
X11917965Y20530815D01*
X11483939Y20531194D01*
X11082805Y20365449D01*
X10775634Y20058814D01*
X10609190Y19657970D01*
X10608811Y19223944D01*
X10290811Y19223944D01*
X10291189Y19656066D01*
X10125444Y20057200D01*
X9818809Y20364371D01*
X9417965Y20530815D01*
X8983939Y20531194D01*
X8582805Y20365449D01*
X8275634Y20058814D01*
X8109190Y19657970D01*
X8108811Y19223944D01*
X7823389Y19223944D01*
X7910690Y19434188D01*
X7911309Y20142714D01*
X7640739Y20797543D01*
X7140173Y21298983D01*
X6485817Y21570695D01*
X5777291Y21571314D01*
X5122462Y21300744D01*
X4621022Y20800178D01*
X4349310Y20145822D01*
X4348691Y19437296D01*
X456000Y19437296D01*
X456000Y34155135D01*
X15828882Y34155135D01*
X15932339Y33904748D01*
X16123741Y33713013D01*
X16373946Y33609118D01*
X16644865Y33608882D01*
X16895252Y33712339D01*
X17086987Y33903741D01*
X17190882Y34153946D01*
X17191118Y34424865D01*
X17087661Y34675252D01*
X16896259Y34866987D01*
X16646054Y34970882D01*
X16375135Y34971118D01*
X16124748Y34867661D01*
X15933013Y34676259D01*
X15829118Y34426054D01*
X15828882Y34155135D01*
X456000Y34155135D01*
X456000Y37330135D01*
X17733882Y37330135D01*
X17837339Y37079748D01*
X18028741Y36888013D01*
X18278946Y36784118D01*
X18549865Y36783882D01*
X18800252Y36887339D01*
X18991987Y37078741D01*
X19095882Y37328946D01*
X19096118Y37599865D01*
X18992661Y37850252D01*
X18801259Y38041987D01*
X18551054Y38145882D01*
X18280135Y38146118D01*
X18029748Y38042661D01*
X17838013Y37851259D01*
X17734118Y37601054D01*
X17733882Y37330135D01*
X456000Y37330135D01*
X456000Y38600135D01*
X16463882Y38600135D01*
X16567339Y38349748D01*
X16758741Y38158013D01*
X17008946Y38054118D01*
X17279865Y38053882D01*
X17530252Y38157339D01*
X17721987Y38348741D01*
X17825882Y38598946D01*
X17826118Y38869865D01*
X17722661Y39120252D01*
X17531259Y39311987D01*
X17281054Y39415882D01*
X17010135Y39416118D01*
X16759748Y39312661D01*
X16568013Y39121259D01*
X16464118Y38871054D01*
X16463882Y38600135D01*
X456000Y38600135D01*
X456000Y39235135D01*
X12018882Y39235135D01*
X12122339Y38984748D01*
X12313741Y38793013D01*
X12563946Y38689118D01*
X12834865Y38688882D01*
X13085252Y38792339D01*
X13276987Y38983741D01*
X13380882Y39233946D01*
X13381118Y39504865D01*
X13277661Y39755252D01*
X13086259Y39946987D01*
X12836054Y40050882D01*
X12565135Y40051118D01*
X12314748Y39947661D01*
X12123013Y39756259D01*
X12019118Y39506054D01*
X12018882Y39235135D01*
X456000Y39235135D01*
X456000Y43680135D01*
X17733882Y43680135D01*
X17837339Y43429748D01*
X18028741Y43238013D01*
X18278946Y43134118D01*
X18549865Y43133882D01*
X18800252Y43237339D01*
X18991987Y43428741D01*
X19095882Y43678946D01*
X19096118Y43949865D01*
X18992661Y44200252D01*
X18801259Y44391987D01*
X18551054Y44495882D01*
X18280135Y44496118D01*
X18029748Y44392661D01*
X17838013Y44201259D01*
X17734118Y43951054D01*
X17733882Y43680135D01*
X456000Y43680135D01*
X456000Y44950135D01*
X16463882Y44950135D01*
X16567339Y44699748D01*
X16758741Y44508013D01*
X17008946Y44404118D01*
X17279865Y44403882D01*
X17530252Y44507339D01*
X17721987Y44698741D01*
X17825882Y44948946D01*
X17826118Y45219865D01*
X17722661Y45470252D01*
X17531259Y45661987D01*
X17281054Y45765882D01*
X17010135Y45766118D01*
X16759748Y45662661D01*
X16568013Y45471259D01*
X16464118Y45221054D01*
X16463882Y44950135D01*
X456000Y44950135D01*
X456000Y45585135D01*
X12018882Y45585135D01*
X12122339Y45334748D01*
X12313741Y45143013D01*
X12563946Y45039118D01*
X12834865Y45038882D01*
X13085252Y45142339D01*
X13276987Y45333741D01*
X13380882Y45583946D01*
X13381118Y45854865D01*
X13277661Y46105252D01*
X13086259Y46296987D01*
X12836054Y46400882D01*
X12565135Y46401118D01*
X12314748Y46297661D01*
X12123013Y46106259D01*
X12019118Y45856054D01*
X12018882Y45585135D01*
X456000Y45585135D01*
X456000Y47490135D01*
X15193882Y47490135D01*
X15297339Y47239748D01*
X15488741Y47048013D01*
X15738946Y46944118D01*
X16009865Y46943882D01*
X16260252Y47047339D01*
X16451987Y47238741D01*
X16555882Y47488946D01*
X16556118Y47759865D01*
X16452661Y48010252D01*
X16261259Y48201987D01*
X16011054Y48305882D01*
X15740135Y48306118D01*
X15489748Y48202661D01*
X15298013Y48011259D01*
X15194118Y47761054D01*
X15193882Y47490135D01*
X456000Y47490135D01*
X456000Y48760135D01*
X5668882Y48760135D01*
X5772339Y48509748D01*
X5963741Y48318013D01*
X6213946Y48214118D01*
X6484865Y48213882D01*
X6667641Y48289403D01*
X6848946Y48214118D01*
X7119865Y48213882D01*
X7302641Y48289403D01*
X7483946Y48214118D01*
X7754865Y48213882D01*
X8005252Y48317339D01*
X8196987Y48508741D01*
X8300882Y48758946D01*
X8301118Y49029865D01*
X8197661Y49280252D01*
X8006259Y49471987D01*
X7756054Y49575882D01*
X7485135Y49576118D01*
X7302359Y49500597D01*
X7121054Y49575882D01*
X6850135Y49576118D01*
X6667359Y49500597D01*
X6486054Y49575882D01*
X6215135Y49576118D01*
X5964748Y49472661D01*
X5773013Y49281259D01*
X5669118Y49031054D01*
X5668882Y48760135D01*
X456000Y48760135D01*
X456000Y51300135D01*
X5668882Y51300135D01*
X5772339Y51049748D01*
X5963741Y50858013D01*
X6213946Y50754118D01*
X6484865Y50753882D01*
X6667641Y50829403D01*
X6848946Y50754118D01*
X7119865Y50753882D01*
X7302641Y50829403D01*
X7483946Y50754118D01*
X7754865Y50753882D01*
X8005252Y50857339D01*
X8196987Y51048741D01*
X8300882Y51298946D01*
X8300883Y51300135D01*
X14558882Y51300135D01*
X14662339Y51049748D01*
X14853741Y50858013D01*
X15103946Y50754118D01*
X15374865Y50753882D01*
X15625252Y50857339D01*
X15816987Y51048741D01*
X15920882Y51298946D01*
X15921118Y51569865D01*
X15817661Y51820252D01*
X15626259Y52011987D01*
X15376054Y52115882D01*
X15105135Y52116118D01*
X14854748Y52012661D01*
X14663013Y51821259D01*
X14559118Y51571054D01*
X14558882Y51300135D01*
X8300883Y51300135D01*
X8301118Y51569865D01*
X8197661Y51820252D01*
X8006259Y52011987D01*
X7756054Y52115882D01*
X7485135Y52116118D01*
X7302359Y52040597D01*
X7121054Y52115882D01*
X6850135Y52116118D01*
X6667359Y52040597D01*
X6486054Y52115882D01*
X6215135Y52116118D01*
X5964748Y52012661D01*
X5773013Y51821259D01*
X5669118Y51571054D01*
X5668882Y51300135D01*
X456000Y51300135D01*
X456000Y52814536D01*
X14558882Y52814536D01*
X14662339Y52564149D01*
X14853741Y52372414D01*
X15103946Y52268519D01*
X15374865Y52268283D01*
X15625252Y52371740D01*
X15816987Y52563142D01*
X15819890Y52570135D01*
X27893882Y52570135D01*
X27997339Y52319748D01*
X28188741Y52128013D01*
X28438946Y52024118D01*
X28709865Y52023882D01*
X28960252Y52127339D01*
X29151987Y52318741D01*
X29255882Y52568946D01*
X29255883Y52570135D01*
X48848882Y52570135D01*
X48952339Y52319748D01*
X49143741Y52128013D01*
X49393946Y52024118D01*
X49664865Y52023882D01*
X49915252Y52127339D01*
X50106987Y52318741D01*
X50210882Y52568946D01*
X50210883Y52570135D01*
X55833882Y52570135D01*
X55937339Y52319748D01*
X56128741Y52128013D01*
X56378946Y52024118D01*
X56649865Y52023882D01*
X56900252Y52127339D01*
X57091987Y52318741D01*
X57195882Y52568946D01*
X57196118Y52839865D01*
X57092661Y53090252D01*
X56901259Y53281987D01*
X56651054Y53385882D01*
X56380135Y53386118D01*
X56129748Y53282661D01*
X55938013Y53091259D01*
X55834118Y52841054D01*
X55833882Y52570135D01*
X50210883Y52570135D01*
X50211118Y52839865D01*
X50107661Y53090252D01*
X49916259Y53281987D01*
X49666054Y53385882D01*
X49395135Y53386118D01*
X49144748Y53282661D01*
X48953013Y53091259D01*
X48849118Y52841054D01*
X48848882Y52570135D01*
X29255883Y52570135D01*
X29256118Y52839865D01*
X29152661Y53090252D01*
X28961259Y53281987D01*
X28711054Y53385882D01*
X28440135Y53386118D01*
X28189748Y53282661D01*
X27998013Y53091259D01*
X27894118Y52841054D01*
X27893882Y52570135D01*
X15819890Y52570135D01*
X15920882Y52813347D01*
X15921118Y53084266D01*
X15885017Y53171638D01*
X17582982Y53171638D01*
X17686439Y52921251D01*
X17877841Y52729516D01*
X18128046Y52625621D01*
X18398965Y52625385D01*
X18649352Y52728842D01*
X18677754Y52757194D01*
X18913946Y52659118D01*
X19184865Y52658882D01*
X19435252Y52762339D01*
X19626987Y52953741D01*
X19730882Y53203946D01*
X19730883Y53205135D01*
X23448882Y53205135D01*
X23552339Y52954748D01*
X23743741Y52763013D01*
X23993946Y52659118D01*
X24264865Y52658882D01*
X24515252Y52762339D01*
X24706987Y52953741D01*
X24765014Y53093485D01*
X24822339Y52954748D01*
X25013741Y52763013D01*
X25263946Y52659118D01*
X25534865Y52658882D01*
X25785252Y52762339D01*
X25976987Y52953741D01*
X26035014Y53093485D01*
X26092339Y52954748D01*
X26283741Y52763013D01*
X26533946Y52659118D01*
X26804865Y52658882D01*
X27055252Y52762339D01*
X27246987Y52953741D01*
X27350882Y53203946D01*
X27351118Y53474865D01*
X27247661Y53725252D01*
X27132978Y53840135D01*
X53293882Y53840135D01*
X53397339Y53589748D01*
X53588741Y53398013D01*
X53838946Y53294118D01*
X53928959Y53294040D01*
X53928882Y53205135D01*
X54032339Y52954748D01*
X54223741Y52763013D01*
X54473946Y52659118D01*
X54744865Y52658882D01*
X54995252Y52762339D01*
X55186987Y52953741D01*
X55290882Y53203946D01*
X55291118Y53474865D01*
X55187661Y53725252D01*
X54996259Y53916987D01*
X54746054Y54020882D01*
X54656041Y54020960D01*
X54656118Y54109865D01*
X54552661Y54360252D01*
X54361259Y54551987D01*
X54111054Y54655882D01*
X53840135Y54656118D01*
X53589748Y54552661D01*
X53398013Y54361259D01*
X53294118Y54111054D01*
X53293882Y53840135D01*
X27132978Y53840135D01*
X27056259Y53916987D01*
X26806054Y54020882D01*
X26535135Y54021118D01*
X26284748Y53917661D01*
X26093013Y53726259D01*
X26034986Y53586515D01*
X25977661Y53725252D01*
X25786259Y53916987D01*
X25536054Y54020882D01*
X25265135Y54021118D01*
X25014748Y53917661D01*
X24823013Y53726259D01*
X24764986Y53586515D01*
X24707661Y53725252D01*
X24516259Y53916987D01*
X24266054Y54020882D01*
X23995135Y54021118D01*
X23744748Y53917661D01*
X23553013Y53726259D01*
X23449118Y53476054D01*
X23448882Y53205135D01*
X19730883Y53205135D01*
X19731118Y53474865D01*
X19627661Y53725252D01*
X19436259Y53916987D01*
X19186054Y54020882D01*
X18915135Y54021118D01*
X18664748Y53917661D01*
X18636346Y53889309D01*
X18400154Y53987385D01*
X18129235Y53987621D01*
X17878848Y53884164D01*
X17687113Y53692762D01*
X17583218Y53442557D01*
X17582982Y53171638D01*
X15885017Y53171638D01*
X15817661Y53334653D01*
X15626259Y53526388D01*
X15376054Y53630283D01*
X15105135Y53630519D01*
X14854748Y53527062D01*
X14663013Y53335660D01*
X14559118Y53085455D01*
X14558882Y52814536D01*
X456000Y52814536D01*
X456000Y54475135D01*
X20273882Y54475135D01*
X20377339Y54224748D01*
X20568741Y54033013D01*
X20818946Y53929118D01*
X21089865Y53928882D01*
X21340252Y54032339D01*
X21531987Y54223741D01*
X21635882Y54473946D01*
X21636118Y54744865D01*
X21532661Y54995252D01*
X21341259Y55186987D01*
X21091054Y55290882D01*
X20820135Y55291118D01*
X20569748Y55187661D01*
X20378013Y54996259D01*
X20274118Y54746054D01*
X20273882Y54475135D01*
X456000Y54475135D01*
X456000Y56242460D01*
X19577912Y56242460D01*
X19681369Y55992073D01*
X19872771Y55800338D01*
X20122976Y55696443D01*
X20393895Y55696207D01*
X20644282Y55799664D01*
X20836017Y55991066D01*
X20939912Y56241271D01*
X20940148Y56512190D01*
X20836691Y56762577D01*
X20645289Y56954312D01*
X20498813Y57015135D01*
X22813882Y57015135D01*
X22917339Y56764748D01*
X23108741Y56573013D01*
X23358946Y56469118D01*
X23629865Y56468882D01*
X23880252Y56572339D01*
X24071987Y56763741D01*
X24175882Y57013946D01*
X24175960Y57103959D01*
X24264865Y57103882D01*
X24515252Y57207339D01*
X24706987Y57398741D01*
X24810882Y57648946D01*
X24810883Y57650135D01*
X50118882Y57650135D01*
X50222339Y57399748D01*
X50413741Y57208013D01*
X50663946Y57104118D01*
X50934865Y57103882D01*
X51185252Y57207339D01*
X51376987Y57398741D01*
X51480882Y57648946D01*
X51480883Y57650135D01*
X53928882Y57650135D01*
X54032339Y57399748D01*
X54223741Y57208013D01*
X54473946Y57104118D01*
X54744865Y57103882D01*
X54995252Y57207339D01*
X55186987Y57398741D01*
X55290882Y57648946D01*
X55291118Y57919865D01*
X55187661Y58170252D01*
X54996259Y58361987D01*
X54746054Y58465882D01*
X54475135Y58466118D01*
X54224748Y58362661D01*
X54033013Y58171259D01*
X53929118Y57921054D01*
X53928882Y57650135D01*
X51480883Y57650135D01*
X51481118Y57919865D01*
X51377661Y58170252D01*
X51186259Y58361987D01*
X50936054Y58465882D01*
X50665135Y58466118D01*
X50414748Y58362661D01*
X50223013Y58171259D01*
X50119118Y57921054D01*
X50118882Y57650135D01*
X24810883Y57650135D01*
X24811118Y57919865D01*
X24707661Y58170252D01*
X24588186Y58289935D01*
X24718882Y58289935D01*
X24822339Y58039548D01*
X25013741Y57847813D01*
X25263946Y57743918D01*
X25534865Y57743682D01*
X25785252Y57847139D01*
X25976987Y58038541D01*
X26034020Y58175891D01*
X26092339Y58034748D01*
X26283741Y57843013D01*
X26533946Y57739118D01*
X26804865Y57738882D01*
X27055252Y57842339D01*
X27246987Y58033741D01*
X27350882Y58283946D01*
X27351085Y58516674D01*
X27563252Y58604339D01*
X27754987Y58795741D01*
X27806640Y58920135D01*
X62818882Y58920135D01*
X62922339Y58669748D01*
X63113741Y58478013D01*
X63363946Y58374118D01*
X63634865Y58373882D01*
X63885252Y58477339D01*
X64076987Y58668741D01*
X64180882Y58918946D01*
X64181118Y59189865D01*
X64077661Y59440252D01*
X63886259Y59631987D01*
X63636054Y59735882D01*
X63365135Y59736118D01*
X63114748Y59632661D01*
X62923013Y59441259D01*
X62819118Y59191054D01*
X62818882Y58920135D01*
X27806640Y58920135D01*
X27858882Y59045946D01*
X27859071Y59263070D01*
X28074865Y59262882D01*
X28325252Y59366339D01*
X28516987Y59557741D01*
X28620882Y59807946D01*
X28621118Y60078865D01*
X28517661Y60329252D01*
X28326259Y60520987D01*
X28076054Y60624882D01*
X27805135Y60625118D01*
X27554748Y60521661D01*
X27363013Y60330259D01*
X27259118Y60080054D01*
X27258929Y59862930D01*
X27043135Y59863118D01*
X26792748Y59759661D01*
X26601013Y59568259D01*
X26497118Y59318054D01*
X26496915Y59085326D01*
X26284748Y58997661D01*
X26093013Y58806259D01*
X26035980Y58668909D01*
X25977661Y58810052D01*
X25786259Y59001787D01*
X25536054Y59105682D01*
X25265135Y59105918D01*
X25014748Y59002461D01*
X24823013Y58811059D01*
X24719118Y58560854D01*
X24718882Y58289935D01*
X24588186Y58289935D01*
X24516259Y58361987D01*
X24266054Y58465882D01*
X23995135Y58466118D01*
X23744748Y58362661D01*
X23553013Y58171259D01*
X23449118Y57921054D01*
X23449040Y57831041D01*
X23360135Y57831118D01*
X23109748Y57727661D01*
X22918013Y57536259D01*
X22814118Y57286054D01*
X22813882Y57015135D01*
X20498813Y57015135D01*
X20395084Y57058207D01*
X20124165Y57058443D01*
X19873778Y56954986D01*
X19682043Y56763584D01*
X19578148Y56513379D01*
X19577912Y56242460D01*
X456000Y56242460D01*
X456000Y62730135D01*
X16316930Y62730135D01*
X16420387Y62479748D01*
X16611789Y62288013D01*
X16861994Y62184118D01*
X17132913Y62183882D01*
X17383300Y62287339D01*
X17575035Y62478741D01*
X17678930Y62728946D01*
X17679166Y62999865D01*
X17575709Y63250252D01*
X17384307Y63441987D01*
X17134102Y63545882D01*
X16863183Y63546118D01*
X16612796Y63442661D01*
X16421061Y63251259D01*
X16317166Y63001054D01*
X16316930Y62730135D01*
X456000Y62730135D01*
X456000Y66555000D01*
X3541536Y66555000D01*
X3541536Y64255000D01*
X3568103Y64113810D01*
X3651546Y63984135D01*
X3778866Y63897141D01*
X3930000Y63866536D01*
X6230000Y63866536D01*
X6371190Y63893103D01*
X6500865Y63976546D01*
X6587859Y64103866D01*
X6618464Y64255000D01*
X6618464Y64636240D01*
X20189932Y64636240D01*
X20293389Y64385853D01*
X20484791Y64194118D01*
X20734996Y64090223D01*
X21005915Y64089987D01*
X21256302Y64193444D01*
X21448037Y64384846D01*
X21547914Y64625376D01*
X21647339Y64384748D01*
X21838741Y64193013D01*
X22088946Y64089118D01*
X22359865Y64088882D01*
X22610252Y64192339D01*
X22801987Y64383741D01*
X22905882Y64633946D01*
X22905883Y64635135D01*
X34878882Y64635135D01*
X34982339Y64384748D01*
X35173741Y64193013D01*
X35423946Y64089118D01*
X35694865Y64088882D01*
X35787445Y64127135D01*
X36402882Y64127135D01*
X36506339Y63876748D01*
X36697741Y63685013D01*
X36947946Y63581118D01*
X37218865Y63580882D01*
X37469252Y63684339D01*
X37660987Y63875741D01*
X37764882Y64125946D01*
X37765118Y64396865D01*
X37661661Y64647252D01*
X37470259Y64838987D01*
X37220054Y64942882D01*
X36949135Y64943118D01*
X36698748Y64839661D01*
X36507013Y64648259D01*
X36403118Y64398054D01*
X36402882Y64127135D01*
X35787445Y64127135D01*
X35945252Y64192339D01*
X36136987Y64383741D01*
X36240882Y64633946D01*
X36241118Y64904865D01*
X36137661Y65155252D01*
X35946259Y65346987D01*
X35696054Y65450882D01*
X35425135Y65451118D01*
X35174748Y65347661D01*
X34983013Y65156259D01*
X34879118Y64906054D01*
X34878882Y64635135D01*
X22905883Y64635135D01*
X22906118Y64904865D01*
X22802661Y65155252D01*
X22611259Y65346987D01*
X22361054Y65450882D01*
X22090135Y65451118D01*
X21839748Y65347661D01*
X21648013Y65156259D01*
X21548136Y64915729D01*
X21448711Y65156357D01*
X21257309Y65348092D01*
X21007104Y65451987D01*
X20736185Y65452223D01*
X20485798Y65348766D01*
X20294063Y65157364D01*
X20190168Y64907159D01*
X20189932Y64636240D01*
X6618464Y64636240D01*
X6618464Y65584263D01*
X36759534Y65584263D01*
X36862991Y65333876D01*
X37054393Y65142141D01*
X37304598Y65038246D01*
X37575517Y65038010D01*
X37825904Y65141467D01*
X38017639Y65332869D01*
X38121534Y65583074D01*
X38121770Y65853993D01*
X38018313Y66104380D01*
X37826911Y66296115D01*
X37576706Y66400010D01*
X37305787Y66400246D01*
X37055400Y66296789D01*
X36863665Y66105387D01*
X36759770Y65855182D01*
X36759534Y65584263D01*
X6618464Y65584263D01*
X6618464Y66540135D01*
X21543882Y66540135D01*
X21647339Y66289748D01*
X21838741Y66098013D01*
X22088946Y65994118D01*
X22359865Y65993882D01*
X22610252Y66097339D01*
X22801987Y66288741D01*
X22905882Y66538946D01*
X22906118Y66809865D01*
X22802661Y67060252D01*
X22611259Y67251987D01*
X22361054Y67355882D01*
X22090135Y67356118D01*
X21839748Y67252661D01*
X21648013Y67061259D01*
X21544118Y66811054D01*
X21543882Y66540135D01*
X6618464Y66540135D01*
X6618464Y66555000D01*
X6591897Y66696190D01*
X6508454Y66825865D01*
X6381134Y66912859D01*
X6230000Y66943464D01*
X3930000Y66943464D01*
X3788810Y66916897D01*
X3659135Y66833454D01*
X3572141Y66706134D01*
X3541536Y66555000D01*
X456000Y66555000D01*
X456000Y68160000D01*
X32416536Y68160000D01*
X32416536Y66460000D01*
X32443103Y66318810D01*
X32526546Y66189135D01*
X32653866Y66102141D01*
X32805000Y66071536D01*
X34505000Y66071536D01*
X34646190Y66098103D01*
X34775865Y66181546D01*
X34862859Y66308866D01*
X34893464Y66460000D01*
X34893464Y67334117D01*
X34964000Y67334117D01*
X34964000Y67285883D01*
X35057704Y66814800D01*
X35324552Y66415435D01*
X35723917Y66148587D01*
X36195000Y66054883D01*
X36666083Y66148587D01*
X37065448Y66415435D01*
X37332296Y66814800D01*
X37426000Y67285883D01*
X37426000Y67334117D01*
X40044000Y67334117D01*
X40044000Y67285883D01*
X40137704Y66814800D01*
X40404552Y66415435D01*
X40803917Y66148587D01*
X41275000Y66054883D01*
X41746083Y66148587D01*
X42145448Y66415435D01*
X42412296Y66814800D01*
X42506000Y67285883D01*
X42506000Y67334117D01*
X42584000Y67334117D01*
X42584000Y67285883D01*
X42677704Y66814800D01*
X42944552Y66415435D01*
X43343917Y66148587D01*
X43815000Y66054883D01*
X44286083Y66148587D01*
X44685448Y66415435D01*
X44952296Y66814800D01*
X45046000Y67285883D01*
X45046000Y67334117D01*
X45124000Y67334117D01*
X45124000Y67285883D01*
X45217704Y66814800D01*
X45484552Y66415435D01*
X45883917Y66148587D01*
X46355000Y66054883D01*
X46826083Y66148587D01*
X47225448Y66415435D01*
X47492296Y66814800D01*
X47586000Y67285883D01*
X47586000Y67334117D01*
X47492296Y67805200D01*
X47488999Y67810135D01*
X75518882Y67810135D01*
X75622339Y67559748D01*
X75813741Y67368013D01*
X76063946Y67264118D01*
X76334865Y67263882D01*
X76585252Y67367339D01*
X76776987Y67558741D01*
X76880882Y67808946D01*
X76881118Y68079865D01*
X76777661Y68330252D01*
X76586259Y68521987D01*
X76336054Y68625882D01*
X76065135Y68626118D01*
X75814748Y68522661D01*
X75623013Y68331259D01*
X75519118Y68081054D01*
X75518882Y67810135D01*
X47488999Y67810135D01*
X47225448Y68204565D01*
X46826083Y68471413D01*
X46355000Y68565117D01*
X45883917Y68471413D01*
X45484552Y68204565D01*
X45217704Y67805200D01*
X45124000Y67334117D01*
X45046000Y67334117D01*
X44952296Y67805200D01*
X44685448Y68204565D01*
X44286083Y68471413D01*
X43815000Y68565117D01*
X43343917Y68471413D01*
X42944552Y68204565D01*
X42677704Y67805200D01*
X42584000Y67334117D01*
X42506000Y67334117D01*
X42412296Y67805200D01*
X42145448Y68204565D01*
X41746083Y68471413D01*
X41275000Y68565117D01*
X40803917Y68471413D01*
X40404552Y68204565D01*
X40137704Y67805200D01*
X40044000Y67334117D01*
X37426000Y67334117D01*
X37332296Y67805200D01*
X37065448Y68204565D01*
X36666083Y68471413D01*
X36195000Y68565117D01*
X35723917Y68471413D01*
X35324552Y68204565D01*
X35057704Y67805200D01*
X34964000Y67334117D01*
X34893464Y67334117D01*
X34893464Y68160000D01*
X34866897Y68301190D01*
X34783454Y68430865D01*
X34656134Y68517859D01*
X34505000Y68548464D01*
X32805000Y68548464D01*
X32663810Y68521897D01*
X32534135Y68438454D01*
X32447141Y68311134D01*
X32416536Y68160000D01*
X456000Y68160000D01*
X456000Y71544000D01*
X79544000Y71544000D01*
X79544000Y50292000D01*
M02*
