G04 #@! TF.FileFunction,Copper,L3,Inr,Plane*
%FSLAX46Y46*%
G04 Gerber Fmt 4.6, Leading zero omitted, Abs format (unit mm)*
G04 Created by KiCad (PCBNEW 4.0.7) date Sun Nov 26 02:27:56 2017*
%MOMM*%
%LPD*%
G01*
G04 APERTURE LIST*
%ADD10C,0.127000*%
%ADD11R,1.700000X1.700000*%
%ADD12O,1.700000X1.700000*%
%ADD13C,1.420000*%
%ADD14C,2.800000*%
%ADD15R,2.300000X2.300000*%
%ADD16C,2.300000*%
%ADD17O,3.500120X7.000240*%
%ADD18O,1.600200X2.499360*%
%ADD19C,0.600000*%
%ADD20C,0.254000*%
G04 APERTURE END LIST*
D10*
D11*
X33655000Y67310000D03*
D12*
X36195000Y67310000D03*
X38735000Y67310000D03*
X41275000Y67310000D03*
X43815000Y67310000D03*
X46355000Y67310000D03*
D13*
X9200000Y19440005D03*
X11700000Y19440005D03*
X13700000Y19440005D03*
X16200000Y19440005D03*
X9200000Y16820005D03*
X11700000Y16820005D03*
X13700000Y16820005D03*
X16200000Y16820005D03*
D14*
X19270000Y14110005D03*
X19270000Y19790005D03*
X6130000Y19790005D03*
X6130000Y14110005D03*
D15*
X5080000Y65405000D03*
D16*
X7620000Y65405000D03*
D17*
X34942780Y10261600D03*
X24744680Y10261600D03*
D18*
X29845000Y14526260D03*
X32344360Y14526260D03*
D17*
X62882780Y10261600D03*
X52684680Y10261600D03*
D18*
X57785000Y14526260D03*
X60284360Y14526260D03*
D19*
X24638000Y61468000D03*
X27940000Y62865000D03*
X57150000Y61595000D03*
X27305000Y63500000D03*
X19050000Y54610000D03*
X15240000Y59690000D03*
X8890000Y57150000D03*
X10160000Y50165000D03*
X9525000Y48895000D03*
X8890000Y48895000D03*
X8890000Y51435000D03*
X9525000Y51435000D03*
X10160000Y51435000D03*
X10160000Y53340000D03*
X17780000Y48260000D03*
X4445000Y53975000D03*
X18415000Y22860000D03*
X12700000Y50165000D03*
X33020000Y54610000D03*
X31115000Y52705000D03*
X59055000Y52705000D03*
X20221050Y57128767D03*
X19685000Y66675000D03*
X35560000Y53975000D03*
X35560000Y55245000D03*
X38100000Y53975000D03*
X38100000Y55245000D03*
X63500000Y53975000D03*
X63500000Y55245000D03*
X66040000Y53975000D03*
X66040000Y55245000D03*
X50800000Y53340000D03*
X15240000Y26670000D03*
X38100000Y54610000D03*
X35560000Y54610000D03*
X66040000Y54610000D03*
X63500000Y54610000D03*
X22860000Y53340000D03*
X61595000Y55245000D03*
X75565000Y59690000D03*
X41910000Y16510000D03*
X35560000Y36830000D03*
X38100000Y29210000D03*
X45720000Y13335000D03*
X31115000Y26035000D03*
X48260000Y46355000D03*
X45720000Y46355000D03*
X48260000Y47625000D03*
X45720000Y47625000D03*
X26670000Y45720000D03*
X29273438Y45783438D03*
X31750000Y48895000D03*
X25400000Y40640000D03*
X48260000Y46990000D03*
X45720000Y46990000D03*
X41910000Y13335000D03*
X33655000Y41910000D03*
X29210000Y34925000D03*
X46355000Y34290000D03*
X38100000Y46355000D03*
X35560000Y46355000D03*
X35560000Y47625000D03*
X38100000Y47625000D03*
X29845000Y48895000D03*
X22860000Y45720000D03*
X46990000Y17780000D03*
X26035000Y18415000D03*
X46990000Y38735000D03*
X33655000Y24765000D03*
X28575000Y43180000D03*
X38100000Y46990000D03*
X35560000Y46990000D03*
X34290000Y43180000D03*
X34290000Y45085000D03*
X42545000Y36195000D03*
X26670000Y39370000D03*
X48260000Y8890000D03*
X42545000Y27305000D03*
X48260000Y26035000D03*
X25400000Y36195000D03*
X30480000Y40640000D03*
X44450000Y7620000D03*
X73660000Y46355000D03*
X73660000Y47625000D03*
X76200000Y46355000D03*
X76200000Y47625000D03*
X57150000Y45720000D03*
X60960000Y48895000D03*
X55880000Y42545000D03*
X69850000Y13335000D03*
X53340000Y40640000D03*
X61595000Y41910000D03*
X76200000Y46990000D03*
X73660000Y46990000D03*
X54610000Y45720000D03*
X57150000Y34925000D03*
X74295000Y34290000D03*
X63500000Y46355000D03*
X63500000Y47625000D03*
X66040000Y46355000D03*
X66040000Y47625000D03*
X57785000Y48895000D03*
X50800000Y45720000D03*
X74930000Y17780000D03*
X76200000Y8890000D03*
X72390000Y7620000D03*
X61595000Y24765000D03*
X53340000Y36195000D03*
X54610000Y39370000D03*
X66040000Y46990000D03*
X63500000Y46990000D03*
X62230000Y43180000D03*
X62230000Y45085000D03*
X57150000Y43180000D03*
X70485000Y36195000D03*
X74930000Y38735000D03*
X70485000Y27305000D03*
X76200000Y26035000D03*
X53975000Y18415000D03*
X58420000Y40640000D03*
X73660000Y13335000D03*
X69850000Y16510000D03*
X63500000Y36830000D03*
X59055000Y26035000D03*
X66675000Y29210000D03*
X25400000Y58424800D03*
X23495000Y57150000D03*
X24130000Y57785000D03*
X20259030Y56377325D03*
X20955000Y54610000D03*
X63500000Y59055000D03*
X12700000Y45720000D03*
X17145000Y45085000D03*
X12700000Y39370000D03*
X17145000Y38735000D03*
X28575000Y52705000D03*
X56515000Y52705000D03*
X50800000Y57785000D03*
X54610000Y57785000D03*
X22225000Y66675000D03*
X22225000Y64770000D03*
X7620000Y48895000D03*
X6985000Y48895000D03*
X6350000Y48895000D03*
X6350000Y51435000D03*
X6985000Y51435000D03*
X7620000Y51435000D03*
X76200000Y67945000D03*
X26670000Y53340000D03*
X54610000Y53340000D03*
X32385000Y31115000D03*
X31115000Y29845000D03*
X60325000Y31115000D03*
X59055000Y29845000D03*
X27940000Y59944000D03*
X37440652Y65719128D03*
X35560000Y64770000D03*
X27178000Y59182000D03*
X37084000Y64262000D03*
X26670000Y58420000D03*
X53975000Y53975000D03*
X25400000Y53340000D03*
X20871050Y64771105D03*
X49530000Y52705000D03*
X24130000Y53340000D03*
X16998048Y62865000D03*
X18264100Y53306503D03*
X18415000Y43815000D03*
X19050000Y53340000D03*
X18415000Y37465000D03*
X15240000Y52949401D03*
X15240000Y51435000D03*
X15875000Y47625000D03*
X16510000Y34290000D03*
D20*
G36*
X29268013Y49281259D02*
X29164118Y49031054D01*
X29163882Y48760135D01*
X29267339Y48509748D01*
X29458741Y48318013D01*
X29708946Y48214118D01*
X29979865Y48213882D01*
X30230252Y48317339D01*
X30421987Y48508741D01*
X30525882Y48758946D01*
X30526118Y49029865D01*
X30422661Y49280252D01*
X30300126Y49403000D01*
X49149000Y49403000D01*
X49149000Y456000D01*
X21717000Y456000D01*
X21717000Y12087696D01*
X22613620Y12087696D01*
X22613620Y8435504D01*
X22775837Y7619983D01*
X23237793Y6928617D01*
X23929159Y6466661D01*
X24744680Y6304444D01*
X25560201Y6466661D01*
X26251567Y6928617D01*
X26713523Y7619983D01*
X26875740Y8435504D01*
X26875740Y12087696D01*
X26713523Y12903217D01*
X26251567Y13594583D01*
X25560201Y14056539D01*
X24744680Y14218756D01*
X23929159Y14056539D01*
X23237793Y13594583D01*
X22775837Y12903217D01*
X22613620Y12087696D01*
X21717000Y12087696D01*
X21717000Y15007787D01*
X28663900Y15007787D01*
X28663900Y14044733D01*
X28753806Y13592746D01*
X29009836Y13209569D01*
X29393013Y12953539D01*
X29845000Y12863633D01*
X30296987Y12953539D01*
X30680164Y13209569D01*
X30936194Y13592746D01*
X31026100Y14044733D01*
X31026100Y15007787D01*
X31163260Y15007787D01*
X31163260Y14044733D01*
X31253166Y13592746D01*
X31509196Y13209569D01*
X31892373Y12953539D01*
X32344360Y12863633D01*
X32796347Y12953539D01*
X33177918Y13208496D01*
X32973937Y12903217D01*
X32811720Y12087696D01*
X32811720Y8435504D01*
X32973937Y7619983D01*
X33435893Y6928617D01*
X34127259Y6466661D01*
X34942780Y6304444D01*
X35758301Y6466661D01*
X36449667Y6928617D01*
X36821520Y7485135D01*
X43768882Y7485135D01*
X43872339Y7234748D01*
X44063741Y7043013D01*
X44313946Y6939118D01*
X44584865Y6938882D01*
X44835252Y7042339D01*
X45026987Y7233741D01*
X45130882Y7483946D01*
X45131118Y7754865D01*
X45027661Y8005252D01*
X44836259Y8196987D01*
X44586054Y8300882D01*
X44315135Y8301118D01*
X44064748Y8197661D01*
X43873013Y8006259D01*
X43769118Y7756054D01*
X43768882Y7485135D01*
X36821520Y7485135D01*
X36911623Y7619983D01*
X37073840Y8435504D01*
X37073840Y8755135D01*
X47578882Y8755135D01*
X47682339Y8504748D01*
X47873741Y8313013D01*
X48123946Y8209118D01*
X48394865Y8208882D01*
X48645252Y8312339D01*
X48836987Y8503741D01*
X48940882Y8753946D01*
X48941118Y9024865D01*
X48837661Y9275252D01*
X48646259Y9466987D01*
X48396054Y9570882D01*
X48125135Y9571118D01*
X47874748Y9467661D01*
X47683013Y9276259D01*
X47579118Y9026054D01*
X47578882Y8755135D01*
X37073840Y8755135D01*
X37073840Y12087696D01*
X36911623Y12903217D01*
X36713229Y13200135D01*
X45038882Y13200135D01*
X45142339Y12949748D01*
X45333741Y12758013D01*
X45583946Y12654118D01*
X45854865Y12653882D01*
X46105252Y12757339D01*
X46296987Y12948741D01*
X46400882Y13198946D01*
X46401118Y13469865D01*
X46297661Y13720252D01*
X46106259Y13911987D01*
X45856054Y14015882D01*
X45585135Y14016118D01*
X45334748Y13912661D01*
X45143013Y13721259D01*
X45039118Y13471054D01*
X45038882Y13200135D01*
X36713229Y13200135D01*
X36449667Y13594583D01*
X35758301Y14056539D01*
X34942780Y14218756D01*
X34127259Y14056539D01*
X33435923Y13594603D01*
X33525460Y14044733D01*
X33525460Y15007787D01*
X33435554Y15459774D01*
X33179524Y15842951D01*
X32796347Y16098981D01*
X32344360Y16188887D01*
X31892373Y16098981D01*
X31509196Y15842951D01*
X31253166Y15459774D01*
X31163260Y15007787D01*
X31026100Y15007787D01*
X30936194Y15459774D01*
X30680164Y15842951D01*
X30296987Y16098981D01*
X29845000Y16188887D01*
X29393013Y16098981D01*
X29009836Y15842951D01*
X28753806Y15459774D01*
X28663900Y15007787D01*
X21717000Y15007787D01*
X21717000Y16375135D01*
X41228882Y16375135D01*
X41332339Y16124748D01*
X41523741Y15933013D01*
X41773946Y15829118D01*
X42044865Y15828882D01*
X42295252Y15932339D01*
X42486987Y16123741D01*
X42590882Y16373946D01*
X42591118Y16644865D01*
X42487661Y16895252D01*
X42296259Y17086987D01*
X42046054Y17190882D01*
X41775135Y17191118D01*
X41524748Y17087661D01*
X41333013Y16896259D01*
X41229118Y16646054D01*
X41228882Y16375135D01*
X21717000Y16375135D01*
X21717000Y17645135D01*
X46308882Y17645135D01*
X46412339Y17394748D01*
X46603741Y17203013D01*
X46853946Y17099118D01*
X47124865Y17098882D01*
X47375252Y17202339D01*
X47566987Y17393741D01*
X47670882Y17643946D01*
X47671118Y17914865D01*
X47567661Y18165252D01*
X47376259Y18356987D01*
X47126054Y18460882D01*
X46855135Y18461118D01*
X46604748Y18357661D01*
X46413013Y18166259D01*
X46309118Y17916054D01*
X46308882Y17645135D01*
X21717000Y17645135D01*
X21717000Y18280135D01*
X25353882Y18280135D01*
X25457339Y18029748D01*
X25648741Y17838013D01*
X25898946Y17734118D01*
X26169865Y17733882D01*
X26420252Y17837339D01*
X26611987Y18028741D01*
X26715882Y18278946D01*
X26716118Y18549865D01*
X26612661Y18800252D01*
X26421259Y18991987D01*
X26171054Y19095882D01*
X25900135Y19096118D01*
X25649748Y18992661D01*
X25458013Y18801259D01*
X25354118Y18551054D01*
X25353882Y18280135D01*
X21717000Y18280135D01*
X21717000Y24630135D01*
X32973882Y24630135D01*
X33077339Y24379748D01*
X33268741Y24188013D01*
X33518946Y24084118D01*
X33789865Y24083882D01*
X34040252Y24187339D01*
X34231987Y24378741D01*
X34335882Y24628946D01*
X34336118Y24899865D01*
X34232661Y25150252D01*
X34041259Y25341987D01*
X33791054Y25445882D01*
X33520135Y25446118D01*
X33269748Y25342661D01*
X33078013Y25151259D01*
X32974118Y24901054D01*
X32973882Y24630135D01*
X21717000Y24630135D01*
X21717000Y25900135D01*
X30433882Y25900135D01*
X30537339Y25649748D01*
X30728741Y25458013D01*
X30978946Y25354118D01*
X31249865Y25353882D01*
X31500252Y25457339D01*
X31691987Y25648741D01*
X31795882Y25898946D01*
X31795883Y25900135D01*
X47578882Y25900135D01*
X47682339Y25649748D01*
X47873741Y25458013D01*
X48123946Y25354118D01*
X48394865Y25353882D01*
X48645252Y25457339D01*
X48836987Y25648741D01*
X48940882Y25898946D01*
X48941118Y26169865D01*
X48837661Y26420252D01*
X48646259Y26611987D01*
X48396054Y26715882D01*
X48125135Y26716118D01*
X47874748Y26612661D01*
X47683013Y26421259D01*
X47579118Y26171054D01*
X47578882Y25900135D01*
X31795883Y25900135D01*
X31796118Y26169865D01*
X31692661Y26420252D01*
X31501259Y26611987D01*
X31251054Y26715882D01*
X30980135Y26716118D01*
X30729748Y26612661D01*
X30538013Y26421259D01*
X30434118Y26171054D01*
X30433882Y25900135D01*
X21717000Y25900135D01*
X21717000Y27170135D01*
X41863882Y27170135D01*
X41967339Y26919748D01*
X42158741Y26728013D01*
X42408946Y26624118D01*
X42679865Y26623882D01*
X42930252Y26727339D01*
X43121987Y26918741D01*
X43225882Y27168946D01*
X43226118Y27439865D01*
X43122661Y27690252D01*
X42931259Y27881987D01*
X42681054Y27985882D01*
X42410135Y27986118D01*
X42159748Y27882661D01*
X41968013Y27691259D01*
X41864118Y27441054D01*
X41863882Y27170135D01*
X21717000Y27170135D01*
X21717000Y29075135D01*
X37418882Y29075135D01*
X37522339Y28824748D01*
X37713741Y28633013D01*
X37963946Y28529118D01*
X38234865Y28528882D01*
X38485252Y28632339D01*
X38676987Y28823741D01*
X38780882Y29073946D01*
X38781118Y29344865D01*
X38677661Y29595252D01*
X38486259Y29786987D01*
X38236054Y29890882D01*
X37965135Y29891118D01*
X37714748Y29787661D01*
X37523013Y29596259D01*
X37419118Y29346054D01*
X37418882Y29075135D01*
X21717000Y29075135D01*
X21717000Y29710135D01*
X30433882Y29710135D01*
X30537339Y29459748D01*
X30728741Y29268013D01*
X30978946Y29164118D01*
X31249865Y29163882D01*
X31500252Y29267339D01*
X31691987Y29458741D01*
X31795882Y29708946D01*
X31796118Y29979865D01*
X31692661Y30230252D01*
X31501259Y30421987D01*
X31251054Y30525882D01*
X30980135Y30526118D01*
X30729748Y30422661D01*
X30538013Y30231259D01*
X30434118Y29981054D01*
X30433882Y29710135D01*
X21717000Y29710135D01*
X21717000Y30980135D01*
X31703882Y30980135D01*
X31807339Y30729748D01*
X31998741Y30538013D01*
X32248946Y30434118D01*
X32519865Y30433882D01*
X32770252Y30537339D01*
X32961987Y30728741D01*
X33065882Y30978946D01*
X33066118Y31249865D01*
X32962661Y31500252D01*
X32771259Y31691987D01*
X32521054Y31795882D01*
X32250135Y31796118D01*
X31999748Y31692661D01*
X31808013Y31501259D01*
X31704118Y31251054D01*
X31703882Y30980135D01*
X21717000Y30980135D01*
X21717000Y36060135D01*
X24718882Y36060135D01*
X24822339Y35809748D01*
X25013741Y35618013D01*
X25263946Y35514118D01*
X25534865Y35513882D01*
X25785252Y35617339D01*
X25976987Y35808741D01*
X26080882Y36058946D01*
X26080883Y36060135D01*
X41863882Y36060135D01*
X41967339Y35809748D01*
X42158741Y35618013D01*
X42408946Y35514118D01*
X42679865Y35513882D01*
X42930252Y35617339D01*
X43121987Y35808741D01*
X43225882Y36058946D01*
X43226118Y36329865D01*
X43122661Y36580252D01*
X42931259Y36771987D01*
X42681054Y36875882D01*
X42410135Y36876118D01*
X42159748Y36772661D01*
X41968013Y36581259D01*
X41864118Y36331054D01*
X41863882Y36060135D01*
X26080883Y36060135D01*
X26081118Y36329865D01*
X25977661Y36580252D01*
X25862978Y36695135D01*
X34878882Y36695135D01*
X34982339Y36444748D01*
X35173741Y36253013D01*
X35423946Y36149118D01*
X35694865Y36148882D01*
X35945252Y36252339D01*
X36136987Y36443741D01*
X36240882Y36693946D01*
X36241118Y36964865D01*
X36137661Y37215252D01*
X35946259Y37406987D01*
X35696054Y37510882D01*
X35425135Y37511118D01*
X35174748Y37407661D01*
X34983013Y37216259D01*
X34879118Y36966054D01*
X34878882Y36695135D01*
X25862978Y36695135D01*
X25786259Y36771987D01*
X25536054Y36875882D01*
X25265135Y36876118D01*
X25014748Y36772661D01*
X24823013Y36581259D01*
X24719118Y36331054D01*
X24718882Y36060135D01*
X21717000Y36060135D01*
X21717000Y38600135D01*
X46308882Y38600135D01*
X46412339Y38349748D01*
X46603741Y38158013D01*
X46853946Y38054118D01*
X47124865Y38053882D01*
X47375252Y38157339D01*
X47566987Y38348741D01*
X47670882Y38598946D01*
X47671118Y38869865D01*
X47567661Y39120252D01*
X47376259Y39311987D01*
X47126054Y39415882D01*
X46855135Y39416118D01*
X46604748Y39312661D01*
X46413013Y39121259D01*
X46309118Y38871054D01*
X46308882Y38600135D01*
X21717000Y38600135D01*
X21717000Y39235135D01*
X25988882Y39235135D01*
X26092339Y38984748D01*
X26283741Y38793013D01*
X26533946Y38689118D01*
X26804865Y38688882D01*
X27055252Y38792339D01*
X27246987Y38983741D01*
X27350882Y39233946D01*
X27351118Y39504865D01*
X27247661Y39755252D01*
X27056259Y39946987D01*
X26806054Y40050882D01*
X26535135Y40051118D01*
X26284748Y39947661D01*
X26093013Y39756259D01*
X25989118Y39506054D01*
X25988882Y39235135D01*
X21717000Y39235135D01*
X21717000Y40505135D01*
X29798882Y40505135D01*
X29902339Y40254748D01*
X30093741Y40063013D01*
X30343946Y39959118D01*
X30614865Y39958882D01*
X30865252Y40062339D01*
X31056987Y40253741D01*
X31160882Y40503946D01*
X31161118Y40774865D01*
X31057661Y41025252D01*
X30866259Y41216987D01*
X30616054Y41320882D01*
X30345135Y41321118D01*
X30094748Y41217661D01*
X29903013Y41026259D01*
X29799118Y40776054D01*
X29798882Y40505135D01*
X21717000Y40505135D01*
X21717000Y43045135D01*
X27893882Y43045135D01*
X27997339Y42794748D01*
X28188741Y42603013D01*
X28438946Y42499118D01*
X28709865Y42498882D01*
X28960252Y42602339D01*
X29151987Y42793741D01*
X29255882Y43043946D01*
X29255883Y43045135D01*
X33608882Y43045135D01*
X33712339Y42794748D01*
X33903741Y42603013D01*
X34153946Y42499118D01*
X34424865Y42498882D01*
X34675252Y42602339D01*
X34866987Y42793741D01*
X34970882Y43043946D01*
X34971118Y43314865D01*
X34867661Y43565252D01*
X34676259Y43756987D01*
X34426054Y43860882D01*
X34155135Y43861118D01*
X33904748Y43757661D01*
X33713013Y43566259D01*
X33609118Y43316054D01*
X33608882Y43045135D01*
X29255883Y43045135D01*
X29256118Y43314865D01*
X29152661Y43565252D01*
X28961259Y43756987D01*
X28711054Y43860882D01*
X28440135Y43861118D01*
X28189748Y43757661D01*
X27998013Y43566259D01*
X27894118Y43316054D01*
X27893882Y43045135D01*
X21717000Y43045135D01*
X21717000Y44950135D01*
X33608882Y44950135D01*
X33712339Y44699748D01*
X33903741Y44508013D01*
X34153946Y44404118D01*
X34424865Y44403882D01*
X34675252Y44507339D01*
X34866987Y44698741D01*
X34970882Y44948946D01*
X34971118Y45219865D01*
X34867661Y45470252D01*
X34676259Y45661987D01*
X34426054Y45765882D01*
X34155135Y45766118D01*
X33904748Y45662661D01*
X33713013Y45471259D01*
X33609118Y45221054D01*
X33608882Y44950135D01*
X21717000Y44950135D01*
X21717000Y45585135D01*
X22178882Y45585135D01*
X22282339Y45334748D01*
X22473741Y45143013D01*
X22723946Y45039118D01*
X22994865Y45038882D01*
X23245252Y45142339D01*
X23436987Y45333741D01*
X23540882Y45583946D01*
X23541118Y45854865D01*
X23437661Y46105252D01*
X23246259Y46296987D01*
X22996054Y46400882D01*
X22725135Y46401118D01*
X22474748Y46297661D01*
X22283013Y46106259D01*
X22179118Y45856054D01*
X22178882Y45585135D01*
X21717000Y45585135D01*
X21717000Y47490135D01*
X34878882Y47490135D01*
X34954403Y47307359D01*
X34879118Y47126054D01*
X34878882Y46855135D01*
X34954403Y46672359D01*
X34879118Y46491054D01*
X34878882Y46220135D01*
X34982339Y45969748D01*
X35173741Y45778013D01*
X35423946Y45674118D01*
X35694865Y45673882D01*
X35945252Y45777339D01*
X36136987Y45968741D01*
X36240882Y46218946D01*
X36241118Y46489865D01*
X36165597Y46672641D01*
X36240882Y46853946D01*
X36241118Y47124865D01*
X36165597Y47307641D01*
X36240882Y47488946D01*
X36240883Y47490135D01*
X37418882Y47490135D01*
X37494403Y47307359D01*
X37419118Y47126054D01*
X37418882Y46855135D01*
X37494403Y46672359D01*
X37419118Y46491054D01*
X37418882Y46220135D01*
X37522339Y45969748D01*
X37713741Y45778013D01*
X37963946Y45674118D01*
X38234865Y45673882D01*
X38485252Y45777339D01*
X38676987Y45968741D01*
X38780882Y46218946D01*
X38781118Y46489865D01*
X38705597Y46672641D01*
X38780882Y46853946D01*
X38781118Y47124865D01*
X38705597Y47307641D01*
X38780882Y47488946D01*
X38781118Y47759865D01*
X38677661Y48010252D01*
X38486259Y48201987D01*
X38236054Y48305882D01*
X37965135Y48306118D01*
X37714748Y48202661D01*
X37523013Y48011259D01*
X37419118Y47761054D01*
X37418882Y47490135D01*
X36240883Y47490135D01*
X36241118Y47759865D01*
X36137661Y48010252D01*
X35946259Y48201987D01*
X35696054Y48305882D01*
X35425135Y48306118D01*
X35174748Y48202661D01*
X34983013Y48011259D01*
X34879118Y47761054D01*
X34878882Y47490135D01*
X21717000Y47490135D01*
X21717000Y49403000D01*
X29389966Y49403000D01*
X29268013Y49281259D01*
X29268013Y49281259D01*
G37*
X29268013Y49281259D02*
X29164118Y49031054D01*
X29163882Y48760135D01*
X29267339Y48509748D01*
X29458741Y48318013D01*
X29708946Y48214118D01*
X29979865Y48213882D01*
X30230252Y48317339D01*
X30421987Y48508741D01*
X30525882Y48758946D01*
X30526118Y49029865D01*
X30422661Y49280252D01*
X30300126Y49403000D01*
X49149000Y49403000D01*
X49149000Y456000D01*
X21717000Y456000D01*
X21717000Y12087696D01*
X22613620Y12087696D01*
X22613620Y8435504D01*
X22775837Y7619983D01*
X23237793Y6928617D01*
X23929159Y6466661D01*
X24744680Y6304444D01*
X25560201Y6466661D01*
X26251567Y6928617D01*
X26713523Y7619983D01*
X26875740Y8435504D01*
X26875740Y12087696D01*
X26713523Y12903217D01*
X26251567Y13594583D01*
X25560201Y14056539D01*
X24744680Y14218756D01*
X23929159Y14056539D01*
X23237793Y13594583D01*
X22775837Y12903217D01*
X22613620Y12087696D01*
X21717000Y12087696D01*
X21717000Y15007787D01*
X28663900Y15007787D01*
X28663900Y14044733D01*
X28753806Y13592746D01*
X29009836Y13209569D01*
X29393013Y12953539D01*
X29845000Y12863633D01*
X30296987Y12953539D01*
X30680164Y13209569D01*
X30936194Y13592746D01*
X31026100Y14044733D01*
X31026100Y15007787D01*
X31163260Y15007787D01*
X31163260Y14044733D01*
X31253166Y13592746D01*
X31509196Y13209569D01*
X31892373Y12953539D01*
X32344360Y12863633D01*
X32796347Y12953539D01*
X33177918Y13208496D01*
X32973937Y12903217D01*
X32811720Y12087696D01*
X32811720Y8435504D01*
X32973937Y7619983D01*
X33435893Y6928617D01*
X34127259Y6466661D01*
X34942780Y6304444D01*
X35758301Y6466661D01*
X36449667Y6928617D01*
X36821520Y7485135D01*
X43768882Y7485135D01*
X43872339Y7234748D01*
X44063741Y7043013D01*
X44313946Y6939118D01*
X44584865Y6938882D01*
X44835252Y7042339D01*
X45026987Y7233741D01*
X45130882Y7483946D01*
X45131118Y7754865D01*
X45027661Y8005252D01*
X44836259Y8196987D01*
X44586054Y8300882D01*
X44315135Y8301118D01*
X44064748Y8197661D01*
X43873013Y8006259D01*
X43769118Y7756054D01*
X43768882Y7485135D01*
X36821520Y7485135D01*
X36911623Y7619983D01*
X37073840Y8435504D01*
X37073840Y8755135D01*
X47578882Y8755135D01*
X47682339Y8504748D01*
X47873741Y8313013D01*
X48123946Y8209118D01*
X48394865Y8208882D01*
X48645252Y8312339D01*
X48836987Y8503741D01*
X48940882Y8753946D01*
X48941118Y9024865D01*
X48837661Y9275252D01*
X48646259Y9466987D01*
X48396054Y9570882D01*
X48125135Y9571118D01*
X47874748Y9467661D01*
X47683013Y9276259D01*
X47579118Y9026054D01*
X47578882Y8755135D01*
X37073840Y8755135D01*
X37073840Y12087696D01*
X36911623Y12903217D01*
X36713229Y13200135D01*
X45038882Y13200135D01*
X45142339Y12949748D01*
X45333741Y12758013D01*
X45583946Y12654118D01*
X45854865Y12653882D01*
X46105252Y12757339D01*
X46296987Y12948741D01*
X46400882Y13198946D01*
X46401118Y13469865D01*
X46297661Y13720252D01*
X46106259Y13911987D01*
X45856054Y14015882D01*
X45585135Y14016118D01*
X45334748Y13912661D01*
X45143013Y13721259D01*
X45039118Y13471054D01*
X45038882Y13200135D01*
X36713229Y13200135D01*
X36449667Y13594583D01*
X35758301Y14056539D01*
X34942780Y14218756D01*
X34127259Y14056539D01*
X33435923Y13594603D01*
X33525460Y14044733D01*
X33525460Y15007787D01*
X33435554Y15459774D01*
X33179524Y15842951D01*
X32796347Y16098981D01*
X32344360Y16188887D01*
X31892373Y16098981D01*
X31509196Y15842951D01*
X31253166Y15459774D01*
X31163260Y15007787D01*
X31026100Y15007787D01*
X30936194Y15459774D01*
X30680164Y15842951D01*
X30296987Y16098981D01*
X29845000Y16188887D01*
X29393013Y16098981D01*
X29009836Y15842951D01*
X28753806Y15459774D01*
X28663900Y15007787D01*
X21717000Y15007787D01*
X21717000Y16375135D01*
X41228882Y16375135D01*
X41332339Y16124748D01*
X41523741Y15933013D01*
X41773946Y15829118D01*
X42044865Y15828882D01*
X42295252Y15932339D01*
X42486987Y16123741D01*
X42590882Y16373946D01*
X42591118Y16644865D01*
X42487661Y16895252D01*
X42296259Y17086987D01*
X42046054Y17190882D01*
X41775135Y17191118D01*
X41524748Y17087661D01*
X41333013Y16896259D01*
X41229118Y16646054D01*
X41228882Y16375135D01*
X21717000Y16375135D01*
X21717000Y17645135D01*
X46308882Y17645135D01*
X46412339Y17394748D01*
X46603741Y17203013D01*
X46853946Y17099118D01*
X47124865Y17098882D01*
X47375252Y17202339D01*
X47566987Y17393741D01*
X47670882Y17643946D01*
X47671118Y17914865D01*
X47567661Y18165252D01*
X47376259Y18356987D01*
X47126054Y18460882D01*
X46855135Y18461118D01*
X46604748Y18357661D01*
X46413013Y18166259D01*
X46309118Y17916054D01*
X46308882Y17645135D01*
X21717000Y17645135D01*
X21717000Y18280135D01*
X25353882Y18280135D01*
X25457339Y18029748D01*
X25648741Y17838013D01*
X25898946Y17734118D01*
X26169865Y17733882D01*
X26420252Y17837339D01*
X26611987Y18028741D01*
X26715882Y18278946D01*
X26716118Y18549865D01*
X26612661Y18800252D01*
X26421259Y18991987D01*
X26171054Y19095882D01*
X25900135Y19096118D01*
X25649748Y18992661D01*
X25458013Y18801259D01*
X25354118Y18551054D01*
X25353882Y18280135D01*
X21717000Y18280135D01*
X21717000Y24630135D01*
X32973882Y24630135D01*
X33077339Y24379748D01*
X33268741Y24188013D01*
X33518946Y24084118D01*
X33789865Y24083882D01*
X34040252Y24187339D01*
X34231987Y24378741D01*
X34335882Y24628946D01*
X34336118Y24899865D01*
X34232661Y25150252D01*
X34041259Y25341987D01*
X33791054Y25445882D01*
X33520135Y25446118D01*
X33269748Y25342661D01*
X33078013Y25151259D01*
X32974118Y24901054D01*
X32973882Y24630135D01*
X21717000Y24630135D01*
X21717000Y25900135D01*
X30433882Y25900135D01*
X30537339Y25649748D01*
X30728741Y25458013D01*
X30978946Y25354118D01*
X31249865Y25353882D01*
X31500252Y25457339D01*
X31691987Y25648741D01*
X31795882Y25898946D01*
X31795883Y25900135D01*
X47578882Y25900135D01*
X47682339Y25649748D01*
X47873741Y25458013D01*
X48123946Y25354118D01*
X48394865Y25353882D01*
X48645252Y25457339D01*
X48836987Y25648741D01*
X48940882Y25898946D01*
X48941118Y26169865D01*
X48837661Y26420252D01*
X48646259Y26611987D01*
X48396054Y26715882D01*
X48125135Y26716118D01*
X47874748Y26612661D01*
X47683013Y26421259D01*
X47579118Y26171054D01*
X47578882Y25900135D01*
X31795883Y25900135D01*
X31796118Y26169865D01*
X31692661Y26420252D01*
X31501259Y26611987D01*
X31251054Y26715882D01*
X30980135Y26716118D01*
X30729748Y26612661D01*
X30538013Y26421259D01*
X30434118Y26171054D01*
X30433882Y25900135D01*
X21717000Y25900135D01*
X21717000Y27170135D01*
X41863882Y27170135D01*
X41967339Y26919748D01*
X42158741Y26728013D01*
X42408946Y26624118D01*
X42679865Y26623882D01*
X42930252Y26727339D01*
X43121987Y26918741D01*
X43225882Y27168946D01*
X43226118Y27439865D01*
X43122661Y27690252D01*
X42931259Y27881987D01*
X42681054Y27985882D01*
X42410135Y27986118D01*
X42159748Y27882661D01*
X41968013Y27691259D01*
X41864118Y27441054D01*
X41863882Y27170135D01*
X21717000Y27170135D01*
X21717000Y29075135D01*
X37418882Y29075135D01*
X37522339Y28824748D01*
X37713741Y28633013D01*
X37963946Y28529118D01*
X38234865Y28528882D01*
X38485252Y28632339D01*
X38676987Y28823741D01*
X38780882Y29073946D01*
X38781118Y29344865D01*
X38677661Y29595252D01*
X38486259Y29786987D01*
X38236054Y29890882D01*
X37965135Y29891118D01*
X37714748Y29787661D01*
X37523013Y29596259D01*
X37419118Y29346054D01*
X37418882Y29075135D01*
X21717000Y29075135D01*
X21717000Y29710135D01*
X30433882Y29710135D01*
X30537339Y29459748D01*
X30728741Y29268013D01*
X30978946Y29164118D01*
X31249865Y29163882D01*
X31500252Y29267339D01*
X31691987Y29458741D01*
X31795882Y29708946D01*
X31796118Y29979865D01*
X31692661Y30230252D01*
X31501259Y30421987D01*
X31251054Y30525882D01*
X30980135Y30526118D01*
X30729748Y30422661D01*
X30538013Y30231259D01*
X30434118Y29981054D01*
X30433882Y29710135D01*
X21717000Y29710135D01*
X21717000Y30980135D01*
X31703882Y30980135D01*
X31807339Y30729748D01*
X31998741Y30538013D01*
X32248946Y30434118D01*
X32519865Y30433882D01*
X32770252Y30537339D01*
X32961987Y30728741D01*
X33065882Y30978946D01*
X33066118Y31249865D01*
X32962661Y31500252D01*
X32771259Y31691987D01*
X32521054Y31795882D01*
X32250135Y31796118D01*
X31999748Y31692661D01*
X31808013Y31501259D01*
X31704118Y31251054D01*
X31703882Y30980135D01*
X21717000Y30980135D01*
X21717000Y36060135D01*
X24718882Y36060135D01*
X24822339Y35809748D01*
X25013741Y35618013D01*
X25263946Y35514118D01*
X25534865Y35513882D01*
X25785252Y35617339D01*
X25976987Y35808741D01*
X26080882Y36058946D01*
X26080883Y36060135D01*
X41863882Y36060135D01*
X41967339Y35809748D01*
X42158741Y35618013D01*
X42408946Y35514118D01*
X42679865Y35513882D01*
X42930252Y35617339D01*
X43121987Y35808741D01*
X43225882Y36058946D01*
X43226118Y36329865D01*
X43122661Y36580252D01*
X42931259Y36771987D01*
X42681054Y36875882D01*
X42410135Y36876118D01*
X42159748Y36772661D01*
X41968013Y36581259D01*
X41864118Y36331054D01*
X41863882Y36060135D01*
X26080883Y36060135D01*
X26081118Y36329865D01*
X25977661Y36580252D01*
X25862978Y36695135D01*
X34878882Y36695135D01*
X34982339Y36444748D01*
X35173741Y36253013D01*
X35423946Y36149118D01*
X35694865Y36148882D01*
X35945252Y36252339D01*
X36136987Y36443741D01*
X36240882Y36693946D01*
X36241118Y36964865D01*
X36137661Y37215252D01*
X35946259Y37406987D01*
X35696054Y37510882D01*
X35425135Y37511118D01*
X35174748Y37407661D01*
X34983013Y37216259D01*
X34879118Y36966054D01*
X34878882Y36695135D01*
X25862978Y36695135D01*
X25786259Y36771987D01*
X25536054Y36875882D01*
X25265135Y36876118D01*
X25014748Y36772661D01*
X24823013Y36581259D01*
X24719118Y36331054D01*
X24718882Y36060135D01*
X21717000Y36060135D01*
X21717000Y38600135D01*
X46308882Y38600135D01*
X46412339Y38349748D01*
X46603741Y38158013D01*
X46853946Y38054118D01*
X47124865Y38053882D01*
X47375252Y38157339D01*
X47566987Y38348741D01*
X47670882Y38598946D01*
X47671118Y38869865D01*
X47567661Y39120252D01*
X47376259Y39311987D01*
X47126054Y39415882D01*
X46855135Y39416118D01*
X46604748Y39312661D01*
X46413013Y39121259D01*
X46309118Y38871054D01*
X46308882Y38600135D01*
X21717000Y38600135D01*
X21717000Y39235135D01*
X25988882Y39235135D01*
X26092339Y38984748D01*
X26283741Y38793013D01*
X26533946Y38689118D01*
X26804865Y38688882D01*
X27055252Y38792339D01*
X27246987Y38983741D01*
X27350882Y39233946D01*
X27351118Y39504865D01*
X27247661Y39755252D01*
X27056259Y39946987D01*
X26806054Y40050882D01*
X26535135Y40051118D01*
X26284748Y39947661D01*
X26093013Y39756259D01*
X25989118Y39506054D01*
X25988882Y39235135D01*
X21717000Y39235135D01*
X21717000Y40505135D01*
X29798882Y40505135D01*
X29902339Y40254748D01*
X30093741Y40063013D01*
X30343946Y39959118D01*
X30614865Y39958882D01*
X30865252Y40062339D01*
X31056987Y40253741D01*
X31160882Y40503946D01*
X31161118Y40774865D01*
X31057661Y41025252D01*
X30866259Y41216987D01*
X30616054Y41320882D01*
X30345135Y41321118D01*
X30094748Y41217661D01*
X29903013Y41026259D01*
X29799118Y40776054D01*
X29798882Y40505135D01*
X21717000Y40505135D01*
X21717000Y43045135D01*
X27893882Y43045135D01*
X27997339Y42794748D01*
X28188741Y42603013D01*
X28438946Y42499118D01*
X28709865Y42498882D01*
X28960252Y42602339D01*
X29151987Y42793741D01*
X29255882Y43043946D01*
X29255883Y43045135D01*
X33608882Y43045135D01*
X33712339Y42794748D01*
X33903741Y42603013D01*
X34153946Y42499118D01*
X34424865Y42498882D01*
X34675252Y42602339D01*
X34866987Y42793741D01*
X34970882Y43043946D01*
X34971118Y43314865D01*
X34867661Y43565252D01*
X34676259Y43756987D01*
X34426054Y43860882D01*
X34155135Y43861118D01*
X33904748Y43757661D01*
X33713013Y43566259D01*
X33609118Y43316054D01*
X33608882Y43045135D01*
X29255883Y43045135D01*
X29256118Y43314865D01*
X29152661Y43565252D01*
X28961259Y43756987D01*
X28711054Y43860882D01*
X28440135Y43861118D01*
X28189748Y43757661D01*
X27998013Y43566259D01*
X27894118Y43316054D01*
X27893882Y43045135D01*
X21717000Y43045135D01*
X21717000Y44950135D01*
X33608882Y44950135D01*
X33712339Y44699748D01*
X33903741Y44508013D01*
X34153946Y44404118D01*
X34424865Y44403882D01*
X34675252Y44507339D01*
X34866987Y44698741D01*
X34970882Y44948946D01*
X34971118Y45219865D01*
X34867661Y45470252D01*
X34676259Y45661987D01*
X34426054Y45765882D01*
X34155135Y45766118D01*
X33904748Y45662661D01*
X33713013Y45471259D01*
X33609118Y45221054D01*
X33608882Y44950135D01*
X21717000Y44950135D01*
X21717000Y45585135D01*
X22178882Y45585135D01*
X22282339Y45334748D01*
X22473741Y45143013D01*
X22723946Y45039118D01*
X22994865Y45038882D01*
X23245252Y45142339D01*
X23436987Y45333741D01*
X23540882Y45583946D01*
X23541118Y45854865D01*
X23437661Y46105252D01*
X23246259Y46296987D01*
X22996054Y46400882D01*
X22725135Y46401118D01*
X22474748Y46297661D01*
X22283013Y46106259D01*
X22179118Y45856054D01*
X22178882Y45585135D01*
X21717000Y45585135D01*
X21717000Y47490135D01*
X34878882Y47490135D01*
X34954403Y47307359D01*
X34879118Y47126054D01*
X34878882Y46855135D01*
X34954403Y46672359D01*
X34879118Y46491054D01*
X34878882Y46220135D01*
X34982339Y45969748D01*
X35173741Y45778013D01*
X35423946Y45674118D01*
X35694865Y45673882D01*
X35945252Y45777339D01*
X36136987Y45968741D01*
X36240882Y46218946D01*
X36241118Y46489865D01*
X36165597Y46672641D01*
X36240882Y46853946D01*
X36241118Y47124865D01*
X36165597Y47307641D01*
X36240882Y47488946D01*
X36240883Y47490135D01*
X37418882Y47490135D01*
X37494403Y47307359D01*
X37419118Y47126054D01*
X37418882Y46855135D01*
X37494403Y46672359D01*
X37419118Y46491054D01*
X37418882Y46220135D01*
X37522339Y45969748D01*
X37713741Y45778013D01*
X37963946Y45674118D01*
X38234865Y45673882D01*
X38485252Y45777339D01*
X38676987Y45968741D01*
X38780882Y46218946D01*
X38781118Y46489865D01*
X38705597Y46672641D01*
X38780882Y46853946D01*
X38781118Y47124865D01*
X38705597Y47307641D01*
X38780882Y47488946D01*
X38781118Y47759865D01*
X38677661Y48010252D01*
X38486259Y48201987D01*
X38236054Y48305882D01*
X37965135Y48306118D01*
X37714748Y48202661D01*
X37523013Y48011259D01*
X37419118Y47761054D01*
X37418882Y47490135D01*
X36240883Y47490135D01*
X36241118Y47759865D01*
X36137661Y48010252D01*
X35946259Y48201987D01*
X35696054Y48305882D01*
X35425135Y48306118D01*
X35174748Y48202661D01*
X34983013Y48011259D01*
X34879118Y47761054D01*
X34878882Y47490135D01*
X21717000Y47490135D01*
X21717000Y49403000D01*
X29389966Y49403000D01*
X29268013Y49281259D01*
G36*
X57208013Y49281259D02*
X57104118Y49031054D01*
X57103882Y48760135D01*
X57207339Y48509748D01*
X57398741Y48318013D01*
X57648946Y48214118D01*
X57919865Y48213882D01*
X58170252Y48317339D01*
X58361987Y48508741D01*
X58465882Y48758946D01*
X58466118Y49029865D01*
X58362661Y49280252D01*
X58240126Y49403000D01*
X79544000Y49403000D01*
X79544000Y456000D01*
X49911000Y456000D01*
X49911000Y12087696D01*
X50553620Y12087696D01*
X50553620Y8435504D01*
X50715837Y7619983D01*
X51177793Y6928617D01*
X51869159Y6466661D01*
X52684680Y6304444D01*
X53500201Y6466661D01*
X54191567Y6928617D01*
X54653523Y7619983D01*
X54815740Y8435504D01*
X54815740Y12087696D01*
X54653523Y12903217D01*
X54191567Y13594583D01*
X53500201Y14056539D01*
X52684680Y14218756D01*
X51869159Y14056539D01*
X51177793Y13594583D01*
X50715837Y12903217D01*
X50553620Y12087696D01*
X49911000Y12087696D01*
X49911000Y15007787D01*
X56603900Y15007787D01*
X56603900Y14044733D01*
X56693806Y13592746D01*
X56949836Y13209569D01*
X57333013Y12953539D01*
X57785000Y12863633D01*
X58236987Y12953539D01*
X58620164Y13209569D01*
X58876194Y13592746D01*
X58966100Y14044733D01*
X58966100Y15007787D01*
X59103260Y15007787D01*
X59103260Y14044733D01*
X59193166Y13592746D01*
X59449196Y13209569D01*
X59832373Y12953539D01*
X60284360Y12863633D01*
X60736347Y12953539D01*
X61117918Y13208496D01*
X60913937Y12903217D01*
X60751720Y12087696D01*
X60751720Y8435504D01*
X60913937Y7619983D01*
X61375893Y6928617D01*
X62067259Y6466661D01*
X62882780Y6304444D01*
X63698301Y6466661D01*
X64389667Y6928617D01*
X64761520Y7485135D01*
X71708882Y7485135D01*
X71812339Y7234748D01*
X72003741Y7043013D01*
X72253946Y6939118D01*
X72524865Y6938882D01*
X72775252Y7042339D01*
X72966987Y7233741D01*
X73070882Y7483946D01*
X73071118Y7754865D01*
X72967661Y8005252D01*
X72776259Y8196987D01*
X72526054Y8300882D01*
X72255135Y8301118D01*
X72004748Y8197661D01*
X71813013Y8006259D01*
X71709118Y7756054D01*
X71708882Y7485135D01*
X64761520Y7485135D01*
X64851623Y7619983D01*
X65013840Y8435504D01*
X65013840Y8755135D01*
X75518882Y8755135D01*
X75622339Y8504748D01*
X75813741Y8313013D01*
X76063946Y8209118D01*
X76334865Y8208882D01*
X76585252Y8312339D01*
X76776987Y8503741D01*
X76880882Y8753946D01*
X76881118Y9024865D01*
X76777661Y9275252D01*
X76586259Y9466987D01*
X76336054Y9570882D01*
X76065135Y9571118D01*
X75814748Y9467661D01*
X75623013Y9276259D01*
X75519118Y9026054D01*
X75518882Y8755135D01*
X65013840Y8755135D01*
X65013840Y12087696D01*
X64851623Y12903217D01*
X64653229Y13200135D01*
X72978882Y13200135D01*
X73082339Y12949748D01*
X73273741Y12758013D01*
X73523946Y12654118D01*
X73794865Y12653882D01*
X74045252Y12757339D01*
X74236987Y12948741D01*
X74340882Y13198946D01*
X74341118Y13469865D01*
X74237661Y13720252D01*
X74046259Y13911987D01*
X73796054Y14015882D01*
X73525135Y14016118D01*
X73274748Y13912661D01*
X73083013Y13721259D01*
X72979118Y13471054D01*
X72978882Y13200135D01*
X64653229Y13200135D01*
X64389667Y13594583D01*
X63698301Y14056539D01*
X62882780Y14218756D01*
X62067259Y14056539D01*
X61375923Y13594603D01*
X61465460Y14044733D01*
X61465460Y15007787D01*
X61375554Y15459774D01*
X61119524Y15842951D01*
X60736347Y16098981D01*
X60284360Y16188887D01*
X59832373Y16098981D01*
X59449196Y15842951D01*
X59193166Y15459774D01*
X59103260Y15007787D01*
X58966100Y15007787D01*
X58876194Y15459774D01*
X58620164Y15842951D01*
X58236987Y16098981D01*
X57785000Y16188887D01*
X57333013Y16098981D01*
X56949836Y15842951D01*
X56693806Y15459774D01*
X56603900Y15007787D01*
X49911000Y15007787D01*
X49911000Y16375135D01*
X69168882Y16375135D01*
X69272339Y16124748D01*
X69463741Y15933013D01*
X69713946Y15829118D01*
X69984865Y15828882D01*
X70235252Y15932339D01*
X70426987Y16123741D01*
X70530882Y16373946D01*
X70531118Y16644865D01*
X70427661Y16895252D01*
X70236259Y17086987D01*
X69986054Y17190882D01*
X69715135Y17191118D01*
X69464748Y17087661D01*
X69273013Y16896259D01*
X69169118Y16646054D01*
X69168882Y16375135D01*
X49911000Y16375135D01*
X49911000Y17645135D01*
X74248882Y17645135D01*
X74352339Y17394748D01*
X74543741Y17203013D01*
X74793946Y17099118D01*
X75064865Y17098882D01*
X75315252Y17202339D01*
X75506987Y17393741D01*
X75610882Y17643946D01*
X75611118Y17914865D01*
X75507661Y18165252D01*
X75316259Y18356987D01*
X75066054Y18460882D01*
X74795135Y18461118D01*
X74544748Y18357661D01*
X74353013Y18166259D01*
X74249118Y17916054D01*
X74248882Y17645135D01*
X49911000Y17645135D01*
X49911000Y18280135D01*
X53293882Y18280135D01*
X53397339Y18029748D01*
X53588741Y17838013D01*
X53838946Y17734118D01*
X54109865Y17733882D01*
X54360252Y17837339D01*
X54551987Y18028741D01*
X54655882Y18278946D01*
X54656118Y18549865D01*
X54552661Y18800252D01*
X54361259Y18991987D01*
X54111054Y19095882D01*
X53840135Y19096118D01*
X53589748Y18992661D01*
X53398013Y18801259D01*
X53294118Y18551054D01*
X53293882Y18280135D01*
X49911000Y18280135D01*
X49911000Y24630135D01*
X60913882Y24630135D01*
X61017339Y24379748D01*
X61208741Y24188013D01*
X61458946Y24084118D01*
X61729865Y24083882D01*
X61980252Y24187339D01*
X62171987Y24378741D01*
X62275882Y24628946D01*
X62276118Y24899865D01*
X62172661Y25150252D01*
X61981259Y25341987D01*
X61731054Y25445882D01*
X61460135Y25446118D01*
X61209748Y25342661D01*
X61018013Y25151259D01*
X60914118Y24901054D01*
X60913882Y24630135D01*
X49911000Y24630135D01*
X49911000Y25900135D01*
X58373882Y25900135D01*
X58477339Y25649748D01*
X58668741Y25458013D01*
X58918946Y25354118D01*
X59189865Y25353882D01*
X59440252Y25457339D01*
X59631987Y25648741D01*
X59735882Y25898946D01*
X59735883Y25900135D01*
X75518882Y25900135D01*
X75622339Y25649748D01*
X75813741Y25458013D01*
X76063946Y25354118D01*
X76334865Y25353882D01*
X76585252Y25457339D01*
X76776987Y25648741D01*
X76880882Y25898946D01*
X76881118Y26169865D01*
X76777661Y26420252D01*
X76586259Y26611987D01*
X76336054Y26715882D01*
X76065135Y26716118D01*
X75814748Y26612661D01*
X75623013Y26421259D01*
X75519118Y26171054D01*
X75518882Y25900135D01*
X59735883Y25900135D01*
X59736118Y26169865D01*
X59632661Y26420252D01*
X59441259Y26611987D01*
X59191054Y26715882D01*
X58920135Y26716118D01*
X58669748Y26612661D01*
X58478013Y26421259D01*
X58374118Y26171054D01*
X58373882Y25900135D01*
X49911000Y25900135D01*
X49911000Y27170135D01*
X69803882Y27170135D01*
X69907339Y26919748D01*
X70098741Y26728013D01*
X70348946Y26624118D01*
X70619865Y26623882D01*
X70870252Y26727339D01*
X71061987Y26918741D01*
X71165882Y27168946D01*
X71166118Y27439865D01*
X71062661Y27690252D01*
X70871259Y27881987D01*
X70621054Y27985882D01*
X70350135Y27986118D01*
X70099748Y27882661D01*
X69908013Y27691259D01*
X69804118Y27441054D01*
X69803882Y27170135D01*
X49911000Y27170135D01*
X49911000Y29075135D01*
X65993882Y29075135D01*
X66097339Y28824748D01*
X66288741Y28633013D01*
X66538946Y28529118D01*
X66809865Y28528882D01*
X67060252Y28632339D01*
X67251987Y28823741D01*
X67355882Y29073946D01*
X67356118Y29344865D01*
X67252661Y29595252D01*
X67061259Y29786987D01*
X66811054Y29890882D01*
X66540135Y29891118D01*
X66289748Y29787661D01*
X66098013Y29596259D01*
X65994118Y29346054D01*
X65993882Y29075135D01*
X49911000Y29075135D01*
X49911000Y29710135D01*
X58373882Y29710135D01*
X58477339Y29459748D01*
X58668741Y29268013D01*
X58918946Y29164118D01*
X59189865Y29163882D01*
X59440252Y29267339D01*
X59631987Y29458741D01*
X59735882Y29708946D01*
X59736118Y29979865D01*
X59632661Y30230252D01*
X59441259Y30421987D01*
X59191054Y30525882D01*
X58920135Y30526118D01*
X58669748Y30422661D01*
X58478013Y30231259D01*
X58374118Y29981054D01*
X58373882Y29710135D01*
X49911000Y29710135D01*
X49911000Y30980135D01*
X59643882Y30980135D01*
X59747339Y30729748D01*
X59938741Y30538013D01*
X60188946Y30434118D01*
X60459865Y30433882D01*
X60710252Y30537339D01*
X60901987Y30728741D01*
X61005882Y30978946D01*
X61006118Y31249865D01*
X60902661Y31500252D01*
X60711259Y31691987D01*
X60461054Y31795882D01*
X60190135Y31796118D01*
X59939748Y31692661D01*
X59748013Y31501259D01*
X59644118Y31251054D01*
X59643882Y30980135D01*
X49911000Y30980135D01*
X49911000Y36060135D01*
X52658882Y36060135D01*
X52762339Y35809748D01*
X52953741Y35618013D01*
X53203946Y35514118D01*
X53474865Y35513882D01*
X53725252Y35617339D01*
X53916987Y35808741D01*
X54020882Y36058946D01*
X54020883Y36060135D01*
X69803882Y36060135D01*
X69907339Y35809748D01*
X70098741Y35618013D01*
X70348946Y35514118D01*
X70619865Y35513882D01*
X70870252Y35617339D01*
X71061987Y35808741D01*
X71165882Y36058946D01*
X71166118Y36329865D01*
X71062661Y36580252D01*
X70871259Y36771987D01*
X70621054Y36875882D01*
X70350135Y36876118D01*
X70099748Y36772661D01*
X69908013Y36581259D01*
X69804118Y36331054D01*
X69803882Y36060135D01*
X54020883Y36060135D01*
X54021118Y36329865D01*
X53917661Y36580252D01*
X53802978Y36695135D01*
X62818882Y36695135D01*
X62922339Y36444748D01*
X63113741Y36253013D01*
X63363946Y36149118D01*
X63634865Y36148882D01*
X63885252Y36252339D01*
X64076987Y36443741D01*
X64180882Y36693946D01*
X64181118Y36964865D01*
X64077661Y37215252D01*
X63886259Y37406987D01*
X63636054Y37510882D01*
X63365135Y37511118D01*
X63114748Y37407661D01*
X62923013Y37216259D01*
X62819118Y36966054D01*
X62818882Y36695135D01*
X53802978Y36695135D01*
X53726259Y36771987D01*
X53476054Y36875882D01*
X53205135Y36876118D01*
X52954748Y36772661D01*
X52763013Y36581259D01*
X52659118Y36331054D01*
X52658882Y36060135D01*
X49911000Y36060135D01*
X49911000Y38600135D01*
X74248882Y38600135D01*
X74352339Y38349748D01*
X74543741Y38158013D01*
X74793946Y38054118D01*
X75064865Y38053882D01*
X75315252Y38157339D01*
X75506987Y38348741D01*
X75610882Y38598946D01*
X75611118Y38869865D01*
X75507661Y39120252D01*
X75316259Y39311987D01*
X75066054Y39415882D01*
X74795135Y39416118D01*
X74544748Y39312661D01*
X74353013Y39121259D01*
X74249118Y38871054D01*
X74248882Y38600135D01*
X49911000Y38600135D01*
X49911000Y39235135D01*
X53928882Y39235135D01*
X54032339Y38984748D01*
X54223741Y38793013D01*
X54473946Y38689118D01*
X54744865Y38688882D01*
X54995252Y38792339D01*
X55186987Y38983741D01*
X55290882Y39233946D01*
X55291118Y39504865D01*
X55187661Y39755252D01*
X54996259Y39946987D01*
X54746054Y40050882D01*
X54475135Y40051118D01*
X54224748Y39947661D01*
X54033013Y39756259D01*
X53929118Y39506054D01*
X53928882Y39235135D01*
X49911000Y39235135D01*
X49911000Y40505135D01*
X57738882Y40505135D01*
X57842339Y40254748D01*
X58033741Y40063013D01*
X58283946Y39959118D01*
X58554865Y39958882D01*
X58805252Y40062339D01*
X58996987Y40253741D01*
X59100882Y40503946D01*
X59101118Y40774865D01*
X58997661Y41025252D01*
X58806259Y41216987D01*
X58556054Y41320882D01*
X58285135Y41321118D01*
X58034748Y41217661D01*
X57843013Y41026259D01*
X57739118Y40776054D01*
X57738882Y40505135D01*
X49911000Y40505135D01*
X49911000Y43045135D01*
X56468882Y43045135D01*
X56572339Y42794748D01*
X56763741Y42603013D01*
X57013946Y42499118D01*
X57284865Y42498882D01*
X57535252Y42602339D01*
X57726987Y42793741D01*
X57830882Y43043946D01*
X57830883Y43045135D01*
X61548882Y43045135D01*
X61652339Y42794748D01*
X61843741Y42603013D01*
X62093946Y42499118D01*
X62364865Y42498882D01*
X62615252Y42602339D01*
X62806987Y42793741D01*
X62910882Y43043946D01*
X62911118Y43314865D01*
X62807661Y43565252D01*
X62616259Y43756987D01*
X62366054Y43860882D01*
X62095135Y43861118D01*
X61844748Y43757661D01*
X61653013Y43566259D01*
X61549118Y43316054D01*
X61548882Y43045135D01*
X57830883Y43045135D01*
X57831118Y43314865D01*
X57727661Y43565252D01*
X57536259Y43756987D01*
X57286054Y43860882D01*
X57015135Y43861118D01*
X56764748Y43757661D01*
X56573013Y43566259D01*
X56469118Y43316054D01*
X56468882Y43045135D01*
X49911000Y43045135D01*
X49911000Y44950135D01*
X61548882Y44950135D01*
X61652339Y44699748D01*
X61843741Y44508013D01*
X62093946Y44404118D01*
X62364865Y44403882D01*
X62615252Y44507339D01*
X62806987Y44698741D01*
X62910882Y44948946D01*
X62911118Y45219865D01*
X62807661Y45470252D01*
X62616259Y45661987D01*
X62366054Y45765882D01*
X62095135Y45766118D01*
X61844748Y45662661D01*
X61653013Y45471259D01*
X61549118Y45221054D01*
X61548882Y44950135D01*
X49911000Y44950135D01*
X49911000Y45585135D01*
X50118882Y45585135D01*
X50222339Y45334748D01*
X50413741Y45143013D01*
X50663946Y45039118D01*
X50934865Y45038882D01*
X51185252Y45142339D01*
X51376987Y45333741D01*
X51480882Y45583946D01*
X51481118Y45854865D01*
X51377661Y46105252D01*
X51186259Y46296987D01*
X50936054Y46400882D01*
X50665135Y46401118D01*
X50414748Y46297661D01*
X50223013Y46106259D01*
X50119118Y45856054D01*
X50118882Y45585135D01*
X49911000Y45585135D01*
X49911000Y47490135D01*
X62818882Y47490135D01*
X62894403Y47307359D01*
X62819118Y47126054D01*
X62818882Y46855135D01*
X62894403Y46672359D01*
X62819118Y46491054D01*
X62818882Y46220135D01*
X62922339Y45969748D01*
X63113741Y45778013D01*
X63363946Y45674118D01*
X63634865Y45673882D01*
X63885252Y45777339D01*
X64076987Y45968741D01*
X64180882Y46218946D01*
X64181118Y46489865D01*
X64105597Y46672641D01*
X64180882Y46853946D01*
X64181118Y47124865D01*
X64105597Y47307641D01*
X64180882Y47488946D01*
X64180883Y47490135D01*
X65358882Y47490135D01*
X65434403Y47307359D01*
X65359118Y47126054D01*
X65358882Y46855135D01*
X65434403Y46672359D01*
X65359118Y46491054D01*
X65358882Y46220135D01*
X65462339Y45969748D01*
X65653741Y45778013D01*
X65903946Y45674118D01*
X66174865Y45673882D01*
X66425252Y45777339D01*
X66616987Y45968741D01*
X66720882Y46218946D01*
X66721118Y46489865D01*
X66645597Y46672641D01*
X66720882Y46853946D01*
X66721118Y47124865D01*
X66645597Y47307641D01*
X66720882Y47488946D01*
X66721118Y47759865D01*
X66617661Y48010252D01*
X66426259Y48201987D01*
X66176054Y48305882D01*
X65905135Y48306118D01*
X65654748Y48202661D01*
X65463013Y48011259D01*
X65359118Y47761054D01*
X65358882Y47490135D01*
X64180883Y47490135D01*
X64181118Y47759865D01*
X64077661Y48010252D01*
X63886259Y48201987D01*
X63636054Y48305882D01*
X63365135Y48306118D01*
X63114748Y48202661D01*
X62923013Y48011259D01*
X62819118Y47761054D01*
X62818882Y47490135D01*
X49911000Y47490135D01*
X49911000Y49403000D01*
X57329966Y49403000D01*
X57208013Y49281259D01*
X57208013Y49281259D01*
G37*
X57208013Y49281259D02*
X57104118Y49031054D01*
X57103882Y48760135D01*
X57207339Y48509748D01*
X57398741Y48318013D01*
X57648946Y48214118D01*
X57919865Y48213882D01*
X58170252Y48317339D01*
X58361987Y48508741D01*
X58465882Y48758946D01*
X58466118Y49029865D01*
X58362661Y49280252D01*
X58240126Y49403000D01*
X79544000Y49403000D01*
X79544000Y456000D01*
X49911000Y456000D01*
X49911000Y12087696D01*
X50553620Y12087696D01*
X50553620Y8435504D01*
X50715837Y7619983D01*
X51177793Y6928617D01*
X51869159Y6466661D01*
X52684680Y6304444D01*
X53500201Y6466661D01*
X54191567Y6928617D01*
X54653523Y7619983D01*
X54815740Y8435504D01*
X54815740Y12087696D01*
X54653523Y12903217D01*
X54191567Y13594583D01*
X53500201Y14056539D01*
X52684680Y14218756D01*
X51869159Y14056539D01*
X51177793Y13594583D01*
X50715837Y12903217D01*
X50553620Y12087696D01*
X49911000Y12087696D01*
X49911000Y15007787D01*
X56603900Y15007787D01*
X56603900Y14044733D01*
X56693806Y13592746D01*
X56949836Y13209569D01*
X57333013Y12953539D01*
X57785000Y12863633D01*
X58236987Y12953539D01*
X58620164Y13209569D01*
X58876194Y13592746D01*
X58966100Y14044733D01*
X58966100Y15007787D01*
X59103260Y15007787D01*
X59103260Y14044733D01*
X59193166Y13592746D01*
X59449196Y13209569D01*
X59832373Y12953539D01*
X60284360Y12863633D01*
X60736347Y12953539D01*
X61117918Y13208496D01*
X60913937Y12903217D01*
X60751720Y12087696D01*
X60751720Y8435504D01*
X60913937Y7619983D01*
X61375893Y6928617D01*
X62067259Y6466661D01*
X62882780Y6304444D01*
X63698301Y6466661D01*
X64389667Y6928617D01*
X64761520Y7485135D01*
X71708882Y7485135D01*
X71812339Y7234748D01*
X72003741Y7043013D01*
X72253946Y6939118D01*
X72524865Y6938882D01*
X72775252Y7042339D01*
X72966987Y7233741D01*
X73070882Y7483946D01*
X73071118Y7754865D01*
X72967661Y8005252D01*
X72776259Y8196987D01*
X72526054Y8300882D01*
X72255135Y8301118D01*
X72004748Y8197661D01*
X71813013Y8006259D01*
X71709118Y7756054D01*
X71708882Y7485135D01*
X64761520Y7485135D01*
X64851623Y7619983D01*
X65013840Y8435504D01*
X65013840Y8755135D01*
X75518882Y8755135D01*
X75622339Y8504748D01*
X75813741Y8313013D01*
X76063946Y8209118D01*
X76334865Y8208882D01*
X76585252Y8312339D01*
X76776987Y8503741D01*
X76880882Y8753946D01*
X76881118Y9024865D01*
X76777661Y9275252D01*
X76586259Y9466987D01*
X76336054Y9570882D01*
X76065135Y9571118D01*
X75814748Y9467661D01*
X75623013Y9276259D01*
X75519118Y9026054D01*
X75518882Y8755135D01*
X65013840Y8755135D01*
X65013840Y12087696D01*
X64851623Y12903217D01*
X64653229Y13200135D01*
X72978882Y13200135D01*
X73082339Y12949748D01*
X73273741Y12758013D01*
X73523946Y12654118D01*
X73794865Y12653882D01*
X74045252Y12757339D01*
X74236987Y12948741D01*
X74340882Y13198946D01*
X74341118Y13469865D01*
X74237661Y13720252D01*
X74046259Y13911987D01*
X73796054Y14015882D01*
X73525135Y14016118D01*
X73274748Y13912661D01*
X73083013Y13721259D01*
X72979118Y13471054D01*
X72978882Y13200135D01*
X64653229Y13200135D01*
X64389667Y13594583D01*
X63698301Y14056539D01*
X62882780Y14218756D01*
X62067259Y14056539D01*
X61375923Y13594603D01*
X61465460Y14044733D01*
X61465460Y15007787D01*
X61375554Y15459774D01*
X61119524Y15842951D01*
X60736347Y16098981D01*
X60284360Y16188887D01*
X59832373Y16098981D01*
X59449196Y15842951D01*
X59193166Y15459774D01*
X59103260Y15007787D01*
X58966100Y15007787D01*
X58876194Y15459774D01*
X58620164Y15842951D01*
X58236987Y16098981D01*
X57785000Y16188887D01*
X57333013Y16098981D01*
X56949836Y15842951D01*
X56693806Y15459774D01*
X56603900Y15007787D01*
X49911000Y15007787D01*
X49911000Y16375135D01*
X69168882Y16375135D01*
X69272339Y16124748D01*
X69463741Y15933013D01*
X69713946Y15829118D01*
X69984865Y15828882D01*
X70235252Y15932339D01*
X70426987Y16123741D01*
X70530882Y16373946D01*
X70531118Y16644865D01*
X70427661Y16895252D01*
X70236259Y17086987D01*
X69986054Y17190882D01*
X69715135Y17191118D01*
X69464748Y17087661D01*
X69273013Y16896259D01*
X69169118Y16646054D01*
X69168882Y16375135D01*
X49911000Y16375135D01*
X49911000Y17645135D01*
X74248882Y17645135D01*
X74352339Y17394748D01*
X74543741Y17203013D01*
X74793946Y17099118D01*
X75064865Y17098882D01*
X75315252Y17202339D01*
X75506987Y17393741D01*
X75610882Y17643946D01*
X75611118Y17914865D01*
X75507661Y18165252D01*
X75316259Y18356987D01*
X75066054Y18460882D01*
X74795135Y18461118D01*
X74544748Y18357661D01*
X74353013Y18166259D01*
X74249118Y17916054D01*
X74248882Y17645135D01*
X49911000Y17645135D01*
X49911000Y18280135D01*
X53293882Y18280135D01*
X53397339Y18029748D01*
X53588741Y17838013D01*
X53838946Y17734118D01*
X54109865Y17733882D01*
X54360252Y17837339D01*
X54551987Y18028741D01*
X54655882Y18278946D01*
X54656118Y18549865D01*
X54552661Y18800252D01*
X54361259Y18991987D01*
X54111054Y19095882D01*
X53840135Y19096118D01*
X53589748Y18992661D01*
X53398013Y18801259D01*
X53294118Y18551054D01*
X53293882Y18280135D01*
X49911000Y18280135D01*
X49911000Y24630135D01*
X60913882Y24630135D01*
X61017339Y24379748D01*
X61208741Y24188013D01*
X61458946Y24084118D01*
X61729865Y24083882D01*
X61980252Y24187339D01*
X62171987Y24378741D01*
X62275882Y24628946D01*
X62276118Y24899865D01*
X62172661Y25150252D01*
X61981259Y25341987D01*
X61731054Y25445882D01*
X61460135Y25446118D01*
X61209748Y25342661D01*
X61018013Y25151259D01*
X60914118Y24901054D01*
X60913882Y24630135D01*
X49911000Y24630135D01*
X49911000Y25900135D01*
X58373882Y25900135D01*
X58477339Y25649748D01*
X58668741Y25458013D01*
X58918946Y25354118D01*
X59189865Y25353882D01*
X59440252Y25457339D01*
X59631987Y25648741D01*
X59735882Y25898946D01*
X59735883Y25900135D01*
X75518882Y25900135D01*
X75622339Y25649748D01*
X75813741Y25458013D01*
X76063946Y25354118D01*
X76334865Y25353882D01*
X76585252Y25457339D01*
X76776987Y25648741D01*
X76880882Y25898946D01*
X76881118Y26169865D01*
X76777661Y26420252D01*
X76586259Y26611987D01*
X76336054Y26715882D01*
X76065135Y26716118D01*
X75814748Y26612661D01*
X75623013Y26421259D01*
X75519118Y26171054D01*
X75518882Y25900135D01*
X59735883Y25900135D01*
X59736118Y26169865D01*
X59632661Y26420252D01*
X59441259Y26611987D01*
X59191054Y26715882D01*
X58920135Y26716118D01*
X58669748Y26612661D01*
X58478013Y26421259D01*
X58374118Y26171054D01*
X58373882Y25900135D01*
X49911000Y25900135D01*
X49911000Y27170135D01*
X69803882Y27170135D01*
X69907339Y26919748D01*
X70098741Y26728013D01*
X70348946Y26624118D01*
X70619865Y26623882D01*
X70870252Y26727339D01*
X71061987Y26918741D01*
X71165882Y27168946D01*
X71166118Y27439865D01*
X71062661Y27690252D01*
X70871259Y27881987D01*
X70621054Y27985882D01*
X70350135Y27986118D01*
X70099748Y27882661D01*
X69908013Y27691259D01*
X69804118Y27441054D01*
X69803882Y27170135D01*
X49911000Y27170135D01*
X49911000Y29075135D01*
X65993882Y29075135D01*
X66097339Y28824748D01*
X66288741Y28633013D01*
X66538946Y28529118D01*
X66809865Y28528882D01*
X67060252Y28632339D01*
X67251987Y28823741D01*
X67355882Y29073946D01*
X67356118Y29344865D01*
X67252661Y29595252D01*
X67061259Y29786987D01*
X66811054Y29890882D01*
X66540135Y29891118D01*
X66289748Y29787661D01*
X66098013Y29596259D01*
X65994118Y29346054D01*
X65993882Y29075135D01*
X49911000Y29075135D01*
X49911000Y29710135D01*
X58373882Y29710135D01*
X58477339Y29459748D01*
X58668741Y29268013D01*
X58918946Y29164118D01*
X59189865Y29163882D01*
X59440252Y29267339D01*
X59631987Y29458741D01*
X59735882Y29708946D01*
X59736118Y29979865D01*
X59632661Y30230252D01*
X59441259Y30421987D01*
X59191054Y30525882D01*
X58920135Y30526118D01*
X58669748Y30422661D01*
X58478013Y30231259D01*
X58374118Y29981054D01*
X58373882Y29710135D01*
X49911000Y29710135D01*
X49911000Y30980135D01*
X59643882Y30980135D01*
X59747339Y30729748D01*
X59938741Y30538013D01*
X60188946Y30434118D01*
X60459865Y30433882D01*
X60710252Y30537339D01*
X60901987Y30728741D01*
X61005882Y30978946D01*
X61006118Y31249865D01*
X60902661Y31500252D01*
X60711259Y31691987D01*
X60461054Y31795882D01*
X60190135Y31796118D01*
X59939748Y31692661D01*
X59748013Y31501259D01*
X59644118Y31251054D01*
X59643882Y30980135D01*
X49911000Y30980135D01*
X49911000Y36060135D01*
X52658882Y36060135D01*
X52762339Y35809748D01*
X52953741Y35618013D01*
X53203946Y35514118D01*
X53474865Y35513882D01*
X53725252Y35617339D01*
X53916987Y35808741D01*
X54020882Y36058946D01*
X54020883Y36060135D01*
X69803882Y36060135D01*
X69907339Y35809748D01*
X70098741Y35618013D01*
X70348946Y35514118D01*
X70619865Y35513882D01*
X70870252Y35617339D01*
X71061987Y35808741D01*
X71165882Y36058946D01*
X71166118Y36329865D01*
X71062661Y36580252D01*
X70871259Y36771987D01*
X70621054Y36875882D01*
X70350135Y36876118D01*
X70099748Y36772661D01*
X69908013Y36581259D01*
X69804118Y36331054D01*
X69803882Y36060135D01*
X54020883Y36060135D01*
X54021118Y36329865D01*
X53917661Y36580252D01*
X53802978Y36695135D01*
X62818882Y36695135D01*
X62922339Y36444748D01*
X63113741Y36253013D01*
X63363946Y36149118D01*
X63634865Y36148882D01*
X63885252Y36252339D01*
X64076987Y36443741D01*
X64180882Y36693946D01*
X64181118Y36964865D01*
X64077661Y37215252D01*
X63886259Y37406987D01*
X63636054Y37510882D01*
X63365135Y37511118D01*
X63114748Y37407661D01*
X62923013Y37216259D01*
X62819118Y36966054D01*
X62818882Y36695135D01*
X53802978Y36695135D01*
X53726259Y36771987D01*
X53476054Y36875882D01*
X53205135Y36876118D01*
X52954748Y36772661D01*
X52763013Y36581259D01*
X52659118Y36331054D01*
X52658882Y36060135D01*
X49911000Y36060135D01*
X49911000Y38600135D01*
X74248882Y38600135D01*
X74352339Y38349748D01*
X74543741Y38158013D01*
X74793946Y38054118D01*
X75064865Y38053882D01*
X75315252Y38157339D01*
X75506987Y38348741D01*
X75610882Y38598946D01*
X75611118Y38869865D01*
X75507661Y39120252D01*
X75316259Y39311987D01*
X75066054Y39415882D01*
X74795135Y39416118D01*
X74544748Y39312661D01*
X74353013Y39121259D01*
X74249118Y38871054D01*
X74248882Y38600135D01*
X49911000Y38600135D01*
X49911000Y39235135D01*
X53928882Y39235135D01*
X54032339Y38984748D01*
X54223741Y38793013D01*
X54473946Y38689118D01*
X54744865Y38688882D01*
X54995252Y38792339D01*
X55186987Y38983741D01*
X55290882Y39233946D01*
X55291118Y39504865D01*
X55187661Y39755252D01*
X54996259Y39946987D01*
X54746054Y40050882D01*
X54475135Y40051118D01*
X54224748Y39947661D01*
X54033013Y39756259D01*
X53929118Y39506054D01*
X53928882Y39235135D01*
X49911000Y39235135D01*
X49911000Y40505135D01*
X57738882Y40505135D01*
X57842339Y40254748D01*
X58033741Y40063013D01*
X58283946Y39959118D01*
X58554865Y39958882D01*
X58805252Y40062339D01*
X58996987Y40253741D01*
X59100882Y40503946D01*
X59101118Y40774865D01*
X58997661Y41025252D01*
X58806259Y41216987D01*
X58556054Y41320882D01*
X58285135Y41321118D01*
X58034748Y41217661D01*
X57843013Y41026259D01*
X57739118Y40776054D01*
X57738882Y40505135D01*
X49911000Y40505135D01*
X49911000Y43045135D01*
X56468882Y43045135D01*
X56572339Y42794748D01*
X56763741Y42603013D01*
X57013946Y42499118D01*
X57284865Y42498882D01*
X57535252Y42602339D01*
X57726987Y42793741D01*
X57830882Y43043946D01*
X57830883Y43045135D01*
X61548882Y43045135D01*
X61652339Y42794748D01*
X61843741Y42603013D01*
X62093946Y42499118D01*
X62364865Y42498882D01*
X62615252Y42602339D01*
X62806987Y42793741D01*
X62910882Y43043946D01*
X62911118Y43314865D01*
X62807661Y43565252D01*
X62616259Y43756987D01*
X62366054Y43860882D01*
X62095135Y43861118D01*
X61844748Y43757661D01*
X61653013Y43566259D01*
X61549118Y43316054D01*
X61548882Y43045135D01*
X57830883Y43045135D01*
X57831118Y43314865D01*
X57727661Y43565252D01*
X57536259Y43756987D01*
X57286054Y43860882D01*
X57015135Y43861118D01*
X56764748Y43757661D01*
X56573013Y43566259D01*
X56469118Y43316054D01*
X56468882Y43045135D01*
X49911000Y43045135D01*
X49911000Y44950135D01*
X61548882Y44950135D01*
X61652339Y44699748D01*
X61843741Y44508013D01*
X62093946Y44404118D01*
X62364865Y44403882D01*
X62615252Y44507339D01*
X62806987Y44698741D01*
X62910882Y44948946D01*
X62911118Y45219865D01*
X62807661Y45470252D01*
X62616259Y45661987D01*
X62366054Y45765882D01*
X62095135Y45766118D01*
X61844748Y45662661D01*
X61653013Y45471259D01*
X61549118Y45221054D01*
X61548882Y44950135D01*
X49911000Y44950135D01*
X49911000Y45585135D01*
X50118882Y45585135D01*
X50222339Y45334748D01*
X50413741Y45143013D01*
X50663946Y45039118D01*
X50934865Y45038882D01*
X51185252Y45142339D01*
X51376987Y45333741D01*
X51480882Y45583946D01*
X51481118Y45854865D01*
X51377661Y46105252D01*
X51186259Y46296987D01*
X50936054Y46400882D01*
X50665135Y46401118D01*
X50414748Y46297661D01*
X50223013Y46106259D01*
X50119118Y45856054D01*
X50118882Y45585135D01*
X49911000Y45585135D01*
X49911000Y47490135D01*
X62818882Y47490135D01*
X62894403Y47307359D01*
X62819118Y47126054D01*
X62818882Y46855135D01*
X62894403Y46672359D01*
X62819118Y46491054D01*
X62818882Y46220135D01*
X62922339Y45969748D01*
X63113741Y45778013D01*
X63363946Y45674118D01*
X63634865Y45673882D01*
X63885252Y45777339D01*
X64076987Y45968741D01*
X64180882Y46218946D01*
X64181118Y46489865D01*
X64105597Y46672641D01*
X64180882Y46853946D01*
X64181118Y47124865D01*
X64105597Y47307641D01*
X64180882Y47488946D01*
X64180883Y47490135D01*
X65358882Y47490135D01*
X65434403Y47307359D01*
X65359118Y47126054D01*
X65358882Y46855135D01*
X65434403Y46672359D01*
X65359118Y46491054D01*
X65358882Y46220135D01*
X65462339Y45969748D01*
X65653741Y45778013D01*
X65903946Y45674118D01*
X66174865Y45673882D01*
X66425252Y45777339D01*
X66616987Y45968741D01*
X66720882Y46218946D01*
X66721118Y46489865D01*
X66645597Y46672641D01*
X66720882Y46853946D01*
X66721118Y47124865D01*
X66645597Y47307641D01*
X66720882Y47488946D01*
X66721118Y47759865D01*
X66617661Y48010252D01*
X66426259Y48201987D01*
X66176054Y48305882D01*
X65905135Y48306118D01*
X65654748Y48202661D01*
X65463013Y48011259D01*
X65359118Y47761054D01*
X65358882Y47490135D01*
X64180883Y47490135D01*
X64181118Y47759865D01*
X64077661Y48010252D01*
X63886259Y48201987D01*
X63636054Y48305882D01*
X63365135Y48306118D01*
X63114748Y48202661D01*
X62923013Y48011259D01*
X62819118Y47761054D01*
X62818882Y47490135D01*
X49911000Y47490135D01*
X49911000Y49403000D01*
X57329966Y49403000D01*
X57208013Y49281259D01*
G36*
X79544000Y50292000D02*
X20955000Y50292000D01*
X20905590Y50281994D01*
X20863965Y50253553D01*
X20836685Y50211159D01*
X20828000Y50165000D01*
X20828000Y20683163D01*
X20780739Y20797543D01*
X20280173Y21298983D01*
X19625817Y21570695D01*
X18917291Y21571314D01*
X18262462Y21300744D01*
X17761022Y20800178D01*
X17489310Y20145822D01*
X17488691Y19437296D01*
X17759261Y18782467D01*
X18259827Y18281027D01*
X18914183Y18009315D01*
X19622709Y18008696D01*
X20277538Y18279266D01*
X20778978Y18779832D01*
X20828000Y18897890D01*
X20828000Y15003163D01*
X20780739Y15117543D01*
X20280173Y15618983D01*
X19625817Y15890695D01*
X18917291Y15891314D01*
X18262462Y15620744D01*
X17761022Y15120178D01*
X17489310Y14465822D01*
X17488691Y13757296D01*
X17759261Y13102467D01*
X18259827Y12601027D01*
X18914183Y12329315D01*
X19622709Y12328696D01*
X20277538Y12599266D01*
X20778978Y13099832D01*
X20828000Y13217890D01*
X20828000Y456000D01*
X456000Y456000D01*
X456000Y13757296D01*
X4348691Y13757296D01*
X4619261Y13102467D01*
X5119827Y12601027D01*
X5774183Y12329315D01*
X6482709Y12328696D01*
X7137538Y12599266D01*
X7638978Y13099832D01*
X7910690Y13754188D01*
X7911309Y14462714D01*
X7640739Y15117543D01*
X7140173Y15618983D01*
X6485817Y15890695D01*
X5777291Y15891314D01*
X5122462Y15620744D01*
X4621022Y15120178D01*
X4349310Y14465822D01*
X4348691Y13757296D01*
X456000Y13757296D01*
X456000Y16603944D01*
X8108811Y16603944D01*
X8274556Y16202810D01*
X8581191Y15895639D01*
X8982035Y15729195D01*
X9416061Y15728816D01*
X9817195Y15894561D01*
X10124366Y16201196D01*
X10290810Y16602040D01*
X10290811Y16603944D01*
X10608811Y16603944D01*
X10774556Y16202810D01*
X11081191Y15895639D01*
X11482035Y15729195D01*
X11916061Y15728816D01*
X12317195Y15894561D01*
X12624366Y16201196D01*
X12699980Y16383297D01*
X12774556Y16202810D01*
X13081191Y15895639D01*
X13482035Y15729195D01*
X13916061Y15728816D01*
X14317195Y15894561D01*
X14624366Y16201196D01*
X14790810Y16602040D01*
X14790811Y16603944D01*
X15108811Y16603944D01*
X15274556Y16202810D01*
X15581191Y15895639D01*
X15982035Y15729195D01*
X16416061Y15728816D01*
X16817195Y15894561D01*
X17124366Y16201196D01*
X17290810Y16602040D01*
X17291189Y17036066D01*
X17125444Y17437200D01*
X16818809Y17744371D01*
X16417965Y17910815D01*
X15983939Y17911194D01*
X15582805Y17745449D01*
X15275634Y17438814D01*
X15109190Y17037970D01*
X15108811Y16603944D01*
X14790811Y16603944D01*
X14791189Y17036066D01*
X14625444Y17437200D01*
X14318809Y17744371D01*
X13917965Y17910815D01*
X13483939Y17911194D01*
X13082805Y17745449D01*
X12775634Y17438814D01*
X12700020Y17256713D01*
X12625444Y17437200D01*
X12318809Y17744371D01*
X11917965Y17910815D01*
X11483939Y17911194D01*
X11082805Y17745449D01*
X10775634Y17438814D01*
X10609190Y17037970D01*
X10608811Y16603944D01*
X10290811Y16603944D01*
X10291189Y17036066D01*
X10125444Y17437200D01*
X9818809Y17744371D01*
X9417965Y17910815D01*
X8983939Y17911194D01*
X8582805Y17745449D01*
X8275634Y17438814D01*
X8109190Y17037970D01*
X8108811Y16603944D01*
X456000Y16603944D01*
X456000Y19437296D01*
X4348691Y19437296D01*
X4619261Y18782467D01*
X5119827Y18281027D01*
X5774183Y18009315D01*
X6482709Y18008696D01*
X7137538Y18279266D01*
X7638978Y18779832D01*
X7823389Y19223944D01*
X8108811Y19223944D01*
X8274556Y18822810D01*
X8581191Y18515639D01*
X8982035Y18349195D01*
X9416061Y18348816D01*
X9817195Y18514561D01*
X10124366Y18821196D01*
X10290810Y19222040D01*
X10290811Y19223944D01*
X10608811Y19223944D01*
X10774556Y18822810D01*
X11081191Y18515639D01*
X11482035Y18349195D01*
X11916061Y18348816D01*
X12317195Y18514561D01*
X12624366Y18821196D01*
X12699980Y19003297D01*
X12774556Y18822810D01*
X13081191Y18515639D01*
X13482035Y18349195D01*
X13916061Y18348816D01*
X14317195Y18514561D01*
X14624366Y18821196D01*
X14790810Y19222040D01*
X14790811Y19223944D01*
X15108811Y19223944D01*
X15274556Y18822810D01*
X15581191Y18515639D01*
X15982035Y18349195D01*
X16416061Y18348816D01*
X16817195Y18514561D01*
X17124366Y18821196D01*
X17290810Y19222040D01*
X17291189Y19656066D01*
X17125444Y20057200D01*
X16818809Y20364371D01*
X16417965Y20530815D01*
X15983939Y20531194D01*
X15582805Y20365449D01*
X15275634Y20058814D01*
X15109190Y19657970D01*
X15108811Y19223944D01*
X14790811Y19223944D01*
X14791189Y19656066D01*
X14625444Y20057200D01*
X14318809Y20364371D01*
X13917965Y20530815D01*
X13483939Y20531194D01*
X13082805Y20365449D01*
X12775634Y20058814D01*
X12700020Y19876713D01*
X12625444Y20057200D01*
X12318809Y20364371D01*
X11917965Y20530815D01*
X11483939Y20531194D01*
X11082805Y20365449D01*
X10775634Y20058814D01*
X10609190Y19657970D01*
X10608811Y19223944D01*
X10290811Y19223944D01*
X10291189Y19656066D01*
X10125444Y20057200D01*
X9818809Y20364371D01*
X9417965Y20530815D01*
X8983939Y20531194D01*
X8582805Y20365449D01*
X8275634Y20058814D01*
X8109190Y19657970D01*
X8108811Y19223944D01*
X7823389Y19223944D01*
X7910690Y19434188D01*
X7911309Y20142714D01*
X7640739Y20797543D01*
X7140173Y21298983D01*
X6485817Y21570695D01*
X5777291Y21571314D01*
X5122462Y21300744D01*
X4621022Y20800178D01*
X4349310Y20145822D01*
X4348691Y19437296D01*
X456000Y19437296D01*
X456000Y22725135D01*
X17733882Y22725135D01*
X17837339Y22474748D01*
X18028741Y22283013D01*
X18278946Y22179118D01*
X18549865Y22178882D01*
X18800252Y22282339D01*
X18991987Y22473741D01*
X19095882Y22723946D01*
X19096118Y22994865D01*
X18992661Y23245252D01*
X18801259Y23436987D01*
X18551054Y23540882D01*
X18280135Y23541118D01*
X18029748Y23437661D01*
X17838013Y23246259D01*
X17734118Y22996054D01*
X17733882Y22725135D01*
X456000Y22725135D01*
X456000Y26535135D01*
X14558882Y26535135D01*
X14662339Y26284748D01*
X14853741Y26093013D01*
X15103946Y25989118D01*
X15374865Y25988882D01*
X15625252Y26092339D01*
X15816987Y26283741D01*
X15920882Y26533946D01*
X15921118Y26804865D01*
X15817661Y27055252D01*
X15626259Y27246987D01*
X15376054Y27350882D01*
X15105135Y27351118D01*
X14854748Y27247661D01*
X14663013Y27056259D01*
X14559118Y26806054D01*
X14558882Y26535135D01*
X456000Y26535135D01*
X456000Y34155135D01*
X15828882Y34155135D01*
X15932339Y33904748D01*
X16123741Y33713013D01*
X16373946Y33609118D01*
X16644865Y33608882D01*
X16895252Y33712339D01*
X17086987Y33903741D01*
X17190882Y34153946D01*
X17191118Y34424865D01*
X17087661Y34675252D01*
X16896259Y34866987D01*
X16646054Y34970882D01*
X16375135Y34971118D01*
X16124748Y34867661D01*
X15933013Y34676259D01*
X15829118Y34426054D01*
X15828882Y34155135D01*
X456000Y34155135D01*
X456000Y37330135D01*
X17733882Y37330135D01*
X17837339Y37079748D01*
X18028741Y36888013D01*
X18278946Y36784118D01*
X18549865Y36783882D01*
X18800252Y36887339D01*
X18991987Y37078741D01*
X19095882Y37328946D01*
X19096118Y37599865D01*
X18992661Y37850252D01*
X18801259Y38041987D01*
X18551054Y38145882D01*
X18280135Y38146118D01*
X18029748Y38042661D01*
X17838013Y37851259D01*
X17734118Y37601054D01*
X17733882Y37330135D01*
X456000Y37330135D01*
X456000Y43680135D01*
X17733882Y43680135D01*
X17837339Y43429748D01*
X18028741Y43238013D01*
X18278946Y43134118D01*
X18549865Y43133882D01*
X18800252Y43237339D01*
X18991987Y43428741D01*
X19095882Y43678946D01*
X19096118Y43949865D01*
X18992661Y44200252D01*
X18801259Y44391987D01*
X18551054Y44495882D01*
X18280135Y44496118D01*
X18029748Y44392661D01*
X17838013Y44201259D01*
X17734118Y43951054D01*
X17733882Y43680135D01*
X456000Y43680135D01*
X456000Y47490135D01*
X15193882Y47490135D01*
X15297339Y47239748D01*
X15488741Y47048013D01*
X15738946Y46944118D01*
X16009865Y46943882D01*
X16260252Y47047339D01*
X16451987Y47238741D01*
X16555882Y47488946D01*
X16556118Y47759865D01*
X16452661Y48010252D01*
X16337978Y48125135D01*
X17098882Y48125135D01*
X17202339Y47874748D01*
X17393741Y47683013D01*
X17643946Y47579118D01*
X17914865Y47578882D01*
X18165252Y47682339D01*
X18356987Y47873741D01*
X18460882Y48123946D01*
X18461118Y48394865D01*
X18357661Y48645252D01*
X18166259Y48836987D01*
X17916054Y48940882D01*
X17645135Y48941118D01*
X17394748Y48837661D01*
X17203013Y48646259D01*
X17099118Y48396054D01*
X17098882Y48125135D01*
X16337978Y48125135D01*
X16261259Y48201987D01*
X16011054Y48305882D01*
X15740135Y48306118D01*
X15489748Y48202661D01*
X15298013Y48011259D01*
X15194118Y47761054D01*
X15193882Y47490135D01*
X456000Y47490135D01*
X456000Y48760135D01*
X8208882Y48760135D01*
X8312339Y48509748D01*
X8503741Y48318013D01*
X8753946Y48214118D01*
X9024865Y48213882D01*
X9207641Y48289403D01*
X9388946Y48214118D01*
X9659865Y48213882D01*
X9910252Y48317339D01*
X10101987Y48508741D01*
X10205882Y48758946D01*
X10206118Y49029865D01*
X10102661Y49280252D01*
X9911259Y49471987D01*
X9661054Y49575882D01*
X9390135Y49576118D01*
X9207359Y49500597D01*
X9026054Y49575882D01*
X8755135Y49576118D01*
X8504748Y49472661D01*
X8313013Y49281259D01*
X8209118Y49031054D01*
X8208882Y48760135D01*
X456000Y48760135D01*
X456000Y51300135D01*
X8208882Y51300135D01*
X8312339Y51049748D01*
X8503741Y50858013D01*
X8753946Y50754118D01*
X9024865Y50753882D01*
X9207641Y50829403D01*
X9388946Y50754118D01*
X9659865Y50753882D01*
X9842641Y50829403D01*
X9913485Y50799986D01*
X9774748Y50742661D01*
X9583013Y50551259D01*
X9479118Y50301054D01*
X9478882Y50030135D01*
X9582339Y49779748D01*
X9773741Y49588013D01*
X10023946Y49484118D01*
X10294865Y49483882D01*
X10545252Y49587339D01*
X10736987Y49778741D01*
X10840882Y50028946D01*
X10840883Y50030135D01*
X12018882Y50030135D01*
X12122339Y49779748D01*
X12313741Y49588013D01*
X12563946Y49484118D01*
X12834865Y49483882D01*
X13085252Y49587339D01*
X13276987Y49778741D01*
X13380882Y50028946D01*
X13381118Y50299865D01*
X13277661Y50550252D01*
X13086259Y50741987D01*
X12836054Y50845882D01*
X12565135Y50846118D01*
X12314748Y50742661D01*
X12123013Y50551259D01*
X12019118Y50301054D01*
X12018882Y50030135D01*
X10840883Y50030135D01*
X10841118Y50299865D01*
X10737661Y50550252D01*
X10546259Y50741987D01*
X10406515Y50800014D01*
X10545252Y50857339D01*
X10736987Y51048741D01*
X10840882Y51298946D01*
X10840883Y51300135D01*
X14558882Y51300135D01*
X14662339Y51049748D01*
X14853741Y50858013D01*
X15103946Y50754118D01*
X15374865Y50753882D01*
X15625252Y50857339D01*
X15816987Y51048741D01*
X15920882Y51298946D01*
X15921118Y51569865D01*
X15817661Y51820252D01*
X15626259Y52011987D01*
X15376054Y52115882D01*
X15105135Y52116118D01*
X14854748Y52012661D01*
X14663013Y51821259D01*
X14559118Y51571054D01*
X14558882Y51300135D01*
X10840883Y51300135D01*
X10841118Y51569865D01*
X10737661Y51820252D01*
X10546259Y52011987D01*
X10296054Y52115882D01*
X10025135Y52116118D01*
X9842359Y52040597D01*
X9661054Y52115882D01*
X9390135Y52116118D01*
X9207359Y52040597D01*
X9026054Y52115882D01*
X8755135Y52116118D01*
X8504748Y52012661D01*
X8313013Y51821259D01*
X8209118Y51571054D01*
X8208882Y51300135D01*
X456000Y51300135D01*
X456000Y53205135D01*
X9478882Y53205135D01*
X9582339Y52954748D01*
X9773741Y52763013D01*
X10023946Y52659118D01*
X10294865Y52658882D01*
X10545252Y52762339D01*
X10597539Y52814536D01*
X14558882Y52814536D01*
X14662339Y52564149D01*
X14853741Y52372414D01*
X15103946Y52268519D01*
X15374865Y52268283D01*
X15625252Y52371740D01*
X15816987Y52563142D01*
X15819890Y52570135D01*
X30433882Y52570135D01*
X30537339Y52319748D01*
X30728741Y52128013D01*
X30978946Y52024118D01*
X31249865Y52023882D01*
X31500252Y52127339D01*
X31691987Y52318741D01*
X31795882Y52568946D01*
X31795883Y52570135D01*
X48848882Y52570135D01*
X48952339Y52319748D01*
X49143741Y52128013D01*
X49393946Y52024118D01*
X49664865Y52023882D01*
X49915252Y52127339D01*
X50106987Y52318741D01*
X50210882Y52568946D01*
X50210883Y52570135D01*
X58373882Y52570135D01*
X58477339Y52319748D01*
X58668741Y52128013D01*
X58918946Y52024118D01*
X59189865Y52023882D01*
X59440252Y52127339D01*
X59631987Y52318741D01*
X59735882Y52568946D01*
X59736118Y52839865D01*
X59632661Y53090252D01*
X59441259Y53281987D01*
X59191054Y53385882D01*
X58920135Y53386118D01*
X58669748Y53282661D01*
X58478013Y53091259D01*
X58374118Y52841054D01*
X58373882Y52570135D01*
X50210883Y52570135D01*
X50211118Y52839865D01*
X50107661Y53090252D01*
X49992978Y53205135D01*
X50118882Y53205135D01*
X50222339Y52954748D01*
X50413741Y52763013D01*
X50663946Y52659118D01*
X50934865Y52658882D01*
X51185252Y52762339D01*
X51376987Y52953741D01*
X51480882Y53203946D01*
X51481118Y53474865D01*
X51377661Y53725252D01*
X51262978Y53840135D01*
X53293882Y53840135D01*
X53397339Y53589748D01*
X53588741Y53398013D01*
X53838946Y53294118D01*
X54109865Y53293882D01*
X54360252Y53397339D01*
X54551987Y53588741D01*
X54655882Y53838946D01*
X54656118Y54109865D01*
X54552661Y54360252D01*
X54361259Y54551987D01*
X54111054Y54655882D01*
X53840135Y54656118D01*
X53589748Y54552661D01*
X53398013Y54361259D01*
X53294118Y54111054D01*
X53293882Y53840135D01*
X51262978Y53840135D01*
X51186259Y53916987D01*
X50936054Y54020882D01*
X50665135Y54021118D01*
X50414748Y53917661D01*
X50223013Y53726259D01*
X50119118Y53476054D01*
X50118882Y53205135D01*
X49992978Y53205135D01*
X49916259Y53281987D01*
X49666054Y53385882D01*
X49395135Y53386118D01*
X49144748Y53282661D01*
X48953013Y53091259D01*
X48849118Y52841054D01*
X48848882Y52570135D01*
X31795883Y52570135D01*
X31796118Y52839865D01*
X31692661Y53090252D01*
X31501259Y53281987D01*
X31251054Y53385882D01*
X30980135Y53386118D01*
X30729748Y53282661D01*
X30538013Y53091259D01*
X30434118Y52841054D01*
X30433882Y52570135D01*
X15819890Y52570135D01*
X15920882Y52813347D01*
X15921118Y53084266D01*
X15885017Y53171638D01*
X17582982Y53171638D01*
X17686439Y52921251D01*
X17877841Y52729516D01*
X18128046Y52625621D01*
X18398965Y52625385D01*
X18649352Y52728842D01*
X18677754Y52757194D01*
X18913946Y52659118D01*
X19184865Y52658882D01*
X19435252Y52762339D01*
X19626987Y52953741D01*
X19730882Y53203946D01*
X19730883Y53205135D01*
X22178882Y53205135D01*
X22282339Y52954748D01*
X22473741Y52763013D01*
X22723946Y52659118D01*
X22994865Y52658882D01*
X23245252Y52762339D01*
X23436987Y52953741D01*
X23495014Y53093485D01*
X23552339Y52954748D01*
X23743741Y52763013D01*
X23993946Y52659118D01*
X24264865Y52658882D01*
X24515252Y52762339D01*
X24706987Y52953741D01*
X24765014Y53093485D01*
X24822339Y52954748D01*
X25013741Y52763013D01*
X25263946Y52659118D01*
X25534865Y52658882D01*
X25785252Y52762339D01*
X25976987Y52953741D01*
X26080882Y53203946D01*
X26081118Y53474865D01*
X25977661Y53725252D01*
X25786259Y53916987D01*
X25536054Y54020882D01*
X25265135Y54021118D01*
X25014748Y53917661D01*
X24823013Y53726259D01*
X24764986Y53586515D01*
X24707661Y53725252D01*
X24516259Y53916987D01*
X24266054Y54020882D01*
X23995135Y54021118D01*
X23744748Y53917661D01*
X23553013Y53726259D01*
X23494986Y53586515D01*
X23437661Y53725252D01*
X23246259Y53916987D01*
X22996054Y54020882D01*
X22725135Y54021118D01*
X22474748Y53917661D01*
X22283013Y53726259D01*
X22179118Y53476054D01*
X22178882Y53205135D01*
X19730883Y53205135D01*
X19731118Y53474865D01*
X19627661Y53725252D01*
X19436259Y53916987D01*
X19296515Y53975014D01*
X19435252Y54032339D01*
X19626987Y54223741D01*
X19730882Y54473946D01*
X19730883Y54475135D01*
X32338882Y54475135D01*
X32442339Y54224748D01*
X32633741Y54033013D01*
X32883946Y53929118D01*
X33154865Y53928882D01*
X33405252Y54032339D01*
X33596987Y54223741D01*
X33700882Y54473946D01*
X33701118Y54744865D01*
X33597661Y54995252D01*
X33482978Y55110135D01*
X34878882Y55110135D01*
X34954403Y54927359D01*
X34879118Y54746054D01*
X34878882Y54475135D01*
X34954403Y54292359D01*
X34879118Y54111054D01*
X34878882Y53840135D01*
X34982339Y53589748D01*
X35173741Y53398013D01*
X35423946Y53294118D01*
X35694865Y53293882D01*
X35945252Y53397339D01*
X36136987Y53588741D01*
X36240882Y53838946D01*
X36241118Y54109865D01*
X36165597Y54292641D01*
X36240882Y54473946D01*
X36241118Y54744865D01*
X36165597Y54927641D01*
X36240882Y55108946D01*
X36240883Y55110135D01*
X37418882Y55110135D01*
X37494403Y54927359D01*
X37419118Y54746054D01*
X37418882Y54475135D01*
X37494403Y54292359D01*
X37419118Y54111054D01*
X37418882Y53840135D01*
X37522339Y53589748D01*
X37713741Y53398013D01*
X37963946Y53294118D01*
X38234865Y53293882D01*
X38485252Y53397339D01*
X38676987Y53588741D01*
X38780882Y53838946D01*
X38781118Y54109865D01*
X38705597Y54292641D01*
X38780882Y54473946D01*
X38781118Y54744865D01*
X38705597Y54927641D01*
X38780882Y55108946D01*
X38780883Y55110135D01*
X60913882Y55110135D01*
X61017339Y54859748D01*
X61208741Y54668013D01*
X61458946Y54564118D01*
X61729865Y54563882D01*
X61980252Y54667339D01*
X62171987Y54858741D01*
X62275882Y55108946D01*
X62275883Y55110135D01*
X62818882Y55110135D01*
X62894403Y54927359D01*
X62819118Y54746054D01*
X62818882Y54475135D01*
X62894403Y54292359D01*
X62819118Y54111054D01*
X62818882Y53840135D01*
X62922339Y53589748D01*
X63113741Y53398013D01*
X63363946Y53294118D01*
X63634865Y53293882D01*
X63885252Y53397339D01*
X64076987Y53588741D01*
X64180882Y53838946D01*
X64181118Y54109865D01*
X64105597Y54292641D01*
X64180882Y54473946D01*
X64181118Y54744865D01*
X64105597Y54927641D01*
X64180882Y55108946D01*
X64180883Y55110135D01*
X65358882Y55110135D01*
X65434403Y54927359D01*
X65359118Y54746054D01*
X65358882Y54475135D01*
X65434403Y54292359D01*
X65359118Y54111054D01*
X65358882Y53840135D01*
X65462339Y53589748D01*
X65653741Y53398013D01*
X65903946Y53294118D01*
X66174865Y53293882D01*
X66425252Y53397339D01*
X66616987Y53588741D01*
X66720882Y53838946D01*
X66721118Y54109865D01*
X66645597Y54292641D01*
X66720882Y54473946D01*
X66721118Y54744865D01*
X66645597Y54927641D01*
X66720882Y55108946D01*
X66721118Y55379865D01*
X66617661Y55630252D01*
X66426259Y55821987D01*
X66176054Y55925882D01*
X65905135Y55926118D01*
X65654748Y55822661D01*
X65463013Y55631259D01*
X65359118Y55381054D01*
X65358882Y55110135D01*
X64180883Y55110135D01*
X64181118Y55379865D01*
X64077661Y55630252D01*
X63886259Y55821987D01*
X63636054Y55925882D01*
X63365135Y55926118D01*
X63114748Y55822661D01*
X62923013Y55631259D01*
X62819118Y55381054D01*
X62818882Y55110135D01*
X62275883Y55110135D01*
X62276118Y55379865D01*
X62172661Y55630252D01*
X61981259Y55821987D01*
X61731054Y55925882D01*
X61460135Y55926118D01*
X61209748Y55822661D01*
X61018013Y55631259D01*
X60914118Y55381054D01*
X60913882Y55110135D01*
X38780883Y55110135D01*
X38781118Y55379865D01*
X38677661Y55630252D01*
X38486259Y55821987D01*
X38236054Y55925882D01*
X37965135Y55926118D01*
X37714748Y55822661D01*
X37523013Y55631259D01*
X37419118Y55381054D01*
X37418882Y55110135D01*
X36240883Y55110135D01*
X36241118Y55379865D01*
X36137661Y55630252D01*
X35946259Y55821987D01*
X35696054Y55925882D01*
X35425135Y55926118D01*
X35174748Y55822661D01*
X34983013Y55631259D01*
X34879118Y55381054D01*
X34878882Y55110135D01*
X33482978Y55110135D01*
X33406259Y55186987D01*
X33156054Y55290882D01*
X32885135Y55291118D01*
X32634748Y55187661D01*
X32443013Y54996259D01*
X32339118Y54746054D01*
X32338882Y54475135D01*
X19730883Y54475135D01*
X19731118Y54744865D01*
X19627661Y54995252D01*
X19436259Y55186987D01*
X19186054Y55290882D01*
X18915135Y55291118D01*
X18664748Y55187661D01*
X18473013Y54996259D01*
X18369118Y54746054D01*
X18368882Y54475135D01*
X18472339Y54224748D01*
X18663741Y54033013D01*
X18803485Y53974986D01*
X18664748Y53917661D01*
X18636346Y53889309D01*
X18400154Y53987385D01*
X18129235Y53987621D01*
X17878848Y53884164D01*
X17687113Y53692762D01*
X17583218Y53442557D01*
X17582982Y53171638D01*
X15885017Y53171638D01*
X15817661Y53334653D01*
X15626259Y53526388D01*
X15376054Y53630283D01*
X15105135Y53630519D01*
X14854748Y53527062D01*
X14663013Y53335660D01*
X14559118Y53085455D01*
X14558882Y52814536D01*
X10597539Y52814536D01*
X10736987Y52953741D01*
X10840882Y53203946D01*
X10841118Y53474865D01*
X10737661Y53725252D01*
X10546259Y53916987D01*
X10296054Y54020882D01*
X10025135Y54021118D01*
X9774748Y53917661D01*
X9583013Y53726259D01*
X9479118Y53476054D01*
X9478882Y53205135D01*
X456000Y53205135D01*
X456000Y53840135D01*
X3763882Y53840135D01*
X3867339Y53589748D01*
X4058741Y53398013D01*
X4308946Y53294118D01*
X4579865Y53293882D01*
X4830252Y53397339D01*
X5021987Y53588741D01*
X5125882Y53838946D01*
X5126118Y54109865D01*
X5022661Y54360252D01*
X4831259Y54551987D01*
X4581054Y54655882D01*
X4310135Y54656118D01*
X4059748Y54552661D01*
X3868013Y54361259D01*
X3764118Y54111054D01*
X3763882Y53840135D01*
X456000Y53840135D01*
X456000Y57015135D01*
X8208882Y57015135D01*
X8312339Y56764748D01*
X8503741Y56573013D01*
X8753946Y56469118D01*
X9024865Y56468882D01*
X9275252Y56572339D01*
X9466987Y56763741D01*
X9562558Y56993902D01*
X19539932Y56993902D01*
X19643389Y56743515D01*
X19834791Y56551780D01*
X20084996Y56447885D01*
X20355915Y56447649D01*
X20606302Y56551106D01*
X20798037Y56742508D01*
X20901932Y56992713D01*
X20901951Y57015135D01*
X22813882Y57015135D01*
X22917339Y56764748D01*
X23108741Y56573013D01*
X23358946Y56469118D01*
X23629865Y56468882D01*
X23880252Y56572339D01*
X24071987Y56763741D01*
X24175882Y57013946D01*
X24175960Y57103959D01*
X24264865Y57103882D01*
X24515252Y57207339D01*
X24706987Y57398741D01*
X24810882Y57648946D01*
X24811118Y57919865D01*
X24707661Y58170252D01*
X24588186Y58289935D01*
X24718882Y58289935D01*
X24822339Y58039548D01*
X25013741Y57847813D01*
X25263946Y57743918D01*
X25534865Y57743682D01*
X25785252Y57847139D01*
X25976987Y58038541D01*
X26034020Y58175891D01*
X26092339Y58034748D01*
X26283741Y57843013D01*
X26533946Y57739118D01*
X26804865Y57738882D01*
X27055252Y57842339D01*
X27246987Y58033741D01*
X27350882Y58283946D01*
X27351085Y58516674D01*
X27563252Y58604339D01*
X27754987Y58795741D01*
X27858882Y59045946D01*
X27859071Y59263070D01*
X28074865Y59262882D01*
X28325252Y59366339D01*
X28514376Y59555135D01*
X74883882Y59555135D01*
X74987339Y59304748D01*
X75178741Y59113013D01*
X75428946Y59009118D01*
X75699865Y59008882D01*
X75950252Y59112339D01*
X76141987Y59303741D01*
X76245882Y59553946D01*
X76246118Y59824865D01*
X76142661Y60075252D01*
X75951259Y60266987D01*
X75701054Y60370882D01*
X75430135Y60371118D01*
X75179748Y60267661D01*
X74988013Y60076259D01*
X74884118Y59826054D01*
X74883882Y59555135D01*
X28514376Y59555135D01*
X28516987Y59557741D01*
X28620882Y59807946D01*
X28621118Y60078865D01*
X28517661Y60329252D01*
X28326259Y60520987D01*
X28076054Y60624882D01*
X27805135Y60625118D01*
X27554748Y60521661D01*
X27363013Y60330259D01*
X27259118Y60080054D01*
X27258929Y59862930D01*
X27043135Y59863118D01*
X26792748Y59759661D01*
X26601013Y59568259D01*
X26497118Y59318054D01*
X26496915Y59085326D01*
X26284748Y58997661D01*
X26093013Y58806259D01*
X26035980Y58668909D01*
X25977661Y58810052D01*
X25786259Y59001787D01*
X25536054Y59105682D01*
X25265135Y59105918D01*
X25014748Y59002461D01*
X24823013Y58811059D01*
X24719118Y58560854D01*
X24718882Y58289935D01*
X24588186Y58289935D01*
X24516259Y58361987D01*
X24266054Y58465882D01*
X23995135Y58466118D01*
X23744748Y58362661D01*
X23553013Y58171259D01*
X23449118Y57921054D01*
X23449040Y57831041D01*
X23360135Y57831118D01*
X23109748Y57727661D01*
X22918013Y57536259D01*
X22814118Y57286054D01*
X22813882Y57015135D01*
X20901951Y57015135D01*
X20902168Y57263632D01*
X20798711Y57514019D01*
X20607309Y57705754D01*
X20357104Y57809649D01*
X20086185Y57809885D01*
X19835798Y57706428D01*
X19644063Y57515026D01*
X19540168Y57264821D01*
X19539932Y56993902D01*
X9562558Y56993902D01*
X9570882Y57013946D01*
X9571118Y57284865D01*
X9467661Y57535252D01*
X9276259Y57726987D01*
X9026054Y57830882D01*
X8755135Y57831118D01*
X8504748Y57727661D01*
X8313013Y57536259D01*
X8209118Y57286054D01*
X8208882Y57015135D01*
X456000Y57015135D01*
X456000Y59555135D01*
X14558882Y59555135D01*
X14662339Y59304748D01*
X14853741Y59113013D01*
X15103946Y59009118D01*
X15374865Y59008882D01*
X15625252Y59112339D01*
X15816987Y59303741D01*
X15920882Y59553946D01*
X15921118Y59824865D01*
X15817661Y60075252D01*
X15626259Y60266987D01*
X15376054Y60370882D01*
X15105135Y60371118D01*
X14854748Y60267661D01*
X14663013Y60076259D01*
X14559118Y59826054D01*
X14558882Y59555135D01*
X456000Y59555135D01*
X456000Y61333135D01*
X23956882Y61333135D01*
X24060339Y61082748D01*
X24251741Y60891013D01*
X24501946Y60787118D01*
X24772865Y60786882D01*
X25023252Y60890339D01*
X25214987Y61081741D01*
X25318882Y61331946D01*
X25318993Y61460135D01*
X56468882Y61460135D01*
X56572339Y61209748D01*
X56763741Y61018013D01*
X57013946Y60914118D01*
X57284865Y60913882D01*
X57535252Y61017339D01*
X57726987Y61208741D01*
X57830882Y61458946D01*
X57831118Y61729865D01*
X57727661Y61980252D01*
X57536259Y62171987D01*
X57286054Y62275882D01*
X57015135Y62276118D01*
X56764748Y62172661D01*
X56573013Y61981259D01*
X56469118Y61731054D01*
X56468882Y61460135D01*
X25318993Y61460135D01*
X25319118Y61602865D01*
X25215661Y61853252D01*
X25024259Y62044987D01*
X24774054Y62148882D01*
X24503135Y62149118D01*
X24252748Y62045661D01*
X24061013Y61854259D01*
X23957118Y61604054D01*
X23956882Y61333135D01*
X456000Y61333135D01*
X456000Y62730135D01*
X16316930Y62730135D01*
X16420387Y62479748D01*
X16611789Y62288013D01*
X16861994Y62184118D01*
X17132913Y62183882D01*
X17383300Y62287339D01*
X17575035Y62478741D01*
X17678930Y62728946D01*
X17679166Y62999865D01*
X17575709Y63250252D01*
X17461026Y63365135D01*
X26623882Y63365135D01*
X26727339Y63114748D01*
X26918741Y62923013D01*
X27168946Y62819118D01*
X27258959Y62819040D01*
X27258882Y62730135D01*
X27362339Y62479748D01*
X27553741Y62288013D01*
X27803946Y62184118D01*
X28074865Y62183882D01*
X28325252Y62287339D01*
X28516987Y62478741D01*
X28620882Y62728946D01*
X28621118Y62999865D01*
X28517661Y63250252D01*
X28326259Y63441987D01*
X28076054Y63545882D01*
X27986041Y63545960D01*
X27986118Y63634865D01*
X27882661Y63885252D01*
X27691259Y64076987D01*
X27441054Y64180882D01*
X27170135Y64181118D01*
X26919748Y64077661D01*
X26728013Y63886259D01*
X26624118Y63636054D01*
X26623882Y63365135D01*
X17461026Y63365135D01*
X17384307Y63441987D01*
X17134102Y63545882D01*
X16863183Y63546118D01*
X16612796Y63442661D01*
X16421061Y63251259D01*
X16317166Y63001054D01*
X16316930Y62730135D01*
X456000Y62730135D01*
X456000Y66555000D01*
X3541536Y66555000D01*
X3541536Y64255000D01*
X3568103Y64113810D01*
X3651546Y63984135D01*
X3778866Y63897141D01*
X3930000Y63866536D01*
X6230000Y63866536D01*
X6371190Y63893103D01*
X6500865Y63976546D01*
X6587859Y64103866D01*
X6616146Y64243555D01*
X6751626Y64107838D01*
X7314129Y63874266D01*
X7923199Y63873735D01*
X8486109Y64106325D01*
X8917162Y64536626D01*
X8958525Y64636240D01*
X20189932Y64636240D01*
X20293389Y64385853D01*
X20484791Y64194118D01*
X20734996Y64090223D01*
X21005915Y64089987D01*
X21256302Y64193444D01*
X21448037Y64384846D01*
X21551932Y64635051D01*
X21551932Y64635135D01*
X34878882Y64635135D01*
X34982339Y64384748D01*
X35173741Y64193013D01*
X35423946Y64089118D01*
X35694865Y64088882D01*
X35787445Y64127135D01*
X36402882Y64127135D01*
X36506339Y63876748D01*
X36697741Y63685013D01*
X36947946Y63581118D01*
X37218865Y63580882D01*
X37469252Y63684339D01*
X37660987Y63875741D01*
X37764882Y64125946D01*
X37765118Y64396865D01*
X37661661Y64647252D01*
X37470259Y64838987D01*
X37220054Y64942882D01*
X36949135Y64943118D01*
X36698748Y64839661D01*
X36507013Y64648259D01*
X36403118Y64398054D01*
X36402882Y64127135D01*
X35787445Y64127135D01*
X35945252Y64192339D01*
X36136987Y64383741D01*
X36240882Y64633946D01*
X36241118Y64904865D01*
X36137661Y65155252D01*
X35946259Y65346987D01*
X35696054Y65450882D01*
X35425135Y65451118D01*
X35174748Y65347661D01*
X34983013Y65156259D01*
X34879118Y64906054D01*
X34878882Y64635135D01*
X21551932Y64635135D01*
X21552168Y64905970D01*
X21448711Y65156357D01*
X21257309Y65348092D01*
X21007104Y65451987D01*
X20736185Y65452223D01*
X20485798Y65348766D01*
X20294063Y65157364D01*
X20190168Y64907159D01*
X20189932Y64636240D01*
X8958525Y64636240D01*
X9150734Y65099129D01*
X9151156Y65584263D01*
X36759534Y65584263D01*
X36862991Y65333876D01*
X37054393Y65142141D01*
X37304598Y65038246D01*
X37575517Y65038010D01*
X37825904Y65141467D01*
X38017639Y65332869D01*
X38121534Y65583074D01*
X38121770Y65853993D01*
X38018313Y66104380D01*
X37826911Y66296115D01*
X37576706Y66400010D01*
X37305787Y66400246D01*
X37055400Y66296789D01*
X36863665Y66105387D01*
X36759770Y65855182D01*
X36759534Y65584263D01*
X9151156Y65584263D01*
X9151265Y65708199D01*
X8918675Y66271109D01*
X8650119Y66540135D01*
X19003882Y66540135D01*
X19107339Y66289748D01*
X19298741Y66098013D01*
X19548946Y65994118D01*
X19819865Y65993882D01*
X20070252Y66097339D01*
X20261987Y66288741D01*
X20365882Y66538946D01*
X20366118Y66809865D01*
X20262661Y67060252D01*
X20071259Y67251987D01*
X19821054Y67355882D01*
X19550135Y67356118D01*
X19299748Y67252661D01*
X19108013Y67061259D01*
X19004118Y66811054D01*
X19003882Y66540135D01*
X8650119Y66540135D01*
X8488374Y66702162D01*
X7925871Y66935734D01*
X7316801Y66936265D01*
X6753891Y66703675D01*
X6616328Y66566352D01*
X6591897Y66696190D01*
X6508454Y66825865D01*
X6381134Y66912859D01*
X6230000Y66943464D01*
X3930000Y66943464D01*
X3788810Y66916897D01*
X3659135Y66833454D01*
X3572141Y66706134D01*
X3541536Y66555000D01*
X456000Y66555000D01*
X456000Y68160000D01*
X32416536Y68160000D01*
X32416536Y66460000D01*
X32443103Y66318810D01*
X32526546Y66189135D01*
X32653866Y66102141D01*
X32805000Y66071536D01*
X34505000Y66071536D01*
X34646190Y66098103D01*
X34775865Y66181546D01*
X34862859Y66308866D01*
X34893464Y66460000D01*
X34893464Y67334117D01*
X37504000Y67334117D01*
X37504000Y67285883D01*
X37597704Y66814800D01*
X37864552Y66415435D01*
X38263917Y66148587D01*
X38735000Y66054883D01*
X39206083Y66148587D01*
X39605448Y66415435D01*
X39872296Y66814800D01*
X39966000Y67285883D01*
X39966000Y67334117D01*
X40044000Y67334117D01*
X40044000Y67285883D01*
X40137704Y66814800D01*
X40404552Y66415435D01*
X40803917Y66148587D01*
X41275000Y66054883D01*
X41746083Y66148587D01*
X42145448Y66415435D01*
X42412296Y66814800D01*
X42506000Y67285883D01*
X42506000Y67334117D01*
X42584000Y67334117D01*
X42584000Y67285883D01*
X42677704Y66814800D01*
X42944552Y66415435D01*
X43343917Y66148587D01*
X43815000Y66054883D01*
X44286083Y66148587D01*
X44685448Y66415435D01*
X44952296Y66814800D01*
X45046000Y67285883D01*
X45046000Y67334117D01*
X45124000Y67334117D01*
X45124000Y67285883D01*
X45217704Y66814800D01*
X45484552Y66415435D01*
X45883917Y66148587D01*
X46355000Y66054883D01*
X46826083Y66148587D01*
X47225448Y66415435D01*
X47492296Y66814800D01*
X47586000Y67285883D01*
X47586000Y67334117D01*
X47492296Y67805200D01*
X47225448Y68204565D01*
X46826083Y68471413D01*
X46355000Y68565117D01*
X45883917Y68471413D01*
X45484552Y68204565D01*
X45217704Y67805200D01*
X45124000Y67334117D01*
X45046000Y67334117D01*
X44952296Y67805200D01*
X44685448Y68204565D01*
X44286083Y68471413D01*
X43815000Y68565117D01*
X43343917Y68471413D01*
X42944552Y68204565D01*
X42677704Y67805200D01*
X42584000Y67334117D01*
X42506000Y67334117D01*
X42412296Y67805200D01*
X42145448Y68204565D01*
X41746083Y68471413D01*
X41275000Y68565117D01*
X40803917Y68471413D01*
X40404552Y68204565D01*
X40137704Y67805200D01*
X40044000Y67334117D01*
X39966000Y67334117D01*
X39872296Y67805200D01*
X39605448Y68204565D01*
X39206083Y68471413D01*
X38735000Y68565117D01*
X38263917Y68471413D01*
X37864552Y68204565D01*
X37597704Y67805200D01*
X37504000Y67334117D01*
X34893464Y67334117D01*
X34893464Y68160000D01*
X34866897Y68301190D01*
X34783454Y68430865D01*
X34656134Y68517859D01*
X34505000Y68548464D01*
X32805000Y68548464D01*
X32663810Y68521897D01*
X32534135Y68438454D01*
X32447141Y68311134D01*
X32416536Y68160000D01*
X456000Y68160000D01*
X456000Y71544000D01*
X79544000Y71544000D01*
X79544000Y50292000D01*
X79544000Y50292000D01*
G37*
X79544000Y50292000D02*
X20955000Y50292000D01*
X20905590Y50281994D01*
X20863965Y50253553D01*
X20836685Y50211159D01*
X20828000Y50165000D01*
X20828000Y20683163D01*
X20780739Y20797543D01*
X20280173Y21298983D01*
X19625817Y21570695D01*
X18917291Y21571314D01*
X18262462Y21300744D01*
X17761022Y20800178D01*
X17489310Y20145822D01*
X17488691Y19437296D01*
X17759261Y18782467D01*
X18259827Y18281027D01*
X18914183Y18009315D01*
X19622709Y18008696D01*
X20277538Y18279266D01*
X20778978Y18779832D01*
X20828000Y18897890D01*
X20828000Y15003163D01*
X20780739Y15117543D01*
X20280173Y15618983D01*
X19625817Y15890695D01*
X18917291Y15891314D01*
X18262462Y15620744D01*
X17761022Y15120178D01*
X17489310Y14465822D01*
X17488691Y13757296D01*
X17759261Y13102467D01*
X18259827Y12601027D01*
X18914183Y12329315D01*
X19622709Y12328696D01*
X20277538Y12599266D01*
X20778978Y13099832D01*
X20828000Y13217890D01*
X20828000Y456000D01*
X456000Y456000D01*
X456000Y13757296D01*
X4348691Y13757296D01*
X4619261Y13102467D01*
X5119827Y12601027D01*
X5774183Y12329315D01*
X6482709Y12328696D01*
X7137538Y12599266D01*
X7638978Y13099832D01*
X7910690Y13754188D01*
X7911309Y14462714D01*
X7640739Y15117543D01*
X7140173Y15618983D01*
X6485817Y15890695D01*
X5777291Y15891314D01*
X5122462Y15620744D01*
X4621022Y15120178D01*
X4349310Y14465822D01*
X4348691Y13757296D01*
X456000Y13757296D01*
X456000Y16603944D01*
X8108811Y16603944D01*
X8274556Y16202810D01*
X8581191Y15895639D01*
X8982035Y15729195D01*
X9416061Y15728816D01*
X9817195Y15894561D01*
X10124366Y16201196D01*
X10290810Y16602040D01*
X10290811Y16603944D01*
X10608811Y16603944D01*
X10774556Y16202810D01*
X11081191Y15895639D01*
X11482035Y15729195D01*
X11916061Y15728816D01*
X12317195Y15894561D01*
X12624366Y16201196D01*
X12699980Y16383297D01*
X12774556Y16202810D01*
X13081191Y15895639D01*
X13482035Y15729195D01*
X13916061Y15728816D01*
X14317195Y15894561D01*
X14624366Y16201196D01*
X14790810Y16602040D01*
X14790811Y16603944D01*
X15108811Y16603944D01*
X15274556Y16202810D01*
X15581191Y15895639D01*
X15982035Y15729195D01*
X16416061Y15728816D01*
X16817195Y15894561D01*
X17124366Y16201196D01*
X17290810Y16602040D01*
X17291189Y17036066D01*
X17125444Y17437200D01*
X16818809Y17744371D01*
X16417965Y17910815D01*
X15983939Y17911194D01*
X15582805Y17745449D01*
X15275634Y17438814D01*
X15109190Y17037970D01*
X15108811Y16603944D01*
X14790811Y16603944D01*
X14791189Y17036066D01*
X14625444Y17437200D01*
X14318809Y17744371D01*
X13917965Y17910815D01*
X13483939Y17911194D01*
X13082805Y17745449D01*
X12775634Y17438814D01*
X12700020Y17256713D01*
X12625444Y17437200D01*
X12318809Y17744371D01*
X11917965Y17910815D01*
X11483939Y17911194D01*
X11082805Y17745449D01*
X10775634Y17438814D01*
X10609190Y17037970D01*
X10608811Y16603944D01*
X10290811Y16603944D01*
X10291189Y17036066D01*
X10125444Y17437200D01*
X9818809Y17744371D01*
X9417965Y17910815D01*
X8983939Y17911194D01*
X8582805Y17745449D01*
X8275634Y17438814D01*
X8109190Y17037970D01*
X8108811Y16603944D01*
X456000Y16603944D01*
X456000Y19437296D01*
X4348691Y19437296D01*
X4619261Y18782467D01*
X5119827Y18281027D01*
X5774183Y18009315D01*
X6482709Y18008696D01*
X7137538Y18279266D01*
X7638978Y18779832D01*
X7823389Y19223944D01*
X8108811Y19223944D01*
X8274556Y18822810D01*
X8581191Y18515639D01*
X8982035Y18349195D01*
X9416061Y18348816D01*
X9817195Y18514561D01*
X10124366Y18821196D01*
X10290810Y19222040D01*
X10290811Y19223944D01*
X10608811Y19223944D01*
X10774556Y18822810D01*
X11081191Y18515639D01*
X11482035Y18349195D01*
X11916061Y18348816D01*
X12317195Y18514561D01*
X12624366Y18821196D01*
X12699980Y19003297D01*
X12774556Y18822810D01*
X13081191Y18515639D01*
X13482035Y18349195D01*
X13916061Y18348816D01*
X14317195Y18514561D01*
X14624366Y18821196D01*
X14790810Y19222040D01*
X14790811Y19223944D01*
X15108811Y19223944D01*
X15274556Y18822810D01*
X15581191Y18515639D01*
X15982035Y18349195D01*
X16416061Y18348816D01*
X16817195Y18514561D01*
X17124366Y18821196D01*
X17290810Y19222040D01*
X17291189Y19656066D01*
X17125444Y20057200D01*
X16818809Y20364371D01*
X16417965Y20530815D01*
X15983939Y20531194D01*
X15582805Y20365449D01*
X15275634Y20058814D01*
X15109190Y19657970D01*
X15108811Y19223944D01*
X14790811Y19223944D01*
X14791189Y19656066D01*
X14625444Y20057200D01*
X14318809Y20364371D01*
X13917965Y20530815D01*
X13483939Y20531194D01*
X13082805Y20365449D01*
X12775634Y20058814D01*
X12700020Y19876713D01*
X12625444Y20057200D01*
X12318809Y20364371D01*
X11917965Y20530815D01*
X11483939Y20531194D01*
X11082805Y20365449D01*
X10775634Y20058814D01*
X10609190Y19657970D01*
X10608811Y19223944D01*
X10290811Y19223944D01*
X10291189Y19656066D01*
X10125444Y20057200D01*
X9818809Y20364371D01*
X9417965Y20530815D01*
X8983939Y20531194D01*
X8582805Y20365449D01*
X8275634Y20058814D01*
X8109190Y19657970D01*
X8108811Y19223944D01*
X7823389Y19223944D01*
X7910690Y19434188D01*
X7911309Y20142714D01*
X7640739Y20797543D01*
X7140173Y21298983D01*
X6485817Y21570695D01*
X5777291Y21571314D01*
X5122462Y21300744D01*
X4621022Y20800178D01*
X4349310Y20145822D01*
X4348691Y19437296D01*
X456000Y19437296D01*
X456000Y22725135D01*
X17733882Y22725135D01*
X17837339Y22474748D01*
X18028741Y22283013D01*
X18278946Y22179118D01*
X18549865Y22178882D01*
X18800252Y22282339D01*
X18991987Y22473741D01*
X19095882Y22723946D01*
X19096118Y22994865D01*
X18992661Y23245252D01*
X18801259Y23436987D01*
X18551054Y23540882D01*
X18280135Y23541118D01*
X18029748Y23437661D01*
X17838013Y23246259D01*
X17734118Y22996054D01*
X17733882Y22725135D01*
X456000Y22725135D01*
X456000Y26535135D01*
X14558882Y26535135D01*
X14662339Y26284748D01*
X14853741Y26093013D01*
X15103946Y25989118D01*
X15374865Y25988882D01*
X15625252Y26092339D01*
X15816987Y26283741D01*
X15920882Y26533946D01*
X15921118Y26804865D01*
X15817661Y27055252D01*
X15626259Y27246987D01*
X15376054Y27350882D01*
X15105135Y27351118D01*
X14854748Y27247661D01*
X14663013Y27056259D01*
X14559118Y26806054D01*
X14558882Y26535135D01*
X456000Y26535135D01*
X456000Y34155135D01*
X15828882Y34155135D01*
X15932339Y33904748D01*
X16123741Y33713013D01*
X16373946Y33609118D01*
X16644865Y33608882D01*
X16895252Y33712339D01*
X17086987Y33903741D01*
X17190882Y34153946D01*
X17191118Y34424865D01*
X17087661Y34675252D01*
X16896259Y34866987D01*
X16646054Y34970882D01*
X16375135Y34971118D01*
X16124748Y34867661D01*
X15933013Y34676259D01*
X15829118Y34426054D01*
X15828882Y34155135D01*
X456000Y34155135D01*
X456000Y37330135D01*
X17733882Y37330135D01*
X17837339Y37079748D01*
X18028741Y36888013D01*
X18278946Y36784118D01*
X18549865Y36783882D01*
X18800252Y36887339D01*
X18991987Y37078741D01*
X19095882Y37328946D01*
X19096118Y37599865D01*
X18992661Y37850252D01*
X18801259Y38041987D01*
X18551054Y38145882D01*
X18280135Y38146118D01*
X18029748Y38042661D01*
X17838013Y37851259D01*
X17734118Y37601054D01*
X17733882Y37330135D01*
X456000Y37330135D01*
X456000Y43680135D01*
X17733882Y43680135D01*
X17837339Y43429748D01*
X18028741Y43238013D01*
X18278946Y43134118D01*
X18549865Y43133882D01*
X18800252Y43237339D01*
X18991987Y43428741D01*
X19095882Y43678946D01*
X19096118Y43949865D01*
X18992661Y44200252D01*
X18801259Y44391987D01*
X18551054Y44495882D01*
X18280135Y44496118D01*
X18029748Y44392661D01*
X17838013Y44201259D01*
X17734118Y43951054D01*
X17733882Y43680135D01*
X456000Y43680135D01*
X456000Y47490135D01*
X15193882Y47490135D01*
X15297339Y47239748D01*
X15488741Y47048013D01*
X15738946Y46944118D01*
X16009865Y46943882D01*
X16260252Y47047339D01*
X16451987Y47238741D01*
X16555882Y47488946D01*
X16556118Y47759865D01*
X16452661Y48010252D01*
X16337978Y48125135D01*
X17098882Y48125135D01*
X17202339Y47874748D01*
X17393741Y47683013D01*
X17643946Y47579118D01*
X17914865Y47578882D01*
X18165252Y47682339D01*
X18356987Y47873741D01*
X18460882Y48123946D01*
X18461118Y48394865D01*
X18357661Y48645252D01*
X18166259Y48836987D01*
X17916054Y48940882D01*
X17645135Y48941118D01*
X17394748Y48837661D01*
X17203013Y48646259D01*
X17099118Y48396054D01*
X17098882Y48125135D01*
X16337978Y48125135D01*
X16261259Y48201987D01*
X16011054Y48305882D01*
X15740135Y48306118D01*
X15489748Y48202661D01*
X15298013Y48011259D01*
X15194118Y47761054D01*
X15193882Y47490135D01*
X456000Y47490135D01*
X456000Y48760135D01*
X8208882Y48760135D01*
X8312339Y48509748D01*
X8503741Y48318013D01*
X8753946Y48214118D01*
X9024865Y48213882D01*
X9207641Y48289403D01*
X9388946Y48214118D01*
X9659865Y48213882D01*
X9910252Y48317339D01*
X10101987Y48508741D01*
X10205882Y48758946D01*
X10206118Y49029865D01*
X10102661Y49280252D01*
X9911259Y49471987D01*
X9661054Y49575882D01*
X9390135Y49576118D01*
X9207359Y49500597D01*
X9026054Y49575882D01*
X8755135Y49576118D01*
X8504748Y49472661D01*
X8313013Y49281259D01*
X8209118Y49031054D01*
X8208882Y48760135D01*
X456000Y48760135D01*
X456000Y51300135D01*
X8208882Y51300135D01*
X8312339Y51049748D01*
X8503741Y50858013D01*
X8753946Y50754118D01*
X9024865Y50753882D01*
X9207641Y50829403D01*
X9388946Y50754118D01*
X9659865Y50753882D01*
X9842641Y50829403D01*
X9913485Y50799986D01*
X9774748Y50742661D01*
X9583013Y50551259D01*
X9479118Y50301054D01*
X9478882Y50030135D01*
X9582339Y49779748D01*
X9773741Y49588013D01*
X10023946Y49484118D01*
X10294865Y49483882D01*
X10545252Y49587339D01*
X10736987Y49778741D01*
X10840882Y50028946D01*
X10840883Y50030135D01*
X12018882Y50030135D01*
X12122339Y49779748D01*
X12313741Y49588013D01*
X12563946Y49484118D01*
X12834865Y49483882D01*
X13085252Y49587339D01*
X13276987Y49778741D01*
X13380882Y50028946D01*
X13381118Y50299865D01*
X13277661Y50550252D01*
X13086259Y50741987D01*
X12836054Y50845882D01*
X12565135Y50846118D01*
X12314748Y50742661D01*
X12123013Y50551259D01*
X12019118Y50301054D01*
X12018882Y50030135D01*
X10840883Y50030135D01*
X10841118Y50299865D01*
X10737661Y50550252D01*
X10546259Y50741987D01*
X10406515Y50800014D01*
X10545252Y50857339D01*
X10736987Y51048741D01*
X10840882Y51298946D01*
X10840883Y51300135D01*
X14558882Y51300135D01*
X14662339Y51049748D01*
X14853741Y50858013D01*
X15103946Y50754118D01*
X15374865Y50753882D01*
X15625252Y50857339D01*
X15816987Y51048741D01*
X15920882Y51298946D01*
X15921118Y51569865D01*
X15817661Y51820252D01*
X15626259Y52011987D01*
X15376054Y52115882D01*
X15105135Y52116118D01*
X14854748Y52012661D01*
X14663013Y51821259D01*
X14559118Y51571054D01*
X14558882Y51300135D01*
X10840883Y51300135D01*
X10841118Y51569865D01*
X10737661Y51820252D01*
X10546259Y52011987D01*
X10296054Y52115882D01*
X10025135Y52116118D01*
X9842359Y52040597D01*
X9661054Y52115882D01*
X9390135Y52116118D01*
X9207359Y52040597D01*
X9026054Y52115882D01*
X8755135Y52116118D01*
X8504748Y52012661D01*
X8313013Y51821259D01*
X8209118Y51571054D01*
X8208882Y51300135D01*
X456000Y51300135D01*
X456000Y53205135D01*
X9478882Y53205135D01*
X9582339Y52954748D01*
X9773741Y52763013D01*
X10023946Y52659118D01*
X10294865Y52658882D01*
X10545252Y52762339D01*
X10597539Y52814536D01*
X14558882Y52814536D01*
X14662339Y52564149D01*
X14853741Y52372414D01*
X15103946Y52268519D01*
X15374865Y52268283D01*
X15625252Y52371740D01*
X15816987Y52563142D01*
X15819890Y52570135D01*
X30433882Y52570135D01*
X30537339Y52319748D01*
X30728741Y52128013D01*
X30978946Y52024118D01*
X31249865Y52023882D01*
X31500252Y52127339D01*
X31691987Y52318741D01*
X31795882Y52568946D01*
X31795883Y52570135D01*
X48848882Y52570135D01*
X48952339Y52319748D01*
X49143741Y52128013D01*
X49393946Y52024118D01*
X49664865Y52023882D01*
X49915252Y52127339D01*
X50106987Y52318741D01*
X50210882Y52568946D01*
X50210883Y52570135D01*
X58373882Y52570135D01*
X58477339Y52319748D01*
X58668741Y52128013D01*
X58918946Y52024118D01*
X59189865Y52023882D01*
X59440252Y52127339D01*
X59631987Y52318741D01*
X59735882Y52568946D01*
X59736118Y52839865D01*
X59632661Y53090252D01*
X59441259Y53281987D01*
X59191054Y53385882D01*
X58920135Y53386118D01*
X58669748Y53282661D01*
X58478013Y53091259D01*
X58374118Y52841054D01*
X58373882Y52570135D01*
X50210883Y52570135D01*
X50211118Y52839865D01*
X50107661Y53090252D01*
X49992978Y53205135D01*
X50118882Y53205135D01*
X50222339Y52954748D01*
X50413741Y52763013D01*
X50663946Y52659118D01*
X50934865Y52658882D01*
X51185252Y52762339D01*
X51376987Y52953741D01*
X51480882Y53203946D01*
X51481118Y53474865D01*
X51377661Y53725252D01*
X51262978Y53840135D01*
X53293882Y53840135D01*
X53397339Y53589748D01*
X53588741Y53398013D01*
X53838946Y53294118D01*
X54109865Y53293882D01*
X54360252Y53397339D01*
X54551987Y53588741D01*
X54655882Y53838946D01*
X54656118Y54109865D01*
X54552661Y54360252D01*
X54361259Y54551987D01*
X54111054Y54655882D01*
X53840135Y54656118D01*
X53589748Y54552661D01*
X53398013Y54361259D01*
X53294118Y54111054D01*
X53293882Y53840135D01*
X51262978Y53840135D01*
X51186259Y53916987D01*
X50936054Y54020882D01*
X50665135Y54021118D01*
X50414748Y53917661D01*
X50223013Y53726259D01*
X50119118Y53476054D01*
X50118882Y53205135D01*
X49992978Y53205135D01*
X49916259Y53281987D01*
X49666054Y53385882D01*
X49395135Y53386118D01*
X49144748Y53282661D01*
X48953013Y53091259D01*
X48849118Y52841054D01*
X48848882Y52570135D01*
X31795883Y52570135D01*
X31796118Y52839865D01*
X31692661Y53090252D01*
X31501259Y53281987D01*
X31251054Y53385882D01*
X30980135Y53386118D01*
X30729748Y53282661D01*
X30538013Y53091259D01*
X30434118Y52841054D01*
X30433882Y52570135D01*
X15819890Y52570135D01*
X15920882Y52813347D01*
X15921118Y53084266D01*
X15885017Y53171638D01*
X17582982Y53171638D01*
X17686439Y52921251D01*
X17877841Y52729516D01*
X18128046Y52625621D01*
X18398965Y52625385D01*
X18649352Y52728842D01*
X18677754Y52757194D01*
X18913946Y52659118D01*
X19184865Y52658882D01*
X19435252Y52762339D01*
X19626987Y52953741D01*
X19730882Y53203946D01*
X19730883Y53205135D01*
X22178882Y53205135D01*
X22282339Y52954748D01*
X22473741Y52763013D01*
X22723946Y52659118D01*
X22994865Y52658882D01*
X23245252Y52762339D01*
X23436987Y52953741D01*
X23495014Y53093485D01*
X23552339Y52954748D01*
X23743741Y52763013D01*
X23993946Y52659118D01*
X24264865Y52658882D01*
X24515252Y52762339D01*
X24706987Y52953741D01*
X24765014Y53093485D01*
X24822339Y52954748D01*
X25013741Y52763013D01*
X25263946Y52659118D01*
X25534865Y52658882D01*
X25785252Y52762339D01*
X25976987Y52953741D01*
X26080882Y53203946D01*
X26081118Y53474865D01*
X25977661Y53725252D01*
X25786259Y53916987D01*
X25536054Y54020882D01*
X25265135Y54021118D01*
X25014748Y53917661D01*
X24823013Y53726259D01*
X24764986Y53586515D01*
X24707661Y53725252D01*
X24516259Y53916987D01*
X24266054Y54020882D01*
X23995135Y54021118D01*
X23744748Y53917661D01*
X23553013Y53726259D01*
X23494986Y53586515D01*
X23437661Y53725252D01*
X23246259Y53916987D01*
X22996054Y54020882D01*
X22725135Y54021118D01*
X22474748Y53917661D01*
X22283013Y53726259D01*
X22179118Y53476054D01*
X22178882Y53205135D01*
X19730883Y53205135D01*
X19731118Y53474865D01*
X19627661Y53725252D01*
X19436259Y53916987D01*
X19296515Y53975014D01*
X19435252Y54032339D01*
X19626987Y54223741D01*
X19730882Y54473946D01*
X19730883Y54475135D01*
X32338882Y54475135D01*
X32442339Y54224748D01*
X32633741Y54033013D01*
X32883946Y53929118D01*
X33154865Y53928882D01*
X33405252Y54032339D01*
X33596987Y54223741D01*
X33700882Y54473946D01*
X33701118Y54744865D01*
X33597661Y54995252D01*
X33482978Y55110135D01*
X34878882Y55110135D01*
X34954403Y54927359D01*
X34879118Y54746054D01*
X34878882Y54475135D01*
X34954403Y54292359D01*
X34879118Y54111054D01*
X34878882Y53840135D01*
X34982339Y53589748D01*
X35173741Y53398013D01*
X35423946Y53294118D01*
X35694865Y53293882D01*
X35945252Y53397339D01*
X36136987Y53588741D01*
X36240882Y53838946D01*
X36241118Y54109865D01*
X36165597Y54292641D01*
X36240882Y54473946D01*
X36241118Y54744865D01*
X36165597Y54927641D01*
X36240882Y55108946D01*
X36240883Y55110135D01*
X37418882Y55110135D01*
X37494403Y54927359D01*
X37419118Y54746054D01*
X37418882Y54475135D01*
X37494403Y54292359D01*
X37419118Y54111054D01*
X37418882Y53840135D01*
X37522339Y53589748D01*
X37713741Y53398013D01*
X37963946Y53294118D01*
X38234865Y53293882D01*
X38485252Y53397339D01*
X38676987Y53588741D01*
X38780882Y53838946D01*
X38781118Y54109865D01*
X38705597Y54292641D01*
X38780882Y54473946D01*
X38781118Y54744865D01*
X38705597Y54927641D01*
X38780882Y55108946D01*
X38780883Y55110135D01*
X60913882Y55110135D01*
X61017339Y54859748D01*
X61208741Y54668013D01*
X61458946Y54564118D01*
X61729865Y54563882D01*
X61980252Y54667339D01*
X62171987Y54858741D01*
X62275882Y55108946D01*
X62275883Y55110135D01*
X62818882Y55110135D01*
X62894403Y54927359D01*
X62819118Y54746054D01*
X62818882Y54475135D01*
X62894403Y54292359D01*
X62819118Y54111054D01*
X62818882Y53840135D01*
X62922339Y53589748D01*
X63113741Y53398013D01*
X63363946Y53294118D01*
X63634865Y53293882D01*
X63885252Y53397339D01*
X64076987Y53588741D01*
X64180882Y53838946D01*
X64181118Y54109865D01*
X64105597Y54292641D01*
X64180882Y54473946D01*
X64181118Y54744865D01*
X64105597Y54927641D01*
X64180882Y55108946D01*
X64180883Y55110135D01*
X65358882Y55110135D01*
X65434403Y54927359D01*
X65359118Y54746054D01*
X65358882Y54475135D01*
X65434403Y54292359D01*
X65359118Y54111054D01*
X65358882Y53840135D01*
X65462339Y53589748D01*
X65653741Y53398013D01*
X65903946Y53294118D01*
X66174865Y53293882D01*
X66425252Y53397339D01*
X66616987Y53588741D01*
X66720882Y53838946D01*
X66721118Y54109865D01*
X66645597Y54292641D01*
X66720882Y54473946D01*
X66721118Y54744865D01*
X66645597Y54927641D01*
X66720882Y55108946D01*
X66721118Y55379865D01*
X66617661Y55630252D01*
X66426259Y55821987D01*
X66176054Y55925882D01*
X65905135Y55926118D01*
X65654748Y55822661D01*
X65463013Y55631259D01*
X65359118Y55381054D01*
X65358882Y55110135D01*
X64180883Y55110135D01*
X64181118Y55379865D01*
X64077661Y55630252D01*
X63886259Y55821987D01*
X63636054Y55925882D01*
X63365135Y55926118D01*
X63114748Y55822661D01*
X62923013Y55631259D01*
X62819118Y55381054D01*
X62818882Y55110135D01*
X62275883Y55110135D01*
X62276118Y55379865D01*
X62172661Y55630252D01*
X61981259Y55821987D01*
X61731054Y55925882D01*
X61460135Y55926118D01*
X61209748Y55822661D01*
X61018013Y55631259D01*
X60914118Y55381054D01*
X60913882Y55110135D01*
X38780883Y55110135D01*
X38781118Y55379865D01*
X38677661Y55630252D01*
X38486259Y55821987D01*
X38236054Y55925882D01*
X37965135Y55926118D01*
X37714748Y55822661D01*
X37523013Y55631259D01*
X37419118Y55381054D01*
X37418882Y55110135D01*
X36240883Y55110135D01*
X36241118Y55379865D01*
X36137661Y55630252D01*
X35946259Y55821987D01*
X35696054Y55925882D01*
X35425135Y55926118D01*
X35174748Y55822661D01*
X34983013Y55631259D01*
X34879118Y55381054D01*
X34878882Y55110135D01*
X33482978Y55110135D01*
X33406259Y55186987D01*
X33156054Y55290882D01*
X32885135Y55291118D01*
X32634748Y55187661D01*
X32443013Y54996259D01*
X32339118Y54746054D01*
X32338882Y54475135D01*
X19730883Y54475135D01*
X19731118Y54744865D01*
X19627661Y54995252D01*
X19436259Y55186987D01*
X19186054Y55290882D01*
X18915135Y55291118D01*
X18664748Y55187661D01*
X18473013Y54996259D01*
X18369118Y54746054D01*
X18368882Y54475135D01*
X18472339Y54224748D01*
X18663741Y54033013D01*
X18803485Y53974986D01*
X18664748Y53917661D01*
X18636346Y53889309D01*
X18400154Y53987385D01*
X18129235Y53987621D01*
X17878848Y53884164D01*
X17687113Y53692762D01*
X17583218Y53442557D01*
X17582982Y53171638D01*
X15885017Y53171638D01*
X15817661Y53334653D01*
X15626259Y53526388D01*
X15376054Y53630283D01*
X15105135Y53630519D01*
X14854748Y53527062D01*
X14663013Y53335660D01*
X14559118Y53085455D01*
X14558882Y52814536D01*
X10597539Y52814536D01*
X10736987Y52953741D01*
X10840882Y53203946D01*
X10841118Y53474865D01*
X10737661Y53725252D01*
X10546259Y53916987D01*
X10296054Y54020882D01*
X10025135Y54021118D01*
X9774748Y53917661D01*
X9583013Y53726259D01*
X9479118Y53476054D01*
X9478882Y53205135D01*
X456000Y53205135D01*
X456000Y53840135D01*
X3763882Y53840135D01*
X3867339Y53589748D01*
X4058741Y53398013D01*
X4308946Y53294118D01*
X4579865Y53293882D01*
X4830252Y53397339D01*
X5021987Y53588741D01*
X5125882Y53838946D01*
X5126118Y54109865D01*
X5022661Y54360252D01*
X4831259Y54551987D01*
X4581054Y54655882D01*
X4310135Y54656118D01*
X4059748Y54552661D01*
X3868013Y54361259D01*
X3764118Y54111054D01*
X3763882Y53840135D01*
X456000Y53840135D01*
X456000Y57015135D01*
X8208882Y57015135D01*
X8312339Y56764748D01*
X8503741Y56573013D01*
X8753946Y56469118D01*
X9024865Y56468882D01*
X9275252Y56572339D01*
X9466987Y56763741D01*
X9562558Y56993902D01*
X19539932Y56993902D01*
X19643389Y56743515D01*
X19834791Y56551780D01*
X20084996Y56447885D01*
X20355915Y56447649D01*
X20606302Y56551106D01*
X20798037Y56742508D01*
X20901932Y56992713D01*
X20901951Y57015135D01*
X22813882Y57015135D01*
X22917339Y56764748D01*
X23108741Y56573013D01*
X23358946Y56469118D01*
X23629865Y56468882D01*
X23880252Y56572339D01*
X24071987Y56763741D01*
X24175882Y57013946D01*
X24175960Y57103959D01*
X24264865Y57103882D01*
X24515252Y57207339D01*
X24706987Y57398741D01*
X24810882Y57648946D01*
X24811118Y57919865D01*
X24707661Y58170252D01*
X24588186Y58289935D01*
X24718882Y58289935D01*
X24822339Y58039548D01*
X25013741Y57847813D01*
X25263946Y57743918D01*
X25534865Y57743682D01*
X25785252Y57847139D01*
X25976987Y58038541D01*
X26034020Y58175891D01*
X26092339Y58034748D01*
X26283741Y57843013D01*
X26533946Y57739118D01*
X26804865Y57738882D01*
X27055252Y57842339D01*
X27246987Y58033741D01*
X27350882Y58283946D01*
X27351085Y58516674D01*
X27563252Y58604339D01*
X27754987Y58795741D01*
X27858882Y59045946D01*
X27859071Y59263070D01*
X28074865Y59262882D01*
X28325252Y59366339D01*
X28514376Y59555135D01*
X74883882Y59555135D01*
X74987339Y59304748D01*
X75178741Y59113013D01*
X75428946Y59009118D01*
X75699865Y59008882D01*
X75950252Y59112339D01*
X76141987Y59303741D01*
X76245882Y59553946D01*
X76246118Y59824865D01*
X76142661Y60075252D01*
X75951259Y60266987D01*
X75701054Y60370882D01*
X75430135Y60371118D01*
X75179748Y60267661D01*
X74988013Y60076259D01*
X74884118Y59826054D01*
X74883882Y59555135D01*
X28514376Y59555135D01*
X28516987Y59557741D01*
X28620882Y59807946D01*
X28621118Y60078865D01*
X28517661Y60329252D01*
X28326259Y60520987D01*
X28076054Y60624882D01*
X27805135Y60625118D01*
X27554748Y60521661D01*
X27363013Y60330259D01*
X27259118Y60080054D01*
X27258929Y59862930D01*
X27043135Y59863118D01*
X26792748Y59759661D01*
X26601013Y59568259D01*
X26497118Y59318054D01*
X26496915Y59085326D01*
X26284748Y58997661D01*
X26093013Y58806259D01*
X26035980Y58668909D01*
X25977661Y58810052D01*
X25786259Y59001787D01*
X25536054Y59105682D01*
X25265135Y59105918D01*
X25014748Y59002461D01*
X24823013Y58811059D01*
X24719118Y58560854D01*
X24718882Y58289935D01*
X24588186Y58289935D01*
X24516259Y58361987D01*
X24266054Y58465882D01*
X23995135Y58466118D01*
X23744748Y58362661D01*
X23553013Y58171259D01*
X23449118Y57921054D01*
X23449040Y57831041D01*
X23360135Y57831118D01*
X23109748Y57727661D01*
X22918013Y57536259D01*
X22814118Y57286054D01*
X22813882Y57015135D01*
X20901951Y57015135D01*
X20902168Y57263632D01*
X20798711Y57514019D01*
X20607309Y57705754D01*
X20357104Y57809649D01*
X20086185Y57809885D01*
X19835798Y57706428D01*
X19644063Y57515026D01*
X19540168Y57264821D01*
X19539932Y56993902D01*
X9562558Y56993902D01*
X9570882Y57013946D01*
X9571118Y57284865D01*
X9467661Y57535252D01*
X9276259Y57726987D01*
X9026054Y57830882D01*
X8755135Y57831118D01*
X8504748Y57727661D01*
X8313013Y57536259D01*
X8209118Y57286054D01*
X8208882Y57015135D01*
X456000Y57015135D01*
X456000Y59555135D01*
X14558882Y59555135D01*
X14662339Y59304748D01*
X14853741Y59113013D01*
X15103946Y59009118D01*
X15374865Y59008882D01*
X15625252Y59112339D01*
X15816987Y59303741D01*
X15920882Y59553946D01*
X15921118Y59824865D01*
X15817661Y60075252D01*
X15626259Y60266987D01*
X15376054Y60370882D01*
X15105135Y60371118D01*
X14854748Y60267661D01*
X14663013Y60076259D01*
X14559118Y59826054D01*
X14558882Y59555135D01*
X456000Y59555135D01*
X456000Y61333135D01*
X23956882Y61333135D01*
X24060339Y61082748D01*
X24251741Y60891013D01*
X24501946Y60787118D01*
X24772865Y60786882D01*
X25023252Y60890339D01*
X25214987Y61081741D01*
X25318882Y61331946D01*
X25318993Y61460135D01*
X56468882Y61460135D01*
X56572339Y61209748D01*
X56763741Y61018013D01*
X57013946Y60914118D01*
X57284865Y60913882D01*
X57535252Y61017339D01*
X57726987Y61208741D01*
X57830882Y61458946D01*
X57831118Y61729865D01*
X57727661Y61980252D01*
X57536259Y62171987D01*
X57286054Y62275882D01*
X57015135Y62276118D01*
X56764748Y62172661D01*
X56573013Y61981259D01*
X56469118Y61731054D01*
X56468882Y61460135D01*
X25318993Y61460135D01*
X25319118Y61602865D01*
X25215661Y61853252D01*
X25024259Y62044987D01*
X24774054Y62148882D01*
X24503135Y62149118D01*
X24252748Y62045661D01*
X24061013Y61854259D01*
X23957118Y61604054D01*
X23956882Y61333135D01*
X456000Y61333135D01*
X456000Y62730135D01*
X16316930Y62730135D01*
X16420387Y62479748D01*
X16611789Y62288013D01*
X16861994Y62184118D01*
X17132913Y62183882D01*
X17383300Y62287339D01*
X17575035Y62478741D01*
X17678930Y62728946D01*
X17679166Y62999865D01*
X17575709Y63250252D01*
X17461026Y63365135D01*
X26623882Y63365135D01*
X26727339Y63114748D01*
X26918741Y62923013D01*
X27168946Y62819118D01*
X27258959Y62819040D01*
X27258882Y62730135D01*
X27362339Y62479748D01*
X27553741Y62288013D01*
X27803946Y62184118D01*
X28074865Y62183882D01*
X28325252Y62287339D01*
X28516987Y62478741D01*
X28620882Y62728946D01*
X28621118Y62999865D01*
X28517661Y63250252D01*
X28326259Y63441987D01*
X28076054Y63545882D01*
X27986041Y63545960D01*
X27986118Y63634865D01*
X27882661Y63885252D01*
X27691259Y64076987D01*
X27441054Y64180882D01*
X27170135Y64181118D01*
X26919748Y64077661D01*
X26728013Y63886259D01*
X26624118Y63636054D01*
X26623882Y63365135D01*
X17461026Y63365135D01*
X17384307Y63441987D01*
X17134102Y63545882D01*
X16863183Y63546118D01*
X16612796Y63442661D01*
X16421061Y63251259D01*
X16317166Y63001054D01*
X16316930Y62730135D01*
X456000Y62730135D01*
X456000Y66555000D01*
X3541536Y66555000D01*
X3541536Y64255000D01*
X3568103Y64113810D01*
X3651546Y63984135D01*
X3778866Y63897141D01*
X3930000Y63866536D01*
X6230000Y63866536D01*
X6371190Y63893103D01*
X6500865Y63976546D01*
X6587859Y64103866D01*
X6616146Y64243555D01*
X6751626Y64107838D01*
X7314129Y63874266D01*
X7923199Y63873735D01*
X8486109Y64106325D01*
X8917162Y64536626D01*
X8958525Y64636240D01*
X20189932Y64636240D01*
X20293389Y64385853D01*
X20484791Y64194118D01*
X20734996Y64090223D01*
X21005915Y64089987D01*
X21256302Y64193444D01*
X21448037Y64384846D01*
X21551932Y64635051D01*
X21551932Y64635135D01*
X34878882Y64635135D01*
X34982339Y64384748D01*
X35173741Y64193013D01*
X35423946Y64089118D01*
X35694865Y64088882D01*
X35787445Y64127135D01*
X36402882Y64127135D01*
X36506339Y63876748D01*
X36697741Y63685013D01*
X36947946Y63581118D01*
X37218865Y63580882D01*
X37469252Y63684339D01*
X37660987Y63875741D01*
X37764882Y64125946D01*
X37765118Y64396865D01*
X37661661Y64647252D01*
X37470259Y64838987D01*
X37220054Y64942882D01*
X36949135Y64943118D01*
X36698748Y64839661D01*
X36507013Y64648259D01*
X36403118Y64398054D01*
X36402882Y64127135D01*
X35787445Y64127135D01*
X35945252Y64192339D01*
X36136987Y64383741D01*
X36240882Y64633946D01*
X36241118Y64904865D01*
X36137661Y65155252D01*
X35946259Y65346987D01*
X35696054Y65450882D01*
X35425135Y65451118D01*
X35174748Y65347661D01*
X34983013Y65156259D01*
X34879118Y64906054D01*
X34878882Y64635135D01*
X21551932Y64635135D01*
X21552168Y64905970D01*
X21448711Y65156357D01*
X21257309Y65348092D01*
X21007104Y65451987D01*
X20736185Y65452223D01*
X20485798Y65348766D01*
X20294063Y65157364D01*
X20190168Y64907159D01*
X20189932Y64636240D01*
X8958525Y64636240D01*
X9150734Y65099129D01*
X9151156Y65584263D01*
X36759534Y65584263D01*
X36862991Y65333876D01*
X37054393Y65142141D01*
X37304598Y65038246D01*
X37575517Y65038010D01*
X37825904Y65141467D01*
X38017639Y65332869D01*
X38121534Y65583074D01*
X38121770Y65853993D01*
X38018313Y66104380D01*
X37826911Y66296115D01*
X37576706Y66400010D01*
X37305787Y66400246D01*
X37055400Y66296789D01*
X36863665Y66105387D01*
X36759770Y65855182D01*
X36759534Y65584263D01*
X9151156Y65584263D01*
X9151265Y65708199D01*
X8918675Y66271109D01*
X8650119Y66540135D01*
X19003882Y66540135D01*
X19107339Y66289748D01*
X19298741Y66098013D01*
X19548946Y65994118D01*
X19819865Y65993882D01*
X20070252Y66097339D01*
X20261987Y66288741D01*
X20365882Y66538946D01*
X20366118Y66809865D01*
X20262661Y67060252D01*
X20071259Y67251987D01*
X19821054Y67355882D01*
X19550135Y67356118D01*
X19299748Y67252661D01*
X19108013Y67061259D01*
X19004118Y66811054D01*
X19003882Y66540135D01*
X8650119Y66540135D01*
X8488374Y66702162D01*
X7925871Y66935734D01*
X7316801Y66936265D01*
X6753891Y66703675D01*
X6616328Y66566352D01*
X6591897Y66696190D01*
X6508454Y66825865D01*
X6381134Y66912859D01*
X6230000Y66943464D01*
X3930000Y66943464D01*
X3788810Y66916897D01*
X3659135Y66833454D01*
X3572141Y66706134D01*
X3541536Y66555000D01*
X456000Y66555000D01*
X456000Y68160000D01*
X32416536Y68160000D01*
X32416536Y66460000D01*
X32443103Y66318810D01*
X32526546Y66189135D01*
X32653866Y66102141D01*
X32805000Y66071536D01*
X34505000Y66071536D01*
X34646190Y66098103D01*
X34775865Y66181546D01*
X34862859Y66308866D01*
X34893464Y66460000D01*
X34893464Y67334117D01*
X37504000Y67334117D01*
X37504000Y67285883D01*
X37597704Y66814800D01*
X37864552Y66415435D01*
X38263917Y66148587D01*
X38735000Y66054883D01*
X39206083Y66148587D01*
X39605448Y66415435D01*
X39872296Y66814800D01*
X39966000Y67285883D01*
X39966000Y67334117D01*
X40044000Y67334117D01*
X40044000Y67285883D01*
X40137704Y66814800D01*
X40404552Y66415435D01*
X40803917Y66148587D01*
X41275000Y66054883D01*
X41746083Y66148587D01*
X42145448Y66415435D01*
X42412296Y66814800D01*
X42506000Y67285883D01*
X42506000Y67334117D01*
X42584000Y67334117D01*
X42584000Y67285883D01*
X42677704Y66814800D01*
X42944552Y66415435D01*
X43343917Y66148587D01*
X43815000Y66054883D01*
X44286083Y66148587D01*
X44685448Y66415435D01*
X44952296Y66814800D01*
X45046000Y67285883D01*
X45046000Y67334117D01*
X45124000Y67334117D01*
X45124000Y67285883D01*
X45217704Y66814800D01*
X45484552Y66415435D01*
X45883917Y66148587D01*
X46355000Y66054883D01*
X46826083Y66148587D01*
X47225448Y66415435D01*
X47492296Y66814800D01*
X47586000Y67285883D01*
X47586000Y67334117D01*
X47492296Y67805200D01*
X47225448Y68204565D01*
X46826083Y68471413D01*
X46355000Y68565117D01*
X45883917Y68471413D01*
X45484552Y68204565D01*
X45217704Y67805200D01*
X45124000Y67334117D01*
X45046000Y67334117D01*
X44952296Y67805200D01*
X44685448Y68204565D01*
X44286083Y68471413D01*
X43815000Y68565117D01*
X43343917Y68471413D01*
X42944552Y68204565D01*
X42677704Y67805200D01*
X42584000Y67334117D01*
X42506000Y67334117D01*
X42412296Y67805200D01*
X42145448Y68204565D01*
X41746083Y68471413D01*
X41275000Y68565117D01*
X40803917Y68471413D01*
X40404552Y68204565D01*
X40137704Y67805200D01*
X40044000Y67334117D01*
X39966000Y67334117D01*
X39872296Y67805200D01*
X39605448Y68204565D01*
X39206083Y68471413D01*
X38735000Y68565117D01*
X38263917Y68471413D01*
X37864552Y68204565D01*
X37597704Y67805200D01*
X37504000Y67334117D01*
X34893464Y67334117D01*
X34893464Y68160000D01*
X34866897Y68301190D01*
X34783454Y68430865D01*
X34656134Y68517859D01*
X34505000Y68548464D01*
X32805000Y68548464D01*
X32663810Y68521897D01*
X32534135Y68438454D01*
X32447141Y68311134D01*
X32416536Y68160000D01*
X456000Y68160000D01*
X456000Y71544000D01*
X79544000Y71544000D01*
X79544000Y50292000D01*
M02*
