M48
;DRILL file {KiCad 4.0.1-stable} date 10/19/2016 12:19:53 AM
;FORMAT={-:-/ absolute / inch / decimal}
FMAT,2
INCH,TZ
T1C0.016
T2C0.036
T3C0.040
T4C0.051
T5C0.091
%
G90
G05
M72
T1
X0.1Y2.175
X0.575Y1.925
X0.625Y1.55
X1.075Y1.925
X1.075Y1.75
X1.1Y1.9
X1.1Y1.725
X1.125Y0.55
X1.15Y2.2
X1.15Y2.
X1.25Y1.875
X1.25Y1.825
X1.25Y1.775
X1.275Y1.2
X1.275Y1.15
X1.325Y0.55
X1.35Y2.475
X1.475Y2.075
X1.475Y1.875
X1.475Y1.825
X1.475Y1.35
X1.475Y1.2
X1.5Y2.4
X1.525Y2.375
X1.525Y1.925
X1.525Y0.55
X1.55Y2.35
X1.55Y1.45
X1.675Y1.975
X1.675Y1.325
X1.775Y2.55
X1.775Y2.5
X1.775Y0.55
X1.8Y2.525
X1.8Y1.675
X1.825Y1.7
X1.9Y1.875
X1.925Y1.55
X1.975Y1.875
X1.975Y0.55
X2.05Y1.6
X2.175Y0.55
X3.Y2.35
T2
X0.3622Y0.7404
X0.3622Y0.6372
X0.4606Y0.7404
X0.4606Y0.6372
X0.5394Y0.7404
X0.5394Y0.6372
X0.6378Y0.7404
X0.6378Y0.6372
T3
X0.2Y1.95
X0.2Y1.85
X0.2Y1.75
X1.325Y2.65
X1.425Y2.65
X1.525Y2.65
X1.625Y2.65
X1.725Y2.65
X1.825Y2.65
T4
X0.2Y2.575
X0.3Y2.575
X1.Y0.25
X1.Y0.25
X1.1Y0.25
X1.1Y0.25
X1.2Y0.25
X1.2Y0.25
X1.3Y0.25
X1.3Y0.25
X1.4Y0.25
X1.4Y0.25
X1.5Y0.25
X1.5Y0.25
X1.65Y0.25
X1.75Y0.25
X1.85Y0.25
X1.95Y0.25
X2.05Y0.25
X2.15Y0.25
X2.65Y0.275
X2.75Y0.275
X2.85Y0.275
X2.95Y0.275
T5
X0.2413Y0.7541
X0.2413Y0.5305
X0.7587Y0.7541
X0.7587Y0.5305
T0
M30
