G04 #@! TF.FileFunction,Soldermask,Top*
%FSLAX46Y46*%
G04 Gerber Fmt 4.6, Leading zero omitted, Abs format (unit mm)*
G04 Created by KiCad (PCBNEW 4.0.1-stable) date 10/19/2016 12:19:56 AM*
%MOMM*%
G01*
G04 APERTURE LIST*
%ADD10C,0.101600*%
%ADD11R,1.650000X1.400000*%
%ADD12R,1.900000X1.300000*%
%ADD13R,2.400000X1.000000*%
%ADD14R,2.432000X2.127200*%
%ADD15O,2.432000X2.127200*%
%ADD16C,2.700000*%
%ADD17R,2.700000X2.700000*%
%ADD18R,2.127200X2.432000*%
%ADD19O,2.127200X2.432000*%
%ADD20R,1.100000X1.700000*%
%ADD21R,1.950000X1.000000*%
%ADD22R,2.400000X0.800000*%
%ADD23R,1.200100X1.200100*%
%ADD24R,1.598880X1.598880*%
%ADD25C,1.820000*%
%ADD26C,3.200000*%
G04 APERTURE END LIST*
D10*
D11*
X48260000Y51165000D03*
X48260000Y49165000D03*
X50800000Y51165000D03*
X50800000Y49165000D03*
X31115000Y54880000D03*
X31115000Y56880000D03*
X15875000Y42910000D03*
X15875000Y40910000D03*
D12*
X75210000Y66560000D03*
X75210000Y68060000D03*
X72110000Y68060000D03*
X72110000Y66560000D03*
D13*
X35305000Y61595000D03*
X35305000Y60325000D03*
X35305000Y59055000D03*
X35305000Y57785000D03*
X35305000Y56515000D03*
X35305000Y55245000D03*
X35305000Y53975000D03*
X35305000Y52705000D03*
X35305000Y51435000D03*
X35305000Y50165000D03*
X35305000Y48895000D03*
X35305000Y47625000D03*
X35305000Y46355000D03*
X35305000Y45085000D03*
X44705000Y45085000D03*
X44705000Y46355000D03*
X44705000Y47625000D03*
X44705000Y48895000D03*
X44705000Y50165000D03*
X44705000Y51435000D03*
X44705000Y52705000D03*
X44705000Y53975000D03*
X44705000Y55245000D03*
X44705000Y56515000D03*
X44705000Y57785000D03*
X44705000Y59055000D03*
X44705000Y60325000D03*
X44705000Y61595000D03*
D14*
X5080000Y49530000D03*
D15*
X5080000Y46990000D03*
X5080000Y44450000D03*
D16*
X49530000Y6350000D03*
X44450000Y6350000D03*
X41910000Y6350000D03*
X46990000Y6350000D03*
X52070000Y6350000D03*
X54610000Y6350000D03*
X38100000Y6350000D03*
X35560000Y6350000D03*
X33020000Y6350000D03*
X30480000Y6350000D03*
X27940000Y6350000D03*
D17*
X25400000Y6350000D03*
X25400000Y6350000D03*
D16*
X27940000Y6350000D03*
X30480000Y6350000D03*
X33020000Y6350000D03*
X35560000Y6350000D03*
X38100000Y6350000D03*
D18*
X33655000Y67310000D03*
D19*
X36195000Y67310000D03*
X38735000Y67310000D03*
X41275000Y67310000D03*
X43815000Y67310000D03*
X46355000Y67310000D03*
D17*
X5080000Y65405000D03*
D16*
X7620000Y65405000D03*
D20*
X27620000Y15875000D03*
X25720000Y15875000D03*
X32700000Y15875000D03*
X30800000Y15875000D03*
X37780000Y15875000D03*
X35880000Y15875000D03*
X44130000Y15875000D03*
X42230000Y15875000D03*
X49210000Y15875000D03*
X47310000Y15875000D03*
X54290000Y15875000D03*
X52390000Y15875000D03*
X65720000Y64770000D03*
X63820000Y64770000D03*
X65720000Y62230000D03*
X63820000Y62230000D03*
X63820000Y59690000D03*
X65720000Y59690000D03*
X65720000Y67310000D03*
X63820000Y67310000D03*
D21*
X21750000Y45085000D03*
X21750000Y46355000D03*
X21750000Y47625000D03*
X21750000Y48895000D03*
X16350000Y48895000D03*
X16350000Y47625000D03*
X16350000Y46355000D03*
X16350000Y45085000D03*
D22*
X31115000Y50800000D03*
X31115000Y52000000D03*
X31115000Y49600000D03*
D23*
X4130000Y54879240D03*
X6030000Y54879240D03*
X5080000Y56878220D03*
D24*
X54389020Y12700000D03*
X52290980Y12700000D03*
X49309020Y12700000D03*
X47210980Y12700000D03*
X44229020Y12700000D03*
X42130980Y12700000D03*
X37879020Y12700000D03*
X35780980Y12700000D03*
X32799020Y12700000D03*
X30700980Y12700000D03*
X27719020Y12700000D03*
X25620980Y12700000D03*
X74709020Y59690000D03*
X72610980Y59690000D03*
D25*
X9200000Y18805005D03*
X11700000Y18805005D03*
X13700000Y18805005D03*
X16200000Y18805005D03*
X9200000Y16185005D03*
X11700000Y16185005D03*
X13700000Y16185005D03*
X16200000Y16185005D03*
D26*
X19270000Y13475005D03*
X19270000Y19155005D03*
X6130000Y19155005D03*
X6130000Y13475005D03*
D17*
X67310000Y6985000D03*
D16*
X69850000Y6985000D03*
X72390000Y6985000D03*
X74930000Y6985000D03*
M02*
