G04 #@! TF.FileFunction,Soldermask,Bot*
%FSLAX46Y46*%
G04 Gerber Fmt 4.6, Leading zero omitted, Abs format (unit mm)*
G04 Created by KiCad (PCBNEW 4.0.1-stable) date 10/19/2016 12:19:56 AM*
%MOMM*%
G01*
G04 APERTURE LIST*
%ADD10C,0.101600*%
%ADD11R,2.432000X2.127200*%
%ADD12O,2.432000X2.127200*%
%ADD13C,2.700000*%
%ADD14R,2.700000X2.700000*%
%ADD15R,2.127200X2.432000*%
%ADD16O,2.127200X2.432000*%
%ADD17C,1.820000*%
%ADD18C,3.200000*%
G04 APERTURE END LIST*
D10*
D11*
X5080000Y49530000D03*
D12*
X5080000Y46990000D03*
X5080000Y44450000D03*
D13*
X49530000Y6350000D03*
X44450000Y6350000D03*
X41910000Y6350000D03*
X46990000Y6350000D03*
X52070000Y6350000D03*
X54610000Y6350000D03*
X38100000Y6350000D03*
X35560000Y6350000D03*
X33020000Y6350000D03*
X30480000Y6350000D03*
X27940000Y6350000D03*
D14*
X25400000Y6350000D03*
X25400000Y6350000D03*
D13*
X27940000Y6350000D03*
X30480000Y6350000D03*
X33020000Y6350000D03*
X35560000Y6350000D03*
X38100000Y6350000D03*
D15*
X33655000Y67310000D03*
D16*
X36195000Y67310000D03*
X38735000Y67310000D03*
X41275000Y67310000D03*
X43815000Y67310000D03*
X46355000Y67310000D03*
D14*
X5080000Y65405000D03*
D13*
X7620000Y65405000D03*
D17*
X9200000Y18805005D03*
X11700000Y18805005D03*
X13700000Y18805005D03*
X16200000Y18805005D03*
X9200000Y16185005D03*
X11700000Y16185005D03*
X13700000Y16185005D03*
X16200000Y16185005D03*
D18*
X19270000Y13475005D03*
X19270000Y19155005D03*
X6130000Y19155005D03*
X6130000Y13475005D03*
D14*
X67310000Y6985000D03*
D13*
X69850000Y6985000D03*
X72390000Y6985000D03*
X74930000Y6985000D03*
M02*
