G04 #@! TF.FileFunction,Copper,L2,Bot,Signal*
%FSLAX46Y46*%
G04 Gerber Fmt 4.6, Leading zero omitted, Abs format (unit mm)*
G04 Created by KiCad (PCBNEW 4.0.1-stable) date 10/19/2016 12:19:55 AM*
%MOMM*%
G01*
G04 APERTURE LIST*
%ADD10C,0.101600*%
%ADD11R,2.032000X1.727200*%
%ADD12O,2.032000X1.727200*%
%ADD13C,2.300000*%
%ADD14R,2.300000X2.300000*%
%ADD15R,1.727200X2.032000*%
%ADD16O,1.727200X2.032000*%
%ADD17C,1.420000*%
%ADD18C,2.800000*%
%ADD19C,0.600000*%
%ADD20C,0.254000*%
G04 APERTURE END LIST*
D10*
D11*
X5080000Y49530000D03*
D12*
X5080000Y46990000D03*
X5080000Y44450000D03*
D13*
X49530000Y6350000D03*
X44450000Y6350000D03*
X41910000Y6350000D03*
X46990000Y6350000D03*
X52070000Y6350000D03*
X54610000Y6350000D03*
X38100000Y6350000D03*
X35560000Y6350000D03*
X33020000Y6350000D03*
X30480000Y6350000D03*
X27940000Y6350000D03*
D14*
X25400000Y6350000D03*
X25400000Y6350000D03*
D13*
X27940000Y6350000D03*
X30480000Y6350000D03*
X33020000Y6350000D03*
X35560000Y6350000D03*
X38100000Y6350000D03*
D15*
X33655000Y67310000D03*
D16*
X36195000Y67310000D03*
X38735000Y67310000D03*
X41275000Y67310000D03*
X43815000Y67310000D03*
X46355000Y67310000D03*
D14*
X5080000Y65405000D03*
D13*
X7620000Y65405000D03*
D17*
X9200000Y18805005D03*
X11700000Y18805005D03*
X13700000Y18805005D03*
X16200000Y18805005D03*
X9200000Y16185005D03*
X11700000Y16185005D03*
X13700000Y16185005D03*
X16200000Y16185005D03*
D18*
X19270000Y13475005D03*
X19270000Y19155005D03*
X6130000Y19155005D03*
X6130000Y13475005D03*
D14*
X67310000Y6985000D03*
D13*
X69850000Y6985000D03*
X72390000Y6985000D03*
X74930000Y6985000D03*
D19*
X50165000Y47625000D03*
X15875000Y39370000D03*
X48260000Y47625000D03*
X14605000Y48895000D03*
X42545000Y50165000D03*
X76200000Y59690000D03*
X2540000Y55245000D03*
X37465000Y52705000D03*
X29210000Y55880000D03*
X29210000Y50800000D03*
X28575000Y13970000D03*
X33655000Y13970000D03*
X38735000Y13970000D03*
X45085000Y13970000D03*
X50165000Y13970000D03*
X55245000Y13970000D03*
X34290000Y62865000D03*
X38100000Y60960000D03*
X45085000Y64770000D03*
X38735000Y60325000D03*
X45720000Y64135000D03*
X39370000Y59690000D03*
X45085000Y63500000D03*
X27305000Y48895000D03*
X27305000Y44450000D03*
X27940000Y48260000D03*
X27940000Y43815000D03*
X32385000Y30480000D03*
X32385000Y29210000D03*
X37465000Y34290000D03*
X37465000Y30480000D03*
X39370000Y36830000D03*
X42545000Y33655000D03*
X45720000Y42545000D03*
X48895000Y39370000D03*
X46355000Y43180000D03*
X52070000Y40640000D03*
X37465000Y46355000D03*
X31750000Y46355000D03*
X37465000Y47625000D03*
X31750000Y47625000D03*
X38735000Y48895000D03*
X31750000Y45085000D03*
D20*
X33655000Y63500000D02*
X34290000Y62865000D01*
X33655000Y67310000D02*
X33655000Y63500000D01*
X38100000Y60960000D02*
X41910000Y64770000D01*
X41910000Y64770000D02*
X45085000Y64770000D01*
X38735000Y60325000D02*
X42545000Y64135000D01*
X42545000Y64135000D02*
X45720000Y64135000D01*
X39370000Y59690000D02*
X43180000Y63500000D01*
X43180000Y63500000D02*
X45085000Y63500000D01*
X27305000Y48895000D02*
X27305000Y44450000D01*
X27940000Y48260000D02*
X27940000Y43815000D01*
X32385000Y29210000D02*
X32385000Y30480000D01*
X37465000Y34290000D02*
X37465000Y30480000D01*
X39370000Y36830000D02*
X42545000Y33655000D01*
X45720000Y42545000D02*
X48895000Y39370000D01*
X52070000Y40640000D02*
X49530000Y43180000D01*
X46355000Y43180000D02*
X49530000Y43180000D01*
X31750000Y46355000D02*
X37465000Y46355000D01*
X31750000Y47625000D02*
X37465000Y47625000D01*
X38735000Y46355000D02*
X38735000Y48895000D01*
X37465000Y45085000D02*
X38735000Y46355000D01*
X31750000Y45085000D02*
X37465000Y45085000D01*
G36*
X79544000Y456000D02*
X456000Y456000D01*
X456000Y7500000D01*
X23861536Y7500000D01*
X23861536Y5200000D01*
X23888103Y5058810D01*
X23971546Y4929135D01*
X24098866Y4842141D01*
X24250000Y4811536D01*
X26550000Y4811536D01*
X26691190Y4838103D01*
X26820865Y4921546D01*
X26907859Y5048866D01*
X26938464Y5200000D01*
X26938464Y6046801D01*
X28948735Y6046801D01*
X29181325Y5483891D01*
X29611626Y5052838D01*
X30174129Y4819266D01*
X30783199Y4818735D01*
X31346109Y5051325D01*
X31777162Y5481626D01*
X32010734Y6044129D01*
X32010736Y6046801D01*
X34028735Y6046801D01*
X34261325Y5483891D01*
X34691626Y5052838D01*
X35254129Y4819266D01*
X35863199Y4818735D01*
X36426109Y5051325D01*
X36857162Y5481626D01*
X37090734Y6044129D01*
X37090736Y6046801D01*
X40378735Y6046801D01*
X40611325Y5483891D01*
X41041626Y5052838D01*
X41604129Y4819266D01*
X42213199Y4818735D01*
X42776109Y5051325D01*
X43207162Y5481626D01*
X43440734Y6044129D01*
X43440736Y6046801D01*
X45458735Y6046801D01*
X45691325Y5483891D01*
X46121626Y5052838D01*
X46684129Y4819266D01*
X47293199Y4818735D01*
X47856109Y5051325D01*
X48287162Y5481626D01*
X48520734Y6044129D01*
X48520736Y6046801D01*
X50538735Y6046801D01*
X50771325Y5483891D01*
X51201626Y5052838D01*
X51764129Y4819266D01*
X52373199Y4818735D01*
X52936109Y5051325D01*
X53367162Y5481626D01*
X53600734Y6044129D01*
X53601265Y6653199D01*
X53368675Y7216109D01*
X52938374Y7647162D01*
X52375871Y7880734D01*
X51766801Y7881265D01*
X51203891Y7648675D01*
X50772838Y7218374D01*
X50539266Y6655871D01*
X50538735Y6046801D01*
X48520736Y6046801D01*
X48521265Y6653199D01*
X48288675Y7216109D01*
X47858374Y7647162D01*
X47295871Y7880734D01*
X46686801Y7881265D01*
X46123891Y7648675D01*
X45692838Y7218374D01*
X45459266Y6655871D01*
X45458735Y6046801D01*
X43440736Y6046801D01*
X43441265Y6653199D01*
X43208675Y7216109D01*
X42778374Y7647162D01*
X42215871Y7880734D01*
X41606801Y7881265D01*
X41043891Y7648675D01*
X40612838Y7218374D01*
X40379266Y6655871D01*
X40378735Y6046801D01*
X37090736Y6046801D01*
X37091265Y6653199D01*
X36858675Y7216109D01*
X36428374Y7647162D01*
X35865871Y7880734D01*
X35256801Y7881265D01*
X34693891Y7648675D01*
X34262838Y7218374D01*
X34029266Y6655871D01*
X34028735Y6046801D01*
X32010736Y6046801D01*
X32011265Y6653199D01*
X31778675Y7216109D01*
X31348374Y7647162D01*
X30785871Y7880734D01*
X30176801Y7881265D01*
X29613891Y7648675D01*
X29182838Y7218374D01*
X28949266Y6655871D01*
X28948735Y6046801D01*
X26938464Y6046801D01*
X26938464Y7500000D01*
X26911897Y7641190D01*
X26828454Y7770865D01*
X26701134Y7857859D01*
X26550000Y7888464D01*
X24250000Y7888464D01*
X24108810Y7861897D01*
X23979135Y7778454D01*
X23892141Y7651134D01*
X23861536Y7500000D01*
X456000Y7500000D01*
X456000Y8135000D01*
X65771536Y8135000D01*
X65771536Y5835000D01*
X65798103Y5693810D01*
X65881546Y5564135D01*
X66008866Y5477141D01*
X66160000Y5446536D01*
X68460000Y5446536D01*
X68601190Y5473103D01*
X68730865Y5556546D01*
X68817859Y5683866D01*
X68846146Y5823555D01*
X68981626Y5687838D01*
X69544129Y5454266D01*
X70153199Y5453735D01*
X70716109Y5686325D01*
X71147162Y6116626D01*
X71380734Y6679129D01*
X71381265Y7288199D01*
X71148675Y7851109D01*
X70718374Y8282162D01*
X70155871Y8515734D01*
X69546801Y8516265D01*
X68983891Y8283675D01*
X68846328Y8146352D01*
X68821897Y8276190D01*
X68738454Y8405865D01*
X68611134Y8492859D01*
X68460000Y8523464D01*
X66160000Y8523464D01*
X66018810Y8496897D01*
X65889135Y8413454D01*
X65802141Y8286134D01*
X65771536Y8135000D01*
X456000Y8135000D01*
X456000Y13122296D01*
X4348691Y13122296D01*
X4619261Y12467467D01*
X5119827Y11966027D01*
X5774183Y11694315D01*
X6482709Y11693696D01*
X7137538Y11964266D01*
X7638978Y12464832D01*
X7910690Y13119188D01*
X7910692Y13122296D01*
X17488691Y13122296D01*
X17759261Y12467467D01*
X18259827Y11966027D01*
X18914183Y11694315D01*
X19622709Y11693696D01*
X20277538Y11964266D01*
X20778978Y12464832D01*
X21050690Y13119188D01*
X21051309Y13827714D01*
X20780739Y14482543D01*
X20280173Y14983983D01*
X19625817Y15255695D01*
X18917291Y15256314D01*
X18262462Y14985744D01*
X17761022Y14485178D01*
X17489310Y13830822D01*
X17488691Y13122296D01*
X7910692Y13122296D01*
X7911309Y13827714D01*
X7640739Y14482543D01*
X7140173Y14983983D01*
X6485817Y15255695D01*
X5777291Y15256314D01*
X5122462Y14985744D01*
X4621022Y14485178D01*
X4349310Y13830822D01*
X4348691Y13122296D01*
X456000Y13122296D01*
X456000Y15968944D01*
X8108811Y15968944D01*
X8274556Y15567810D01*
X8581191Y15260639D01*
X8982035Y15094195D01*
X9416061Y15093816D01*
X9817195Y15259561D01*
X10124366Y15566196D01*
X10290810Y15967040D01*
X10290811Y15968944D01*
X10608811Y15968944D01*
X10774556Y15567810D01*
X11081191Y15260639D01*
X11482035Y15094195D01*
X11916061Y15093816D01*
X12317195Y15259561D01*
X12624366Y15566196D01*
X12699980Y15748297D01*
X12774556Y15567810D01*
X13081191Y15260639D01*
X13482035Y15094195D01*
X13916061Y15093816D01*
X14317195Y15259561D01*
X14624366Y15566196D01*
X14790810Y15967040D01*
X14791189Y16401066D01*
X14625444Y16802200D01*
X14318809Y17109371D01*
X13917965Y17275815D01*
X13483939Y17276194D01*
X13082805Y17110449D01*
X12775634Y16803814D01*
X12700020Y16621713D01*
X12625444Y16802200D01*
X12318809Y17109371D01*
X11917965Y17275815D01*
X11483939Y17276194D01*
X11082805Y17110449D01*
X10775634Y16803814D01*
X10609190Y16402970D01*
X10608811Y15968944D01*
X10290811Y15968944D01*
X10291189Y16401066D01*
X10125444Y16802200D01*
X9818809Y17109371D01*
X9417965Y17275815D01*
X8983939Y17276194D01*
X8582805Y17110449D01*
X8275634Y16803814D01*
X8109190Y16402970D01*
X8108811Y15968944D01*
X456000Y15968944D01*
X456000Y18802296D01*
X4348691Y18802296D01*
X4619261Y18147467D01*
X5119827Y17646027D01*
X5774183Y17374315D01*
X6482709Y17373696D01*
X7137538Y17644266D01*
X7638978Y18144832D01*
X7823389Y18588944D01*
X8108811Y18588944D01*
X8274556Y18187810D01*
X8581191Y17880639D01*
X8982035Y17714195D01*
X9416061Y17713816D01*
X9817195Y17879561D01*
X10124366Y18186196D01*
X10290810Y18587040D01*
X10290811Y18588944D01*
X10608811Y18588944D01*
X10774556Y18187810D01*
X11081191Y17880639D01*
X11482035Y17714195D01*
X11916061Y17713816D01*
X12317195Y17879561D01*
X12624366Y18186196D01*
X12699980Y18368297D01*
X12774556Y18187810D01*
X13081191Y17880639D01*
X13482035Y17714195D01*
X13916061Y17713816D01*
X14317195Y17879561D01*
X14624366Y18186196D01*
X14790810Y18587040D01*
X14790997Y18802296D01*
X17488691Y18802296D01*
X17759261Y18147467D01*
X18259827Y17646027D01*
X18914183Y17374315D01*
X19622709Y17373696D01*
X20277538Y17644266D01*
X20778978Y18144832D01*
X21050690Y18799188D01*
X21051309Y19507714D01*
X20780739Y20162543D01*
X20280173Y20663983D01*
X19625817Y20935695D01*
X18917291Y20936314D01*
X18262462Y20665744D01*
X17761022Y20165178D01*
X17489310Y19510822D01*
X17488691Y18802296D01*
X14790997Y18802296D01*
X14791189Y19021066D01*
X14625444Y19422200D01*
X14318809Y19729371D01*
X13917965Y19895815D01*
X13483939Y19896194D01*
X13082805Y19730449D01*
X12775634Y19423814D01*
X12700020Y19241713D01*
X12625444Y19422200D01*
X12318809Y19729371D01*
X11917965Y19895815D01*
X11483939Y19896194D01*
X11082805Y19730449D01*
X10775634Y19423814D01*
X10609190Y19022970D01*
X10608811Y18588944D01*
X10290811Y18588944D01*
X10291189Y19021066D01*
X10125444Y19422200D01*
X9818809Y19729371D01*
X9417965Y19895815D01*
X8983939Y19896194D01*
X8582805Y19730449D01*
X8275634Y19423814D01*
X8109190Y19022970D01*
X8108811Y18588944D01*
X7823389Y18588944D01*
X7910690Y18799188D01*
X7911309Y19507714D01*
X7640739Y20162543D01*
X7140173Y20663983D01*
X6485817Y20935695D01*
X5777291Y20936314D01*
X5122462Y20665744D01*
X4621022Y20165178D01*
X4349310Y19510822D01*
X4348691Y18802296D01*
X456000Y18802296D01*
X456000Y30345135D01*
X31703882Y30345135D01*
X31807339Y30094748D01*
X31877000Y30024966D01*
X31877000Y29665126D01*
X31808013Y29596259D01*
X31704118Y29346054D01*
X31703882Y29075135D01*
X31807339Y28824748D01*
X31998741Y28633013D01*
X32248946Y28529118D01*
X32519865Y28528882D01*
X32770252Y28632339D01*
X32961987Y28823741D01*
X33065882Y29073946D01*
X33066118Y29344865D01*
X32962661Y29595252D01*
X32893000Y29665034D01*
X32893000Y30024874D01*
X32961987Y30093741D01*
X33065882Y30343946D01*
X33066118Y30614865D01*
X32962661Y30865252D01*
X32771259Y31056987D01*
X32521054Y31160882D01*
X32250135Y31161118D01*
X31999748Y31057661D01*
X31808013Y30866259D01*
X31704118Y30616054D01*
X31703882Y30345135D01*
X456000Y30345135D01*
X456000Y34155135D01*
X36783882Y34155135D01*
X36887339Y33904748D01*
X36957000Y33834966D01*
X36957000Y30935126D01*
X36888013Y30866259D01*
X36784118Y30616054D01*
X36783882Y30345135D01*
X36887339Y30094748D01*
X37078741Y29903013D01*
X37328946Y29799118D01*
X37599865Y29798882D01*
X37850252Y29902339D01*
X38041987Y30093741D01*
X38145882Y30343946D01*
X38146118Y30614865D01*
X38042661Y30865252D01*
X37973000Y30935034D01*
X37973000Y33834874D01*
X38041987Y33903741D01*
X38145882Y34153946D01*
X38146118Y34424865D01*
X38042661Y34675252D01*
X37851259Y34866987D01*
X37601054Y34970882D01*
X37330135Y34971118D01*
X37079748Y34867661D01*
X36888013Y34676259D01*
X36784118Y34426054D01*
X36783882Y34155135D01*
X456000Y34155135D01*
X456000Y36695135D01*
X38688882Y36695135D01*
X38792339Y36444748D01*
X38983741Y36253013D01*
X39233946Y36149118D01*
X39332548Y36149032D01*
X41863967Y33617613D01*
X41863882Y33520135D01*
X41967339Y33269748D01*
X42158741Y33078013D01*
X42408946Y32974118D01*
X42679865Y32973882D01*
X42930252Y33077339D01*
X43121987Y33268741D01*
X43225882Y33518946D01*
X43226118Y33789865D01*
X43122661Y34040252D01*
X42931259Y34231987D01*
X42681054Y34335882D01*
X42582452Y34335968D01*
X40051033Y36867387D01*
X40051118Y36964865D01*
X39947661Y37215252D01*
X39756259Y37406987D01*
X39506054Y37510882D01*
X39235135Y37511118D01*
X38984748Y37407661D01*
X38793013Y37216259D01*
X38689118Y36966054D01*
X38688882Y36695135D01*
X456000Y36695135D01*
X456000Y42410135D01*
X45038882Y42410135D01*
X45142339Y42159748D01*
X45333741Y41968013D01*
X45583946Y41864118D01*
X45682548Y41864032D01*
X48213967Y39332613D01*
X48213882Y39235135D01*
X48317339Y38984748D01*
X48508741Y38793013D01*
X48758946Y38689118D01*
X49029865Y38688882D01*
X49280252Y38792339D01*
X49471987Y38983741D01*
X49575882Y39233946D01*
X49576118Y39504865D01*
X49472661Y39755252D01*
X49281259Y39946987D01*
X49031054Y40050882D01*
X48932452Y40050968D01*
X46484533Y42498887D01*
X46489865Y42498882D01*
X46740252Y42602339D01*
X46810034Y42672000D01*
X49319580Y42672000D01*
X51388967Y40602612D01*
X51388882Y40505135D01*
X51492339Y40254748D01*
X51683741Y40063013D01*
X51933946Y39959118D01*
X52204865Y39958882D01*
X52455252Y40062339D01*
X52646987Y40253741D01*
X52750882Y40503946D01*
X52751118Y40774865D01*
X52647661Y41025252D01*
X52456259Y41216987D01*
X52206054Y41320882D01*
X52107453Y41320968D01*
X49889210Y43539210D01*
X49724403Y43649331D01*
X49530000Y43688000D01*
X46810126Y43688000D01*
X46741259Y43756987D01*
X46491054Y43860882D01*
X46220135Y43861118D01*
X45969748Y43757661D01*
X45778013Y43566259D01*
X45674118Y43316054D01*
X45674040Y43226041D01*
X45585135Y43226118D01*
X45334748Y43122661D01*
X45143013Y42931259D01*
X45039118Y42681054D01*
X45038882Y42410135D01*
X456000Y42410135D01*
X456000Y44450000D01*
X3655631Y44450000D01*
X3750371Y43973712D01*
X4020166Y43569935D01*
X4423943Y43300140D01*
X4900231Y43205400D01*
X5259769Y43205400D01*
X5736057Y43300140D01*
X6139834Y43569935D01*
X6409629Y43973712D01*
X6504369Y44450000D01*
X6409629Y44926288D01*
X6139834Y45330065D01*
X5736057Y45599860D01*
X5259769Y45694600D01*
X4900231Y45694600D01*
X4423943Y45599860D01*
X4020166Y45330065D01*
X3750371Y44926288D01*
X3655631Y44450000D01*
X456000Y44450000D01*
X456000Y46990000D01*
X3655631Y46990000D01*
X3750371Y46513712D01*
X4020166Y46109935D01*
X4423943Y45840140D01*
X4900231Y45745400D01*
X5259769Y45745400D01*
X5736057Y45840140D01*
X6139834Y46109935D01*
X6409629Y46513712D01*
X6504369Y46990000D01*
X6409629Y47466288D01*
X6139834Y47870065D01*
X5736057Y48139860D01*
X5259769Y48234600D01*
X4900231Y48234600D01*
X4423943Y48139860D01*
X4020166Y47870065D01*
X3750371Y47466288D01*
X3655631Y46990000D01*
X456000Y46990000D01*
X456000Y50393600D01*
X3675536Y50393600D01*
X3675536Y48666400D01*
X3702103Y48525210D01*
X3785546Y48395535D01*
X3912866Y48308541D01*
X4064000Y48277936D01*
X6096000Y48277936D01*
X6237190Y48304503D01*
X6366865Y48387946D01*
X6453859Y48515266D01*
X6484464Y48666400D01*
X6484464Y48760135D01*
X26623882Y48760135D01*
X26727339Y48509748D01*
X26797000Y48439966D01*
X26797000Y44905126D01*
X26728013Y44836259D01*
X26624118Y44586054D01*
X26623882Y44315135D01*
X26727339Y44064748D01*
X26918741Y43873013D01*
X27168946Y43769118D01*
X27258959Y43769040D01*
X27258882Y43680135D01*
X27362339Y43429748D01*
X27553741Y43238013D01*
X27803946Y43134118D01*
X28074865Y43133882D01*
X28325252Y43237339D01*
X28516987Y43428741D01*
X28620882Y43678946D01*
X28621118Y43949865D01*
X28517661Y44200252D01*
X28448000Y44270034D01*
X28448000Y47490135D01*
X31068882Y47490135D01*
X31172339Y47239748D01*
X31363741Y47048013D01*
X31503485Y46989986D01*
X31364748Y46932661D01*
X31173013Y46741259D01*
X31069118Y46491054D01*
X31068882Y46220135D01*
X31172339Y45969748D01*
X31363741Y45778013D01*
X31503485Y45719986D01*
X31364748Y45662661D01*
X31173013Y45471259D01*
X31069118Y45221054D01*
X31068882Y44950135D01*
X31172339Y44699748D01*
X31363741Y44508013D01*
X31613946Y44404118D01*
X31884865Y44403882D01*
X32135252Y44507339D01*
X32205034Y44577000D01*
X37465000Y44577000D01*
X37659403Y44615669D01*
X37824210Y44725790D01*
X39094210Y45995790D01*
X39204331Y46160596D01*
X39216174Y46220135D01*
X39243000Y46355000D01*
X39243000Y48439874D01*
X39311987Y48508741D01*
X39415882Y48758946D01*
X39416118Y49029865D01*
X39312661Y49280252D01*
X39121259Y49471987D01*
X38871054Y49575882D01*
X38600135Y49576118D01*
X38349748Y49472661D01*
X38158013Y49281259D01*
X38054118Y49031054D01*
X38053882Y48760135D01*
X38157339Y48509748D01*
X38227000Y48439966D01*
X38227000Y46565420D01*
X38146113Y46484533D01*
X38146118Y46489865D01*
X38042661Y46740252D01*
X37851259Y46931987D01*
X37711515Y46990014D01*
X37850252Y47047339D01*
X38041987Y47238741D01*
X38145882Y47488946D01*
X38146118Y47759865D01*
X38042661Y48010252D01*
X37851259Y48201987D01*
X37601054Y48305882D01*
X37330135Y48306118D01*
X37079748Y48202661D01*
X37009966Y48133000D01*
X32205126Y48133000D01*
X32136259Y48201987D01*
X31886054Y48305882D01*
X31615135Y48306118D01*
X31364748Y48202661D01*
X31173013Y48011259D01*
X31069118Y47761054D01*
X31068882Y47490135D01*
X28448000Y47490135D01*
X28448000Y47804874D01*
X28516987Y47873741D01*
X28620882Y48123946D01*
X28621118Y48394865D01*
X28517661Y48645252D01*
X28326259Y48836987D01*
X28076054Y48940882D01*
X27986041Y48940960D01*
X27986118Y49029865D01*
X27882661Y49280252D01*
X27691259Y49471987D01*
X27441054Y49575882D01*
X27170135Y49576118D01*
X26919748Y49472661D01*
X26728013Y49281259D01*
X26624118Y49031054D01*
X26623882Y48760135D01*
X6484464Y48760135D01*
X6484464Y50393600D01*
X6457897Y50534790D01*
X6374454Y50664465D01*
X6247134Y50751459D01*
X6096000Y50782064D01*
X4064000Y50782064D01*
X3922810Y50755497D01*
X3793135Y50672054D01*
X3706141Y50544734D01*
X3675536Y50393600D01*
X456000Y50393600D01*
X456000Y60825135D01*
X37418882Y60825135D01*
X37522339Y60574748D01*
X37713741Y60383013D01*
X37963946Y60279118D01*
X38053959Y60279040D01*
X38053882Y60190135D01*
X38157339Y59939748D01*
X38348741Y59748013D01*
X38598946Y59644118D01*
X38688959Y59644040D01*
X38688882Y59555135D01*
X38792339Y59304748D01*
X38983741Y59113013D01*
X39233946Y59009118D01*
X39504865Y59008882D01*
X39755252Y59112339D01*
X39946987Y59303741D01*
X40050882Y59553946D01*
X40050968Y59652548D01*
X43390420Y62992000D01*
X44629874Y62992000D01*
X44698741Y62923013D01*
X44948946Y62819118D01*
X45219865Y62818882D01*
X45470252Y62922339D01*
X45661987Y63113741D01*
X45765882Y63363946D01*
X45765960Y63453959D01*
X45854865Y63453882D01*
X46105252Y63557339D01*
X46296987Y63748741D01*
X46400882Y63998946D01*
X46401118Y64269865D01*
X46297661Y64520252D01*
X46106259Y64711987D01*
X45856054Y64815882D01*
X45766041Y64815960D01*
X45766118Y64904865D01*
X45662661Y65155252D01*
X45471259Y65346987D01*
X45221054Y65450882D01*
X44950135Y65451118D01*
X44699748Y65347661D01*
X44629966Y65278000D01*
X41910000Y65278000D01*
X41715597Y65239331D01*
X41550790Y65129210D01*
X38062613Y61641033D01*
X37965135Y61641118D01*
X37714748Y61537661D01*
X37523013Y61346259D01*
X37419118Y61096054D01*
X37418882Y60825135D01*
X456000Y60825135D01*
X456000Y66555000D01*
X3541536Y66555000D01*
X3541536Y64255000D01*
X3568103Y64113810D01*
X3651546Y63984135D01*
X3778866Y63897141D01*
X3930000Y63866536D01*
X6230000Y63866536D01*
X6371190Y63893103D01*
X6500865Y63976546D01*
X6587859Y64103866D01*
X6618464Y64255000D01*
X6618464Y66555000D01*
X6591897Y66696190D01*
X6508454Y66825865D01*
X6381134Y66912859D01*
X6230000Y66943464D01*
X3930000Y66943464D01*
X3788810Y66916897D01*
X3659135Y66833454D01*
X3572141Y66706134D01*
X3541536Y66555000D01*
X456000Y66555000D01*
X456000Y68326000D01*
X32402936Y68326000D01*
X32402936Y66294000D01*
X32429503Y66152810D01*
X32512946Y66023135D01*
X32640266Y65936141D01*
X32791400Y65905536D01*
X33147000Y65905536D01*
X33147000Y63500000D01*
X33185669Y63305597D01*
X33295790Y63140790D01*
X33608967Y62827613D01*
X33608882Y62730135D01*
X33712339Y62479748D01*
X33903741Y62288013D01*
X34153946Y62184118D01*
X34424865Y62183882D01*
X34675252Y62287339D01*
X34866987Y62478741D01*
X34970882Y62728946D01*
X34971118Y62999865D01*
X34867661Y63250252D01*
X34676259Y63441987D01*
X34426054Y63545882D01*
X34327453Y63545968D01*
X34163000Y63710420D01*
X34163000Y65905536D01*
X34518600Y65905536D01*
X34659790Y65932103D01*
X34789465Y66015546D01*
X34876459Y66142866D01*
X34907064Y66294000D01*
X34907064Y67489769D01*
X34950400Y67489769D01*
X34950400Y67130231D01*
X35045140Y66653943D01*
X35314935Y66250166D01*
X35718712Y65980371D01*
X36195000Y65885631D01*
X36671288Y65980371D01*
X37075065Y66250166D01*
X37344860Y66653943D01*
X37439600Y67130231D01*
X37439600Y67489769D01*
X40030400Y67489769D01*
X40030400Y67130231D01*
X40125140Y66653943D01*
X40394935Y66250166D01*
X40798712Y65980371D01*
X41275000Y65885631D01*
X41751288Y65980371D01*
X42155065Y66250166D01*
X42424860Y66653943D01*
X42519600Y67130231D01*
X42519600Y67489769D01*
X42570400Y67489769D01*
X42570400Y67130231D01*
X42665140Y66653943D01*
X42934935Y66250166D01*
X43338712Y65980371D01*
X43815000Y65885631D01*
X44291288Y65980371D01*
X44695065Y66250166D01*
X44964860Y66653943D01*
X45059600Y67130231D01*
X45059600Y67489769D01*
X45110400Y67489769D01*
X45110400Y67130231D01*
X45205140Y66653943D01*
X45474935Y66250166D01*
X45878712Y65980371D01*
X46355000Y65885631D01*
X46831288Y65980371D01*
X47235065Y66250166D01*
X47504860Y66653943D01*
X47599600Y67130231D01*
X47599600Y67489769D01*
X47504860Y67966057D01*
X47235065Y68369834D01*
X46831288Y68639629D01*
X46355000Y68734369D01*
X45878712Y68639629D01*
X45474935Y68369834D01*
X45205140Y67966057D01*
X45110400Y67489769D01*
X45059600Y67489769D01*
X44964860Y67966057D01*
X44695065Y68369834D01*
X44291288Y68639629D01*
X43815000Y68734369D01*
X43338712Y68639629D01*
X42934935Y68369834D01*
X42665140Y67966057D01*
X42570400Y67489769D01*
X42519600Y67489769D01*
X42424860Y67966057D01*
X42155065Y68369834D01*
X41751288Y68639629D01*
X41275000Y68734369D01*
X40798712Y68639629D01*
X40394935Y68369834D01*
X40125140Y67966057D01*
X40030400Y67489769D01*
X37439600Y67489769D01*
X37344860Y67966057D01*
X37075065Y68369834D01*
X36671288Y68639629D01*
X36195000Y68734369D01*
X35718712Y68639629D01*
X35314935Y68369834D01*
X35045140Y67966057D01*
X34950400Y67489769D01*
X34907064Y67489769D01*
X34907064Y68326000D01*
X34880497Y68467190D01*
X34797054Y68596865D01*
X34669734Y68683859D01*
X34518600Y68714464D01*
X32791400Y68714464D01*
X32650210Y68687897D01*
X32520535Y68604454D01*
X32433541Y68477134D01*
X32402936Y68326000D01*
X456000Y68326000D01*
X456000Y71544000D01*
X79544000Y71544000D01*
X79544000Y456000D01*
X79544000Y456000D01*
G37*
X79544000Y456000D02*
X456000Y456000D01*
X456000Y7500000D01*
X23861536Y7500000D01*
X23861536Y5200000D01*
X23888103Y5058810D01*
X23971546Y4929135D01*
X24098866Y4842141D01*
X24250000Y4811536D01*
X26550000Y4811536D01*
X26691190Y4838103D01*
X26820865Y4921546D01*
X26907859Y5048866D01*
X26938464Y5200000D01*
X26938464Y6046801D01*
X28948735Y6046801D01*
X29181325Y5483891D01*
X29611626Y5052838D01*
X30174129Y4819266D01*
X30783199Y4818735D01*
X31346109Y5051325D01*
X31777162Y5481626D01*
X32010734Y6044129D01*
X32010736Y6046801D01*
X34028735Y6046801D01*
X34261325Y5483891D01*
X34691626Y5052838D01*
X35254129Y4819266D01*
X35863199Y4818735D01*
X36426109Y5051325D01*
X36857162Y5481626D01*
X37090734Y6044129D01*
X37090736Y6046801D01*
X40378735Y6046801D01*
X40611325Y5483891D01*
X41041626Y5052838D01*
X41604129Y4819266D01*
X42213199Y4818735D01*
X42776109Y5051325D01*
X43207162Y5481626D01*
X43440734Y6044129D01*
X43440736Y6046801D01*
X45458735Y6046801D01*
X45691325Y5483891D01*
X46121626Y5052838D01*
X46684129Y4819266D01*
X47293199Y4818735D01*
X47856109Y5051325D01*
X48287162Y5481626D01*
X48520734Y6044129D01*
X48520736Y6046801D01*
X50538735Y6046801D01*
X50771325Y5483891D01*
X51201626Y5052838D01*
X51764129Y4819266D01*
X52373199Y4818735D01*
X52936109Y5051325D01*
X53367162Y5481626D01*
X53600734Y6044129D01*
X53601265Y6653199D01*
X53368675Y7216109D01*
X52938374Y7647162D01*
X52375871Y7880734D01*
X51766801Y7881265D01*
X51203891Y7648675D01*
X50772838Y7218374D01*
X50539266Y6655871D01*
X50538735Y6046801D01*
X48520736Y6046801D01*
X48521265Y6653199D01*
X48288675Y7216109D01*
X47858374Y7647162D01*
X47295871Y7880734D01*
X46686801Y7881265D01*
X46123891Y7648675D01*
X45692838Y7218374D01*
X45459266Y6655871D01*
X45458735Y6046801D01*
X43440736Y6046801D01*
X43441265Y6653199D01*
X43208675Y7216109D01*
X42778374Y7647162D01*
X42215871Y7880734D01*
X41606801Y7881265D01*
X41043891Y7648675D01*
X40612838Y7218374D01*
X40379266Y6655871D01*
X40378735Y6046801D01*
X37090736Y6046801D01*
X37091265Y6653199D01*
X36858675Y7216109D01*
X36428374Y7647162D01*
X35865871Y7880734D01*
X35256801Y7881265D01*
X34693891Y7648675D01*
X34262838Y7218374D01*
X34029266Y6655871D01*
X34028735Y6046801D01*
X32010736Y6046801D01*
X32011265Y6653199D01*
X31778675Y7216109D01*
X31348374Y7647162D01*
X30785871Y7880734D01*
X30176801Y7881265D01*
X29613891Y7648675D01*
X29182838Y7218374D01*
X28949266Y6655871D01*
X28948735Y6046801D01*
X26938464Y6046801D01*
X26938464Y7500000D01*
X26911897Y7641190D01*
X26828454Y7770865D01*
X26701134Y7857859D01*
X26550000Y7888464D01*
X24250000Y7888464D01*
X24108810Y7861897D01*
X23979135Y7778454D01*
X23892141Y7651134D01*
X23861536Y7500000D01*
X456000Y7500000D01*
X456000Y8135000D01*
X65771536Y8135000D01*
X65771536Y5835000D01*
X65798103Y5693810D01*
X65881546Y5564135D01*
X66008866Y5477141D01*
X66160000Y5446536D01*
X68460000Y5446536D01*
X68601190Y5473103D01*
X68730865Y5556546D01*
X68817859Y5683866D01*
X68846146Y5823555D01*
X68981626Y5687838D01*
X69544129Y5454266D01*
X70153199Y5453735D01*
X70716109Y5686325D01*
X71147162Y6116626D01*
X71380734Y6679129D01*
X71381265Y7288199D01*
X71148675Y7851109D01*
X70718374Y8282162D01*
X70155871Y8515734D01*
X69546801Y8516265D01*
X68983891Y8283675D01*
X68846328Y8146352D01*
X68821897Y8276190D01*
X68738454Y8405865D01*
X68611134Y8492859D01*
X68460000Y8523464D01*
X66160000Y8523464D01*
X66018810Y8496897D01*
X65889135Y8413454D01*
X65802141Y8286134D01*
X65771536Y8135000D01*
X456000Y8135000D01*
X456000Y13122296D01*
X4348691Y13122296D01*
X4619261Y12467467D01*
X5119827Y11966027D01*
X5774183Y11694315D01*
X6482709Y11693696D01*
X7137538Y11964266D01*
X7638978Y12464832D01*
X7910690Y13119188D01*
X7910692Y13122296D01*
X17488691Y13122296D01*
X17759261Y12467467D01*
X18259827Y11966027D01*
X18914183Y11694315D01*
X19622709Y11693696D01*
X20277538Y11964266D01*
X20778978Y12464832D01*
X21050690Y13119188D01*
X21051309Y13827714D01*
X20780739Y14482543D01*
X20280173Y14983983D01*
X19625817Y15255695D01*
X18917291Y15256314D01*
X18262462Y14985744D01*
X17761022Y14485178D01*
X17489310Y13830822D01*
X17488691Y13122296D01*
X7910692Y13122296D01*
X7911309Y13827714D01*
X7640739Y14482543D01*
X7140173Y14983983D01*
X6485817Y15255695D01*
X5777291Y15256314D01*
X5122462Y14985744D01*
X4621022Y14485178D01*
X4349310Y13830822D01*
X4348691Y13122296D01*
X456000Y13122296D01*
X456000Y15968944D01*
X8108811Y15968944D01*
X8274556Y15567810D01*
X8581191Y15260639D01*
X8982035Y15094195D01*
X9416061Y15093816D01*
X9817195Y15259561D01*
X10124366Y15566196D01*
X10290810Y15967040D01*
X10290811Y15968944D01*
X10608811Y15968944D01*
X10774556Y15567810D01*
X11081191Y15260639D01*
X11482035Y15094195D01*
X11916061Y15093816D01*
X12317195Y15259561D01*
X12624366Y15566196D01*
X12699980Y15748297D01*
X12774556Y15567810D01*
X13081191Y15260639D01*
X13482035Y15094195D01*
X13916061Y15093816D01*
X14317195Y15259561D01*
X14624366Y15566196D01*
X14790810Y15967040D01*
X14791189Y16401066D01*
X14625444Y16802200D01*
X14318809Y17109371D01*
X13917965Y17275815D01*
X13483939Y17276194D01*
X13082805Y17110449D01*
X12775634Y16803814D01*
X12700020Y16621713D01*
X12625444Y16802200D01*
X12318809Y17109371D01*
X11917965Y17275815D01*
X11483939Y17276194D01*
X11082805Y17110449D01*
X10775634Y16803814D01*
X10609190Y16402970D01*
X10608811Y15968944D01*
X10290811Y15968944D01*
X10291189Y16401066D01*
X10125444Y16802200D01*
X9818809Y17109371D01*
X9417965Y17275815D01*
X8983939Y17276194D01*
X8582805Y17110449D01*
X8275634Y16803814D01*
X8109190Y16402970D01*
X8108811Y15968944D01*
X456000Y15968944D01*
X456000Y18802296D01*
X4348691Y18802296D01*
X4619261Y18147467D01*
X5119827Y17646027D01*
X5774183Y17374315D01*
X6482709Y17373696D01*
X7137538Y17644266D01*
X7638978Y18144832D01*
X7823389Y18588944D01*
X8108811Y18588944D01*
X8274556Y18187810D01*
X8581191Y17880639D01*
X8982035Y17714195D01*
X9416061Y17713816D01*
X9817195Y17879561D01*
X10124366Y18186196D01*
X10290810Y18587040D01*
X10290811Y18588944D01*
X10608811Y18588944D01*
X10774556Y18187810D01*
X11081191Y17880639D01*
X11482035Y17714195D01*
X11916061Y17713816D01*
X12317195Y17879561D01*
X12624366Y18186196D01*
X12699980Y18368297D01*
X12774556Y18187810D01*
X13081191Y17880639D01*
X13482035Y17714195D01*
X13916061Y17713816D01*
X14317195Y17879561D01*
X14624366Y18186196D01*
X14790810Y18587040D01*
X14790997Y18802296D01*
X17488691Y18802296D01*
X17759261Y18147467D01*
X18259827Y17646027D01*
X18914183Y17374315D01*
X19622709Y17373696D01*
X20277538Y17644266D01*
X20778978Y18144832D01*
X21050690Y18799188D01*
X21051309Y19507714D01*
X20780739Y20162543D01*
X20280173Y20663983D01*
X19625817Y20935695D01*
X18917291Y20936314D01*
X18262462Y20665744D01*
X17761022Y20165178D01*
X17489310Y19510822D01*
X17488691Y18802296D01*
X14790997Y18802296D01*
X14791189Y19021066D01*
X14625444Y19422200D01*
X14318809Y19729371D01*
X13917965Y19895815D01*
X13483939Y19896194D01*
X13082805Y19730449D01*
X12775634Y19423814D01*
X12700020Y19241713D01*
X12625444Y19422200D01*
X12318809Y19729371D01*
X11917965Y19895815D01*
X11483939Y19896194D01*
X11082805Y19730449D01*
X10775634Y19423814D01*
X10609190Y19022970D01*
X10608811Y18588944D01*
X10290811Y18588944D01*
X10291189Y19021066D01*
X10125444Y19422200D01*
X9818809Y19729371D01*
X9417965Y19895815D01*
X8983939Y19896194D01*
X8582805Y19730449D01*
X8275634Y19423814D01*
X8109190Y19022970D01*
X8108811Y18588944D01*
X7823389Y18588944D01*
X7910690Y18799188D01*
X7911309Y19507714D01*
X7640739Y20162543D01*
X7140173Y20663983D01*
X6485817Y20935695D01*
X5777291Y20936314D01*
X5122462Y20665744D01*
X4621022Y20165178D01*
X4349310Y19510822D01*
X4348691Y18802296D01*
X456000Y18802296D01*
X456000Y30345135D01*
X31703882Y30345135D01*
X31807339Y30094748D01*
X31877000Y30024966D01*
X31877000Y29665126D01*
X31808013Y29596259D01*
X31704118Y29346054D01*
X31703882Y29075135D01*
X31807339Y28824748D01*
X31998741Y28633013D01*
X32248946Y28529118D01*
X32519865Y28528882D01*
X32770252Y28632339D01*
X32961987Y28823741D01*
X33065882Y29073946D01*
X33066118Y29344865D01*
X32962661Y29595252D01*
X32893000Y29665034D01*
X32893000Y30024874D01*
X32961987Y30093741D01*
X33065882Y30343946D01*
X33066118Y30614865D01*
X32962661Y30865252D01*
X32771259Y31056987D01*
X32521054Y31160882D01*
X32250135Y31161118D01*
X31999748Y31057661D01*
X31808013Y30866259D01*
X31704118Y30616054D01*
X31703882Y30345135D01*
X456000Y30345135D01*
X456000Y34155135D01*
X36783882Y34155135D01*
X36887339Y33904748D01*
X36957000Y33834966D01*
X36957000Y30935126D01*
X36888013Y30866259D01*
X36784118Y30616054D01*
X36783882Y30345135D01*
X36887339Y30094748D01*
X37078741Y29903013D01*
X37328946Y29799118D01*
X37599865Y29798882D01*
X37850252Y29902339D01*
X38041987Y30093741D01*
X38145882Y30343946D01*
X38146118Y30614865D01*
X38042661Y30865252D01*
X37973000Y30935034D01*
X37973000Y33834874D01*
X38041987Y33903741D01*
X38145882Y34153946D01*
X38146118Y34424865D01*
X38042661Y34675252D01*
X37851259Y34866987D01*
X37601054Y34970882D01*
X37330135Y34971118D01*
X37079748Y34867661D01*
X36888013Y34676259D01*
X36784118Y34426054D01*
X36783882Y34155135D01*
X456000Y34155135D01*
X456000Y36695135D01*
X38688882Y36695135D01*
X38792339Y36444748D01*
X38983741Y36253013D01*
X39233946Y36149118D01*
X39332548Y36149032D01*
X41863967Y33617613D01*
X41863882Y33520135D01*
X41967339Y33269748D01*
X42158741Y33078013D01*
X42408946Y32974118D01*
X42679865Y32973882D01*
X42930252Y33077339D01*
X43121987Y33268741D01*
X43225882Y33518946D01*
X43226118Y33789865D01*
X43122661Y34040252D01*
X42931259Y34231987D01*
X42681054Y34335882D01*
X42582452Y34335968D01*
X40051033Y36867387D01*
X40051118Y36964865D01*
X39947661Y37215252D01*
X39756259Y37406987D01*
X39506054Y37510882D01*
X39235135Y37511118D01*
X38984748Y37407661D01*
X38793013Y37216259D01*
X38689118Y36966054D01*
X38688882Y36695135D01*
X456000Y36695135D01*
X456000Y42410135D01*
X45038882Y42410135D01*
X45142339Y42159748D01*
X45333741Y41968013D01*
X45583946Y41864118D01*
X45682548Y41864032D01*
X48213967Y39332613D01*
X48213882Y39235135D01*
X48317339Y38984748D01*
X48508741Y38793013D01*
X48758946Y38689118D01*
X49029865Y38688882D01*
X49280252Y38792339D01*
X49471987Y38983741D01*
X49575882Y39233946D01*
X49576118Y39504865D01*
X49472661Y39755252D01*
X49281259Y39946987D01*
X49031054Y40050882D01*
X48932452Y40050968D01*
X46484533Y42498887D01*
X46489865Y42498882D01*
X46740252Y42602339D01*
X46810034Y42672000D01*
X49319580Y42672000D01*
X51388967Y40602612D01*
X51388882Y40505135D01*
X51492339Y40254748D01*
X51683741Y40063013D01*
X51933946Y39959118D01*
X52204865Y39958882D01*
X52455252Y40062339D01*
X52646987Y40253741D01*
X52750882Y40503946D01*
X52751118Y40774865D01*
X52647661Y41025252D01*
X52456259Y41216987D01*
X52206054Y41320882D01*
X52107453Y41320968D01*
X49889210Y43539210D01*
X49724403Y43649331D01*
X49530000Y43688000D01*
X46810126Y43688000D01*
X46741259Y43756987D01*
X46491054Y43860882D01*
X46220135Y43861118D01*
X45969748Y43757661D01*
X45778013Y43566259D01*
X45674118Y43316054D01*
X45674040Y43226041D01*
X45585135Y43226118D01*
X45334748Y43122661D01*
X45143013Y42931259D01*
X45039118Y42681054D01*
X45038882Y42410135D01*
X456000Y42410135D01*
X456000Y44450000D01*
X3655631Y44450000D01*
X3750371Y43973712D01*
X4020166Y43569935D01*
X4423943Y43300140D01*
X4900231Y43205400D01*
X5259769Y43205400D01*
X5736057Y43300140D01*
X6139834Y43569935D01*
X6409629Y43973712D01*
X6504369Y44450000D01*
X6409629Y44926288D01*
X6139834Y45330065D01*
X5736057Y45599860D01*
X5259769Y45694600D01*
X4900231Y45694600D01*
X4423943Y45599860D01*
X4020166Y45330065D01*
X3750371Y44926288D01*
X3655631Y44450000D01*
X456000Y44450000D01*
X456000Y46990000D01*
X3655631Y46990000D01*
X3750371Y46513712D01*
X4020166Y46109935D01*
X4423943Y45840140D01*
X4900231Y45745400D01*
X5259769Y45745400D01*
X5736057Y45840140D01*
X6139834Y46109935D01*
X6409629Y46513712D01*
X6504369Y46990000D01*
X6409629Y47466288D01*
X6139834Y47870065D01*
X5736057Y48139860D01*
X5259769Y48234600D01*
X4900231Y48234600D01*
X4423943Y48139860D01*
X4020166Y47870065D01*
X3750371Y47466288D01*
X3655631Y46990000D01*
X456000Y46990000D01*
X456000Y50393600D01*
X3675536Y50393600D01*
X3675536Y48666400D01*
X3702103Y48525210D01*
X3785546Y48395535D01*
X3912866Y48308541D01*
X4064000Y48277936D01*
X6096000Y48277936D01*
X6237190Y48304503D01*
X6366865Y48387946D01*
X6453859Y48515266D01*
X6484464Y48666400D01*
X6484464Y48760135D01*
X26623882Y48760135D01*
X26727339Y48509748D01*
X26797000Y48439966D01*
X26797000Y44905126D01*
X26728013Y44836259D01*
X26624118Y44586054D01*
X26623882Y44315135D01*
X26727339Y44064748D01*
X26918741Y43873013D01*
X27168946Y43769118D01*
X27258959Y43769040D01*
X27258882Y43680135D01*
X27362339Y43429748D01*
X27553741Y43238013D01*
X27803946Y43134118D01*
X28074865Y43133882D01*
X28325252Y43237339D01*
X28516987Y43428741D01*
X28620882Y43678946D01*
X28621118Y43949865D01*
X28517661Y44200252D01*
X28448000Y44270034D01*
X28448000Y47490135D01*
X31068882Y47490135D01*
X31172339Y47239748D01*
X31363741Y47048013D01*
X31503485Y46989986D01*
X31364748Y46932661D01*
X31173013Y46741259D01*
X31069118Y46491054D01*
X31068882Y46220135D01*
X31172339Y45969748D01*
X31363741Y45778013D01*
X31503485Y45719986D01*
X31364748Y45662661D01*
X31173013Y45471259D01*
X31069118Y45221054D01*
X31068882Y44950135D01*
X31172339Y44699748D01*
X31363741Y44508013D01*
X31613946Y44404118D01*
X31884865Y44403882D01*
X32135252Y44507339D01*
X32205034Y44577000D01*
X37465000Y44577000D01*
X37659403Y44615669D01*
X37824210Y44725790D01*
X39094210Y45995790D01*
X39204331Y46160596D01*
X39216174Y46220135D01*
X39243000Y46355000D01*
X39243000Y48439874D01*
X39311987Y48508741D01*
X39415882Y48758946D01*
X39416118Y49029865D01*
X39312661Y49280252D01*
X39121259Y49471987D01*
X38871054Y49575882D01*
X38600135Y49576118D01*
X38349748Y49472661D01*
X38158013Y49281259D01*
X38054118Y49031054D01*
X38053882Y48760135D01*
X38157339Y48509748D01*
X38227000Y48439966D01*
X38227000Y46565420D01*
X38146113Y46484533D01*
X38146118Y46489865D01*
X38042661Y46740252D01*
X37851259Y46931987D01*
X37711515Y46990014D01*
X37850252Y47047339D01*
X38041987Y47238741D01*
X38145882Y47488946D01*
X38146118Y47759865D01*
X38042661Y48010252D01*
X37851259Y48201987D01*
X37601054Y48305882D01*
X37330135Y48306118D01*
X37079748Y48202661D01*
X37009966Y48133000D01*
X32205126Y48133000D01*
X32136259Y48201987D01*
X31886054Y48305882D01*
X31615135Y48306118D01*
X31364748Y48202661D01*
X31173013Y48011259D01*
X31069118Y47761054D01*
X31068882Y47490135D01*
X28448000Y47490135D01*
X28448000Y47804874D01*
X28516987Y47873741D01*
X28620882Y48123946D01*
X28621118Y48394865D01*
X28517661Y48645252D01*
X28326259Y48836987D01*
X28076054Y48940882D01*
X27986041Y48940960D01*
X27986118Y49029865D01*
X27882661Y49280252D01*
X27691259Y49471987D01*
X27441054Y49575882D01*
X27170135Y49576118D01*
X26919748Y49472661D01*
X26728013Y49281259D01*
X26624118Y49031054D01*
X26623882Y48760135D01*
X6484464Y48760135D01*
X6484464Y50393600D01*
X6457897Y50534790D01*
X6374454Y50664465D01*
X6247134Y50751459D01*
X6096000Y50782064D01*
X4064000Y50782064D01*
X3922810Y50755497D01*
X3793135Y50672054D01*
X3706141Y50544734D01*
X3675536Y50393600D01*
X456000Y50393600D01*
X456000Y60825135D01*
X37418882Y60825135D01*
X37522339Y60574748D01*
X37713741Y60383013D01*
X37963946Y60279118D01*
X38053959Y60279040D01*
X38053882Y60190135D01*
X38157339Y59939748D01*
X38348741Y59748013D01*
X38598946Y59644118D01*
X38688959Y59644040D01*
X38688882Y59555135D01*
X38792339Y59304748D01*
X38983741Y59113013D01*
X39233946Y59009118D01*
X39504865Y59008882D01*
X39755252Y59112339D01*
X39946987Y59303741D01*
X40050882Y59553946D01*
X40050968Y59652548D01*
X43390420Y62992000D01*
X44629874Y62992000D01*
X44698741Y62923013D01*
X44948946Y62819118D01*
X45219865Y62818882D01*
X45470252Y62922339D01*
X45661987Y63113741D01*
X45765882Y63363946D01*
X45765960Y63453959D01*
X45854865Y63453882D01*
X46105252Y63557339D01*
X46296987Y63748741D01*
X46400882Y63998946D01*
X46401118Y64269865D01*
X46297661Y64520252D01*
X46106259Y64711987D01*
X45856054Y64815882D01*
X45766041Y64815960D01*
X45766118Y64904865D01*
X45662661Y65155252D01*
X45471259Y65346987D01*
X45221054Y65450882D01*
X44950135Y65451118D01*
X44699748Y65347661D01*
X44629966Y65278000D01*
X41910000Y65278000D01*
X41715597Y65239331D01*
X41550790Y65129210D01*
X38062613Y61641033D01*
X37965135Y61641118D01*
X37714748Y61537661D01*
X37523013Y61346259D01*
X37419118Y61096054D01*
X37418882Y60825135D01*
X456000Y60825135D01*
X456000Y66555000D01*
X3541536Y66555000D01*
X3541536Y64255000D01*
X3568103Y64113810D01*
X3651546Y63984135D01*
X3778866Y63897141D01*
X3930000Y63866536D01*
X6230000Y63866536D01*
X6371190Y63893103D01*
X6500865Y63976546D01*
X6587859Y64103866D01*
X6618464Y64255000D01*
X6618464Y66555000D01*
X6591897Y66696190D01*
X6508454Y66825865D01*
X6381134Y66912859D01*
X6230000Y66943464D01*
X3930000Y66943464D01*
X3788810Y66916897D01*
X3659135Y66833454D01*
X3572141Y66706134D01*
X3541536Y66555000D01*
X456000Y66555000D01*
X456000Y68326000D01*
X32402936Y68326000D01*
X32402936Y66294000D01*
X32429503Y66152810D01*
X32512946Y66023135D01*
X32640266Y65936141D01*
X32791400Y65905536D01*
X33147000Y65905536D01*
X33147000Y63500000D01*
X33185669Y63305597D01*
X33295790Y63140790D01*
X33608967Y62827613D01*
X33608882Y62730135D01*
X33712339Y62479748D01*
X33903741Y62288013D01*
X34153946Y62184118D01*
X34424865Y62183882D01*
X34675252Y62287339D01*
X34866987Y62478741D01*
X34970882Y62728946D01*
X34971118Y62999865D01*
X34867661Y63250252D01*
X34676259Y63441987D01*
X34426054Y63545882D01*
X34327453Y63545968D01*
X34163000Y63710420D01*
X34163000Y65905536D01*
X34518600Y65905536D01*
X34659790Y65932103D01*
X34789465Y66015546D01*
X34876459Y66142866D01*
X34907064Y66294000D01*
X34907064Y67489769D01*
X34950400Y67489769D01*
X34950400Y67130231D01*
X35045140Y66653943D01*
X35314935Y66250166D01*
X35718712Y65980371D01*
X36195000Y65885631D01*
X36671288Y65980371D01*
X37075065Y66250166D01*
X37344860Y66653943D01*
X37439600Y67130231D01*
X37439600Y67489769D01*
X40030400Y67489769D01*
X40030400Y67130231D01*
X40125140Y66653943D01*
X40394935Y66250166D01*
X40798712Y65980371D01*
X41275000Y65885631D01*
X41751288Y65980371D01*
X42155065Y66250166D01*
X42424860Y66653943D01*
X42519600Y67130231D01*
X42519600Y67489769D01*
X42570400Y67489769D01*
X42570400Y67130231D01*
X42665140Y66653943D01*
X42934935Y66250166D01*
X43338712Y65980371D01*
X43815000Y65885631D01*
X44291288Y65980371D01*
X44695065Y66250166D01*
X44964860Y66653943D01*
X45059600Y67130231D01*
X45059600Y67489769D01*
X45110400Y67489769D01*
X45110400Y67130231D01*
X45205140Y66653943D01*
X45474935Y66250166D01*
X45878712Y65980371D01*
X46355000Y65885631D01*
X46831288Y65980371D01*
X47235065Y66250166D01*
X47504860Y66653943D01*
X47599600Y67130231D01*
X47599600Y67489769D01*
X47504860Y67966057D01*
X47235065Y68369834D01*
X46831288Y68639629D01*
X46355000Y68734369D01*
X45878712Y68639629D01*
X45474935Y68369834D01*
X45205140Y67966057D01*
X45110400Y67489769D01*
X45059600Y67489769D01*
X44964860Y67966057D01*
X44695065Y68369834D01*
X44291288Y68639629D01*
X43815000Y68734369D01*
X43338712Y68639629D01*
X42934935Y68369834D01*
X42665140Y67966057D01*
X42570400Y67489769D01*
X42519600Y67489769D01*
X42424860Y67966057D01*
X42155065Y68369834D01*
X41751288Y68639629D01*
X41275000Y68734369D01*
X40798712Y68639629D01*
X40394935Y68369834D01*
X40125140Y67966057D01*
X40030400Y67489769D01*
X37439600Y67489769D01*
X37344860Y67966057D01*
X37075065Y68369834D01*
X36671288Y68639629D01*
X36195000Y68734369D01*
X35718712Y68639629D01*
X35314935Y68369834D01*
X35045140Y67966057D01*
X34950400Y67489769D01*
X34907064Y67489769D01*
X34907064Y68326000D01*
X34880497Y68467190D01*
X34797054Y68596865D01*
X34669734Y68683859D01*
X34518600Y68714464D01*
X32791400Y68714464D01*
X32650210Y68687897D01*
X32520535Y68604454D01*
X32433541Y68477134D01*
X32402936Y68326000D01*
X456000Y68326000D01*
X456000Y71544000D01*
X79544000Y71544000D01*
X79544000Y456000D01*
M02*
