G04 #@! TF.FileFunction,Copper,L1,Top,Signal*
%FSLAX46Y46*%
G04 Gerber Fmt 4.6, Leading zero omitted, Abs format (unit mm)*
G04 Created by KiCad (PCBNEW 4.0.1-stable) date 10/19/2016 12:19:55 AM*
%MOMM*%
G01*
G04 APERTURE LIST*
%ADD10C,0.101600*%
%ADD11R,1.250000X1.000000*%
%ADD12R,1.500000X0.900000*%
%ADD13R,2.000000X0.600000*%
%ADD14R,2.032000X1.727200*%
%ADD15O,2.032000X1.727200*%
%ADD16C,2.300000*%
%ADD17R,2.300000X2.300000*%
%ADD18R,1.727200X2.032000*%
%ADD19O,1.727200X2.032000*%
%ADD20R,0.700000X1.300000*%
%ADD21R,1.550000X0.600000*%
%ADD22R,2.000000X0.400000*%
%ADD23R,0.800100X0.800100*%
%ADD24R,1.198880X1.198880*%
%ADD25C,1.420000*%
%ADD26C,2.800000*%
%ADD27C,0.600000*%
%ADD28C,0.762000*%
%ADD29C,0.508000*%
%ADD30C,0.254000*%
G04 APERTURE END LIST*
D10*
D11*
X48260000Y51165000D03*
X48260000Y49165000D03*
X50800000Y51165000D03*
X50800000Y49165000D03*
X31115000Y54880000D03*
X31115000Y56880000D03*
X15875000Y42910000D03*
X15875000Y40910000D03*
D12*
X75210000Y66560000D03*
X75210000Y68060000D03*
X72110000Y68060000D03*
X72110000Y66560000D03*
D13*
X35305000Y61595000D03*
X35305000Y60325000D03*
X35305000Y59055000D03*
X35305000Y57785000D03*
X35305000Y56515000D03*
X35305000Y55245000D03*
X35305000Y53975000D03*
X35305000Y52705000D03*
X35305000Y51435000D03*
X35305000Y50165000D03*
X35305000Y48895000D03*
X35305000Y47625000D03*
X35305000Y46355000D03*
X35305000Y45085000D03*
X44705000Y45085000D03*
X44705000Y46355000D03*
X44705000Y47625000D03*
X44705000Y48895000D03*
X44705000Y50165000D03*
X44705000Y51435000D03*
X44705000Y52705000D03*
X44705000Y53975000D03*
X44705000Y55245000D03*
X44705000Y56515000D03*
X44705000Y57785000D03*
X44705000Y59055000D03*
X44705000Y60325000D03*
X44705000Y61595000D03*
D14*
X5080000Y49530000D03*
D15*
X5080000Y46990000D03*
X5080000Y44450000D03*
D16*
X49530000Y6350000D03*
X44450000Y6350000D03*
X41910000Y6350000D03*
X46990000Y6350000D03*
X52070000Y6350000D03*
X54610000Y6350000D03*
X38100000Y6350000D03*
X35560000Y6350000D03*
X33020000Y6350000D03*
X30480000Y6350000D03*
X27940000Y6350000D03*
D17*
X25400000Y6350000D03*
X25400000Y6350000D03*
D16*
X27940000Y6350000D03*
X30480000Y6350000D03*
X33020000Y6350000D03*
X35560000Y6350000D03*
X38100000Y6350000D03*
D18*
X33655000Y67310000D03*
D19*
X36195000Y67310000D03*
X38735000Y67310000D03*
X41275000Y67310000D03*
X43815000Y67310000D03*
X46355000Y67310000D03*
D17*
X5080000Y65405000D03*
D16*
X7620000Y65405000D03*
D20*
X27620000Y15875000D03*
X25720000Y15875000D03*
X32700000Y15875000D03*
X30800000Y15875000D03*
X37780000Y15875000D03*
X35880000Y15875000D03*
X44130000Y15875000D03*
X42230000Y15875000D03*
X49210000Y15875000D03*
X47310000Y15875000D03*
X54290000Y15875000D03*
X52390000Y15875000D03*
X65720000Y64770000D03*
X63820000Y64770000D03*
X65720000Y62230000D03*
X63820000Y62230000D03*
X63820000Y59690000D03*
X65720000Y59690000D03*
X65720000Y67310000D03*
X63820000Y67310000D03*
D21*
X21750000Y45085000D03*
X21750000Y46355000D03*
X21750000Y47625000D03*
X21750000Y48895000D03*
X16350000Y48895000D03*
X16350000Y47625000D03*
X16350000Y46355000D03*
X16350000Y45085000D03*
D22*
X31115000Y50800000D03*
X31115000Y52000000D03*
X31115000Y49600000D03*
D23*
X4130000Y54879240D03*
X6030000Y54879240D03*
X5080000Y56878220D03*
D24*
X54389020Y12700000D03*
X52290980Y12700000D03*
X49309020Y12700000D03*
X47210980Y12700000D03*
X44229020Y12700000D03*
X42130980Y12700000D03*
X37879020Y12700000D03*
X35780980Y12700000D03*
X32799020Y12700000D03*
X30700980Y12700000D03*
X27719020Y12700000D03*
X25620980Y12700000D03*
X74709020Y59690000D03*
X72610980Y59690000D03*
D25*
X9200000Y18805005D03*
X11700000Y18805005D03*
X13700000Y18805005D03*
X16200000Y18805005D03*
X9200000Y16185005D03*
X11700000Y16185005D03*
X13700000Y16185005D03*
X16200000Y16185005D03*
D26*
X19270000Y13475005D03*
X19270000Y19155005D03*
X6130000Y19155005D03*
X6130000Y13475005D03*
D17*
X67310000Y6985000D03*
D16*
X69850000Y6985000D03*
X72390000Y6985000D03*
X74930000Y6985000D03*
D27*
X50165000Y47625000D03*
X15875000Y39370000D03*
X48260000Y47625000D03*
X14605000Y48895000D03*
X42545000Y50165000D03*
X76200000Y59690000D03*
X2540000Y55245000D03*
X37465000Y52705000D03*
X29210000Y55880000D03*
X29210000Y50800000D03*
X28575000Y13970000D03*
X33655000Y13970000D03*
X38735000Y13970000D03*
X45085000Y13970000D03*
X50165000Y13970000D03*
X55245000Y13970000D03*
X34290000Y62865000D03*
X38100000Y60960000D03*
X45085000Y64770000D03*
X38735000Y60325000D03*
X45720000Y64135000D03*
X39370000Y59690000D03*
X45085000Y63500000D03*
X27305000Y48895000D03*
X27305000Y44450000D03*
X27940000Y48260000D03*
X27940000Y43815000D03*
X32385000Y30480000D03*
X32385000Y29210000D03*
X37465000Y34290000D03*
X37465000Y30480000D03*
X39370000Y36830000D03*
X42545000Y33655000D03*
X45720000Y42545000D03*
X48895000Y39370000D03*
X46355000Y43180000D03*
X52070000Y40640000D03*
X37465000Y46355000D03*
X31750000Y46355000D03*
X37465000Y47625000D03*
X31750000Y47625000D03*
X38735000Y48895000D03*
X31750000Y45085000D03*
D28*
X67310000Y6985000D02*
X69850000Y6985000D01*
X13335000Y1905000D02*
X62230000Y1905000D01*
X13335000Y1905000D02*
X2540000Y12700000D01*
X2540000Y12700000D02*
X2540000Y45720000D01*
X2540000Y45720000D02*
X3810000Y46990000D01*
X5080000Y46990000D02*
X3810000Y46990000D01*
X62230000Y1905000D02*
X67310000Y6985000D01*
X5080000Y46990000D02*
X10160000Y46990000D01*
X10160000Y46990000D02*
X15557500Y52387500D01*
X15557500Y52387500D02*
X27305000Y64135000D01*
X43180000Y51435000D02*
X44705000Y51435000D01*
X17780000Y45085000D02*
X18415000Y45720000D01*
X18415000Y45720000D02*
X18415000Y49530000D01*
X18415000Y49530000D02*
X15557500Y52387500D01*
X16350000Y45085000D02*
X17780000Y45085000D01*
X15875000Y44610000D02*
X16350000Y45085000D01*
X15875000Y42910000D02*
X15875000Y44610000D01*
X47990000Y51435000D02*
X48260000Y51165000D01*
X44705000Y51435000D02*
X47990000Y51435000D01*
X48260000Y51165000D02*
X50800000Y51165000D01*
D29*
X33020000Y69850000D02*
X73420000Y69850000D01*
X73420000Y69850000D02*
X75210000Y68060000D01*
X27305000Y64135000D02*
X33020000Y69850000D01*
D30*
X65090000Y60960000D02*
X72390000Y60960000D01*
X72390000Y60960000D02*
X76835000Y65405000D01*
X76835000Y65405000D02*
X76835000Y67310000D01*
X76835000Y67310000D02*
X76085000Y68060000D01*
X76085000Y68060000D02*
X75210000Y68060000D01*
X63820000Y59690000D02*
X65090000Y60960000D01*
D28*
X27305000Y64135000D02*
X36195000Y64135000D01*
X42545000Y52070000D02*
X43180000Y51435000D01*
X36195000Y64135000D02*
X36830000Y64135000D01*
X36830000Y64135000D02*
X42545000Y58420000D01*
X42545000Y58420000D02*
X42545000Y52070000D01*
D30*
X36195000Y67310000D02*
X36195000Y64135000D01*
X50800000Y49165000D02*
X50800000Y48260000D01*
X50800000Y48260000D02*
X50165000Y47625000D01*
X15875000Y40910000D02*
X15875000Y39370000D01*
X48260000Y49165000D02*
X48260000Y47625000D01*
D28*
X16350000Y48895000D02*
X14605000Y48895000D01*
X44705000Y50165000D02*
X42545000Y50165000D01*
D30*
X74709020Y59690000D02*
X76200000Y59690000D01*
D28*
X4130000Y54879240D02*
X2905760Y54879240D01*
X2905760Y54879240D02*
X2540000Y55245000D01*
X35305000Y52705000D02*
X37465000Y52705000D01*
D30*
X35305000Y52705000D02*
X37465000Y52705000D01*
X31115000Y56880000D02*
X30210000Y56880000D01*
X30210000Y56880000D02*
X29210000Y55880000D01*
X31115000Y50800000D02*
X29210000Y50800000D01*
X27719020Y13114020D02*
X28575000Y13970000D01*
X27719020Y12700000D02*
X27719020Y13114020D01*
X32799020Y13114020D02*
X33655000Y13970000D01*
X32799020Y12700000D02*
X32799020Y13114020D01*
X37879020Y13114020D02*
X38735000Y13970000D01*
X37879020Y12700000D02*
X37879020Y13114020D01*
X44229020Y13114020D02*
X45085000Y13970000D01*
X44229020Y12700000D02*
X44229020Y13114020D01*
X49309020Y13114020D02*
X50165000Y13970000D01*
X49309020Y12700000D02*
X49309020Y13114020D01*
X54389020Y12700000D02*
X54389020Y12936222D01*
X54389020Y13114020D02*
X55245000Y13970000D01*
X54389020Y12700000D02*
X54389020Y13114020D01*
X32020000Y53975000D02*
X35305000Y53975000D01*
X31115000Y54880000D02*
X32020000Y53975000D01*
X25720000Y12799020D02*
X25620980Y12700000D01*
X25720000Y15875000D02*
X25720000Y12799020D01*
X30800000Y12799020D02*
X30700980Y12700000D01*
X30800000Y15875000D02*
X30800000Y12799020D01*
X35880000Y12799020D02*
X35780980Y12700000D01*
X35880000Y15875000D02*
X35880000Y12799020D01*
X42230000Y12799020D02*
X42130980Y12700000D01*
X42230000Y15875000D02*
X42230000Y12799020D01*
X47310000Y12799020D02*
X47210980Y12700000D01*
X47310000Y15875000D02*
X47310000Y12799020D01*
X52390000Y12799020D02*
X52290980Y12700000D01*
X52390000Y15875000D02*
X52390000Y12799020D01*
X68260000Y64770000D02*
X73420000Y64770000D01*
X73420000Y64770000D02*
X75210000Y66560000D01*
X65720000Y62230000D02*
X68260000Y64770000D01*
X66470000Y68060000D02*
X72110000Y68060000D01*
X65720000Y67310000D02*
X66470000Y68060000D01*
X67510000Y66560000D02*
X72110000Y66560000D01*
X65720000Y64770000D02*
X67510000Y66560000D01*
X65720000Y59690000D02*
X72610980Y59690000D01*
X35305000Y61850000D02*
X35305000Y61595000D01*
X34290000Y62865000D02*
X35305000Y61850000D01*
X37465000Y60325000D02*
X38100000Y60960000D01*
X45085000Y64770000D02*
X60325000Y64770000D01*
X60325000Y64770000D02*
X62865000Y67310000D01*
X62865000Y67310000D02*
X63820000Y67310000D01*
X35305000Y60325000D02*
X37465000Y60325000D01*
X37465000Y59055000D02*
X38735000Y60325000D01*
X45720000Y64135000D02*
X62230000Y64135000D01*
X62230000Y64135000D02*
X62865000Y64770000D01*
X62865000Y64770000D02*
X63820000Y64770000D01*
X35305000Y59055000D02*
X37465000Y59055000D01*
X37465000Y57785000D02*
X39370000Y59690000D01*
X45085000Y63500000D02*
X60325000Y63500000D01*
X60325000Y63500000D02*
X61595000Y63500000D01*
X61595000Y63500000D02*
X62865000Y62230000D01*
X62865000Y62230000D02*
X63820000Y62230000D01*
X35305000Y57785000D02*
X37465000Y57785000D01*
X27305000Y16190000D02*
X27620000Y15875000D01*
X27305000Y56515000D02*
X27305000Y48895000D01*
X27305000Y44450000D02*
X27305000Y26985000D01*
X33655000Y56515000D02*
X35305000Y56515000D01*
X29845000Y59055000D02*
X28575000Y57785000D01*
X32385000Y59055000D02*
X29845000Y59055000D01*
X33020000Y58420000D02*
X32385000Y59055000D01*
X33020000Y57150000D02*
X33020000Y58420000D01*
X33655000Y56515000D02*
X33020000Y57150000D01*
X28575000Y57785000D02*
X27305000Y56515000D01*
X27305000Y16190000D02*
X27305000Y26985000D01*
X27940000Y55880000D02*
X27940000Y48260000D01*
X27940000Y43815000D02*
X27940000Y34925000D01*
X27940000Y34925000D02*
X32385000Y30480000D01*
X33655000Y55245000D02*
X35305000Y55245000D01*
X32700000Y26670000D02*
X32700000Y28895000D01*
X32385000Y29210000D02*
X32700000Y28895000D01*
X29845000Y57785000D02*
X29210000Y57150000D01*
X30480000Y58420000D02*
X29845000Y57785000D01*
X31750000Y58420000D02*
X30480000Y58420000D01*
X32385000Y57785000D02*
X31750000Y58420000D01*
X32385000Y56515000D02*
X32385000Y57785000D01*
X33655000Y55245000D02*
X32385000Y56515000D01*
X29210000Y57150000D02*
X27940000Y55880000D01*
X32700000Y15875000D02*
X32700000Y26670000D01*
X33090000Y52000000D02*
X33655000Y51435000D01*
X33655000Y51435000D02*
X35305000Y51435000D01*
X31115000Y52000000D02*
X33090000Y52000000D01*
X33090000Y49600000D02*
X33655000Y50165000D01*
X33655000Y50165000D02*
X35305000Y50165000D01*
X31115000Y49600000D02*
X33090000Y49600000D01*
X34290000Y48895000D02*
X32385000Y46990000D01*
X32385000Y46990000D02*
X32385000Y39370000D01*
X32385000Y39370000D02*
X37465000Y34290000D01*
X37465000Y30480000D02*
X37780000Y30165000D01*
X37780000Y30165000D02*
X37780000Y26670000D01*
X34290000Y48895000D02*
X35305000Y48895000D01*
X37780000Y15875000D02*
X37780000Y26670000D01*
X34290000Y47625000D02*
X33020000Y46355000D01*
X33020000Y46355000D02*
X33020000Y43180000D01*
X33020000Y43180000D02*
X34290000Y41910000D01*
X34290000Y41910000D02*
X39370000Y36830000D01*
X42545000Y33655000D02*
X44130000Y32070000D01*
X44130000Y32070000D02*
X44130000Y26670000D01*
X34290000Y47625000D02*
X35305000Y47625000D01*
X44130000Y15875000D02*
X44130000Y26670000D01*
X34290000Y46355000D02*
X33655000Y45720000D01*
X33655000Y45720000D02*
X33655000Y43815000D01*
X33655000Y43815000D02*
X34925000Y42545000D01*
X34925000Y42545000D02*
X45720000Y42545000D01*
X48895000Y39370000D02*
X49210000Y39055000D01*
X49210000Y39055000D02*
X49210000Y26670000D01*
X34290000Y46355000D02*
X35305000Y46355000D01*
X49210000Y15875000D02*
X49210000Y26670000D01*
X37210000Y43180000D02*
X35305000Y45085000D01*
X52070000Y40640000D02*
X54290000Y38420000D01*
X54290000Y26670000D02*
X54290000Y38420000D01*
X37210000Y43180000D02*
X46355000Y43180000D01*
X54290000Y15875000D02*
X54290000Y26670000D01*
X21750000Y46355000D02*
X31750000Y46355000D01*
X37465000Y46355000D02*
X44705000Y46355000D01*
X21750000Y47625000D02*
X21750000Y46355000D01*
X21750000Y48895000D02*
X22860000Y48895000D01*
X37465000Y47625000D02*
X44705000Y47625000D01*
X24130000Y47625000D02*
X31750000Y47625000D01*
X22860000Y48895000D02*
X24130000Y47625000D01*
X21750000Y45085000D02*
X31750000Y45085000D01*
X38735000Y48895000D02*
X44705000Y48895000D01*
X29210000Y10160000D02*
X29210000Y13335000D01*
X30480000Y28575000D02*
X29210000Y27305000D01*
X29210000Y21590000D02*
X29210000Y27305000D01*
X29210000Y13335000D02*
X29210000Y21590000D01*
X25400000Y6350000D02*
X29210000Y10160000D01*
X30480000Y28575000D02*
X31750000Y29845000D01*
X31750000Y29845000D02*
X34290000Y29845000D01*
X34290000Y29845000D02*
X46990000Y42545000D01*
X52070000Y52705000D02*
X52705000Y52070000D01*
X52705000Y52070000D02*
X52705000Y48260000D01*
X52705000Y48260000D02*
X52070000Y47625000D01*
X52070000Y52705000D02*
X44705000Y52705000D01*
X46990000Y42545000D02*
X52070000Y47625000D01*
X34290000Y10160000D02*
X34290000Y13335000D01*
X34290000Y13335000D02*
X34290000Y21590000D01*
X30480000Y6350000D02*
X34290000Y10160000D01*
X34290000Y21590000D02*
X34290000Y28575000D01*
X34290000Y28575000D02*
X47625000Y41910000D01*
X52070000Y53975000D02*
X53340000Y52705000D01*
X53340000Y52705000D02*
X53340000Y47625000D01*
X53340000Y47625000D02*
X47625000Y41910000D01*
X52070000Y53975000D02*
X44705000Y53975000D01*
X52070000Y55245000D02*
X44705000Y55245000D01*
X53975000Y53340000D02*
X52070000Y55245000D01*
X53975000Y46990000D02*
X53975000Y53340000D01*
X40005000Y33020000D02*
X53975000Y46990000D01*
X40005000Y22225000D02*
X40005000Y33020000D01*
X40005000Y13970000D02*
X40005000Y22225000D01*
X40005000Y10795000D02*
X40005000Y13970000D01*
X35560000Y6350000D02*
X40005000Y10795000D01*
X45720000Y10160000D02*
X45720000Y13335000D01*
X52070000Y56515000D02*
X44705000Y56515000D01*
X54610000Y53975000D02*
X52070000Y56515000D01*
X54610000Y46355000D02*
X54610000Y53975000D01*
X45720000Y37465000D02*
X54610000Y46355000D01*
X45720000Y21590000D02*
X45720000Y37465000D01*
X45720000Y13335000D02*
X45720000Y21590000D01*
X41910000Y6350000D02*
X45720000Y10160000D01*
X50800000Y10160000D02*
X50800000Y13335000D01*
X52070000Y57785000D02*
X44705000Y57785000D01*
X55245000Y54610000D02*
X52070000Y57785000D01*
X55245000Y45720000D02*
X55245000Y54610000D01*
X50800000Y41275000D02*
X55245000Y45720000D01*
X50800000Y21590000D02*
X50800000Y41275000D01*
X50800000Y13335000D02*
X50800000Y21590000D01*
X46990000Y6350000D02*
X50800000Y10160000D01*
X55880000Y10160000D02*
X55880000Y13335000D01*
X52070000Y59055000D02*
X44705000Y59055000D01*
X55880000Y55245000D02*
X52070000Y59055000D01*
X55880000Y54610000D02*
X55880000Y55245000D01*
X55880000Y45720000D02*
X55880000Y54610000D01*
X55880000Y13335000D02*
X55880000Y21590000D01*
X52070000Y6350000D02*
X55880000Y10160000D01*
X55880000Y21590000D02*
X55880000Y45720000D01*
X41275000Y62230000D02*
X41275000Y67310000D01*
X43180000Y60325000D02*
X41275000Y62230000D01*
X44705000Y60325000D02*
X43180000Y60325000D01*
X43815000Y62485000D02*
X43815000Y67310000D01*
X44705000Y61595000D02*
X43815000Y62485000D01*
D28*
X9200000Y37790000D02*
X9200000Y40330000D01*
X9200000Y18805005D02*
X9200000Y37790000D01*
X9200000Y40330000D02*
X5080000Y44450000D01*
X9200000Y16185005D02*
X9200000Y18805005D01*
D30*
X11700000Y18805005D02*
X11700000Y44085000D01*
X11700000Y44085000D02*
X12065000Y44450000D01*
X11700000Y18805005D02*
X11700000Y16185005D01*
X11700000Y44085000D02*
X12065000Y44450000D01*
X12065000Y44450000D02*
X15240000Y47625000D01*
X15240000Y47625000D02*
X16350000Y47625000D01*
X13700000Y18805005D02*
X13700000Y44815000D01*
X13700000Y44815000D02*
X13970000Y45085000D01*
X13700000Y18805005D02*
X13700000Y16185005D01*
X13700000Y44815000D02*
X13970000Y45085000D01*
X13970000Y45085000D02*
X15240000Y46355000D01*
X15240000Y46355000D02*
X16350000Y46355000D01*
D28*
X5080000Y49530000D02*
X6030000Y50480000D01*
X6030000Y50480000D02*
X6030000Y54879240D01*
X5080000Y65405000D02*
X5080000Y56878220D01*
M02*
