G04 #@! TF.FileFunction,Copper,L1,Top,Signal*
%FSLAX46Y46*%
G04 Gerber Fmt 4.6, Leading zero omitted, Abs format (unit mm)*
G04 Created by KiCad (PCBNEW 4.0.1-stable) date 8/17/2016 11:23:15 PM*
%MOMM*%
G01*
G04 APERTURE LIST*
%ADD10C,0.127000*%
%ADD11R,1.000000X1.250000*%
%ADD12R,1.250000X1.000000*%
%ADD13R,1.500000X0.900000*%
%ADD14R,2.032000X1.727200*%
%ADD15O,2.032000X1.727200*%
%ADD16C,1.420000*%
%ADD17C,2.800000*%
%ADD18R,1.727200X2.032000*%
%ADD19O,1.727200X2.032000*%
%ADD20R,2.300000X2.300000*%
%ADD21C,2.300000*%
%ADD22R,0.800100X0.800100*%
%ADD23R,0.700000X1.300000*%
%ADD24R,1.550000X0.600000*%
%ADD25R,2.000000X0.400000*%
%ADD26R,10.000000X10.000000*%
%ADD27R,1.198880X1.198880*%
%ADD28R,2.000000X0.600000*%
%ADD29C,0.600000*%
%ADD30C,0.508000*%
%ADD31C,0.762000*%
%ADD32C,0.254000*%
G04 APERTURE END LIST*
D10*
D11*
X31480000Y55880000D03*
X29480000Y55880000D03*
D12*
X16510000Y42910000D03*
X16510000Y40910000D03*
D13*
X75210000Y66560000D03*
X75210000Y68060000D03*
X72110000Y68060000D03*
X72110000Y66560000D03*
D14*
X5080000Y49530000D03*
D15*
X5080000Y46990000D03*
X5080000Y44450000D03*
D16*
X9200000Y18805005D03*
X11700000Y18805005D03*
X13700000Y18805005D03*
X16200000Y18805005D03*
X9200000Y16185005D03*
X11700000Y16185005D03*
X13700000Y16185005D03*
X16200000Y16185005D03*
D17*
X19270000Y13475005D03*
X19270000Y19155005D03*
X6130000Y19155005D03*
X6130000Y13475005D03*
D18*
X33655000Y67310000D03*
D19*
X36195000Y67310000D03*
X38735000Y67310000D03*
X41275000Y67310000D03*
X43815000Y67310000D03*
X46355000Y67310000D03*
D20*
X5080000Y65405000D03*
D21*
X7620000Y65405000D03*
D22*
X4130000Y54879240D03*
X6030000Y54879240D03*
X5080000Y56878220D03*
D23*
X65720000Y64770000D03*
X63820000Y64770000D03*
X65720000Y62230000D03*
X63820000Y62230000D03*
X63820000Y59690000D03*
X65720000Y59690000D03*
X65720000Y67310000D03*
X63820000Y67310000D03*
D24*
X21750000Y45085000D03*
X21750000Y46355000D03*
X21750000Y47625000D03*
X21750000Y48895000D03*
X16350000Y48895000D03*
X16350000Y47625000D03*
X16350000Y46355000D03*
X16350000Y45085000D03*
D25*
X48260000Y55880000D03*
X48260000Y57080000D03*
X48260000Y54680000D03*
D21*
X62865000Y6350000D03*
X60325000Y6350000D03*
X57785000Y6350000D03*
X55245000Y6350000D03*
X52705000Y6350000D03*
X50165000Y6350000D03*
X47625000Y6350000D03*
D20*
X45085000Y6350000D03*
X23495000Y6350000D03*
D21*
X26035000Y6350000D03*
X28575000Y6350000D03*
X31115000Y6350000D03*
X33655000Y6350000D03*
X36195000Y6350000D03*
X38735000Y6350000D03*
X41275000Y6350000D03*
D26*
X71755000Y8255000D03*
D27*
X74709020Y59690000D03*
X72610980Y59690000D03*
D28*
X44705000Y45085000D03*
X44705000Y46355000D03*
X44705000Y47625000D03*
X44705000Y48895000D03*
X44705000Y50165000D03*
X44705000Y51435000D03*
X44705000Y52705000D03*
X44705000Y53975000D03*
X44705000Y55245000D03*
X44705000Y56515000D03*
X44705000Y57785000D03*
X44705000Y59055000D03*
X44705000Y60325000D03*
X44705000Y61595000D03*
X35305000Y61595000D03*
X35305000Y60325000D03*
X35305000Y59055000D03*
X35305000Y57785000D03*
X35305000Y56515000D03*
X35305000Y55245000D03*
X35305000Y53975000D03*
X35305000Y52705000D03*
X35305000Y51435000D03*
X35305000Y50165000D03*
X35305000Y48895000D03*
X35305000Y47625000D03*
X35305000Y46355000D03*
X35305000Y45085000D03*
D29*
X17780000Y40640000D03*
X43180000Y53975000D03*
X33655000Y56515000D03*
X36830000Y56515000D03*
X28575000Y56515000D03*
X46355000Y53975000D03*
X49530000Y55880000D03*
X76200000Y59690000D03*
X14605000Y48895000D03*
X2540000Y54610000D03*
X43180000Y45085000D03*
X41910000Y46355000D03*
X40005000Y49530000D03*
X41910000Y51435000D03*
X40005000Y48260000D03*
X41275000Y49530000D03*
D30*
X16510000Y42910000D02*
X16510000Y44925000D01*
X16510000Y44925000D02*
X16350000Y45085000D01*
D31*
X33655000Y55245000D02*
X33020000Y55880000D01*
X33020000Y55880000D02*
X31480000Y55880000D01*
X27940000Y53975000D02*
X32385000Y53975000D01*
X19050000Y46990000D02*
X19050000Y44450000D01*
X19050000Y44450000D02*
X20320000Y43180000D01*
X20320000Y43180000D02*
X24130000Y43180000D01*
X24130000Y43180000D02*
X26035000Y45085000D01*
X26035000Y45085000D02*
X26035000Y52070000D01*
X26035000Y52070000D02*
X27940000Y53975000D01*
X33655000Y55245000D02*
X35305000Y55245000D01*
X32385000Y53975000D02*
X33655000Y55245000D01*
X45085000Y5080000D02*
X46355000Y3810000D01*
X55245000Y5080000D02*
X55245000Y6350000D01*
X53975000Y3810000D02*
X55245000Y5080000D01*
X46355000Y3810000D02*
X53975000Y3810000D01*
X33655000Y5080000D02*
X34925000Y3810000D01*
X45085000Y5080000D02*
X45085000Y6350000D01*
X43815000Y3810000D02*
X45085000Y5080000D01*
X34925000Y3810000D02*
X43815000Y3810000D01*
X23495000Y6350000D02*
X23495000Y5080000D01*
X33655000Y5080000D02*
X33655000Y6350000D01*
X32385000Y3810000D02*
X33655000Y5080000D01*
X24765000Y3810000D02*
X32385000Y3810000D01*
X23495000Y5080000D02*
X24765000Y3810000D01*
D32*
X76085000Y68060000D02*
X75210000Y68060000D01*
X76835000Y67310000D02*
X76085000Y68060000D01*
X76835000Y65405000D02*
X76835000Y67310000D01*
X72390000Y60960000D02*
X76835000Y65405000D01*
X64770000Y60960000D02*
X72390000Y60960000D01*
X63820000Y60010000D02*
X64770000Y60960000D01*
X63820000Y59690000D02*
X63820000Y60010000D01*
D31*
X14605000Y50800000D02*
X17780000Y50800000D01*
X17780000Y50800000D02*
X19050000Y49530000D01*
X14605000Y50800000D02*
X14605000Y53340000D01*
D30*
X16350000Y45085000D02*
X17145000Y45085000D01*
X73420000Y69850000D02*
X75210000Y68060000D01*
D31*
X2540000Y45720000D02*
X3810000Y46990000D01*
X3810000Y46990000D02*
X5080000Y46990000D01*
X2540000Y42545000D02*
X2540000Y10795000D01*
X2540000Y10795000D02*
X6985000Y6350000D01*
X23495000Y6350000D02*
X6985000Y6350000D01*
X2540000Y42545000D02*
X2540000Y45720000D01*
X10795000Y46990000D02*
X14605000Y50800000D01*
X5080000Y46990000D02*
X10795000Y46990000D01*
X34925000Y69850000D02*
X36195000Y68580000D01*
X14605000Y53340000D02*
X30480000Y69215000D01*
X31115000Y69850000D02*
X34925000Y69850000D01*
X30480000Y69215000D02*
X31115000Y69850000D01*
D30*
X34925000Y69850000D02*
X73420000Y69850000D01*
D31*
X36195000Y68580000D02*
X36195000Y67310000D01*
X19050000Y49530000D02*
X19050000Y46990000D01*
D30*
X17145000Y45085000D02*
X19050000Y46990000D01*
X16510000Y40910000D02*
X17510000Y40910000D01*
X17510000Y40910000D02*
X17780000Y40640000D01*
D32*
X44705000Y53975000D02*
X43180000Y53975000D01*
X35305000Y56515000D02*
X33655000Y56515000D01*
X35305000Y56515000D02*
X36830000Y56515000D01*
X29480000Y55880000D02*
X28845000Y56515000D01*
X28845000Y56515000D02*
X28575000Y56515000D01*
X46355000Y53975000D02*
X44705000Y53975000D01*
X48260000Y55880000D02*
X49530000Y55880000D01*
D30*
X74709020Y59690000D02*
X76200000Y59690000D01*
X16350000Y48895000D02*
X14605000Y48895000D01*
D32*
X2809240Y54879240D02*
X2540000Y54610000D01*
X4130000Y54879240D02*
X2809240Y54879240D01*
X70880000Y62230000D02*
X75210000Y66560000D01*
X65720000Y62230000D02*
X70880000Y62230000D01*
X68580000Y67310000D02*
X69330000Y68060000D01*
X69330000Y68060000D02*
X72110000Y68060000D01*
X65720000Y67310000D02*
X68580000Y67310000D01*
X67945000Y64770000D02*
X69735000Y66560000D01*
X69735000Y66560000D02*
X72110000Y66560000D01*
X65720000Y64770000D02*
X67945000Y64770000D01*
X65720000Y59690000D02*
X72610980Y59690000D01*
X44705000Y48895000D02*
X46355000Y48895000D01*
X47625000Y47625000D02*
X47625000Y6350000D01*
X46355000Y48895000D02*
X47625000Y47625000D01*
X44705000Y50165000D02*
X46355000Y50165000D01*
X57785000Y38100000D02*
X57785000Y6350000D01*
X57785000Y38735000D02*
X57785000Y38100000D01*
X46355000Y50165000D02*
X57785000Y38735000D01*
X40640000Y59055000D02*
X40640000Y47625000D01*
X44705000Y45085000D02*
X43180000Y45085000D01*
X40640000Y59055000D02*
X40005000Y59690000D01*
X33655000Y66040000D02*
X33655000Y67310000D01*
X33655000Y66040000D02*
X40005000Y59690000D01*
X40640000Y47625000D02*
X41910000Y46355000D01*
X44705000Y61595000D02*
X55880000Y61595000D01*
X61595000Y67310000D02*
X63820000Y67310000D01*
X55880000Y61595000D02*
X61595000Y67310000D01*
X44705000Y60325000D02*
X57150000Y60325000D01*
X61595000Y64770000D02*
X63820000Y64770000D01*
X57150000Y60325000D02*
X61595000Y64770000D01*
X21750000Y45085000D02*
X22860000Y45085000D01*
X27940000Y57785000D02*
X35305000Y57785000D01*
X24130000Y53975000D02*
X27940000Y57785000D01*
X24130000Y46355000D02*
X24130000Y53975000D01*
X22860000Y45085000D02*
X24130000Y46355000D01*
X44705000Y59055000D02*
X58420000Y59055000D01*
X58420000Y59055000D02*
X61595000Y62230000D01*
X61595000Y62230000D02*
X63820000Y62230000D01*
X21750000Y47625000D02*
X20955000Y47625000D01*
X27940000Y60325000D02*
X35305000Y60325000D01*
X20320000Y52705000D02*
X27940000Y60325000D01*
X20320000Y48260000D02*
X20320000Y52705000D01*
X20955000Y47625000D02*
X20320000Y48260000D01*
X21750000Y46355000D02*
X21750000Y47625000D01*
X21750000Y48895000D02*
X21750000Y52865000D01*
X27940000Y59055000D02*
X35305000Y59055000D01*
X21750000Y52865000D02*
X27940000Y59055000D01*
X39370000Y48895000D02*
X40005000Y49530000D01*
X36830000Y46355000D02*
X39370000Y48895000D01*
X35305000Y46355000D02*
X36830000Y46355000D01*
X41910000Y65405000D02*
X43815000Y67310000D01*
X41910000Y64770000D02*
X41910000Y65405000D01*
X41910000Y51435000D02*
X41910000Y64770000D01*
X43815000Y67310000D02*
X43180000Y66675000D01*
X35305000Y45085000D02*
X36830000Y45085000D01*
X39370000Y47625000D02*
X36830000Y45085000D01*
X39370000Y47625000D02*
X40005000Y48260000D01*
X41275000Y49530000D02*
X41275000Y67310000D01*
X44705000Y46355000D02*
X43180000Y46355000D01*
X26035000Y29210000D02*
X26035000Y6350000D01*
X43180000Y46355000D02*
X26035000Y29210000D01*
X36195000Y6350000D02*
X36195000Y33020000D01*
X46355000Y47625000D02*
X44705000Y47625000D01*
X46990000Y46990000D02*
X46355000Y47625000D01*
X46990000Y43815000D02*
X46990000Y46990000D01*
X36195000Y33020000D02*
X46990000Y43815000D01*
D31*
X6030000Y50480000D02*
X6030000Y54879240D01*
X5080000Y49530000D02*
X6030000Y50480000D01*
X9200000Y40330000D02*
X9200000Y18805005D01*
X5080000Y44450000D02*
X9200000Y40330000D01*
X9200000Y18805005D02*
X9200000Y16185005D01*
D32*
X11700000Y18805005D02*
X11700000Y44085000D01*
X11700000Y44085000D02*
X12065000Y44450000D01*
X11700000Y16185005D02*
X11700000Y18805005D01*
X11700000Y44085000D02*
X12065000Y44450000D01*
X12065000Y44450000D02*
X15240000Y47625000D01*
X15240000Y47625000D02*
X16350000Y47625000D01*
X13700000Y18805005D02*
X13700000Y44815000D01*
X13700000Y44815000D02*
X13970000Y45085000D01*
X13700000Y16185005D02*
X13700000Y18805005D01*
X13700000Y44815000D02*
X13970000Y45085000D01*
X13970000Y45085000D02*
X15240000Y46355000D01*
X15240000Y46355000D02*
X16350000Y46355000D01*
D31*
X5080000Y56878220D02*
X5080000Y65405000D01*
D32*
X44705000Y55245000D02*
X46355000Y55245000D01*
X46920000Y54680000D02*
X48260000Y54680000D01*
X46355000Y55245000D02*
X46920000Y54680000D01*
X48260000Y57080000D02*
X46920000Y57080000D01*
X46355000Y56515000D02*
X44705000Y56515000D01*
X46920000Y57080000D02*
X46355000Y56515000D01*
M02*
